<svg xmlns="http://www.w3.org/2000/svg" xmlns:xlink="http://www.w3.org/1999/xlink" version="1.1" id="Layer_1" x="0px" y="0px" width="100px" height="100px" viewBox="0 0 100 100" enable-background="new 0 0 100 100" xml:space="preserve">
<path d="M55.543,42.168v-0.089c-2.841-0.075-5.658-0.879-7.295-1.989l1.209-4.222c1.759,1.028,4.301,1.987,7.042,1.987  c2.841,0,4.778-1.41,4.778-3.571c0-2.013-1.583-3.32-4.907-4.554c-4.752-1.71-7.817-3.874-7.817-8.073  c0-3.874,2.716-6.841,7.266-7.646V9.583h3.696v4.199c2.847,0.077,4.782,0.755,6.217,1.484l-1.209,4.149  c-1.082-0.501-3.07-1.532-6.135-1.532c-3.145,0-4.279,1.608-4.279,3.145c0,1.86,1.609,2.891,5.455,4.426  c5.061,1.886,7.296,4.326,7.296,8.35c0,3.823-2.638,7.194-7.618,8.026v0.338h4.575c2.9,0,5.512,1.23,7.36,3.188  c5.134-4.042,8.437-10.306,8.437-17.337c0-12.173-9.884-22.057-22.058-22.057c-12.171,0-22.057,9.884-22.057,22.057  c0,5.384,1.937,10.317,5.146,14.149H55.543z"/>
<path d="M91.763,42.982L74.722,60.022H48.232c-0.533,0-0.965-0.431-0.965-0.965v-0.964c0-0.533,0.432-0.965,0.965-0.965h15.584  c2.666,0,4.826-2.161,4.826-4.826c0-2.664-2.16-4.824-4.826-4.824h-38c-1.28,0-2.507,0.508-3.412,1.413L1.416,69.88  c-0.967,0.967-1.437,2.241-1.411,3.507c0.018,0.881-0.025,15.421,0.007,16.076c0.058,1.151,0.524,2.284,1.403,3.163  c0.942,0.942,2.176,1.412,3.412,1.412c1.235,0,2.47-0.47,3.412-1.412l19.576-19.574h45.527c1.279,0,2.506-0.508,3.412-1.413  l21.833-21.833c1.884-1.885,1.883-4.939-0.001-6.824C96.703,41.099,93.647,41.099,91.763,42.982z"/>
</svg>