<svg xmlns="http://www.w3.org/2000/svg" xmlns:xlink="http://www.w3.org/1999/xlink" version="1.1" x="0px" y="0px" width="100px" height="100px" viewBox="0 0 100 100" enable-background="new 0 0 100 100" xml:space="preserve">
<g id="Layer_1" display="none">
	
		</g>
<g id="Layer_2">
	<path d="M34.326,42.159c-3.684,3.044-8.521,6.002-14.902,8.533l-1.472-3.713c5.714-2.266,10.057-4.884,13.377-7.562   c-4.041-4.104-6.203-8.185-7.348-11.437h4.268c1.089,2.569,2.948,5.642,6.062,8.766c5.534-5.569,7.078-10.979,7.507-13.647H16.69   v-4.216h15.198v-4.77h4.216v4.77h15.198v4.216h-5.446c-0.383,3.106-1.982,9.689-8.539,16.337c0.71,0.569,1.477,1.135,2.284,1.696   c0.805-1.075,2.078-1.781,3.524-1.781h19.157c0.361-1.812,0.558-3.684,0.558-5.603c0-15.715-12.74-28.456-28.456-28.456   c-15.715,0-28.456,12.741-28.456,28.456c0,15.715,12.741,28.455,28.456,28.455c1.475,0,2.912-0.146,4.327-0.361v-16.49   C37.095,44.308,35.633,43.239,34.326,42.159z"/>
	<polygon points="67.901,55.926 62.524,70.726 73.279,70.726 67.991,55.926  "/>
	<path d="M90.077,42.124H45.479c-2.206,0-3.994,1.788-3.994,3.994v44.598c0,2.205,1.788,3.994,3.994,3.994h44.598   c2.205,0,3.993-1.789,3.993-3.994V46.117C94.07,43.912,92.282,42.124,90.077,42.124z M78.077,83.835l-3.463-9.555H61.191   l-3.557,9.555h-4.31L65.68,52.106h4.666l12.398,31.729H78.077z"/>
</g>
</svg>