<svg xmlns="http://www.w3.org/2000/svg" xmlns:xlink="http://www.w3.org/1999/xlink" version="1.1" id="Capa_1" x="0px" y="0px" width="96.4px" height="92.286px" viewBox="0 0 96.4 92.286" enable-background="new 0 0 96.4 92.286" xml:space="preserve">
<path d="M44.543,60.829c-0.019-0.104-0.042-0.252-0.059-0.417c1.005,0.522,2.256,0.287,2.986-0.609  c0.171-0.21,0.337-0.429,0.498-0.657c1.082-1.174,8.479-9.37,19.596-25.927c4.005-5.977,7.991-14.712,8.614-16.082  c1.458-2.265,1.978-4.887,1.596-7.338c-0.385-2.511-1.755-4.89-4.018-6.406l-0.333-0.224c-2.26-1.521-4.979-1.889-7.45-1.295  c-2.42,0.576-4.652,2.056-6.2,4.271c-1.04,1.122-7.89,8.512-11.615,14.043C36.85,37.025,32.236,46.705,31.57,48.145  c-0.15,0.231-0.288,0.466-0.416,0.701c-0.428,0.783-0.371,1.706,0.073,2.426c-0.064,0.021-0.129,0.042-0.196,0.062  c-1.337,0.428-3.165,0.838-4.815,1.206c-0.827,0.185-1.614,0.361-2.31,0.536c-0.706,0.184-1.271,0.33-1.893,0.608  c-2.798,1.283-4.821,3.018-6.142,4.997c-2.181,3.278-2.427,6.841-2.662,9.849c-0.195,3.021-0.437,5.516-1.473,7.123  c0-0.001,0,0-0.001,0l0,0.001c-0.2,0.166-1.263,0.721-2.373,1.161c-0.628,0.268-1.289,0.548-1.939,0.903  c-0.644,0.374-1.327,0.755-1.965,1.657c-0.463,0.628-0.757,1.771-0.465,2.729c0.272,0.953,0.823,1.565,1.388,2.067  c0.209,0.182,0.418,0.336,0.633,0.48c1.322,0.871,3.035,1.515,5.168,2.062c6.329,1.55,16.274,2.021,23.89-3.195  c3.141-2.191,5.449-4.511,7.052-6.898C46.956,70.98,46.516,65.051,44.543,60.829z M36.424,49.207  c0.386-0.788,0.996-1.997,1.858-3.608l9.488,6.371c-0.876,1.062-1.599,1.907-2.151,2.543c-0.177,0.205-0.337,0.386-0.479,0.547  L36.424,49.207z M52.172,22.882c1.795-2.679,4.639-6.119,7.004-8.835c0.637-0.733,1.238-1.412,1.777-2.017L70.29,18.3  c-1.614,3.343-4.26,8.536-6.74,12.222c-5.163,7.688-9.499,13.528-12.739,17.664l-10.177-6.834  C43.214,36.826,46.966,30.635,52.172,22.882z M33.305,79.554c-2.039,1.434-4.492,2.347-7.055,2.855  c-1.6-3.591,0.034-9.785-6.07-9.401c-0.637,0.04-1.653,0.97-2.72,0.948c0.359-1.742,0.441-3.47,0.572-5.075  c0.206-2.992,0.525-5.558,1.853-7.504c0.812-1.197,2.012-2.306,4.153-3.301c0.032-0.033,0.894-0.294,1.887-0.513  c1.532-0.356,3.579-0.775,5.432-1.286c0.931-0.255,1.814-0.532,2.623-0.876c0.558-0.256,1.091-0.49,1.625-0.92l4.454,2.99  c-0.416,1.072-0.448,2.082-0.426,2.868c0.021,0.531,0.083,0.981,0.145,1.315c0.03,0.17,0.06,0.309,0.084,0.418  c0.014,0.054,0.024,0.101,0.037,0.146c0.007,0.021,0.011,0.043,0.02,0.071c0.004,0.015,0.009,0.031,0.019,0.062  c0.025,0.06-0.012,0.007,0.124,0.316l2.184-1.036l-2.184,1.038c1.442,3.15,1.895,6.946-0.954,11.254  C37.897,75.729,36.046,77.641,33.305,79.554z"/>
</svg>