<svg xmlns="http://www.w3.org/2000/svg" xmlns:xlink="http://www.w3.org/1999/xlink" version="1.1" id="Layer_1" x="0px" y="0px" width="82px" height="100px" viewBox="-9.5 -18.497 82 100" enable-background="new -9.5 -18.497 82 100" xml:space="preserve">
<g>
	<g>
		<defs>
			<rect id="SVGID_1_" y="0.006" width="64" height="64"/>
		</defs>
		<clipPath id="SVGID_2_">
			<use xlink:href="#SVGID_1_" overflow="visible"/>
		</clipPath>
		<polygon clip-path="url(#SVGID_2_)" fill="#000000" points="-3.664,34.428 -11.682,34.404 -9.76,31.247 -16.664,31.247     -21.206,38.503 -13.5,38.503 -19,53.784   "/>
	</g>
</g>
<g>
	<path fill="#000000" d="M71.396-15.29C70.345-14.881,46.205-3.401,46.205-3.401C44.073-2.39,42.5,0.455,42.5,2.812v73.604   c0,1.433,0.466,2.288,1.562,2.288c0.406,0,0.59-0.114,1.063-0.34l23.869-11.551c2.131-1.011,3.506-3.856,3.506-6.214v-73.602   C72.5-14.435,72.521-15.726,71.396-15.29z"/>
	<path fill="#000000" d="M68.2-16.517c2.474-1.176,2.205-1.98-0.537-1.98H29.334c-2.74,0-7.015,0.784-9.502,1.934L-5.146-5.01   C-7.631-3.859-9.5-0.755-9.5,1.984v74.389c0,2.74,1.911,5.13,4.651,5.13h39.24c2.74,0,5.108-2.39,5.108-5.13V1.984   c0-2.739,1.962-5.865,4.437-7.041L68.2-16.517z M26.5,29.503h-26v-3h26V29.503z M26.5,22.503h-26v-3h26V22.503z M26.5,15.503h-26   v-3h26V15.503z"/>
</g>
</svg>