<svg xmlns="http://www.w3.org/2000/svg" xmlns:xlink="http://www.w3.org/1999/xlink" version="1.0" id="Layer_1" x="0px" y="0px" width="100px" height="100px" viewBox="0 0 100 100" enable-background="new 0 0 100 100" xml:space="preserve">
<path d="M69.799,93.333c0,3.682-2.636,6.666-5.887,6.666H36.088c-3.251,0-5.887-2.984-5.887-6.666l0,0  c0-3.682,2.636-6.666,5.887-6.666h27.824C67.163,86.667,69.799,89.651,69.799,93.333L69.799,93.333z"/>
<path d="M51.202,0.001v61.663c1.175,0.478,2.004,1.618,2.004,2.964c0,1.769-1.434,3.21-3.206,3.21s-3.207-1.441-3.207-3.21  c0-1.346,0.83-2.486,2.004-2.964V0.001L25.741,61.862c0,0,4.057,12.88,10.265,22.906h27.988  c6.208-10.026,10.265-22.906,10.265-22.906L51.202,0.001z"/>
</svg>