<svg xmlns="http://www.w3.org/2000/svg" xmlns:xlink="http://www.w3.org/1999/xlink" version="1.1" x="0px" y="0px" width="100px" height="100px" viewBox="0 0 100 100" enable-background="new 0 0 100 100" xml:space="preserve">
<g id="Captions" display="none">
</g>
<g id="Your_Icon">
	<path d="M85.408,25.218L67.811,5.843c0,0-3.059-3.843-9.844-3.843c-5.76,0-41.422,0-41.422,0C12.863,2,9,5.089,9,8.769v81.619   C9,94.067,12.863,98,16.545,98H31c0,0,4.584-2.447,4.395-5c-1.704,0-19.167,0-19.167,0S14,93,14,90.77s0-79.309,0-81.541   C14,7,16.228,7,16.228,7h45.312C64.002,7,66,8.997,66,11.46V29h13.307C83.77,29,86,32.539,86,37v11.11c2.818,0.189,5,2.557,5,2.557   c0-13.869,0-8.759,0-12.624C91,29.122,85.408,25.218,85.408,25.218z"/>
	<path d="M40.595,98C54,89,52.872,74.489,62,77c0,0-0.017-0.721,0.12-2.766c-6.559-1.721-11.24,5.101-13.468,11.872   C46.674,92.122,43,96,40.595,98z"/>
	<path d="M70.738,83.715c0,0-4.812,0.775-7.93-3.752C55,77,47.153,97.001,40.595,98h2.164C54.868,98,71,96,70.738,83.715z"/>
	<path d="M85.008,54c-1.694,0-3.221,0.714-4.311,1.86l-0.002-0.002c0,0-16.205,16.888-16.847,17.538   c-0.643,0.651-1.224,3.782,1.345,6.385c2.568,2.604,6.206,2.51,7.109,1.597c0.785-0.797,12.909-13.085,16.046-16.263   C89.547,63.868,91,62.173,91,60.072C91,56.718,88.317,54,85.008,54z"/>
	<path d="M86,90.77c0,0-0.006,2.23-2.232,2.23c-0.62,0-4.136,0-11.768,0c0,0-2.119,4.03-6,5h17.455C87.137,98,91,94.067,91,90.388   c0,0,0-12.713,0-20.388l-5,5V90.77z"/>
	<path d="M61,42c-1.656,0-6,3-6,3s4.344,3,6,3s3-1.343,3-3S62.656,42,61,42z"/>
	<path d="M30,44c0-0.828-1.672-1-2.5-1S26,43.672,26,44.5s0.672,1.5,1.5,1.5S30,44.828,30,44z"/>
	<path d="M50,65.5c0-0.828-2-2.5-2-2.5s-1,1.672-1,2.5s0.672,1.5,1.5,1.5S50,66.328,50,65.5z"/>
	<path d="M34.027,64.224c0.667-0.455,1.412-1.51,2.126-2.749c1.138,0.637,2.392,1.088,3.72,1.326   c0.004,0.001,0.007,0.001,0.011,0.002c0.338,0.06,0.679,0.111,1.025,0.143C41.269,62.98,41.632,63,42,63   c0.378,0,0.751-0.021,1.12-0.057c0.136-0.013,0.27-0.033,0.404-0.051c0.226-0.029,0.45-0.061,0.671-0.103   c0.169-0.031,0.336-0.067,0.502-0.105c0.172-0.04,0.341-0.084,0.51-0.131c0.194-0.055,0.389-0.109,0.579-0.173   c0.101-0.034,0.199-0.073,0.299-0.109c1.126-0.408,2.172-0.979,3.112-1.687C50.292,62.049,52.032,63,54,63c3.313,0,6-2.687,6-6   s-2.687-6-6-6c0-0.391-0.021-0.777-0.059-1.159c-0.012-0.128-0.034-0.252-0.051-0.379c-0.032-0.251-0.066-0.501-0.114-0.747   c-0.028-0.148-0.065-0.294-0.1-0.441c-0.051-0.218-0.104-0.435-0.167-0.649c-0.045-0.153-0.094-0.304-0.146-0.455   c-0.067-0.2-0.139-0.397-0.217-0.593c-0.061-0.152-0.123-0.304-0.189-0.453c-0.083-0.187-0.173-0.369-0.266-0.551   c-0.074-0.147-0.147-0.293-0.228-0.437c-0.102-0.179-0.211-0.353-0.32-0.526c-0.085-0.135-0.166-0.272-0.257-0.404   c-0.128-0.186-0.267-0.363-0.405-0.541c-0.084-0.109-0.162-0.223-0.25-0.329C52.696,40.089,58,40.636,58,37c0-3.866-3.134-7-7-7   c-3.55,0-8.156,5.167-8.889,9.006C42.074,39.005,42.037,39,42,39c-0.385,0-0.764,0.021-1.139,0.058   c-0.249,0.023-0.491,0.065-0.735,0.103c-0.11,0.018-0.222,0.03-0.33,0.05c-0.318,0.059-0.629,0.135-0.938,0.219   c-0.024,0.007-0.048,0.128-0.071,0.135C38.454,39.657,38.128,40,37.808,40c0,0-0.001,0-0.002,0C37.416,39,37,38,37,36.116   c0-4.235-4.663-6.114-7-6.114c-3.313,0-6,2.686-6,5.999c0,2.384,5.01,5.47,9.057,7.019c-0.231,0.259-0.451,0.528-0.66,0.807   c-0.01,0.013-0.019,0.025-0.028,0.039c-0.197,0.266-0.384,0.54-0.56,0.822c-0.021,0.035-0.042,0.07-0.063,0.105   c-0.16,0.264-0.313,0.534-0.452,0.811c-0.033,0.065-0.063,0.131-0.095,0.197c-0.123,0.255-0.24,0.512-0.346,0.776   c-0.041,0.103-0.076,0.209-0.114,0.313c-0.087,0.236-0.172,0.473-0.243,0.716c-0.045,0.15-0.079,0.303-0.117,0.456   c-0.053,0.208-0.108,0.415-0.15,0.628c-0.042,0.212-0.068,0.43-0.099,0.646c-0.022,0.163-0.054,0.323-0.069,0.488   C30.021,50.209,30,50.602,30,51c0,0.368,0.02,0.731,0.055,1.091c0.031,0.347,0.083,0.688,0.143,1.025   c0.001,0.004,0.001,0.007,0.002,0.011c0.152,0.85,0.388,1.669,0.708,2.446c-0.951,0.197-1.763,0.45-2.251,0.783   c-2.17,1.482-2.73,4.446-1.248,6.619C28.891,65.147,31.856,65.706,34.027,64.224z M42.594,43C46.133,43,49,46.134,49,50   c0,3.865-2.867,7-6.406,7c-0.2,0-0.388-0.046-0.583-0.063c2.498-0.314,4.427-2.245,4.427-4.604c0-2.578-2.295-4.667-5.125-4.667   c-2.455,0-4.5,1.572-5.003,3.669c-0.075-0.433-0.122-0.878-0.122-1.336C36.188,46.134,39.055,43,42.594,43z"/>
</g>
</svg>