<svg xmlns="http://www.w3.org/2000/svg" xmlns:xlink="http://www.w3.org/1999/xlink" version="1.1" id="Layer_1" x="0px" y="0px" width="100px" height="100px" viewBox="0 0 100 100" enable-background="new 0 0 100 100" xml:space="preserve">
<g>
	<g>
		<path fill-rule="evenodd" clip-rule="evenodd" fill="#000000" d="M98.541,48.067c-1.058-1.159-4.059-1.526-6.473-1.17    c-1.197,0.176-18.73,5.17-18.73,5.17c0.499,1.508,1.32,4.267-1.65,7.088c-2.026,1.712-5.147,2.222-9.201,2.145    c-4.049-0.077-8.438-0.687-11.818-1.093c-1.098-0.132-4.144-0.522-4.144-0.522s2.144-0.956,5.053-1.052    c3.63-0.115,6.486-0.091,8.133,0c1.802,0.101,4.392,0.317,5.475,0.356c4.95,0.178,6.127-2.893,6.151-4.113    c0.062-3.446-1.955-4.591-8.21-5.095c-4.021-0.324-8.341-0.583-11.351-0.949c-5.803-0.712-9.971-2.29-12.097-2.484    c-1.463-0.137-5.253-0.823-8.854,2.058C19.902,57.139,0.171,62.608,0.171,62.619C3.15,72.14,19.586,75.704,19.586,75.704    c6.987-6.101,14.73-6.854,21.353-7.088c1.141-0.042,12.243-0.043,22.497,1.148c2.062,0.142,3.828-0.929,3.828-0.929    c15.382-9.506,28.501-14.711,28.501-14.711c3.112-1.131,4.027-2.481,3.979-3.516C99.653,48.727,98.553,48.081,98.541,48.067z     M63.139,48.03h10.513c1.161,0,2.104-0.823,2.104-1.838c0-1.016-0.942-1.838-2.104-1.838H63.139c-1.162,0-2.103,0.822-2.103,1.838    C61.036,47.207,61.977,48.03,63.139,48.03z M63.139,42.498h10.513c1.161,0,2.104-0.823,2.104-1.838    c0-1.016-0.942-1.837-2.104-1.837H63.139c-1.162,0-2.103,0.822-2.103,1.837C61.036,41.674,61.977,42.498,63.139,42.498z     M63.139,36.964h10.513c1.161,0,2.104-0.823,2.104-1.837c0-1.016-0.942-1.838-2.104-1.838H63.139    c-1.162,0-2.103,0.822-2.103,1.838C61.036,36.141,61.977,36.964,63.139,36.964z M44.695,44.342h10.513    c1.162,0,2.104-0.823,2.104-1.838c0-1.016-0.941-1.837-2.104-1.837H44.695c-1.162,0-2.102,0.822-2.102,1.837    C42.593,43.519,43.534,44.342,44.695,44.342z M44.695,38.809h10.513c1.162,0,2.104-0.823,2.104-1.838    c0-1.016-0.941-1.838-2.104-1.838H44.695c-1.162,0-2.102,0.822-2.102,1.838C42.593,37.986,43.534,38.809,44.695,38.809z     M63.139,31.432h10.513c1.161,0,2.104-0.823,2.104-1.838c0-1.016-0.942-1.838-2.104-1.838H63.139    c-1.162,0-2.103,0.822-2.103,1.838C61.036,30.608,61.977,31.432,63.139,31.432z"/>
	</g>
</g>
</svg>