<svg xmlns="http://www.w3.org/2000/svg" xmlns:xlink="http://www.w3.org/1999/xlink" version="1.1" x="0px" y="0px" width="100px" height="100px" viewBox="0 0 100 100" enable-background="new 0 0 100 100" xml:space="preserve">
<g id="&#1057;&#1083;&#1086;&#1081;_1">
</g>
<g id="&#1057;&#1083;&#1086;&#1081;_2">
	<g>
		<path d="M42.124,62.716l-7.096-18.236h-2.092l-7.295,18.236c-0.339,0.077-0.684,0.185-1.032,0.325    c-0.349,0.142-0.674,0.308-0.975,0.495v1.075h6.984v-1.075c-0.774-0.433-1.593-0.707-2.46-0.82l1.668-4.495h6.277l1.639,4.495    c-0.377,0.077-0.772,0.189-1.187,0.34c-0.416,0.15-0.803,0.31-1.159,0.48v1.075h8.848v-1.075    c-0.282-0.187-0.612-0.353-0.988-0.495C42.878,62.901,42.501,62.793,42.124,62.716z M30.504,56.383l1.951-5.343l0.622-2.488h0.056    l0.537,2.431l1.838,5.4H30.504z"/>
		<path d="M83.067,17.909h-35c-1.544,0-2.8,1.256-2.8,2.8v14.026h-29.4c-0.773,0-1.4,0.626-1.4,1.4v36.374    c0,0.774,0.627,1.4,1.4,1.4h12.6v6.234c0,0.535,0.305,1.023,0.785,1.258c0.195,0.096,0.405,0.142,0.615,0.142    c0.306,0,0.61-0.1,0.861-0.295l9.421-7.339h13.519c0.773,0,1.4-0.626,1.4-1.4v-15.4h3.038c0.451,0,1.27,0.286,1.624,0.567    l7.373,5.865c0.454,0.361,0.954,0.551,1.446,0.551c0.954,0,1.92-0.748,1.92-2.177v-4.807h12.6c1.544,0,2.8-1.256,2.8-2.8v-33.6    C85.867,19.166,84.611,17.909,83.067,17.909z M52.267,71.109h-12.6c-0.312,0-0.615,0.104-0.861,0.295l-7.539,5.873v-4.769    c0-0.774-0.627-1.4-1.4-1.4h-12.6V37.535h28v16.774c0,1.544,1.256,2.8,2.8,2.8h4.2V71.109z M83.067,54.309h-12.6    c-1.544,0-2.8,1.256-2.8,2.8l-0.001,3.304l-6.194-4.927c-0.856-0.682-2.272-1.177-3.367-1.177H48.067v-33.6h35V54.309z"/>
		<path d="M54.237,50.019h1.57v-1.25h6.117v-7.819h-7.686V50.019z M55.806,42.465h4.521v4.788h-4.521V42.465z"/>
		<rect x="53.013" y="29.886" width="9.762" height="1.516"/>
		<rect x="54.423" y="26.296" width="7.34" height="1.463"/>
		<path d="M64.956,50.072h1.702v-1.224h7.766v1.064h1.729v-9.521H64.956V50.072z M66.658,42.014h7.766V47.2h-7.766V42.014z"/>
		<path d="M78.014,36.562h-2.659V30.95h-6.063l0.451-2.979h7.288v-1.596H63.811v1.596h4.203c-0.16,0.931-0.319,1.969-0.479,2.979    h-3.192v1.596h2.926c-0.265,1.463-0.532,2.846-0.771,4.017h-3.644v1.621h15.159V36.562z M73.626,36.562h-5.347    c0.241-1.17,0.506-2.58,0.745-4.017h4.602V36.562z"/>
		<rect x="54.264" y="33.609" width="7.58" height="1.463"/>
		<rect x="54.264" y="37.28" width="7.58" height="1.463"/>
	</g>
</g>
</svg>