<?xml version="1.0" encoding="UTF-8" standalone="no"?>
<svg
   xmlns:dc="http://purl.org/dc/elements/1.1/"
   xmlns:cc="http://creativecommons.org/ns#"
   xmlns:rdf="http://www.w3.org/1999/02/22-rdf-syntax-ns#"
   xmlns:svg="http://www.w3.org/2000/svg"
   xmlns="http://www.w3.org/2000/svg"
   xmlns:sodipodi="http://sodipodi.sourceforge.net/DTD/sodipodi-0.dtd"
   xmlns:inkscape="http://www.inkscape.org/namespaces/inkscape"
   version="1.1"
   id="Your_Icon"
   x="0px"
   y="0px"
   width="98.023px"
   height="100px"
   viewBox="0 0 98.023 100"
   enable-background="new 0 0 98.023 100"
   xml:space="preserve"
   inkscape:version="0.48.3.1 r9886"
   sodipodi:docname="icon_26704.svg"><metadata
   id="metadata3162"><rdf:RDF><cc:Work
       rdf:about=""><dc:format>image/svg+xml</dc:format><dc:type
         rdf:resource="http://purl.org/dc/dcmitype/StillImage" /></cc:Work></rdf:RDF></metadata><defs
   id="defs3160" /><sodipodi:namedview
   pagecolor="#ffffff"
   bordercolor="#666666"
   borderopacity="1"
   objecttolerance="10"
   gridtolerance="10"
   guidetolerance="10"
   inkscape:pageopacity="0"
   inkscape:pageshadow="2"
   inkscape:window-width="1280"
   inkscape:window-height="747"
   id="namedview3158"
   showgrid="false"
   inkscape:zoom="2.36"
   inkscape:cx="115.42841"
   inkscape:cy="22.137383"
   inkscape:window-x="0"
   inkscape:window-y="27"
   inkscape:window-maximized="1"
   inkscape:current-layer="Your_Icon" />
<path
   fill="#000000"
   d="M41.992,17.974h35.104c1.236,0,2.237-1,2.237-2.237c0-1.237-1.001-2.237-2.237-2.237H41.992  c-1.237,0-2.237,1-2.237,2.237C39.754,16.973,40.755,17.974,41.992,17.974z"
   id="path3150" />
<path
   fill="#000000"
   d="M77.096,32.396H55.494c-1.237,0-2.237,1-2.237,2.237c0,1.237,1,2.237,2.237,2.237h21.603  c1.236,0,2.237-1,2.237-2.237C79.333,33.396,78.333,32.396,77.096,32.396z"
   id="path3152" />
<path
   fill="#000000"
   d="M60.896,51.298H41.992c-1.237,0-2.237,1.001-2.237,2.237s1,2.237,2.237,2.237h18.904  c1.236,0,2.237-1.001,2.237-2.237S62.132,51.298,60.896,51.298z"
   id="path3154" />
<path
   d="M 97.604,91.65 90.927,77.306 c 1.07,-0.166 1.905,-1.051 1.905,-2.169 l 0,-72.9 C 92.833,1 91.832,0 90.595,0 L 28.492,0 c -1.237,0 -2.237,1 -2.237,2.237 l 0,12.602 -24.769,8.82 c -1.162,0.415 -1.77,1.695 -1.357,2.857 l 24.45,68.677 c 0.199,0.56 0.612,1.016 1.149,1.271 0.302,0.145 0.629,0.217 0.959,0.217 0.253,0 0.507,-0.044 0.751,-0.129 l 49.223,-17.528 8.562,18.389 c 0.503,1.077 1.409,1.909 2.525,2.316 0.497,0.181 1.014,0.271 1.532,0.271 0.647,0 1.292,-0.14 1.891,-0.42 l 4.267,-1.987 C 97.676,96.55 98.646,93.89 97.604,91.65 z M 30.729,4.474 l 57.629,0 0,67.314 -7.65,-16.434 c -0.155,-0.332 -0.35,-0.645 -0.579,-0.928 l -6.11,-7.546 c -0.872,-1.075 -2.161,-1.658 -3.48,-1.658 -0.636,0 -1.28,0.135 -1.886,0.417 -1.861,0.868 -2.895,2.888 -2.506,4.905 l 1.84,9.53 c 0.069,0.36 0.184,0.71 0.336,1.04 l 5.487,11.786 -43.081,0 z m 41.213,52.489 -1.402,-7.267 4.658,5.753 z M 5.096,27.124 l 21.159,-7.533 0,55.547 c 0,1.236 1,2.237 2.237,2.237 l 39.458,0 -39.906,14.212 z"
   id="path3156"
   inkscape:connector-curvature="0"
   style="fill:#000000"
   sodipodi:nodetypes="ccscssscccccsccccscccccccccscccccccccccccssccc" />
</svg>