<?xml version="1.0" encoding="UTF-8" standalone="no"?>
<svg
   xmlns:dc="http://purl.org/dc/elements/1.1/"
   xmlns:cc="http://creativecommons.org/ns#"
   xmlns:rdf="http://www.w3.org/1999/02/22-rdf-syntax-ns#"
   xmlns:svg="http://www.w3.org/2000/svg"
   xmlns="http://www.w3.org/2000/svg"
   xmlns:sodipodi="http://sodipodi.sourceforge.net/DTD/sodipodi-0.dtd"
   xmlns:inkscape="http://www.inkscape.org/namespaces/inkscape"
   version="1.1"
   id="Calque_1"
   x="0px"
   y="0px"
   width="153.17612"
   height="111.35801"
   viewBox="0 0 153.17612 111.35801"
   enable-background="new 0 0 100 100"
   xml:space="preserve"
   inkscape:version="0.48.3.1 r9886"
   sodipodi:docname="icon_1186_cut.svg"><metadata
   id="metadata3185"><rdf:RDF><cc:Work
       rdf:about=""><dc:format>image/svg+xml</dc:format><dc:type
         rdf:resource="http://purl.org/dc/dcmitype/StillImage" /><dc:title></dc:title></cc:Work></rdf:RDF></metadata><defs
   id="defs3183" /><sodipodi:namedview
   pagecolor="#ffffff"
   bordercolor="#666666"
   borderopacity="1"
   objecttolerance="10"
   gridtolerance="10"
   guidetolerance="10"
   inkscape:pageopacity="0"
   inkscape:pageshadow="2"
   inkscape:window-width="1280"
   inkscape:window-height="747"
   id="namedview3181"
   showgrid="false"
   inkscape:zoom="2.4"
   inkscape:cx="62.378532"
   inkscape:cy="61.875136"
   inkscape:window-x="0"
   inkscape:window-y="27"
   inkscape:window-maximized="1"
   inkscape:current-layer="g3173"
   fit-margin-top="10"
   fit-margin-left="10"
   fit-margin-right="10"
   fit-margin-bottom="10" />
<g
   id="g3173"
   transform="translate(53.328393,6.4792677)">
	<path
   d="M 87.706669,17.853456 C 84.28062,8.4773408 77.954707,2.1698029 73.576514,3.7684029 73.227395,3.8953555 72.901661,4.0774322 72.594302,4.2945879 v -0.00334 L 28.306232,36.719276 h 0.0033 c -0.992234,0.706591 -1.431557,2.007855 -0.998916,3.203882 0.437652,1.196026 1.611964,1.904288 2.821354,1.809074 l 0.02005,0.05679 54.471002,-3.810247 c 0.46939,-0.01002 0.930428,-0.08519 1.359729,-0.243883 4.379863,-1.60027 5.153271,-10.500313 1.723882,-19.881439 z m -3.238961,17.160311 c -3.098645,1.134221 -7.91449,-4.259592 -10.75923,-12.043789 -2.841399,-7.780856 -2.635936,-15.0104701 0.462709,-16.1430206 3.098645,-1.1342209 7.917831,4.2579226 10.76257,12.0404486 2.841399,7.784197 2.635937,15.01214 -0.466049,16.146361 z"
   id="path3175"
   inkscape:connector-curvature="0" />
	<path
   d="m 50.563021,46.304193 c 0,-1.354717 -1.351376,-2.450518 -3.021805,-2.450518 -1.503385,0 -2.747855,0.89869 -2.971692,2.069661 l -2.76623,11.796566 -16.420311,-6.785281 -30.0827467,1.996162 -37.9604873,37.881977 0.0017,0.005 c -0.417607,0.420948 -0.669842,0.955485 -0.669842,1.535124 0,1.353047 1.351377,2.450519 3.018464,2.450519 0.823521,0 1.571873,-0.27061 2.116433,-0.708262 l 0.005,0.0033 33.4904207,-25.859903 C -2.939368,77.089122 -1.2486889,86.040264 0.57017717,94.87874 7.9318039,94.8534 15.660664,94.86304 25.645814,94.85362 27.270341,84.977728 29.040925,75.12632 30.76178,65.266849 l 14.708123,4.790789 c 0,0 2.443837,1.099142 3.865371,-1.652054 1.36307,-2.644288 1.239458,-20.58636 1.226095,-22.031281 -0.005,-0.02673 0.0017,-0.04844 0.0017,-0.07016 z"
   id="path3177"
   inkscape:connector-curvature="0"
   sodipodi:nodetypes="ssccccccsscccccccccs" />
	<path
   d="m 10.427637,48.677872 c 6.232368,0.02172 11.3088,-5.016296 11.327175,-11.250335 0.02339,-6.234039 -5.014626,-11.307131 -11.248665,-11.328846 -6.2340394,-0.02004 -11.30546021,5.017967 -11.32550535,11.252006 -0.023386,6.232368 5.01462625,11.303789 11.24699535,11.327175 z m 5.10984,-8.126634 c 1.384785,-0.89702 2.933273,-0.967178 3.459458,-0.152009 0.524514,0.815169 -0.170384,2.198284 -1.550158,3.096974 -1.383115,0.89702 -2.931602,0.967178 -3.457787,0.15368 -0.529526,-0.811829 0.165372,-2.199955 1.548487,-3.098645 z"
   id="path3179"
   inkscape:connector-curvature="0" />
</g>
</svg>