<svg xmlns="http://www.w3.org/2000/svg" xmlns:xlink="http://www.w3.org/1999/xlink" version="1.1" x="0px" y="0px" width="100px" height="100px" viewBox="0 0 100 100" enable-background="new 0 0 100 100" xml:space="preserve">
<g id="Captions">
</g>
<g id="Your_Icon">
	<g>
		<path d="M64.515,63.922c-0.462,0-0.927-0.107-1.356-0.33c-1.141-0.59-1.771-1.853-1.556-3.12l1.837-10.746l-11.294,1.433    c-0.929,0.119-1.854-0.211-2.499-0.883c-0.649-0.673-0.94-1.613-0.786-2.534l1.801-10.795l-11.246,1.47    c-1.256,0.162-2.475-0.49-3.032-1.624c-0.56-1.135-0.333-2.5,0.562-3.395L62.451,7.889c1.153-1.154,3.022-1.154,4.176,0    c1.154,1.153,1.154,3.024,0,4.177L47.264,31.432l6.582-0.86c0.921-0.123,1.859,0.204,2.51,0.877    c0.649,0.673,0.94,1.615,0.788,2.539l-1.802,10.81l11.309-1.432c0.943-0.12,1.857,0.212,2.505,0.886    c0.648,0.676,0.937,1.619,0.778,2.541l-0.942,5.524l18.943-18.944c1.152-1.154,3.021-1.154,4.177,0    c1.153,1.153,1.153,3.024,0,4.177L66.604,63.059C66.037,63.625,65.28,63.922,64.515,63.922z"/>
	</g>
	<g>
		<path d="M9.979,92.977c-0.768,0-1.521-0.3-2.089-0.862c-0.867-0.866-1.109-2.177-0.609-3.296l20.544-46.028    c0.147-0.329,0.354-0.629,0.609-0.884l9.138-9.137c1.154-1.153,3.024-1.154,4.178,0c1.153,1.154,1.153,3.024,0,4.178l-8.752,8.75    L15.83,84.159l38.668-17.347l8.559-8.559c1.153-1.155,3.022-1.155,4.177,0c1.154,1.152,1.154,3.021,0,4.176l-8.943,8.943    c-0.253,0.254-0.552,0.459-0.879,0.607L11.186,92.718C10.798,92.892,10.387,92.977,9.979,92.977z"/>
	</g>
	<g>
		<polygon points="30.796,78.604 21.396,69.206 11.807,88.194   "/>
		<path d="M11.808,91.148c-0.767,0-1.523-0.298-2.089-0.865c-0.904-0.901-1.124-2.282-0.549-3.419l9.59-18.989    c0.428-0.848,1.233-1.436,2.169-1.585c0.932-0.155,1.887,0.157,2.557,0.827l9.4,9.398c0.67,0.67,0.978,1.62,0.826,2.556    c-0.149,0.937-0.737,1.743-1.584,2.17l-18.989,9.59C12.716,91.045,12.259,91.148,11.808,91.148z M22.195,74.182l-3.704,7.327    l7.331-3.7L22.195,74.182z"/>
	</g>
	<g>
		<path d="M67.023,49.249c-0.756,0-1.513-0.289-2.089-0.866c-1.154-1.153-1.154-3.024,0-4.178l16.916-16.917    c1.152-1.154,3.021-1.154,4.177,0c1.153,1.153,1.153,3.024,0,4.177L69.11,48.383C68.535,48.96,67.778,49.249,67.023,49.249z"/>
	</g>
	<g>
		<path d="M54.229,36.455c-0.756,0-1.512-0.289-2.089-0.865c-1.154-1.153-1.154-3.024,0-4.177l16.915-16.918    c1.154-1.153,3.024-1.153,4.178,0c1.154,1.153,1.154,3.024,0,4.178L56.317,35.589C55.74,36.166,54.985,36.455,54.229,36.455z"/>
	</g>
</g>
</svg>