<svg xmlns="http://www.w3.org/2000/svg" xmlns:xlink="http://www.w3.org/1999/xlink" version="1.1" id="Layer_1" x="0px" y="0px" width="96px" height="99.818px" viewBox="0 0 96 99.818" enable-background="new 0 0 96 99.818" xml:space="preserve">
<g>
	<path d="M17.143,6.483c0.067,0,0.134,0.002,0.201,0.005c2.333,0.107,4.139,2.089,4.03,4.421l1.852,40.118   c-0.193,4.172-3.634,7.42-7.763,7.42c-0.123,0-0.245-0.002-0.369-0.008c-2.147-0.102-4.051-1.061-5.392-2.529   c-1.341-1.473-2.121-3.457-2.02-5.604l5.238-39.787C13.026,8.249,14.896,6.483,17.143,6.483"/>
</g>
<g>
	<path d="M14.919,62.169c-2.122-0.099-4.121-0.774-5.843-1.924c-3.234,2.47-5.033,6.599-4.333,10.896   c1.704,10.516,13.84,17.498,19.619,19.463c0,0-1.621-7.736,1.617-19.402c1.185-4.273-0.985-8.405-4.231-10.884   c-1.809,1.181-3.969,1.865-6.287,1.865C15.281,62.182,15.1,62.177,14.919,62.169z"/>
</g>
<g>
	<path fill="none" d="M53.729,59.942c-4.457,1.93-6.812,6.388-5.275,9.953c1.539,3.564,6.403,4.891,10.864,2.961   c4.455-1.932,6.821-6.383,5.276-9.947C63.047,59.343,58.184,58.018,53.729,59.942z"/>
	<circle fill="none" cx="60.456" cy="25.119" r="5.414"/>
	<path fill="none" d="M43.518,25.808c-4.022-1.868-8.635-0.475-10.297,3.111c-1.673,3.586,0.244,8.01,4.273,9.878   c4.015,1.875,8.632,0.474,10.299-3.111C49.449,32.1,47.543,27.677,43.518,25.808z"/>
	<path fill="none" d="M83.995,31.62c-1.422-3.606-5.014-5.578-8.023-4.39c-3.001,1.188-4.293,5.076-2.859,8.696   c1.42,3.612,5.018,5.584,8.02,4.396C84.14,39.127,85.429,35.239,83.995,31.62z"/>
	<path d="M60.211,14.926c-12.925,0.153-25.665,4.602-35.198,11.946l0.556,12.043c2.196,0.497,3.955,1.943,4.484,3.978   c0.708,2.729-1.023,5.616-3.98,6.953l0.062,1.339L26.131,51.3c-0.082,1.762-0.604,3.398-1.452,4.812l0.51,0.39   c0.733,0.56,1.404,1.169,2.022,1.812c4.254-3.999,10.727-2.243,9.797,5.715c-4.097,35.014,29.13,19.695,46.16,3.93   C105.579,47.198,88.667,14.59,60.211,14.926z M37.494,38.798c-4.029-1.868-5.946-6.292-4.273-9.878   c1.662-3.586,6.275-4.979,10.297-3.111c4.025,1.868,5.931,6.292,4.275,9.878C46.126,39.271,41.509,40.673,37.494,38.798z    M59.317,72.856c-4.461,1.93-9.325,0.604-10.864-2.961c-1.538-3.565,0.818-8.023,5.275-9.953c4.455-1.924,9.318-0.6,10.865,2.967   C66.139,66.473,63.772,70.925,59.317,72.856z M60.456,30.533c-2.989,0-5.41-2.425-5.41-5.413c0-2.989,2.421-5.414,5.41-5.414   c2.99,0,5.412,2.425,5.412,5.414C65.868,28.108,63.446,30.533,60.456,30.533z M81.132,40.323c-3.002,1.188-6.6-0.784-8.02-4.396   c-1.434-3.62-0.142-7.509,2.859-8.696c3.01-1.188,6.602,0.783,8.023,4.39C85.429,35.239,84.14,39.127,81.132,40.323z"/>
</g>
</svg>