<svg xmlns="http://www.w3.org/2000/svg" xmlns:xlink="http://www.w3.org/1999/xlink" version="1.1" id="Layer_1" x="0px" y="0px" width="100px" height="100px" viewBox="0 0 100 100" enable-background="new 0 0 100 100" xml:space="preserve">
<path fill-rule="evenodd" clip-rule="evenodd" fill="#000000" d="M15.021,86.766h53.416c3.403,0,7.837,1.338,10.179,3.213  l1.449,1.158c2.963,2.369,1.963,4.604-2.716,4.604H3.929c-4.679,0-5.137-2.234-1.598-4.604l1.73-1.158  C6.858,88.104,11.618,86.766,15.021,86.766z"/>
<path fill="#000000" d="M14.579,89.877c-2.977-4.875-4.692-10.604-4.692-16.732c0-17.754,14.392-32.146,32.145-32.146  s32.145,14.392,32.145,32.146c0,6.129-1.715,11.857-4.665,16.732H14.579z"/>
<path fill="#000000" d="M38.625,34.948c0-16.949,13.739-30.688,30.688-30.688S100,17.999,100,34.948  c0,14.08-9.482,25.945-22.41,29.558c-3.498-16.397-18.066-28.694-35.507-28.694c-1.161,0-2.309,0.054-3.441,0.161  C38.631,35.633,38.625,35.291,38.625,34.948z"/>
</svg>