<svg xmlns="http://www.w3.org/2000/svg" xmlns:xlink="http://www.w3.org/1999/xlink" version="1.1" x="0px" y="0px" width="100px" height="100px" viewBox="0 0 100 100" enable-background="new 0 0 100 100" xml:space="preserve">
<g id="Captions">
</g>
<g id="Your_Icon">
	<path d="M71.767,28.271c-3.886-3.886-10.185-3.885-14.071,0l-39.63,39.63c-3.886,3.885-3.886,10.185-0.001,14.07   c3.886,3.886,10.186,3.886,14.072,0l39.63-39.63C75.652,38.457,75.652,32.157,71.767,28.271z"/>
	<path d="M87.71,44.247L98.349,4.546c0.218-0.816-0.014-1.687-0.612-2.284c-0.595-0.597-1.467-0.83-2.282-0.612L55.756,12.288   l-1.391,0.373l-1.896,1.896L1.571,65.452c0.077,0.083,0.146,0.173,0.229,0.253c3.884,3.887,10.185,3.888,14.072,0.002l39.63-39.629   c2.78-2.78,3.56-6.793,2.361-10.276l20.891-5.598l11.042,11.042l-5.604,20.912c-0.014-0.002-0.027-0.008-0.044-0.015l-0.025-0.025   l-0.013,0.011c-3.454-1.133-7.402-0.339-10.148,2.407L34.33,84.165c-3.886,3.887-3.885,10.187,0,14.071   c0.068,0.069,0.143,0.126,0.213,0.193l29.719-29.719l15.204-15.206l5.976-5.974l1.896-1.896L87.71,44.247z"/>
</g>
</svg>