<?xml version="1.0" encoding="UTF-8" standalone="no"?>
<svg
   xmlns:dc="http://purl.org/dc/elements/1.1/"
   xmlns:cc="http://creativecommons.org/ns#"
   xmlns:rdf="http://www.w3.org/1999/02/22-rdf-syntax-ns#"
   xmlns:svg="http://www.w3.org/2000/svg"
   xmlns="http://www.w3.org/2000/svg"
   xmlns:sodipodi="http://sodipodi.sourceforge.net/DTD/sodipodi-0.dtd"
   xmlns:inkscape="http://www.inkscape.org/namespaces/inkscape"
   version="1.1"
   x="0px"
   y="0px"
   width="100px"
   height="100px"
   viewBox="0 0 100 100"
   enable-background="new 0 0 100 100"
   xml:space="preserve"
   id="svg3070"
   inkscape:version="0.48.3.1 r9886"
   sodipodi:docname="icon_18907.svg"><metadata
   id="metadata3094"><rdf:RDF><cc:Work
       rdf:about=""><dc:format>image/svg+xml</dc:format><dc:type
         rdf:resource="http://purl.org/dc/dcmitype/StillImage" /></cc:Work></rdf:RDF></metadata><defs
   id="defs3092" /><sodipodi:namedview
   pagecolor="#ffffff"
   bordercolor="#666666"
   borderopacity="1"
   objecttolerance="10"
   gridtolerance="10"
   guidetolerance="10"
   inkscape:pageopacity="0"
   inkscape:pageshadow="2"
   inkscape:window-width="1280"
   inkscape:window-height="747"
   id="namedview3090"
   showgrid="false"
   inkscape:zoom="3.3941125"
   inkscape:cx="19.634933"
   inkscape:cy="71.73128"
   inkscape:window-x="0"
   inkscape:window-y="27"
   inkscape:window-maximized="1"
   inkscape:current-layer="g3074" />
<g
   id="Captions">
</g>
<g
   id="Your_Icon">
	<g
   id="g3074">
		<path
   d="m 67.045,61.379 c -0.761,0 -1.517,-0.291 -2.091,-0.864 L 39.475,35.033 C 38.436,33.994 38.319,32.35 39.2,31.174 L 57.889,6.208 c 0.977,-1.306 2.827,-1.574 4.135,-0.594 3.822308,1.1625318 30.864635,28.861794 32.35,32.35 0.979,1.307 0.713,3.159 -0.594,4.135 L 68.813,60.79 c -0.527,0.396 -1.149,0.589 -1.768,0.589 z"
   id="path3076"
   inkscape:connector-curvature="0"
   sodipodi:nodetypes="sccccccccs" />
	</g>
	<g
   id="g3078">
		<path
   d="M8.003,94.94c-0.756,0-1.512-0.288-2.089-0.865c-1.154-1.153-1.154-3.022,0-4.177c1.717-2.103,7.693-19.544,12.451-35.162    c0.209-0.685,0.658-1.268,1.264-1.646L44.851,37.38c1.382-0.863,3.205-0.441,4.068,0.944c0.862,1.384,0.44,3.206-0.944,4.068    L23.692,57.52c-3.294,10.759-10.505,33.459-13.602,36.556C9.514,94.652,8.758,94.94,8.003,94.94z"
   id="path3080" />
	</g>
	<g
   id="g3082">
		<path
   d="M7.987,94.977c-0.758,0-1.516-0.294-2.101-0.877c-1.152-1.153-1.127-3.047,0.027-4.201l29.236-29.24    c1.154-1.152,3.023-1.152,4.178,0c1.152,1.154,1.152,3.024,0,4.178l-18.51,18.511c7.527-2.658,16.148-5.367,21.65-7.05    l15.128-24.283c0.861-1.382,2.683-1.806,4.069-0.943c1.384,0.862,1.806,2.685,0.944,4.068L46.897,80.359    c-0.379,0.606-0.962,1.057-1.646,1.264C29.633,86.382,12.193,92.357,10.04,94.124C9.468,94.695,8.729,94.977,7.987,94.977z"
   id="path3084" />
	</g>
	<g
   id="g3086">
		<path
   d="M34.879,58.493c1.824-1.825,4.785-1.826,6.616,0.002c1.824,1.826,1.824,4.79,0,6.614c-1.825,1.825-4.787,1.825-6.616,0    C33.053,63.279,33.053,60.321,34.879,58.493z"
   id="path3088" />
	</g>
</g>
</svg>