<svg xmlns="http://www.w3.org/2000/svg" xmlns:xlink="http://www.w3.org/1999/xlink" version="1.1" id="Your_Icon" x="0px" y="0px" width="98.023px" height="100px" viewBox="0 0 98.023 100" enable-background="new 0 0 98.023 100" xml:space="preserve">
<path fill="#000000" d="M41.992,17.974h35.104c1.236,0,2.237-1,2.237-2.237c0-1.237-1.001-2.237-2.237-2.237H41.992  c-1.237,0-2.237,1-2.237,2.237C39.754,16.973,40.755,17.974,41.992,17.974z"/>
<path fill="#000000" d="M77.096,32.396H55.494c-1.237,0-2.237,1-2.237,2.237c0,1.237,1,2.237,2.237,2.237h21.603  c1.236,0,2.237-1,2.237-2.237C79.333,33.396,78.333,32.396,77.096,32.396z"/>
<path fill="#000000" d="M60.896,51.298H41.992c-1.237,0-2.237,1.001-2.237,2.237s1,2.237,2.237,2.237h18.904  c1.236,0,2.237-1.001,2.237-2.237S62.132,51.298,60.896,51.298z"/>
<path fill="#000000" d="M97.604,91.65l-6.677-14.344c1.07-0.166,1.905-1.051,1.905-2.169v-72.9C92.833,1,91.832,0,90.595,0H28.492  c-1.237,0-2.237,1-2.237,2.237v12.602l-24.769,8.82c-1.162,0.415-1.77,1.695-1.357,2.857l24.45,68.677  c0.199,0.56,0.612,1.016,1.149,1.271c0.302,0.145,0.629,0.217,0.959,0.217c0.253,0,0.507-0.044,0.751-0.129l49.223-17.528  l8.562,18.389c0.503,1.077,1.409,1.909,2.525,2.316C88.245,99.91,88.762,100,89.28,100c0.647,0,1.292-0.14,1.891-0.42l4.267-1.987  C97.676,96.55,98.646,93.89,97.604,91.65z M30.729,4.474h57.629v67.314l-7.65-16.434c-0.155-0.332-0.35-0.645-0.579-0.928  l-6.11-7.546c-0.872-1.075-2.161-1.658-3.48-1.658c-0.636,0-1.28,0.135-1.886,0.417c-1.861,0.868-2.895,2.888-2.506,4.905l1.84,9.53  c0.069,0.36,0.184,0.71,0.336,1.04L73.81,72.9H30.729V4.474z M71.942,56.963l-1.402-7.267l4.658,5.753L71.942,56.963z M5.096,27.124  l21.159-7.533v55.547c0,1.236,1,2.237,2.237,2.237h39.458L28.044,91.587L5.096,27.124z M89.28,95.525L73.323,61.254l4.27-1.981  l0.002-0.003l15.953,34.268L89.28,95.525z"/>
</svg>