<svg xmlns="http://www.w3.org/2000/svg" xmlns:xlink="http://www.w3.org/1999/xlink" viewBox="0 0 600 350"><defs><style>.cls-1{fill:none;}.cls-2{fill:#a0a2a5;}.cls-3{fill:#ffd500;}.cls-4{clip-path:url(#clip-path);}.cls-5{fill:#9fa1a4;}.cls-6{fill:#9ea0a3;}.cls-7{fill:#9d9fa2;}.cls-8{fill:#9c9ea1;}.cls-9{fill:#9b9da0;}.cls-10{fill:#9a9c9f;}.cls-11{fill:#999b9e;}.cls-12{fill:#989a9d;}.cls-13{fill:#97999c;}.cls-14{fill:#96989b;}.cls-15{fill:#95979a;}.cls-16{fill:#959699;}.cls-17{fill:#949598;}.cls-18{fill:#939497;}.cls-19{fill:#929496;}.cls-20{fill:#919395;}.cls-21{fill:#909294;}.cls-22{fill:#8f9193;}.cls-23{fill:#8e9092;}.cls-24{fill:#8d8f91;}.cls-25{fill:#8c8e90;}.cls-26{fill:#8b8d8f;}.cls-27{fill:#8a8c8e;}.cls-28{fill:#898b8d;}.cls-29{fill:#888a8c;}.cls-30{fill:#87898b;}.cls-31{fill:#86888a;}.cls-32{fill:#858789;}.cls-33{fill:#848688;}.cls-34{fill:#838587;}.cls-35{fill:#828486;}.cls-36{fill:#818385;}.cls-37{fill:#808284;}.cls-38{fill:#7f8183;}.cls-39{fill:#7e8082;}.cls-40{fill:#7d7f81;}.cls-41{fill:#7c7e80;}.cls-42{fill:#7b7d7f;}.cls-43{fill:#7a7c7e;}.cls-44{fill:#797b7d;}.cls-45{fill:#78797c;}.cls-46{fill:#77787b;}.cls-47{fill:#76777a;}.cls-48{fill:#757679;}.cls-49{fill:#747578;}.cls-50{fill:#737477;}.cls-51{fill:#727376;}.cls-52{fill:#717275;}.cls-53{fill:#707174;}.cls-54{fill:#6f7073;}.cls-55{fill:#6e6f71;}.cls-56{fill:#6d6e70;}.cls-57{fill:#6c6d6f;}.cls-58{fill:#6b6c6e;}.cls-59{fill:#6a6b6d;}.cls-60{fill:#696a6c;}.cls-61{fill:#68696b;}.cls-62{fill:#67686a;}.cls-63{fill:#666769;}.cls-64{fill:#656668;}.cls-65{fill:#646567;}.cls-66{fill:#626466;}.cls-67{fill:#616365;}.cls-68{fill:#606164;}.cls-69{fill:#5f6063;}.cls-70{fill:#5e5f61;}.cls-71{fill:#5d5e60;}.cls-72{fill:#5c5d5f;}.cls-73{fill:#5b5c5e;}.cls-74{fill:#5a5b5d;}.cls-75{fill:#595a5c;}.cls-76{fill:#58595b;}.cls-77{fill:#393a35;}.cls-78{fill:#fff;}.cls-79{fill:#363436;}.cls-80{clip-path:url(#clip-path-2);}.cls-81{fill:#5f6062;}.cls-82{fill:#606163;}.cls-83{fill:#616264;}.cls-84{fill:#626365;}.cls-85{fill:#636466;}.cls-86{fill:#6f7072;}.cls-87{fill:#707173;}.cls-88{fill:#717274;}.cls-89{fill:#727375;}.cls-90{fill:#737476;}.cls-91{fill:#747577;}.cls-92{fill:#757678;}.cls-93{fill:#767779;}.cls-94{fill:#77787a;}.cls-95{fill:#78797b;}.cls-96{fill:#797a7c;}.cls-97{fill:#7a7b7d;}.cls-98{fill:#7b7c7e;}.cls-99{fill:#7c7d7f;}.cls-100{fill:#7c7e81;}.cls-101{fill:#7d7f82;}.cls-102{fill:#7e8083;}.cls-103{fill:#7f8184;}.cls-104{fill:#808285;}.cls-105{fill:#818386;}.cls-106{fill:#828487;}.cls-107{fill:#838588;}.cls-108{fill:#848689;}.cls-109{fill:#85878a;}.cls-110{fill:#86888b;}.cls-111{fill:#87898c;}.cls-112{fill:#888a8d;}.cls-113{fill:#898b8e;}.cls-114{fill:#8a8c8f;}.cls-115{fill:#8b8d90;}.cls-116{fill:#8c8e91;}.cls-117{fill:#8d8f92;}.cls-118{fill:#8e9093;}.cls-119{fill:#8f9194;}.cls-120{fill:#909295;}.cls-121{fill:#919396;}.cls-122{fill:#929497;}.cls-123{fill:#939598;}.cls-124{fill:#949699;}.cls-125{fill:#dadbdc;}</style><clipPath id="clip-path"><path class="cls-1" d="M109.14,194.13c3.29.13,31.32-18.87,38.42-7.43,3.9,6.29-2.75,22.49-6.63,28.76-2.78,4.5-9,5.81-21.4,8.44-12.79,2.71-22.12,4.69-30.57.61-1.23-.6-7.77-3.76-9.17-9.35C77.44,205.81,93.38,193.48,109.14,194.13Z"/></clipPath><clipPath id="clip-path-2"><path class="cls-1" d="M362.67,226.84s-25.78-.47-19.54,9.69c-8.1-.3-16.17-.3-15.58,8.37s6.35,9.49,15.58,8.48"/></clipPath></defs><title>warning_unveiledidentity</title><g id="Layer_3" data-name="Layer 3"><path class="cls-2" d="M108.11,223.24c1.1-9.38,1.69-14.11,3.54-16.07,5.74-6,20-6.77,26.13-1.06,2.6,2.41,2.77,7.9,3,18.78.23,10.49.31,15.82-1.66,19.77-2.66,5.35-9.57,13.81-17.53,12.76-8.55-1.14-13.16-12.6-14.38-18.45C106.6,236,107.1,231.77,108.11,223.24Z"/><path class="cls-2" d="M44.79,198.67c5.53-4.87,20.38-1.51,39.57-3.49,4.86-.5,10.54-1.51,13.33,1.25a5.35,5.35,0,0,1,1.45,4.25c-.57,4.59-8.42,5.08-10.23,5.72-7.46,2.62-9.35,1.91-27.73,1.29-5.66-.19-13.77-.29-15.34-2.3C44,203,41.81,201.3,44.79,198.67Z"/><path class="cls-2" d="M94.32,210.29c-5.37-5.22-14.43,1.46-35.64.26-6.24-.36-10.53.37-12.27,2.64s-.25,5.69,3.29,8c3.31,2.16,5.82.44,20-.77,11.09-1,16.64-1.43,18.55-1.3,3.55.24,6.48.73,7.82-.78C97.6,216.6,96.73,212.63,94.32,210.29Z"/><path class="cls-3" d="M88.91,122.91c2,1.07,30.27,60.26,30.27,60.26l55.15-62.67Z"/><g class="cls-4"><rect class="cls-2" x="77.44" y="175.26" width="74.02" height="53.33"/><ellipse class="cls-2" cx="114.15" cy="204.94" rx="24.2" ry="19.19"/><ellipse class="cls-5" cx="114.27" cy="204.75" rx="23.87" ry="18.93"/><ellipse class="cls-6" cx="114.39" cy="204.57" rx="23.55" ry="18.67"/><ellipse class="cls-6" cx="114.51" cy="204.38" rx="23.22" ry="18.41"/><ellipse class="cls-7" cx="114.63" cy="204.2" rx="22.89" ry="18.15"/><ellipse class="cls-8" cx="114.75" cy="204.02" rx="22.56" ry="17.89"/><ellipse class="cls-9" cx="114.87" cy="203.83" rx="22.24" ry="17.64"/><ellipse class="cls-10" cx="114.99" cy="203.65" rx="21.91" ry="17.38"/><ellipse class="cls-11" cx="115.11" cy="203.46" rx="21.58" ry="17.12"/><ellipse class="cls-12" cx="115.23" cy="203.28" rx="21.26" ry="16.86"/><ellipse class="cls-13" cx="115.35" cy="203.09" rx="20.93" ry="16.6"/><ellipse class="cls-14" cx="115.47" cy="202.91" rx="20.6" ry="16.34"/><ellipse class="cls-15" cx="115.59" cy="202.73" rx="20.28" ry="16.08"/><ellipse class="cls-16" cx="115.71" cy="202.54" rx="19.95" ry="15.82"/><ellipse class="cls-17" cx="115.83" cy="202.36" rx="19.62" ry="15.56"/><ellipse class="cls-18" cx="115.95" cy="202.17" rx="19.29" ry="15.3"/><ellipse class="cls-19" cx="116.07" cy="201.99" rx="18.97" ry="15.04"/><ellipse class="cls-20" cx="116.19" cy="201.81" rx="18.64" ry="14.78"/><ellipse class="cls-21" cx="116.31" cy="201.62" rx="18.31" ry="14.52"/><ellipse class="cls-22" cx="116.43" cy="201.44" rx="17.99" ry="14.26"/><ellipse class="cls-23" cx="116.55" cy="201.25" rx="17.66" ry="14"/><ellipse class="cls-24" cx="116.67" cy="201.07" rx="17.33" ry="13.75"/><ellipse class="cls-25" cx="116.79" cy="200.88" rx="17.01" ry="13.49"/><ellipse class="cls-26" cx="116.91" cy="200.7" rx="16.68" ry="13.23"/><ellipse class="cls-27" cx="117.03" cy="200.52" rx="16.35" ry="12.97"/><ellipse class="cls-28" cx="117.15" cy="200.33" rx="16.02" ry="12.71"/><ellipse class="cls-29" cx="117.27" cy="200.15" rx="15.7" ry="12.45"/><ellipse class="cls-30" cx="117.39" cy="199.96" rx="15.37" ry="12.19"/><ellipse class="cls-31" cx="117.51" cy="199.78" rx="15.04" ry="11.93"/><ellipse class="cls-32" cx="117.63" cy="199.6" rx="14.72" ry="11.67"/><ellipse class="cls-33" cx="117.75" cy="199.41" rx="14.39" ry="11.41"/><ellipse class="cls-34" cx="117.87" cy="199.23" rx="14.06" ry="11.15"/><ellipse class="cls-35" cx="117.99" cy="199.04" rx="13.74" ry="10.89"/><ellipse class="cls-36" cx="118.11" cy="198.86" rx="13.41" ry="10.63"/><ellipse class="cls-37" cx="118.23" cy="198.67" rx="13.08" ry="10.37"/><ellipse class="cls-38" cx="118.35" cy="198.49" rx="12.75" ry="10.11"/><ellipse class="cls-39" cx="118.46" cy="198.31" rx="12.43" ry="9.85"/><ellipse class="cls-40" cx="118.58" cy="198.12" rx="12.1" ry="9.6"/><ellipse class="cls-41" cx="118.7" cy="197.94" rx="11.77" ry="9.34"/><ellipse class="cls-42" cx="118.82" cy="197.75" rx="11.45" ry="9.08"/><ellipse class="cls-43" cx="118.94" cy="197.57" rx="11.12" ry="8.82"/><ellipse class="cls-44" cx="119.06" cy="197.38" rx="10.79" ry="8.56"/><ellipse class="cls-45" cx="119.18" cy="197.2" rx="10.46" ry="8.3"/><ellipse class="cls-46" cx="119.3" cy="197.02" rx="10.14" ry="8.04"/><ellipse class="cls-47" cx="119.42" cy="196.83" rx="9.81" ry="7.78"/><ellipse class="cls-48" cx="119.54" cy="196.65" rx="9.48" ry="7.52"/><ellipse class="cls-49" cx="119.66" cy="196.46" rx="9.16" ry="7.26"/><ellipse class="cls-50" cx="119.78" cy="196.28" rx="8.83" ry="7"/><ellipse class="cls-51" cx="119.9" cy="196.1" rx="8.5" ry="6.74"/><ellipse class="cls-52" cx="120.02" cy="195.91" rx="8.18" ry="6.48"/><ellipse class="cls-53" cx="120.14" cy="195.73" rx="7.85" ry="6.22"/><ellipse class="cls-54" cx="120.26" cy="195.54" rx="7.52" ry="5.96"/><ellipse class="cls-55" cx="120.38" cy="195.36" rx="7.19" ry="5.71"/><ellipse class="cls-56" cx="120.5" cy="195.17" rx="6.87" ry="5.45"/><ellipse class="cls-57" cx="120.62" cy="194.99" rx="6.54" ry="5.19"/><ellipse class="cls-58" cx="120.74" cy="194.81" rx="6.21" ry="4.93"/><ellipse class="cls-59" cx="120.86" cy="194.62" rx="5.89" ry="4.67"/><ellipse class="cls-60" cx="120.98" cy="194.44" rx="5.56" ry="4.41"/><ellipse class="cls-61" cx="121.1" cy="194.25" rx="5.23" ry="4.15"/><ellipse class="cls-62" cx="121.22" cy="194.07" rx="4.91" ry="3.89"/><ellipse class="cls-63" cx="121.34" cy="193.89" rx="4.58" ry="3.63"/><ellipse class="cls-64" cx="121.46" cy="193.7" rx="4.25" ry="3.37"/><ellipse class="cls-65" cx="121.58" cy="193.52" rx="3.92" ry="3.11"/><ellipse class="cls-66" cx="121.7" cy="193.33" rx="3.6" ry="2.85"/><ellipse class="cls-67" cx="121.82" cy="193.15" rx="3.27" ry="2.59"/><ellipse class="cls-68" cx="121.94" cy="192.96" rx="2.94" ry="2.33"/><ellipse class="cls-69" cx="122.06" cy="192.78" rx="2.62" ry="2.07"/><ellipse class="cls-70" cx="122.18" cy="192.6" rx="2.29" ry="1.82"/><ellipse class="cls-71" cx="122.3" cy="192.41" rx="1.96" ry="1.56"/><ellipse class="cls-72" cx="122.42" cy="192.23" rx="1.64" ry="1.3"/><ellipse class="cls-73" cx="122.54" cy="192.04" rx="1.31" ry="1.04"/><ellipse class="cls-74" cx="122.66" cy="191.86" rx="0.98" ry="0.78"/><ellipse class="cls-75" cx="122.78" cy="191.68" rx="0.65" ry="0.52"/><ellipse class="cls-76" cx="122.9" cy="191.49" rx="0.33" ry="0.26"/></g><path class="cls-77" d="M117.54,179.75l-1.73,28.52h5.39l2-29.63a4.62,4.62,0,0,1-3.19,1.67A4.38,4.38,0,0,1,117.54,179.75Z"/><path class="cls-77" d="M171.75,348.64s-.43-41,.24-71.3,24.89-41.7,40.36-42.38,281.84,0,281.84,0,41-4.71,41.7,41.71-2.15,72-2.15,72Z"/><polygon class="cls-78" points="283.91 234.96 345.1 334.51 411.04 240.28 283.91 234.96"/><path class="cls-2" d="M459.05,349.64H459a1,1,0,0,1-.95-1.05l2.18-43a1,1,0,0,1,2,.1l-2.18,43.05A1,1,0,0,1,459.05,349.64Z"/><path class="cls-2" d="M235.36,349.64h0a1,1,0,0,1-1-1l1.21-43.72a1,1,0,0,1,2,.05l-1.21,43.73A1,1,0,0,1,235.36,349.64Z"/><path class="cls-79" d="M258.65,14s-8.39,118.5-7.92,156.15S252.08,242,252.08,242s1.34,23.46,24.33,28.48l23,5s15.16,6.33,38.4,6.09,51.71-10.56,51.71-10.56,30.56-2.07,41-7.21,27.48-7.05,32.26-37.56,23.64-65.07,23.6-129.22-3.52-89.68-3.52-89.68L443,84.6s-40.52,2.74-76,4.08S298,93,298,93Z"/><path class="cls-2" d="M385.85,168.37,356,193l-22.47-23.68-82.72,6.61c.48,35.32,1.27,66.14,1.27,66.14s1.34,23.46,24.33,28.48l23,5s15.16,6.33,38.4,6.09,51.71-10.56,51.71-10.56,30.56-2.07,41-7.21,27.48-7.05,32.26-37.56c2.83-18.06,10.59-37.54,16.45-63.74Z"/><path class="cls-77" d="M347.58,211.28c-13.21,0-21.23-5.13-21.67-5.42a3,3,0,0,1,3.28-5c.53.33,12.49,7.82,31.53,2.6,19.67-5.38,27.33-11.6,27.41-11.66a3,3,0,0,1,3.86,4.59c-.34.29-8.54,7.07-29.69,12.86A55.71,55.71,0,0,1,347.58,211.28Z"/><g class="cls-80"><polygon class="cls-76" points="330.46 226.37 326.96 234.02 326.96 226.37 330.46 226.37"/><polygon class="cls-76" points="330.86 226.37 326.96 234.89 326.96 234.02 330.46 226.37 330.86 226.37"/><polygon class="cls-75" points="331.26 226.37 326.96 235.76 326.96 234.89 330.86 226.37 331.26 226.37"/><polygon class="cls-74" points="331.66 226.37 326.96 236.64 326.96 235.76 331.26 226.37 331.66 226.37"/><polygon class="cls-73" points="332.06 226.37 326.96 237.51 326.96 236.64 331.66 226.37 332.06 226.37"/><polygon class="cls-72" points="332.46 226.37 326.96 238.39 326.96 237.51 332.06 226.37 332.46 226.37"/><polygon class="cls-71" points="332.86 226.37 326.96 239.26 326.96 238.39 332.46 226.37 332.86 226.37"/><polygon class="cls-70" points="333.26 226.37 326.96 240.14 326.96 239.26 332.86 226.37 333.26 226.37"/><polygon class="cls-81" points="333.66 226.37 326.96 241.01 326.96 240.14 333.26 226.37 333.66 226.37"/><polygon class="cls-82" points="334.06 226.37 326.96 241.89 326.96 241.01 333.66 226.37 334.06 226.37"/><polygon class="cls-83" points="334.46 226.37 326.96 242.76 326.96 241.89 334.06 226.37 334.46 226.37"/><polygon class="cls-84" points="334.87 226.37 326.96 243.64 326.96 242.76 334.46 226.37 334.87 226.37"/><polygon class="cls-85" points="335.27 226.37 326.96 244.51 326.96 243.64 334.87 226.37 335.27 226.37"/><polygon class="cls-65" points="335.67 226.37 326.96 245.39 326.96 244.51 335.27 226.37 335.67 226.37"/><polygon class="cls-64" points="336.07 226.37 326.96 246.26 326.96 245.39 335.67 226.37 336.07 226.37"/><polygon class="cls-63" points="336.47 226.37 326.96 247.14 326.96 246.26 336.07 226.37 336.47 226.37"/><polygon class="cls-62" points="336.87 226.37 326.96 248.01 326.96 247.14 336.47 226.37 336.87 226.37"/><polygon class="cls-61" points="337.27 226.37 326.96 248.89 326.96 248.01 336.87 226.37 337.27 226.37"/><polygon class="cls-60" points="337.67 226.37 326.96 249.76 326.96 248.89 337.27 226.37 337.67 226.37"/><polygon class="cls-59" points="338.07 226.37 326.96 250.64 326.96 249.76 337.67 226.37 338.07 226.37"/><polygon class="cls-58" points="338.47 226.37 326.96 251.51 326.96 250.64 338.07 226.37 338.47 226.37"/><polygon class="cls-57" points="338.87 226.37 326.96 252.39 326.96 251.51 338.47 226.37 338.87 226.37"/><polygon class="cls-56" points="339.27 226.37 326.96 253.26 326.96 252.39 338.87 226.37 339.27 226.37"/><polygon class="cls-55" points="339.67 226.37 326.96 254.13 326.96 253.26 339.27 226.37 339.67 226.37"/><polygon class="cls-86" points="340.07 226.37 327.24 254.39 326.96 254.39 326.96 254.13 339.67 226.37 340.07 226.37"/><polygon class="cls-87" points="340.47 226.37 327.64 254.39 327.24 254.39 340.07 226.37 340.47 226.37"/><polygon class="cls-88" points="340.88 226.37 328.04 254.39 327.64 254.39 340.47 226.37 340.88 226.37"/><polygon class="cls-89" points="341.27 226.37 328.44 254.39 328.04 254.39 340.88 226.37 341.27 226.37"/><polygon class="cls-90" points="341.68 226.37 328.84 254.39 328.44 254.39 341.27 226.37 341.68 226.37"/><polygon class="cls-91" points="342.08 226.37 329.24 254.39 328.84 254.39 341.68 226.37 342.08 226.37"/><polygon class="cls-92" points="342.48 226.37 329.64 254.39 329.24 254.39 342.08 226.37 342.48 226.37"/><polygon class="cls-93" points="342.88 226.37 330.05 254.39 329.64 254.39 342.48 226.37 342.88 226.37"/><polygon class="cls-94" points="343.28 226.37 330.44 254.39 330.05 254.39 342.88 226.37 343.28 226.37"/><polygon class="cls-95" points="343.68 226.37 330.85 254.39 330.44 254.39 343.28 226.37 343.68 226.37"/><polygon class="cls-96" points="344.08 226.37 331.25 254.39 330.85 254.39 343.68 226.37 344.08 226.37"/><polygon class="cls-97" points="344.48 226.37 331.65 254.39 331.25 254.39 344.08 226.37 344.48 226.37"/><polygon class="cls-98" points="344.88 226.37 332.05 254.39 331.65 254.39 344.48 226.37 344.88 226.37"/><polygon class="cls-99" points="345.28 226.37 332.45 254.39 332.05 254.39 344.88 226.37 345.28 226.37"/><polygon class="cls-100" points="345.68 226.37 332.85 254.39 332.45 254.39 345.28 226.37 345.68 226.37"/><polygon class="cls-101" points="346.08 226.37 333.25 254.39 332.85 254.39 345.68 226.37 346.08 226.37"/><polygon class="cls-102" points="346.48 226.37 333.65 254.39 333.25 254.39 346.08 226.37 346.48 226.37"/><polygon class="cls-103" points="346.88 226.37 334.05 254.39 333.65 254.39 346.48 226.37 346.88 226.37"/><polygon class="cls-104" points="347.29 226.37 334.45 254.39 334.05 254.39 346.88 226.37 347.29 226.37"/><polygon class="cls-105" points="347.69 226.37 334.85 254.39 334.45 254.39 347.29 226.37 347.69 226.37"/><polygon class="cls-106" points="348.09 226.37 335.25 254.39 334.85 254.39 347.69 226.37 348.09 226.37"/><polygon class="cls-107" points="348.49 226.37 335.65 254.39 335.25 254.39 348.09 226.37 348.49 226.37"/><polygon class="cls-108" points="348.89 226.37 336.05 254.39 335.65 254.39 348.49 226.37 348.89 226.37"/><polygon class="cls-109" points="349.29 226.37 336.45 254.39 336.05 254.39 348.89 226.37 349.29 226.37"/><polygon class="cls-110" points="349.69 226.37 336.86 254.39 336.45 254.39 349.29 226.37 349.69 226.37"/><polygon class="cls-111" points="350.09 226.37 337.26 254.39 336.86 254.39 349.69 226.37 350.09 226.37"/><polygon class="cls-112" points="350.49 226.37 337.66 254.39 337.26 254.39 350.09 226.37 350.49 226.37"/><polygon class="cls-113" points="350.89 226.37 338.06 254.39 337.66 254.39 350.49 226.37 350.89 226.37"/><polygon class="cls-114" points="351.29 226.37 338.46 254.39 338.06 254.39 350.89 226.37 351.29 226.37"/><polygon class="cls-115" points="351.69 226.37 338.86 254.39 338.46 254.39 351.29 226.37 351.69 226.37"/><polygon class="cls-116" points="352.09 226.37 339.26 254.39 338.86 254.39 351.69 226.37 352.09 226.37"/><polygon class="cls-117" points="352.49 226.37 339.66 254.39 339.26 254.39 352.09 226.37 352.49 226.37"/><polygon class="cls-118" points="352.89 226.37 340.06 254.39 339.66 254.39 352.49 226.37 352.89 226.37"/><polygon class="cls-119" points="353.29 226.37 340.46 254.39 340.06 254.39 352.89 226.37 353.29 226.37"/><polygon class="cls-120" points="353.69 226.37 340.86 254.39 340.46 254.39 353.29 226.37 353.69 226.37"/><polygon class="cls-121" points="354.1 226.37 341.26 254.39 340.86 254.39 353.69 226.37 354.1 226.37"/><polygon class="cls-122" points="354.5 226.37 341.66 254.39 341.26 254.39 354.1 226.37 354.5 226.37"/><polygon class="cls-123" points="354.9 226.37 342.06 254.39 341.66 254.39 354.5 226.37 354.9 226.37"/><polygon class="cls-124" points="355.3 226.37 342.46 254.39 342.06 254.39 354.9 226.37 355.3 226.37"/><polygon class="cls-15" points="355.7 226.37 342.87 254.39 342.46 254.39 355.3 226.37 355.7 226.37"/><polygon class="cls-14" points="356.1 226.37 343.27 254.39 342.87 254.39 355.7 226.37 356.1 226.37"/><polygon class="cls-13" points="356.5 226.37 343.67 254.39 343.27 254.39 356.1 226.37 356.5 226.37"/><polygon class="cls-12" points="356.9 226.37 344.07 254.39 343.67 254.39 356.5 226.37 356.9 226.37"/><polygon class="cls-11" points="357.3 226.37 344.47 254.39 344.07 254.39 356.9 226.37 357.3 226.37"/><polygon class="cls-10" points="357.7 226.37 344.87 254.39 344.47 254.39 357.3 226.37 357.7 226.37"/><polygon class="cls-9" points="358.1 226.37 345.27 254.39 344.87 254.39 357.7 226.37 358.1 226.37"/><polygon class="cls-8" points="358.5 226.37 345.67 254.39 345.27 254.39 358.1 226.37 358.5 226.37"/><polygon class="cls-7" points="358.9 226.37 346.07 254.39 345.67 254.39 358.5 226.37 358.9 226.37"/><polygon class="cls-6" points="359.3 226.37 346.47 254.39 346.07 254.39 358.9 226.37 359.3 226.37"/><polygon class="cls-5" points="359.7 226.37 346.87 254.39 346.47 254.39 359.3 226.37 359.7 226.37"/><polygon class="cls-2" points="360.11 226.37 347.27 254.39 346.87 254.39 359.7 226.37 360.11 226.37"/><polygon class="cls-2" points="347.27 254.39 360.11 226.37 362.67 226.37 362.67 254.39 347.27 254.39"/></g><polygon class="cls-3" points="352.49 88.91 388.6 87.13 373.72 114.11 385.58 114.11 366.22 143.65 352.18 163.89 360.92 118.62 345.1 118.96 352.49 88.91"/><polygon class="cls-3" points="349.9 280.79 306.11 264.19 306.92 304.74 349.9 280.79"/><polygon class="cls-3" points="391.27 297.44 389.03 257.42 349.9 280.79 391.27 297.44"/><polygon class="cls-77" points="94.96 214.02 151.46 208.27 120.03 200.2 94.96 214.02"/><path class="cls-77" d="M91.34,348.64c0-2-4.48-94.92-4.48-94.92l63-7.77c-2.29,1.66,0,102.69,0,102.69Z"/><polygon class="cls-125" points="93.76 252.87 93.76 240.28 145.65 234.96 145.65 246.47 93.76 252.87"/><ellipse class="cls-77" cx="131.63" cy="144.51" rx="13.23" ry="10.29" transform="translate(-14.65 14.85) rotate(-6.12)"/><path class="cls-77" d="M125.42,161.17a.79.79,0,0,1-.3,0,1,1,0,0,1-.66-1.25l19.71-62.2a1,1,0,0,1,1.91.6l-19.71,62.2A1,1,0,0,1,125.42,161.17Z"/><path class="cls-2" d="M84.1,181.4c7.51-3.31,9.68.73,25.21,0,2.51-.12,5.24-.36,7.25,1.45a7.49,7.49,0,0,1,1.45,8.69,7.72,7.72,0,0,1-4.64,3.19,48.12,48.12,0,0,1-29.56,0c-3.87-1.49-7.54-3-7.82-5.51C75.55,185.25,83.67,181.59,84.1,181.4Z"/><path class="cls-2" d="M143.44,182c-1.44-.82-1.81-.39-12.75.58-3.48.31-5.45.44-7.24,2-.46.4-2.76,2.54-2.32,4.63,1,4.73,15,4.91,16.23,4.93,5.2.07,9.08.12,10.43-2.32C149.35,189,146.94,184,143.44,182Z"/><path class="cls-2" d="M55.84,231.1c3.35-4.79,16-6.38,31-12.77,3.79-1.62,8.13-3.8,11-2.64a3.48,3.48,0,0,1,2.12,2.54c.57,3.29.81,7.64-.79,7.64-5.41,0-13.09,2.63-28.14,7.12-4.76,1.42-11,4.14-12.75,3.18C56.27,235,54,233.69,55.84,231.1Z"/><path class="cls-78" d="M420.17,113.56a35.39,35.39,0,0,0-12.91,3.2c4.19,2.43,6.62,7,7.63,8.86,1.2,2.25,5.55,10.42,1.2,18.24a17.45,17.45,0,0,1-3.7,4.53c3.3.09,6.85,0,10.53,0,16.14-.3,30.19-6.87,29.89-21.22S433.38,113.47,420.17,113.56Z"/><path class="cls-78" d="M307.52,120.53a87.35,87.35,0,0,0-16,2,15.86,15.86,0,0,1,9.23,15.09c-.14,7.55-3.22,13.3-8.74,16a78,78,0,0,0,10.38.09c23.07-1.17,35-2.37,35.33-14.63S320.68,119.93,307.52,120.53Z"/></g></svg>