<svg xmlns="http://www.w3.org/2000/svg" xmlns:xlink="http://www.w3.org/1999/xlink" viewBox="0 0 600 350"><defs><style>.cls-1{fill:none;}.cls-2{fill:#58595b;}.cls-3{fill:#ffd500;}.cls-4{fill:#393a35;}.cls-5{fill:#a0a2a5;}.cls-6{fill:#333;}.cls-7{fill:#dadbdc;}.cls-8{clip-path:url(#clip-path);}.cls-9{fill:#fff;}.cls-10{clip-path:url(#clip-path-2);}.cls-11{fill:#9fa1a4;}.cls-12{fill:#9ea0a3;}.cls-13{fill:#9d9fa2;}.cls-14{fill:#9c9ea1;}.cls-15{fill:#9b9da0;}.cls-16{fill:#9a9c9e;}.cls-17{fill:#999b9d;}.cls-18{fill:#98999c;}.cls-19{fill:#97989b;}.cls-20{fill:#95979a;}.cls-21{fill:#949699;}.cls-22{fill:#939598;}.cls-23{fill:#929497;}.cls-24{fill:#919396;}.cls-25{fill:#909295;}.cls-26{fill:#8f9194;}.cls-27{fill:#8e9093;}.cls-28{fill:#8d8f92;}.cls-29{fill:#8c8e91;}.cls-30{fill:#8b8d90;}.cls-31{fill:#8a8c8e;}.cls-32{fill:#898b8d;}.cls-33{fill:#888a8c;}.cls-34{fill:#87898b;}.cls-35{fill:#86888a;}.cls-36{fill:#858789;}.cls-37{fill:#848588;}.cls-38{fill:#838487;}.cls-39{fill:#828386;}.cls-40{fill:#818285;}.cls-41{fill:#808184;}.cls-42{fill:#7f8083;}.cls-43{fill:#7e7f82;}.cls-44{fill:#7d7e81;}.cls-45{fill:#7c7d80;}.cls-46{fill:#7b7c7f;}.cls-47{fill:#7a7b7e;}.cls-48{fill:#797a7d;}.cls-49{fill:#78797c;}.cls-50{fill:#77787b;}.cls-51{fill:#76777a;}.cls-52{fill:#757679;}.cls-53{fill:#747578;}.cls-54{fill:#737477;}.cls-55{fill:#727375;}.cls-56{fill:#717274;}.cls-57{fill:#707173;}.cls-58{fill:#6f7072;}.cls-59{fill:#6e6f71;}.cls-60{fill:#6d6e70;}.cls-61{fill:#6c6d6f;}.cls-62{fill:#6b6c6e;}.cls-63{fill:#6a6b6d;}.cls-64{fill:#696a6c;}.cls-65{fill:#68696b;}.cls-66{fill:#67686b;}.cls-67{fill:#66676a;}.cls-68{fill:#656669;}.cls-69{fill:#646568;}.cls-70{fill:#636467;}.cls-71{fill:#626466;}.cls-72{fill:#616365;}.cls-73{fill:#616264;}.cls-74{fill:#606163;}.cls-75{fill:#5f6062;}.cls-76{fill:#5e5f61;}.cls-77{fill:#5d5e60;}.cls-78{fill:#5c5d5f;}.cls-79{fill:#5b5c5e;}.cls-80{fill:#5a5b5d;}.cls-81{fill:#595a5c;}.cls-82{clip-path:url(#clip-path-3);}</style><clipPath id="clip-path"><path class="cls-1" d="M218.1,160.07s-8.85-5.26-23.08,3.18-24.48,41.15-39.44,58.69-23.25,35.72-36.9,31.86c-13.3-3.76-17.3-15,5.47-29.61l-11.77-13c-10.08,5.92-21,12.72-24.87,19.83-5.49,10-13,35.87,7.07,42.46s39.56,6.78,50-2,27.4-27.7,32.17-46.81,11.53-34.31,17-41.54c9.21-12.19,20-19.9,28-19.32C229.07,164.35,218.1,160.07,218.1,160.07Z"/></clipPath><clipPath id="clip-path-2"><path class="cls-1" d="M248.62,84s8.47-13.25,19.65-11.49,21.9,5.59,25.76,13.91-.57,13.87-.57,13.87Z"/></clipPath><clipPath id="clip-path-3"><path class="cls-1" d="M419.8,64.07s-2.51-9.06-13.19-5.3c-9.66,3.41-8.26,6.28-13.16,12.71-5.56,7.29.57,13.87.57,13.87Z"/></clipPath></defs><title>warning_attackednetwork</title><g id="Layer_3" data-name="Layer 3"><path class="cls-2" d="M485,221.55c.77-.31,1.59-.63,2.41-1l1.73-.87a10.34,10.34,0,0,0,2.12-1.53,3.47,3.47,0,0,0,.93-4.22c-7.71-2.72-23.23-4.45-30.29-5.48-8.16-1.2-81,1.78-81,1.78l-28.22-55.17s-32.43,12-32.07,13.59,48.4,43,50.72,46.71c-1.7,1.15-2.91,4.91-2.91,4.91l3.87-1.91-1,3.58,2.31-.77,7.77-.9-.51,4.61s44.11,4.33,62.4.41a93,93,0,0,1,33.5-.62C479.51,223.47,482.38,222.61,485,221.55Z"/><path class="cls-3" d="M15.48,346.2a11,11,0,0,1-7.43-19.13C9.21,326,36.94,301,86.73,297.82c22.91-1.47,43.87,1.79,62.37,4.66,19.59,3,36.51,5.67,49.41,1.71,12.21-3.75,27.61-11.84,42.49-19.66,18.73-9.83,38.09-20,54-23.16,20.29-4,50.83-12.89,63-16.51l22.76-62.7a11,11,0,0,1,16-5.67l81.75,49.24c7.56-1.71,25-6.49,37.92-16.51,3.83-3,7.29-5.95,10.64-8.83,13.63-11.75,26.51-22.85,56.86-27.27a11,11,0,0,1,3.17,21.77c-24,3.5-33.09,11.33-45.67,22.16-3.56,3.08-7.25,6.25-11.54,9.57-21.43,16.59-50.43,21.4-51.65,21.6a11,11,0,0,1-7.42-1.44l-74-44.55-20.08,55.33a11,11,0,0,1-7.12,6.76c-1.76.54-43.58,13.33-70.37,18.64-12.79,2.53-30.71,11.94-48,21.05-15.77,8.29-32.09,16.85-46.26,21.21-17.74,5.44-37.9,2.31-59.25-1-18.23-2.83-37.08-5.76-57.58-4.45-41.63,2.67-65,23.33-65.24,23.54A11,11,0,0,1,15.48,346.2Z"/><path class="cls-2" d="M495.21,215.28c-2.28-1.43-6.85-2.63-12-3.63-3.71,2.8-6.65,7.43-7.31,10.89-.11.64-.21,1.28-.29,1.93,1.51.23,2.36.41,2.36.41V249l3.83-11,1.54,10.22,6.56-8.3-.15,9.13s7.68-11.83,8.62-19.25S500.85,218.79,495.21,215.28Z"/><path class="cls-4" d="M247.25,103.94s5.86-24.06,35.57-28.35,46.11,1.49,53,4.46,24,14.51,24,14.51l7.12,9.38h-2.7l2.7,6.62,2.92,7.3-.47,3.76s7.74,7.17-2,26.76-32.72,48.94-43.18,64.4c5.86,4.16,6.7,2.49,15.07,5.84s7.95,10.68,7.95,10.68l-9.63-4.5,4.7,8.88L329.5,229.3l5.69,6.77-14.39-4.78s-22.41-5.37-20.78-10.07,4.57-6.75,6.66-7.19,7.61-29.31-6.66-50.24-45.72,6.7-45.72,6.7Z"/><path class="cls-2" d="M376.42,93.26c-.17-3.19-10.82-26.52-14.4-32.52s-17.58-17.1-29.3-21.93S316,33.13,312.85,30.57s6.06-.35-14.87-2.45-30.42-3-40.18-3.31-17.58-.39-18.83,0S231,19,231,19l2.55,5.77-17.89-8,10,10.76-10-2-11,1.34,11,4.34-7.95,1.94L194.3,31.37,187.25,34l14.89,2.1L176.78,46.41S167,50,159.7,53.15s-7.38,3-20.27,9.27-9.93,9-20.75,17.6-9.05,4.14-17.25,17.72-7.37,15.08-10.62,26.92-2,14-3.3,22.74,15.16,52.56,24.87,63.81S145.8,247,145.8,247s28.3,12.83,32.48,16.7,68.22,4.29,78.27,1.78,23-5.82,31.61-9.19,32.49-35.07,32.49-35.07-6.46-16.28-3-26,18.47-33.14,31.86-26,31.48-2.78,31.48-2.78Z"/><path class="cls-5" d="M313.54,119.93s-4.34-32.07-17.62-42.65-29-16.51-41.47-8.55-18.33,31.25-2.79,44.45,56.48,17.25,56.48,17.25l5.4-10.5"/><path class="cls-5" d="M381.68,105.83s-4.24-22.71,7.54-37.1S409,45.84,419.39,56.45s7.05,27.17-1.93,35.63S385,113.63,385,113.63l-3.32-7.8"/><path class="cls-5" d="M290.87,116.9s21.57,29.47,37.57,43.17,66.13,57.93,74.95,61.87,14.5,4,18.52,1c5.06-3.85,1.73-21.67-1.3-32.35s-14.55-83.36-14.55-83.36-8.89-13.28-16.84-14-16.74-14.08-28.88-14.08H344l2.37-5.12-5.83,5.54-2.37-5.54L334,80.86l-1.26-3.58-4.28,9.62S294.21,88.06,290.87,116.9Z"/><path class="cls-6" d="M409,212.28c3.24-1.26,5.29-1.58,11.61,0s3.44,5,2.91,9.66-1.84,3.41-6.06,4.79-10-3.49-11.15-4.79S409,212.28,409,212.28Z"/><path class="cls-4" d="M155.14,152.8s5.86-24.06,35.57-28.35,46.11,1.49,53,4.46,24,14.51,24,14.51l7.11,9.38h-2.7l2.7,6.62,2.92,7.3-.47,3.76s7.74,7.18-2,26.77-32.72,48.93-43.18,64.4c5.86,4.16,6.7,2.48,15.07,5.83s7.26,9.91,7.26,9.91l-8.94-3.73,2.34,7.12-10.49-2.62,2.4,6.17-11.09-4.18s-22.42-5.37-20.79-10.06,4.57-6.76,6.66-7.2,7.61-29.31-6.66-50.24-45.72,6.7-45.72,6.7Z"/><path class="cls-7" d="M218.1,160.07s-8.85-5.26-23.08,3.18-24.48,41.15-39.44,58.69-23.25,35.72-36.9,31.86c-13.3-3.76-17.3-15,5.47-29.61l-11.77-13c-10.08,5.92-21,12.72-24.87,19.83-5.49,10-13,35.87,7.07,42.46s39.56,6.78,50-2,27.4-27.7,32.17-46.81,11.53-34.31,17-41.54c9.21-12.19,20-19.9,28-19.32C229.07,164.35,218.1,160.07,218.1,160.07Z"/><g class="cls-8"><path class="cls-2" d="M217.4,172.74c-2.73-2.54-1.2-8-3-11.39s-4.51-7.08-7.81-9a.53.53,0,0,0-.64.84c3.38,3.75,7.53,7.67,8,13,.23,2.84-.2,6.1,2.45,7.9C217.16,174.65,218.11,173.41,217.4,172.74Z"/><path class="cls-2" d="M209,177.37c-1.36-7.67-8.34-14.29-14.14-18.94a.39.39,0,0,0-.55.55c2.29,2.75,4.95,5.15,7.26,7.88a38.35,38.35,0,0,1,6.22,10.84A.63.63,0,0,0,209,177.37Z"/><path class="cls-2" d="M204.28,182.93a65.27,65.27,0,0,0-10.1-9.55c-3-2.39-6.82-3.31-9.69-5.81a.49.49,0,0,0-.69.69c2.64,3,6.63,4.19,9.68,6.8,3.37,2.88,6.3,6.45,10,8.92C204.15,184.43,204.73,183.47,204.28,182.93Z"/><path class="cls-2" d="M195.6,190.78c-4-1.5-6.55-4.66-10.14-6.74-3.79-2.2-8.2-2.94-11.94-5.28-.57-.35-1.07.53-.52.9,4.28,2.9,9.58,3.83,13.68,7,2.78,2.15,5.12,4.87,8.76,5.29C196.15,192,196.18,191,195.6,190.78Z"/><path class="cls-2" d="M189.13,203.94c-2.29-2.9-6.14-4-9.34-5.67-4.56-2.32-8.51-5.73-12.46-8.94-.48-.39-1.17.26-.69.69,3.45,3.14,6.81,6.37,10.85,8.76,3.6,2.13,7.41,3.82,11,6C189,205.15,189.5,204.39,189.13,203.94Z"/><path class="cls-2" d="M185.32,218.8c-3.17-2.31-7.69-2.73-11.35-4-5.46-1.85-9.55-4.84-10.92-10.7-.21-.89-1.5-.5-1.35.37A14,14,0,0,0,170,215.25a64,64,0,0,0,14.77,4.8A.69.69,0,0,0,185.32,218.8Z"/><path class="cls-2" d="M176.75,243.09c-1.26-5.78-7.88-10.75-12.17-14.29-3.61-3-12-6.4-12.58-11.5-.07-.63-1-.67-1,0,0,4.7,5.09,7.75,8.48,10.13a75.15,75.15,0,0,1,8.07,6.73c3.11,2.92,5.3,6.49,8.24,9.5A.59.59,0,0,0,176.75,243.09Z"/><path class="cls-2" d="M156.62,247.58c-5-5.68-7.74-13.12-12.67-19-.41-.5-1.31.18-.91.7,4.19,5.43,6.72,11.85,10.71,17.38,3.39,4.68,8,7.63,9.6,13.49a.73.73,0,0,0,1.43-.19C164.87,254.74,159.77,251.13,156.62,247.58Z"/><path class="cls-2" d="M149.87,278.16c-4.06-12.32-9.21-25-16.63-35.67-.49-.69-1.62-.06-1.15.68,7.09,11.2,10.88,23.64,16.1,35.7C148.6,279.82,150.2,279.14,149.87,278.16Z"/><path class="cls-2" d="M127,284.3c-2.64-5.29-2.41-10.73-2.32-16.51.11-7.18-.53-14.38.94-21.47.14-.68-.89-1-1.06-.29-1.93,7.63-1.52,15.57-1.71,23.38-.11,4.51-.94,12.53,3,15.81A.76.76,0,0,0,127,284.3Z"/><path class="cls-2" d="M117,247.26c-6,1.58-9.59,9.19-12.07,14.25a76.08,76.08,0,0,0-3.49,8.88c-1.46,4.21-3.51,7.89-5.35,11.87a.66.66,0,0,0,.9.89c4.64-2.59,5.94-11.89,7.6-16.43,2.16-6,6.29-16.08,12.74-18.28A.61.61,0,0,0,117,247.26Z"/><path class="cls-2" d="M113.41,241.73a45.32,45.32,0,0,0-26.17,8c-3.24,2.2-6.44,4.32-9.75,6.41-2,1.29-4.51,2.87-4.45,5.51,0,.49.69.86,1,.43,3.83-4.59,9.77-7.78,14.76-11.11,7.41-4.95,15.84-6.87,24.57-7.89A.68.68,0,0,0,113.41,241.73Z"/><path class="cls-2" d="M116.3,235.9c-5-3.56-9.38-7.8-15.41-9.49-6.3-1.76-12.58.48-18.87,1.28a.91.91,0,0,0,0,1.82c6.26.71,12-2.6,18.31-1,5.84,1.44,10.32,5.5,15.21,8.74C116.36,237.75,117.08,236.46,116.3,235.9Z"/></g><path class="cls-2" d="M376.42,233.45c-6.71-3.12-16.91,2.62-16.91,2.62l-34.74-2.62s-14.23-17.41-15-25-3-16.26-1.65-21.28-6.38-12.6-13.87-8.91c-12.5,6.16-4.66,11.83-.24,37,2.51,14.26,6.66,23,10.56,27.75l-.91.53H305q.68.78,1.32,1.41l-1.89,1,3,0a13.11,13.11,0,0,0,1.39,1l-3.13,1.25,6.51-.29c5.64-.6,23,.74,23,.74s11.85-.63,17.51-1.79,11.18,1.72,11.18,1.72L374.54,267l1.88-13.21,4.52,5.08v-8.19l3.21,5.12S383.12,236.58,376.42,233.45Z"/><polygon class="cls-4" points="412.69 174.97 412 174.25 430 156.56 456.36 152.08 466.88 141.6 487.01 108.43 495.78 98.22 496.54 98.88 487.82 109.02 467.63 142.27 456.85 153.01 456.69 153.04 430.48 157.5 412.69 174.97"/><polygon class="cls-4" points="415.48 182 415.25 181.03 433.14 176.82 447.33 164.68 470.96 166.25 499.1 154.6 499.48 155.52 471.13 167.27 447.67 165.71 433.61 177.74 433.49 177.77 415.48 182"/><polygon class="cls-4" points="439.07 187.98 415.34 186.72 415.39 185.72 439.05 186.98 454.09 185.74 461.85 180.98 473.61 183.51 475.48 183.51 511.23 166.35 529.47 146.22 548.45 141.43 548.7 142.4 530.01 147.12 511.75 167.21 475.71 184.51 473.45 184.5 462.03 182.05 454.41 186.71 439.07 187.98"/><polygon class="cls-4" points="339.12 204.5 311.34 182.05 281.86 187.97 268.27 187.98 268.27 186.98 281.76 186.98 311.6 180.98 339.29 203.35 374.17 188.9 374.56 189.82 339.12 204.5"/><polygon class="cls-4" points="269.93 219.6 255.06 218.86 255.11 217.87 269.74 218.59 293.97 207.68 294.12 207.7 325.82 213.28 347.53 217.82 358.64 207.52 378.64 192.32 379.24 193.12 359.29 208.28 347.83 218.91 325.63 214.26 294.1 208.72 269.93 219.6"/><polygon class="cls-4" points="263.77 249.43 263.34 248.53 273.07 243.84 290.62 238.2 300.78 229.66 309.95 237.8 342.13 233.21 346.95 228.92 353.32 223.51 365.26 214.08 382.91 196.54 383.61 197.25 365.93 214.83 353.96 224.28 347.6 229.68 342.57 234.16 309.63 238.86 300.76 230.98 291.02 239.12 273.44 244.77 263.77 249.43"/><circle class="cls-9" cx="319.84" cy="124.36" r="25.81"/><circle class="cls-9" cx="383.26" cy="113.63" r="26.73"/><path class="cls-6" d="M323.59,126.79a10.42,10.42,0,0,0-.49-5.2,27.05,27.05,0,0,0-2.16-3.67,3,3,0,0,0-3.3-1.34,6.37,6.37,0,0,0-4.1,3.35,10.41,10.41,0,0,0-1.77,3.64c-.81,3.14-.06,6.61,2.85,8.38,1.76,1.08,3.28.58,4.78.05A5.7,5.7,0,0,0,323.59,126.79Z"/><path class="cls-6" d="M390.76,113.27c.25-2.6.06-5.85-1.93-7.79s-4.82-1.23-7.15.35c-1.94,1.31-4.75,11.63-1.58,14.19,2.44,2,5.47,3,7.7.82a7,7,0,0,0,.72-.83C389,119.55,390.71,113.75,390.76,113.27Z"/><g class="cls-10"><polygon class="cls-5" points="248.62 80.87 294.48 100.28 248.62 100.28 248.62 80.87"/><polygon class="cls-5" points="248.62 80.66 295 100.28 294.48 100.28 248.62 80.87 248.62 80.66"/><polygon class="cls-11" points="248.62 80.44 295.51 100.28 295 100.28 248.62 80.66 248.62 80.44"/><polygon class="cls-12" points="248.62 80.22 296.03 100.28 295.51 100.28 248.62 80.44 248.62 80.22"/><polygon class="cls-13" points="248.62 80 296.55 100.28 296.03 100.28 248.62 80.22 248.62 80"/><polygon class="cls-14" points="248.62 79.78 297.07 100.28 296.55 100.28 248.62 80 248.62 79.78"/><polygon class="cls-15" points="248.62 79.56 297.59 100.28 297.07 100.28 248.62 79.78 248.62 79.56"/><polygon class="cls-16" points="248.62 79.34 297.77 100.14 297.71 100.28 297.59 100.28 248.62 79.56 248.62 79.34"/><polygon class="cls-17" points="248.62 79.12 297.85 99.96 297.77 100.14 248.62 79.34 248.62 79.12"/><polygon class="cls-18" points="248.62 78.9 297.89 99.76 297.89 99.86 297.85 99.96 248.62 79.12 248.62 78.9"/><polygon class="cls-19" points="248.62 78.86 248.68 78.71 297.89 99.54 297.89 99.76 248.62 78.9 248.62 78.86"/><polygon class="cls-20" points="248.68 78.71 248.76 78.52 297.89 99.32 297.89 99.54 248.68 78.71"/><polygon class="cls-21" points="248.76 78.52 248.84 78.34 297.89 99.1 297.89 99.32 248.76 78.52"/><polygon class="cls-22" points="248.84 78.34 248.92 78.15 297.89 98.88 297.89 99.1 248.84 78.34"/><polygon class="cls-23" points="248.92 78.15 249 77.97 297.89 98.66 297.89 98.88 248.92 78.15"/><polygon class="cls-24" points="249 77.97 249.08 77.78 297.89 98.44 297.89 98.66 249 77.97"/><polygon class="cls-25" points="249.08 77.78 249.16 77.59 297.89 98.22 297.89 98.44 249.08 77.78"/><polygon class="cls-26" points="249.16 77.59 249.23 77.41 297.89 98 297.89 98.22 249.16 77.59"/><polygon class="cls-27" points="249.23 77.41 249.31 77.22 297.89 97.78 297.89 98 249.23 77.41"/><polygon class="cls-28" points="249.31 77.22 249.39 77.04 297.89 97.57 297.89 97.78 249.31 77.22"/><polygon class="cls-29" points="249.39 77.04 249.47 76.85 297.89 97.35 297.89 97.57 249.39 77.04"/><polygon class="cls-30" points="249.47 76.85 249.55 76.66 297.89 97.13 297.89 97.35 249.47 76.85"/><polygon class="cls-31" points="249.55 76.66 249.63 76.48 297.89 96.91 297.89 97.13 249.55 76.66"/><polygon class="cls-32" points="249.63 76.48 249.71 76.29 297.89 96.69 297.89 96.91 249.63 76.48"/><polygon class="cls-33" points="249.71 76.29 249.78 76.11 297.89 96.47 297.89 96.69 249.71 76.29"/><polygon class="cls-34" points="249.78 76.11 249.86 75.92 297.89 96.25 297.89 96.47 249.78 76.11"/><polygon class="cls-35" points="249.86 75.92 249.94 75.73 297.89 96.03 297.89 96.25 249.86 75.92"/><polygon class="cls-36" points="249.94 75.73 250.02 75.55 297.89 95.81 297.89 96.03 249.94 75.73"/><polygon class="cls-37" points="250.02 75.55 250.1 75.36 297.89 95.59 297.89 95.81 250.02 75.55"/><polygon class="cls-38" points="250.1 75.36 250.18 75.18 297.89 95.37 297.89 95.59 250.1 75.36"/><polygon class="cls-39" points="250.18 75.18 250.26 74.99 297.89 95.16 297.89 95.37 250.18 75.18"/><polygon class="cls-40" points="250.26 74.99 250.34 74.81 297.89 94.94 297.89 95.16 250.26 74.99"/><polygon class="cls-41" points="250.34 74.81 250.41 74.62 297.89 94.72 297.89 94.94 250.34 74.81"/><polygon class="cls-42" points="250.41 74.62 250.49 74.43 297.89 94.5 297.89 94.72 250.41 74.62"/><polygon class="cls-43" points="250.49 74.43 250.57 74.25 297.89 94.28 297.89 94.5 250.49 74.43"/><polygon class="cls-44" points="250.57 74.25 250.65 74.06 297.89 94.06 297.89 94.28 250.57 74.25"/><polygon class="cls-45" points="250.65 74.06 250.73 73.88 297.89 93.84 297.89 94.06 250.65 74.06"/><polygon class="cls-46" points="250.73 73.88 250.81 73.69 297.89 93.62 297.89 93.84 250.73 73.88"/><polygon class="cls-47" points="250.81 73.69 250.89 73.5 297.89 93.4 297.89 93.62 250.81 73.69"/><polygon class="cls-48" points="250.89 73.5 250.96 73.32 297.89 93.18 297.89 93.4 250.89 73.5"/><polygon class="cls-49" points="250.96 73.32 251.04 73.13 297.89 92.96 297.89 93.18 250.96 73.32"/><polygon class="cls-50" points="251.04 73.13 251.12 72.95 297.89 92.74 297.89 92.96 251.04 73.13"/><polygon class="cls-51" points="251.12 72.95 251.2 72.76 297.89 92.53 297.89 92.74 251.12 72.95"/><polygon class="cls-52" points="251.2 72.76 251.28 72.58 297.89 92.31 297.89 92.53 251.2 72.76"/><polygon class="cls-53" points="251.28 72.58 251.36 72.39 297.89 92.09 297.89 92.31 251.28 72.58"/><polygon class="cls-54" points="251.36 72.39 251.44 72.2 297.89 91.87 297.89 92.09 251.36 72.39"/><polygon class="cls-55" points="251.44 72.2 251.51 72.02 297.89 91.65 297.89 91.87 251.44 72.2"/><polygon class="cls-56" points="251.51 72.02 251.59 71.83 297.89 91.43 297.89 91.65 251.51 72.02"/><polygon class="cls-57" points="251.59 71.83 251.67 71.65 297.89 91.21 297.89 91.43 251.59 71.83"/><polygon class="cls-58" points="251.67 71.65 251.75 71.46 297.89 90.99 297.89 91.21 251.67 71.65"/><polygon class="cls-59" points="251.75 71.46 251.83 71.27 297.89 90.77 297.89 90.99 251.75 71.46"/><polygon class="cls-60" points="251.83 71.27 251.91 71.09 297.89 90.55 297.89 90.77 251.83 71.27"/><polygon class="cls-61" points="251.91 71.09 251.99 70.9 297.89 90.33 297.89 90.55 251.91 71.09"/><polygon class="cls-62" points="251.99 70.9 252.06 70.74 252.12 70.74 297.89 90.11 297.89 90.33 251.99 70.9"/><polygon class="cls-63" points="252.64 70.74 297.89 89.89 297.89 90.11 252.12 70.74 252.64 70.74"/><polygon class="cls-64" points="253.16 70.74 297.89 89.68 297.89 89.89 252.64 70.74 253.16 70.74"/><polygon class="cls-65" points="253.68 70.74 297.89 89.46 297.89 89.68 253.16 70.74 253.68 70.74"/><polygon class="cls-66" points="254.19 70.74 297.89 89.24 297.89 89.46 253.68 70.74 254.19 70.74"/><polygon class="cls-67" points="254.71 70.74 297.89 89.02 297.89 89.24 254.19 70.74 254.71 70.74"/><polygon class="cls-68" points="255.23 70.74 297.89 88.8 297.89 89.02 254.71 70.74 255.23 70.74"/><polygon class="cls-69" points="255.75 70.74 297.89 88.58 297.89 88.8 255.23 70.74 255.75 70.74"/><polygon class="cls-70" points="256.26 70.74 297.89 88.36 297.89 88.58 255.75 70.74 256.26 70.74"/><polygon class="cls-71" points="256.78 70.74 297.89 88.14 297.89 88.36 256.26 70.74 256.78 70.74"/><polygon class="cls-72" points="257.3 70.74 297.89 87.92 297.89 88.14 256.78 70.74 257.3 70.74"/><polygon class="cls-73" points="257.82 70.74 297.89 87.7 297.89 87.92 257.3 70.74 257.82 70.74"/><polygon class="cls-74" points="258.34 70.74 297.89 87.48 297.89 87.7 257.82 70.74 258.34 70.74"/><polygon class="cls-75" points="258.85 70.74 297.89 87.27 297.89 87.48 258.34 70.74 258.85 70.74"/><polygon class="cls-76" points="259.37 70.74 297.89 87.05 297.89 87.27 258.85 70.74 259.37 70.74"/><polygon class="cls-77" points="259.89 70.74 297.89 86.83 297.89 87.05 259.37 70.74 259.89 70.74"/><polygon class="cls-78" points="260.41 70.74 297.89 86.61 297.89 86.83 259.89 70.74 260.41 70.74"/><polygon class="cls-79" points="260.93 70.74 297.89 86.39 297.89 86.61 260.41 70.74 260.93 70.74"/><polygon class="cls-80" points="261.44 70.74 297.89 86.17 297.89 86.39 260.93 70.74 261.44 70.74"/><polygon class="cls-80" points="261.96 70.74 297.89 85.95 297.89 86.17 261.44 70.74 261.96 70.74"/><polygon class="cls-81" points="262.48 70.74 297.89 85.73 297.89 85.95 261.96 70.74 262.48 70.74"/><polygon class="cls-2" points="263 70.74 297.89 85.51 297.89 85.73 262.48 70.74 263 70.74"/><polygon class="cls-2" points="297.89 85.51 263 70.74 297.89 70.74 297.89 85.51"/></g><g class="cls-82"><polygon class="cls-5" points="390.26 85.35 388.87 83.47 419.8 60.62 419.8 85.35 390.26 85.35"/><polygon class="cls-5" points="388.87 83.47 388.8 83.37 419.8 60.47 419.8 60.62 388.87 83.47"/><polygon class="cls-11" points="388.8 83.37 388.73 83.28 419.8 60.32 419.8 60.47 388.8 83.37"/><polygon class="cls-12" points="388.73 83.28 388.65 83.18 419.8 60.17 419.8 60.32 388.73 83.28"/><polygon class="cls-13" points="388.65 83.18 388.58 83.08 419.8 60.02 419.8 60.17 388.65 83.18"/><polygon class="cls-14" points="388.58 83.08 388.51 82.98 419.8 59.87 419.8 60.02 388.58 83.08"/><polygon class="cls-15" points="388.51 82.98 388.44 82.89 419.8 59.72 419.8 59.87 388.51 82.98"/><polygon class="cls-16" points="388.44 82.89 388.37 82.79 419.8 59.56 419.8 59.72 388.44 82.89"/><polygon class="cls-17" points="388.37 82.79 388.3 82.69 419.8 59.41 419.8 59.56 388.37 82.79"/><polygon class="cls-18" points="388.3 82.69 388.22 82.59 419.8 59.26 419.8 59.41 388.3 82.69"/><polygon class="cls-19" points="388.22 82.59 388.15 82.5 419.8 59.11 419.8 59.26 388.22 82.59"/><polygon class="cls-20" points="388.15 82.5 388.08 82.4 419.8 58.96 419.8 59.11 388.15 82.5"/><polygon class="cls-21" points="388.08 82.4 388.01 82.3 419.8 58.81 419.8 58.96 388.08 82.4"/><polygon class="cls-22" points="388.01 82.3 387.94 82.2 419.8 58.66 419.8 58.81 388.01 82.3"/><polygon class="cls-23" points="387.94 82.2 387.89 82.14 387.89 82.09 419.8 58.51 419.8 58.66 387.94 82.2"/><polygon class="cls-24" points="387.89 81.94 419.8 58.36 419.8 58.51 387.89 82.09 387.89 81.94"/><polygon class="cls-25" points="387.89 81.79 419.8 58.21 419.8 58.36 387.89 81.94 387.89 81.79"/><polygon class="cls-26" points="387.89 81.64 419.8 58.06 419.8 58.21 387.89 81.79 387.89 81.64"/><polygon class="cls-27" points="387.89 81.49 419.8 57.91 419.8 58.06 387.89 81.64 387.89 81.49"/><polygon class="cls-28" points="387.89 81.34 419.8 57.76 419.8 57.91 387.89 81.49 387.89 81.34"/><polygon class="cls-29" points="387.89 81.19 419.8 57.61 419.8 57.76 387.89 81.34 387.89 81.19"/><polygon class="cls-30" points="387.89 81.04 419.8 57.46 419.8 57.61 387.89 81.19 387.89 81.04"/><polygon class="cls-31" points="387.89 80.89 419.8 57.31 419.8 57.46 387.89 81.04 387.89 80.89"/><polygon class="cls-32" points="387.89 80.74 419.8 57.16 419.8 57.31 387.89 80.89 387.89 80.74"/><polygon class="cls-33" points="387.89 80.58 419.8 57.01 419.8 57.16 387.89 80.74 387.89 80.58"/><polygon class="cls-34" points="387.89 80.44 419.8 56.86 419.8 57.01 387.89 80.58 387.89 80.44"/><polygon class="cls-35" points="387.89 80.28 419.8 56.71 419.8 56.86 387.89 80.44 387.89 80.28"/><polygon class="cls-36" points="387.89 80.13 419.8 56.55 419.8 56.71 387.89 80.28 387.89 80.13"/><polygon class="cls-37" points="387.89 79.98 419.8 56.41 419.8 56.55 387.89 80.13 387.89 79.98"/><polygon class="cls-38" points="387.89 79.83 419.8 56.25 419.8 56.41 387.89 79.98 387.89 79.83"/><polygon class="cls-39" points="387.89 79.68 419.8 56.1 419.8 56.25 387.89 79.83 387.89 79.68"/><polygon class="cls-40" points="387.89 79.53 419.8 55.95 419.8 56.1 387.89 79.68 387.89 79.53"/><polygon class="cls-41" points="387.89 79.38 419.8 55.8 419.8 55.95 387.89 79.53 387.89 79.38"/><polygon class="cls-42" points="387.89 79.23 419.8 55.65 419.8 55.8 387.89 79.38 387.89 79.23"/><polygon class="cls-43" points="387.89 79.08 419.8 55.5 419.8 55.65 387.89 79.23 387.89 79.08"/><polygon class="cls-44" points="387.89 78.93 419.8 55.35 419.8 55.5 387.89 79.08 387.89 78.93"/><polygon class="cls-45" points="387.89 78.78 419.8 55.2 419.8 55.35 387.89 78.93 387.89 78.78"/><polygon class="cls-46" points="387.89 78.63 419.8 55.05 419.8 55.2 387.89 78.78 387.89 78.63"/><polygon class="cls-47" points="387.89 78.48 419.65 55.01 419.77 55.01 419.8 55.04 419.8 55.05 387.89 78.63 387.89 78.48"/><polygon class="cls-48" points="387.89 78.33 419.45 55.01 419.65 55.01 387.89 78.48 387.89 78.33"/><polygon class="cls-49" points="387.89 78.18 419.24 55.01 419.45 55.01 387.89 78.33 387.89 78.18"/><polygon class="cls-50" points="387.89 78.03 419.04 55.01 419.24 55.01 387.89 78.18 387.89 78.03"/><polygon class="cls-51" points="387.89 77.88 418.83 55.01 419.04 55.01 387.89 78.03 387.89 77.88"/><polygon class="cls-52" points="387.89 77.73 418.63 55.01 418.83 55.01 387.89 77.88 387.89 77.73"/><polygon class="cls-53" points="387.89 77.58 418.43 55.01 418.63 55.01 387.89 77.73 387.89 77.58"/><polygon class="cls-54" points="387.89 77.42 418.22 55.01 418.43 55.01 387.89 77.58 387.89 77.42"/><polygon class="cls-55" points="387.89 77.28 418.02 55.01 418.22 55.01 387.89 77.42 387.89 77.28"/><polygon class="cls-56" points="387.89 77.12 417.82 55.01 418.02 55.01 387.89 77.28 387.89 77.12"/><polygon class="cls-57" points="387.89 76.97 417.61 55.01 417.82 55.01 387.89 77.12 387.89 76.97"/><polygon class="cls-58" points="387.89 76.82 417.41 55.01 417.61 55.01 387.89 76.97 387.89 76.82"/><polygon class="cls-59" points="387.89 76.67 417.2 55.01 417.41 55.01 387.89 76.82 387.89 76.67"/><polygon class="cls-60" points="387.89 76.52 417 55.01 417.2 55.01 387.89 76.67 387.89 76.52"/><polygon class="cls-61" points="387.89 76.37 416.8 55.01 417 55.01 387.89 76.52 387.89 76.37"/><polygon class="cls-62" points="387.89 76.22 416.59 55.01 416.8 55.01 387.89 76.37 387.89 76.22"/><polygon class="cls-63" points="387.89 76.07 416.39 55.01 416.59 55.01 387.89 76.22 387.89 76.07"/><polygon class="cls-64" points="387.89 75.92 416.19 55.01 416.39 55.01 387.89 76.07 387.89 75.92"/><polygon class="cls-65" points="387.89 75.77 415.98 55.01 416.19 55.01 387.89 75.92 387.89 75.77"/><polygon class="cls-66" points="387.89 75.62 415.78 55.01 415.98 55.01 387.89 75.77 387.89 75.62"/><polygon class="cls-67" points="387.89 75.47 415.58 55.01 415.78 55.01 387.89 75.62 387.89 75.47"/><polygon class="cls-68" points="387.89 75.32 415.37 55.01 415.58 55.01 387.89 75.47 387.89 75.32"/><polygon class="cls-69" points="387.89 75.17 415.17 55.01 415.37 55.01 387.89 75.32 387.89 75.17"/><polygon class="cls-70" points="387.89 75.02 414.96 55.01 415.17 55.01 387.89 75.17 387.89 75.02"/><polygon class="cls-71" points="387.89 74.87 414.76 55.01 414.96 55.01 387.89 75.02 387.89 74.87"/><polygon class="cls-72" points="387.89 74.72 414.56 55.01 414.76 55.01 387.89 74.87 387.89 74.72"/><polygon class="cls-73" points="387.89 74.57 414.35 55.01 414.56 55.01 387.89 74.72 387.89 74.57"/><polygon class="cls-74" points="387.89 74.42 414.15 55.01 414.35 55.01 387.89 74.57 387.89 74.42"/><polygon class="cls-75" points="387.89 74.27 413.95 55.01 414.15 55.01 387.89 74.42 387.89 74.27"/><polygon class="cls-76" points="387.89 74.11 413.74 55.01 413.95 55.01 387.89 74.27 387.89 74.11"/><polygon class="cls-77" points="387.89 73.96 413.54 55.01 413.74 55.01 387.89 74.11 387.89 73.96"/><polygon class="cls-78" points="387.89 73.81 413.34 55.01 413.54 55.01 387.89 73.96 387.89 73.81"/><polygon class="cls-79" points="387.89 73.66 413.13 55.01 413.34 55.01 387.89 73.81 387.89 73.66"/><polygon class="cls-80" points="387.89 73.51 412.93 55.01 413.13 55.01 387.89 73.66 387.89 73.51"/><polygon class="cls-80" points="387.89 73.36 412.73 55.01 412.93 55.01 387.89 73.51 387.89 73.36"/><polygon class="cls-81" points="387.89 73.21 412.52 55.01 412.73 55.01 387.89 73.36 387.89 73.21"/><polygon class="cls-2" points="387.89 73.06 412.32 55.01 412.52 55.01 387.89 73.21 387.89 73.06"/><polygon class="cls-2" points="412.32 55.01 387.89 73.06 387.89 55.01 412.32 55.01"/></g></g></svg>