<svg xmlns="http://www.w3.org/2000/svg" xmlns:xlink="http://www.w3.org/1999/xlink" viewBox="0 0 380 322.25"><defs><style>.cls-1{fill:none;}.cls-2{fill:url(#linear-gradient);}.cls-3{fill:#58595b;}.cls-14,.cls-4{fill:#393a35;}.cls-14,.cls-5,.cls-6{opacity:0.44;}.cls-6,.cls-7{fill:#fff;}.cls-8{fill:#d1d3d4;}.cls-9{fill:#a0a2a5;}.cls-10{fill:#dadbdc;}.cls-11{fill:#7a478b;}.cls-12{clip-path:url(#clip-path);}.cls-13{fill:#9c6bad;}.cls-15{fill:#8f4299;}</style><linearGradient id="linear-gradient" x1="187.17" y1="73.65" x2="188.13" y2="219.4" gradientUnits="userSpaceOnUse"><stop offset="0" stop-color="#dadbdc"/><stop offset="1" stop-color="#a0a2a5"/></linearGradient><clipPath id="clip-path"><path class="cls-1" d="M171.06,314.29c-.34,3.76,2.84,5.68,11.72,5.73s13.62-.76,13.82-3.92c.25-3.93-6.37-5.49-12.85-5.81S171.41,310.48,171.06,314.29Z"/></clipPath></defs><title>godzilla</title><g id="Layer_10" data-name="Layer 10"><path class="cls-2" d="M56.31,232.82c-.33,26.67-3.73,37-18.84,87.32h292.1c7.86-40.54,12.88-63.33,8.36-98.2-5.6-43.14-23.8-39.61-39.73-92.33-13.43-44.43,11.19-81.94-14.73-105.38-31-28-85.36-17.38-110-11.82-14.37,3.24-113.39,24.68-132.6,93C29.92,144.12,57.2,160.82,56.31,232.82Z"/><path class="cls-3" d="M320,235.79c.77-.27,1-1.72,2.3-1.94.9-.15,3,2.15,3.17,1.06.47-2.63.2-2.31.92-3.86.56-1.21,2.56-1.7,3.2-1.07.83.82-.74,3.36-.09,3.84.47.34,1.89-.45,2.53-1.69s.12-2.36.84-2.95a1.49,1.49,0,0,1,1.94.09c.71.93-1.21,2.93-.46,4.16a1.89,1.89,0,0,0,2.06.66c.7-.21,1.17-.89,2.36-4s1.32-4.06,1.94-4.19c.93-.21,2.22,1.41,2.69,2.94a7.44,7.44,0,0,1-.84,5.45c-1.21,2.28-3.05,3.37-2.78,3.84s1.49-.42,3.12.17c.18.07,1.42.53,1.43,1.17,0,.92-2.56,1.15-2.7,2.32s1.89,1.84,1.69,2.59-2.86.51-2.95,1.07,2.56.81,3.12,2.5a3.27,3.27,0,0,1-1,3.12,3.4,3.4,0,0,1-5.3-1.07c-.52-1.42.61-2.6,0-3.3s-1.92-.24-2.11-.18c-1,.3-1.26.92-1.68.8-1-.27-.65-3.9-1.26-4s-.83,3.05-2.62,3.75a3.23,3.23,0,0,1-3.87-1.87c-.29-1.14.78-2.2.42-2.59s-1.83,1.07-2.86.62C321.66,242.52,319,236.15,320,235.79Z"/><path class="cls-3" d="M318.4,204.39c1,0,1.43,3.3,2.37,3.2s1.34-2.9,1.67-4.73c.38-2.14.4-3.6.69-3.62.46,0,.52,3.38,1.68,3.62s3.05-2.15,3.07-4.57c0-1.88-1.17-2.63-.71-4.2.33-1.11,1.35-2.2,2.23-2.09s1.74,1.85,1.81,3.2c.09,1.74-.89,2.46-.42,3.34a2.38,2.38,0,0,0,2.93.84c1.33-.86-.33-3.61,1.25-6.69.73-1.43,2.08-2.76,2.79-2.5,1.17.43,0,5,1.25,5.43.94.33,2.11-2.27,3.2-2s1.78,3.32.7,5.43c-.69,1.35-1.81,1.73-1.67,2.65a2.15,2.15,0,0,0,1.95,1.53c1.33.07,1.93-1.37,2.64-1.12s1,2.32.42,3.9c-.08.22-.93,2.55-2.65,2.79s-3.19-1.8-3.48-1.53,2.28,2.55,2.23,5.57a5.18,5.18,0,0,1-1.81,3.89c-.75.59-2.36,1.44-3.2.84-1.27-.9.76-4-.84-6.27-.91-1.32-2.78-2-3.48-1.53-1.09.81,1.35,4.05-.12,6.2a3.82,3.82,0,0,1-4.2,1.32c-2-.8-2.05-3.92-2.92-3.9-1.18,0-1.36,5.32-1.53,5.29a13.22,13.22,0,0,1-1.25-5.84,3,3,0,0,0-2.31-.92,3.61,3.61,0,0,0-1.73.78c-1.83,1.2-2.18,2.05-2.51,1.95C315.35,214.36,316.74,204.42,318.4,204.39Z"/><path class="cls-4" d="M207.45,135.8c-1.27-4.6-5.85-8.53-9.74-8-1.26.17-3,.89-3.2,2-.33,2.18,5.88,3.75,5.6,5.74-.22,1.55-4.34,2.94-8,2.53-3.11-.34-4.71-1.85-6-.93a3,3,0,0,0-.67,3.73c.92,1.39,3.56,1.22,8.81.8a39.59,39.59,0,0,0,4.27-.4c0-.18-8-1.4-10.94,2.41-.81,1-1.37,2.63-.8,3.33.77,1,3.49,0,8.27-1.6.43-.15,4.55-1.56,4.54-1.6s-8.87,1.74-9.08,4.8c-.08,1.18,1.14,2.26,2.14,2.67,2.33,1,3.84-4.22,8.27-4.8,1.8-.24,2.13.47,3.34,0C207.12,145.35,208.61,140,207.45,135.8Z"/><path class="cls-4" d="M201.92,139.93c0-2,0-2.34,3.32-2.54,5.28-.33,13,4.28,16.44,3.17,2.6-.85,4.66-4.33,4.91-6.69.61-5.89-4.13-8.07-3.18-12.84.7-3.47,4.11-6.73,7.07-6.63,4.51.15,7.94,8.09,8.37,14.14.55,7.65-5.49,19.11-13.7,21.93-5.55,1.9-15.49-1.23-21.74-3.95C200.75,145.36,201.94,141.78,201.92,139.93Z"/><path class="cls-5" d="M211.3,138.35s-.73,9.37-.29,11c2.75.8,5.7,1.3,5.7,1.3L213,138.92Z"/><path class="cls-6" d="M212.28,69.2c.87.48-1.43,3.83-1.62,10.33-.13,4.23.77,5.32.25,9.43-.49,3.78-1.4,4-1.86,6.87-1.16,7.15,3.95,9.5,3.38,15.78-.53,5.79-5,5.37-6.36,11.61-1.65,7.75,4.81,10.64,3.16,18.29-1.28,6-5.49,5.65-6.71,12-.84,4.43.48,8.25,2.72,14.66,2.83,8.14,4.92,9.08,4.3,12.44-1,5.65-7.42,5.46-9.11,10.64-2.79,8.51,12.08,16.42,9.5,23.84-2.12,6.13-14.36,6.79-17.46,7-1.43.08-19.11.83-23.71-8.63-1.78-3.64,0-5.43,3.07-20.25,1-5,.52-3.33,4.38-23.82,1.23-6.57,2.21-11.49,5.81-16.77,2.63-3.88,3.4-3.13,5.19-5.94,6.6-10.34-3.7-20.41,2.19-30.61,3.13-5.43,7.89-5.78,9-12,.67-3.65-.65-5.22.77-8.73,1.81-4.48,4.83-4,6.39-8.14s-1-5.86.44-10.63C207.44,72,211.34,68.69,212.28,69.2Z"/><path class="cls-6" d="M211.45,67.72c-.09.58,1.2-.9,1.09,7.64-.12,9.29-.62,15.14-1.12,20.7-.74,8.41-3.45,10-4.12,19-.33,4.39.23,5.2.26,9.62.1,15-6.21,16.75-7.47,32.31-.59,7.27.45,11-1.82,18.82-1.45,5-2.21,4.58-3.09,8.5-1.6,7.15.55,10.08,1.07,21.72.33,7.34.46,11.06-1.44,13-4.51,4.65-17.2,2.56-20.69-3.82-1.83-3.35.21-5.46,3.51-19.51,2.74-11.65,1.9-12.62,4.55-21.32,2.58-8.51,3.39-7.63,5.18-14.61,2.33-9.09,1-10.87,3.51-19.52,2.23-7.75,3.35-6.58,5.07-13.45,2.64-10.55-.2-12.53,3.16-19.11,2.19-4.31,4.61-5.79,5.44-10.77.54-3.2-.32-3.41.07-7.53.32-3.32-.56-7.91,2-15.75C209,66.61,212,64.21,211.45,67.72Z"/><path class="cls-3" d="M243.74,68.82c1.16-1.09,2.48-.81,2.77-1.64s-1-1.38-1.38-3.16c-.36-1.53.06-3.46,1-3.78a1.5,1.5,0,0,1,1.51.5c.44.57,0,1.15.5,1.64a1.31,1.31,0,0,0,1.52.26c.66-.44.35-1.81.25-2.27-.32-1.44-1-1.61-1.13-2.53-.27-1.69,1.6-4,3-3.78,1.16.15,1.82,1.92,2.15,2.77.92,2.44.1,3.75,1.13,4.67a2.46,2.46,0,0,0,3,.13c.42-.46,0-.94.38-2.52a7.15,7.15,0,0,1,.75-2c.45-.8.82-1.44,1.39-1.52s1.59.67,1.89,1.52c.8,2.19-2.34,4.72-1.76,5.42s4.48-2.12,5.67-1c.53.49.33,1.58.13,2.15-.88,2.45-4.51,2.71-4.42,3.65.07.64,1.78,1.08,3,1.14,1.8.08,2.72-.63,3-.25s-.46,2.51-2.15,3.53c-2.43,1.48-5.11,0-5.92,1.26-.64,1,.58,2.59,0,3s-1.67-1-3.16-.76a3.49,3.49,0,0,0-2.14,1.51c-1.78,2.22-.79,4.24-1.77,4.92-2.14,1.51-11.25-5.12-10.59-10A4.69,4.69,0,0,1,243.74,68.82Z"/><path class="cls-3" d="M269.2,81.44c.52-.25-2.29-5.77-1.15-6.63s4.49,3.52,7.07,2.45c1.75-.72,1.75-3.37,3.17-3.46s2.12,2.36,3.32,2.16,1.36-3.14,2.31-3.17,1.72,2.65,1.87,3.17c.76,2.53.21,3.48.87,4,1.66,1.4,7.14-3,7.64-2.31s-4.32,4.6-3.6,5.77,5.39-.69,5.48-.43-8.28,2.39-8.37,5.19c-.06,2,3.93,3.1,3.61,4.48-.39,1.66-6.39,1-6.93,2.88-.38,1.41,2.57,2.69,2.17,4.33s-4,2.11-4.47,2.16a10.31,10.31,0,0,1-2,0,15.32,15.32,0,0,1-4.38-1.15c-4.88-2.15-14.36-17.63-12.41-19,.53-.39,1.6.48,2.31-.15.91-.8-.05-3,.43-3.17S268.79,81.65,269.2,81.44Z"/><path class="cls-3" d="M286.42,110.25c-.16-2.77.15-5.9,1-6.06,1.05-.19,2.63,4,3.18,3.75s-1.13-4.41.29-5.48c1-.78,2.92.69,3.46,0s-.47-2.43-1.59-3.61S290.9,97.61,290.9,97a2.15,2.15,0,0,1,2.45-1.59c1,.31.73,1.79,2.16,3.75,1,1.31,2.37,2.42,2.74,2.16.77-.52-3.47-6.53-1.87-8.22,1-1,3.37.48,4.47-.72s-.62-4.3.15-4.76,2.48,1.24,3.75,2.88c1.84,2.4,1.93,4.19,2.59,4.19,1.47,0,2.53-8.73,3.32-8.66.6.06.09,5,1.59,5.48s3.52-3,3.75-2.88-5.26,8.07-4.18,9.09c.81.77,4.64-3.1,6.49-1.88a3,3,0,0,1,.57,3.61c-1,1.75-3.42.73-6.05,2.74-1.42,1.08-3,3.09-2.46,4.33.84,2,6.84,1.15,6.93,2,0,.39-1.15.76-4.33,2.6-1.19.68-1.62,1-1.59,1.29.11.94,4.25.8,4.33,1.59.07.63-2.45,1.55-4.9,2.45-2,.72-2.53.81-2.89,1.45-.86,1.55,1.14,3.61.43,4.32-.42.43-1.92,0-4.9-1-1.45-.46-1.89-.66-2.17-.43-.59.5,1.84,2.47,1.59,5.19a3.38,3.38,0,0,1-1,2.31c-1.64,1.33-4.89-.28-5.77-.72C289.69,124.39,286.79,116.3,286.42,110.25Z"/><path class="cls-3" d="M301.4,140.94c-1.82-6-1.18-8-.22-9.12s3.14-1.94,4.08-1.26.4,3.1.7,3.15,1-3.14,2.4-6.69c1-2.56,2.54-5.77,3.19-5.59s-.38,4.27.75,4.76,3.82-3.09,4.63-4.19c2.95-4,3.29-6.43,4.48-6.41s3.08,2.93,2.73,5.68c-.51,4-5.24,4.37-6.49,9.17-.44,1.72-.66,4.87,1,6.15,2.69,2.1,7.78-2.89,11.31-.57a4.26,4.26,0,0,1,1.88,4.19c-.54,2.1-3.74,2.9-5.18,3.26-4.35,1.08-6.14-.66-8.61.95a5.58,5.58,0,0,0-2.58,4.28c0,2,1.61,2.57,1.46,4-.21,1.93-3.28,4-5.92,3.79C306,156.11,303.36,147.43,301.4,140.94Z"/><path class="cls-3" d="M332.47,150.24c.71-.07,1.52.92,1.87,1.87.93,2.52-1.46,4.51-.43,6.06a2.87,2.87,0,0,0,2.45,1c1.57-.09,2.35-1.54,2.74-1.3s0,2.39-1.3,4-2.19,1.28-3.17,2.74c-.61.91-1.4,2.72-.72,3.75,1.23,1.88,6.52,0,6.78.87.18.59-2.07,2.3-4,3.32-.69.36-1.26.58-1.3,1-.09,1,2.72,1.43,2.74,2.45s-3,2.78-5,1.88c-1.86-.84-1.32-3.25-3.46-4.48-1.74-1-4.11-.55-4.33.15-.28.91,3.26,1.84,3.61,4.47.12.87-.08,2.17-.87,2.6-1.71.92-4.64-3.21-6.34-2.31-.89.47-1.06,2.1-.87,3.17.4,2.19,2.43,2.66,2.31,3.9s-2.83,2.67-5,2.45c-3.07-.3-4.75-3.92-6.49-7.5a21.12,21.12,0,0,1-2.46-8.66c-.15-3.32.47-8.43,2.31-8.8,1.05-.21,2.39,1.16,5.05,3.9,1.58,1.62,2.14,2.48,2.6,2.31.69-.27.66-2.73-.15-4.76-.67-1.71-1.34-1.69-1.73-3-.65-2.25.31-5.35,2.17-5.92a3.33,3.33,0,0,1,2.45.43c1.41.89,1.3,2.39,2,2.46s2.09-1.77,2-3.61-1.26-2.19-1-3.46,2-2.64,3.17-2.31c1.49.43,1.52,3.46,2.46,3.46C331.23,152.41,331.47,150.32,332.47,150.24Z"/><path class="cls-3" d="M211.59,91.51c-.05-.27,1.9-.76,1.84-1.19s-1.62-.34-1.66-.71,2-.76,2-1.39-1.76-.92-1.7-1.37,2.14-.54,2.15-.88-1.83-.46-1.87-1,2.17-1,2.1-1.45-1.89-.22-2-.64,2-1.11,1.88-1.43-1.67.08-1.79-.26,2.18-1.52,2-1.85-2.1.33-2.21.06,1.89-1.15,1.76-1.57-1.6-.07-1.7-.41,1.55-1.07,1.45-1.34-1.56.24-1.76-.13,1.57-1.81,1.44-2-1.64,1-1.83.77.86-2.24,1.93-2.24c2.07,0,4.67,7.46,3.18,13.81-.28,1.2-1,4.41-3.24,5.16C212.75,91.83,211.63,91.71,211.59,91.51Z"/><path class="cls-3" d="M202.38,91.47c.21-.22-1.28-1.81-1-2.16s1.67.64,1.93.33-1.38-1.87-1-2.45,2.14.2,2.35-.24-1.63-1.75-1.44-2.07,1.94.66,2.26.24-1.36-2.21-1.06-2.55,1.85.91,2.17.58-1.13-2.17-.87-2.4,1.47,1,1.78.81-1.08-2.67-.77-2.88,1.72,1.53,2,1.34-1-2.14-.67-2.45,1.49.88,1.78.63-.77-1.88-.53-2.07,1.28,1.14,1.68.91-.35-2.56-.14-2.64.91,1.85,1.2,1.78.55-2.55-.43-3.18c-1.87-1.21-8.62,4-11,10.68-.45,1.25-1.66,4.61-.1,6.59C201.14,91.08,202.22,91.63,202.38,91.47Z"/><path class="cls-4" d="M225.82,52.27s12.6,4.95,24.91,20.72c7.85,10.06,54.83,12.27,71.94,127,6.88,46.12,7.7,114.4,7.7,114.4l-1.15,5.77-130.43.24s-3-94.8,20-125.12c11-14.43,3.46-34.63,3.46-34.63s-11.54-15-10.1-35.49,28-26.93,5.48-39.43C211.07,82,225.82,52.27,225.82,52.27Z"/><path class="cls-3" d="M259.1,122.77c5.14-5.27,19.42,1,24.81,12.5s3.85,23.66-4.42,28.08-18.66,3.08-23.28-.38-1.35-10.77,3.08-9,12.12,3.46,14.23-2.5S242.17,140.08,259.1,122.77Z"/><path class="cls-3" d="M260.23,151.19c-1.37-5-6.32-9.23-10.53-8.66-1.37.19-3.29,1-3.46,2.16-.36,2.36,6.36,4.06,6,6.21-.23,1.68-4.69,3.18-8.65,2.74-3.37-.37-5.1-2-6.49-1a3.29,3.29,0,0,0-.72,4c1,1.5,3.84,1.31,9.52.86a45.51,45.51,0,0,0,4.61-.43c0-.2-8.64-1.52-11.83,2.6-.87,1.13-1.47,2.85-.86,3.61.83,1,3.78,0,8.94-1.74.47-.16,4.92-1.69,4.91-1.73s-9.59,1.89-9.81,5.2c-.09,1.27,1.23,2.44,2.31,2.88,2.52,1,4.15-4.56,8.94-5.19,2-.26,2.3.51,3.61,0C259.88,161.51,261.48,155.76,260.23,151.19Z"/><path class="cls-5" d="M220.24,64.39s3.5-5.1,5.43,8.56c.77,5.43.05,14.66-.72,18.27-1.73-2.69-7.35-5.53-7.35-5.53Z"/><path class="cls-4" d="M193.75,50.34c-7.22,10.29-8.09,20.28-2.54,24.71s4,12.77,4,12.77l5.56,3.78s5.38-14.48,11.36-17.35c3.08,5,1.84,12.19,0,17.81l5.16.15s19.24-32.45,8.9-39.65C224,51,214.53,47.59,206.57,46,200.61,44.77,197.39,45.15,193.75,50.34Z"/><path class="cls-7" d="M203.7,58.13c1.72.92,1.76,3.68,1.15,5.39-.7,1.95-2.73,3.87-4.42,3.46-2-.48-3.22-4.1-1.93-6.54C199.47,58.63,202,57.22,203.7,58.13Z"/><path class="cls-4" d="M198.41,60.2c.39-.62,2.72-.1,4,.72,1.09.71,2.7,2.38,2.36,3s-2.73.34-4-.52C199.6,62.64,198,60.8,198.41,60.2Z"/><path class="cls-3" d="M210.62,49.42c-.58-1.89,2.36-4.57,3.95-4s2.37,4.24.77,5.49C214,51.92,211.11,51,210.62,49.42Z"/><path class="cls-4" d="M321.29,221.3s5.95,32,9.52,42.27a42.07,42.07,0,0,0,6.83,11.93l-7.26,39.57-9.6,4.33Z"/><path class="cls-3" d="M273.3,212c22.72.62,52.71,52.71,53.09,108.11-22.7.38-100,.38-100,.38s-10.39-21.16,20-20.77C235.21,279.66,217.13,210.41,273.3,212Z"/><path class="cls-3" d="M211.27,25.32s-64.13,19.6-86,23.79S37.2,58.77,37.2,58.77l-1.14-5.93L210.13,19.39Z"/><path class="cls-8" d="M35,54.35S89.77,49.51,125,42.63c35.07-6.85,87.53-22.41,87.53-22.41a.86.86,0,0,0-.09-1.71l-84.14-7.38a1,1,0,0,0-.24,0l-19.18,3.68a.9.9,0,0,0-.23.08L34.4,52.73A.87.87,0,0,0,35,54.35Z"/><path class="cls-9" d="M213.5,23.21s-56.63,17-86.46,22.7C91.58,52.41,35.2,57.48,35.2,57.48a.87.87,0,0,0,.09,1.72l84.47,7.4a1,1,0,0,0,.24,0l19.25-3.7a.9.9,0,0,0,.23-.08l74.58-38A.87.87,0,0,0,213.5,23.21Z"/><path class="cls-3" d="M108.7,9.07l.15,6.43s3,.81,9.92-.43a33.13,33.13,0,0,0,10.09-3.48l-1.93-5.71s-2.31-1.48-9.61-.18C113.26,6.42,109.41,8.2,108.7,9.07Z"/><path class="cls-7" d="M135.06,20.55c-.05,1.07,1.38,1.85,2.84,1.7s3-1.38,2.74-2.46-2-1.55-3.44-1.18C136.16,18.88,135.1,19.66,135.06,20.55Z"/><path class="cls-7" d="M98.33,27.33c0,1.07,1.39,1.85,2.84,1.7s3-1.39,2.74-2.47-2-1.54-3.44-1.17C99.43,25.66,98.37,26.44,98.33,27.33Z"/><path class="cls-7" d="M117.68,25.43c-.05,1.07,1.39,1.85,2.84,1.7s3-1.39,2.74-2.47-2-1.54-3.44-1.17C118.78,23.76,117.72,24.53,117.68,25.43Z"/><path class="cls-7" d="M154,13.41,149.28,13a1.91,1.91,0,0,0-.87,1.34c0,1.08,1.39,1.85,2.84,1.7s3-1.38,2.75-2.46C154,13.51,154,13.46,154,13.41Z"/><path class="cls-7" d="M88.37,25.26l-4.69,2.38a2.93,2.93,0,0,0,2.59.92c1.56-.17,3-1.39,2.74-2.47A1.37,1.37,0,0,0,88.37,25.26Z"/><polygon class="cls-7" points="138.2 67.52 182.06 201.98 146.86 210.34 123.2 69.83 138.2 67.52"/><path class="cls-7" d="M182.35,208.32c1.21.16,5.85-27.87,7.13-27.69,1,.13-1.27,16.35,1.15,16.92s8.26-14.73,9.05-14.42-5.56,12.3-1.74,16.16,15.42-2.8,16.73-.38c.79,1.45-2.84,4.85-4.23,6.15a40.25,40.25,0,0,1-13.28,8.27c-20.69,7.46-31,11.19-43.09,10.18-6.08-.51-11.68-1.06-16.73-5.2-7.54-6.19-9.56-16.86-8.07-17.7s7.76,9.44,10.19,8.27c3.18-1.53-3.1-21.38-1.92-21.73.85-.26,3.21,10.25,7.69,10.58,2.15.16,4.16-2.27,8.08-7.12,5-6.14,6-9.27,7.32-9,3.08.55,1.2,18.77,3.84,19.23s6.9-17,9.43-16.54.92,18.29,2.49,18.47,5-20,6.17-19.81S181.22,208.17,182.35,208.32Z"/><polygon class="cls-7" points="89.28 136.81 83.89 177.97 100.44 169.89 102.21 202.15 113.79 193.16 132.37 233.76 118.75 178.74 107.77 188.31 113.13 152.2 95.82 159.12 106.59 123.73 89.28 136.81"/><path class="cls-3" d="M149.3,93.56c-6-1.9-12.33,4.3-12.33,4.3a11.59,11.59,0,0,0,1.44-11.07c-2-5.71-11.07-7.74-16.42-7.81-2.33,0-9.71-.11-13.4,4.69-4.32,5.62-3.46,7.58-3.46,7.58s1.19-1.73-4.64-8.27a18,18,0,0,0-10.07-5.89c-5.42-1-12,.64-15.55,5C70,88.24,70,93.73,70,93.73s-1-.91-5.63-4.25c-4.25-3-9.32-2.64-11-2.5-1.28.11-10,1-14.38,8.08-3.32,5.35-.46,13.55,3.48,17.42-3-1.49-5.45,1-6,1.73-3.24,4-1.48,10.07,1.49,13.3,1.81,2,7.06,3,10.07,2.36a6.75,6.75,0,0,0-3.6,9.18c3.7,7.39,26.53,12.74,32.27,6.83,5.27-5.43,5.49-10.93,5.49-10.93a16.74,16.74,0,0,0,7.67,13.5c6.3,4.29,17,3,21-2.3,4.29-5.72,1.93-13,1.93-13s1.57,9.77,8.35,12.46c6.4,2.54,17.24-4.22,17.89-10.95a19.87,19.87,0,0,0-1-9s7.13,5,12.75,2.13a15.84,15.84,0,0,0,8.77-13.61C159.86,103.31,155.93,95.66,149.3,93.56Z"/><path class="cls-3" d="M53.52,312.35c3.07,5.84,8.78,7.2,9.81,7.77H87c3.89-4.29,5.14-12.15,2.38-15.26-3.21-3.63-9.45,1.93-14.9-1.72-5.2-3.49.26-13.59-9.89-17.84-12.84-5.37-13.93-23.86-13.93-23.86s-5.18,14.67,1.72,29.34C57.42,301.57,50.51,306.62,53.52,312.35Z"/><path class="cls-3" d="M94.44,187.11a26.38,26.38,0,0,1-1.51,10.32c-1,2.89-2.26,2.7-4.23,6.77-1.07,2.21-1.4,5.41-1.51,8.71-.19,5.74,3.73,6.91,3.93,11.77.22,5.45-4.61,6.55-7.25,13.54-2.73,7.19-2.26,18.29,3.32,21.6,4.59,2.73,11.52-.48,15.26-4.67,5.76-6.47,4.49-16,4.08-19-.82-6.07-3.45-11.39-7.56-19.67-2.41-4.87-3.4-6.06-3.47-8.86-.14-5.77,3.59-5.8,2.87-11.29C97.83,192.18,94.44,187.11,94.44,187.11Z"/><path class="cls-10" d="M66.77,237.93a17.94,17.94,0,0,0-7.83,10.77c-2.35,9.58,2.9,11.45,2.11,16.61-1.15,7.52-1.59,13.59-1.13,16.55a61,61,0,0,0,5.84,17.93c2.88,6.07,4,9.3,5.84,10.1,6.75,3,19.2-11.91,17.32-19.7-1.43-5.94-10.25-3.78-13.69-12.37-2.21-5.51.92-7.66-1.41-15.4-2.1-7-7.57-6.87-8.84-14C64.05,243.08,66.77,237.93,66.77,237.93Z"/><path class="cls-3" d="M83.63,219.3a50.22,50.22,0,0,1-1.21,22.36c-1.83,6.49-3.49,6.07-5.44,12.9-2,7.11-.87,9.82-1.41,22.35-.68,15.79-2.78,17.71-.6,20.86,5.38,7.76,25.19,6.16,29.2-2.58,2-4.35-.88-10.78-6.64-23.65-5.58-12.46-7.93-13.26-8.66-20-.82-7.51,2.67-10.36,1.34-19A27.25,27.25,0,0,0,83.63,219.3Z"/><path class="cls-10" d="M109,203.72a27.49,27.49,0,0,0-1.68,14.35c.58,4,.81,6.39,3.17,10.85,1.63,3.08,7.8,14.73,8.26,23,.56,9.9-4.85,23.71-14.1,25.16-6.66,1-14.71-4.45-15.71-10.54-.86-5.22,4.08-7.18,7.25-17.63,1.3-4.26,1.83-5.37,2.57-13.26.69-7.31-2.55-14.17-.47-20.64C99.85,210,109,203.72,109,203.72Z"/><path class="cls-10" d="M77.2,191.62s-9,4.58-10.4,10.53c-1.23,5.11,1.75,12.08,3,17.15a50,50,0,0,1,2.41,18.63c-.7,15.46-9,18.09-7.08,27.86,1.78,9.17,13.59,18.33,21,16.61,8.57-2,13.5-17.87,10.12-28.38-3-9.48-11.92-8.51-15.16-19-2.92-9.5,1.17-12.9-2.14-22.82-1.51-4.53-3.92-5.47-4-10.73A26.22,26.22,0,0,1,77.2,191.62Z"/><path class="cls-3" d="M113.46,205.38a30.27,30.27,0,0,1-.58,11.29c-1.57,5.81-4,9.22-5.94,14-2.14,5.12-2.21,13.56,3.09,19.53a11.2,11.2,0,0,0,15.51,1.33c3.85-3.12,5.07-9.33,3.78-14-2.32-8.47-11.55-5.8-11.76-12.75-.11-3.46,2-5,1.17-9.65C118.07,211.26,113.46,205.38,113.46,205.38Z"/><path class="cls-10" d="M68.48,320.12h60.83c10.75-19.16,7.41-47.25-4.2-55.3-5.45-3.78-13.48-3.67-22.21-3.54-6.87.09-11.76.16-17.37,2.9-10.76,5.25-15.38,16.06-16.92,19.67-1.71,4-6.81,16.43-2.12,30.95A38.14,38.14,0,0,0,68.48,320.12Z"/><path class="cls-9" d="M76.55,251.3s7.55,6.77,6.65,13.54c-.66,4.9-2.26,7.14-2.32,10.86-.1,6.07,8,8.46,9.77,10.21,6.44,6.5,7.61,6.8,9.16,11.18s-2.56,11.13-7.4,14.19-10.2,1.91-15.36-2.54c-2-1.75-7.64-10.54-8.66-16.81-1.57-9.65-.35-13.06,1.41-17.31,2.32-5.59,5-5.56,6.75-9.13C79.06,260.2,76.55,251.3,76.55,251.3Z"/><path class="cls-9" d="M91.09,259.29s-5.16,6.73-5.71,12.38,2.94,8,2.3,15.94-4.62,15.24-2.36,16,22-2.37,16.62-13.5-10.26-13.11-11.1-18A46.36,46.36,0,0,1,91.09,259.29Z"/><path class="cls-10" d="M73.72,283.4c.53,8-4.9,7.5-8.82,13.7-4.27,6.75-5.32,12-5.19,15.91.15,4.12,2.72,7.16,5.14,7.16H81.08s2.63-6.85-.57-10.76-6-5.07-4.21-10.69S73.93,283.44,73.72,283.4Z"/><polygon class="cls-7" points="80.05 320.17 128.18 211.09 247.17 208.72 295.65 320.64 80.05 320.17"/><path class="cls-9" d="M134.34,222s-15.78,34.38-23.16,51S90,320.17,90,320.17l83.21,0s-31-75.22-33.12-81.84S134.34,222,134.34,222"/><path class="cls-10" d="M134.34,222s39.35-.63,58.85-.85,48.35-.82,48.35-.82,22,49.78,26.7,62.72S285,320.44,285,320.44s-110.24-.24-113.09-.3S134.34,222,134.34,222Z"/><path class="cls-4" d="M134.58,223.18s-.23,37.7,0,46.52-1.19,36.73-1.1,41.13-.19,7.93.57,9.34h-2.83s.18-8.38,0-12.18.81-41.18,1.63-52.06S134.58,223.18,134.58,223.18Z"/><path class="cls-4" d="M187.56,312.68c-.34,3.75,2.84,5.68,11.72,5.73s13.62-.76,13.82-3.92c.25-3.93-6.38-5.49-12.85-5.81S187.91,308.87,187.56,312.68Z"/><polygon class="cls-11" points="192.99 319.31 204.89 314.79 197.34 309.76 190.49 312.26 192.99 319.31"/><path class="cls-10" d="M171.06,314.29c-.34,3.76,2.84,5.68,11.72,5.73s13.62-.76,13.82-3.92c.25-3.93-6.37-5.49-12.85-5.81S171.41,310.48,171.06,314.29Z"/><g class="cls-12"><polygon class="cls-9" points="172.98 322.34 172.38 322.33 172.76 308.13 173.36 308.14 172.98 322.34"/><rect class="cls-9" x="167.95" y="315.07" width="14.4" height="0.6" transform="translate(-145.64 480.38) rotate(-88.17)"/><rect class="cls-9" x="171.08" y="314.8" width="13.6" height="0.6" transform="translate(-138.73 490.28) rotate(-89.51)"/><rect class="cls-9" x="173.04" y="315.11" width="14.96" height="0.6" transform="translate(-139.15 488.28) rotate(-88.62)"/><rect class="cls-9" x="175.76" y="314.8" width="14.58" height="0.6" transform="translate(-133.26 496.06) rotate(-89.62)"/><rect class="cls-9" x="179.19" y="314.48" width="13.63" height="0.6" transform="translate(-135.91 488.14) rotate(-87.72)"/><rect class="cls-9" x="181.8" y="314.99" width="14.4" height="0.6" transform="translate(-131.8 494.77) rotate(-88.29)"/><rect class="cls-9" x="184.55" y="315.85" width="14.69" height="0.6" transform="translate(-126.62 504.1) rotate(-89.29)"/><rect class="cls-9" x="187.51" y="315.72" width="14.18" height="0.6" transform="translate(-130.99 494.14) rotate(-87.06)"/></g><polygon class="cls-3" points="198.12 300.24 212.09 300.3 211.34 298.14 197.28 297.87 198.12 300.24"/><path class="cls-13" d="M237.19,276.24c-.76-.6-1.51-1.23-2.25-1.87a1,1,0,0,0-.18-1,26.65,26.65,0,0,0-8-5.79,39.77,39.77,0,0,0-3.45-2.38.86.86,0,0,0-1.27.4.83.83,0,0,0-.19.91.87.87,0,0,0,.22.93l.49.43-.11.15-.07-.06s0,0,0,0h0l-.19-.15c-.86-.64-1.9.78-1.12,1.48l.18.17a1.06,1.06,0,0,0-.44.9l-.06-.08a.39.39,0,0,0-.67.4v0a.94.94,0,0,0-.56.41.92.92,0,0,0-.44.78.78.78,0,0,0-.17,1.08,38,38,0,0,0,3.21,3.94,14.59,14.59,0,0,0,2.22,2.15l.13.11h0l.17.14h0l-.06.16a1,1,0,0,0,.26.95l.49.5a1,1,0,0,0,1.37,0l.47.16a1,1,0,0,0,1.32-.34.94.94,0,0,0,1.07-.41,7.68,7.68,0,0,1,.65.47,1,1,0,0,0,1.61-1c0-.19-.09-.39-.14-.58a1,1,0,0,0,1.17-1.19.43.43,0,0,1,0-.11l1.13.84c.71.52,1.58-.34,1.44-1.06a10.43,10.43,0,0,0,1.14.2A1,1,0,0,0,237.19,276.24Z"/><path class="cls-14" d="M224.32,265.78l-.62,1.65-1,10.05s-1.27-1.39-1.68-1.87-1.66-2.08-1.66-2.08l4-8.37Z"/><path class="cls-11" d="M202.14,275.56A20.28,20.28,0,0,0,200,270c-.12-.23.2-.39.37-.27a14,14,0,0,1,2.72,2.17l.22.29a1.23,1.23,0,0,1,1.6.54,9.92,9.92,0,0,1,1.54,4.89c0,1.54-1.3,2.94-2.86,2C202.19,278.86,202.35,276.9,202.14,275.56Z"/><path class="cls-13" d="M197,268.58a5.21,5.21,0,0,1,.2-1.34,110.56,110.56,0,0,1,7.4-9.32,18.81,18.81,0,0,1,2.61-2.42,5.88,5.88,0,0,1,1.27-.89,1.1,1.1,0,0,1,.69-.12c2.51-.92,5.45,1.38,7.55,2.9a40.53,40.53,0,0,1,4.91,3.94c1.22,1.21,3,2.94,3,4.77a2.7,2.7,0,0,1-.13.85,4.2,4.2,0,0,1-.41,1.35,11.4,11.4,0,0,1-2.68,3.55c-.93,1.16-2,2.25-2.95,3.38a27.81,27.81,0,0,1-4.76,4.5,5.13,5.13,0,0,1-5.24.78,67.91,67.91,0,0,1-8.32-6.76C198.93,272.52,196.79,270.47,197,268.58Z"/><path class="cls-4" d="M216,256.88c-.68.6-1.44,1.12-2.13,1.63a33,33,0,0,1-5.62,3.39c-3,1.39-6.49,3.44-10,3.82a16,16,0,0,1,1.53-2.44,55.06,55.06,0,0,1,4.76-5.36,18.81,18.81,0,0,1,2.61-2.42,5.88,5.88,0,0,1,1.27-.89,1.1,1.1,0,0,1,.69-.12C211.41,253.67,214,255.41,216,256.88Z"/><path class="cls-4" d="M213.76,255.16a2.15,2.15,0,0,1,1.75-2.68,3.18,3.18,0,0,1,2.39.58,2.24,2.24,0,0,1,1,1.29,2,2,0,0,1-1.17,2.51,2.92,2.92,0,0,1-1.55.12,2.16,2.16,0,0,1-1-.3A2.66,2.66,0,0,1,213.76,255.16Z"/><path class="cls-4" d="M217.71,253a1.83,1.83,0,0,1,.42-.26c3.32-2.58,8.47-1.72,12.35-1.36a45.44,45.44,0,0,1,7.41,1.3,17.34,17.34,0,0,1,6.14,2.56.32.32,0,0,1,.08.09l.19.05a.35.35,0,0,1,.17.58c-1.47,1.4-4.09,1.8-6,2.24a30.78,30.78,0,0,1-7.82.84,26.76,26.76,0,0,1-7.63-.89,14.38,14.38,0,0,1-4.65-2.67,4.55,4.55,0,0,1-.63-.3A1.28,1.28,0,0,1,217.71,253Z"/><path class="cls-4" d="M212.39,264.61a6.24,6.24,0,0,0,.93.77c.26.19.63.36.79.65a.23.23,0,0,1-.28.33,3.25,3.25,0,0,1-1-.75,3,3,0,0,1-.69-.89C212.12,264.59,212.31,264.52,212.39,264.61Z"/><path class="cls-4" d="M211.92,266.49a8,8,0,0,0,1,.84c.18.13.6.41.33.67s-.69-.18-.89-.34a2.05,2.05,0,0,1-.7-1C211.61,266.53,211.8,266.36,211.92,266.49Z"/><path class="cls-4" d="M210.76,268.51a.17.17,0,0,1,.32-.11,2.39,2.39,0,0,0,.64.67c.19.17.41.29.44.57a.22.22,0,0,1-.21.24c-.32,0-.53-.26-.73-.48A2.11,2.11,0,0,1,210.76,268.51Z"/><path class="cls-4" d="M209.54,270.19a.12.12,0,0,1,.23-.05,2.26,2.26,0,0,0,.19.49c.09.15.22.26.32.4s0,.32-.17.28a.67.67,0,0,1-.44-.44A2.64,2.64,0,0,1,209.54,270.19Z"/><path class="cls-4" d="M207.78,271.66a4.65,4.65,0,0,1-.07-.91.07.07,0,0,1,.13-.05,2.38,2.38,0,0,1,.34.6c.09.24.31.37.4.6a.23.23,0,0,1-.2.3C208.05,272.24,207.86,271.94,207.78,271.66Z"/><path class="cls-4" d="M205.93,271.81a1.52,1.52,0,0,1,0-.67.16.16,0,0,1,.31,0,4.53,4.53,0,0,0,.27.48c.1.17.24.29.19.51a.29.29,0,0,1-.34.24C206.12,272.31,206,272,205.93,271.81Z"/><path class="cls-4" d="M207.36,279.91l-.23-.17-.47-.34.07-.08c.72-.65,1.73-.68,2.18-1.68a3.57,3.57,0,0,0,.24-1.48c0-.31-.06-.46.11-.71a.09.09,0,0,1,.13,0c.34.25.35.79.41,1.18a2.69,2.69,0,0,1-.25,1.58A3.49,3.49,0,0,1,207.36,279.91Z"/><path class="cls-4" d="M203.06,264c1.56-1.46,3.38-3.22,5.6-3.42a.3.3,0,0,1,.21.54c-1.51,1.18-3.18,2.08-4.65,3.32a15.63,15.63,0,0,0-1.59,1.45c-.34.4-.51.95-.89,1.28a.27.27,0,0,1-.33,0C200.48,266.26,202.45,264.59,203.06,264Z"/><path class="cls-7" d="M208.94,268.48a2.19,2.19,0,0,0-1-1.08,2.07,2.07,0,0,0-.45-.27,2.63,2.63,0,0,0-1.41-.24,3.57,3.57,0,0,0-2.25.43,2.51,2.51,0,0,1,.3-.83,6.14,6.14,0,0,1,1.77-2.34c1.51-1.26,4.13-2.34,6.05-1.45a.26.26,0,0,1,.15.26c1.06,2.49.36,4.6-1.57,6.46a8.19,8.19,0,0,1-.89.75A3.66,3.66,0,0,0,208.94,268.48Z"/><path class="cls-4" d="M207.46,271.25a4.38,4.38,0,0,1-2.75-.06.68.68,0,0,1-.44-.36,4.9,4.9,0,0,1-.46-3.25,2.34,2.34,0,0,1,0-.26,3.57,3.57,0,0,1,2.25-.43,2.63,2.63,0,0,1,1.41.24,2.07,2.07,0,0,1,.45.27,2.19,2.19,0,0,1,1,1.08,3.66,3.66,0,0,1,.72,1.69A6.19,6.19,0,0,1,207.46,271.25Z"/><path class="cls-15" d="M235,273.44s19.29,9.87,21.09,25.07-7.28,24.92-19.71,20.18S227,301.84,227,301.84s-9.14-8.51-3.53-23.32C225.62,277.34,235,273.44,235,273.44Z"/><path class="cls-13" d="M223.59,278.25c-.28.73-.51,1.45-.72,2.16,3,.22,8.55-.42,12.62-6.68l-.73-.4S225.71,277.07,223.59,278.25Z"/><path class="cls-13" d="M207.25,290.47s-7.73-.84-8.38,5.67c0,.65.72,1.79,1.3.41.21.73,1,1,1.32,0,.17,1.05,1.2,1,1.45.05.31,1.08,1.28.64,1.38,0s0-3.15.94-2.84,2-3.32,2-3.32"/><path class="cls-11" d="M200.17,296.77l-.22.17a10,10,0,0,1,.89-3.75.22.22,0,0,1,.3-.08.22.22,0,0,1,.09.3,9.92,9.92,0,0,0-.84,3.56l-.22-.2Z"/><path class="cls-11" d="M201.49,296.79l-.24.24a11.82,11.82,0,0,1,.78-3.84.22.22,0,0,1,.3-.1.22.22,0,0,1,.1.3,12.3,12.3,0,0,0-.74,3.69l-.2-.29Z"/><path class="cls-11" d="M202.94,296.83l-.24.25a18.38,18.38,0,0,1,.51-3.88.24.24,0,0,1,.29-.14.22.22,0,0,1,.14.28,16.34,16.34,0,0,0-.51,3.67l-.19-.18Z"/><path class="cls-13" d="M178.69,306.68c.63-3.93,3.86-6.59,11.64-6.48s31.6,1.25,31.6,1.25l-2,16.08S177.37,314.89,178.69,306.68Z"/><path class="cls-4" d="M221.93,301.45l17.17-.22,16.67-4.58s3.91,25.33-14.59,23.27-21.2-2.39-21.2-2.39Z"/><polygon class="cls-4" points="178.25 300.15 198.12 300.24 189.17 274.99 168.62 275.63 178.25 300.15"/><path class="cls-14" d="M239.13,283.39s5.21,5,5.67,16.28l-5.08,1.43-2.33-20.53"/><path class="cls-13" d="M205,292.38a2.29,2.29,0,0,1,2.25-1.91c1.45-.11,32.81-.84,32.78,12.07-14.35-.29-18.74-.16-34.77-8.75C205.1,293.14,205,292.38,205,292.38Z"/><path class="cls-13" d="M234.16,286c1.66.46,5-3.84,6.71,1.66a20.49,20.49,0,0,1-.84,14.91C223,301,228.82,292.42,228.82,292.42a34.84,34.84,0,0,1-.24-3.69C228.53,284.35,229.22,286,234.16,286Z"/><path class="cls-15" d="M228.63,290.11l12.74-.55c-1.4-6.47-5.34-11.4-7.19-11.92a4.39,4.39,0,0,0-1.93.43l-.51.29C228.61,280.45,228.46,286.69,228.63,290.11Z"/><path class="cls-7" d="M189.17,275q1.16,2.82,2.26,5.67c.73,1.89,1.48,3.78,2.18,5.69l2.14,5.7c.71,1.91,1.38,3.82,2.08,5.73l-.25-.17c2.29,0,4.59.12,6.88.21s4.59.19,6.88.32q-3.43.06-6.89.05c-2.29,0-4.59,0-6.88,0h-.19l-.06-.17c-.71-1.91-1.44-3.8-2.12-5.71l-2.07-5.74c-.7-1.91-1.35-3.83-2-5.75S189.8,276.93,189.17,275Z"/><path class="cls-7" d="M303.68,320.27c-1.73-2.51-6.61-2.6-7.21-4.55-.38-1.24,1.44-2,2.88-5.23.57-1.29,2.08-4.7.78-6.53s-4.6.07-7.83-1.82-5-6.47-4.18-10.19c1-4.91,6.25-5.89,6-9.66-.14-2.16-2-3.64-3.91-5.22-5.79-4.7-11.41-3.48-12.28-6.27s4.05-4.74,3.4-7.84c-.87-4.08-10.05-3.81-10.71-7.57-.53-3,5.14-4.84,4.7-8.1-.54-4-9.4-4.29-9.92-8.35-.38-2.93,4-4.26,3.65-7.05-.57-4.35-11.71-4.76-12.09-8.66-.3-3,5.78-6.25,5.16-9-1.47-6.44-12.08-5.23-12.65-6.14-1.93-3.07,1.3-6.23-.53-8.88-1.64-2.38-6.06-2.45-8.88-1.83-6.75,1.48-9.59,8.05-11.75,7.05-1.93-.88-.42-6.47-2.09-7.05-1.37-.48-2.79,3.19-6.53,6-4.87,3.67-12.73,5.19-16.45,2.09-3-2.51-2.35-7.22-3.92-7.31s-1.94,5.05-5.91,7.31c-2.19,1.25-4.45,1-6.62.78-9.58-1.07-11.7-7.45-17.24-6.79-5.92.71-8.54,8.6-11,7.58-2.25-1,.25-7.71-3.13-10.19-3-2.2-8.42.59-8.87.83-6.05,3.19-4.93,8.6-9.67,10.66-5.65,2.46-10.73-3.69-14.37-1-3.47,2.52.09,8.9-3.91,12.79-3.66,3.56-9.91,1.42-10.6,3.69-.63,2.1,4.77,3.72,5.64,8.59a9,9,0,0,1-3.14,8.35c-3.43,2.54-7-.16-9.14,2.09s1.2,5.72-.31,11.3c-1.35,5-4.66,4.59-6,9.4-1.81,6.24,3,9.81.69,13.22-2.6,3.94-10.12,1-12.5,5.32-.86,1.54-.6,3.2-.14,6.19.91,5.81,3.62,7.43,2.61,10-.35.85-.77,1-5.45,3.91-5.7,3.59-6.07,4.06-6.27,4.7-1,3.13,3.57,5.41,3.13,9.14-.19,1.68.44,1.72-4.89,4.19h7.84c.56-1.34,49.8-107.74,49.8-107.74l115.72-2.24,49.1,110.45Z"/></g></svg>