<?xml version="1.0" encoding="UTF-8" standalone="no"?>
<svg
   xmlns:dc="http://purl.org/dc/elements/1.1/"
   xmlns:cc="http://creativecommons.org/ns#"
   xmlns:rdf="http://www.w3.org/1999/02/22-rdf-syntax-ns#"
   xmlns:svg="http://www.w3.org/2000/svg"
   xmlns="http://www.w3.org/2000/svg"
   xmlns:sodipodi="http://sodipodi.sourceforge.net/DTD/sodipodi-0.dtd"
   xmlns:inkscape="http://www.inkscape.org/namespaces/inkscape"
   viewBox="0 0 400.00001 400"
   version="1.1"
   id="svg1569"
   sodipodi:docname="godzilla.svg"
   width="400"
   height="400"
   inkscape:version="0.92.4 (5da689c313, 2019-01-14)">
  <metadata
     id="metadata1573">
    <rdf:RDF>
      <cc:Work
         rdf:about="">
        <dc:format>image/svg+xml</dc:format>
        <dc:type
           rdf:resource="http://purl.org/dc/dcmitype/StillImage" />
        <dc:title>gozilla</dc:title>
      </cc:Work>
    </rdf:RDF>
  </metadata>
  <sodipodi:namedview
     pagecolor="#ffffff"
     bordercolor="#666666"
     borderopacity="1"
     objecttolerance="10"
     gridtolerance="10"
     guidetolerance="10"
     inkscape:pageopacity="0"
     inkscape:pageshadow="2"
     inkscape:window-width="1366"
     inkscape:window-height="671"
     id="namedview1571"
     showgrid="false"
     fit-margin-top="0"
     fit-margin-left="0"
     fit-margin-right="0"
     fit-margin-bottom="0"
     inkscape:zoom="0.54637576"
     inkscape:cx="255.94282"
     inkscape:cy="126.01431"
     inkscape:window-x="0"
     inkscape:window-y="27"
     inkscape:window-maximized="1"
     inkscape:current-layer="svg1569" />
  <defs
     id="defs1366">
    <style
       id="style1356">.cls-1{fill:none;}.cls-2{fill:url(#linear-gradient);}.cls-3{fill:#58595b;}.cls-14,.cls-4{fill:#393a35;}.cls-14,.cls-5,.cls-6{opacity:0.44;}.cls-6,.cls-7{fill:#fff;}.cls-8{fill:#d1d3d4;}.cls-9{fill:#a0a2a5;}.cls-10{fill:#dadbdc;}.cls-11{fill:#7a478b;}.cls-12{clip-path:url(#clip-path);}.cls-13{fill:#9c6bad;}.cls-15{fill:#8f4299;}</style>
    <linearGradient
       id="linear-gradient"
       x1="177.17"
       y1="73.650002"
       x2="178.13"
       y2="219.39999"
       gradientUnits="userSpaceOnUse">
      <stop
         offset="0"
         stop-color="#dadbdc"
         id="stop1358" />
      <stop
         offset="1"
         stop-color="#a0a2a5"
         id="stop1360" />
    </linearGradient>
    <clipPath
       id="clip-path">
      <path
         class="cls-1"
         d="m 161.06,314.29 c -0.34,3.76 2.84,5.68 11.72,5.73 8.88,0.05 13.62,-0.76 13.82,-3.92 0.25,-3.93 -6.37,-5.49 -12.85,-5.81 -6.48,-0.32 -12.34,0.19 -12.69,4 z"
         id="path1363"
         inkscape:connector-curvature="0"
         style="fill:none" />
    </clipPath>
  </defs>
  <title
     id="title1368">gozilla</title>
  <g
     id="Layer_10"
     data-name="Layer 10"
     transform="matrix(1.2677302,0,0,1.2677302,-28.499966,-6.5484109)">
    <path
       class="cls-2"
       d="m 46.31,232.82 c -0.33,26.67 -3.73,37 -18.84,87.32 h 292.1 c 7.86,-40.54 12.88,-63.33 8.36,-98.2 -5.6,-43.14 -23.8,-39.61 -39.73,-92.33 -13.43,-44.43 11.19,-81.94 -14.73,-105.38 -31,-28 -85.36,-17.38 -110,-11.82 -14.37,3.24 -113.39,24.68 -132.6,93 -10.95,38.71 16.33,55.41 15.44,127.41 z"
       id="path1370"
       inkscape:connector-curvature="0"
       style="fill:url(#linear-gradient)" />
    <path
       class="cls-3"
       d="m 310,235.79 c 0.77,-0.27 1,-1.72 2.3,-1.94 0.9,-0.15 3,2.15 3.17,1.06 0.47,-2.63 0.2,-2.31 0.92,-3.86 0.56,-1.21 2.56,-1.7 3.2,-1.07 0.83,0.82 -0.74,3.36 -0.09,3.84 0.47,0.34 1.89,-0.45 2.53,-1.69 0.64,-1.24 0.12,-2.36 0.84,-2.95 a 1.49,1.49 0 0 1 1.94,0.09 c 0.71,0.93 -1.21,2.93 -0.46,4.16 a 1.89,1.89 0 0 0 2.06,0.66 c 0.7,-0.21 1.17,-0.89 2.36,-4 1.19,-3.11 1.32,-4.06 1.94,-4.19 0.93,-0.21 2.22,1.41 2.69,2.94 a 7.44,7.44 0 0 1 -0.84,5.45 c -1.21,2.28 -3.05,3.37 -2.78,3.84 0.27,0.47 1.49,-0.42 3.12,0.17 0.18,0.07 1.42,0.53 1.43,1.17 0,0.92 -2.56,1.15 -2.7,2.32 -0.14,1.17 1.89,1.84 1.69,2.59 -0.2,0.75 -2.86,0.51 -2.95,1.07 -0.09,0.56 2.56,0.81 3.12,2.5 a 3.27,3.27 0 0 1 -1,3.12 3.4,3.4 0 0 1 -5.3,-1.07 c -0.52,-1.42 0.61,-2.6 0,-3.3 -0.61,-0.7 -1.92,-0.24 -2.11,-0.18 -1,0.3 -1.26,0.92 -1.68,0.8 -1,-0.27 -0.65,-3.9 -1.26,-4 -0.61,-0.1 -0.83,3.05 -2.62,3.75 a 3.23,3.23 0 0 1 -3.87,-1.87 c -0.29,-1.14 0.78,-2.2 0.42,-2.59 -0.36,-0.39 -1.83,1.07 -2.86,0.62 -1.55,-0.71 -4.21,-7.08 -3.21,-7.44 z"
       id="path1372"
       inkscape:connector-curvature="0"
       style="fill:#58595b" />
    <path
       class="cls-3"
       d="m 308.4,204.39 c 1,0 1.43,3.3 2.37,3.2 0.94,-0.1 1.34,-2.9 1.67,-4.73 0.38,-2.14 0.4,-3.6 0.69,-3.62 0.46,0 0.52,3.38 1.68,3.62 1.16,0.24 3.05,-2.15 3.07,-4.57 0,-1.88 -1.17,-2.63 -0.71,-4.2 0.33,-1.11 1.35,-2.2 2.23,-2.09 0.88,0.11 1.74,1.85 1.81,3.2 0.09,1.74 -0.89,2.46 -0.42,3.34 a 2.38,2.38 0 0 0 2.93,0.84 c 1.33,-0.86 -0.33,-3.61 1.25,-6.69 0.73,-1.43 2.08,-2.76 2.79,-2.5 1.17,0.43 0,5 1.25,5.43 0.94,0.33 2.11,-2.27 3.2,-2 1.09,0.27 1.78,3.32 0.7,5.43 -0.69,1.35 -1.81,1.73 -1.67,2.65 a 2.15,2.15 0 0 0 1.95,1.53 c 1.33,0.07 1.93,-1.37 2.64,-1.12 0.71,0.25 1,2.32 0.42,3.9 -0.08,0.22 -0.93,2.55 -2.65,2.79 -1.72,0.24 -3.19,-1.8 -3.48,-1.53 -0.29,0.27 2.28,2.55 2.23,5.57 a 5.18,5.18 0 0 1 -1.81,3.89 c -0.75,0.59 -2.36,1.44 -3.2,0.84 -1.27,-0.9 0.76,-4 -0.84,-6.27 -0.91,-1.32 -2.78,-2 -3.48,-1.53 -1.09,0.81 1.35,4.05 -0.12,6.2 a 3.82,3.82 0 0 1 -4.2,1.32 c -2,-0.8 -2.05,-3.92 -2.92,-3.9 -1.18,0 -1.36,5.32 -1.53,5.29 a 13.22,13.22 0 0 1 -1.25,-5.84 3,3 0 0 0 -2.31,-0.92 3.61,3.61 0 0 0 -1.73,0.78 c -1.83,1.2 -2.18,2.05 -2.51,1.95 -1.1,-0.29 0.29,-10.23 1.95,-10.26 z"
       id="path1374"
       inkscape:connector-curvature="0"
       style="fill:#58595b" />
    <path
       class="cls-4"
       d="m 197.45,135.8 c -1.27,-4.6 -5.85,-8.53 -9.74,-8 -1.26,0.17 -3,0.89 -3.2,2 -0.33,2.18 5.88,3.75 5.6,5.74 -0.22,1.55 -4.34,2.94 -8,2.53 -3.11,-0.34 -4.71,-1.85 -6,-0.93 a 3,3 0 0 0 -0.67,3.73 c 0.92,1.39 3.56,1.22 8.81,0.8 a 39.59,39.59 0 0 0 4.27,-0.4 c 0,-0.18 -8,-1.4 -10.94,2.41 -0.81,1 -1.37,2.63 -0.8,3.33 0.77,1 3.49,0 8.27,-1.6 0.43,-0.15 4.55,-1.56 4.54,-1.6 -0.01,-0.04 -8.87,1.74 -9.08,4.8 -0.08,1.18 1.14,2.26 2.14,2.67 2.33,1 3.84,-4.22 8.27,-4.8 1.8,-0.24 2.13,0.47 3.34,0 2.86,-1.13 4.35,-6.48 3.19,-10.68 z"
       id="path1376"
       inkscape:connector-curvature="0"
       style="fill:#393a35" />
    <path
       class="cls-4"
       d="m 191.92,139.93 c 0,-2 0,-2.34 3.32,-2.54 5.28,-0.33 13,4.28 16.44,3.17 2.6,-0.85 4.66,-4.33 4.91,-6.69 0.61,-5.89 -4.13,-8.07 -3.18,-12.84 0.7,-3.47 4.11,-6.73 7.07,-6.63 4.51,0.15 7.94,8.09 8.37,14.14 0.55,7.65 -5.49,19.11 -13.7,21.93 -5.55,1.9 -15.49,-1.23 -21.74,-3.95 -2.66,-1.16 -1.47,-4.74 -1.49,-6.59 z"
       id="path1378"
       inkscape:connector-curvature="0"
       style="fill:#393a35" />
    <path
       class="cls-5"
       d="m 201.3,138.35 c 0,0 -0.73,9.37 -0.29,11 2.75,0.8 5.7,1.3 5.7,1.3 L 203,138.92 Z"
       id="path1380"
       inkscape:connector-curvature="0"
       style="opacity:0.43999999" />
    <path
       class="cls-6"
       d="m 202.28,69.2 c 0.87,0.48 -1.43,3.83 -1.62,10.33 -0.13,4.23 0.77,5.32 0.25,9.43 -0.49,3.78 -1.4,4 -1.86,6.87 -1.16,7.15 3.95,9.5 3.38,15.78 -0.53,5.79 -5,5.37 -6.36,11.61 -1.65,7.75 4.81,10.64 3.16,18.29 -1.28,6 -5.49,5.65 -6.71,12 -0.84,4.43 0.48,8.25 2.72,14.66 2.83,8.14 4.92,9.08 4.3,12.44 -1,5.65 -7.42,5.46 -9.11,10.64 -2.79,8.51 12.08,16.42 9.5,23.84 -2.12,6.13 -14.36,6.79 -17.46,7 -1.43,0.08 -19.11,0.83 -23.71,-8.63 -1.78,-3.64 0,-5.43 3.07,-20.25 1,-5 0.52,-3.33 4.38,-23.82 1.23,-6.57 2.21,-11.49 5.81,-16.77 2.63,-3.88 3.4,-3.13 5.19,-5.94 6.6,-10.34 -3.7,-20.41 2.19,-30.61 3.13,-5.43 7.89,-5.78 9,-12 0.67,-3.65 -0.65,-5.22 0.77,-8.73 1.81,-4.48 4.83,-4 6.39,-8.14 1.56,-4.14 -1,-5.86 0.44,-10.63 1.44,-4.57 5.34,-7.88 6.28,-7.37 z"
       id="path1382"
       inkscape:connector-curvature="0"
       style="opacity:0.43999999;fill:#ffffff" />
    <path
       class="cls-6"
       d="m 201.45,67.72 c -0.09,0.58 1.2,-0.9 1.09,7.64 -0.12,9.29 -0.62,15.14 -1.12,20.7 -0.74,8.41 -3.45,10 -4.12,19 -0.33,4.39 0.23,5.2 0.26,9.62 0.1,15 -6.21,16.75 -7.47,32.31 -0.59,7.27 0.45,11 -1.82,18.82 -1.45,5 -2.21,4.58 -3.09,8.5 -1.6,7.15 0.55,10.08 1.07,21.72 0.33,7.34 0.46,11.06 -1.44,13 -4.51,4.65 -17.2,2.56 -20.69,-3.82 -1.83,-3.35 0.21,-5.46 3.51,-19.51 2.74,-11.65 1.9,-12.62 4.55,-21.32 2.58,-8.51 3.39,-7.63 5.18,-14.61 2.33,-9.09 1,-10.87 3.51,-19.52 2.23,-7.75 3.35,-6.58 5.07,-13.45 2.64,-10.55 -0.2,-12.53 3.16,-19.11 2.19,-4.31 4.61,-5.79 5.44,-10.77 0.54,-3.2 -0.32,-3.41 0.07,-7.53 0.32,-3.32 -0.56,-7.91 2,-15.75 2.39,-7.03 5.39,-9.43 4.84,-5.92 z"
       id="path1384"
       inkscape:connector-curvature="0"
       style="opacity:0.43999999;fill:#ffffff" />
    <path
       class="cls-3"
       d="m 233.74,68.82 c 1.16,-1.09 2.48,-0.81 2.77,-1.64 0.29,-0.83 -1,-1.38 -1.38,-3.16 -0.36,-1.53 0.06,-3.46 1,-3.78 a 1.5,1.5 0 0 1 1.51,0.5 c 0.44,0.57 0,1.15 0.5,1.64 a 1.31,1.31 0 0 0 1.52,0.26 c 0.66,-0.44 0.35,-1.81 0.25,-2.27 -0.32,-1.44 -1,-1.61 -1.13,-2.53 -0.27,-1.69 1.6,-4 3,-3.78 1.16,0.15 1.82,1.92 2.15,2.77 0.92,2.44 0.1,3.75 1.13,4.67 a 2.46,2.46 0 0 0 3,0.13 c 0.42,-0.46 0,-0.94 0.38,-2.52 a 7.15,7.15 0 0 1 0.75,-2 c 0.45,-0.8 0.82,-1.44 1.39,-1.52 0.57,-0.08 1.59,0.67 1.89,1.52 0.8,2.19 -2.34,4.72 -1.76,5.42 0.58,0.7 4.48,-2.12 5.67,-1 0.53,0.49 0.33,1.58 0.13,2.15 -0.88,2.45 -4.51,2.71 -4.42,3.65 0.07,0.64 1.78,1.08 3,1.14 1.8,0.08 2.72,-0.63 3,-0.25 0.28,0.38 -0.46,2.51 -2.15,3.53 -2.43,1.48 -5.11,0 -5.92,1.26 -0.64,1 0.58,2.59 0,3 -0.58,0.41 -1.67,-1 -3.16,-0.76 a 3.49,3.49 0 0 0 -2.14,1.51 c -1.78,2.22 -0.79,4.24 -1.77,4.92 -2.14,1.51 -11.25,-5.12 -10.59,-10 a 4.69,4.69 0 0 1 1.38,-2.86 z"
       id="path1386"
       inkscape:connector-curvature="0"
       style="fill:#58595b" />
    <path
       class="cls-3"
       d="m 259.2,81.44 c 0.52,-0.25 -2.29,-5.77 -1.15,-6.63 1.14,-0.86 4.49,3.52 7.07,2.45 1.75,-0.72 1.75,-3.37 3.17,-3.46 1.42,-0.09 2.12,2.36 3.32,2.16 1.2,-0.2 1.36,-3.14 2.31,-3.17 0.95,-0.03 1.72,2.65 1.87,3.17 0.76,2.53 0.21,3.48 0.87,4 1.66,1.4 7.14,-3 7.64,-2.31 0.5,0.69 -4.32,4.6 -3.6,5.77 0.72,1.17 5.39,-0.69 5.48,-0.43 0.09,0.26 -8.28,2.39 -8.37,5.19 -0.06,2 3.93,3.1 3.61,4.48 -0.39,1.66 -6.39,1 -6.93,2.88 -0.38,1.41 2.57,2.69 2.17,4.33 -0.4,1.64 -4,2.11 -4.47,2.16 a 10.31,10.31 0 0 1 -2,0 15.32,15.32 0 0 1 -4.38,-1.15 c -4.88,-2.15 -14.36,-17.63 -12.41,-19 0.53,-0.39 1.6,0.48 2.31,-0.15 0.91,-0.8 -0.05,-3 0.43,-3.17 0.48,-0.17 2.65,3.09 3.06,2.88 z"
       id="path1388"
       inkscape:connector-curvature="0"
       style="fill:#58595b" />
    <path
       class="cls-3"
       d="m 276.42,110.25 c -0.16,-2.77 0.15,-5.9 1,-6.06 1.05,-0.19 2.63,4 3.18,3.75 0.55,-0.25 -1.13,-4.41 0.29,-5.48 1,-0.78 2.92,0.69 3.46,0 0.54,-0.69 -0.47,-2.43 -1.59,-3.61 -1.12,-1.18 -1.86,-1.24 -1.86,-1.85 a 2.15,2.15 0 0 1 2.45,-1.59 c 1,0.31 0.73,1.79 2.16,3.75 1,1.31 2.37,2.42 2.74,2.16 0.77,-0.52 -3.47,-6.53 -1.87,-8.22 1,-1 3.37,0.48 4.47,-0.72 1.1,-1.2 -0.62,-4.3 0.15,-4.76 0.77,-0.46 2.48,1.24 3.75,2.88 1.84,2.4 1.93,4.19 2.59,4.19 1.47,0 2.53,-8.73 3.32,-8.66 0.6,0.06 0.09,5 1.59,5.48 1.5,0.48 3.52,-3 3.75,-2.88 0.23,0.12 -5.26,8.07 -4.18,9.09 0.81,0.77 4.64,-3.1 6.49,-1.88 a 3,3 0 0 1 0.57,3.61 c -1,1.75 -3.42,0.73 -6.05,2.74 -1.42,1.08 -3,3.09 -2.46,4.33 0.84,2 6.84,1.15 6.93,2 0,0.39 -1.15,0.76 -4.33,2.6 -1.19,0.68 -1.62,1 -1.59,1.29 0.11,0.94 4.25,0.8 4.33,1.59 0.07,0.63 -2.45,1.55 -4.9,2.45 -2,0.72 -2.53,0.81 -2.89,1.45 -0.86,1.55 1.14,3.61 0.43,4.32 -0.42,0.43 -1.92,0 -4.9,-1 -1.45,-0.46 -1.89,-0.66 -2.17,-0.43 -0.59,0.5 1.84,2.47 1.59,5.19 a 3.38,3.38 0 0 1 -1,2.31 c -1.64,1.33 -4.89,-0.28 -5.77,-0.72 -6.41,-3.18 -9.31,-11.27 -9.68,-17.32 z"
       id="path1390"
       inkscape:connector-curvature="0"
       style="fill:#58595b" />
    <path
       class="cls-3"
       d="m 291.4,140.94 c -1.82,-6 -1.18,-8 -0.22,-9.12 0.96,-1.12 3.14,-1.94 4.08,-1.26 0.94,0.68 0.4,3.1 0.7,3.15 0.3,0.05 1,-3.14 2.4,-6.69 1,-2.56 2.54,-5.77 3.19,-5.59 0.65,0.18 -0.38,4.27 0.75,4.76 1.13,0.49 3.82,-3.09 4.63,-4.19 2.95,-4 3.29,-6.43 4.48,-6.41 1.19,0.02 3.08,2.93 2.73,5.68 -0.51,4 -5.24,4.37 -6.49,9.17 -0.44,1.72 -0.66,4.87 1,6.15 2.69,2.1 7.78,-2.89 11.31,-0.57 a 4.26,4.26 0 0 1 1.88,4.19 c -0.54,2.1 -3.74,2.9 -5.18,3.26 -4.35,1.08 -6.14,-0.66 -8.61,0.95 a 5.58,5.58 0 0 0 -2.58,4.28 c 0,2 1.61,2.57 1.46,4 -0.21,1.93 -3.28,4 -5.92,3.79 -5.01,-0.38 -7.65,-9.06 -9.61,-15.55 z"
       id="path1392"
       inkscape:connector-curvature="0"
       style="fill:#58595b" />
    <path
       class="cls-3"
       d="m 322.47,150.24 c 0.71,-0.07 1.52,0.92 1.87,1.87 0.93,2.52 -1.46,4.51 -0.43,6.06 a 2.87,2.87 0 0 0 2.45,1 c 1.57,-0.09 2.35,-1.54 2.74,-1.3 0.39,0.24 0,2.39 -1.3,4 -1.3,1.61 -2.19,1.28 -3.17,2.74 -0.61,0.91 -1.4,2.72 -0.72,3.75 1.23,1.88 6.52,0 6.78,0.87 0.18,0.59 -2.07,2.3 -4,3.32 -0.69,0.36 -1.26,0.58 -1.3,1 -0.09,1 2.72,1.43 2.74,2.45 0.02,1.02 -3,2.78 -5,1.88 -1.86,-0.84 -1.32,-3.25 -3.46,-4.48 -1.74,-1 -4.11,-0.55 -4.33,0.15 -0.28,0.91 3.26,1.84 3.61,4.47 0.12,0.87 -0.08,2.17 -0.87,2.6 -1.71,0.92 -4.64,-3.21 -6.34,-2.31 -0.89,0.47 -1.06,2.1 -0.87,3.17 0.4,2.19 2.43,2.66 2.31,3.9 -0.12,1.24 -2.83,2.67 -5,2.45 -3.07,-0.3 -4.75,-3.92 -6.49,-7.5 a 21.12,21.12 0 0 1 -2.46,-8.66 c -0.15,-3.32 0.47,-8.43 2.31,-8.8 1.05,-0.21 2.39,1.16 5.05,3.9 1.58,1.62 2.14,2.48 2.6,2.31 0.69,-0.27 0.66,-2.73 -0.15,-4.76 -0.67,-1.71 -1.34,-1.69 -1.73,-3 -0.65,-2.25 0.31,-5.35 2.17,-5.92 a 3.33,3.33 0 0 1 2.45,0.43 c 1.41,0.89 1.3,2.39 2,2.46 0.7,0.07 2.09,-1.77 2,-3.61 -0.09,-1.84 -1.26,-2.19 -1,-3.46 0.26,-1.27 2,-2.64 3.17,-2.31 1.49,0.43 1.52,3.46 2.46,3.46 0.67,0.04 0.91,-2.05 1.91,-2.13 z"
       id="path1394"
       inkscape:connector-curvature="0"
       style="fill:#58595b" />
    <path
       class="cls-3"
       d="m 201.59,91.51 c -0.05,-0.27 1.9,-0.76 1.84,-1.19 -0.06,-0.43 -1.62,-0.34 -1.66,-0.71 -0.04,-0.37 2,-0.76 2,-1.39 0,-0.63 -1.76,-0.92 -1.7,-1.37 0.06,-0.45 2.14,-0.54 2.15,-0.88 0.01,-0.34 -1.83,-0.46 -1.87,-1 -0.04,-0.54 2.17,-1 2.1,-1.45 -0.07,-0.45 -1.89,-0.22 -2,-0.64 -0.11,-0.42 2,-1.11 1.88,-1.43 -0.12,-0.32 -1.67,0.08 -1.79,-0.26 -0.12,-0.34 2.18,-1.52 2,-1.85 -0.18,-0.33 -2.1,0.33 -2.21,0.06 -0.11,-0.27 1.89,-1.15 1.76,-1.57 -0.13,-0.42 -1.6,-0.07 -1.7,-0.41 -0.1,-0.34 1.55,-1.07 1.45,-1.34 -0.1,-0.27 -1.56,0.24 -1.76,-0.13 -0.2,-0.37 1.57,-1.81 1.44,-2 -0.13,-0.19 -1.64,1 -1.83,0.77 -0.19,-0.23 0.86,-2.24 1.93,-2.24 2.07,0 4.67,7.46 3.18,13.81 -0.28,1.2 -1,4.41 -3.24,5.16 -0.81,0.38 -1.93,0.26 -1.97,0.06 z"
       id="path1396"
       inkscape:connector-curvature="0"
       style="fill:#58595b" />
    <path
       class="cls-3"
       d="m 192.38,91.47 c 0.21,-0.22 -1.28,-1.81 -1,-2.16 0.28,-0.35 1.67,0.64 1.93,0.33 0.26,-0.31 -1.38,-1.87 -1,-2.45 0.38,-0.58 2.14,0.2 2.35,-0.24 0.21,-0.44 -1.63,-1.75 -1.44,-2.07 0.19,-0.32 1.94,0.66 2.26,0.24 0.32,-0.42 -1.36,-2.21 -1.06,-2.55 0.3,-0.34 1.85,0.91 2.17,0.58 0.32,-0.33 -1.13,-2.17 -0.87,-2.4 0.26,-0.23 1.47,1 1.78,0.81 0.31,-0.19 -1.08,-2.67 -0.77,-2.88 0.31,-0.21 1.72,1.53 2,1.34 0.28,-0.19 -1,-2.14 -0.67,-2.45 0.33,-0.31 1.49,0.88 1.78,0.63 0.29,-0.25 -0.77,-1.88 -0.53,-2.07 0.24,-0.19 1.28,1.14 1.68,0.91 0.4,-0.23 -0.35,-2.56 -0.14,-2.64 0.21,-0.08 0.91,1.85 1.2,1.78 0.29,-0.07 0.55,-2.55 -0.43,-3.18 -1.87,-1.21 -8.62,4 -11,10.68 -0.45,1.25 -1.66,4.61 -0.1,6.59 0.62,0.81 1.7,1.36 1.86,1.2 z"
       id="path1398"
       inkscape:connector-curvature="0"
       style="fill:#58595b" />
    <path
       class="cls-4"
       d="m 215.82,52.27 c 0,0 12.6,4.95 24.91,20.72 7.85,10.06 54.83,12.27 71.94,127 6.88,46.12 7.7,114.4 7.7,114.4 l -1.15,5.77 -130.43,0.24 c 0,0 -3,-94.8 20,-125.12 11,-14.43 3.46,-34.63 3.46,-34.63 0,0 -11.54,-15 -10.1,-35.49 1.44,-20.49 28,-26.93 5.48,-39.43 -6.56,-3.73 8.19,-33.46 8.19,-33.46 z"
       id="path1400"
       inkscape:connector-curvature="0"
       style="fill:#393a35" />
    <path
       class="cls-3"
       d="m 249.1,122.77 c 5.14,-5.27 19.42,1 24.81,12.5 5.39,11.5 3.85,23.66 -4.42,28.08 -8.27,4.42 -18.66,3.08 -23.28,-0.38 -4.62,-3.46 -1.35,-10.77 3.08,-9 4.43,1.77 12.12,3.46 14.23,-2.5 2.11,-5.96 -31.35,-11.39 -14.42,-28.7 z"
       id="path1402"
       inkscape:connector-curvature="0"
       style="fill:#58595b" />
    <path
       class="cls-3"
       d="m 250.23,151.19 c -1.37,-5 -6.32,-9.23 -10.53,-8.66 -1.37,0.19 -3.29,1 -3.46,2.16 -0.36,2.36 6.36,4.06 6,6.21 -0.23,1.68 -4.69,3.18 -8.65,2.74 -3.37,-0.37 -5.1,-2 -6.49,-1 a 3.29,3.29 0 0 0 -0.72,4 c 1,1.5 3.84,1.31 9.52,0.86 a 45.51,45.51 0 0 0 4.61,-0.43 c 0,-0.2 -8.64,-1.52 -11.83,2.6 -0.87,1.13 -1.47,2.85 -0.86,3.61 0.83,1 3.78,0 8.94,-1.74 0.47,-0.16 4.92,-1.69 4.91,-1.73 -0.01,-0.04 -9.59,1.89 -9.81,5.2 -0.09,1.27 1.23,2.44 2.31,2.88 2.52,1 4.15,-4.56 8.94,-5.19 2,-0.26 2.3,0.51 3.61,0 3.16,-1.19 4.76,-6.94 3.51,-11.51 z"
       id="path1404"
       inkscape:connector-curvature="0"
       style="fill:#58595b" />
    <path
       class="cls-5"
       d="m 210.24,64.39 c 0,0 3.5,-5.1 5.43,8.56 0.77,5.43 0.05,14.66 -0.72,18.27 -1.73,-2.69 -7.35,-5.53 -7.35,-5.53 z"
       id="path1406"
       inkscape:connector-curvature="0"
       style="opacity:0.43999999" />
    <path
       class="cls-4"
       d="m 183.75,50.34 c -7.22,10.29 -8.09,20.28 -2.54,24.71 5.55,4.43 4,12.77 4,12.77 l 5.56,3.78 c 0,0 5.38,-14.48 11.36,-17.35 3.08,5 1.84,12.19 0,17.81 l 5.16,0.15 c 0,0 19.24,-32.45 8.9,-39.65 C 214,51 204.53,47.59 196.57,46 c -5.96,-1.23 -9.18,-0.85 -12.82,4.34 z"
       id="path1408"
       inkscape:connector-curvature="0"
       style="fill:#393a35" />
    <path
       class="cls-7"
       d="m 193.7,58.13 c 1.72,0.92 1.76,3.68 1.15,5.39 -0.7,1.95 -2.73,3.87 -4.42,3.46 -2,-0.48 -3.22,-4.1 -1.93,-6.54 0.97,-1.81 3.5,-3.22 5.2,-2.31 z"
       id="path1410"
       inkscape:connector-curvature="0"
       style="fill:#ffffff" />
    <path
       class="cls-4"
       d="m 188.41,60.2 c 0.39,-0.62 2.72,-0.1 4,0.72 1.09,0.71 2.7,2.38 2.36,3 -0.34,0.62 -2.73,0.34 -4,-0.52 -1.17,-0.76 -2.77,-2.6 -2.36,-3.2 z"
       id="path1412"
       inkscape:connector-curvature="0"
       style="fill:#393a35" />
    <path
       class="cls-3"
       d="m 200.62,49.42 c -0.58,-1.89 2.36,-4.57 3.95,-4 1.59,0.57 2.37,4.24 0.77,5.49 -1.34,1.01 -4.23,0.09 -4.72,-1.49 z"
       id="path1414"
       inkscape:connector-curvature="0"
       style="fill:#58595b" />
    <path
       class="cls-4"
       d="m 311.29,221.3 c 0,0 5.95,32 9.52,42.27 a 42.07,42.07 0 0 0 6.83,11.93 l -7.26,39.57 -9.6,4.33 z"
       id="path1416"
       inkscape:connector-curvature="0"
       style="fill:#393a35" />
    <path
       class="cls-3"
       d="m 263.3,212 c 22.72,0.62 52.71,52.71 53.09,108.11 -22.7,0.38 -100,0.38 -100,0.38 0,0 -10.39,-21.16 20,-20.77 C 225.21,279.66 207.13,210.41 263.3,212 Z"
       id="path1418"
       inkscape:connector-curvature="0"
       style="fill:#58595b" />
    <path
       class="cls-3"
       d="m 201.27,25.32 c 0,0 -64.13,19.6 -86,23.79 C 93.4,53.3 27.2,58.77 27.2,58.77 L 26.06,52.84 200.13,19.39 Z"
       id="path1420"
       inkscape:connector-curvature="0"
       style="fill:#58595b" />
    <path
       class="cls-8"
       d="m 25,54.35 c 0,0 54.77,-4.84 90,-11.72 35.07,-6.85 87.53,-22.41 87.53,-22.41 a 0.86,0.86 0 0 0 -0.09,-1.71 L 118.3,11.13 a 1,1 0 0 0 -0.24,0 l -19.14,3.7 a 0.9,0.9 0 0 0 -0.23,0.08 L 24.4,52.73 a 0.87,0.87 0 0 0 0.6,1.62 z"
       id="path1422"
       inkscape:connector-curvature="0"
       style="fill:#d1d3d4" />
    <path
       class="cls-9"
       d="m 203.5,23.21 c 0,0 -56.63,17 -86.46,22.7 C 81.58,52.41 25.2,57.48 25.2,57.48 a 0.87,0.87 0 0 0 0.09,1.72 l 84.47,7.4 a 1,1 0 0 0 0.24,0 l 19.25,-3.7 a 0.9,0.9 0 0 0 0.23,-0.08 l 74.58,-38 a 0.87,0.87 0 0 0 -0.56,-1.61 z"
       id="path1424"
       inkscape:connector-curvature="0"
       style="fill:#a0a2a5" />
    <path
       class="cls-3"
       d="m 98.7,9.07 0.15,6.43 c 0,0 3,0.81 9.92,-0.43 a 33.13,33.13 0 0 0 10.09,-3.48 l -1.93,-5.71 c 0,0 -2.31,-1.48 -9.61,-0.18 -4.06,0.72 -7.91,2.5 -8.62,3.37 z"
       id="path1426"
       inkscape:connector-curvature="0"
       style="fill:#58595b" />
    <path
       class="cls-7"
       d="m 125.06,20.55 c 0,1.07 1.38,1.85 2.84,1.7 1.46,-0.15 3,-1.38 2.74,-2.46 -0.26,-1.08 -2,-1.55 -3.44,-1.18 -1.04,0.27 -2.1,1.05 -2.14,1.94 z"
       id="path1428"
       inkscape:connector-curvature="0"
       style="fill:#ffffff" />
    <path
       class="cls-7"
       d="m 88.33,27.33 c 0,1.07 1.39,1.85 2.84,1.7 1.45,-0.15 3,-1.39 2.74,-2.47 -0.26,-1.08 -2,-1.54 -3.44,-1.17 -1.04,0.27 -2.1,1.05 -2.14,1.94 z"
       id="path1430"
       inkscape:connector-curvature="0"
       style="fill:#ffffff" />
    <path
       class="cls-7"
       d="m 107.68,25.43 c -0.05,1.07 1.39,1.85 2.84,1.7 1.45,-0.15 3,-1.39 2.74,-2.47 -0.26,-1.08 -2,-1.54 -3.44,-1.17 -1.04,0.27 -2.1,1.04 -2.14,1.94 z"
       id="path1432"
       inkscape:connector-curvature="0"
       style="fill:#ffffff" />
    <path
       class="cls-7"
       d="M 144,13.41 139.28,13 a 1.91,1.91 0 0 0 -0.87,1.34 c 0,1.08 1.39,1.85 2.84,1.7 1.45,-0.15 3,-1.38 2.75,-2.46 0,-0.07 0,-0.12 0,-0.17 z"
       id="path1434"
       inkscape:connector-curvature="0"
       style="fill:#ffffff" />
    <path
       class="cls-7"
       d="m 78.37,25.26 -4.69,2.38 a 2.93,2.93 0 0 0 2.59,0.92 c 1.56,-0.17 3,-1.39 2.74,-2.47 a 1.37,1.37 0 0 0 -0.64,-0.83 z"
       id="path1436"
       inkscape:connector-curvature="0"
       style="fill:#ffffff" />
    <polygon
       class="cls-7"
       points="172.06,201.98 136.86,210.34 113.2,69.83 128.2,67.52 "
       id="polygon1438"
       style="fill:#ffffff" />
    <path
       class="cls-7"
       d="m 172.35,208.32 c 1.21,0.16 5.85,-27.87 7.13,-27.69 1,0.13 -1.27,16.35 1.15,16.92 2.42,0.57 8.26,-14.73 9.05,-14.42 0.79,0.31 -5.56,12.3 -1.74,16.16 3.82,3.86 15.42,-2.8 16.73,-0.38 0.79,1.45 -2.84,4.85 -4.23,6.15 a 40.25,40.25 0 0 1 -13.28,8.27 c -20.69,7.46 -31,11.19 -43.09,10.18 -6.08,-0.51 -11.68,-1.06 -16.73,-5.2 -7.54,-6.19 -9.56,-16.86 -8.07,-17.7 1.49,-0.84 7.76,9.44 10.19,8.27 3.18,-1.53 -3.1,-21.38 -1.92,-21.73 0.85,-0.26 3.21,10.25 7.69,10.58 2.15,0.16 4.16,-2.27 8.08,-7.12 5,-6.14 6,-9.27 7.32,-9 3.08,0.55 1.2,18.77 3.84,19.23 2.64,0.46 6.9,-17 9.43,-16.54 2.53,0.46 0.92,18.29 2.49,18.47 1.57,0.18 5,-20 6.17,-19.81 1.17,0.19 -1.34,25.21 -0.21,25.36 z"
       id="path1440"
       inkscape:connector-curvature="0"
       style="fill:#ffffff" />
    <polygon
       class="cls-7"
       points="108.75,178.74 97.77,188.31 103.13,152.2 85.82,159.12 96.59,123.73 79.28,136.81 73.89,177.97 90.44,169.89 92.21,202.15 103.79,193.16 122.37,233.76 "
       id="polygon1442"
       style="fill:#ffffff" />
    <path
       class="cls-3"
       d="m 139.3,93.56 c -6,-1.9 -12.33,4.3 -12.33,4.3 a 11.59,11.59 0 0 0 1.44,-11.07 c -2,-5.71 -11.07,-7.74 -16.42,-7.81 -2.33,0 -9.71,-0.11 -13.4,4.69 -4.32,5.62 -3.46,7.58 -3.46,7.58 0,0 1.19,-1.73 -4.64,-8.27 A 18,18 0 0 0 80.42,77.09 c -5.42,-1 -12,0.64 -15.55,5 C 60,88.24 60,93.73 60,93.73 c 0,0 -1,-0.91 -5.63,-4.25 -4.25,-3 -9.32,-2.64 -11,-2.5 -1.28,0.11 -10,1 -14.38,8.08 -3.32,5.35 -0.46,13.55 3.48,17.42 -3,-1.49 -5.45,1 -6,1.73 -3.24,4 -1.48,10.07 1.49,13.3 1.81,2 7.06,3 10.07,2.36 a 6.75,6.75 0 0 0 -3.6,9.18 c 3.7,7.39 26.53,12.74 32.27,6.83 5.27,-5.43 5.49,-10.93 5.49,-10.93 a 16.74,16.74 0 0 0 7.67,13.5 c 6.3,4.29 17,3 21,-2.3 4.29,-5.72 1.93,-13 1.93,-13 0,0 1.57,9.77 8.35,12.46 6.4,2.54 17.24,-4.22 17.89,-10.95 a 19.87,19.87 0 0 0 -1,-9 c 0,0 7.13,5 12.75,2.13 a 15.84,15.84 0 0 0 8.77,-13.61 c 0.31,-10.87 -3.62,-18.52 -10.25,-20.62 z"
       id="path1444"
       inkscape:connector-curvature="0"
       style="fill:#58595b" />
    <path
       class="cls-3"
       d="m 43.52,312.35 c 3.07,5.84 8.78,7.2 9.81,7.77 H 77 c 3.89,-4.29 5.14,-12.15 2.38,-15.26 -3.21,-3.63 -9.45,1.93 -14.9,-1.72 -5.2,-3.49 0.26,-13.59 -9.89,-17.84 -12.84,-5.37 -13.93,-23.86 -13.93,-23.86 0,0 -5.18,14.67 1.72,29.34 5.04,10.79 -1.87,15.84 1.14,21.57 z"
       id="path1446"
       inkscape:connector-curvature="0"
       style="fill:#58595b" />
    <path
       class="cls-3"
       d="m 84.44,187.11 a 26.38,26.38 0 0 1 -1.51,10.32 c -1,2.89 -2.26,2.7 -4.23,6.77 -1.07,2.21 -1.4,5.41 -1.51,8.71 -0.19,5.74 3.73,6.91 3.93,11.77 0.22,5.45 -4.61,6.55 -7.25,13.54 -2.73,7.19 -2.26,18.29 3.32,21.6 4.59,2.73 11.52,-0.48 15.26,-4.67 5.76,-6.47 4.49,-16 4.08,-19 -0.82,-6.07 -3.45,-11.39 -7.56,-19.67 -2.41,-4.87 -3.4,-6.06 -3.47,-8.86 -0.14,-5.77 3.59,-5.8 2.87,-11.29 -0.54,-4.15 -3.93,-9.22 -3.93,-9.22 z"
       id="path1448"
       inkscape:connector-curvature="0"
       style="fill:#58595b" />
    <path
       class="cls-10"
       d="m 56.77,237.93 a 17.94,17.94 0 0 0 -7.83,10.77 c -2.35,9.58 2.9,11.45 2.11,16.61 -1.15,7.52 -1.59,13.59 -1.13,16.55 a 61,61 0 0 0 5.84,17.93 c 2.88,6.07 4.05,9.3 5.84,10.1 6.75,3 19.2,-11.91 17.32,-19.7 -1.43,-5.94 -10.25,-3.78 -13.69,-12.37 -2.21,-5.51 0.92,-7.66 -1.41,-15.4 -2.1,-7 -7.57,-6.87 -8.84,-14 -0.93,-5.34 1.79,-10.49 1.79,-10.49 z"
       id="path1450"
       inkscape:connector-curvature="0"
       style="fill:#dadbdc" />
    <path
       class="cls-3"
       d="m 73.63,219.3 a 50.22,50.22 0 0 1 -1.21,22.36 c -1.83,6.49 -3.49,6.07 -5.44,12.9 -2,7.11 -0.87,9.82 -1.41,22.35 -0.68,15.79 -2.78,17.71 -0.6,20.86 5.38,7.76 25.19,6.16 29.2,-2.58 2,-4.35 -0.88,-10.78 -6.64,-23.65 -5.58,-12.46 -7.93,-13.26 -8.66,-20 -0.82,-7.51 2.67,-10.36 1.34,-19 A 27.25,27.25 0 0 0 73.63,219.3 Z"
       id="path1452"
       inkscape:connector-curvature="0"
       style="fill:#58595b" />
    <path
       class="cls-10"
       d="m 99,203.72 a 27.49,27.49 0 0 0 -1.68,14.35 c 0.58,4 0.81,6.39 3.17,10.85 1.63,3.08 7.8,14.73 8.26,23 0.56,9.9 -4.85,23.71 -14.1,25.16 -6.66,1 -14.71,-4.45 -15.71,-10.54 -0.86,-5.22 4.08,-7.18 7.25,-17.63 1.3,-4.26 1.83,-5.37 2.57,-13.26 0.69,-7.31 -2.55,-14.17 -0.47,-20.64 C 89.85,210 99,203.72 99,203.72 Z"
       id="path1454"
       inkscape:connector-curvature="0"
       style="fill:#dadbdc" />
    <path
       class="cls-10"
       d="m 67.2,191.62 c 0,0 -9,4.58 -10.4,10.53 -1.23,5.11 1.75,12.08 3,17.15 a 50,50 0 0 1 2.41,18.63 c -0.7,15.46 -9,18.09 -7.08,27.86 1.78,9.17 13.59,18.33 21,16.61 8.57,-2 13.5,-17.87 10.12,-28.38 -3,-9.48 -11.92,-8.51 -15.16,-19 -2.92,-9.5 1.17,-12.9 -2.14,-22.82 -1.51,-4.53 -3.92,-5.47 -4,-10.73 a 26.22,26.22 0 0 1 2.25,-9.85 z"
       id="path1456"
       inkscape:connector-curvature="0"
       style="fill:#dadbdc" />
    <path
       class="cls-3"
       d="m 103.46,205.38 a 30.27,30.27 0 0 1 -0.58,11.29 c -1.57,5.81 -4,9.22 -5.94,14 -2.14,5.12 -2.21,13.56 3.09,19.53 a 11.2,11.2 0 0 0 15.51,1.33 c 3.85,-3.12 5.07,-9.33 3.78,-14 -2.32,-8.47 -11.55,-5.8 -11.76,-12.75 -0.11,-3.46 2,-5 1.17,-9.65 -0.66,-3.87 -5.27,-9.75 -5.27,-9.75 z"
       id="path1458"
       inkscape:connector-curvature="0"
       style="fill:#58595b" />
    <path
       class="cls-10"
       d="m 58.48,320.12 h 60.83 c 10.75,-19.16 7.41,-47.25 -4.2,-55.3 -5.45,-3.78 -13.48,-3.67 -22.21,-3.54 -6.87,0.09 -11.76,0.16 -17.37,2.9 -10.76,5.25 -15.38,16.06 -16.92,19.67 -1.71,4 -6.81,16.43 -2.12,30.95 a 38.14,38.14 0 0 0 1.99,5.32 z"
       id="path1460"
       inkscape:connector-curvature="0"
       style="fill:#dadbdc" />
    <path
       class="cls-9"
       d="m 66.55,251.3 c 0,0 7.55,6.77 6.65,13.54 -0.66,4.9 -2.26,7.14 -2.32,10.86 -0.1,6.07 8,8.46 9.77,10.21 6.44,6.5 7.61,6.8 9.16,11.18 1.55,4.38 -2.56,11.13 -7.4,14.19 -4.84,3.06 -10.2,1.91 -15.36,-2.54 -2,-1.75 -7.64,-10.54 -8.66,-16.81 -1.57,-9.65 -0.35,-13.06 1.41,-17.31 2.32,-5.59 5,-5.56 6.75,-9.13 2.51,-5.29 0,-14.19 0,-14.19 z"
       id="path1462"
       inkscape:connector-curvature="0"
       style="fill:#a0a2a5" />
    <path
       class="cls-9"
       d="m 81.09,259.29 c 0,0 -5.16,6.73 -5.71,12.38 -0.55,5.65 2.94,8 2.3,15.94 -0.64,7.94 -4.62,15.24 -2.36,16 2.26,0.76 22,-2.37 16.62,-13.5 -5.38,-11.13 -10.26,-13.11 -11.1,-18 a 46.36,46.36 0 0 1 0.25,-12.82 z"
       id="path1464"
       inkscape:connector-curvature="0"
       style="fill:#a0a2a5" />
    <path
       class="cls-10"
       d="m 63.72,283.4 c 0.53,8 -4.9,7.5 -8.82,13.7 -4.27,6.75 -5.32,12 -5.19,15.91 0.15,4.12 2.72,7.16 5.14,7.16 h 16.23 c 0,0 2.63,-6.85 -0.57,-10.76 -3.2,-3.91 -6,-5.07 -4.21,-10.69 1.79,-5.62 -2.37,-15.28 -2.58,-15.32 z"
       id="path1466"
       inkscape:connector-curvature="0"
       style="fill:#dadbdc" />
    <polygon
       class="cls-7"
       points="118.18,211.09 237.17,208.72 285.65,320.64 70.05,320.17 "
       id="polygon1468"
       style="fill:#ffffff" />
    <path
       class="cls-9"
       d="m 124.34,222 c 0,0 -15.78,34.38 -23.16,51 C 93.8,289.62 80,320.17 80,320.17 h 83.21 c 0,0 -31,-75.22 -33.12,-81.84 -2.12,-6.62 -5.75,-16.33 -5.75,-16.33"
       id="path1470"
       inkscape:connector-curvature="0"
       style="fill:#a0a2a5" />
    <path
       class="cls-10"
       d="m 124.34,222 c 0,0 39.35,-0.63 58.85,-0.85 19.5,-0.22 48.35,-0.82 48.35,-0.82 0,0 22,49.78 26.7,62.72 4.7,12.94 16.76,37.39 16.76,37.39 0,0 -110.24,-0.24 -113.09,-0.3 C 159.06,320.08 124.34,222 124.34,222 Z"
       id="path1472"
       inkscape:connector-curvature="0"
       style="fill:#dadbdc" />
    <path
       class="cls-4"
       d="m 124.58,223.18 c 0,0 -0.23,37.7 0,46.52 0.23,8.82 -1.19,36.73 -1.1,41.13 0.09,4.4 -0.19,7.93 0.57,9.34 h -2.83 c 0,0 0.18,-8.38 0,-12.18 -0.18,-3.8 0.81,-41.18 1.63,-52.06 0.82,-10.88 1.73,-32.75 1.73,-32.75 z"
       id="path1474"
       inkscape:connector-curvature="0"
       style="fill:#393a35" />
    <path
       class="cls-4"
       d="m 177.56,312.68 c -0.34,3.75 2.84,5.68 11.72,5.73 8.88,0.05 13.62,-0.76 13.82,-3.92 0.25,-3.93 -6.38,-5.49 -12.85,-5.81 -6.47,-0.32 -12.34,0.19 -12.69,4 z"
       id="path1476"
       inkscape:connector-curvature="0"
       style="fill:#393a35" />
    <polygon
       class="cls-11"
       points="194.89,314.79 187.34,309.76 180.49,312.26 182.99,319.31 "
       id="polygon1478"
       style="fill:#7a478b" />
    <path
       class="cls-10"
       d="m 161.06,314.29 c -0.34,3.76 2.84,5.68 11.72,5.73 8.88,0.05 13.62,-0.76 13.82,-3.92 0.25,-3.93 -6.37,-5.49 -12.85,-5.81 -6.48,-0.32 -12.34,0.19 -12.69,4 z"
       id="path1480"
       inkscape:connector-curvature="0"
       style="fill:#dadbdc" />
    <g
       class="cls-12"
       clip-path="url(#clip-path)"
       id="g1500">
      <polygon
         class="cls-9"
         points="162.38,322.33 162.76,308.13 163.36,308.14 162.98,322.34 "
         id="polygon1482"
         style="fill:#a0a2a5" />
      <rect
         class="cls-9"
         x="157.95"
         y="315.07001"
         width="14.4"
         height="0.60000002"
         transform="rotate(-88.17,165.16959,315.3759)"
         id="rect1484"
         style="fill:#a0a2a5" />
      <rect
         class="cls-9"
         x="161.08"
         y="314.79999"
         width="13.6"
         height="0.60000002"
         transform="rotate(-89.51,167.87754,315.10337)"
         id="rect1486"
         style="fill:#a0a2a5" />
      <rect
         class="cls-9"
         x="163.03999"
         y="315.10999"
         width="14.96"
         height="0.60000002"
         transform="rotate(-88.62,170.51531,315.41024)"
         id="rect1488"
         style="fill:#a0a2a5" />
      <rect
         class="cls-9"
         x="165.75999"
         y="314.79999"
         width="14.58"
         height="0.60000002"
         transform="rotate(-89.62,173.0522,315.10142)"
         id="rect1490"
         style="fill:#a0a2a5" />
      <rect
         class="cls-9"
         x="169.19"
         y="314.48001"
         width="13.63"
         height="0.60000002"
         transform="rotate(-87.72,176.02807,314.78435)"
         id="rect1492"
         style="fill:#a0a2a5" />
      <rect
         class="cls-9"
         x="171.8"
         y="314.98999"
         width="14.4"
         height="0.60000002"
         transform="rotate(-88.29,178.9843,315.28369)"
         id="rect1494"
         style="fill:#a0a2a5" />
      <rect
         class="cls-9"
         x="174.55"
         y="315.85001"
         width="14.69"
         height="0.60000002"
         transform="rotate(-89.29,181.88053,316.15103)"
         id="rect1496"
         style="fill:#a0a2a5" />
      <rect
         class="cls-9"
         x="177.50999"
         y="315.72"
         width="14.18"
         height="0.60000002"
         transform="rotate(-87.06,184.58647,316.01494)"
         id="rect1498"
         style="fill:#a0a2a5" />
    </g>
    <polygon
       class="cls-3"
       points="202.09,300.3 201.34,298.14 187.28,297.87 188.12,300.24 "
       id="polygon1502"
       style="fill:#58595b" />
    <path
       class="cls-13"
       d="m 227.19,276.24 c -0.76,-0.6 -1.51,-1.23 -2.25,-1.87 a 1,1 0 0 0 -0.18,-1 26.65,26.65 0 0 0 -8,-5.79 39.77,39.77 0 0 0 -3.45,-2.38 0.86,0.86 0 0 0 -1.27,0.4 0.83,0.83 0 0 0 -0.19,0.91 0.87,0.87 0 0 0 0.22,0.93 l 0.49,0.43 -0.11,0.15 -0.07,-0.06 c 0,0 0,0 0,0 v 0 l -0.19,-0.15 c -0.86,-0.64 -1.9,0.78 -1.12,1.48 l 0.18,0.17 a 1.06,1.06 0 0 0 -0.44,0.9 l -0.06,-0.08 a 0.39016022,0.39016022 0 0 0 -0.67,0.4 v 0 a 0.94,0.94 0 0 0 -0.56,0.41 0.92,0.92 0 0 0 -0.44,0.78 0.78,0.78 0 0 0 -0.17,1.08 38,38 0 0 0 3.21,3.94 14.59,14.59 0 0 0 2.22,2.15 l 0.13,0.11 v 0 l 0.17,0.14 v 0 l -0.06,0.16 a 1,1 0 0 0 0.26,0.95 l 0.49,0.5 a 1,1 0 0 0 1.37,0 l 0.47,0.16 a 1,1 0 0 0 1.32,-0.34 0.94,0.94 0 0 0 1.07,-0.41 7.68,7.68 0 0 1 0.65,0.47 1,1 0 0 0 1.61,-1 c 0,-0.19 -0.09,-0.39 -0.14,-0.58 a 1,1 0 0 0 1.17,-1.19 0.43,0.43 0 0 1 0,-0.11 l 1.13,0.84 c 0.71,0.52 1.58,-0.34 1.44,-1.06 a 10.43,10.43 0 0 0 1.14,0.2 1,1 0 0 0 0.63,-1.64 z"
       id="path1504"
       inkscape:connector-curvature="0"
       style="fill:#9c6bad" />
    <path
       class="cls-14"
       d="m 214.32,265.78 -0.62,1.65 -1,10.05 c 0,0 -1.27,-1.39 -1.68,-1.87 -0.41,-0.48 -1.66,-2.08 -1.66,-2.08 l 4,-8.37 z"
       id="path1506"
       inkscape:connector-curvature="0"
       style="opacity:0.43999999;fill:#393a35" />
    <path
       class="cls-11"
       d="M 192.14,275.56 A 20.28,20.28 0 0 0 190,270 c -0.12,-0.23 0.2,-0.39 0.37,-0.27 a 14,14 0 0 1 2.72,2.17 l 0.22,0.29 a 1.23,1.23 0 0 1 1.6,0.54 9.92,9.92 0 0 1 1.54,4.89 c 0,1.54 -1.3,2.94 -2.86,2 -1.4,-0.76 -1.24,-2.72 -1.45,-4.06 z"
       id="path1508"
       inkscape:connector-curvature="0"
       style="fill:#7a478b" />
    <path
       class="cls-13"
       d="m 187,268.58 a 5.21,5.21 0 0 1 0.2,-1.34 110.56,110.56 0 0 1 7.4,-9.32 18.81,18.81 0 0 1 2.61,-2.42 5.88,5.88 0 0 1 1.27,-0.89 1.1,1.1 0 0 1 0.69,-0.12 c 2.51,-0.92 5.45,1.38 7.55,2.9 a 40.53,40.53 0 0 1 4.91,3.94 c 1.22,1.21 3,2.94 3,4.77 a 2.7,2.7 0 0 1 -0.13,0.85 4.2,4.2 0 0 1 -0.41,1.35 11.4,11.4 0 0 1 -2.68,3.55 c -0.93,1.16 -2,2.25 -2.95,3.38 a 27.81,27.81 0 0 1 -4.76,4.5 5.13,5.13 0 0 1 -5.24,0.78 67.91,67.91 0 0 1 -8.32,-6.76 c -1.21,-1.23 -3.35,-3.28 -3.14,-5.17 z"
       id="path1510"
       inkscape:connector-curvature="0"
       style="fill:#9c6bad" />
    <path
       class="cls-4"
       d="m 206,256.88 c -0.68,0.6 -1.44,1.12 -2.13,1.63 a 33,33 0 0 1 -5.62,3.39 c -3,1.39 -6.49,3.44 -10,3.82 a 16,16 0 0 1 1.53,-2.44 55.06,55.06 0 0 1 4.76,-5.36 18.81,18.81 0 0 1 2.61,-2.42 5.88,5.88 0 0 1 1.27,-0.89 1.1,1.1 0 0 1 0.69,-0.12 c 2.3,-0.82 4.89,0.92 6.89,2.39 z"
       id="path1512"
       inkscape:connector-curvature="0"
       style="fill:#393a35" />
    <path
       class="cls-4"
       d="m 203.76,255.16 a 2.15,2.15 0 0 1 1.75,-2.68 3.18,3.18 0 0 1 2.39,0.58 2.24,2.24 0 0 1 1,1.29 2,2 0 0 1 -1.17,2.51 2.92,2.92 0 0 1 -1.55,0.12 2.16,2.16 0 0 1 -1,-0.3 2.66,2.66 0 0 1 -1.42,-1.52 z"
       id="path1514"
       inkscape:connector-curvature="0"
       style="fill:#393a35" />
    <path
       class="cls-4"
       d="m 207.71,253 a 1.83,1.83 0 0 1 0.42,-0.26 c 3.32,-2.58 8.47,-1.72 12.35,-1.36 a 45.44,45.44 0 0 1 7.41,1.3 17.34,17.34 0 0 1 6.14,2.56 0.32,0.32 0 0 1 0.08,0.09 l 0.19,0.05 a 0.35,0.35 0 0 1 0.17,0.58 c -1.47,1.4 -4.09,1.8 -6,2.24 a 30.78,30.78 0 0 1 -7.82,0.84 26.76,26.76 0 0 1 -7.63,-0.89 14.38,14.38 0 0 1 -4.65,-2.67 4.55,4.55 0 0 1 -0.63,-0.3 1.28,1.28 0 0 1 -0.03,-2.18 z"
       id="path1516"
       inkscape:connector-curvature="0"
       style="fill:#393a35" />
    <path
       class="cls-4"
       d="m 202.39,264.61 a 6.24,6.24 0 0 0 0.93,0.77 c 0.26,0.19 0.63,0.36 0.79,0.65 a 0.23,0.23 0 0 1 -0.28,0.33 3.25,3.25 0 0 1 -1,-0.75 3,3 0 0 1 -0.69,-0.89 c -0.02,-0.13 0.17,-0.2 0.25,-0.11 z"
       id="path1518"
       inkscape:connector-curvature="0"
       style="fill:#393a35" />
    <path
       class="cls-4"
       d="m 201.92,266.49 a 8,8 0 0 0 1,0.84 c 0.18,0.13 0.6,0.41 0.33,0.67 -0.27,0.26 -0.69,-0.18 -0.89,-0.34 a 2.05,2.05 0 0 1 -0.7,-1 c -0.05,-0.13 0.14,-0.3 0.26,-0.17 z"
       id="path1520"
       inkscape:connector-curvature="0"
       style="fill:#393a35" />
    <path
       class="cls-4"
       d="m 200.76,268.51 a 0.17,0.17 0 0 1 0.32,-0.11 2.39,2.39 0 0 0 0.64,0.67 c 0.19,0.17 0.41,0.29 0.44,0.57 a 0.22,0.22 0 0 1 -0.21,0.24 c -0.32,0 -0.53,-0.26 -0.73,-0.48 a 2.11,2.11 0 0 1 -0.46,-0.89 z"
       id="path1522"
       inkscape:connector-curvature="0"
       style="fill:#393a35" />
    <path
       class="cls-4"
       d="m 199.54,270.19 a 0.12,0.12 0 0 1 0.23,-0.05 2.26,2.26 0 0 0 0.19,0.49 c 0.09,0.15 0.22,0.26 0.32,0.4 0.1,0.14 0,0.32 -0.17,0.28 a 0.67,0.67 0 0 1 -0.44,-0.44 2.64,2.64 0 0 1 -0.13,-0.68 z"
       id="path1524"
       inkscape:connector-curvature="0"
       style="fill:#393a35" />
    <path
       class="cls-4"
       d="m 197.78,271.66 a 4.65,4.65 0 0 1 -0.07,-0.91 0.07,0.07 0 0 1 0.13,-0.05 2.38,2.38 0 0 1 0.34,0.6 c 0.09,0.24 0.31,0.37 0.4,0.6 a 0.23,0.23 0 0 1 -0.2,0.3 c -0.33,0.04 -0.52,-0.26 -0.6,-0.54 z"
       id="path1526"
       inkscape:connector-curvature="0"
       style="fill:#393a35" />
    <path
       class="cls-4"
       d="m 195.93,271.81 a 1.52,1.52 0 0 1 0,-0.67 0.16,0.16 0 0 1 0.31,0 4.53,4.53 0 0 0 0.27,0.48 c 0.1,0.17 0.24,0.29 0.19,0.51 a 0.29,0.29 0 0 1 -0.34,0.24 c -0.24,-0.06 -0.36,-0.37 -0.43,-0.56 z"
       id="path1528"
       inkscape:connector-curvature="0"
       style="fill:#393a35" />
    <path
       class="cls-4"
       d="m 197.36,279.91 -0.23,-0.17 -0.47,-0.34 0.07,-0.08 c 0.72,-0.65 1.73,-0.68 2.18,-1.68 a 3.57,3.57 0 0 0 0.24,-1.48 c 0,-0.31 -0.06,-0.46 0.11,-0.71 a 0.09,0.09 0 0 1 0.13,0 c 0.34,0.25 0.35,0.79 0.41,1.18 a 2.69,2.69 0 0 1 -0.25,1.58 3.49,3.49 0 0 1 -2.19,1.7 z"
       id="path1530"
       inkscape:connector-curvature="0"
       style="fill:#393a35" />
    <path
       class="cls-4"
       d="m 193.06,264 c 1.56,-1.46 3.38,-3.22 5.6,-3.42 a 0.3,0.3 0 0 1 0.21,0.54 c -1.51,1.18 -3.18,2.08 -4.65,3.32 a 15.63,15.63 0 0 0 -1.59,1.45 c -0.34,0.4 -0.51,0.95 -0.89,1.28 a 0.27,0.27 0 0 1 -0.33,0 c -0.93,-0.91 1.04,-2.58 1.65,-3.17 z"
       id="path1532"
       inkscape:connector-curvature="0"
       style="fill:#393a35" />
    <path
       class="cls-7"
       d="m 198.94,268.48 a 2.19,2.19 0 0 0 -1,-1.08 2.07,2.07 0 0 0 -0.45,-0.27 2.63,2.63 0 0 0 -1.41,-0.24 3.57,3.57 0 0 0 -2.25,0.43 2.51,2.51 0 0 1 0.3,-0.83 6.14,6.14 0 0 1 1.77,-2.34 c 1.51,-1.26 4.13,-2.34 6.05,-1.45 a 0.26,0.26 0 0 1 0.15,0.26 c 1.06,2.49 0.36,4.6 -1.57,6.46 a 8.19,8.19 0 0 1 -0.89,0.75 3.66,3.66 0 0 0 -0.7,-1.69 z"
       id="path1534"
       inkscape:connector-curvature="0"
       style="fill:#ffffff" />
    <path
       class="cls-4"
       d="m 197.46,271.25 a 4.38,4.38 0 0 1 -2.75,-0.06 0.68,0.68 0 0 1 -0.44,-0.36 4.9,4.9 0 0 1 -0.46,-3.25 2.34,2.34 0 0 1 0,-0.26 3.57,3.57 0 0 1 2.25,-0.43 2.63,2.63 0 0 1 1.41,0.24 2.07,2.07 0 0 1 0.45,0.27 2.19,2.19 0 0 1 1,1.08 3.66,3.66 0 0 1 0.72,1.69 6.19,6.19 0 0 1 -2.18,1.08 z"
       id="path1536"
       inkscape:connector-curvature="0"
       style="fill:#393a35" />
    <path
       class="cls-15"
       d="m 225,273.44 c 0,0 19.29,9.87 21.09,25.07 1.8,15.2 -7.28,24.92 -19.71,20.18 -12.43,-4.74 -9.38,-16.85 -9.38,-16.85 0,0 -9.14,-8.51 -3.53,-23.32 2.15,-1.18 11.53,-5.08 11.53,-5.08 z"
       id="path1538"
       inkscape:connector-curvature="0"
       style="fill:#8f4299" />
    <path
       class="cls-13"
       d="m 213.59,278.25 c -0.28,0.73 -0.51,1.45 -0.72,2.16 3,0.22 8.55,-0.42 12.62,-6.68 l -0.73,-0.4 c 0,0 -9.05,3.74 -11.17,4.92 z"
       id="path1540"
       inkscape:connector-curvature="0"
       style="fill:#9c6bad" />
    <path
       class="cls-13"
       d="m 197.25,290.47 c 0,0 -7.73,-0.84 -8.38,5.67 0,0.65 0.72,1.79 1.3,0.41 0.21,0.73 1,1 1.32,0 0.17,1.05 1.2,1 1.45,0.05 0.31,1.08 1.28,0.64 1.38,0 0.1,-0.64 0,-3.15 0.94,-2.84 0.94,0.31 2,-3.32 2,-3.32"
       id="path1542"
       inkscape:connector-curvature="0"
       style="fill:#9c6bad" />
    <path
       class="cls-11"
       d="m 190.17,296.77 -0.22,0.17 a 10,10 0 0 1 0.89,-3.75 0.22,0.22 0 0 1 0.3,-0.08 0.22,0.22 0 0 1 0.09,0.3 9.92,9.92 0 0 0 -0.84,3.56 z"
       id="path1544"
       inkscape:connector-curvature="0"
       style="fill:#7a478b" />
    <path
       class="cls-11"
       d="m 191.49,296.79 -0.24,0.24 a 11.82,11.82 0 0 1 0.78,-3.84 0.22,0.22 0 0 1 0.3,-0.1 0.22,0.22 0 0 1 0.1,0.3 12.3,12.3 0 0 0 -0.74,3.69 z"
       id="path1546"
       inkscape:connector-curvature="0"
       style="fill:#7a478b" />
    <path
       class="cls-11"
       d="m 192.94,296.83 -0.24,0.25 a 18.38,18.38 0 0 1 0.51,-3.88 0.24,0.24 0 0 1 0.29,-0.14 0.22,0.22 0 0 1 0.14,0.28 16.34,16.34 0 0 0 -0.51,3.67 z"
       id="path1548"
       inkscape:connector-curvature="0"
       style="fill:#7a478b" />
    <path
       class="cls-13"
       d="m 168.69,306.68 c 0.63,-3.93 3.86,-6.59 11.64,-6.48 7.78,0.11 31.6,1.25 31.6,1.25 l -2,16.08 c 0,0 -42.56,-2.64 -41.24,-10.85 z"
       id="path1550"
       inkscape:connector-curvature="0"
       style="fill:#9c6bad" />
    <path
       class="cls-4"
       d="m 211.93,301.45 17.17,-0.22 16.67,-4.58 c 0,0 3.91,25.33 -14.59,23.27 -18.5,-2.06 -21.2,-2.39 -21.2,-2.39 z"
       id="path1552"
       inkscape:connector-curvature="0"
       style="fill:#393a35" />
    <polygon
       class="cls-4"
       points="188.12,300.24 179.17,274.99 158.62,275.63 168.25,300.15 "
       id="polygon1554"
       style="fill:#393a35" />
    <path
       class="cls-14"
       d="m 229.13,283.39 c 0,0 5.21,5 5.67,16.28 l -5.08,1.43 -2.33,-20.53"
       id="path1556"
       inkscape:connector-curvature="0"
       style="opacity:0.43999999;fill:#393a35" />
    <path
       class="cls-13"
       d="m 195,292.38 a 2.29,2.29 0 0 1 2.25,-1.91 c 1.45,-0.11 32.81,-0.84 32.78,12.07 -14.35,-0.29 -18.74,-0.16 -34.77,-8.75 -0.16,-0.65 -0.26,-1.41 -0.26,-1.41 z"
       id="path1558"
       inkscape:connector-curvature="0"
       style="fill:#9c6bad" />
    <path
       class="cls-13"
       d="m 224.16,286 c 1.66,0.46 5,-3.84 6.71,1.66 a 20.49,20.49 0 0 1 -0.84,14.91 C 213,301 218.82,292.42 218.82,292.42 a 34.84,34.84 0 0 1 -0.24,-3.69 c -0.05,-4.38 0.64,-2.73 5.58,-2.73 z"
       id="path1560"
       inkscape:connector-curvature="0"
       style="fill:#9c6bad" />
    <path
       class="cls-15"
       d="m 218.63,290.11 12.74,-0.55 c -1.4,-6.47 -5.34,-11.4 -7.19,-11.92 a 4.39,4.39 0 0 0 -1.93,0.43 l -0.51,0.29 c -3.13,2.09 -3.28,8.33 -3.11,11.75 z"
       id="path1562"
       inkscape:connector-curvature="0"
       style="fill:#8f4299" />
    <path
       class="cls-7"
       d="m 179.17,275 q 1.16,2.82 2.26,5.67 c 0.73,1.89 1.48,3.78 2.18,5.69 l 2.14,5.7 c 0.71,1.91 1.38,3.82 2.08,5.73 l -0.25,-0.17 c 2.29,0 4.59,0.12 6.88,0.21 2.29,0.09 4.59,0.19 6.88,0.32 q -3.43,0.06 -6.89,0.05 c -2.29,0 -4.59,0 -6.88,0 h -0.19 l -0.06,-0.17 c -0.71,-1.91 -1.44,-3.8 -2.12,-5.71 l -2.07,-5.74 c -0.7,-1.91 -1.35,-3.83 -2,-5.75 -0.65,-1.92 -1.33,-3.9 -1.96,-5.83 z"
       id="path1564"
       inkscape:connector-curvature="0"
       style="fill:#ffffff" />
    <path
       class="cls-7"
       d="m 293.68,320.27 c -1.73,-2.51 -6.61,-2.6 -7.21,-4.55 -0.38,-1.24 1.44,-2 2.88,-5.23 0.57,-1.29 2.08,-4.7 0.78,-6.53 -1.3,-1.83 -4.6,0.07 -7.83,-1.82 -3.23,-1.89 -5,-6.47 -4.18,-10.19 1,-4.91 6.25,-5.89 6,-9.66 -0.14,-2.16 -2,-3.64 -3.91,-5.22 -5.79,-4.7 -11.41,-3.48 -12.28,-6.27 -0.87,-2.79 4.05,-4.74 3.4,-7.84 -0.87,-4.08 -10.05,-3.81 -10.71,-7.57 -0.53,-3 5.14,-4.84 4.7,-8.1 -0.54,-4 -9.4,-4.29 -9.92,-8.35 -0.38,-2.93 4,-4.26 3.65,-7.05 -0.57,-4.35 -11.71,-4.76 -12.09,-8.66 -0.3,-3 5.78,-6.25 5.16,-9 -1.47,-6.44 -12.08,-5.23 -12.65,-6.14 -1.93,-3.07 1.3,-6.23 -0.53,-8.88 -1.64,-2.38 -6.06,-2.45 -8.88,-1.83 -6.75,1.48 -9.59,8.05 -11.75,7.05 -1.93,-0.88 -0.42,-6.47 -2.09,-7.05 -1.37,-0.48 -2.79,3.19 -6.53,6 -4.87,3.67 -12.73,5.19 -16.45,2.09 -3,-2.51 -2.35,-7.22 -3.92,-7.31 -1.57,-0.09 -1.94,5.05 -5.91,7.31 -2.19,1.25 -4.45,1 -6.62,0.78 -9.58,-1.07 -11.7,-7.45 -17.24,-6.79 -5.92,0.71 -8.54,8.6 -11,7.58 -2.25,-1 0.25,-7.71 -3.13,-10.19 -3,-2.2 -8.42,0.59 -8.87,0.83 -6.05,3.19 -4.93,8.6 -9.67,10.66 -5.65,2.46 -10.73,-3.69 -14.37,-1 -3.47,2.52 0.09,8.9 -3.91,12.79 -3.66,3.56 -9.91,1.42 -10.6,3.69 -0.63,2.1 4.77,3.72 5.64,8.59 a 9,9 0 0 1 -3.14,8.35 c -3.43,2.54 -7,-0.16 -9.14,2.09 -2.14,2.25 1.2,5.72 -0.31,11.3 -1.35,5 -4.66,4.59 -6,9.4 -1.81,6.24 3,9.81 0.69,13.22 -2.6,3.94 -10.12,1 -12.5,5.32 -0.86,1.54 -0.6,3.2 -0.14,6.19 0.91,5.81 3.62,7.43 2.61,10 -0.35,0.85 -0.77,1 -5.45,3.91 -5.7,3.59 -6.07,4.06 -6.27,4.7 -1,3.13 3.57,5.41 3.13,9.14 -0.19,1.68 0.44,1.72 -4.89,4.19 h 7.84 c 0.56,-1.34 49.8,-107.74 49.8,-107.74 l 115.72,-2.24 49.1,110.45 z"
       id="path1566"
       inkscape:connector-curvature="0"
       style="fill:#ffffff" />
  </g>
</svg>
