<?xml version="1.0" encoding="UTF-8" standalone="no"?>
<svg
   xmlns:dc="http://purl.org/dc/elements/1.1/"
   xmlns:cc="http://creativecommons.org/ns#"
   xmlns:rdf="http://www.w3.org/1999/02/22-rdf-syntax-ns#"
   xmlns:svg="http://www.w3.org/2000/svg"
   xmlns="http://www.w3.org/2000/svg"
   xmlns:sodipodi="http://sodipodi.sourceforge.net/DTD/sodipodi-0.dtd"
   xmlns:inkscape="http://www.inkscape.org/namespaces/inkscape"
   viewBox="0 0 333.62854 173.71007"
   version="1.1"
   id="svg12393"
   sodipodi:docname="online-privacy.svg"
   width="333.62854"
   height="173.71007"
   inkscape:version="0.92.4 (5da689c313, 2019-01-14)">
  <metadata
     id="metadata12397">
    <rdf:RDF>
      <cc:Work
         rdf:about="">
        <dc:format>image/svg+xml</dc:format>
        <dc:type
           rdf:resource="http://purl.org/dc/dcmitype/StillImage" />
        <dc:title>tails_3.2_walkietalkies</dc:title>
      </cc:Work>
    </rdf:RDF>
  </metadata>
  <sodipodi:namedview
     pagecolor="#ffffff"
     bordercolor="#666666"
     borderopacity="1"
     objecttolerance="10"
     gridtolerance="10"
     guidetolerance="10"
     inkscape:pageopacity="0"
     inkscape:pageshadow="2"
     inkscape:window-width="1680"
     inkscape:window-height="953"
     id="namedview12395"
     showgrid="false"
     fit-margin-top="0"
     fit-margin-left="0"
     fit-margin-right="0"
     fit-margin-bottom="0"
     inkscape:zoom="1.2727922"
     inkscape:cx="244.48456"
     inkscape:cy="182.04456"
     inkscape:window-x="0"
     inkscape:window-y="27"
     inkscape:window-maximized="1"
     inkscape:current-layer="svg12393" />
  <defs
     id="defs11890">
    <style
       id="style11888">.cls-1{fill:#dadbdc;}.cls-2{fill:#fff;}.cls-3{fill:#af97c7;}.cls-4{fill:#9c6bad;}.cls-5,.cls-9{fill:#393a35;}.cls-10,.cls-6{fill:#7a478b;}.cls-13,.cls-6,.cls-9{opacity:0.44;}.cls-7{fill:#b5b7b9;}.cls-8{fill:#58595b;}.cls-11{fill:#a0a2a5;}.cls-12{fill:none;}</style>
  </defs>
  <title
     id="title11892">tails_3.2_walkietalkies</title>
  <path
     style="fill:#dadbdc"
     inkscape:connector-curvature="0"
     id="path11896"
     d="m 152.24458,15.387683 c -8,-2.26 -59.920003,-21.1300004 -87.790003,-13.6400004 -27.87,7.49 -49.69,23.5000004 -58.9399996,51.0000004 -9.25,27.5 -9.94,91.489997 22.5299996,108.669997 22.83,12.06 217.130003,12.89 253.080003,12.06 35.95,-0.83 51.81,-13 52.47,-31.93 0.68,-18.75 -8.81,-46.079997 -32.59,-62.999997 -52.07,-37.07 -148.76,-63.16 -148.76,-63.16 z"
     class="cls-1" />
  <path
     style="fill:#ffffff"
     inkscape:connector-curvature="0"
     id="path11903"
     d="m 130.43458,164.22768 h 12.5 c 0.15,-2.12 0.76,-6.18 3.13,-8.7 a 2.14,2.14 0 0 0 -3.11,-2.93 17.49,17.49 0 0 0 -4,9.23 83.9,83.9 0 0 0 -0.21,-8.92 2.14,2.14 0 0 0 -4.24,0.54 88.07,88.07 0 0 1 0.16,9.15 c -0.21,-2.78 -0.89,-6.8 -3,-9.57 a 2.14,2.14 0 1 0 -3.4,2.59 c 1.67,2.22 2.11,6.21 2.17,8.61 z"
     class="cls-2" />
  <path
     style="fill:#ffffff"
     inkscape:connector-curvature="0"
     id="path11907"
     d="m 29.564577,100.89768 a 2.13,2.13 0 0 0 -3,0.09 16.92,16.92 0 0 0 -3.87,8.25 c 0,0.2 0,0.41 0,0.62 -0.31,-2.67 -1.06,-6 -2.89,-8.44 a 2.14,2.14 0 1 0 -3.4,2.59 c 1.69,2.22 2.14,6.21 2.2,8.61 h 8 c 0.16,-2.12 0.77,-6.18 3.13,-8.7 a 2.13,2.13 0 0 0 -0.17,-3.02 z"
     class="cls-2" />
  <path
     style="fill:#ffffff"
     inkscape:connector-curvature="0"
     id="path11909"
     d="m 74.474577,78.417683 a 2.13,2.13 0 0 0 -3,0.09 16.74,16.74 0 0 0 -3.86,8.24 l -0.06,0.62 c -0.3,-2.67 -1.06,-6 -2.89,-8.43 a 2.1340337,2.1340337 0 0 0 -3.4,2.58 c 1.69,2.22 2.15,6.22 2.21,8.62 h 8 c 0.16,-2.12 0.77,-6.19 3.14,-8.71 a 2.13,2.13 0 0 0 -0.14,-3.01 z"
     class="cls-2" />
  <path
     style="fill:#ffffff"
     inkscape:connector-curvature="0"
     id="path11911"
     d="m 29.454577,53.287683 h 12.48 c 0.15,-2.12 0.76,-6.18 3.13,-8.7 a 2.1437001,2.1437001 0 0 0 -3.13,-2.93 17.59,17.59 0 0 0 -4,9.23 81.6,81.6 0 0 0 -0.2,-8.92 2.14,2.14 0 0 0 -4.24,0.54 88.21,88.21 0 0 1 0.16,9.16 c -0.21,-2.79 -0.89,-6.81 -3,-9.58 a 2.1330846,2.1330846 0 0 0 -3.39,2.59 c 1.67,2.22 2.13,6.21 2.19,8.61 z"
     class="cls-2" />
  <path
     style="fill:#ffffff"
     inkscape:connector-curvature="0"
     id="path11913"
     d="m 290.57458,152.06768 a 2.12,2.12 0 0 0 -3,0.09 16.67,16.67 0 0 0 -3.87,8.24 l -0.06,0.62 c -0.3,-2.67 -1.06,-6 -2.89,-8.43 a 2.1340337,2.1340337 0 1 0 -3.4,2.58 c 1.69,2.22 2.15,6.22 2.21,8.62 h 8 c 0.15,-2.13 0.76,-6.19 3.13,-8.71 a 2.12,2.12 0 0 0 -0.12,-3.01 z"
     class="cls-2" />
  <path
     style="fill:#b5b7b9"
     inkscape:connector-curvature="0"
     id="path11926"
     d="m 118.27458,22.557683 c 0,0 -19.510003,42.71 -28.650003,63.35 -9.14,20.639997 -25.17,57.309997 -25.17,57.309997 0,0 17.46,-1.1 50.000003,-0.6 32.85,0.51 51.85,1.81 51.85,1.81 0,0 -38.31,-93.449997 -41,-101.669997 -2.69,-8.22 -7.06,-20.2 -7.06,-20.2"
     class="cls-7" />
  <path
     style="fill:#58595b"
     inkscape:connector-curvature="0"
     id="path11928"
     d="m 118.27458,22.557683 c 0,0 48.66,-0.79 72.76,-1.08 24.1,-0.29 59.78,-1 59.78,-1 0,0 27.16,61.84 33,77.91 5.84,16.069997 22,44.929997 22,44.929997 0,0 -137.52,1.16 -141.05,1.16 -3.53,0 -46.49,-121.919997 -46.49,-121.919997 z"
     class="cls-8" />
  <path
     style="fill:#393a35"
     inkscape:connector-curvature="0"
     id="path11930"
     d="m 118.56458,23.637683 c 0,0 -0.28,46.84 0,57.8 0.28,10.96 -1.46,45.629997 -1.36,51.089997 0.1,5.46 -0.27,8.5 0.67,10.24 l -3.43,-0.15 c 0,0 0.19,-8.9 0,-13.62 -0.19,-4.72 1,-51.149997 2,-64.679997 1,-13.53 2.12,-40.68 2.12,-40.68 z"
     class="cls-5" />
  <path
     style="opacity:0.43999999;fill:#393a35"
     inkscape:connector-curvature="0"
     id="path11932"
     d="m 134.29458,142.77768 c 0,0 -0.86,-101.349997 66,-102.789997 78.2,-1.69 87.93,103.189997 87.93,103.189997 l -123.46,1.3 z"
     class="cls-9" />
  <path
     style="fill:#58595b"
     inkscape:connector-curvature="0"
     id="path11935"
     d="m 212.74458,67.807683 1.43,12.34 -12.74,5.06 5.14,22.659997 c 0,0 -2.56,9.26 -1.9,15.65 4.18,2 33,5.86 33,5.86 0,0 -4,-32.749997 -2.92,-38.409997 0,-0.2 8,-9.69 8,-9.69 l -17.36,-4.89 -2.78,-11.64 z"
     class="cls-8" />
  <path
     style="fill:#9c6bad"
     inkscape:connector-curvature="0"
     id="path11937"
     d="m 222.58458,64.747683 -9.84,3.06 1.43,12.34 -7.15,2.84 c 4.69,3.12 14.43,6.81 26.25,-4.37 l -7.91,-2.23 z"
     class="cls-4" />
  <polygon
     style="fill:#58595b"
     id="polygon11939"
     points="209.5,308.73 215.34,320.31 210.62,325.6 201.43,320.31 "
     class="cls-8"
     transform="translate(-8.0654226,-223.52232)" />
  <polygon
     style="opacity:0.43999999;fill:#393a35"
     id="polygon11941"
     points="231.89,293.47 221.9,300.79 220.81,291.33 230.65,288.27 "
     class="cls-9"
     transform="translate(-8.0654226,-223.52232)" />
  <polygon
     style="opacity:0.43999999;fill:#393a35"
     id="polygon11943"
     points="212.72,323.25 211.15,325.12 211.03,315.48 "
     class="cls-9"
     transform="translate(-8.0654226,-223.52232)" />
  <path
     style="fill:#af97c7"
     inkscape:connector-curvature="0"
     id="path11945"
     d="m 202.55458,102.07768 -12.09,15.9 c 0,0 -12.07,-14.61 -13.23,-31.289997 1,-0.16 3,-0.8 3,-0.8 0,0 7.71,10.21 9.72,17.119997 a 62.49,62.49 0 0 1 3.38,-6.219997"
     class="cls-3" />
  <path
     style="opacity:0.43999999;fill:#393a35"
     inkscape:connector-curvature="0"
     id="path11947"
     d="m 189.98458,103.00768 -0.61,1.29 -1.23,-5.819997 a 26.91,26.91 0 0 1 1.84,4.529997 z"
     class="cls-9" />
  <path
     style="fill:#7a478b"
     inkscape:connector-curvature="0"
     id="path11949"
     d="m 154.93458,119.70768 c -2.23,5.48 -1.74,11 2.36,12.62 4.1,1.62 72.44,10.82 72.44,10.82 0,0 21.33,1.45 23,1.29 1.67,-0.16 5.32,-3.25 -0.92,-2.4 1.39,-0.44 5,-2.53 0.22,-1.88 4,-1 3.21,-3 0.52,-2.4 2.26,-0.59 1,-2.7 -0.77,-1.81 -1.77,0.89 -18.46,-7 -18.46,-7 0,0 -63.69,-16 -67.59,-15.94 -3.9,0.06 -8.44,0.81 -10.8,6.7 z"
     class="cls-10" />
  <path
     style="fill:#393a35"
     inkscape:connector-curvature="0"
     id="path11951"
     d="m 199.93458,120.70768 c -16.1,-3.91 -32.38,-7.74 -34.29,-7.7 -3.89,0.09 -8.39,0.81 -10.79,6.7 -2.23,5.48 -1.74,11 2.36,12.62 2,0.79 18.87,3.34 35.85,5.76 0.64,-1.45 6.87,-17.38 6.87,-17.38 z"
     class="cls-5" />
  <path
     style="fill:#9c6bad"
     inkscape:connector-curvature="0"
     id="path11953"
     d="m 204.93458,135.74768 c 0,0 49.57,-24.4 57.61,-28.28 8.04,-3.88 14.42,-1.58 17.28,5 2.86,6.58 0.57,12.21 -4.24,14.78 -4.81,2.57 -43.46,15.23 -43.46,15.23 l -1.58,-5.15 c 0,0 -23.32,8.11 -24.93,8.11 h -20.41 c 0,0 -6.81,-0.49 -0.06,-1.68 -5.08,0.26 -5.69,-1.57 -0.84,-1.76 -5.45,0.27 -4.25,-2.38 -0.75,-2.33 -4.31,-0.06 -3.19,-4.82 0.54,-3.48 3.73,1.34 9.92,-1.39 9.92,-1.39 0,0 7.41,-2.66 10.92,0.95 z"
     class="cls-4" />
  <path
     style="fill:#393a35"
     inkscape:connector-curvature="0"
     id="path11955"
     d="m 232.12458,142.47768 c 0,0 38.69,-12.61 43.5,-15.18 4.81,-2.57 7.1,-8.17 4.24,-14.78 -2.86,-6.61 -9.25,-8.91 -17.28,-5 -4.73,2.28 -20.54,10.05 -35.48,17.39 l 3.44,12.45 v 0 z"
     class="cls-5" />
  <ellipse
     style="fill:#393a35"
     id="ellipse11957"
     transform="rotate(-24.27)"
     ry="0.69999999"
     rx="1.15"
     cy="134.48833"
     cx="129.685"
     class="cls-5" />
  <ellipse
     style="fill:#393a35"
     id="ellipse11959"
     transform="rotate(-24.27)"
     ry="0.49000001"
     rx="0.80000001"
     cy="131.92839"
     cx="129.68205"
     class="cls-5" />
  <polygon
     style="fill:#393a35"
     id="polygon11961"
     points="181.25,290.15 182.62,292.33 180.53,293.28 179.79,290.81 "
     class="cls-5"
     transform="translate(-8.0654226,-223.52232)" />
  <ellipse
     style="fill:#393a35"
     id="ellipse11963"
     transform="rotate(-24.27)"
     ry="0.69999999"
     rx="1.15"
     cy="137.65535"
     cx="135.31601"
     class="cls-5" />
  <ellipse
     style="fill:#393a35"
     id="ellipse11965"
     transform="rotate(-24.27)"
     ry="0.49000001"
     rx="0.80000001"
     cy="126.34886"
     cx="135.31665"
     class="cls-5" />
  <polygon
     style="fill:#393a35"
     id="polygon11967"
     points="184.09,282.75 189.06,292.91 186.97,293.86 182.63,283.4 "
     class="cls-5"
     transform="translate(-8.0654226,-223.52232)" />
  <path
     style="fill:#9c6bad"
     inkscape:connector-curvature="0"
     id="path11969"
     d="m 187.08458,80.907683 c 0,0 1.92,2.57 1.8,3.27 -0.12,0.7 -0.95,3.78 -1.95,4.3 -1,0.52 -8.75,-0.22 -9.27,-1 -0.52,-0.78 -6.63,-14.73 -6.49,-15.64 a 41.94,41.94 0 0 1 1.9,-4.84 l 11.23,11.66 z"
     class="cls-4" />
  <path
     style="fill:#af97c7"
     inkscape:connector-curvature="0"
     id="path11971"
     d="m 181.67458,68.917683 c 0.45,0.36 7.52,14.63 7.21,15.26 -0.42,0.84 -7.82,-0.37 -9.31,-1.51 -1.49,-1.14 -7,-15.22 -6.47,-15.67 0.53,-0.45 7.92,1.4 8.57,1.92 z"
     class="cls-3" />
  <path
     style="fill:#58595b"
     inkscape:connector-curvature="0"
     id="path11973"
     d="m 175.27458,68.667683 5.5,1.26 0.23,0.18 1.94,3.84 -0.12,0.15 -6,-1.21 -0.17,-0.16 -0.06,-0.06 -1.4,-3.81 z"
     class="cls-8" />
  <path
     style="fill:#7a478b"
     inkscape:connector-curvature="0"
     id="path11975"
     d="m 173.93458,72.537683 3.8,9.37 c 0,0 0.63,1.41 -0.2,1.49 a 0.84,0.84 0 0 1 -0.94,-0.46 c -0.46,-0.46 -4.09,-10.14 -4.09,-10.14 0,0 -0.4,-0.91 0,-1.22 0.4,-0.31 0.82,0.11 1,0.22 a 2.85,2.85 0 0 1 0.43,0.74 z"
     class="cls-10" />
  <polygon
     style="fill:#7a478b"
     id="polygon11977"
     points="186.85,299.5 187.63,299.62 186.85,297.71 186.37,297.64 185.88,298.04 186.3,299.01 "
     class="cls-10"
     transform="translate(-8.0654226,-223.52232)" />
  <polygon
     style="fill:#7a478b"
     id="polygon11979"
     points="187.04,297.74 187.84,299.64 190.77,300.18 189.81,298.24 "
     class="cls-10"
     transform="translate(-8.0654226,-223.52232)" />
  <polygon
     style="fill:#7a478b"
     id="polygon11981"
     points="191.78,299.81 191.28,298.73 190.78,298.43 190.09,298.29 190.96,300.21 191.46,300.25 "
     class="cls-10"
     transform="translate(-8.0654226,-223.52232)" />
  <path
     style="fill:#7a478b"
     inkscape:connector-curvature="0"
     id="path11983"
     d="m 178.98458,77.887683 h -0.23 v 0 0 a 0.32,0.32 0 0 1 -0.16,-0.14 0.2,0.2 0 0 1 0,-0.13 v 0 c 0,-0.11 0.17,-0.14 0.3,0 v 0 h 0.05 l 0.12,0.12 c 0,0.06 -0.01,0.13 -0.08,0.15 z"
     class="cls-10" />
  <path
     style="fill:#7a478b"
     inkscape:connector-curvature="0"
     id="path11985"
     d="m 179.93458,78.017683 h -0.24 v 0 0 a 0.45,0.45 0 0 1 -0.16,-0.14 0.16,0.16 0 0 1 0,-0.13 v 0 c 0,-0.12 0.17,-0.14 0.3,0 v 0 h 0.05 a 0.68,0.68 0 0 1 0.12,0.12 c -0.07,0.05 -0.07,0.12 -0.07,0.15 z"
     class="cls-10" />
  <path
     style="fill:#7a478b"
     inkscape:connector-curvature="0"
     id="path11987"
     d="m 180.73458,78.127683 h -0.24 v 0 0 a 0.32,0.32 0 0 1 -0.16,-0.14 0.16,0.16 0 0 1 0,-0.13 v 0 c 0,-0.11 0.17,-0.14 0.3,0 v 0 0 a 0.46,0.46 0 0 1 0.12,0.12 c 0.05,0.06 0.04,0.13 -0.02,0.15 z"
     class="cls-10" />
  <path
     style="fill:#7a478b"
     inkscape:connector-curvature="0"
     id="path11989"
     d="m 181.65458,78.257683 h -0.24 v 0 0 a 0.38,0.38 0 0 1 -0.16,-0.14 0.16,0.16 0 0 1 0,-0.13 v 0 c 0,-0.12 0.17,-0.14 0.3,0 v 0 h 0.05 a 1.36,1.36 0 0 1 0.12,0.12 c 0,0.06 -0.01,0.12 -0.07,0.15 z"
     class="cls-10" />
  <path
     style="fill:#7a478b"
     inkscape:connector-curvature="0"
     id="path11991"
     d="m 182.60458,78.387683 h -0.24 v 0 0 a 0.45,0.45 0 0 1 -0.16,-0.14 0.16,0.16 0 0 1 0,-0.13 v 0 c 0,-0.12 0.17,-0.14 0.3,0 v 0 a 0.43,0.43 0 0 1 0.12,0.11 c 0.05,0.07 0.04,0.13 -0.02,0.16 z"
     class="cls-10" />
  <path
     style="fill:#7a478b"
     inkscape:connector-curvature="0"
     id="path11993"
     d="m 183.52458,78.477683 h -0.21 v 0 0 a 0.34,0.34 0 0 1 -0.16,-0.15 0.14,0.14 0 0 1 0,-0.12 v 0 c 0,-0.12 0.18,-0.14 0.31,0 v 0 h 0.05 a 0.68,0.68 0 0 1 0.12,0.12 c -0.04,0.09 -0.05,0.15 -0.11,0.15 z"
     class="cls-10" />
  <path
     style="fill:#7a478b"
     inkscape:connector-curvature="0"
     id="path11995"
     d="m 184.35458,78.627683 h -0.24 v 0 0 a 0.32,0.32 0 0 1 -0.18,-0.15 0.16,0.16 0 0 1 0,-0.13 v 0 c 0,-0.11 0.18,-0.14 0.31,0 v 0 0 a 0.34,0.34 0 0 1 0.12,0.12 c 0.06,0.07 0.05,0.13 -0.01,0.16 z"
     class="cls-10" />
  <path
     style="fill:#7a478b"
     inkscape:connector-curvature="0"
     id="path11997"
     d="m 185.26458,78.757683 h -0.2 v 0 0 a 0.39,0.39 0 0 1 -0.16,-0.15 0.17,0.17 0 0 1 0,-0.12 v 0 c 0,-0.12 0.17,-0.14 0.3,0 v 0 c 0,0 0,0 0,0 a 0.68,0.68 0 0 1 0.12,0.12 c 0.01,0.05 0,0.12 -0.06,0.15 z"
     class="cls-10" />
  <path
     style="fill:#7a478b"
     inkscape:connector-curvature="0"
     id="path11999"
     d="m 179.81458,78.667683 h -0.14 -0.06 -0.08 a 0.32,0.32 0 0 1 -0.16,-0.14 0.14,0.14 0 0 1 0,-0.12 v 0 c 0,-0.11 0.17,-0.13 0.3,0 v 0 0 a 0.46,0.46 0 0 1 0.12,0.12 c 0.14,0.05 0.08,0.12 0.02,0.14 z"
     class="cls-10" />
  <path
     style="fill:#7a478b"
     inkscape:connector-curvature="0"
     id="path12001"
     d="m 180.64458,78.787683 h -0.23 v 0 0 a 0.45,0.45 0 0 1 -0.16,-0.14 0.16,0.16 0 0 1 0,-0.13 v 0 c 0,-0.12 0.17,-0.14 0.3,0 v 0 0 l 0.12,0.12 c 0.04,0.06 0.03,0.12 -0.03,0.15 z"
     class="cls-10" />
  <path
     style="fill:#7a478b"
     inkscape:connector-curvature="0"
     id="path12003"
     d="m 181.56458,78.907683 h -0.15 -0.06 -0.07 a 0.39,0.39 0 0 1 -0.16,-0.15 0.14,0.14 0 0 1 0,-0.12 v 0 c 0,-0.11 0.18,-0.13 0.31,0 v 0 h 0.05 a 0.46,0.46 0 0 1 0.12,0.12 c 0.03,0.06 0.02,0.13 -0.04,0.15 z"
     class="cls-10" />
  <path
     style="fill:#7a478b"
     inkscape:connector-curvature="0"
     id="path12005"
     d="m 182.51458,79.047683 h -0.2 v 0 0 a 0.39,0.39 0 0 1 -0.16,-0.15 0.17,0.17 0 0 1 0,-0.12 v 0 c 0,-0.12 0.17,-0.14 0.3,0 v 0 0 l 0.12,0.12 c 0.01,0.05 0.01,0.12 -0.06,0.15 z"
     class="cls-10" />
  <path
     style="fill:#7a478b"
     inkscape:connector-curvature="0"
     id="path12007"
     d="m 183.43458,79.167683 h -0.15 v 0 0 0 0 a 0.32,0.32 0 0 1 -0.16,-0.14 0.16,0.16 0 0 1 0,-0.13 v 0 c 0,-0.11 0.17,-0.14 0.3,0 v 0 h 0.05 a 0.46,0.46 0 0 1 0.12,0.12 c -0.09,0.06 -0.1,0.13 -0.16,0.15 z"
     class="cls-10" />
  <path
     style="fill:#7a478b"
     inkscape:connector-curvature="0"
     id="path12009"
     d="m 184.26458,79.287683 h -0.2 v 0 0 a 0.39,0.39 0 0 1 -0.16,-0.15 0.13,0.13 0 0 1 0,-0.12 v 0 c 0,-0.12 0.17,-0.14 0.3,0 v 0 0 l 0.12,0.12 c 0.01,0.05 0,0.12 -0.06,0.15 z"
     class="cls-10" />
  <path
     style="fill:#7a478b"
     inkscape:connector-curvature="0"
     id="path12011"
     d="m 185.18458,79.407683 h -0.15 -0.06 -0.04 a 0.36,0.36 0 0 1 -0.16,-0.14 0.2,0.2 0 0 1 0,-0.13 v 0 c 0,-0.11 0.17,-0.14 0.3,0 v 0 h 0.05 l 0.12,0.12 c 0.01,0.06 0,0.13 -0.06,0.15 z"
     class="cls-10" />
  <path
     style="fill:#7a478b"
     inkscape:connector-curvature="0"
     id="path12013"
     d="m 179.56458,79.307683 h -0.24 v 0 0 a 0.38,0.38 0 0 1 -0.16,-0.14 0.16,0.16 0 0 1 0,-0.13 v 0 c 0,-0.12 0.18,-0.14 0.31,0 v 0 h 0.05 a 0.68,0.68 0 0 1 0.12,0.12 c -0.01,0.05 -0.02,0.12 -0.08,0.15 z"
     class="cls-10" />
  <path
     style="fill:#7a478b"
     inkscape:connector-curvature="0"
     id="path12015"
     d="m 180.47458,79.477683 v 0 c 0,0 0,0 -0.06,0 v 0 h -0.06 -0.08 a 0.32,0.32 0 0 1 -0.16,-0.14 0.19,0.19 0 0 1 0,-0.12 v 0 c 0,-0.11 0.17,-0.13 0.3,0 v 0 0 a 0.46,0.46 0 0 1 0.12,0.12 c 0.01,0 0,0.07 -0.06,0.14 z"
     class="cls-10" />
  <path
     style="fill:#7a478b"
     inkscape:connector-curvature="0"
     id="path12017"
     d="m 181.30458,79.547683 h -0.23 v 0 0 a 0.45,0.45 0 0 1 -0.16,-0.14 0.2,0.2 0 0 1 0,-0.13 v 0 c 0,-0.12 0.17,-0.14 0.3,0 v 0 0 l 0.12,0.12 c 0.04,0.08 0.03,0.08 -0.03,0.15 z"
     class="cls-10" />
  <path
     style="fill:#7a478b"
     inkscape:connector-curvature="0"
     id="path12019"
     d="m 182.22458,79.667683 h -0.15 v 0 h -0.14 a 0.32,0.32 0 0 1 -0.16,-0.14 0.14,0.14 0 0 1 0,-0.12 v 0 c 0,-0.11 0.18,-0.13 0.31,0 v 0 h 0.05 a 0.46,0.46 0 0 1 0.12,0.12 c 0.04,0.05 0.03,0.12 -0.03,0.14 z"
     class="cls-10" />
  <path
     style="fill:#7a478b"
     inkscape:connector-curvature="0"
     id="path12021"
     d="m 183.17458,79.807683 h -0.24 v 0 0 a 0.39,0.39 0 0 1 -0.16,-0.15 0.17,0.17 0 0 1 0,-0.12 v 0 c 0,-0.12 0.17,-0.14 0.3,0 v 0 a 0.1,0.1 0 0 0 0.05,0 l 0.11,0.12 c 0.01,0.05 0.01,0.12 -0.06,0.15 z"
     class="cls-10" />
  <path
     style="fill:#7a478b"
     inkscape:connector-curvature="0"
     id="path12023"
     d="m 184.09458,79.927683 v 0 c 0,0 0,0 -0.06,0 h -0.15 v 0 0 a 0.32,0.32 0 0 1 -0.16,-0.14 0.16,0.16 0 0 1 0,-0.13 v 0 c 0,-0.11 0.17,-0.14 0.3,0 v 0 h 0.05 a 0.46,0.46 0 0 1 0.12,0.12 c -0.03,0.06 -0.04,0.13 -0.1,0.15 z"
     class="cls-10" />
  <path
     style="fill:#7a478b"
     inkscape:connector-curvature="0"
     id="path12025"
     d="m 184.93458,80.047683 h -0.2 v 0 0 a 0.39,0.39 0 0 1 -0.16,-0.15 0.13,0.13 0 0 1 0,-0.12 v 0 c 0,-0.12 0.17,-0.14 0.3,0 v 0 0 l 0.12,0.12 c 0,0.05 -0.01,0.12 -0.06,0.15 z"
     class="cls-10" />
  <path
     style="fill:#7a478b"
     inkscape:connector-curvature="0"
     id="path12027"
     d="m 185.84458,80.167683 h -0.15 -0.06 v 0 0 0 a 0.36,0.36 0 0 1 -0.16,-0.14 0.2,0.2 0 0 1 0,-0.13 v 0 c 0,-0.11 0.17,-0.14 0.3,0 v 0 h 0.05 a 0.68,0.68 0 0 1 0.12,0.12 c -0.01,0.06 -0.01,0.13 -0.1,0.15 z"
     class="cls-10" />
  <path
     style="fill:#7a478b"
     inkscape:connector-curvature="0"
     id="path12029"
     d="m 180.39458,80.087683 h -0.24 v 0 0 a 0.37,0.37 0 0 1 -0.16,-0.14 0.2,0.2 0 0 1 0,-0.13 v 0 c 0,-0.11 0.17,-0.14 0.3,0 v 0 h 0.05 l 0.12,0.11 c 0,0.07 -0.01,0.13 -0.07,0.16 z"
     class="cls-10" />
  <path
     style="fill:#7a478b"
     inkscape:connector-curvature="0"
     id="path12031"
     d="m 181.22458,80.197683 h -0.15 -0.06 -0.08 a 0.46,0.46 0 0 1 -0.16,-0.15 0.17,0.17 0 0 1 0,-0.12 v 0 c 0,-0.11 0.17,-0.13 0.3,0 v 0 h 0.05 l 0.12,0.12 c 0.05,0.06 0.04,0.13 -0.02,0.15 z"
     class="cls-10" />
  <path
     style="fill:#7a478b"
     inkscape:connector-curvature="0"
     id="path12033"
     d="m 182.13458,80.327683 h -0.2 v 0 0 a 0.32,0.32 0 0 1 -0.16,-0.14 0.16,0.16 0 0 1 0,-0.13 v 0 c 0,-0.11 0.17,-0.14 0.3,0 v 0 a 0.46,0.46 0 0 1 0.12,0.12 c 0.01,0.06 0,0.13 -0.06,0.15 z"
     class="cls-10" />
  <path
     style="fill:#7a478b"
     inkscape:connector-curvature="0"
     id="path12035"
     d="m 183.09458,80.477683 h -0.16 -0.06 v 0 0 0 a 0.34,0.34 0 0 1 -0.17,-0.14 0.2,0.2 0 0 1 0,-0.13 v 0 c 0,-0.11 0.17,-0.14 0.3,0 v 0 h 0.05 a 0.68,0.68 0 0 1 0.12,0.12 c -0.01,0.04 -0.02,0.15 -0.08,0.15 z"
     class="cls-10" />
  <path
     style="fill:#7a478b"
     inkscape:connector-curvature="0"
     id="path12037"
     d="m 184.00458,80.587683 h -0.23 -0.05 v 0 a 0.45,0.45 0 0 1 -0.16,-0.14 0.16,0.16 0 0 1 0,-0.13 v 0 c 0,-0.12 0.17,-0.14 0.3,0 v 0 0 l 0.12,0.12 c 0.09,0.04 0.08,0.12 0.02,0.15 z"
     class="cls-10" />
  <path
     style="fill:#7a478b"
     inkscape:connector-curvature="0"
     id="path12039"
     d="m 184.83458,80.697683 h -0.14 -0.06 v 0 0 0 a 0.32,0.32 0 0 1 -0.16,-0.14 0.16,0.16 0 0 1 0,-0.13 v 0 c 0,-0.11 0.17,-0.14 0.3,0 v 0 0 a 0.46,0.46 0 0 1 0.12,0.12 c 0.04,0.06 0.04,0.13 -0.06,0.15 z"
     class="cls-10" />
  <path
     style="fill:#7a478b"
     inkscape:connector-curvature="0"
     id="path12041"
     d="m 185.75458,80.827683 h -0.24 v 0 0 a 0.45,0.45 0 0 1 -0.16,-0.14 0.16,0.16 0 0 1 0,-0.13 v 0 c 0,-0.12 0.18,-0.14 0.31,0 v 0 h 0.05 l 0.12,0.12 c -0.01,0.06 -0.02,0.12 -0.08,0.15 z"
     class="cls-10" />
  <path
     style="fill:#7a478b"
     inkscape:connector-curvature="0"
     id="path12043"
     d="m 179.24458,77.257683 h -0.24 v 0 0 a 0.45,0.45 0 0 1 -0.16,-0.14 0.16,0.16 0 0 1 0,-0.13 v 0 c 0,-0.12 0.17,-0.14 0.3,0 v 0 h 0.05 a 0.68,0.68 0 0 1 0.12,0.12 c 0,0.05 -0.01,0.12 -0.07,0.15 z"
     class="cls-10" />
  <path
     style="fill:#7a478b"
     inkscape:connector-curvature="0"
     id="path12045"
     d="m 180.07458,77.367683 v 0 c 0,0 0,0 -0.06,0 h -0.08 -0.05 v 0 0 0 a 0.32,0.32 0 0 1 -0.16,-0.14 0.16,0.16 0 0 1 0,-0.13 v 0 c 0,-0.11 0.17,-0.14 0.3,0 v 0 0 a 0.46,0.46 0 0 1 0.12,0.12 c 0,0.06 -0.01,0.13 -0.07,0.15 z"
     class="cls-10" />
  <path
     style="fill:#7a478b"
     inkscape:connector-curvature="0"
     id="path12047"
     d="m 180.99458,77.477683 h -0.24 v 0 0 a 0.56,0.56 0 0 1 -0.16,-0.14 0.2,0.2 0 0 1 0,-0.13 v 0 c 0,-0.12 0.17,-0.14 0.3,0 v 0 h 0.05 a 1.36,1.36 0 0 1 0.12,0.12 c 0,0.08 -0.01,0.15 -0.07,0.15 z"
     class="cls-10" />
  <path
     style="fill:#7a478b"
     inkscape:connector-curvature="0"
     id="path12049"
     d="m 181.93458,77.627683 h -0.24 v 0 0 a 0.37,0.37 0 0 1 -0.16,-0.14 0.16,0.16 0 0 1 0,-0.13 v 0 c 0,-0.11 0.17,-0.14 0.3,0 v 0 a 0.43,0.43 0 0 1 0.12,0.11 c 0.06,0.07 0.05,0.13 -0.02,0.16 z"
     class="cls-10" />
  <path
     style="fill:#7a478b"
     inkscape:connector-curvature="0"
     id="path12051"
     d="m 182.86458,77.757683 h -0.21 v 0 0 a 0.34,0.34 0 0 1 -0.16,-0.15 0.13,0.13 0 0 1 0,-0.12 v 0 c 0,-0.12 0.17,-0.14 0.31,0 v 0 h 0.05 l 0.12,0.12 c -0.04,0.05 -0.04,0.12 -0.11,0.15 z"
     class="cls-10" />
  <path
     style="fill:#7a478b"
     inkscape:connector-curvature="0"
     id="path12053"
     d="m 183.69458,77.867683 h -0.24 v 0 0 a 0.28,0.28 0 0 1 -0.16,-0.14 0.16,0.16 0 0 1 0,-0.13 v 0 c 0,-0.11 0.18,-0.14 0.31,0 v 0 0 a 0.68,0.68 0 0 1 0.12,0.12 c 0.04,0.06 0.03,0.13 -0.03,0.15 z"
     class="cls-10" />
  <path
     style="fill:#7a478b"
     inkscape:connector-curvature="0"
     id="path12055"
     d="m 184.60458,77.997683 h -0.23 v 0 0 a 0.39,0.39 0 0 1 -0.16,-0.15 0.13,0.13 0 0 1 0,-0.12 v 0 c 0,-0.12 0.17,-0.14 0.3,0 v 0 0 a 0.68,0.68 0 0 1 0.12,0.12 c 0.04,0.05 0.03,0.12 -0.03,0.15 z"
     class="cls-10" />
  <path
     style="fill:#7a478b"
     inkscape:connector-curvature="0"
     id="path12057"
     d="m 180.13458,80.717683 h -0.15 -0.05 -0.08 a 0.32,0.32 0 0 1 -0.16,-0.14 0.14,0.14 0 0 1 0,-0.12 v 0 c 0,-0.11 0.17,-0.13 0.3,0 v 0 0 a 0.46,0.46 0 0 1 0.12,0.12 c 0.09,0.05 0.08,0.12 0.02,0.14 z"
     class="cls-10" />
  <path
     style="fill:#7a478b"
     inkscape:connector-curvature="0"
     id="path12059"
     d="m 181.05458,80.847683 h -0.24 v 0 0 a 0.56,0.56 0 0 1 -0.16,-0.14 0.2,0.2 0 0 1 0,-0.13 v 0 c 0,-0.12 0.17,-0.14 0.3,0 v 0 h 0.05 l 0.12,0.11 c 0,0.07 -0.01,0.13 -0.07,0.16 z"
     class="cls-10" />
  <path
     style="fill:#7a478b"
     inkscape:connector-curvature="0"
     id="path12061"
     d="m 181.93458,80.957683 h -0.15 -0.06 -0.08 a 0.36,0.36 0 0 1 -0.16,-0.14 0.17,0.17 0 0 1 0,-0.12 v 0 c 0,-0.11 0.17,-0.13 0.3,0 v 0 0 a 0.68,0.68 0 0 1 0.12,0.12 c 0.03,0.05 0.03,0.12 0.03,0.14 z"
     class="cls-10" />
  <path
     style="fill:#7a478b"
     inkscape:connector-curvature="0"
     id="path12063"
     d="m 182.79458,81.087683 h -0.23 v 0 0 a 0.37,0.37 0 0 1 -0.16,-0.14 0.16,0.16 0 0 1 0,-0.13 v 0 c 0,-0.11 0.17,-0.14 0.3,0 v 0 0 a 0.34,0.34 0 0 1 0.12,0.12 c 0.04,0.06 0.03,0.12 -0.03,0.15 z"
     class="cls-10" />
  <path
     style="fill:#7a478b"
     inkscape:connector-curvature="0"
     id="path12065"
     d="m 183.75458,81.217683 h -0.24 v 0 0 a 0.28,0.28 0 0 1 -0.16,-0.14 0.16,0.16 0 0 1 0,-0.13 v 0 c 0,-0.11 0.17,-0.14 0.31,0 v 0 h 0.05 a 0.68,0.68 0 0 1 0.12,0.12 c -0.01,0.06 -0.02,0.13 -0.08,0.15 z"
     class="cls-10" />
  <path
     style="fill:#7a478b"
     inkscape:connector-curvature="0"
     id="path12067"
     d="m 184.66458,81.347683 h -0.23 v 0 0 a 0.45,0.45 0 0 1 -0.16,-0.14 0.16,0.16 0 0 1 0,-0.13 v 0 c 0,-0.12 0.17,-0.14 0.3,0 v 0 0 l 0.12,0.12 c 0.04,0.05 0.03,0.12 -0.03,0.15 z"
     class="cls-10" />
  <path
     style="fill:#7a478b"
     inkscape:connector-curvature="0"
     id="path12069"
     d="m 185.49458,81.477683 h -0.14 -0.06 v 0 0 0 a 0.32,0.32 0 0 1 -0.16,-0.14 0.16,0.16 0 0 1 0,-0.13 v 0 c 0,-0.11 0.17,-0.14 0.3,0 v 0 0 a 0.46,0.46 0 0 1 0.12,0.12 c 0.01,0.04 0,0.15 -0.06,0.15 z"
     class="cls-10" />
  <path
     style="fill:#7a478b"
     inkscape:connector-curvature="0"
     id="path12071"
     d="m 186.41458,81.587683 h -0.24 v 0 0 a 0.45,0.45 0 0 1 -0.16,-0.14 0.16,0.16 0 0 1 0,-0.13 v 0 c 0,-0.12 0.18,-0.14 0.31,0 v 0 0 l 0.12,0.12 c 0.04,0.04 0.03,0.12 -0.03,0.15 z"
     class="cls-10" />
  <path
     style="fill:#7a478b"
     inkscape:connector-curvature="0"
     id="path12073"
     d="m 180.93458,81.477683 h -0.21 v 0 0 a 0.39,0.39 0 0 1 -0.16,-0.15 0.13,0.13 0 0 1 0,-0.12 v 0 c 0,-0.12 0.18,-0.14 0.31,0 v 0 h 0.05 a 0.68,0.68 0 0 1 0.12,0.12 c -0.01,0.08 -0.02,0.15 -0.11,0.15 z"
     class="cls-10" />
  <path
     style="fill:#7a478b"
     inkscape:connector-curvature="0"
     id="path12075"
     d="m 181.79458,81.617683 h -0.24 v 0 0 a 0.32,0.32 0 0 1 -0.16,-0.14 0.16,0.16 0 0 1 0,-0.13 v 0 c 0,-0.11 0.18,-0.14 0.31,0 v 0 0 a 0.46,0.46 0 0 1 0.12,0.12 c 0.04,0.06 0.03,0.13 -0.03,0.15 z"
     class="cls-10" />
  <path
     style="fill:#7a478b"
     inkscape:connector-curvature="0"
     id="path12077"
     d="m 182.70458,81.747683 h -0.2 v 0 0 a 0.39,0.39 0 0 1 -0.16,-0.15 0.17,0.17 0 0 1 0,-0.12 v 0 c 0,-0.12 0.17,-0.14 0.3,0 v 0 0 a 0.68,0.68 0 0 1 0.12,0.12 c 0.01,0.05 0.01,0.12 -0.06,0.15 z"
     class="cls-10" />
  <path
     style="fill:#7a478b"
     inkscape:connector-curvature="0"
     id="path12079"
     d="m 183.66458,81.877683 h -0.24 v 0 0 a 0.45,0.45 0 0 1 -0.16,-0.14 0.16,0.16 0 0 1 0,-0.13 v 0 c 0,-0.12 0.18,-0.14 0.31,0 v 0 0 a 0.68,0.68 0 0 1 0.12,0.12 c 0.04,0.06 0.03,0.12 -0.03,0.15 z"
     class="cls-10" />
  <path
     style="fill:#7a478b"
     inkscape:connector-curvature="0"
     id="path12081"
     d="m 184.57458,81.997683 v 0 a 0.06,0.06 0 0 1 -0.06,0 h -0.05 -0.06 -0.08 a 0.39,0.39 0 0 1 -0.16,-0.15 0.17,0.17 0 0 1 0,-0.12 v 0 c 0,-0.11 0.17,-0.13 0.3,0 v 0 h 0.05 l 0.12,0.12 c 0.02,0.06 0.01,0.13 -0.06,0.15 z"
     class="cls-10" />
  <path
     style="fill:#7a478b"
     inkscape:connector-curvature="0"
     id="path12083"
     d="m 185.41458,82.117683 h -0.24 v 0 0 a 0.45,0.45 0 0 1 -0.16,-0.14 0.2,0.2 0 0 1 0,-0.13 v 0 c 0,-0.12 0.17,-0.14 0.3,0 v 0 0 l 0.12,0.12 c 0.05,0.06 0.04,0.12 -0.02,0.15 z"
     class="cls-10" />
  <path
     style="fill:#7a478b"
     inkscape:connector-curvature="0"
     id="path12085"
     d="m 186.32458,82.237683 h -0.15 -0.05 -0.08 a 0.39,0.39 0 0 1 -0.16,-0.15 0.14,0.14 0 0 1 0,-0.12 v 0 c 0,-0.11 0.17,-0.13 0.3,0 v 0 0 a 0.68,0.68 0 0 1 0.12,0.12 c 0.09,0.06 0.08,0.13 0.02,0.15 z"
     class="cls-10" />
  <path
     style="fill:#7a478b"
     inkscape:connector-curvature="0"
     id="path12087"
     d="m 180.66458,82.037683 h -0.24 v 0 0 a 0.45,0.45 0 0 1 -0.16,-0.14 0.16,0.16 0 0 1 0,-0.13 v 0 c 0,-0.12 0.17,-0.14 0.3,0 v 0 0 l 0.12,0.12 c 0.05,0.06 0.04,0.12 -0.02,0.15 z"
     class="cls-10" />
  <path
     style="fill:#7a478b"
     inkscape:connector-curvature="0"
     id="path12089"
     d="m 181.58458,82.157683 h -0.15 -0.06 -0.07 a 0.34,0.34 0 0 1 -0.16,-0.15 0.14,0.14 0 0 1 0,-0.12 v 0 c 0,-0.11 0.18,-0.13 0.31,0 v 0 h 0.05 a 0.46,0.46 0 0 1 0.12,0.12 c 0.03,0.06 0.02,0.13 -0.04,0.15 z"
     class="cls-10" />
  <path
     style="fill:#7a478b"
     inkscape:connector-curvature="0"
     id="path12091"
     d="m 182.41458,82.277683 h -0.24 v 0 0 a 0.38,0.38 0 0 1 -0.16,-0.14 0.16,0.16 0 0 1 0,-0.13 v 0 c 0,-0.12 0.18,-0.14 0.31,0 v 0 0 a 0.43,0.43 0 0 1 0.12,0.11 c 0.04,0.07 0.03,0.13 -0.03,0.16 z"
     class="cls-10" />
  <path
     style="fill:#7a478b"
     inkscape:connector-curvature="0"
     id="path12093"
     d="m 183.32458,82.397683 h -0.14 -0.06 -0.08 a 0.39,0.39 0 0 1 -0.16,-0.15 0.17,0.17 0 0 1 0,-0.12 v 0 c 0,-0.11 0.17,-0.13 0.3,0 v 0 0 l 0.12,0.12 c 0.09,0.06 0.08,0.13 0.02,0.15 z"
     class="cls-10" />
  <path
     style="fill:#7a478b"
     inkscape:connector-curvature="0"
     id="path12095"
     d="m 184.28458,82.537683 h -0.21 v 0 0 a 0.39,0.39 0 0 1 -0.16,-0.15 0.13,0.13 0 0 1 0,-0.12 v 0 c 0,-0.12 0.18,-0.14 0.31,0 v 0 h 0.05 l 0.12,0.12 c -0.04,0.09 -0.05,0.09 -0.11,0.15 z"
     class="cls-10" />
  <path
     style="fill:#7a478b"
     inkscape:connector-curvature="0"
     id="path12097"
     d="m 185.19458,82.657683 h -0.14 -0.06 -0.06 a 0.32,0.32 0 0 1 -0.16,-0.14 0.2,0.2 0 0 1 0,-0.13 v 0 c 0,-0.11 0.17,-0.14 0.3,0 v 0 0 a 0.63,0.63 0 0 1 0.11,0.12 c 0.08,0.06 0.08,0.13 0.01,0.15 z"
     class="cls-10" />
  <path
     style="fill:#7a478b"
     inkscape:connector-curvature="0"
     id="path12099"
     d="m 186.02458,82.777683 h -0.23 v 0 0 a 0.45,0.45 0 0 1 -0.16,-0.14 0.2,0.2 0 0 1 0,-0.13 v 0 c 0,-0.12 0.17,-0.14 0.3,0 v 0 a 0.1,0.1 0 0 0 0.05,0 l 0.11,0.12 c 0.01,0.05 0,0.12 -0.07,0.15 z"
     class="cls-10" />
  <path
     style="fill:#7a478b"
     inkscape:connector-curvature="0"
     id="path12101"
     d="m 186.93458,82.897683 h -0.15 -0.05 -0.08 a 0.32,0.32 0 0 1 -0.16,-0.14 0.14,0.14 0 0 1 0,-0.12 v 0 c 0,-0.11 0.17,-0.13 0.3,0 v 0 0 a 0.46,0.46 0 0 1 0.12,0.12 c 0.1,0.05 0.09,0.12 0.02,0.14 z"
     class="cls-10" />
  <path
     style="fill:#7a478b"
     inkscape:connector-curvature="0"
     id="path12103"
     d="m 181.49458,82.817683 h -0.24 v 0 0 a 0.32,0.32 0 0 1 -0.16,-0.14 0.16,0.16 0 0 1 0,-0.13 v 0 c 0,-0.11 0.17,-0.14 0.3,0 v 0 h 0.05 a 0.46,0.46 0 0 1 0.12,0.12 c 0,0.06 -0.01,0.13 -0.07,0.15 z"
     class="cls-10" />
  <path
     style="fill:#7a478b"
     inkscape:connector-curvature="0"
     id="path12105"
     d="m 182.32458,82.937683 h -0.15 -0.05 -0.08 a 0.39,0.39 0 0 1 -0.16,-0.15 0.14,0.14 0 0 1 0,-0.12 v 0 c 0,-0.11 0.17,-0.13 0.3,0 v 0 0 a 0.68,0.68 0 0 1 0.12,0.12 c 0.09,0.05 0.08,0.12 0.02,0.15 z"
     class="cls-10" />
  <path
     style="fill:#7a478b"
     inkscape:connector-curvature="0"
     id="path12107"
     d="m 183.24458,83.057683 h -0.24 v 0 0 a 0.36,0.36 0 0 1 -0.16,-0.14 0.2,0.2 0 0 1 0,-0.13 v 0 c 0,-0.11 0.17,-0.14 0.3,0 v 0 h 0.05 l 0.12,0.12 c 0,0.06 -0.01,0.13 -0.07,0.15 z"
     class="cls-10" />
  <path
     style="fill:#7a478b"
     inkscape:connector-curvature="0"
     id="path12109"
     d="m 184.19458,83.187683 h -0.15 -0.05 -0.06 a 0.32,0.32 0 0 1 -0.16,-0.14 0.14,0.14 0 0 1 0,-0.12 v 0 c 0,-0.11 0.17,-0.13 0.3,0 v 0 0 a 0.46,0.46 0 0 1 0.12,0.12 c 0.07,0.05 0.06,0.12 0,0.14 z"
     class="cls-10" />
  <path
     style="fill:#7a478b"
     inkscape:connector-curvature="0"
     id="path12111"
     d="m 185.11458,83.317683 h -0.24 v 0 0 a 0.49,0.49 0 0 1 -0.17,-0.14 0.2,0.2 0 0 1 0,-0.13 v 0 c 0,-0.12 0.17,-0.14 0.3,0 v 0 h 0.05 a 0.63,0.63 0 0 1 0.12,0.11 c 0.01,0.07 0,0.13 -0.06,0.16 z"
     class="cls-10" />
  <path
     style="fill:#7a478b"
     inkscape:connector-curvature="0"
     id="path12113"
     d="m 185.93458,83.477683 v 0 a 0.11,0.11 0 0 1 -0.06,0 v 0 h -0.06 -0.07 a 0.28,0.28 0 0 1 -0.16,-0.14 0.14,0.14 0 0 1 0,-0.12 v 0 c 0,-0.11 0.17,-0.13 0.31,0 v 0 0 a 0.68,0.68 0 0 1 0.12,0.12 c 0,0 -0.01,0.07 -0.08,0.14 z"
     class="cls-10" />
  <path
     style="fill:#7a478b"
     inkscape:connector-curvature="0"
     id="path12115"
     d="m 186.85458,83.557683 h -0.23 v 0 0 a 0.45,0.45 0 0 1 -0.16,-0.14 0.16,0.16 0 0 1 0,-0.13 v 0 c 0,-0.12 0.17,-0.14 0.3,0 v 0 c 0,0 0,0 0,0 a 0.43,0.43 0 0 1 0.12,0.11 c 0.05,0.08 0.05,0.13 -0.03,0.16 z"
     class="cls-10" />
  <path
     style="fill:#af97c7"
     inkscape:connector-curvature="0"
     id="path12117"
     d="m 172.15458,75.297683 c 1,-1.1 2.52,-1.08 3,0.06 0.48,1.14 2.62,5.24 2.62,5.24 0,0 0.88,0.2 -1.8,2.85 0.57,1.25 1.72,4 1.72,4 l -0.13,2.25 c 0,0 -6.64,-6.61 -6.75,-10.61 a 9.79,9.79 0 0 1 1.34,-3.79 z"
     class="cls-3" />
  <path
     style="fill:#af97c7"
     inkscape:connector-curvature="0"
     id="path12120"
     d="m 207.70458,44.477683 -10.41,15.6 5,0.44 3,11.84 a 2.24,2.24 0 0 0 2.14,0.41 l 22.22,-7.54 -11.1,-24.56 z"
     class="cls-3" />
  <path
     style="fill:#dadbdc"
     inkscape:connector-curvature="0"
     id="path12122"
     d="m 214.06458,42.317683 c 0,0 3.05,2.84 3.79,5.65 0.74,2.81 -1.41,8.91 -0.59,12.68 1.09,5 4.61,5.54 6.25,12 1.75,6.93 -3.87,12.25 -4.56,18.84 -0.69,6.59 0.73,12.299997 2.45,14.999997 0.11,-0.08 9.83,-3.27 9.83,-3.27 0,0 -2.54,-3.759997 -2.79,-7.369997 -0.25,-3.61 2.93,-12.93 4.92,-16.77 2.49,1.11 5.11,2.11 5.11,2.11 0,0 3.67,-5.47 2,-10.62 -1.67,-5.15 -6.7,-6.07 -7.78,-10.65 -1.08,-4.58 1.32,-9.25 0.44,-13.65 -0.81,-4 -3.57,-5.43 -8,-6.2 -4.43,-0.77 -11.07,2.25 -11.07,2.25 z"
     class="cls-1" />
  <path
     style="fill:#ffffff"
     inkscape:connector-curvature="0"
     id="path12124"
     d="m 205.05458,52.777683 c 0.39,3.2 7.85,2.53 8.44,-1.79 -1.42,-2.97 -7.76,-2.3 -8.44,1.79 z"
     class="cls-2" />
  <path
     style="fill:#393a35"
     inkscape:connector-curvature="0"
     id="path12126"
     d="m 205.05458,52.777683 c 0.17,1.37 1.64,2 3.31,2 a 2,2 0 0 0 0.4,-0.73 2.51,2.51 0 0 0 -0.11,-1.69 2.27,2.27 0 0 0 -2.24,-1.95 3.9,3.9 0 0 0 -1.36,2.37 z"
     class="cls-5" />
  <path
     style="fill:#393a35"
     inkscape:connector-curvature="0"
     id="path12128"
     d="m 211.82458,47.257683 c -0.72,-0.9 -2.89,-0.51 -3.85,-0.26 -0.96,0.25 -3.2,1.14 -3.3,2.42 a 0.5,0.5 0 0 0 0.84,0.35 7.58,7.58 0 0 1 6.21,-2.26 c 0.14,-0.03 0.21,-0.17 0.1,-0.25 z"
     class="cls-5" />
  <path
     style="fill:#393a35"
     inkscape:connector-curvature="0"
     id="path12130"
     d="m 208.81458,62.557683 a 6.56,6.56 0 0 1 -2.8,2 7.69,7.69 0 0 1 -2.64,0.12 c 0,0.13 0.17,0.69 0.21,0.83 a 7.45,7.45 0 0 0 2.24,0 c 1.35,-0.24 3.18,-1.17 3.18,-2.76 0,-0.14 -0.07,-0.27 -0.19,-0.19 z"
     class="cls-5" />
  <path
     style="fill:#58595b"
     inkscape:connector-curvature="0"
     id="path12363"
     d="m 223.82458,105.64768 c -3.38,-5.869997 -3.58,-10.889997 -1.68,-16.919997 0.45,-1.44 1,-2.87 1.67,-4.39 1.54,-3.72 3.13,-7.56 2.71,-11.73 -0.28,-2.69 -1.74,-4.76 -3.3,-6.95 a 19.61,19.61 0 0 1 -3.29,-6.08 15.11,15.11 0 0 1 0.2,-7.31 13.14,13.14 0 0 0 0.38,-4.89 c -0.52,-2.72 -4.23,-5.9 -4.27,-5.94 l 0.81,-0.27 c 0.18,0.15 3.63,3.09 4.19,6.07 a 13.34,13.34 0 0 1 -0.38,5.18 14.38,14.38 0 0 0 -0.21,7 19,19 0 0 0 3.18,5.85 c 1.55,2.17 3.14,4.42 3.43,7.3 0.44,4.36 -1.18,8.29 -2.76,12.1 -0.62,1.5 -1.21,2.92 -1.65,4.32 -1.83,5.83 -1.58,10.78 1.7,16.459997 z"
     class="cls-8" />
  <path
     style="fill:#58595b"
     inkscape:connector-curvature="0"
     id="path12365"
     d="m 227.22458,104.47768 c -3.68,-6.379997 -3,-10.619997 -1.26,-16.249997 0.46,-1.47 1.07,-2.9 1.71,-4.43 1.51,-3.57 3.07,-7.27 2.65,-11.4 -0.28,-2.72 -2.1,-5.28 -3.86,-7.75 -1.47,-2.07 -2.85,-4 -3.22,-5.92 a 18.42,18.42 0 0 1 0.08,-7.44 12.11,12.11 0 0 0 0.23,-4.29 c -0.63,-3.82 -3.92,-6.56 -4,-6.6 l 0.88,-0.19 a 11.6,11.6 0 0 1 3.82,6.66 12.94,12.94 0 0 1 -0.23,4.55 17.81,17.81 0 0 0 -0.09,7.17 c 0.34,1.74 1.68,3.63 3.1,5.62 1.82,2.56 3.7,5.2 4,8.12 0.43,4.32 -1.16,8.1 -2.71,11.76 -0.64,1.51 -1.24,2.93 -1.69,4.37 -1.7,5.43 -2.27,9.64 1.28,15.779997 z"
     class="cls-8" />
  <path
     style="fill:#58595b"
     inkscape:connector-curvature="0"
     id="path12367"
     d="m 230.93458,65.237683 c -1.58,-2.33 -3.22,-4.74 -3.85,-7.45 a 18.08,18.08 0 0 1 0,-6.48 c 0.46,-3.63 1.11,-7.15 -2.72,-11.39 h -1 c 4.11,4.2 3.45,7.53 3,11.3 a 18.61,18.61 0 0 0 0,6.74 c 0.66,2.84 2.34,5.31 4,7.7 2.87,4.22 5.83,7.63 3,13.4 l 0.71,0.31 c 2.97,-6.17 -0.26,-9.89 -3.14,-14.13 z"
     class="cls-8" />
  <path
     style="fill:#58595b"
     inkscape:connector-curvature="0"
     id="path12369"
     d="m 237.00458,68.577683 a 32.77,32.77 0 0 0 -2.65,-3.44 c -1.7,-2 -3.63,-4.32 -4.12,-6.28 a 16.4,16.4 0 0 1 0.21,-6.25 21.15,21.15 0 0 0 0.38,-5.39 14.43,14.43 0 0 0 -2.25,-6.29 11,11 0 0 1 -1.23,-0.4 14.65,14.65 0 0 1 2.73,6.78 20.62,20.62 0 0 1 -0.37,5.18 17.1,17.1 0 0 0 -0.2,6.55 c 0.53,2.13 2.43,4.4 4.27,6.59 a 30.65,30.65 0 0 1 2.59,3.34 c 2.48,4 1.34,7 -0.11,10.86 -0.15,0.41 0,0 -0.15,0.41 l 0.7,0.26 c 0.15,-0.42 0,0 0.15,-0.4 1.46,-3.86 2.72,-7.18 0.05,-11.52 z"
     class="cls-8" />
  <polygon
     style="fill:#58595b"
     id="polygon12371"
     points="250.79,304.8 257.65,318.85 245.98,325.12 241.48,312.52 "
     class="cls-8"
     transform="translate(-8.0654226,-223.52232)" />
  <path
     style="fill:#af97c7"
     inkscape:connector-curvature="0"
     id="path12373"
     d="m 237.93458,101.59768 1.5,6.35 c 0,0 -34.76,17.95 -32.73,26.41 1.31,1.74 9.08,-3.65 9.08,-3.65 l 33.15,-16.56 c 0,0 2,-5.48 -0.94,-17.899997 z"
     class="cls-3" />
  <path
     style="fill:#af97c7"
     inkscape:connector-curvature="0"
     id="path12375"
     d="m 206.68458,134.35768 0.73,3.34 c 0,0 2.07,1.88 2.32,-0.72 0.55,0.91 2,0.79 1.89,-0.81 0.31,0.91 1.88,1.55 1.86,-1.05 0.31,1.4 2.46,1.77 2.44,-1 -0.02,-2.77 -0.21,-4.49 -0.21,-4.49 z"
     class="cls-3" />
  <path
     style="fill:#9c6bad"
     inkscape:connector-curvature="0"
     id="path12377"
     d="m 209.51458,137.85768 -0.8,-4.2 a 0.37,0.37 0 0 1 0.3,-0.44 0.37,0.37 0 0 1 0.43,0.3 l 0.75,3.9 -0.4,-0.26 z"
     class="cls-4" />
  <path
     style="fill:#9c6bad"
     inkscape:connector-curvature="0"
     id="path12379"
     d="m 211.42458,137.13768 -0.81,-4.4 a 0.36,0.36 0 0 1 0.3,-0.43 0.36,0.36 0 0 1 0.43,0.3 l 0.79,4.2 -0.4,-0.25 z"
     class="cls-4" />
  <path
     style="fill:#9c6bad"
     inkscape:connector-curvature="0"
     id="path12381"
     d="m 213.32458,136.32768 -0.82,-4.5 a 0.39,0.39 0 0 1 0.31,-0.44 0.38,0.38 0 0 1 0.43,0.31 l 0.78,4.26 -0.49,-0.41 z"
     class="cls-4" />
</svg>
