<?xml version="1.0" encoding="utf-8"?>
<!-- Generator: Adobe Illustrator 17.0.0, SVG Export Plug-In . SVG Version: 6.00 Build 0)  -->
<!DOCTYPE svg PUBLIC "-//W3C//DTD SVG 1.1//EN" "http://www.w3.org/Graphics/SVG/1.1/DTD/svg11.dtd">
<svg version="1.1" xmlns="http://www.w3.org/2000/svg" xmlns:xlink="http://www.w3.org/1999/xlink" x="0px" y="0px" width="1584px"
	 height="1224px" viewBox="-3381.753 27.91 1584 1224" enable-background="new -3381.753 27.91 1584 1224" xml:space="preserve">
<g id="Guides" display="none">
</g>
<g id="Spacer" display="none">
</g>
<g id="Layer_1">
	<g id="_x30_0">
		<rect x="-3381.753" y="27.91" fill="#FFFFFF" width="1584" height="1224"/>
		<g>
			<text transform="matrix(1 0 0 1 -3316.5593 168.5096)" fill="#4A90D9" font-family="'MyriadPro-Bold'" font-size="100">[0]</text>
		</g>
		<g>
			<text transform="matrix(1 0 0 1 -3309.7532 241.5192)" fill="#4A90D9" font-family="'MyriadPro-Bold'" font-size="50">Three Structure Types</text>
		</g>
		<g>
			<text transform="matrix(1 0 0 1 -3309.7529 344.3601)" fill="#AAAAAA" font-family="'MyriadPro-Bold'" font-size="40">Step-by-step</text>
		</g>
		<g>
			<text transform="matrix(1 0 0 1 -2814.3564 344.36)" fill="#AAAAAA" font-family="'MyriadPro-Bold'" font-size="40">Show/Hide</text>
		</g>
		<g>
			<text transform="matrix(1 0 0 1 -2318.8516 344.3602)" fill="#AAAAAA" font-family="'MyriadPro-Bold'" font-size="40">Openface</text>
		</g>
		<g>
			<g>
				<path fill="#EDEDED" d="M-2365.257,559.334h-449.099V606.9h449.099L-2365.257,559.334L-2365.257,559.334z"/>
			</g>
			<g>
				<path fill="#EDEDED" d="M-2365.257,392.937h-449.099v166.397h449.099L-2365.257,392.937L-2365.257,392.937z"/>
			</g>
			<line fill="none" stroke="#AAAAAA" stroke-miterlimit="10" x1="-2814.356" y1="559.334" x2="-2365.257" y2="559.334"/>
			<path fill="#EDEDED" d="M-2814.356,392.937v-29.5c0-2.472,2.004-4.476,4.476-4.476h440.147c2.472,0,4.476,2.004,4.476,4.476v29.5
				H-2814.356z"/>
			<g>
				<path fill="#AAAAAA" d="M-2790.165,371.721l-4.246,4.246l4.083,4.083l-1.084,1.084l-4.083-4.083l-4.282,4.282l-1.156-1.156
					l4.282-4.282l-4.084-4.084l1.084-1.084l4.084,4.084l4.246-4.246L-2790.165,371.721z"/>
			</g>
			<line fill="none" stroke="#AAAAAA" stroke-miterlimit="10" x1="-2814.356" y1="392.937" x2="-2365.257" y2="392.937"/>
			<g>
				<text transform="matrix(1 0 0 1 -2659.0371 427.196)" fill="#AAAAAA" font-family="'MyriadPro-Regular'" font-size="18">Welcome to Tails.  </text>
			</g>
			<g>
				<text transform="matrix(1 0 0 1 -2693.0386 442.196)" fill="#AAAAAA" font-family="'MyriadPro-Regular'" font-size="10.4442">These are your DEFAULT configuration settings.</text>
			</g>
			
				<text transform="matrix(1 0 0 1 -2639.498 464.2271)" fill="#4A90D9" font-family="'MyriadPro-Regular'" font-size="10.4442" text-decoration=" underline">Learn more about Tails</text>
			<g>
				<path fill="#4A90D9" d="M-2621.836,594.439c0,0.775,0.628,1.404,1.404,1.404h59.055c0.775,0,1.404-0.629,1.404-1.404v-21.201
					c0-0.775-0.628-1.404-1.404-1.404h-59.055c-0.775,0-1.404,0.628-1.404,1.404V594.439z"/>
				<text transform="matrix(1 0 0 1 -2611.9019 587.5503)" fill="#FFFFFF" font-family="'MyriadPro-Regular'" font-size="10.4442">Start Tails</text>
			</g>
			<g>
				<text transform="matrix(1 0 0 1 -2760.7422 553.0964)" fill="#AAAAAA" font-family="'MyriadPro-Bold'" font-size="10">Settings</text>
			</g>
			<g>
				<g>
					<path fill="#AAAAAA" d="M-2714.243,553.985v-2.658h-2.548v-1.134h2.548v-2.694h1.194v2.694h2.549v1.134h-2.549v2.658H-2714.243
						z"/>
				</g>
			</g>
			<g>
				<polygon fill="#FFFFFF" points="-2702.325,576.434 -2702.325,560.419 -2690.734,572.038 -2697.515,572.038 -2697.926,572.162 
									"/>
				<polygon fill="#FFFFFF" points="-2693.241,577.108 -2696.846,578.643 -2701.528,567.554 -2697.842,566.001 				"/>
				
					<rect x="-2698.166" y="569.238" transform="matrix(-0.922 0.3871 -0.3871 -0.922 -4962.1924 2145.8025)" width="2" height="7.999"/>
				<polygon points="-2701.325,562.826 -2701.325,574.014 -2698.356,571.148 -2697.928,571.009 -2693.16,571.009 				"/>
			</g>
			<rect x="-2760.742" y="506.904" fill="#6EA6E1" width="160.764" height="20.147"/>
			<rect x="-2579.831" y="506.904" fill="#FFFFFF" width="160.959" height="20.147"/>
			<rect x="-2579.831" y="506.904" fill="#CCCCCC" width="20.147" height="20.147"/>
			
				<rect x="-2579.831" y="506.904" fill="none" stroke="#AAAAAA" stroke-width="0.5595" stroke-miterlimit="10" width="160.959" height="20.147"/>
			<text transform="matrix(1 0 0 1 -2724.3076 519.9194)" fill="#FFFFFF" font-family="'MyriadPro-Regular'" font-size="8.9521">Configure Encrypted Storage</text>
			<text transform="matrix(1 0 0 1 -2760.7422 500.1885)" fill="#AAAAAA" font-family="'MyriadPro-Bold'" font-size="10">Storage</text>
			
				<text transform="matrix(1 0 0 1 -2594.3101 519.9194)" fill="#AAAAAA" font-family="'MyriadPro-Regular'" font-size="10.4442" text-decoration=" underline">or</text>
			<rect x="-2760.741" y="506.904" fill="#4A90D9" width="20.147" height="20.147"/>
			
				<rect x="-2760.742" y="506.904" fill="none" stroke="#AAAAAA" stroke-width="0.3837" stroke-miterlimit="10" width="160.764" height="20.147"/>
			<path fill="#FFFFFF" d="M-2746.972,521.413h-7.393v-5.175h0.986v-0.986c0-1.497,1.214-2.711,2.711-2.711s2.711,1.214,2.711,2.711
				v0.986h0.986L-2746.972,521.413L-2746.972,521.413z M-2750.668,514.02c-0.68,0-1.232,0.551-1.232,1.232v0.986h2.464v-0.986
				C-2749.436,514.571-2749.988,514.02-2750.668,514.02z"/>
			
				<line fill="none" stroke="#AAAAAA" stroke-width="0.5595" stroke-miterlimit="10" x1="-2559.684" y1="506.904" x2="-2559.684" y2="527.05"/>
			<g>
				<text transform="matrix(1 0 0 1 -2553.9404 519.9932)" fill="#EDEDED" font-family="'MyriadPro-Regular'" font-size="8.9521">Enter your passphrase to unlock</text>
			</g>
			<text transform="matrix(1 0 0 1 -2555.188 519.4286)" fill="#AAAAAA" font-family="'MyriadPro-Regular'" font-size="10.4442">|</text>
			<path fill="#AAAAAA" d="M-2566.123,522.05h-7.393v-5.175h0.986v-0.986c0-1.497,1.214-2.711,2.711-2.711
				c0.929,0,1.708,0.497,2.197,1.209l-1.055,1.055c-0.179-0.459-0.62-0.786-1.142-0.786c-0.681,0-1.232,0.551-1.232,1.232v0.986
				h4.928V522.05z"/>
		</g>
		<g>
			<g>
				<g>
					<path fill="#EDEDED" d="M-2860.654,392.937h-449.099v209.908h449.099V392.937L-2860.654,392.937z"/>
				</g>
			</g>
			<path fill="#EDEDED" d="M-3309.753,392.937v-29.5c0-2.472,2.004-4.476,4.476-4.476h440.146c2.472,0,4.476,2.004,4.476,4.476v29.5
				H-3309.753z"/>
			<g>
				<path fill="#AAAAAA" d="M-3285.562,371.721l-4.246,4.246l4.083,4.083l-1.084,1.084l-4.083-4.083l-4.282,4.282l-1.156-1.156
					l4.282-4.282l-4.084-4.084l1.084-1.084l4.084,4.084l4.246-4.246L-3285.562,371.721z"/>
			</g>
			<line fill="none" stroke="#AAAAAA" stroke-miterlimit="10" x1="-3309.753" y1="392.937" x2="-2860.654" y2="392.937"/>
			<text transform="matrix(1 0 0 1 -3256.1384 500.1882)" fill="#AAAAAA" font-family="'MyriadPro-Bold'" font-size="10.4442">Storage</text>
			<g>
				<text transform="matrix(1 0 0 1 -3154.4333 427.196)" fill="#AAAAAA" font-family="'MyriadPro-Regular'" font-size="18">Welcome to Tails.  </text>
			</g>
			<g>
				<text transform="matrix(1 0 0 1 -3188.4353 442.196)" fill="#AAAAAA" font-family="'MyriadPro-Regular'" font-size="10.4442">These are your DEFAULT configuration settings.</text>
			</g>
			
				<text transform="matrix(1 0 0 1 -3134.8943 464.2271)" fill="#4A90D9" font-family="'MyriadPro-Regular'" font-size="10.4442" text-decoration=" underline">Learn more about Tails</text>
			<g>
				<path fill="#4A90D9" d="M-3117.233,582.398c0,0.775,0.629,1.404,1.404,1.404h59.055c0.775,0,1.404-0.629,1.404-1.404v-21.201
					c0-0.775-0.629-1.404-1.404-1.404h-59.055c-0.775,0-1.404,0.628-1.404,1.404V582.398z"/>
				<text transform="matrix(1 0 0 1 -3100.7175 575.5094)" fill="#FFFFFF" font-family="'MyriadPro-Regular'" font-size="10.4442">Next &gt;</text>
			</g>
			<rect x="-3256.138" y="506.904" fill="#6EA6E1" width="160.764" height="20.147"/>
			<rect x="-3075.228" y="506.904" fill="#FFFFFF" width="160.959" height="20.147"/>
			<rect x="-3075.228" y="506.904" fill="#CCCCCC" width="20.147" height="20.147"/>
			
				<rect x="-3075.228" y="506.904" fill="none" stroke="#AAAAAA" stroke-width="0.5595" stroke-miterlimit="10" width="160.959" height="20.147"/>
			<text transform="matrix(1 0 0 1 -3219.7039 519.9194)" fill="#FFFFFF" font-family="'MyriadPro-Regular'" font-size="8.9521">Configure Encrypted Storage</text>
			
				<text transform="matrix(1 0 0 1 -3089.7068 519.9194)" fill="#AAAAAA" font-family="'MyriadPro-Regular'" font-size="10.4442" text-decoration=" underline">or</text>
			<rect x="-3256.139" y="506.904" fill="#4A90D9" width="20.147" height="20.147"/>
			
				<rect x="-3256.138" y="506.904" fill="none" stroke="#AAAAAA" stroke-width="0.3837" stroke-miterlimit="10" width="160.764" height="20.147"/>
			<path fill="#FFFFFF" d="M-3242.369,521.413h-7.393v-5.175h0.986v-0.986c0-1.497,1.213-2.711,2.71-2.711s2.711,1.214,2.711,2.711
				v0.986h0.986V521.413z M-3246.065,514.02c-0.68,0-1.232,0.551-1.232,1.232v0.986h2.464v-0.986
				C-3244.833,514.571-3245.384,514.02-3246.065,514.02z"/>
			
				<line fill="none" stroke="#AAAAAA" stroke-width="0.5595" stroke-miterlimit="10" x1="-3055.081" y1="506.904" x2="-3055.081" y2="527.05"/>
			<g>
				<text transform="matrix(1 0 0 1 -3049.3372 519.9932)" fill="#EDEDED" font-family="'MyriadPro-Regular'" font-size="8.9521">Enter your passphrase to unlock</text>
			</g>
			<text transform="matrix(1 0 0 1 -3050.5847 519.4286)" fill="#AAAAAA" font-family="'MyriadPro-Regular'" font-size="10.4442">|</text>
			<path fill="#AAAAAA" d="M-3061.52,522.05h-7.393v-5.175h0.986v-0.986c0-1.497,1.214-2.711,2.711-2.711
				c0.929,0,1.708,0.497,2.197,1.209l-1.055,1.055c-0.179-0.459-0.62-0.786-1.142-0.786c-0.68,0-1.232,0.551-1.232,1.232v0.986
				h4.928V522.05z"/>
			<g>
				<polygon fill="#FFFFFF" points="-3038.416,572.904 -3038.416,556.889 -3026.825,568.508 -3033.606,568.508 -3034.017,568.632 
									"/>
				<polygon fill="#FFFFFF" points="-3029.332,573.578 -3032.937,575.113 -3037.619,564.024 -3033.933,562.471 				"/>
				
					<rect x="-3034.256" y="565.708" transform="matrix(-0.922 0.3871 -0.3871 -0.922 -5609.5405 2269.1108)" width="2" height="7.999"/>
				<polygon points="-3037.416,559.296 -3037.416,570.484 -3034.447,567.618 -3034.019,567.479 -3029.251,567.479 				"/>
			</g>
		</g>
		<g>
			<g>
				<g>
					<path fill="#EDEDED" d="M-1869.753,392.937h-449.099v382.718h449.099L-1869.753,392.937L-1869.753,392.937z"/>
				</g>
				<rect x="-2265.237" y="506.904" fill="#6EA6E1" width="160.764" height="20.147"/>
				<rect x="-2084.326" y="506.904" fill="#FFFFFF" width="160.959" height="20.147"/>
				<rect x="-2084.327" y="506.904" fill="#CCCCCC" width="20.147" height="20.147"/>
				
					<rect x="-2084.326" y="506.904" fill="none" stroke="#AAAAAA" stroke-width="0.5595" stroke-miterlimit="10" width="160.959" height="20.147"/>
				<text transform="matrix(1 0 0 1 -2228.8018 519.9193)" fill="#FFFFFF" font-family="'MyriadPro-Regular'" font-size="8.9521">Configure Encrypted Storage</text>
				<path fill="#EDEDED" d="M-2318.852,392.937v-29.5c0-2.472,2.004-4.476,4.476-4.476h440.147c2.472,0,4.476,2.004,4.476,4.476
					v29.5H-2318.852z"/>
				<g>
					<path fill="#AAAAAA" d="M-2294.66,371.721l-4.246,4.246l4.083,4.083l-1.084,1.084l-4.083-4.083l-4.282,4.282l-1.156-1.156
						l4.282-4.282l-4.084-4.084l1.084-1.084l4.084,4.084l4.246-4.246L-2294.66,371.721z"/>
				</g>
				<line fill="none" stroke="#AAAAAA" stroke-miterlimit="10" x1="-2318.852" y1="392.937" x2="-1869.753" y2="392.937"/>
				<text transform="matrix(1 0 0 1 -2265.2373 500.188)" fill="#AAAAAA" font-family="'MyriadPro-Bold'" font-size="10">Storage</text>
				
					<text transform="matrix(1 0 0 1 -2098.8047 519.9189)" fill="#AAAAAA" font-family="'MyriadPro-Regular'" font-size="10.4442" text-decoration=" underline">or</text>
				<g>
					<text transform="matrix(1 0 0 1 -2163.5322 427.1959)" fill="#AAAAAA" font-family="'MyriadPro-Regular'" font-size="18">Welcome to Tails.  </text>
				</g>
				<g>
					<text transform="matrix(1 0 0 1 -2197.5337 442.1959)" fill="#AAAAAA" font-family="'MyriadPro-Regular'" font-size="10.4442">These are your DEFAULT configuration settings.</text>
				</g>
				<g>
					
						<text transform="matrix(1 0 0 1 -2143.9927 464.2278)" fill="#4A90D9" font-family="'MyriadPro-Regular'" font-size="10.4442" text-decoration=" underline">Learn more about Tails</text>
				</g>
				<g>
					<path fill="#4A90D9" d="M-2126.331,751.385c0,0.775,0.628,1.404,1.404,1.404h59.055c0.775,0,1.404-0.628,1.404-1.404v-21.201
						c0-0.775-0.628-1.404-1.404-1.404h-59.055c-0.775,0-1.404,0.629-1.404,1.404V751.385z"/>
					<text transform="matrix(1 0 0 1 -2116.3965 744.4951)" fill="#FFFFFF" font-family="'MyriadPro-Regular'" font-size="10.4442">Start Tails</text>
				</g>
				<rect x="-2265.237" y="506.904" fill="#4A90D9" width="20.147" height="20.147"/>
				
					<rect x="-2265.237" y="506.904" fill="none" stroke="#AAAAAA" stroke-width="0.3837" stroke-miterlimit="10" width="160.764" height="20.147"/>
				<path fill="#FFFFFF" d="M-2251.467,521.413h-7.393v-5.175h0.986v-0.986c0-1.497,1.214-2.711,2.711-2.711
					s2.711,1.214,2.711,2.711v0.986h0.986L-2251.467,521.413L-2251.467,521.413z M-2255.164,514.02c-0.68,0-1.232,0.551-1.232,1.232
					v0.986h2.465v-0.986C-2253.931,514.571-2254.483,514.02-2255.164,514.02z"/>
				
					<line fill="none" stroke="#AAAAAA" stroke-width="0.5595" stroke-miterlimit="10" x1="-2064.18" y1="506.904" x2="-2064.18" y2="527.05"/>
				<g>
					<text transform="matrix(1 0 0 1 -2058.4351 519.9927)" fill="#EDEDED" font-family="'MyriadPro-Regular'" font-size="8.9521">Enter your passphrase to unlock</text>
				</g>
				<text transform="matrix(1 0 0 1 -2059.6836 519.4289)" fill="#AAAAAA" font-family="'MyriadPro-Regular'" font-size="10.4442">|</text>
				<path fill="#AAAAAA" d="M-2070.618,522.05h-7.393v-5.175h0.986v-0.986c0-1.497,1.214-2.711,2.711-2.711
					c0.929,0,1.708,0.497,2.197,1.209l-1.055,1.055c-0.179-0.459-0.62-0.786-1.142-0.786c-0.68,0-1.232,0.552-1.232,1.232v0.986
					h4.929L-2070.618,522.05L-2070.618,522.05z"/>
				<g>
					<polygon fill="#FFFFFF" points="-2032.013,751.207 -2032.013,735.192 -2020.422,746.811 -2027.203,746.811 -2027.614,746.935 
											"/>
					<polygon fill="#FFFFFF" points="-2022.929,751.882 -2026.533,753.416 -2031.216,742.327 -2027.53,740.775 					"/>
					
						<rect x="-2027.814" y="743.998" transform="matrix(-0.922 0.3871 -0.3871 -0.922 -3606.0986 2222.2219)" width="2" height="7.999"/>
					<polygon points="-2031.013,737.599 -2031.013,748.787 -2028.044,745.922 -2027.616,745.783 -2022.848,745.783 					"/>
				</g>
			</g>
			<g>
				<text transform="matrix(1 0 0 1 -2032.3672 553.1404)" fill="#AAAAAA" font-family="'MyriadPro-Regular'" font-size="8.9521">Save Settings Preferences</text>
			</g>
			
				<rect x="-1931.27" y="547.793" fill="none" stroke="#AAAAAA" stroke-width="0.5595" stroke-miterlimit="10" width="5.437" height="5.437"/>
			<text transform="matrix(1 0 0 1 -2265.2373 553.1401)" fill="#AAAAAA" font-family="'MyriadPro-Bold'" font-size="10">Settings</text>
		</g>
		<g>
			<g>
				<path fill="#EDEDED" d="M-2365.222,1004.625h-449.099v46.121h449.099L-2365.222,1004.625L-2365.222,1004.625z"/>
			</g>
			<g>
				<g>
					<rect x="-2814.249" y="829.804" fill="#CCCCCC" width="449.099" height="175.615"/>
				</g>
				
					<rect x="-2760.634" y="937.848" fill="#FFFFFF" stroke="#AAAAAA" stroke-width="0.5595" stroke-miterlimit="10" width="341.673" height="60.423"/>
				
					<rect x="-2760.634" y="850.554" fill="#FFFFFF" stroke="#AAAAAA" stroke-width="0.5595" stroke-miterlimit="10" width="341.673" height="80.569"/>
				<g>
					<text transform="matrix(1 0 0 1 -2747.2061 863.9782)" fill="#AAAAAA" font-family="'MyriadPro-Regular'" font-size="8.9521">Text Language</text>
					<text transform="matrix(1 0 0 1 -2747.2061 884.1212)" fill="#AAAAAA" font-family="'MyriadPro-Regular'" font-size="8.9521">Keyboard Language</text>
					<text transform="matrix(1 0 0 1 -2747.2061 904.2621)" fill="#AAAAAA" font-family="'MyriadPro-Regular'" font-size="8.9521">Formats</text>
					<text transform="matrix(1 0 0 1 -2747.2061 924.4052)" fill="#AAAAAA" font-family="'MyriadPro-Regular'" font-size="8.9521">Time Zone</text>
				</g>
				<g>
					<text transform="matrix(1 0 0 1 -2476.6746 863.9791)" fill="#AAAAAA" font-family="'MyriadPro-Regular'" font-size="8.9521">English [US]</text>
					<text transform="matrix(1 0 0 1 -2476.6746 884.122)" fill="#AAAAAA" font-family="'MyriadPro-Regular'" font-size="8.9521">English [US]</text>
					<text transform="matrix(1 0 0 1 -2482.3225 904.263)" fill="#AAAAAA" font-family="'MyriadPro-Regular'" font-size="8.9521">United States</text>
					<text transform="matrix(1 0 0 1 -2469.9424 924.4061)" fill="#AAAAAA" font-family="'MyriadPro-Regular'" font-size="8.9521">04:21 UTC</text>
				</g>
				
					<line fill="none" stroke="#AAAAAA" stroke-width="0.5595" stroke-miterlimit="10" x1="-2760.635" y1="870.696" x2="-2418.961" y2="870.696"/>
				
					<line fill="none" stroke="#AAAAAA" stroke-width="0.5595" stroke-miterlimit="10" x1="-2760.635" y1="890.839" x2="-2418.961" y2="890.839"/>
				
					<line fill="none" stroke="#AAAAAA" stroke-width="0.5595" stroke-miterlimit="10" x1="-2760.635" y1="910.981" x2="-2418.961" y2="910.981"/>
				
					<line fill="none" stroke="#AAAAAA" stroke-width="0.5595" stroke-miterlimit="10" x1="-2760.635" y1="978.13" x2="-2418.961" y2="978.13"/>
				
					<line fill="none" stroke="#AAAAAA" stroke-width="0.5595" stroke-miterlimit="10" x1="-2760.635" y1="957.987" x2="-2418.961" y2="957.987"/>
				<g>
					<text transform="matrix(1 0 0 1 -2747.2061 951.2718)" fill="#AAAAAA" font-family="'MyriadPro-Regular'" font-size="8.9521">Windows Camouflage</text>
					<text transform="matrix(1 0 0 1 -2747.2061 971.4149)" fill="#AAAAAA" font-family="'MyriadPro-Regular'" font-size="8.9521">Mac Spoofing</text>
					<text transform="matrix(1 0 0 1 -2747.2061 991.5558)" fill="#AAAAAA" font-family="'MyriadPro-Regular'" font-size="8.9521">Network Configuration</text>
				</g>
				<g>
					<text transform="matrix(1 0 0 1 -2443.5261 950.5266)" fill="#AAAAAA" font-family="'MyriadPro-Regular'" font-size="8.9521">On</text>
					<text transform="matrix(1 0 0 1 -2443.7761 970.6696)" fill="#AAAAAA" font-family="'MyriadPro-Regular'" font-size="8.9521">Off</text>
					<text transform="matrix(1 0 0 1 -2443.7761 990.8106)" fill="#AAAAAA" font-family="'MyriadPro-Regular'" font-size="8.9521">Off</text>
				</g>
			</g>
			<g>
				<path fill="#EDEDED" d="M-2365.222,676.876h-449.099v166.55h449.099L-2365.222,676.876L-2365.222,676.876z"/>
			</g>
			<path fill="#EDEDED" d="M-2814.321,676.876v-29.5c0-2.472,2.004-4.476,4.476-4.476h440.147c2.472,0,4.476,2.004,4.476,4.476v29.5
				H-2814.321z"/>
			<g>
				<path fill="#AAAAAA" d="M-2790.129,655.66l-4.246,4.246l4.083,4.083l-1.084,1.084l-4.083-4.083l-4.282,4.282l-1.156-1.156
					l4.282-4.282l-4.084-4.084l1.084-1.084l4.084,4.084l4.246-4.246L-2790.129,655.66z"/>
			</g>
			<line fill="none" stroke="#AAAAAA" stroke-miterlimit="10" x1="-2814.321" y1="676.876" x2="-2365.222" y2="676.876"/>
			<text transform="matrix(1 0 0 1 -2760.7065 784.1273)" fill="#AAAAAA" font-family="'MyriadPro-Bold'" font-size="10">Storage</text>
			<g>
				<text transform="matrix(1 0 0 1 -2659.0015 711.1351)" fill="#AAAAAA" font-family="'MyriadPro-Regular'" font-size="18">Welcome to Tails.  </text>
			</g>
			<g>
				<text transform="matrix(1 0 0 1 -2693.0034 726.1351)" fill="#AAAAAA" font-family="'MyriadPro-Regular'" font-size="10.4442">These are your DEFAULT configuration settings.</text>
			</g>
			
				<text transform="matrix(1 0 0 1 -2639.4624 748.166)" fill="#4A90D9" font-family="'MyriadPro-Regular'" font-size="10.4442" text-decoration=" underline">Learn more about Tails</text>
			<g>
				<path fill="#4A90D9" d="M-2621.8,1039.731c0,0.775,0.628,1.404,1.404,1.404h59.055c0.775,0,1.404-0.628,1.404-1.404v-21.201
					c0-0.775-0.628-1.404-1.404-1.404h-59.055c-0.775,0-1.404,0.628-1.404,1.404V1039.731z"/>
				<text transform="matrix(1 0 0 1 -2611.8662 1032.842)" fill="#FFFFFF" font-family="'MyriadPro-Regular'" font-size="10.4442">Start Tails</text>
			</g>
			<g>
				<text transform="matrix(1 0 0 1 -2760.707 837.086)" fill="#AAAAAA" font-family="'MyriadPro-Bold'" font-size="10">Settings</text>
			</g>
			<g>
				<g>
					<path fill="#AAAAAA" d="M-2716.326,836.603l1.879-1.879l-1.802-1.802l0.802-0.802l1.802,1.802l1.905-1.905l0.844,0.844
						l-1.905,1.905l1.802,1.802l-0.802,0.802l-1.802-1.802l-1.879,1.879L-2716.326,836.603z"/>
				</g>
			</g>
			<g>
				<text transform="matrix(1 0 0 1 -2527.8359 837.0783)" fill="#AAAAAA" font-family="'MyriadPro-Regular'" font-size="8.9521">Save Settings Preferences</text>
			</g>
			<g>
				<polygon fill="#FFFFFF" points="-2542.442,1036.034 -2542.442,1020.018 -2530.852,1031.638 -2537.632,1031.638 
					-2538.043,1031.762 				"/>
				<polygon fill="#FFFFFF" points="-2533.358,1036.708 -2536.963,1038.243 -2541.645,1027.154 -2537.959,1025.601 				"/>
				
					<rect x="-2538.261" y="1028.855" transform="matrix(-0.922 0.3871 -0.3871 -0.922 -4476.9395 2967.3132)" width="2" height="7.999"/>
				<polygon points="-2541.442,1022.426 -2541.442,1033.614 -2538.473,1030.748 -2538.045,1030.609 -2533.277,1030.609 				"/>
			</g>
			
				<rect x="-2424.398" y="831.86" fill="none" stroke="#AAAAAA" stroke-width="0.5595" stroke-miterlimit="10" width="5.437" height="5.743"/>
			<rect x="-2760.742" y="790.842" fill="#6EA6E1" width="160.764" height="20.147"/>
			<rect x="-2579.831" y="790.842" fill="#FFFFFF" width="160.959" height="20.147"/>
			<rect x="-2579.831" y="790.842" fill="#CCCCCC" width="20.147" height="20.147"/>
			
				<rect x="-2579.831" y="790.842" fill="none" stroke="#AAAAAA" stroke-width="0.5595" stroke-miterlimit="10" width="160.959" height="20.147"/>
			<text transform="matrix(1 0 0 1 -2724.3076 803.8578)" fill="#FFFFFF" font-family="'MyriadPro-Regular'" font-size="8.9521">Configure Encrypted Storage</text>
			
				<text transform="matrix(1 0 0 1 -2594.3101 803.8577)" fill="#AAAAAA" font-family="'MyriadPro-Regular'" font-size="10.4442" text-decoration=" underline">or</text>
			<rect x="-2760.741" y="790.842" fill="#4A90D9" width="20.147" height="20.147"/>
			
				<rect x="-2760.742" y="790.842" fill="none" stroke="#AAAAAA" stroke-width="0.3837" stroke-miterlimit="10" width="160.764" height="20.147"/>
			<path fill="#FFFFFF" d="M-2746.972,805.351h-7.393v-5.175h0.986v-0.986c0-1.497,1.214-2.711,2.711-2.711s2.711,1.214,2.711,2.711
				v0.986h0.986L-2746.972,805.351L-2746.972,805.351z M-2750.668,797.959c-0.68,0-1.232,0.551-1.232,1.232v0.986h2.464v-0.986
				C-2749.436,798.51-2749.988,797.959-2750.668,797.959z"/>
			
				<line fill="none" stroke="#AAAAAA" stroke-width="0.5595" stroke-miterlimit="10" x1="-2559.684" y1="790.842" x2="-2559.684" y2="810.989"/>
			<g>
				<text transform="matrix(1 0 0 1 -2553.9404 803.9315)" fill="#EDEDED" font-family="'MyriadPro-Regular'" font-size="8.9521">Enter your passphrase to unlock</text>
			</g>
			<text transform="matrix(1 0 0 1 -2555.188 803.3671)" fill="#AAAAAA" font-family="'MyriadPro-Regular'" font-size="10.4442">|</text>
			<path fill="#AAAAAA" d="M-2566.123,805.989h-7.393v-5.175h0.986v-0.986c0-1.497,1.214-2.711,2.711-2.711
				c0.929,0,1.708,0.497,2.197,1.209l-1.055,1.055c-0.179-0.459-0.62-0.786-1.142-0.786c-0.681,0-1.232,0.552-1.232,1.232v0.986
				h4.928V805.989z"/>
		</g>
		<text transform="matrix(1 0 0 1 -2814.2493 1103.8052)" fill="#4A90D9" font-family="'MyriadPro-Bold'" font-size="24">Show/Hide Settings? </text>
		<rect x="-2814.249" y="1119.541" fill="none" width="449.099" height="61.629"/>
		<text transform="matrix(1 0 0 1 -2814.2493 1134.6069)" enable-background="new    "><tspan x="0" y="0" fill="#AAAAAA" font-family="'MyriadPro-Bold'" font-size="18">Allowing people to access the settings options with a </tspan><tspan x="0" y="22" fill="#AAAAAA" font-family="'MyriadPro-Bold'" font-size="18">single click provides the necessary control without the </tspan><tspan x="0" y="44" fill="#AAAAAA" font-family="'MyriadPro-Bold'" font-size="18">visual clutter.</tspan></text>
		<text transform="matrix(1 0 0 1 -3309.6814 655.9041)" fill="#4A90D9" font-family="'MyriadPro-Bold'" font-size="24">Step-by-step Guided Configuration? </text>
		<rect x="-3309.682" y="671.633" fill="none" width="448.943" height="214.949"/>
		<text transform="matrix(1 0 0 1 -3309.6814 686.6994)" enable-background="new    "><tspan x="0" y="0" fill="#AAAAAA" font-family="'MyriadPro-Bold'" font-size="18">Walking people through the configuration flow one </tspan><tspan x="0" y="22" fill="#AAAAAA" font-family="'MyriadPro-Bold'" font-size="18">step at a time allows the mind to focus on a single task </tspan><tspan x="0" y="44" fill="#AAAAAA" font-family="'MyriadPro-Bold'" font-size="18">while also providing the necessary space for more de</tspan><tspan x="421.749" y="44" fill="#AAAAAA" font-family="'MyriadPro-Bold'" font-size="18">-</tspan><tspan x="0" y="66" fill="#AAAAAA" font-family="'MyriadPro-Bold'" font-size="18">tailed information to assist people in better under</tspan><tspan x="398.727" y="66" fill="#AAAAAA" font-family="'MyriadPro-Bold'" font-size="18">-</tspan><tspan x="0" y="88" fill="#AAAAAA" font-family="'MyriadPro-Bold'" font-size="18">standing their preference settings.</tspan><tspan x="0" y="132" fill="#AAAAAA" font-family="'MyriadPro-Bold'" font-size="18">This approach is most appropriate for walking people </tspan><tspan x="0" y="154" fill="#AAAAAA" font-family="'MyriadPro-Bold'" font-size="18">through the guided configuration flow, which can</tspan><tspan x="0" y="176" fill="#AAAAAA" font-family="'MyriadPro-Bold'" font-size="18">currently be accessed by clicking on the ‘Learn more </tspan><tspan x="0" y="198" fill="#AAAAAA" font-family="'MyriadPro-Bold'" font-size="18">about Tails’ link.</tspan></text>
		
			<rect x="-2265.166" y="647.018" fill="#FFFFFF" stroke="#AAAAAA" stroke-width="0.5595" stroke-miterlimit="10" width="341.673" height="60.423"/>
		
			<rect x="-2265.166" y="559.724" fill="#FFFFFF" stroke="#AAAAAA" stroke-width="0.5595" stroke-miterlimit="10" width="341.673" height="80.569"/>
		<g>
			<text transform="matrix(1 0 0 1 -2251.738 573.1473)" fill="#AAAAAA" font-family="'MyriadPro-Regular'" font-size="8.9521">Text Language</text>
			<text transform="matrix(1 0 0 1 -2251.738 593.2903)" fill="#AAAAAA" font-family="'MyriadPro-Regular'" font-size="8.9521">Keyboard Language</text>
			<text transform="matrix(1 0 0 1 -2251.738 613.4313)" fill="#AAAAAA" font-family="'MyriadPro-Regular'" font-size="8.9521">Formats</text>
			<text transform="matrix(1 0 0 1 -2251.738 633.5743)" fill="#AAAAAA" font-family="'MyriadPro-Regular'" font-size="8.9521">Time Zone</text>
		</g>
		<g>
			<text transform="matrix(1 0 0 1 -1981.2068 573.1483)" fill="#AAAAAA" font-family="'MyriadPro-Regular'" font-size="8.9521">English [US]</text>
			<text transform="matrix(1 0 0 1 -1981.2068 593.2913)" fill="#AAAAAA" font-family="'MyriadPro-Regular'" font-size="8.9521">English [US]</text>
			<text transform="matrix(1 0 0 1 -1986.8547 613.4323)" fill="#AAAAAA" font-family="'MyriadPro-Regular'" font-size="8.9521">United States</text>
			<text transform="matrix(1 0 0 1 -1974.4749 633.5753)" fill="#AAAAAA" font-family="'MyriadPro-Regular'" font-size="8.9521">04:21 UTC</text>
		</g>
		
			<line fill="none" stroke="#AAAAAA" stroke-width="0.5595" stroke-miterlimit="10" x1="-2265.166" y1="579.866" x2="-1923.493" y2="579.866"/>
		
			<line fill="none" stroke="#AAAAAA" stroke-width="0.5595" stroke-miterlimit="10" x1="-2265.166" y1="600.008" x2="-1923.493" y2="600.008"/>
		
			<line fill="none" stroke="#AAAAAA" stroke-width="0.5595" stroke-miterlimit="10" x1="-2265.166" y1="620.151" x2="-1923.493" y2="620.151"/>
		
			<line fill="none" stroke="#AAAAAA" stroke-width="0.5595" stroke-miterlimit="10" x1="-2265.166" y1="687.299" x2="-1923.493" y2="687.299"/>
		
			<line fill="none" stroke="#AAAAAA" stroke-width="0.5595" stroke-miterlimit="10" x1="-2265.166" y1="667.157" x2="-1923.493" y2="667.157"/>
		<g>
			<text transform="matrix(1 0 0 1 -2251.738 660.441)" fill="#AAAAAA" font-family="'MyriadPro-Regular'" font-size="8.9521">Windows Camouflage</text>
			<text transform="matrix(1 0 0 1 -2251.738 680.584)" fill="#AAAAAA" font-family="'MyriadPro-Regular'" font-size="8.9521">Mac Spoofing</text>
			<text transform="matrix(1 0 0 1 -2251.738 700.725)" fill="#AAAAAA" font-family="'MyriadPro-Regular'" font-size="8.9521">Network Configuration</text>
		</g>
		<g>
			<text transform="matrix(1 0 0 1 -1948.0583 659.6959)" fill="#AAAAAA" font-family="'MyriadPro-Regular'" font-size="8.9521">On</text>
			<text transform="matrix(1 0 0 1 -1948.3083 679.8389)" fill="#AAAAAA" font-family="'MyriadPro-Regular'" font-size="8.9521">Off</text>
			<text transform="matrix(1 0 0 1 -1948.3083 699.9799)" fill="#AAAAAA" font-family="'MyriadPro-Regular'" font-size="8.9521">Off</text>
		</g>
		<text transform="matrix(1 0 0 1 -2318.8516 828.7243)" fill="#4A90D9" font-family="'MyriadPro-Bold'" font-size="24">Always Display Settings? </text>
		<g>
			<rect x="-2318.852" y="844.443" fill="none" width="449.086" height="202.859"/>
			<text transform="matrix(1 0 0 1 -2318.8516 859.5093)"><tspan x="0" y="0" fill="#AAAAAA" font-family="'MyriadPro-Bold'" font-size="18">Displaying the settings provides people with quick </tspan><tspan x="0" y="22" fill="#AAAAAA" font-family="'MyriadPro-Bold'" font-size="18">access to the important information they need.</tspan><tspan x="0" y="66" fill="#AAAAAA" font-family="'MyriadPro-Bold'" font-size="18">This approach is most appropriate for the “Quick Start” </tspan><tspan x="0" y="88" fill="#AAAAAA" font-family="'MyriadPro-Bold'" font-size="18">configuration flow, as it allows people to quickly assess </tspan><tspan x="0" y="110" fill="#AAAAAA" font-family="'MyriadPro-Bold'" font-size="18">the state of their Tails session and make changes before </tspan><tspan x="0" y="132" fill="#AAAAAA" font-family="'MyriadPro-Bold'" font-size="18">it begins.</tspan></text>
		</g>
	</g>
</g>
</svg>
