<?xml version="1.0" encoding="utf-8"?>
<!-- Generator: Adobe Illustrator 17.0.0, SVG Export Plug-In . SVG Version: 6.00 Build 0)  -->
<!DOCTYPE svg PUBLIC "-//W3C//DTD SVG 1.1//EN" "http://www.w3.org/Graphics/SVG/1.1/DTD/svg11.dtd">
<svg version="1.1" xmlns="http://www.w3.org/2000/svg" xmlns:xlink="http://www.w3.org/1999/xlink" x="0px" y="0px" width="1584px"
	 height="1224px" viewBox="-1662.581 27.91 1584 1224" enable-background="new -1662.581 27.91 1584 1224" xml:space="preserve">
<g id="Guides" display="none">
</g>
<g id="Spacer" display="none">
</g>
<g id="Layer_1">
	<g id="_x30_2">
		<rect x="-1662.581" y="27.91" fill="#FFFFFF" width="1584" height="1224"/>
		<g>
			<text transform="matrix(1 0 0 1 -1597.3877 168.5096)" fill="#4A90D9" font-family="'MyriadPro-Bold'" font-size="100">[2]</text>
		</g>
		<g>
			<text transform="matrix(1 0 0 1 -1590.5815 241.5193)" fill="#4A90D9" font-family="'MyriadPro-Bold'" font-size="50">Color Blocking</text>
		</g>
		<g>
			<text transform="matrix(1 0 0 1 -1433.9811 344.3595)" fill="#AAAAAA" font-family="'MyriadPro-Bold'" font-size="40">Blocked</text>
		</g>
		<g>
			<text transform="matrix(1 0 0 1 -756.2878 344.3596)" fill="#AAAAAA" font-family="'MyriadPro-Bold'" font-size="40">Not Blocked</text>
		</g>
		<text transform="matrix(1 0 0 1 -1433.9811 830.7862)" fill="#4A90D9" font-family="'MyriadPro-Bold'" font-size="24">Color Block Individual Sections?</text>
		<rect x="-1433.981" y="846.508" fill="none" width="449.087" height="340.115"/>
		<text transform="matrix(1 0 0 1 -1433.981 861.5746)" enable-background="new    "><tspan x="0" y="0" fill="#AAAAAA" font-family="'MyriadPro-Bold'" font-size="18">Color blocking individual sections isolates information </tspan><tspan x="0" y="22" fill="#AAAAAA" font-family="'MyriadPro-Bold'" font-size="18">in a way that allows the mind to navigate and absorb it </tspan><tspan x="0" y="44" fill="#AAAAAA" font-family="'MyriadPro-Bold'" font-size="18">with increased ease and organizational emphasis.  This </tspan><tspan x="0" y="66" fill="#AAAAAA" font-family="'MyriadPro-Bold'" font-size="18">can be used to isolate expandable sections of</tspan><tspan x="0" y="88" fill="#AAAAAA" font-family="'MyriadPro-Bold'" font-size="18">information such as in the display/hide function of a</tspan><tspan x="0" y="110" fill="#AAAAAA" font-family="'MyriadPro-Bold'" font-size="18">disclosure triangle, and may most effectively reduce </tspan><tspan x="0" y="132" fill="#AAAAAA" font-family="'MyriadPro-Bold'" font-size="18">complication when dealing with large amounts of</tspan><tspan x="0" y="154" fill="#AAAAAA" font-family="'MyriadPro-Bold'" font-size="18">information.</tspan><tspan x="0" y="198" fill="#AAAAAA" font-family="'MyriadPro-Bold'" font-size="18">This approach is most appropriate when the informa</tspan><tspan x="419.21" y="198" fill="#AAAAAA" font-family="'MyriadPro-Bold'" font-size="18">-</tspan><tspan x="0" y="220" fill="#AAAAAA" font-family="'MyriadPro-Bold'" font-size="18">tion </tspan><tspan x="36.107" y="220" fill="#AAAAAA" font-family="'MyriadPro-Bold'" font-size="18">can logically and effectively be grouped into sim</tspan><tspan x="430.675" y="220" fill="#AAAAAA" font-family="'MyriadPro-Bold'" font-size="18">-</tspan><tspan x="0" y="242" fill="#AAAAAA" font-family="'MyriadPro-Bold'" font-size="18">lar cat</tspan><tspan x="49.661" y="242" fill="#AAAAAA" font-family="'MyriadPro-Bold'" font-size="18">egories, and when not doing so results in confu</tspan><tspan x="426.014" y="242" fill="#AAAAAA" font-family="'MyriadPro-Bold'" font-size="18">-</tspan><tspan x="0" y="264" fill="#AAAAAA" font-family="'MyriadPro-Bold'" font-size="18">sion due to visual clutter.</tspan></text>
		<text transform="matrix(1 0 0 1 -756.2878 830.7856)" fill="#4A90D9" font-family="'MyriadPro-Bold'" font-size="24">Single Canvas?</text>
		<rect x="-756.288" y="846.508" fill="none" width="440.932" height="213.473"/>
		<text transform="matrix(1 0 0 1 -756.2879 861.5741)" enable-background="new    "><tspan x="0" y="0" fill="#AAAAAA" font-family="'MyriadPro-Bold'" font-size="18">Not color blocking sections of information keeps the </tspan><tspan x="0" y="22" fill="#AAAAAA" font-family="'MyriadPro-Bold'" font-size="18">canvas fragmentation to a minimum.</tspan><tspan x="0" y="66" fill="#AAAAAA" font-family="'MyriadPro-Bold'" font-size="18">This approach is most appropriate when the</tspan><tspan x="0" y="88" fill="#AAAAAA" font-family="'MyriadPro-Bold'" font-size="18">information cannot logically or effectively be grouped </tspan><tspan x="0" y="110" fill="#AAAAAA" font-family="'MyriadPro-Bold'" font-size="18">into similar </tspan><tspan x="94.191" y="110" fill="#AAAAAA" font-family="'MyriadPro-Bold'" font-size="18">categories and needs more verbose</tspan><tspan x="0" y="132" fill="#AAAAAA" font-family="'MyriadPro-Bold'" font-size="18">descriptors to effec</tspan><tspan x="160.953" y="132" fill="#AAAAAA" font-family="'MyriadPro-Bold'" font-size="18">tively communicate the various </tspan><tspan x="0" y="154" fill="#AAAAAA" font-family="'MyriadPro-Bold'" font-size="18">types of settings options available, or when color </tspan><tspan x="0" y="176" fill="#AAAAAA" font-family="'MyriadPro-Bold'" font-size="18">blocking would be unnecessary due to existing clarity </tspan><tspan x="0" y="198" fill="#AAAAAA" font-family="'MyriadPro-Bold'" font-size="18">in the information structure.</tspan></text>
		<g>
			<g>
				<g>
					<rect x="-1433.981" y="547.23" fill="#CCCCCC" width="449.099" height="230.497"/>
				</g>
				<g>
					<text transform="matrix(1 0 0 1 -1147.4956 569.5309)" fill="#FFFFFF" font-family="'MyriadPro-Regular'" font-size="8.9521">Save Settings Preferences</text>
				</g>
				
					<rect x="-1046.399" y="564.762" fill="#FFFFFF" stroke="#AAAAAA" stroke-width="0.5595" stroke-miterlimit="10" width="5.437" height="5.437"/>
				<g>
					<g>
						<path fill="#FFFFFF" d="M-1212.174,746.4l1.879-1.879l-1.802-1.802l0.802-0.802l1.802,1.802l1.905-1.905l0.844,0.844
							l-1.905,1.905l1.802,1.802l-0.802,0.802l-1.802-1.802l-1.879,1.879L-1212.174,746.4z"/>
					</g>
				</g>
				<g>
					<path fill="#EDEDED" d="M-984.882,392.937h-449.099v154.356h449.099V392.937L-984.882,392.937z"/>
				</g>
				<rect x="-1380.366" y="506.903" fill="#6EA6E1" width="160.764" height="20.147"/>
				<rect x="-1380.366" y="506.903" fill="#4A90D9" width="20.147" height="20.147"/>
				<rect x="-1199.456" y="506.903" fill="#FFFFFF" width="160.959" height="20.147"/>
				<rect x="-1199.456" y="506.903" fill="#CCCCCC" width="20.147" height="20.147"/>
				
					<rect x="-1199.456" y="506.903" fill="none" stroke="#AAAAAA" stroke-width="0.5595" stroke-miterlimit="10" width="160.959" height="20.147"/>
				<text transform="matrix(1 0 0 1 -1344.9307 519.9192)" fill="#FFFFFF" font-family="'MyriadPro-Regular'" font-size="8.9521">Configure Encrypted Storage</text>
				<path fill="#EDEDED" d="M-1433.981,392.937v-29.5c0-2.472,2.004-4.476,4.476-4.476h440.147c2.472,0,4.476,2.004,4.476,4.476
					v29.5H-1433.981z"/>
				<g>
					<path fill="#AAAAAA" d="M-1409.79,371.721l-4.246,4.246l4.083,4.083l-1.084,1.084l-4.083-4.083l-4.282,4.282l-1.156-1.156
						l4.282-4.282l-4.084-4.084l1.084-1.084l4.084,4.084l4.246-4.246L-1409.79,371.721z"/>
				</g>
				<line fill="none" stroke="#AAAAAA" stroke-miterlimit="10" x1="-1433.981" y1="392.937" x2="-984.882" y2="392.937"/>
				<g>
					<text transform="matrix(1 0 0 1 -1380.3661 500.1881)" fill="#AAAAAA" font-family="'MyriadPro-Bold'" font-size="10">Storage</text>
				</g>
				
					<text transform="matrix(1 0 0 1 -1213.9341 519.9191)" fill="#AAAAAA" font-family="'MyriadPro-Regular'" font-size="10.4442" text-decoration=" underline">or</text>
				<g>
					<text transform="matrix(1 0 0 1 -1278.6611 427.196)" fill="#AAAAAA" font-family="'MyriadPro-Regular'" font-size="18">Welcome to Tails.  </text>
				</g>
				<g>
					<text transform="matrix(1 0 0 1 -1312.6628 442.196)" fill="#AAAAAA" font-family="'MyriadPro-Regular'" font-size="10.4442">These are your DEFAULT configuration settings.</text>
				</g>
				
					<text transform="matrix(1 0 0 1 -1259.1221 464.2271)" fill="#4A90D9" font-family="'MyriadPro-Regular'" font-size="10.4442" text-decoration=" underline">Learn more about Tails</text>
				<g>
					<path fill="#4A90D9" d="M-1240.39,760.679c0,0.775,0.628,1.404,1.404,1.404h59.055c0.775,0,1.404-0.629,1.404-1.404v-21.201
						c0-0.775-0.628-1.404-1.404-1.404h-59.055c-0.775,0-1.404,0.629-1.404,1.404V760.679z"/>
					<text transform="matrix(1 0 0 1 -1230.4553 753.7897)" fill="#FFFFFF" font-family="'MyriadPro-Regular'" font-size="10.4442">Start Tails</text>
				</g>
				<line fill="none" x1="-1360.219" y1="506.903" x2="-1360.219" y2="527.05"/>
				
					<rect x="-1380.366" y="506.903" fill="none" stroke="#AAAAAA" stroke-width="0.3837" stroke-miterlimit="10" width="160.764" height="20.147"/>
				
					<line fill="none" stroke="#AAAAAA" stroke-width="0.5595" stroke-miterlimit="10" x1="-1179.308" y1="506.903" x2="-1179.308" y2="527.05"/>
				<g>
					<text transform="matrix(1 0 0 1 -1173.5637 519.9928)" fill="#EDEDED" font-family="'MyriadPro-Regular'" font-size="8.9521">Enter your passphrase to unlock</text>
				</g>
				<text transform="matrix(1 0 0 1 -1174.8118 519.4285)" fill="#AAAAAA" font-family="'MyriadPro-Regular'" font-size="10.4442">|</text>
				<path fill="#FFFFFF" d="M-1185.748,521.412h-7.393v-5.175h0.986v-0.986c0-1.497,1.214-2.711,2.711-2.711
					c0.929,0,1.708,0.497,2.197,1.209l-1.055,1.055c-0.179-0.459-0.62-0.786-1.142-0.786c-0.681,0-1.232,0.552-1.232,1.232v0.986
					h4.928V521.412z"/>
				<path fill="#FFFFFF" d="M-1366.596,521.412h-7.393v-5.175h0.986v-0.986c0-1.497,1.214-2.711,2.71-2.711
					c1.497,0,2.711,1.214,2.711,2.711v0.986h0.986V521.412z M-1370.293,514.02c-0.68,0-1.232,0.551-1.232,1.232v0.986h2.464v-0.986
					C-1369.061,514.571-1369.612,514.02-1370.293,514.02z"/>
				<g>
					<polygon fill="#FFFFFF" points="-1160.874,765.487 -1160.874,749.472 -1149.285,761.091 -1156.064,761.091 -1156.476,761.215 
											"/>
					<polygon fill="#FFFFFF" points="-1151.79,766.162 -1155.395,767.696 -1160.078,756.607 -1156.391,755.055 					"/>
					
						<rect x="-1156.429" y="758.168" transform="matrix(-0.922 0.3871 -0.3871 -0.922 -1925.7715 1912.1627)" width="2" height="7.999"/>
					<polygon points="-1159.874,751.879 -1159.874,763.067 -1156.905,760.202 -1156.477,760.063 -1151.709,760.063 					"/>
				</g>
				<text transform="matrix(1 0 0 1 -1380.3656 569.5306)" fill="#FFFFFF" font-family="'MyriadPro-Bold'" font-size="10">Settings</text>
			</g>
			
				<rect x="-1380.295" y="663.408" fill="#FFFFFF" stroke="#AAAAAA" stroke-width="0.5595" stroke-miterlimit="10" width="341.673" height="60.423"/>
			
				<rect x="-1380.295" y="576.114" fill="#FFFFFF" stroke="#AAAAAA" stroke-width="0.5595" stroke-miterlimit="10" width="341.673" height="80.569"/>
			<g>
				<text transform="matrix(1 0 0 1 -1366.8665 589.5373)" fill="#AAAAAA" font-family="'MyriadPro-Regular'" font-size="8.9521">Text Language</text>
				<text transform="matrix(1 0 0 1 -1366.8665 609.6803)" fill="#AAAAAA" font-family="'MyriadPro-Regular'" font-size="8.9521">Keyboard Language</text>
				<text transform="matrix(1 0 0 1 -1366.8665 629.8213)" fill="#AAAAAA" font-family="'MyriadPro-Regular'" font-size="8.9521">Formats</text>
				<text transform="matrix(1 0 0 1 -1366.8665 649.9643)" fill="#AAAAAA" font-family="'MyriadPro-Regular'" font-size="8.9521">Time Zone</text>
			</g>
			<g>
				<text transform="matrix(1 0 0 1 -1096.3351 589.5383)" fill="#AAAAAA" font-family="'MyriadPro-Regular'" font-size="8.9521">English [US]</text>
				<text transform="matrix(1 0 0 1 -1096.3351 609.6813)" fill="#AAAAAA" font-family="'MyriadPro-Regular'" font-size="8.9521">English [US]</text>
				<text transform="matrix(1 0 0 1 -1101.983 629.8223)" fill="#AAAAAA" font-family="'MyriadPro-Regular'" font-size="8.9521">United States</text>
				<text transform="matrix(1 0 0 1 -1089.6031 649.9653)" fill="#AAAAAA" font-family="'MyriadPro-Regular'" font-size="8.9521">04:21 UTC</text>
			</g>
			
				<line fill="none" stroke="#AAAAAA" stroke-width="0.5595" stroke-miterlimit="10" x1="-1380.295" y1="596.256" x2="-1038.622" y2="596.256"/>
			
				<line fill="none" stroke="#AAAAAA" stroke-width="0.5595" stroke-miterlimit="10" x1="-1380.295" y1="616.398" x2="-1038.622" y2="616.398"/>
			
				<line fill="none" stroke="#AAAAAA" stroke-width="0.5595" stroke-miterlimit="10" x1="-1380.295" y1="636.541" x2="-1038.622" y2="636.541"/>
			
				<line fill="none" stroke="#AAAAAA" stroke-width="0.5595" stroke-miterlimit="10" x1="-1380.295" y1="703.689" x2="-1038.622" y2="703.689"/>
			
				<line fill="none" stroke="#AAAAAA" stroke-width="0.5595" stroke-miterlimit="10" x1="-1380.295" y1="683.547" x2="-1038.622" y2="683.547"/>
			<g>
				<text transform="matrix(1 0 0 1 -1366.8665 676.831)" fill="#AAAAAA" font-family="'MyriadPro-Regular'" font-size="8.9521">Windows Camouflage</text>
				<text transform="matrix(1 0 0 1 -1366.8665 696.974)" fill="#AAAAAA" font-family="'MyriadPro-Regular'" font-size="8.9521">Mac Spoofing</text>
				<text transform="matrix(1 0 0 1 -1366.8665 717.115)" fill="#AAAAAA" font-family="'MyriadPro-Regular'" font-size="8.9521">Network Configuration</text>
			</g>
			<g>
				<text transform="matrix(1 0 0 1 -1063.1866 676.0859)" fill="#AAAAAA" font-family="'MyriadPro-Regular'" font-size="8.9521">On</text>
				<text transform="matrix(1 0 0 1 -1063.4366 696.2289)" fill="#AAAAAA" font-family="'MyriadPro-Regular'" font-size="8.9521">Off</text>
				<text transform="matrix(1 0 0 1 -1063.4366 716.3699)" fill="#AAAAAA" font-family="'MyriadPro-Regular'" font-size="8.9521">Off</text>
			</g>
		</g>
		<g>
			<g>
				<g>
					<g>
						<path fill="#EDEDED" d="M-307.189,392.937h-449.099v384.79h449.099V392.937L-307.189,392.937z"/>
					</g>
					<rect x="-702.673" y="506.904" fill="#6EA6E1" width="160.764" height="20.147"/>
					<rect x="-521.762" y="506.904" fill="#FFFFFF" width="160.959" height="20.147"/>
					<rect x="-521.763" y="506.904" fill="#CCCCCC" width="20.147" height="20.147"/>
					
						<rect x="-521.762" y="506.904" fill="none" stroke="#AAAAAA" stroke-width="0.5595" stroke-miterlimit="10" width="160.959" height="20.147"/>
					<text transform="matrix(1 0 0 1 -666.2377 519.9193)" fill="#FFFFFF" font-family="'MyriadPro-Regular'" font-size="8.9521">Configure Encrypted Storage</text>
					<path fill="#EDEDED" d="M-756.287,392.937v-29.5c0-2.472,2.004-4.476,4.476-4.476h440.147c2.472,0,4.476,2.004,4.476,4.476
						v29.5H-756.287z"/>
					<g>
						<path fill="#AAAAAA" d="M-732.096,371.721l-4.246,4.246l4.083,4.083l-1.084,1.084l-4.083-4.083l-4.282,4.282l-1.156-1.156
							l4.282-4.282l-4.084-4.084l1.084-1.084l4.084,4.084l4.246-4.246L-732.096,371.721z"/>
					</g>
					<line fill="none" stroke="#AAAAAA" stroke-miterlimit="10" x1="-756.287" y1="392.937" x2="-307.189" y2="392.937"/>
					<text transform="matrix(1 0 0 1 -702.6732 500.188)" fill="#AAAAAA" font-family="'MyriadPro-Bold'" font-size="10">Storage</text>
					
						<text transform="matrix(1 0 0 1 -536.2408 519.9189)" fill="#AAAAAA" font-family="'MyriadPro-Regular'" font-size="10.4442" text-decoration=" underline">or</text>
					<g>
						<text transform="matrix(1 0 0 1 -600.9681 427.1957)" fill="#AAAAAA" font-family="'MyriadPro-Regular'" font-size="18">Welcome to Tails.  </text>
					</g>
					<g>
						<text transform="matrix(1 0 0 1 -634.9698 442.1957)" fill="#AAAAAA" font-family="'MyriadPro-Regular'" font-size="10.4442">These are your DEFAULT configuration settings.</text>
					</g>
					<g>
						
							<text transform="matrix(1 0 0 1 -581.4286 464.2276)" fill="#4A90D9" font-family="'MyriadPro-Regular'" font-size="10.4442" text-decoration=" underline">Learn more about Tails</text>
					</g>
					<g>
						<path fill="#4A90D9" d="M-563.767,753.457c0,0.775,0.628,1.404,1.404,1.404h59.055c0.775,0,1.404-0.629,1.404-1.404v-21.201
							c0-0.775-0.628-1.404-1.404-1.404h-59.055c-0.775,0-1.404,0.628-1.404,1.404V753.457z"/>
						<text transform="matrix(1 0 0 1 -553.8329 746.5673)" fill="#FFFFFF" font-family="'MyriadPro-Regular'" font-size="10.4442">Start Tails</text>
					</g>
					<rect x="-702.673" y="506.904" fill="#4A90D9" width="20.147" height="20.147"/>
					
						<rect x="-702.673" y="506.904" fill="none" stroke="#AAAAAA" stroke-width="0.3837" stroke-miterlimit="10" width="160.764" height="20.147"/>
					<path fill="#FFFFFF" d="M-688.903,521.412h-7.393v-5.175h0.986v-0.986c0-1.497,1.214-2.711,2.711-2.711
						s2.711,1.214,2.711,2.711v0.986h0.986L-688.903,521.412L-688.903,521.412z M-692.599,514.02c-0.68,0-1.232,0.551-1.232,1.232
						v0.986h2.464v-0.986C-691.367,514.571-691.919,514.02-692.599,514.02z"/>
					
						<line fill="none" stroke="#AAAAAA" stroke-width="0.5595" stroke-miterlimit="10" x1="-501.616" y1="506.903" x2="-501.616" y2="527.05"/>
					<g>
						<text transform="matrix(1 0 0 1 -495.871 519.9926)" fill="#EDEDED" font-family="'MyriadPro-Regular'" font-size="8.9521">Enter your passphrase to unlock</text>
					</g>
					<text transform="matrix(1 0 0 1 -497.119 519.4288)" fill="#AAAAAA" font-family="'MyriadPro-Regular'" font-size="10.4442">|</text>
					<path fill="#FFFFFF" d="M-508.055,522.05h-7.393v-5.175h0.986v-0.986c0-1.497,1.214-2.711,2.711-2.711
						c0.929,0,1.708,0.497,2.197,1.209l-1.055,1.055c-0.179-0.459-0.62-0.786-1.142-0.786c-0.68,0-1.232,0.552-1.232,1.232v0.986
						h4.928V522.05z"/>
					<g>
						<polygon fill="#FFFFFF" points="-472.418,754.073 -472.418,738.058 -460.827,749.677 -467.608,749.677 -468.019,749.801 
													"/>
						<polygon fill="#FFFFFF" points="-463.333,754.748 -466.938,756.282 -471.62,745.193 -467.934,743.641 						"/>
						
							<rect x="-467.988" y="746.728" transform="matrix(-0.922 0.3871 -0.3871 -0.922 -606.9838 1623.694)" width="2" height="7.999"/>
						<polygon points="-471.418,740.465 -471.418,751.653 -468.449,748.787 -468.021,748.648 -463.253,748.648 						"/>
					</g>
				</g>
				<g>
					<text transform="matrix(1 0 0 1 -469.8031 553.1403)" fill="#AAAAAA" font-family="'MyriadPro-Regular'" font-size="8.9521">Save Settings Preferences</text>
				</g>
				
					<rect x="-368.707" y="547.793" fill="none" stroke="#AAAAAA" stroke-width="0.5595" stroke-miterlimit="10" width="5.437" height="5.437"/>
				<text transform="matrix(1 0 0 1 -702.6732 553.1401)" fill="#AAAAAA" font-family="'MyriadPro-Bold'" font-size="10">Settings</text>
			</g>
			
				<rect x="-702.602" y="646.967" fill="#FFFFFF" stroke="#AAAAAA" stroke-width="0.5595" stroke-miterlimit="10" width="341.673" height="60.423"/>
			
				<rect x="-702.602" y="559.673" fill="#FFFFFF" stroke="#AAAAAA" stroke-width="0.5595" stroke-miterlimit="10" width="341.673" height="80.569"/>
			<g>
				<text transform="matrix(1 0 0 1 -689.1735 573.0964)" fill="#AAAAAA" font-family="'MyriadPro-Regular'" font-size="8.9521">Text Language</text>
				<text transform="matrix(1 0 0 1 -689.1735 593.2394)" fill="#AAAAAA" font-family="'MyriadPro-Regular'" font-size="8.9521">Keyboard Language</text>
				<text transform="matrix(1 0 0 1 -689.1735 613.3804)" fill="#AAAAAA" font-family="'MyriadPro-Regular'" font-size="8.9521">Formats</text>
				<text transform="matrix(1 0 0 1 -689.1735 633.5234)" fill="#AAAAAA" font-family="'MyriadPro-Regular'" font-size="8.9521">Time Zone</text>
			</g>
			<g>
				<text transform="matrix(1 0 0 1 -418.6422 573.0974)" fill="#AAAAAA" font-family="'MyriadPro-Regular'" font-size="8.9521">English [US]</text>
				<text transform="matrix(1 0 0 1 -418.6422 593.2404)" fill="#AAAAAA" font-family="'MyriadPro-Regular'" font-size="8.9521">English [US]</text>
				<text transform="matrix(1 0 0 1 -424.2901 613.3813)" fill="#AAAAAA" font-family="'MyriadPro-Regular'" font-size="8.9521">United States</text>
				<text transform="matrix(1 0 0 1 -411.9102 633.5244)" fill="#AAAAAA" font-family="'MyriadPro-Regular'" font-size="8.9521">04:21 UTC</text>
			</g>
			
				<line fill="none" stroke="#AAAAAA" stroke-width="0.5595" stroke-miterlimit="10" x1="-702.602" y1="579.815" x2="-360.929" y2="579.815"/>
			
				<line fill="none" stroke="#AAAAAA" stroke-width="0.5595" stroke-miterlimit="10" x1="-702.602" y1="599.957" x2="-360.929" y2="599.957"/>
			
				<line fill="none" stroke="#AAAAAA" stroke-width="0.5595" stroke-miterlimit="10" x1="-702.602" y1="620.1" x2="-360.929" y2="620.1"/>
			
				<line fill="none" stroke="#AAAAAA" stroke-width="0.5595" stroke-miterlimit="10" x1="-702.602" y1="687.248" x2="-360.929" y2="687.248"/>
			
				<line fill="none" stroke="#AAAAAA" stroke-width="0.5595" stroke-miterlimit="10" x1="-702.602" y1="667.106" x2="-360.929" y2="667.106"/>
			<g>
				<text transform="matrix(1 0 0 1 -689.1735 660.3901)" fill="#AAAAAA" font-family="'MyriadPro-Regular'" font-size="8.9521">Windows Camouflage</text>
				<text transform="matrix(1 0 0 1 -689.1735 680.5331)" fill="#AAAAAA" font-family="'MyriadPro-Regular'" font-size="8.9521">Mac Spoofing</text>
				<text transform="matrix(1 0 0 1 -689.1735 700.6741)" fill="#AAAAAA" font-family="'MyriadPro-Regular'" font-size="8.9521">Network Configuration</text>
			</g>
			<g>
				<text transform="matrix(1 0 0 1 -385.4937 659.645)" fill="#AAAAAA" font-family="'MyriadPro-Regular'" font-size="8.9521">On</text>
				<text transform="matrix(1 0 0 1 -385.7437 679.788)" fill="#AAAAAA" font-family="'MyriadPro-Regular'" font-size="8.9521">Off</text>
				<text transform="matrix(1 0 0 1 -385.7437 699.929)" fill="#AAAAAA" font-family="'MyriadPro-Regular'" font-size="8.9521">Off</text>
			</g>
		</g>
		<g>
			<text transform="matrix(1 0 0 1 -899.9804 639.9104)" fill="#4A90D9" font-family="'MyriadPro-Bold'" font-size="50">VS</text>
		</g>
	</g>
</g>
</svg>
