<?xml version="1.0" encoding="utf-8"?>
<!-- Generator: Adobe Illustrator 17.0.0, SVG Export Plug-In . SVG Version: 6.00 Build 0)  -->
<!DOCTYPE svg PUBLIC "-//W3C//DTD SVG 1.1//EN" "http://www.w3.org/Graphics/SVG/1.1/DTD/svg11.dtd">
<svg version="1.1" xmlns="http://www.w3.org/2000/svg" xmlns:xlink="http://www.w3.org/1999/xlink" x="0px" y="0px" width="1584px"
	 height="1224px" viewBox="50.038 27.91 1584 1224" enable-background="new 50.038 27.91 1584 1224" xml:space="preserve">
<g id="Guides" display="none">
</g>
<g id="Spacer" display="none">
</g>
<g id="Layer_1">
	<g id="_x30_4">
		<rect x="50.038" y="27.91" fill="#FFFFFF" width="1584" height="1224"/>
		<text transform="matrix(1 0 0 1 278.6382 828.715)" fill="#4A90D9" font-family="'MyriadPro-Bold'" font-size="24">Section Label Icons?</text>
		<rect x="278.638" y="844.437" fill="none" width="449.087" height="340.115"/>
		<text transform="matrix(1 0 0 1 278.6384 859.5034)" enable-background="new    "><tspan x="0" y="0" fill="#AAAAAA" font-family="'MyriadPro-Bold'" font-size="18">Having an icon accompany the settings section labels </tspan><tspan x="0" y="22" fill="#AAAAAA" font-family="'MyriadPro-Bold'" font-size="18">provides a second point of reference, allowing for a </tspan><tspan x="0" y="44" fill="#AAAAAA" font-family="'MyriadPro-Bold'" font-size="18">more specific understanding of what kind of content </tspan><tspan x="0" y="66" fill="#AAAAAA" font-family="'MyriadPro-Bold'" font-size="18">people should expect to find inside each of the settings </tspan><tspan x="0" y="88" fill="#AAAAAA" font-family="'MyriadPro-Bold'" font-size="18">sections.</tspan><tspan x="0" y="132" fill="#AAAAAA" font-family="'MyriadPro-Bold'" font-size="18">This approach is most appropriate when the icons can </tspan><tspan x="0" y="154" fill="#AAAAAA" font-family="'MyriadPro-Bold'" font-size="18">stand alone and not compete against other UI elements.</tspan></text>
		<g>
			<text transform="matrix(1 0 0 1 115.231 168.5096)" fill="#4A90D9" font-family="'MyriadPro-Bold'" font-size="100">[4]</text>
		</g>
		<g>
			<text transform="matrix(1 0 0 1 122.0372 241.5193)" fill="#4A90D9" font-family="'MyriadPro-Bold'" font-size="50">Label Icons</text>
		</g>
		<g>
			<text transform="matrix(1 0 0 1 278.6382 344.3599)" fill="#AAAAAA" font-family="'MyriadPro-Bold'" font-size="40">Section</text>
		</g>
		<g>
			<text transform="matrix(1 0 0 1 956.3397 344.3597)" fill="#AAAAAA" font-family="'MyriadPro-Bold'" font-size="40">Line Item</text>
		</g>
		<g>
			<g>
				<path fill="#EDEDED" d="M727.737,392.937H278.638v382.719h449.099V392.937L727.737,392.937z"/>
			</g>
			
				<rect x="332.324" y="646.975" fill="#FFFFFF" stroke="#AAAAAA" stroke-width="0.5595" stroke-miterlimit="10" width="341.673" height="60.423"/>
			
				<rect x="332.324" y="559.681" fill="#FFFFFF" stroke="#AAAAAA" stroke-width="0.5595" stroke-miterlimit="10" width="341.673" height="80.569"/>
			<g>
				<text transform="matrix(1 0 0 1 345.7523 573.1044)" fill="#AAAAAA" font-family="'MyriadPro-Regular'" font-size="8.9521">Text Language</text>
				<text transform="matrix(1 0 0 1 345.7523 593.2473)" fill="#AAAAAA" font-family="'MyriadPro-Regular'" font-size="8.9521">Keyboard Language</text>
				<text transform="matrix(1 0 0 1 345.7523 613.3883)" fill="#AAAAAA" font-family="'MyriadPro-Regular'" font-size="8.9521">Formats</text>
				<text transform="matrix(1 0 0 1 345.7523 633.5314)" fill="#AAAAAA" font-family="'MyriadPro-Regular'" font-size="8.9521">Time Zone</text>
			</g>
			<g>
				<text transform="matrix(1 0 0 1 616.2836 573.1053)" fill="#AAAAAA" font-family="'MyriadPro-Regular'" font-size="8.9521">English [US]</text>
				<text transform="matrix(1 0 0 1 616.2836 593.2483)" fill="#AAAAAA" font-family="'MyriadPro-Regular'" font-size="8.9521">English [US]</text>
				<text transform="matrix(1 0 0 1 610.6356 613.3893)" fill="#AAAAAA" font-family="'MyriadPro-Regular'" font-size="8.9521">United States</text>
				<text transform="matrix(1 0 0 1 623.0155 633.5323)" fill="#AAAAAA" font-family="'MyriadPro-Regular'" font-size="8.9521">04:21 UTC</text>
			</g>
			
				<line fill="none" stroke="#AAAAAA" stroke-width="0.5595" stroke-miterlimit="10" x1="332.324" y1="579.823" x2="673.997" y2="579.823"/>
			
				<line fill="none" stroke="#AAAAAA" stroke-width="0.5595" stroke-miterlimit="10" x1="332.324" y1="599.965" x2="673.997" y2="599.965"/>
			
				<line fill="none" stroke="#AAAAAA" stroke-width="0.5595" stroke-miterlimit="10" x1="332.324" y1="620.108" x2="673.997" y2="620.108"/>
			
				<line fill="none" stroke="#AAAAAA" stroke-width="0.5595" stroke-miterlimit="10" x1="332.324" y1="687.256" x2="673.997" y2="687.256"/>
			
				<line fill="none" stroke="#AAAAAA" stroke-width="0.5595" stroke-miterlimit="10" x1="332.324" y1="667.114" x2="673.997" y2="667.114"/>
			<g>
				<text transform="matrix(1 0 0 1 345.7523 660.3981)" fill="#AAAAAA" font-family="'MyriadPro-Regular'" font-size="8.9521">Windows Camouflage</text>
				<text transform="matrix(1 0 0 1 345.7523 680.5411)" fill="#AAAAAA" font-family="'MyriadPro-Regular'" font-size="8.9521">Mac Spoofing</text>
				<text transform="matrix(1 0 0 1 345.7523 700.6821)" fill="#AAAAAA" font-family="'MyriadPro-Regular'" font-size="8.9521">Network Configuration</text>
			</g>
			<g>
				<text transform="matrix(1 0 0 1 649.432 659.653)" fill="#AAAAAA" font-family="'MyriadPro-Regular'" font-size="8.9521">On</text>
				<text transform="matrix(1 0 0 1 649.182 679.796)" fill="#AAAAAA" font-family="'MyriadPro-Regular'" font-size="8.9521">Off</text>
				<text transform="matrix(1 0 0 1 649.182 699.937)" fill="#AAAAAA" font-family="'MyriadPro-Regular'" font-size="8.9521">Off</text>
			</g>
			<rect x="332.252" y="506.904" fill="#6EA6E1" width="160.764" height="20.147"/>
			<rect x="513.163" y="506.904" fill="#FFFFFF" width="160.959" height="20.147"/>
			<rect x="513.163" y="506.904" fill="#CCCCCC" width="20.147" height="20.147"/>
			
				<rect x="513.163" y="506.904" fill="none" stroke="#AAAAAA" stroke-width="0.5595" stroke-miterlimit="10" width="160.959" height="20.147"/>
			<text transform="matrix(1 0 0 1 368.6862 519.9198)" fill="#FFFFFF" font-family="'MyriadPro-Regular'" font-size="8.9521">Configure Encrypted Storage</text>
			<path fill="#EDEDED" d="M278.638,392.937v-29.5c0-2.472,2.004-4.476,4.476-4.476H723.26c2.472,0,4.476,2.004,4.476,4.476v29.5
				H278.638z"/>
			<g>
				<path fill="#AAAAAA" d="M302.829,371.721l-4.246,4.246l4.083,4.083l-1.084,1.084l-4.083-4.083l-4.282,4.282l-1.156-1.156
					l4.282-4.282l-4.084-4.084l1.084-1.084l4.084,4.084l4.246-4.246L302.829,371.721z"/>
			</g>
			<line fill="none" stroke="#AAAAAA" stroke-miterlimit="10" x1="278.638" y1="392.937" x2="727.736" y2="392.937"/>
			
				<text transform="matrix(1 0 0 1 498.6835 519.9196)" fill="#AAAAAA" font-family="'MyriadPro-Regular'" font-size="10.4442" text-decoration=" underline">or</text>
			<g>
				<text transform="matrix(1 0 0 1 433.9564 427.1963)" fill="#AAAAAA" font-family="'MyriadPro-Regular'" font-size="18">Welcome to Tails.  </text>
			</g>
			<g>
				<text transform="matrix(1 0 0 1 399.9547 442.1963)" fill="#AAAAAA" font-family="'MyriadPro-Regular'" font-size="10.4442">These are your DEFAULT configuration settings.</text>
			</g>
			<g>
				
					<text transform="matrix(1 0 0 1 453.4957 464.2281)" fill="#4A90D9" font-family="'MyriadPro-Regular'" font-size="10.4442" text-decoration=" underline">Learn more about Tails</text>
			</g>
			<g>
				<path fill="#4A90D9" d="M471.158,751.385c0,0.775,0.629,1.404,1.404,1.404h59.055c0.775,0,1.404-0.629,1.404-1.404v-21.201
					c0-0.775-0.629-1.404-1.404-1.404h-59.055c-0.775,0-1.404,0.628-1.404,1.404V751.385z"/>
				<text transform="matrix(1 0 0 1 481.0917 744.496)" fill="#FFFFFF" font-family="'MyriadPro-Regular'" font-size="10.4442">Start Tails</text>
			</g>
			<rect x="332.252" y="506.904" fill="#4A90D9" width="20.147" height="20.147"/>
			
				<rect x="332.252" y="506.904" fill="none" stroke="#AAAAAA" stroke-width="0.3837" stroke-miterlimit="10" width="160.764" height="20.147"/>
			<path fill="#FFFFFF" d="M346.022,521.413h-7.393v-5.175h0.986v-0.986c0-1.497,1.214-2.711,2.711-2.711
				c1.497,0,2.711,1.214,2.711,2.711v0.986h0.986v5.175H346.022z M342.326,514.02c-0.68,0-1.232,0.551-1.232,1.232v0.986h2.464
				v-0.986C343.558,514.572,343.006,514.02,342.326,514.02z"/>
			
				<line fill="none" stroke="#AAAAAA" stroke-width="0.5595" stroke-miterlimit="10" x1="533.31" y1="506.904" x2="533.31" y2="527.051"/>
			<g>
				<text transform="matrix(1 0 0 1 539.0533 519.9932)" fill="#EDEDED" font-family="'MyriadPro-Regular'" font-size="8.9521">Enter your passphrase to unlock</text>
			</g>
			<text transform="matrix(1 0 0 1 537.8053 519.4293)" fill="#AAAAAA" font-family="'MyriadPro-Regular'" font-size="10.4442">|</text>
			<path fill="#AAAAAA" d="M526.871,522.05h-7.393v-5.175h0.986v-0.986c0-1.497,1.214-2.711,2.711-2.711
				c0.929,0,1.708,0.497,2.197,1.209l-1.055,1.055c-0.179-0.459-0.62-0.786-1.142-0.786c-0.68,0-1.232,0.552-1.232,1.232v0.986
				h4.928V522.05z"/>
			<g>
				<text transform="matrix(1 0 0 1 565.1219 553.097)" fill="#AAAAAA" font-family="'MyriadPro-Regular'" font-size="8.9521">Save Settings Preferences</text>
			</g>
			<g>
				<polygon fill="#FFFFFF" points="562.107,738.767 562.107,722.752 573.697,734.371 566.917,734.371 566.506,734.495 				"/>
				<polygon fill="#FFFFFF" points="571.191,739.442 567.586,740.976 562.904,729.887 566.59,728.335 				"/>
				<rect x="566.505" y="731.44" transform="matrix(-0.922 0.3871 -0.3871 -0.922 1375.4432 1193.8813)" width="2" height="7.999"/>
				<polygon points="563.107,725.159 563.107,736.347 566.076,733.482 566.504,733.342 571.272,733.342 				"/>
			</g>
			
				<rect x="668.56" y="547.355" fill="none" stroke="#AAAAAA" stroke-width="0.5595" stroke-miterlimit="10" width="5.437" height="5.743"/>
			<g>
				<text transform="matrix(1 0 0 1 351.3199 500.1895)" fill="#AAAAAA" font-family="'MyriadPro-Bold'" font-size="10">Storage</text>
			</g>
			<text transform="matrix(1 0 0 1 351.3202 553.1256)" fill="#AAAAAA" font-family="'MyriadPro-Bold'" font-size="10">Settings</text>
			<g>
				<path fill="#AAAAAA" d="M345.603,553.858c-0.07-0.023-0.142-0.042-0.21-0.071c-0.254-0.106-0.505-0.22-0.761-0.323
					c-0.187-0.075-0.375-0.06-0.567,0c-0.416,0.132-0.727,0.366-0.856,0.804c-0.051,0.174-0.119,0.342-0.181,0.513
					c-0.074,0.203-0.222,0.316-0.435,0.321c-0.181,0.005-0.363,0.005-0.544,0c-0.215-0.006-0.359-0.118-0.435-0.322
					c-0.09-0.24-0.174-0.482-0.278-0.716c-0.212-0.48-0.646-0.613-1.112-0.649c-0.157-0.012-0.326,0.079-0.482,0.142
					c-0.172,0.068-0.335,0.158-0.503,0.236c-0.203,0.094-0.384,0.062-0.541-0.094c-0.12-0.12-0.241-0.24-0.361-0.359
					c-0.163-0.163-0.194-0.341-0.099-0.55c0.101-0.222,0.201-0.445,0.299-0.669c0.129-0.297,0.079-0.583-0.046-0.869
					c-0.137-0.315-0.355-0.532-0.685-0.639c-0.191-0.062-0.379-0.135-0.568-0.204c-0.19-0.069-0.3-0.206-0.31-0.406
					c-0.01-0.197-0.008-0.395,0.001-0.591c0.01-0.202,0.122-0.334,0.31-0.406c0.239-0.091,0.481-0.176,0.716-0.278
					c0.486-0.212,0.626-0.646,0.657-1.117c0.011-0.165-0.085-0.34-0.149-0.504c-0.066-0.169-0.154-0.328-0.23-0.493
					c-0.089-0.191-0.057-0.373,0.089-0.521c0.125-0.126,0.251-0.252,0.377-0.377c0.156-0.155,0.33-0.184,0.53-0.096
					c0.256,0.112,0.512,0.225,0.771,0.33c0.195,0.079,0.391,0.064,0.59-0.002c0.395-0.13,0.704-0.346,0.832-0.767
					c0.056-0.185,0.128-0.364,0.194-0.546c0.074-0.203,0.217-0.316,0.435-0.321c0.182-0.004,0.363-0.005,0.545-0.001
					c0.205,0.005,0.358,0.119,0.429,0.314c0.061,0.167,0.124,0.333,0.178,0.501c0.152,0.474,0.482,0.739,0.96,0.846
					c0.192,0.043,0.375,0.041,0.555-0.039c0.227-0.101,0.453-0.204,0.678-0.307c0.216-0.1,0.394-0.07,0.56,0.097
					c0.114,0.115,0.229,0.229,0.343,0.344c0.181,0.181,0.204,0.342,0.098,0.58c-0.112,0.252-0.222,0.505-0.323,0.761
					c-0.07,0.178-0.051,0.356,0.001,0.543c0.12,0.435,0.382,0.724,0.808,0.868c0.172,0.058,0.342,0.121,0.512,0.182
					c0.206,0.075,0.318,0.227,0.324,0.447c0.004,0.162,0.004,0.324,0.001,0.486c-0.004,0.262-0.112,0.402-0.36,0.494
					c-0.233,0.086-0.464,0.177-0.694,0.269c-0.304,0.123-0.446,0.379-0.559,0.667c-0.125,0.321-0.09,0.624,0.06,0.924
					c0.083,0.166,0.16,0.334,0.24,0.502c0.095,0.201,0.064,0.383-0.093,0.541c-0.125,0.126-0.252,0.251-0.376,0.377
					C345.846,553.804,345.735,553.846,345.603,553.858z M342.302,552.41c1.469,0.021,2.696-1.177,2.717-2.654
					c0.021-1.502-1.161-2.724-2.658-2.747c-1.506-0.023-2.721,1.168-2.744,2.688C339.596,551.17,340.802,552.389,342.302,552.41z"/>
				<path fill="#AAAAAA" d="M342.327,548.086c0.886,0.003,1.617,0.733,1.617,1.614c0,0.91-0.733,1.635-1.648,1.631
					c-0.879-0.004-1.598-0.739-1.595-1.632C340.703,548.806,341.432,548.083,342.327,548.086z"/>
			</g>
			<path fill="#AAAAAA" d="M347.12,492.187h-5.382v-0.66c0-0.333-0.27-0.602-0.602-0.602h-2.209c-0.333,0-0.602,0.27-0.602,0.602
				v0.66h-0.8c-0.333,0-0.602,0.27-0.602,0.602v7.492c0,0.333,0.27,0.602,0.602,0.602h9.596c0.333,0,0.602-0.27,0.602-0.602v-7.492
				C347.722,492.457,347.453,492.187,347.12,492.187z"/>
		</g>
		<g>
			<g>
				<g>
					<path fill="#EDEDED" d="M1405.438,392.937H956.339v382.718h449.099V392.937L1405.438,392.937z"/>
				</g>
				<rect x="1009.953" y="506.903" fill="#6EA6E1" width="160.764" height="20.147"/>
				<rect x="1190.864" y="506.903" fill="#FFFFFF" width="160.959" height="20.147"/>
				<rect x="1190.864" y="506.903" fill="#CCCCCC" width="20.147" height="20.147"/>
				
					<rect x="1190.864" y="506.903" fill="none" stroke="#AAAAAA" stroke-width="0.5595" stroke-miterlimit="10" width="160.959" height="20.147"/>
				<text transform="matrix(1 0 0 1 1046.3876 519.9191)" fill="#FFFFFF" font-family="'MyriadPro-Regular'" font-size="8.9521">Configure Encrypted Storage</text>
				<path fill="#EDEDED" d="M956.339,392.937v-29.5c0-2.472,2.004-4.476,4.476-4.476h440.146c2.472,0,4.476,2.004,4.476,4.476v29.5
					H956.339z"/>
				<g>
					<path fill="#AAAAAA" d="M980.53,371.721l-4.246,4.246l4.083,4.083l-1.084,1.084l-4.083-4.083l-4.282,4.282l-1.156-1.156
						l4.282-4.282l-4.084-4.084l1.084-1.084l4.084,4.084l4.246-4.246L980.53,371.721z"/>
				</g>
				<line fill="none" stroke="#AAAAAA" stroke-miterlimit="10" x1="956.339" y1="392.937" x2="1405.438" y2="392.937"/>
				<text transform="matrix(1 0 0 1 1009.9528 500.1879)" fill="#AAAAAA" font-family="'MyriadPro-Bold'" font-size="10">Storage</text>
				
					<text transform="matrix(1 0 0 1 1176.3849 519.9188)" fill="#AAAAAA" font-family="'MyriadPro-Regular'" font-size="10.4442" text-decoration=" underline">or</text>
				<g>
					<text transform="matrix(1 0 0 1 1111.6578 427.1957)" fill="#AAAAAA" font-family="'MyriadPro-Regular'" font-size="18">Welcome to Tails.  </text>
				</g>
				<g>
					<text transform="matrix(1 0 0 1 1077.6561 442.1957)" fill="#AAAAAA" font-family="'MyriadPro-Regular'" font-size="10.4442">These are your DEFAULT configuration settings.</text>
				</g>
				<g>
					
						<text transform="matrix(1 0 0 1 1131.1971 464.2274)" fill="#4A90D9" font-family="'MyriadPro-Regular'" font-size="10.4442" text-decoration=" underline">Learn more about Tails</text>
				</g>
				<g>
					<path fill="#4A90D9" d="M1148.859,751.384c0,0.775,0.629,1.404,1.404,1.404h59.055c0.775,0,1.404-0.629,1.404-1.404v-21.201
						c0-0.775-0.629-1.404-1.404-1.404h-59.055c-0.775,0-1.404,0.629-1.404,1.404V751.384z"/>
					<text transform="matrix(1 0 0 1 1158.7931 744.4952)" fill="#FFFFFF" font-family="'MyriadPro-Regular'" font-size="10.4442">Start Tails</text>
				</g>
				<rect x="1009.953" y="506.903" fill="#4A90D9" width="20.147" height="20.147"/>
				
					<rect x="1009.953" y="506.903" fill="none" stroke="#AAAAAA" stroke-width="0.3837" stroke-miterlimit="10" width="160.764" height="20.147"/>
				<path fill="#FFFFFF" d="M1023.723,521.412h-7.393v-5.175h0.986v-0.986c0-1.497,1.214-2.711,2.711-2.711
					c1.497,0,2.711,1.214,2.711,2.711v0.986h0.986v5.175H1023.723z M1020.027,514.02c-0.68,0-1.232,0.551-1.232,1.232v0.986h2.464
					v-0.986C1021.259,514.571,1020.707,514.02,1020.027,514.02z"/>
				
					<line fill="none" stroke="#AAAAAA" stroke-width="0.5595" stroke-miterlimit="10" x1="1211.011" y1="506.903" x2="1211.011" y2="527.05"/>
				<g>
					<text transform="matrix(1 0 0 1 1216.7548 519.9926)" fill="#EDEDED" font-family="'MyriadPro-Regular'" font-size="8.9521">Enter your passphrase to unlock</text>
				</g>
				<text transform="matrix(1 0 0 1 1215.5067 519.4286)" fill="#AAAAAA" font-family="'MyriadPro-Regular'" font-size="10.4442">|</text>
				<path fill="#AAAAAA" d="M1204.572,522.05h-7.393v-5.175h0.986v-0.986c0-1.497,1.214-2.711,2.711-2.711
					c0.929,0,1.708,0.497,2.197,1.209l-1.055,1.055c-0.179-0.459-0.62-0.786-1.142-0.786c-0.68,0-1.232,0.552-1.232,1.232v0.986
					h4.928V522.05z"/>
				<g>
					<polygon fill="#FFFFFF" points="1238.953,757.829 1238.953,741.814 1250.544,753.433 1243.763,753.433 1243.352,753.557 					
						"/>
					<polygon fill="#FFFFFF" points="1248.038,758.504 1244.433,760.038 1239.75,748.95 1243.436,747.397 					"/>
					
						<rect x="1243.368" y="750.529" transform="matrix(-0.922 0.3871 -0.3871 -0.922 2683.7947 968.573)" width="2" height="7.999"/>
					<polygon points="1239.953,744.221 1239.953,755.409 1242.922,752.544 1243.35,752.405 1248.118,752.405 					"/>
				</g>
			</g>
			
				<rect x="1010.024" y="647.018" fill="#FFFFFF" stroke="#AAAAAA" stroke-width="0.5595" stroke-miterlimit="10" width="341.673" height="60.423"/>
			
				<rect x="1010.024" y="559.724" fill="#FFFFFF" stroke="#AAAAAA" stroke-width="0.5595" stroke-miterlimit="10" width="341.673" height="80.569"/>
			<g>
				<text transform="matrix(1 0 0 1 1030.0995 573.1473)" fill="#AAAAAA" font-family="'MyriadPro-Regular'" font-size="8.9521">Text Language</text>
				<text transform="matrix(1 0 0 1 1030.0995 593.2903)" fill="#AAAAAA" font-family="'MyriadPro-Regular'" font-size="8.9521">Keyboard Language</text>
				<text transform="matrix(1 0 0 1 1030.0995 613.4313)" fill="#AAAAAA" font-family="'MyriadPro-Regular'" font-size="8.9521">Formats</text>
				<text transform="matrix(1 0 0 1 1030.0995 633.5743)" fill="#AAAAAA" font-family="'MyriadPro-Regular'" font-size="8.9521">Time Zone</text>
			</g>
			<g>
				<text transform="matrix(1 0 0 1 1293.9843 573.1483)" fill="#AAAAAA" font-family="'MyriadPro-Regular'" font-size="8.9521">English [US]</text>
				<text transform="matrix(1 0 0 1 1293.9843 593.2913)" fill="#AAAAAA" font-family="'MyriadPro-Regular'" font-size="8.9521">English [US]</text>
				<text transform="matrix(1 0 0 1 1288.3363 613.4323)" fill="#AAAAAA" font-family="'MyriadPro-Regular'" font-size="8.9521">United States</text>
				<text transform="matrix(1 0 0 1 1300.7162 633.5753)" fill="#AAAAAA" font-family="'MyriadPro-Regular'" font-size="8.9521">04:21 UTC</text>
			</g>
			
				<line fill="none" stroke="#AAAAAA" stroke-width="0.5595" stroke-miterlimit="10" x1="1010.024" y1="579.866" x2="1351.697" y2="579.866"/>
			
				<line fill="none" stroke="#AAAAAA" stroke-width="0.5595" stroke-miterlimit="10" x1="1010.024" y1="600.008" x2="1351.697" y2="600.008"/>
			
				<line fill="none" stroke="#AAAAAA" stroke-width="0.5595" stroke-miterlimit="10" x1="1010.024" y1="620.15" x2="1351.697" y2="620.15"/>
			
				<line fill="none" stroke="#AAAAAA" stroke-width="0.5595" stroke-miterlimit="10" x1="1010.024" y1="687.299" x2="1351.697" y2="687.299"/>
			
				<line fill="none" stroke="#AAAAAA" stroke-width="0.5595" stroke-miterlimit="10" x1="1010.024" y1="667.157" x2="1351.697" y2="667.157"/>
			<g>
				<text transform="matrix(1 0 0 1 1030.0997 660.441)" fill="#AAAAAA" font-family="'MyriadPro-Regular'" font-size="8.9521">Windows Camouflage</text>
				<text transform="matrix(1 0 0 1 1030.0997 680.584)" fill="#AAAAAA" font-family="'MyriadPro-Regular'" font-size="8.9521">Mac Spoofing</text>
				<text transform="matrix(1 0 0 1 1030.0997 700.725)" fill="#AAAAAA" font-family="'MyriadPro-Regular'" font-size="8.9521">Network Configuration</text>
			</g>
			<g>
				<text transform="matrix(1 0 0 1 1327.1327 659.6959)" fill="#AAAAAA" font-family="'MyriadPro-Regular'" font-size="8.9521">On</text>
				<text transform="matrix(1 0 0 1 1326.8827 679.8389)" fill="#AAAAAA" font-family="'MyriadPro-Regular'" font-size="8.9521">Off</text>
				<text transform="matrix(1 0 0 1 1326.8827 699.9799)" fill="#AAAAAA" font-family="'MyriadPro-Regular'" font-size="8.9521">Off</text>
			</g>
			<g>
				<text transform="matrix(1 0 0 1 1242.8229 553.1403)" fill="#AAAAAA" font-family="'MyriadPro-Regular'" font-size="8.9521">Save Settings Preferences</text>
			</g>
			
				<rect x="1343.92" y="547.793" fill="none" stroke="#AAAAAA" stroke-width="0.5595" stroke-miterlimit="10" width="5.437" height="5.437"/>
			<text transform="matrix(1 0 0 1 1009.9528 553.14)" fill="#AAAAAA" font-family="'MyriadPro-Bold'" font-size="10">Settings</text>
			<g>
				<path fill="#AAAAAA" stroke="#FFFFFF" stroke-width="0.25" stroke-miterlimit="10" d="M1021.928,564.395
					c-1.889,0-3.421,1.532-3.421,3.421c0,0.252,0.029,0.497,0.081,0.734h2.33c0.186,0,0.351,0.091,0.455,0.23
					c0.113-0.08,0.22-0.162,0.317-0.248c-0.57-0.622-0.805-1.226-0.822-1.27l0.426-0.162c0.004,0.01,0.215,0.545,0.722,1.105
					c0.568-0.649,0.786-1.359,0.865-1.725h-2.859v-0.455h1.8v-0.603h0.455v0.603h1.8v0.455h-0.732
					c-0.071,0.392-0.301,1.264-1.002,2.049c0.369,0.324,0.846,0.623,1.45,0.793l-0.124,0.438c-0.696-0.196-1.238-0.537-1.653-0.905
					c-0.157,0.141-0.335,0.275-0.531,0.4v1.95c0.145,0.019,0.291,0.031,0.44,0.031c1.889,0,3.421-1.531,3.421-3.421
					C1025.349,565.926,1023.817,564.395,1021.928,564.395z"/>
				<path fill="#AAAAAA" stroke="#FFFFFF" stroke-width="0.25" stroke-miterlimit="10" d="M1020.918,568.891h-2.236h-3.612
					c-0.126,0-0.228,0.102-0.228,0.228v5.849c0,0.102,0.069,0.186,0.161,0.214c0.021,0.007,0.043,0.013,0.066,0.013h5.849
					c0.031,0,0.061-0.006,0.089-0.018c0.054-0.023,0.098-0.067,0.121-0.121c0.011-0.027,0.018-0.057,0.018-0.089v-3.824v-1.691
					v-0.334c0-0.06-0.024-0.114-0.062-0.154C1021.042,568.919,1020.984,568.891,1020.918,568.891z M1019.119,573.875l-0.427-1.255
					h-1.415l-0.414,1.255h-0.533l1.362-3.991h0.616l1.362,3.991H1019.119z"/>
				<path fill="#AAAAAA" d="M1021.146,574.967L1021.146,574.967c0,0.031-0.006,0.061-0.018,0.089
					C1021.14,575.028,1021.146,574.998,1021.146,574.967z"/>
				<path fill="#AAAAAA" d="M1015.07,575.195c-0.023,0-0.045-0.007-0.066-0.013C1015.025,575.188,1015.046,575.195,1015.07,575.195
					h5.849c0.031,0,0.061-0.006,0.089-0.018c-0.027,0.011-0.057,0.018-0.089,0.018H1015.07z"/>
				<path fill="#AAAAAA" stroke="#FFFFFF" stroke-width="0.25" stroke-miterlimit="10" d="M1017.988,570.34h-0.012
					c-0.059,0.231-0.119,0.48-0.201,0.722l-0.391,1.155h1.208l-0.397-1.149C1018.107,570.808,1018.047,570.571,1017.988,570.34z"/>
			</g>
			<g>
				<rect x="1015.416" y="586.337" fill="#AAAAAA" width="9.36" height="7.2"/>
				
					<rect x="1016.136" y="587.057" fill="#FFFFFF" stroke="#AAAAAA" stroke-width="0.25" stroke-miterlimit="10" width="1.44" height="1.44"/>
				
					<rect x="1016.136" y="589.217" fill="#FFFFFF" stroke="#AAAAAA" stroke-width="0.25" stroke-miterlimit="10" width="1.44" height="1.44"/>
				
					<rect x="1018.296" y="589.217" fill="#FFFFFF" stroke="#AAAAAA" stroke-width="0.25" stroke-miterlimit="10" width="1.44" height="1.44"/>
				
					<rect x="1020.456" y="589.217" fill="#FFFFFF" stroke="#AAAAAA" stroke-width="0.25" stroke-miterlimit="10" width="1.44" height="1.44"/>
				
					<rect x="1018.296" y="587.057" fill="#FFFFFF" stroke="#AAAAAA" stroke-width="0.25" stroke-miterlimit="10" width="1.44" height="1.44"/>
				
					<rect x="1020.456" y="587.057" fill="#FFFFFF" stroke="#AAAAAA" stroke-width="0.25" stroke-miterlimit="10" width="1.44" height="1.44"/>
				
					<rect x="1016.136" y="591.377" fill="#FFFFFF" stroke="#AAAAAA" stroke-width="0.25" stroke-miterlimit="10" width="1.44" height="1.44"/>
				
					<rect x="1022.616" y="587.057" fill="#FFFFFF" stroke="#AAAAAA" stroke-width="0.25" stroke-miterlimit="10" width="1.44" height="1.44"/>
				
					<rect x="1022.616" y="589.217" fill="#FFFFFF" stroke="#AAAAAA" stroke-width="0.25" stroke-miterlimit="10" width="1.44" height="1.44"/>
				
					<rect x="1022.616" y="591.377" fill="#FFFFFF" stroke="#AAAAAA" stroke-width="0.25" stroke-miterlimit="10" width="1.44" height="1.44"/>
				
					<rect x="1018.296" y="591.377" fill="#FFFFFF" stroke="#AAAAAA" stroke-width="0.25" stroke-miterlimit="10" width="3.6" height="1.44"/>
			</g>
			<g>
				<rect x="1014.699" y="605.058" fill="#AAAAAA" width="2.142" height="2.142"/>
				<rect x="1023.351" y="605.058" fill="#AAAAAA" width="2.142" height="2.142"/>
				<rect x="1014.699" y="613.716" fill="#AAAAAA" width="2.142" height="2.142"/>
				<rect x="1023.351" y="613.716" fill="#AAAAAA" width="2.142" height="2.142"/>
				<rect x="1015.388" y="607.928" fill="#AAAAAA" width="0.763" height="5.031"/>
				<rect x="1024.04" y="607.928" fill="#AAAAAA" width="0.763" height="5.031"/>
				<rect x="1017.58" y="605.736" fill="#AAAAAA" width="5.031" height="0.763"/>
				<rect x="1017.58" y="614.388" fill="#AAAAAA" width="5.031" height="0.763"/>
				<text transform="matrix(1 0 0 1 1017.5797 613.1896)" fill="#AAAAAA" font-family="'NuevaStd-Bold'" font-size="8.7602">T</text>
			</g>
			<g>
				<path fill="#AAAAAA" d="M1020.095,624.822c-2.977,0-5.4,2.422-5.4,5.4s2.422,5.4,5.4,5.4s5.4-2.422,5.4-5.4
					C1025.496,627.244,1023.073,624.822,1020.095,624.822L1020.095,624.822z M1020.095,634.472c-2.344,0-4.251-1.907-4.251-4.251
					s1.907-4.251,4.251-4.251s4.252,1.907,4.252,4.251C1024.347,632.566,1022.44,634.472,1020.095,634.472L1020.095,634.472z"/>
				<path fill="#AAAAAA" d="M1022.91,630.055h-2.427v-2.918c0-0.245-0.199-0.444-0.444-0.444s-0.445,0.199-0.445,0.444v3.362
					c0,0.246,0.199,0.445,0.445,0.445h2.871c0.246,0,0.445-0.199,0.445-0.445C1023.355,630.254,1023.156,630.055,1022.91,630.055
					L1022.91,630.055z"/>
			</g>
			<g>
				<path fill="#AAAAAA" d="M1024.761,680.008h-9.397v-7.27h9.397V680.008z M1016.514,678.858h7.097v-4.969h-7.097V678.858z"/>
				<rect x="1014.696" y="680.57" fill="#AAAAAA" width="10.8" height="1.15"/>
				<g>
					<g>
						<path fill="#AAAAAA" d="M1019.282,675.041c0.157-0.101,0.35-0.152,0.578-0.152c0.301,0,0.55,0.072,0.749,0.215
							s0.298,0.356,0.298,0.638c0,0.173-0.043,0.318-0.129,0.437c-0.051,0.072-0.147,0.164-0.29,0.275l-0.141,0.11
							c-0.077,0.06-0.128,0.13-0.153,0.209c-0.016,0.051-0.024,0.129-0.026,0.235h-0.54c0.008-0.225,0.029-0.38,0.064-0.466
							c0.035-0.086,0.123-0.184,0.266-0.296l0.145-0.114c0.048-0.036,0.086-0.075,0.115-0.118c0.053-0.073,0.08-0.153,0.08-0.241
							c0-0.101-0.03-0.193-0.089-0.276s-0.167-0.125-0.323-0.125c-0.154,0-0.263,0.051-0.327,0.154
							c-0.064,0.102-0.096,0.209-0.096,0.319h-0.576C1018.902,675.467,1019.034,675.199,1019.282,675.041z M1019.614,677.282h0.596
							v0.576h-0.596V677.282z"/>
					</g>
				</g>
			</g>
			<g>
				<g>
					<defs>
						<path id="SVGID_1_" d="M1019.715,657.404h-5.077v-5.077h5.077V657.404z M1025.486,652.328h-5.077v5.077h5.077V652.328z
							 M1019.715,658.051h-5.077v5.077h5.077V658.051z M1025.486,658.051h-5.077v5.077h5.077V658.051z"/>
					</defs>
					<clipPath id="SVGID_2_">
						<use xlink:href="#SVGID_1_"  overflow="visible"/>
					</clipPath>
					<path clip-path="url(#SVGID_2_)" fill="#AAAAAA" d="M1019.987,651.121c3.608-0.027,6.615,2.966,6.611,6.582
						c-0.004,3.6-2.909,6.537-6.524,6.596c-3.594,0.059-6.628-2.927-6.65-6.546C1013.401,654.129,1016.351,651.148,1019.987,651.121
						z M1019.411,658.645c1.078-0.009,1.859,0.527,1.998,1.213c0.137,0.677-0.218,1.08-0.894,0.948
						c-0.344-0.068-0.67-0.25-0.99-0.409c-0.96-0.475-1.874-0.453-2.768,0.174c-0.398,0.28-0.823,0.525-1.249,0.762
						c-0.239,0.133-0.201,0.25-0.044,0.406c0.11,0.109,0.22,0.218,0.321,0.335c0.238,0.277,0.417,0.33,0.745,0.039
						c0.464-0.411,1.018-0.295,1.423,0.186c0.132,0.157,0.229,0.348,0.379,0.484c0.289,0.263,0.635,0.236,0.928,0.032
						c0.321-0.224,0.011-0.428-0.065-0.652c-0.068-0.197-0.125-0.5-0.025-0.627c0.134-0.171,0.424-0.294,0.651-0.3
						c0.416-0.011,0.628,0.244,0.674,0.682c0.02,0.196,0.186,0.507,0.324,0.53c0.211,0.035,0.489-0.091,0.676-0.232
						c0.198-0.149,0.312-0.406,0.484-0.595c0.558-0.615,1.382-0.449,1.646,0.324c0.188,0.551,0.19,0.553,0.627,0.123
						c0.146-0.144,0.309-0.285,0.41-0.458c0.047-0.081,0.006-0.307-0.064-0.347c-0.631-0.36-0.752-0.938-0.731-1.589
						c0.006-0.206,0.009-0.412,0-0.618c-0.043-0.922-0.349-1.292-1.234-1.522c-0.347-0.09-0.707-0.162-1.03-0.31
						c-0.547-0.251-0.778-0.737-0.663-1.257c0.133-0.598,0.814-0.818,1.256-0.396c0.147,0.141,0.235,0.352,0.396,0.468
						c0.125,0.09,0.359,0.154,0.474,0.094c0.117-0.061,0.189-0.284,0.204-0.443c0.013-0.14-0.069-0.295-0.129-0.434
						c-0.405-0.938-0.34-1.297,0.479-1.911c0.332-0.249,0.244-0.369-0.014-0.555c-0.809-0.582-1.708-0.946-2.689-1.104
						c-0.194-0.031-0.443-0.085-0.479,0.22c-0.028,0.243,0.106,0.358,0.355,0.405c0.272,0.051,0.558,0.123,0.792,0.262
						c0.264,0.158,0.355,0.449,0.219,0.745c-0.138,0.3-0.415,0.262-0.671,0.195c-0.173-0.045-0.334-0.134-0.505-0.19
						c-0.542-0.177-0.851,0.046-0.83,0.62c0.009,0.255,0.099,0.506,0.12,0.762c0.054,0.655-0.509,1.173-1.115,1.042
						c-0.47-0.101-0.686-0.461-0.716-1.124c-0.007-0.147-0.098-0.393-0.185-0.409c-0.14-0.027-0.378,0.056-0.452,0.17
						c-0.132,0.208-0.183,0.47-0.25,0.715c-0.178,0.653-0.538,0.885-1.206,0.762c-0.464-0.085-0.768-0.383-1.031-0.751
						c-0.25-0.35-0.279-0.342-0.474,0.047c-0.069,0.138-0.129,0.281-0.18,0.426c-0.128,0.36-0.29,0.701,0.12,1.035
						c0.123,0.1,0.1,0.425,0.08,0.641c-0.019,0.199-0.139,0.387-0.188,0.586c-0.074,0.295-0.047,0.587,0.251,0.741
						c0.298,0.154,0.562,0.005,0.753-0.221c0.165-0.194,0.285-0.426,0.417-0.647c0.435-0.728,1.08-1.169,1.901-1.331
						c0.163-0.032,0.437,0.043,0.517,0.164c0.088,0.133,0.076,0.411-0.008,0.561c-0.105,0.187-0.317,0.323-0.503,0.453
						c-0.21,0.146-0.457,0.241-0.661,0.394c-0.257,0.191-0.507,0.471-0.325,0.78c0.136,0.232,0.444,0.471,0.698,0.498
						c0.333,0.036,0.693-0.116,1.03-0.221C1018.804,658.884,1019.205,658.72,1019.411,658.645z M1026.083,657.99
						c0.016-0.003,0.032-0.007,0.048-0.01c-0.052-0.242-0.038-0.542-0.181-0.703c-0.087-0.098-0.438-0.029-0.633,0.053
						c-0.316,0.134-0.437,0.413-0.335,0.758c0.089,0.302,0.609,0.755,0.844,0.689c0.384-0.107,0.175-0.469,0.252-0.711
						C1026.086,658.042,1026.082,658.015,1026.083,657.99z M1025.15,654.632c-0.125,0.15-0.262,0.271-0.344,0.422
						c-0.135,0.25-0.129,0.541,0.137,0.672c0.205,0.101,0.477,0.065,0.719,0.09c-0.034-0.21-0.05-0.426-0.108-0.629
						c-0.042-0.144-0.135-0.275-0.218-0.404C1025.301,654.729,1025.231,654.696,1025.15,654.632z M1017.65,652.563
						c0.284-0.147,0.617-0.312,0.941-0.493c0.047-0.026,0.052-0.128,0.076-0.195c-0.072-0.016-0.154-0.062-0.215-0.043
						c-0.34,0.111-0.677,0.231-1.009,0.364c-0.085,0.034-0.146,0.125-0.218,0.19C1017.33,652.429,1017.436,652.474,1017.65,652.563z
						"/>
				</g>
			</g>
			<g>
				<path fill="#AAAAAA" d="M1025.02,652.827v4.077h-4.077v-4.077H1025.02 M1019.248,652.827v4.077h-4.077v-4.077H1019.248
					 M1025.02,658.551v4.077h-4.077v-4.077H1025.02 M1019.248,658.551v4.077h-4.077v-4.077H1019.248 M1025.52,652.327h-5.077v5.077
					h5.077V652.327L1025.52,652.327z M1019.748,652.327h-5.077v5.077h5.077V652.327L1019.748,652.327z M1025.52,658.051h-5.077
					v5.077h5.077V658.051L1025.52,658.051z M1019.748,658.051h-5.077v5.077h5.077V658.051L1019.748,658.051z"/>
			</g>
			<g>
				<path fill="#AAAAAA" d="M1023.429,698.206l-2.851-1.672h1.592v-4.564h-4.564v4.564h1.656l-2.578,1.672h-1.879v4.564h4.564
					v-4.564h-1.747l2.265-1.476l2.619,1.476h-1.753v4.564h4.566v-4.564H1023.429z M1018.457,692.857h2.859v2.861h-2.859V692.857z
					 M1018.517,699.095v2.858h-2.861v-2.858H1018.517z M1024.466,701.954h-2.859v-2.858h2.859V701.954z"/>
			</g>
		</g>
		<text transform="matrix(1 0 0 1 956.3314 828.715)" fill="#4A90D9" font-family="'MyriadPro-Bold'" font-size="24">Line Item Label Icons?</text>
		<rect x="956.331" y="844.437" fill="none" width="440.932" height="282.33"/>
		<text transform="matrix(1 0 0 1 956.3309 859.5035)" enable-background="new    "><tspan x="0" y="0" fill="#AAAAAA" font-family="'MyriadPro-Bold'" font-size="18">Having an icon accompany the settings section line </tspan><tspan x="0" y="22" fill="#AAAAAA" font-family="'MyriadPro-Bold'" font-size="18">item labels provides a second point of reference,</tspan><tspan x="0" y="44" fill="#AAAAAA" font-family="'MyriadPro-Bold'" font-size="18">allowing for a more specific understanding of what </tspan><tspan x="0" y="66" fill="#AAAAAA" font-family="'MyriadPro-Bold'" font-size="18">kind of content people should expect to find inside </tspan><tspan x="0" y="88" fill="#AAAAAA" font-family="'MyriadPro-Bold'" font-size="18">each of the settings section line items, as well as to</tspan><tspan x="0" y="110" fill="#AAAAAA" font-family="'MyriadPro-Bold'" font-size="18">collectively provide insight into the logic behind their </tspan><tspan x="0" y="132" fill="#AAAAAA" font-family="'MyriadPro-Bold'" font-size="18">clutter.</tspan><tspan x="0" y="176" fill="#AAAAAA" font-family="'MyriadPro-Bold'" font-size="18">This approach is most appropriate when the settings </tspan><tspan x="0" y="198" fill="#AAAAAA" font-family="'MyriadPro-Bold'" font-size="18">section labels do not provide enough context as to </tspan><tspan x="0" y="220" fill="#AAAAAA" font-family="'MyriadPro-Bold'" font-size="18">their contents. </tspan></text>
		<g>
			<text transform="matrix(1 0 0 1 812.6389 639.9104)" fill="#4A90D9" font-family="'MyriadPro-Bold'" font-size="50">VS</text>
		</g>
	</g>
</g>
</svg>
