<?xml version="1.0" encoding="utf-8"?>
<!-- Generator: Adobe Illustrator 17.0.0, SVG Export Plug-In . SVG Version: 6.00 Build 0)  -->
<!DOCTYPE svg PUBLIC "-//W3C//DTD SVG 1.1//EN" "http://www.w3.org/Graphics/SVG/1.1/DTD/svg11.dtd">
<svg version="1.1" xmlns="http://www.w3.org/2000/svg" xmlns:xlink="http://www.w3.org/1999/xlink" x="0px" y="0px" width="1584px"
	 height="1224px" viewBox="50.038 1384.046 1584 1224" enable-background="new 50.038 1384.046 1584 1224" xml:space="preserve">
<g id="Guides" display="none">
</g>
<g id="Spacer" display="none">
</g>
<g id="Layer_1">
	<g id="_x30_5">
		<rect x="50.038" y="1384.046" fill="#FFFFFF" width="1584" height="1224"/>
		<text transform="matrix(1 0 0 1 278.6373 2184.8506)" fill="#4A90D9" font-family="'MyriadPro-Bold'" font-size="24">Close Greeter?</text>
		<rect x="278.637" y="2200.566" fill="none" width="449.098" height="148.088"/>
		<text transform="matrix(1 0 0 1 278.6373 2215.6326)" enable-background="new    "><tspan x="0" y="0" fill="#AAAAAA" font-family="'MyriadPro-Bold'" font-size="18">The ability to go back a step from the Greeter to the </tspan><tspan x="0" y="22" fill="#AAAAAA" font-family="'MyriadPro-Bold'" font-size="18">Tails boot dialog allows people the freedom to change </tspan><tspan x="0" y="44" fill="#AAAAAA" font-family="'MyriadPro-Bold'" font-size="18">their mind, once they arrive at the Greeter, and go back </tspan><tspan x="0" y="66" fill="#AAAAAA" font-family="'MyriadPro-Bold'" font-size="18">and boot into either Failsafe or Normal Tails, whichever </tspan><tspan x="0" y="88" fill="#AAAAAA" font-family="'MyriadPro-Bold'" font-size="18">is the opposite of the one they just booted.</tspan><tspan x="0" y="132" fill="#AAAAAA" font-family="'MyriadPro-Bold'" font-size="18">This approach is only really appropriate in this one case.</tspan></text>
		<rect x="278.637" y="2453.546" fill="none" width="449.1" height="81.162"/>
		<text transform="matrix(1 0 0 1 278.6373 2468.6123)" enable-background="new    "><tspan x="0" y="0" fill="#AAAAAA" font-family="'MyriadPro-Bold'" font-size="18">An alternative to the Close[x] is the Back[&lt;&lt;].  However, </tspan><tspan x="0" y="22" fill="#AAAAAA" font-family="'MyriadPro-Bold'" font-size="18">this may not be more appropriate since the Back[&lt;&lt;] </tspan><tspan x="0" y="44" fill="#AAAAAA" font-family="'MyriadPro-Bold'" font-size="18">suggests that the previous content was contained </tspan><tspan x="0" y="66" fill="#AAAAAA" font-family="'MyriadPro-Bold'" font-size="18">within the same Greeter dialog window, which is not </tspan></text>
		<g>
			<text transform="matrix(1 0 0 1 115.2315 1524.6453)" fill="#4A90D9" font-family="'MyriadPro-Bold'" font-size="100">[5]</text>
		</g>
		<g>
			<text transform="matrix(1 0 0 1 122.0377 1597.6549)" fill="#4A90D9" font-family="'MyriadPro-Bold'" font-size="50">Close Greeter</text>
		</g>
		<g>
			<text transform="matrix(1 0 0 1 278.6373 1700.4943)" fill="#AAAAAA" font-family="'MyriadPro-Bold'" font-size="40">Close</text>
		</g>
		<g>
			<text transform="matrix(1 0 0 1 956.3312 1700.4939)" fill="#AAAAAA" font-family="'MyriadPro-Bold'" font-size="40">No Close</text>
		</g>
		<g>
			<g>
				<path fill="#EDEDED" d="M727.736,1749.073H278.637v382.719h449.099V1749.073L727.736,1749.073z"/>
			</g>
			
				<rect x="332.323" y="2003.109" fill="#FFFFFF" stroke="#AAAAAA" stroke-width="0.5595" stroke-miterlimit="10" width="341.673" height="60.423"/>
			
				<rect x="332.324" y="1915.816" fill="#FFFFFF" stroke="#AAAAAA" stroke-width="0.5595" stroke-miterlimit="10" width="341.673" height="80.569"/>
			<g>
				<text transform="matrix(1 0 0 1 345.753 1929.2395)" fill="#AAAAAA" font-family="'MyriadPro-Regular'" font-size="8.9521">Text Language</text>
				<text transform="matrix(1 0 0 1 345.753 1949.3824)" fill="#AAAAAA" font-family="'MyriadPro-Regular'" font-size="8.9521">Keyboard Language</text>
				<text transform="matrix(1 0 0 1 345.753 1969.5236)" fill="#AAAAAA" font-family="'MyriadPro-Regular'" font-size="8.9521">Formats</text>
				<text transform="matrix(1 0 0 1 345.753 1989.6665)" fill="#AAAAAA" font-family="'MyriadPro-Regular'" font-size="8.9521">Time Zone</text>
			</g>
			<g>
				<text transform="matrix(1 0 0 1 616.2841 1929.2404)" fill="#AAAAAA" font-family="'MyriadPro-Regular'" font-size="8.9521">English [US]</text>
				<text transform="matrix(1 0 0 1 616.2841 1949.3834)" fill="#AAAAAA" font-family="'MyriadPro-Regular'" font-size="8.9521">English [US]</text>
				<text transform="matrix(1 0 0 1 610.6361 1969.5244)" fill="#AAAAAA" font-family="'MyriadPro-Regular'" font-size="8.9521">United States</text>
				<text transform="matrix(1 0 0 1 623.016 1989.6674)" fill="#AAAAAA" font-family="'MyriadPro-Regular'" font-size="8.9521">04:21 UTC</text>
			</g>
			
				<line fill="none" stroke="#AAAAAA" stroke-width="0.5595" stroke-miterlimit="10" x1="332.324" y1="1935.958" x2="673.997" y2="1935.958"/>
			
				<line fill="none" stroke="#AAAAAA" stroke-width="0.5595" stroke-miterlimit="10" x1="332.324" y1="1956.1" x2="673.997" y2="1956.1"/>
			
				<line fill="none" stroke="#AAAAAA" stroke-width="0.5595" stroke-miterlimit="10" x1="332.324" y1="1976.242" x2="673.997" y2="1976.242"/>
			
				<line fill="none" stroke="#AAAAAA" stroke-width="0.5595" stroke-miterlimit="10" x1="332.324" y1="2043.391" x2="673.997" y2="2043.391"/>
			
				<line fill="none" stroke="#AAAAAA" stroke-width="0.5595" stroke-miterlimit="10" x1="332.324" y1="2023.249" x2="673.997" y2="2023.249"/>
			<g>
				<text transform="matrix(1 0 0 1 345.753 2016.5332)" fill="#AAAAAA" font-family="'MyriadPro-Regular'" font-size="8.9521">Windows Camouflage</text>
				<text transform="matrix(1 0 0 1 345.753 2036.6761)" fill="#AAAAAA" font-family="'MyriadPro-Regular'" font-size="8.9521">Mac Spoofing</text>
				<text transform="matrix(1 0 0 1 345.753 2056.8174)" fill="#AAAAAA" font-family="'MyriadPro-Regular'" font-size="8.9521">Network Configuration</text>
			</g>
			<g>
				<text transform="matrix(1 0 0 1 649.4325 2015.788)" fill="#AAAAAA" font-family="'MyriadPro-Regular'" font-size="8.9521">On</text>
				<text transform="matrix(1 0 0 1 649.1825 2035.931)" fill="#AAAAAA" font-family="'MyriadPro-Regular'" font-size="8.9521">Off</text>
				<text transform="matrix(1 0 0 1 649.1825 2056.072)" fill="#AAAAAA" font-family="'MyriadPro-Regular'" font-size="8.9521">Off</text>
			</g>
			<rect x="332.252" y="1863.038" fill="#6EA6E1" width="160.764" height="20.147"/>
			<rect x="513.163" y="1863.038" fill="#FFFFFF" width="160.959" height="20.147"/>
			<rect x="513.163" y="1863.038" fill="#CCCCCC" width="20.147" height="20.147"/>
			
				<rect x="513.163" y="1863.038" fill="none" stroke="#AAAAAA" stroke-width="0.5595" stroke-miterlimit="10" width="160.959" height="20.147"/>
			<text transform="matrix(1 0 0 1 368.6871 1876.0549)" fill="#FFFFFF" font-family="'MyriadPro-Regular'" font-size="8.9521">Configure Encrypted Storage</text>
			<path fill="#EDEDED" d="M278.638,1749.073v-29.5c0-2.472,2.004-4.476,4.476-4.476h440.147c2.472,0,4.476,2.004,4.476,4.476v29.5
				H278.638z"/>
			<g>
				<path fill="#AAAAAA" d="M302.829,1727.856l-4.246,4.246l4.083,4.083l-1.084,1.084l-4.083-4.083l-4.282,4.282l-1.156-1.156
					l4.282-4.282l-4.084-4.084l1.084-1.084l4.084,4.084l4.246-4.246L302.829,1727.856z"/>
			</g>
			<line fill="none" stroke="#AAAAAA" stroke-miterlimit="10" x1="278.638" y1="1749.073" x2="727.736" y2="1749.073"/>
			<text transform="matrix(1 0 0 1 332.252 1856.3237)" fill="#AAAAAA" font-family="'MyriadPro-Bold'" font-size="10">Storage</text>
			
				<text transform="matrix(1 0 0 1 498.6841 1876.0546)" fill="#AAAAAA" font-family="'MyriadPro-Regular'" font-size="10.4442" text-decoration=" underline">or</text>
			<g>
				<text transform="matrix(1 0 0 1 433.9571 1783.3314)" fill="#AAAAAA" font-family="'MyriadPro-Regular'" font-size="18">Welcome to Tails.  </text>
			</g>
			<g>
				<text transform="matrix(1 0 0 1 399.9556 1798.3314)" fill="#AAAAAA" font-family="'MyriadPro-Regular'" font-size="10.4442">These are your DEFAULT configuration settings.</text>
			</g>
			<g>
				
					<text transform="matrix(1 0 0 1 453.4962 1820.3632)" fill="#4A90D9" font-family="'MyriadPro-Regular'" font-size="10.4442" text-decoration=" underline">Learn more about Tails</text>
			</g>
			<g>
				<path fill="#4A90D9" d="M471.158,2107.521c0,0.775,0.629,1.404,1.404,1.404h59.055c0.775,0,1.404-0.628,1.404-1.404v-21.201
					c0-0.775-0.629-1.404-1.404-1.404h-59.055c-0.775,0-1.404,0.628-1.404,1.404V2107.521z"/>
				<text transform="matrix(1 0 0 1 481.0923 2100.6311)" fill="#FFFFFF" font-family="'MyriadPro-Regular'" font-size="10.4442">Start Tails</text>
			</g>
			<rect x="332.252" y="1863.038" fill="#4A90D9" width="20.147" height="20.147"/>
			
				<rect x="332.252" y="1863.038" fill="none" stroke="#AAAAAA" stroke-width="0.3837" stroke-miterlimit="10" width="160.764" height="20.147"/>
			<path fill="#FFFFFF" d="M346.022,1877.547h-7.393v-5.175h0.986v-0.986c0-1.497,1.214-2.711,2.711-2.711
				c1.497,0,2.711,1.213,2.711,2.711v0.986h0.986v5.175H346.022z M342.325,1870.156c-0.68,0-1.232,0.551-1.232,1.232v0.986h2.464
				v-0.986C343.558,1870.706,343.006,1870.156,342.325,1870.156z"/>
			
				<line fill="none" stroke="#AAAAAA" stroke-width="0.5595" stroke-miterlimit="10" x1="533.309" y1="1863.038" x2="533.309" y2="1883.185"/>
			<g>
				<text transform="matrix(1 0 0 1 539.054 1876.1283)" fill="#EDEDED" font-family="'MyriadPro-Regular'" font-size="8.9521">Enter your passphrase to unlock</text>
			</g>
			<text transform="matrix(1 0 0 1 537.8055 1875.5643)" fill="#AAAAAA" font-family="'MyriadPro-Regular'" font-size="10.4442">|</text>
			<path fill="#AAAAAA" d="M526.87,1878.185h-7.393v-5.175h0.986v-0.986c0-1.497,1.214-2.711,2.711-2.711
				c0.929,0,1.708,0.497,2.197,1.209l-1.055,1.055c-0.179-0.459-0.62-0.786-1.142-0.786c-0.68,0-1.232,0.552-1.232,1.232v0.986
				h4.928V1878.185z"/>
			<g>
				<text transform="matrix(1 0 0 1 332.252 1909.2823)" fill="#AAAAAA" font-family="'MyriadPro-Bold'" font-size="10">Settings</text>
			</g>
			<g>
				<text transform="matrix(1 0 0 1 565.1224 1909.2321)" fill="#AAAAAA" font-family="'MyriadPro-Regular'" font-size="8.9521">Save Settings Preferences</text>
			</g>
			<g>
				<polygon fill="#FFFFFF" points="547.119,2095.639 547.119,2079.625 558.709,2091.243 551.929,2091.243 551.518,2091.367 				"/>
				<polygon fill="#FFFFFF" points="556.203,2096.314 552.598,2097.848 547.916,2086.76 551.602,2085.208 				"/>
				
					<rect x="551.357" y="2088.406" transform="matrix(-0.922 0.3871 -0.3871 -0.922 1871.5801 3807.897)" width="2" height="7.999"/>
				<polygon points="548.119,2082.031 548.119,2093.219 551.088,2090.354 551.516,2090.215 556.284,2090.215 				"/>
			</g>
			
				<rect x="668.56" y="1903.49" fill="none" stroke="#AAAAAA" stroke-width="0.5595" stroke-miterlimit="10" width="5.437" height="5.743"/>
		</g>
		<g>
			<g>
				<path fill="#EDEDED" d="M1405.437,1724.456H956.338v382.719h449.099v-358.103V1724.456z"/>
			</g>
			
				<rect x="1010.024" y="1978.493" fill="#FFFFFF" stroke="#AAAAAA" stroke-width="0.5595" stroke-miterlimit="10" width="341.673" height="60.423"/>
			
				<rect x="1010.025" y="1891.199" fill="#FFFFFF" stroke="#AAAAAA" stroke-width="0.5595" stroke-miterlimit="10" width="341.673" height="80.569"/>
			<g>
				<text transform="matrix(1 0 0 1 1023.4532 1904.623)" fill="#AAAAAA" font-family="'MyriadPro-Regular'" font-size="8.9521">Text Language</text>
				<text transform="matrix(1 0 0 1 1023.4532 1924.766)" fill="#AAAAAA" font-family="'MyriadPro-Regular'" font-size="8.9521">Keyboard Language</text>
				<text transform="matrix(1 0 0 1 1023.4532 1944.9071)" fill="#AAAAAA" font-family="'MyriadPro-Regular'" font-size="8.9521">Formats</text>
				<text transform="matrix(1 0 0 1 1023.4532 1965.05)" fill="#AAAAAA" font-family="'MyriadPro-Regular'" font-size="8.9521">Time Zone</text>
			</g>
			<g>
				<text transform="matrix(1 0 0 1 1293.9845 1904.6239)" fill="#AAAAAA" font-family="'MyriadPro-Regular'" font-size="8.9521">English [US]</text>
				<text transform="matrix(1 0 0 1 1293.9845 1924.767)" fill="#AAAAAA" font-family="'MyriadPro-Regular'" font-size="8.9521">English [US]</text>
				<text transform="matrix(1 0 0 1 1288.3365 1944.908)" fill="#AAAAAA" font-family="'MyriadPro-Regular'" font-size="8.9521">United States</text>
				<text transform="matrix(1 0 0 1 1300.7164 1965.0509)" fill="#AAAAAA" font-family="'MyriadPro-Regular'" font-size="8.9521">04:21 UTC</text>
			</g>
			
				<line fill="none" stroke="#AAAAAA" stroke-width="0.5595" stroke-miterlimit="10" x1="1010.025" y1="1911.341" x2="1351.698" y2="1911.341"/>
			
				<line fill="none" stroke="#AAAAAA" stroke-width="0.5595" stroke-miterlimit="10" x1="1010.025" y1="1931.484" x2="1351.698" y2="1931.484"/>
			
				<line fill="none" stroke="#AAAAAA" stroke-width="0.5595" stroke-miterlimit="10" x1="1010.025" y1="1951.626" x2="1351.698" y2="1951.626"/>
			
				<line fill="none" stroke="#AAAAAA" stroke-width="0.5595" stroke-miterlimit="10" x1="1010.025" y1="2018.775" x2="1351.698" y2="2018.775"/>
			
				<line fill="none" stroke="#AAAAAA" stroke-width="0.5595" stroke-miterlimit="10" x1="1010.025" y1="1998.632" x2="1351.698" y2="1998.632"/>
			<g>
				<text transform="matrix(1 0 0 1 1023.4532 1991.9167)" fill="#AAAAAA" font-family="'MyriadPro-Regular'" font-size="8.9521">Windows Camouflage</text>
				<text transform="matrix(1 0 0 1 1023.4532 2012.0597)" fill="#AAAAAA" font-family="'MyriadPro-Regular'" font-size="8.9521">Mac Spoofing</text>
				<text transform="matrix(1 0 0 1 1023.4532 2032.2008)" fill="#AAAAAA" font-family="'MyriadPro-Regular'" font-size="8.9521">Network Configuration</text>
			</g>
			<g>
				<text transform="matrix(1 0 0 1 1327.1329 1991.1715)" fill="#AAAAAA" font-family="'MyriadPro-Regular'" font-size="8.9521">On</text>
				<text transform="matrix(1 0 0 1 1326.8829 2011.3146)" fill="#AAAAAA" font-family="'MyriadPro-Regular'" font-size="8.9521">Off</text>
				<text transform="matrix(1 0 0 1 1326.8829 2031.4554)" fill="#AAAAAA" font-family="'MyriadPro-Regular'" font-size="8.9521">Off</text>
			</g>
			<rect x="1009.953" y="1838.422" fill="#6EA6E1" width="160.764" height="20.147"/>
			<rect x="1190.864" y="1838.422" fill="#FFFFFF" width="160.959" height="20.147"/>
			<rect x="1190.864" y="1838.422" fill="#CCCCCC" width="20.147" height="20.147"/>
			
				<rect x="1190.864" y="1838.422" fill="none" stroke="#AAAAAA" stroke-width="0.5595" stroke-miterlimit="10" width="160.959" height="20.147"/>
			<text transform="matrix(1 0 0 1 1046.3873 1851.4385)" fill="#FFFFFF" font-family="'MyriadPro-Regular'" font-size="8.9521">Configure Encrypted Storage</text>
			<path fill="#EDEDED" d="M956.339,1749.073v-29.5c0-2.472,2.004-4.476,4.476-4.476h440.147c2.472,0,4.476,2.004,4.476,4.476v29.5
				H956.339z"/>
			<text transform="matrix(1 0 0 1 1009.9523 1831.7073)" fill="#AAAAAA" font-family="'MyriadPro-Bold'" font-size="10">Storage</text>
			
				<text transform="matrix(1 0 0 1 1176.3844 1851.4381)" fill="#AAAAAA" font-family="'MyriadPro-Regular'" font-size="10.4442" text-decoration=" underline">or</text>
			<g>
				<text transform="matrix(1 0 0 1 1111.6573 1758.715)" fill="#AAAAAA" font-family="'MyriadPro-Regular'" font-size="18">Welcome to Tails.  </text>
			</g>
			<g>
				<text transform="matrix(1 0 0 1 1077.6559 1773.715)" fill="#AAAAAA" font-family="'MyriadPro-Regular'" font-size="10.4442">These are your DEFAULT configuration settings.</text>
			</g>
			<g>
				
					<text transform="matrix(1 0 0 1 1131.1964 1795.7467)" fill="#4A90D9" font-family="'MyriadPro-Regular'" font-size="10.4442" text-decoration=" underline">Learn more about Tails</text>
			</g>
			<g>
				<path fill="#4A90D9" d="M1148.859,2082.904c0,0.775,0.629,1.404,1.404,1.404h59.055c0.775,0,1.404-0.628,1.404-1.404v-21.201
					c0-0.775-0.629-1.404-1.404-1.404h-59.055c-0.775,0-1.404,0.628-1.404,1.404V2082.904z"/>
				<text transform="matrix(1 0 0 1 1158.7926 2076.0146)" fill="#FFFFFF" font-family="'MyriadPro-Regular'" font-size="10.4442">Start Tails</text>
			</g>
			<rect x="1009.953" y="1838.422" fill="#4A90D9" width="20.147" height="20.147"/>
			
				<rect x="1009.953" y="1838.422" fill="none" stroke="#AAAAAA" stroke-width="0.3837" stroke-miterlimit="10" width="160.764" height="20.147"/>
			<path fill="#FFFFFF" d="M1023.723,1852.931h-7.393v-5.175h0.986v-0.986c0-1.497,1.214-2.711,2.711-2.711
				c1.497,0,2.711,1.213,2.711,2.711v0.986h0.986v5.175H1023.723z M1020.026,1845.539c-0.68,0-1.232,0.551-1.232,1.232v0.986h2.464
				v-0.986C1021.259,1846.09,1020.707,1845.539,1020.026,1845.539z"/>
			
				<line fill="none" stroke="#AAAAAA" stroke-width="0.5595" stroke-miterlimit="10" x1="1211.01" y1="1838.422" x2="1211.01" y2="1858.569"/>
			<g>
				<text transform="matrix(1 0 0 1 1216.7545 1851.5118)" fill="#EDEDED" font-family="'MyriadPro-Regular'" font-size="8.9521">Enter your passphrase to unlock</text>
			</g>
			<text transform="matrix(1 0 0 1 1215.506 1850.9479)" fill="#AAAAAA" font-family="'MyriadPro-Regular'" font-size="10.4442">|</text>
			<path fill="#AAAAAA" d="M1204.571,1853.569h-7.393v-5.175h0.986v-0.986c0-1.497,1.214-2.711,2.711-2.711
				c0.929,0,1.708,0.497,2.197,1.209l-1.055,1.055c-0.179-0.459-0.62-0.786-1.142-0.786c-0.68,0-1.232,0.552-1.232,1.232v0.986
				h4.928V1853.569z"/>
			<g>
				<text transform="matrix(1 0 0 1 1009.9523 1884.6659)" fill="#AAAAAA" font-family="'MyriadPro-Bold'" font-size="10">Settings</text>
			</g>
			<g>
				<text transform="matrix(1 0 0 1 1242.8229 1884.6156)" fill="#AAAAAA" font-family="'MyriadPro-Regular'" font-size="8.9521">Save Settings Preferences</text>
			</g>
			<g>
				<polygon fill="#FFFFFF" points="1224.82,2071.023 1224.82,2055.008 1236.41,2066.627 1229.63,2066.627 1229.219,2066.751 				
					"/>
				<polygon fill="#FFFFFF" points="1233.904,2071.698 1230.299,2073.232 1225.617,2062.143 1229.303,2060.591 				"/>
				
					<rect x="1229.058" y="2063.789" transform="matrix(-0.922 0.3871 -0.3871 -0.922 3164.624 3498.2598)" width="2" height="7.999"/>
				<polygon points="1225.82,2057.415 1225.82,2068.603 1228.789,2065.738 1229.217,2065.598 1233.985,2065.598 				"/>
			</g>
			
				<rect x="1346.261" y="1878.873" fill="none" stroke="#AAAAAA" stroke-width="0.5595" stroke-miterlimit="10" width="5.437" height="5.743"/>
		</g>
		<g>
			<path fill="#EDEDED" d="M278.637,2419.94v-29.5c0-2.472,2.004-4.476,4.476-4.476H723.26c2.472,0,4.476,2.004,4.476,4.476v29.5
				H278.637z"/>
			<line fill="none" stroke="#AAAAAA" stroke-miterlimit="10" x1="278.637" y1="2419.94" x2="727.735" y2="2419.94"/>
			<g>
				<text transform="matrix(1 0 0 1 290.9885 2407.6543)" fill="#AAAAAA" font-family="'MyriadPro-Bold'" font-size="18">&lt;&lt;</text>
			</g>
		</g>
		<text transform="matrix(1 0 0 1 956.3383 2160.2339)" fill="#4A90D9" font-family="'MyriadPro-Bold'" font-size="24">Do Not Close Greeter?</text>
		<rect x="956.339" y="2175.964" fill="none" width="449.099" height="277.333"/>
		<text transform="matrix(1 0 0 1 956.3385 2191.03)" enable-background="new    "><tspan x="0" y="0" fill="#AAAAAA" font-family="'MyriadPro-Bold'" font-size="18">Presuming that there is a technical limitation to return</tspan><tspan x="426.661" y="0" fill="#AAAAAA" font-family="'MyriadPro-Bold'" font-size="18">-</tspan><tspan x="0" y="22" fill="#AAAAAA" font-family="'MyriadPro-Bold'" font-size="18">ing</tspan><tspan x="25.631" y="22" fill="#AAAAAA" font-family="'MyriadPro-Bold'" font-size="18"> back to the Tails boot dialog, it seems most appro</tspan><tspan x="424.88" y="22" fill="#AAAAAA" font-family="'MyriadPro-Bold'" font-size="18">-</tspan><tspan x="0" y="44" fill="#AAAAAA" font-family="'MyriadPro-Bold'" font-size="18">priate to not permit people to close the Greeter.  This</tspan><tspan x="0" y="66" fill="#AAAAAA" font-family="'MyriadPro-Bold'" font-size="18">presumption is based on the post-modern loading </tspan><tspan x="0" y="88" fill="#AAAAAA" font-family="'MyriadPro-Bold'" font-size="18">screen that communicates through time and visual</tspan><tspan x="0" y="110" fill="#AAAAAA" font-family="'MyriadPro-Bold'" font-size="18">separation that unloading a Tails mode and returning to </tspan><tspan x="0" y="132" fill="#AAAAAA" font-family="'MyriadPro-Bold'" font-size="18">the Tails boot dialog is not possible.</tspan><tspan x="0" y="176" fill="#AAAAAA" font-family="'MyriadPro-Bold'" font-size="18">There is currently no way to return to the Tails boot </tspan><tspan x="0" y="198" fill="#AAAAAA" font-family="'MyriadPro-Bold'" font-size="18">dialog; this approach wouldn’t change that.</tspan></text>
		<g>
			<text transform="matrix(1 0 0 1 812.6388 1996.046)" fill="#4A90D9" font-family="'MyriadPro-Bold'" font-size="50">VS</text>
		</g>
	</g>
</g>
</svg>
