<?xml version="1.0" encoding="utf-8"?>
<!-- Generator: Adobe Illustrator 17.0.0, SVG Export Plug-In . SVG Version: 6.00 Build 0)  -->
<!DOCTYPE svg PUBLIC "-//W3C//DTD SVG 1.1//EN" "http://www.w3.org/Graphics/SVG/1.1/DTD/svg11.dtd">
<svg version="1.1" xmlns="http://www.w3.org/2000/svg" xmlns:xlink="http://www.w3.org/1999/xlink" x="0px" y="0px" width="1584px"
	 height="1224px" viewBox="1775.211 1384.046 1584 1224" enable-background="new 1775.211 1384.046 1584 1224" xml:space="preserve"
	>
<g id="Guides" display="none">
</g>
<g id="Spacer" display="none">
</g>
<g id="Layer_1">
	<g id="_x30_7">
		<rect x="1775.211" y="1384.046" fill="#FFFFFF" width="1584" height="1224"/>
		<g>
			<text transform="matrix(1 0 0 1 1840.4041 1524.6453)" fill="#4A90D9" font-family="'MyriadPro-Bold'" font-size="100">[7]</text>
		</g>
		<g>
			<text transform="matrix(1 0 0 1 1847.2102 1597.6549)" fill="#4A90D9" font-family="'MyriadPro-Bold'" font-size="50">Other Options</text>
		</g>
		<g>
			<g>
				<rect x="2218.905" y="1754.348" fill="#EDEDED" width="325.084" height="337.714"/>
				<path fill="#EDEDED" d="M2538.766,1759.57v327.27h-314.639v-327.27H2538.766 M2549.21,1749.125h-335.527v348.158h335.527
					V1749.125L2549.21,1749.125z"/>
			</g>
			<g>
				<path fill="#EDEDED" d="M2213.684,1749.125v-29.5c0-2.472,2.004-4.476,4.476-4.476h326.575c2.472,0,4.476,2.004,4.476,4.476
					v29.5H2213.684z"/>
				<g>
					<path fill="#AAAAAA" d="M2237.875,1727.91l-4.246,4.246l4.083,4.083l-1.084,1.084l-4.083-4.083l-4.282,4.282l-1.156-1.156
						l4.282-4.282l-4.084-4.084l1.084-1.084l4.084,4.084l4.246-4.246L2237.875,1727.91z"/>
				</g>
			</g>
			<line fill="none" stroke="#AAAAAA" stroke-miterlimit="10" x1="2213.684" y1="1749.125" x2="2549.21" y2="1749.125"/>
			<g>
				<polygon fill="#FFFFFF" points="2422.582,2068.187 2422.582,2052.171 2434.173,2063.791 2427.392,2063.791 2426.981,2063.915 
									"/>
				<polygon fill="#FFFFFF" points="2431.667,2068.861 2428.062,2070.396 2423.38,2059.307 2427.066,2057.754 				"/>
				
					<rect x="2426.862" y="2060.881" transform="matrix(0.9221 -0.3871 0.3871 0.9221 -610.0016 1100.7074)" width="2" height="7.999"/>
				<polygon points="2423.582,2054.579 2423.582,2065.767 2426.552,2062.901 2426.979,2062.762 2431.747,2062.762 				"/>
			</g>
			<g>
				<path fill="#4A90D9" d="M2350.516,2059.88c0,0.775,0.628,1.404,1.404,1.404h59.055c0.775,0,1.404-0.629,1.404-1.404v-21.201
					c0-0.775-0.628-1.404-1.404-1.404h-59.055c-0.775,0-1.404,0.629-1.404,1.404V2059.88z"/>
				<text transform="matrix(1 0 0 1 2360.4497 2052.9912)" fill="#FFFFFF" font-family="'MyriadPro-Regular'" font-size="10.4442">Start Tails</text>
			</g>
			<g>
				<text transform="matrix(1 0 0 1 2312.1936 1783.3853)" fill="#AAAAAA" font-family="'MyriadPro-Regular'" font-size="18">Welcome to Tails.  </text>
			</g>
			<g>
				<text transform="matrix(1 0 0 1 2256.8667 1798.3851)" fill="#AAAAAA" font-family="'MyriadPro-Regular'" font-size="10.4442">Click to learn about your DEFAULT configuration settings.</text>
			</g>
			
				<text transform="matrix(1 0 0 1 2331.781 1820.416)" fill="#4A90D9" font-family="'MyriadPro-Regular'" font-size="10.4442" text-decoration=" underline">Learn more about Tails</text>
			<g>
				<text transform="matrix(1 0 0 1 2377.5259 1884.035)" fill="#AAAAAA" font-family="'MyriadPro-Regular'" font-size="8.9521">or</text>
			</g>
			<g>
				<text transform="matrix(1 0 0 1 2377.5259 1938.0347)" fill="#AAAAAA" font-family="'MyriadPro-Regular'" font-size="8.9521">or</text>
			</g>
			<g>
				<text transform="matrix(1 0 0 1 2377.5259 1991.9763)" fill="#AAAAAA" font-family="'MyriadPro-Regular'" font-size="8.9521">or</text>
			</g>
			<g>
				<g>
					<rect x="2273.447" y="1965.286" fill="#AAAAAA" width="216" height="36"/>
				</g>
				<g>
					<text transform="matrix(1 0 0 1 2350.8474 1990.4346)" fill="#FFFFFF" font-family="'MyriadPro-Regular'" font-size="18">Settings</text>
				</g>
				<g>
					<g>
						<path fill="#FFFFFF" d="M2298.646,1992.375c-0.154-0.051-0.312-0.092-0.46-0.155c-0.557-0.233-1.106-0.483-1.667-0.707
							c-0.408-0.163-0.822-0.132-1.242,0.001c-0.911,0.289-1.593,0.802-1.876,1.76c-0.112,0.38-0.261,0.75-0.396,1.123
							c-0.161,0.445-0.486,0.692-0.953,0.704c-0.397,0.01-0.795,0.011-1.193,0c-0.471-0.014-0.785-0.259-0.953-0.705
							c-0.198-0.525-0.382-1.056-0.608-1.568c-0.465-1.05-1.415-1.343-2.435-1.421c-0.343-0.026-0.714,0.174-1.057,0.31
							c-0.376,0.149-0.734,0.346-1.102,0.518c-0.444,0.207-0.841,0.136-1.185-0.205c-0.264-0.262-0.527-0.525-0.791-0.787
							c-0.357-0.356-0.425-0.747-0.217-1.205c0.221-0.487,0.441-0.975,0.654-1.466c0.281-0.649,0.173-1.276-0.1-1.903
							c-0.3-0.689-0.778-1.166-1.501-1.4c-0.419-0.135-0.83-0.295-1.243-0.446c-0.415-0.152-0.656-0.451-0.678-0.89
							c-0.021-0.431-0.018-0.864,0.002-1.295c0.021-0.442,0.268-0.732,0.679-0.889c0.524-0.2,1.054-0.386,1.567-0.61
							c1.064-0.464,1.371-1.415,1.438-2.447c0.023-0.36-0.186-0.745-0.327-1.104c-0.145-0.369-0.337-0.719-0.504-1.08
							c-0.194-0.419-0.124-0.818,0.196-1.141c0.274-0.277,0.549-0.552,0.826-0.826c0.341-0.339,0.722-0.402,1.161-0.209
							c0.56,0.246,1.121,0.492,1.688,0.723c0.427,0.174,0.857,0.139,1.292-0.004c0.865-0.285,1.541-0.759,1.822-1.68
							c0.123-0.404,0.281-0.798,0.426-1.196c0.162-0.444,0.475-0.692,0.953-0.703c0.397-0.009,0.795-0.011,1.193-0.001
							c0.449,0.011,0.783,0.261,0.939,0.688c0.133,0.365,0.271,0.729,0.389,1.098c0.332,1.039,1.055,1.619,2.102,1.852
							c0.421,0.094,0.822,0.09,1.215-0.086c0.496-0.222,0.992-0.446,1.486-0.673c0.474-0.218,0.863-0.153,1.228,0.212
							c0.25,0.251,0.5,0.502,0.751,0.754c0.395,0.397,0.447,0.75,0.215,1.27c-0.246,0.551-0.485,1.105-0.707,1.666
							c-0.154,0.39-0.112,0.781,0.001,1.19c0.263,0.952,0.837,1.585,1.77,1.901c0.376,0.127,0.749,0.264,1.122,0.399
							c0.451,0.163,0.698,0.498,0.709,0.979c0.008,0.354,0.008,0.709,0.002,1.064c-0.009,0.573-0.245,0.882-0.789,1.083
							c-0.51,0.189-1.016,0.387-1.519,0.59c-0.666,0.269-0.978,0.831-1.223,1.461c-0.273,0.702-0.197,1.366,0.131,2.024
							c0.181,0.363,0.351,0.732,0.525,1.099c0.208,0.439,0.141,0.839-0.202,1.186c-0.274,0.277-0.552,0.549-0.825,0.827
							C2299.178,1992.256,2298.937,1992.348,2298.646,1992.375z M2291.418,1989.203c3.218,0.045,5.905-2.579,5.95-5.812
							c0.047-3.29-2.543-5.967-5.821-6.016c-3.299-0.049-5.96,2.558-6.01,5.886
							C2285.49,1986.486,2288.132,1989.156,2291.418,1989.203z"/>
					</g>
					<path fill="#FFFFFF" d="M2291.471,1978.538c-2.62-0.009-4.752,2.106-4.759,4.719c-0.007,2.614,2.096,4.765,4.668,4.776
						c2.68,0.012,4.823-2.109,4.823-4.772C2296.203,1980.682,2294.064,1978.546,2291.471,1978.538z M2291.444,1984.075
						c-0.427-0.002-0.777-0.359-0.776-0.793c0.001-0.434,0.355-0.786,0.791-0.784c0.431,0.001,0.786,0.356,0.786,0.785
						C2292.245,1983.724,2291.889,1984.077,2291.444,1984.075z"/>
				</g>
			</g>
			<g>
				<g>
					<rect x="2273.447" y="1857.333" fill="#AAAAAA" width="216" height="36"/>
				</g>
				<g>
					<text transform="matrix(1 0 0 1 2352.2693 1882.4929)" fill="#FFFFFF" font-family="'MyriadPro-Regular'" font-size="18">Storage</text>
				</g>
				<path fill="#FFFFFF" d="M2297.327,1877.098v7.285c0,0.545-0.442,0.987-0.987,0.987h-15.723c-0.545,0-0.987-0.442-0.987-0.987
					v-12.276c0-0.545,0.442-0.987,0.987-0.987h1.312v-1.082c0-0.545,0.442-0.987,0.987-0.987h3.619c0.545,0,0.987,0.442,0.987,0.987
					v1.082h3.9C2291.709,1874.265,2294.192,1876.774,2297.327,1877.098z M2298.859,1869.052c0-0.423-0.343-0.766-0.766-0.766
					s-0.766,0.343-0.766,0.766v0.613h1.532V1869.052z M2298.093,1868.286c-0.423,0-0.766,0.343-0.766,0.766v0.613h1.532v-0.613
					C2298.859,1868.629,2298.516,1868.286,2298.093,1868.286z M2303.226,1870.507c0,2.877-2.332,5.209-5.209,5.209
					c-2.877,0-5.209-2.332-5.209-5.209s2.333-5.209,5.209-5.209C2300.893,1865.298,2303.226,1867.63,2303.226,1870.507z
					 M2300.391,1869.664h-0.613v-0.613c0-0.931-0.754-1.685-1.685-1.685s-1.685,0.755-1.685,1.685v0.613h-0.613v3.218h4.597
					V1869.664z"/>
			</g>
			<g>
				<g>
					<rect x="2273.447" y="1911.333" fill="#AAAAAA" width="216" height="36"/>
				</g>
				<g>
					<text transform="matrix(1 0 0 1 2343.9988 1936.493)" fill="#FFFFFF" font-family="'MyriadPro-Regular'" font-size="18">Language</text>
				</g>
				<g>
					<g>
						<path fill="#FFFFFF" d="M2295.169,1917.467c-4.143,0-7.502,3.359-7.502,7.502c0,0.553,0.064,1.09,0.177,1.609h5.111
							c0.41,0,0.772,0.202,1,0.508c0.248-0.174,0.485-0.354,0.699-0.541c-1.253-1.367-1.772-2.695-1.808-2.791l0.934-0.355
							c0.008,0.021,0.473,1.201,1.591,2.432c1.258-1.427,1.726-2.986,1.893-3.791h-6.274v-0.999h3.948v-1.322h0.999v1.322h3.948
							v0.999h-1.605c-0.156,0.86-0.66,2.771-2.196,4.494c0.809,0.711,1.855,1.366,3.18,1.739l-0.271,0.962
							c-1.526-0.43-2.716-1.177-3.625-1.985c-0.345,0.309-0.735,0.602-1.164,0.877v4.276c0.317,0.041,0.637,0.069,0.965,0.069
							c4.143,0,7.502-3.359,7.502-7.502S2299.312,1917.467,2295.169,1917.467z"/>
					</g>
					<g>
						<path fill="#FFFFFF" d="M2286.53,1930.505h-0.026c-0.13,0.506-0.259,1.052-0.442,1.584l-0.857,2.533h2.649l-0.871-2.519
							C2286.789,1931.531,2286.66,1931.011,2286.53,1930.505z"/>
						<path fill="#FFFFFF" d="M2292.955,1927.326h-12.826c-0.276,0-0.499,0.224-0.499,0.499v12.826c0,0.276,0.224,0.499,0.499,0.499
							h12.826c0.276,0,0.5-0.224,0.5-0.499v-12.826C2293.455,1927.55,2293.231,1927.326,2292.955,1927.326z M2289.01,1938.257
							l-0.934-2.753h-3.104l-0.909,2.753h-1.169l2.987-8.753h1.35l2.987,8.753H2289.01z"/>
					</g>
				</g>
			</g>
		</g>
		<g>
			<rect x="2590.433" y="1754.348" fill="#EDEDED" width="325.083" height="467.858"/>
			<path fill="#EDEDED" d="M2910.293,1759.57v457.414h-314.639V1759.57H2910.293 M2920.738,1749.125H2585.21v478.302h335.527
				V1749.125L2920.738,1749.125z"/>
		</g>
		<g>
			<path fill="#EDEDED" d="M2585.21,1749.125v-29.5c0-2.472,2.004-4.476,4.476-4.476h326.575c2.472,0,4.476,2.004,4.476,4.476v29.5
				H2585.21z"/>
			<g>
				<path fill="#AAAAAA" d="M2609.402,1727.91l-4.246,4.246l4.083,4.083l-1.084,1.084l-4.083-4.083l-4.282,4.282l-1.156-1.156
					l4.282-4.282l-4.084-4.084l1.084-1.084l4.084,4.084l4.246-4.246L2609.402,1727.91z"/>
			</g>
		</g>
		<line fill="none" stroke="#AAAAAA" stroke-miterlimit="10" x1="2585.21" y1="1749.125" x2="2920.738" y2="1749.125"/>
		<g>
			<polygon fill="#FFFFFF" points="2794.109,2198.331 2794.109,2182.315 2805.7,2193.935 2798.919,2193.935 2798.508,2194.059 			
				"/>
			<polygon fill="#FFFFFF" points="2803.194,2199.005 2799.589,2200.54 2794.907,2189.451 2798.593,2187.898 			"/>
			
				<rect x="2798.389" y="2191.025" transform="matrix(0.9221 -0.3871 0.3871 0.9221 -631.4161 1254.6588)" width="2" height="7.999"/>
			<polygon points="2795.109,2184.723 2795.109,2195.911 2798.079,2193.045 2798.506,2192.906 2803.274,2192.906 			"/>
		</g>
		<g>
			<path fill="#4A90D9" d="M2722.042,2190.024c0,0.775,0.629,1.404,1.404,1.404h59.055c0.775,0,1.404-0.629,1.404-1.404v-21.201
				c0-0.775-0.628-1.404-1.404-1.404h-59.055c-0.775,0-1.404,0.628-1.404,1.404V2190.024z"/>
			<text transform="matrix(1 0 0 1 2731.9766 2183.1353)" fill="#FFFFFF" font-family="'MyriadPro-Regular'" font-size="10.4442">Start Tails</text>
		</g>
		<g>
			<text transform="matrix(1 0 0 1 2683.7207 1783.3853)" fill="#AAAAAA" font-family="'MyriadPro-Regular'" font-size="18">Welcome to Tails.  </text>
		</g>
		<g>
			<text transform="matrix(1 0 0 1 2649.7727 1798.3851)" fill="#AAAAAA" font-family="'MyriadPro-Regular'" font-size="10.4442">These are your DEFAULT configuration settings.</text>
		</g>
		
			<text transform="matrix(1 0 0 1 2703.3079 1820.416)" fill="#4A90D9" font-family="'MyriadPro-Regular'" font-size="10.4442" text-decoration=" underline">Learn more about Tails</text>
		<text transform="matrix(1 0 0 1 2213.6841 2150.3423)" fill="#4A90D9" font-family="'MyriadPro-Bold'" font-size="24">Icon &amp; Text Buttons</text>
		<rect x="2213.684" y="2166.058" fill="none" width="335.527" height="207.088"/>
		<text transform="matrix(1 0 0 1 2213.6836 2181.1245)" enable-background="new    "><tspan x="0" y="0" fill="#AAAAAA" font-family="'MyriadPro-Bold'" font-size="18">Using buttons that include icons and text </tspan><tspan x="0" y="22" fill="#AAAAAA" font-family="'MyriadPro-Bold'" font-size="18">to represent each of the settings sections </tspan><tspan x="0" y="44" fill="#AAAAAA" font-family="'MyriadPro-Bold'" font-size="18">keeps the greeter canvas to a minimum </tspan><tspan x="0" y="66" fill="#AAAAAA" font-family="'MyriadPro-Bold'" font-size="18">while also being clear enough for people </tspan><tspan x="0" y="88" fill="#AAAAAA" font-family="'MyriadPro-Bold'" font-size="18">to understand the options.</tspan></text>
		<text transform="matrix(1 0 0 1 2585.2112 2280.4866)" fill="#4A90D9" font-family="'MyriadPro-Bold'" font-size="24">Icon, Text, &amp; Info Buttons</text>
		<rect x="2585.211" y="2296.202" fill="none" width="335.527" height="207.088"/>
		<text transform="matrix(1 0 0 1 2585.2107 2311.2688)" enable-background="new    "><tspan x="0" y="0" fill="#AAAAAA" font-family="'MyriadPro-Bold'" font-size="18">Using buttons that include icons, text,</tspan><tspan x="0" y="22" fill="#AAAAAA" font-family="'MyriadPro-Bold'" font-size="18">and relevant summarized information to </tspan><tspan x="0" y="44" fill="#AAAAAA" font-family="'MyriadPro-Bold'" font-size="18">represent each of the settings sections </tspan><tspan x="0" y="66" fill="#AAAAAA" font-family="'MyriadPro-Bold'" font-size="18">simplifies the content of the greeter </tspan><tspan x="0" y="88" fill="#AAAAAA" font-family="'MyriadPro-Bold'" font-size="18">canvas while also communicating enough </tspan><tspan x="0" y="110" fill="#AAAAAA" font-family="'MyriadPro-Bold'" font-size="18">information for people to understand, </tspan><tspan x="0" y="132" fill="#AAAAAA" font-family="'MyriadPro-Bold'" font-size="18">and learn the subtle nuances of, their</tspan><tspan x="0" y="154" fill="#AAAAAA" font-family="'MyriadPro-Bold'" font-size="18">preference settings.</tspan></text>
		<text transform="matrix(1 0 0 1 2956.738 2276.7437)" fill="#4A90D9" font-family="'MyriadPro-Bold'" font-size="24">List Item Buttons</text>
		<rect x="2956.738" y="2292.459" fill="none" width="335.527" height="207.088"/>
		<text transform="matrix(1 0 0 1 2956.7375 2307.5259)" enable-background="new    "><tspan x="0" y="0" fill="#AAAAAA" font-family="'MyriadPro-Bold'" font-size="18">Using actionable list items accompanied </tspan><tspan x="0" y="22" fill="#AAAAAA" font-family="'MyriadPro-Bold'" font-size="18">by iconic labels to represent each of the </tspan><tspan x="0" y="44" fill="#AAAAAA" font-family="'MyriadPro-Bold'" font-size="18">settings sections simplifies the content of </tspan><tspan x="0" y="66" fill="#AAAAAA" font-family="'MyriadPro-Bold'" font-size="18">the greeter canvas while also</tspan><tspan x="0" y="88" fill="#AAAAAA" font-family="'MyriadPro-Bold'" font-size="18">communicating enough information for </tspan><tspan x="0" y="110" fill="#AAAAAA" font-family="'MyriadPro-Bold'" font-size="18">people to understand, and learn the </tspan><tspan x="0" y="132" fill="#AAAAAA" font-family="'MyriadPro-Bold'" font-size="18">subtle nuances of, their preference</tspan><tspan x="0" y="154" fill="#AAAAAA" font-family="'MyriadPro-Bold'" font-size="18">settings.</tspan></text>
		<text transform="matrix(1 0 0 1 1842.3289 2081.9871)" fill="#4A90D9" font-family="'MyriadPro-Bold'" font-size="24">Icon Buttons</text>
		<rect x="1842.328" y="2097.703" fill="none" width="335.527" height="207.088"/>
		<text transform="matrix(1 0 0 1 1842.3284 2112.769)" enable-background="new    "><tspan x="0" y="0" fill="#AAAAAA" font-family="'MyriadPro-Bold'" font-size="18">Using only icons to represent each of the </tspan><tspan x="0" y="22" fill="#AAAAAA" font-family="'MyriadPro-Bold'" font-size="18">settings sections keeps the greeter </tspan><tspan x="0" y="44" fill="#AAAAAA" font-family="'MyriadPro-Bold'" font-size="18">canvas content to a minimum.</tspan></text>
		<g enable-background="new    ">
			<path fill="#4A90D9" d="M1856.155,2402.712l-4.326,5.175v0.081l6.47-1.293v4.083l-6.511-1.092v0.081l4.368,5.014l-3.558,2.063
				l-2.346-6.226h-0.079l-2.306,6.226l-3.476-2.063l4.325-5.053l-0.039-0.081l-6.346,1.132v-4.083l6.307,1.293v-0.081l-4.246-5.136
				l3.598-2.102l2.224,6.268h0.081l2.346-6.268L1856.155,2402.712z"/>
		</g>
		<rect x="1842.328" y="2432.82" fill="none" width="335.527" height="103.226"/>
		<text transform="matrix(1 0 0 1 1842.3284 2447.886)" enable-background="new    "><tspan x="0" y="0" fill="#AAAAAA" font-family="'MyriadPro-Bold'" font-size="18">All four of these, or any variation thereof, </tspan><tspan x="0" y="22" fill="#AAAAAA" font-family="'MyriadPro-Bold'" font-size="18">can function by either flipping/sliding </tspan><tspan x="0" y="44" fill="#AAAAAA" font-family="'MyriadPro-Bold'" font-size="18">over to display the contents on a</tspan><tspan x="0" y="66" fill="#AAAAAA" font-family="'MyriadPro-Bold'" font-size="18">dedicated canvas, or by displaying a pop </tspan><tspan x="0" y="88" fill="#AAAAAA" font-family="'MyriadPro-Bold'" font-size="18">over, as is the current preference.</tspan></text>
		<g>
			<rect x="1847.555" y="1754.348" fill="#EDEDED" width="325.084" height="268.776"/>
			<path fill="#EDEDED" d="M2167.416,1759.57v258.332h-314.639V1759.57H2167.416 M2177.86,1749.125h-335.527v279.22h335.527
				V1749.125L2177.86,1749.125z"/>
		</g>
		<g>
			<path fill="#EDEDED" d="M1842.333,1749.125v-29.5c0-2.472,2.004-4.476,4.476-4.476h326.575c2.472,0,4.476,2.004,4.476,4.476v29.5
				H1842.333z"/>
			<g>
				<path fill="#AAAAAA" d="M1866.524,1727.91l-4.246,4.246l4.083,4.083l-1.084,1.084l-4.083-4.083l-4.282,4.282l-1.156-1.156
					l4.282-4.282l-4.084-4.084l1.084-1.084l4.084,4.084l4.246-4.246L1866.524,1727.91z"/>
			</g>
		</g>
		<line fill="none" stroke="#AAAAAA" stroke-miterlimit="10" x1="1842.333" y1="1749.125" x2="2177.86" y2="1749.125"/>
		<g>
			<path fill="#4A90D9" d="M1979.165,1990.938c0,0.775,0.629,1.404,1.404,1.404h59.055c0.775,0,1.404-0.628,1.404-1.404v-21.201
				c0-0.775-0.629-1.404-1.404-1.404h-59.055c-0.775,0-1.404,0.629-1.404,1.404V1990.938z"/>
			<text transform="matrix(1 0 0 1 1989.0991 1984.0496)" fill="#FFFFFF" font-family="'MyriadPro-Regular'" font-size="10.4442">Start Tails</text>
		</g>
		<g>
			<text transform="matrix(1 0 0 1 1940.8428 1783.3853)" fill="#AAAAAA" font-family="'MyriadPro-Regular'" font-size="18">Welcome to Tails.  </text>
		</g>
		<g>
			<text transform="matrix(1 0 0 1 1885.5105 1798.3851)" fill="#AAAAAA" font-family="'MyriadPro-Regular'" font-size="10.4442">Click to learn about your DEFAULT configuration settings.</text>
		</g>
		
			<text transform="matrix(1 0 0 1 1960.4305 1820.416)" fill="#4A90D9" font-family="'MyriadPro-Regular'" font-size="10.4442" text-decoration=" underline">Learn more about Tails</text>
		<rect x="2614.726" y="2045.861" fill="#CCCCCC" width="276.507" height="87.507"/>
		<g>
			<text transform="matrix(1 0 0 1 2704.3003 2064.4578)" fill="#AAAAAA" font-family="'MyriadPro-Bold'" font-size="18">Settings</text>
		</g>
		<g>
			<text transform="matrix(1 0 0 1 2704.3 2081.8296)"><tspan x="0" y="0" fill="#AAAAAA" font-family="'MyriadPro-Regular'" font-size="8">Windows Camouflage . . . . . . . . . . . . . . . . . . . . . . . . . .  </tspan><tspan x="0" y="12" fill="#AAAAAA" font-family="'MyriadPro-Regular'" font-size="8">MAC Spoofing . . . . . . . . . . . . . . . . . . . . . . . . . . . . . . . . . </tspan><tspan x="0" y="24" fill="#AAAAAA" font-family="'MyriadPro-Regular'" font-size="8">Network Configuration . . . . . . . . . . . . . . . . . . . . . . . . .</tspan></text>
		</g>
		<g>
			<text transform="matrix(1 0 0 1 2867.3479 2081.8296)"><tspan x="0" y="0" fill="#AAAAAA" font-family="'MyriadPro-Regular'" font-size="8">On</tspan><tspan x="-0.224" y="12" fill="#AAAAAA" font-family="'MyriadPro-Regular'" font-size="8">Off</tspan><tspan x="-0.224" y="24" fill="#AAAAAA" font-family="'MyriadPro-Regular'" font-size="8">Off</tspan></text>
		</g>
		<g>
			<text transform="matrix(1 0 0 1 2704.3 1985.3793)"><tspan x="0" y="0" fill="#AAAAAA" font-family="'MyriadPro-Regular'" font-size="8">Text Language . . . . . . . . . . . . . . . . . . . . . . . . </tspan><tspan x="0" y="12" fill="#AAAAAA" font-family="'MyriadPro-Regular'" font-size="8">Keyboard Language . . . . . . . . . . . . . . . . . . . </tspan><tspan x="0" y="24" fill="#AAAAAA" font-family="'MyriadPro-Regular'" font-size="8">Formats . . . . . . . . . . . . . . . . . . . . . . . . . . . . . </tspan><tspan x="0" y="36" fill="#AAAAAA" font-family="'MyriadPro-Regular'" font-size="8">Timezone . . . . . . . . . . . . . . . . . . . . . . . . . . . . . . .</tspan></text>
		</g>
		<g>
			<text transform="matrix(1 0 0 1 2837.7251 1985.3793)"><tspan x="0" y="0" fill="#AAAAAA" font-family="'MyriadPro-Regular'" font-size="8">English [US]</tspan><tspan x="0" y="12" fill="#AAAAAA" font-family="'MyriadPro-Regular'" font-size="8">English [US]</tspan><tspan x="-5.048" y="24" fill="#AAAAAA" font-family="'MyriadPro-Regular'" font-size="8">United States</tspan><tspan x="6.017" y="36" fill="#AAAAAA" font-family="'MyriadPro-Regular'" font-size="8">04:21 UTC</tspan></text>
		</g>
		<text transform="matrix(1 0 0 1 2704.3 1968.0072)" fill="#AAAAAA" font-family="'MyriadPro-Bold'" font-size="18">Language</text>
		<g>
			
				<rect x="2619.98" y="1954.415" fill="#FFFFFF" stroke="#AAAAAA" stroke-width="0.3005" stroke-miterlimit="10" width="75" height="75"/>
			<circle fill="#AAAAAA" cx="2665.527" cy="1983.224" r="15.022"/>
			<path fill="none" stroke="#FFFFFF" stroke-width="2" stroke-miterlimit="10" d="M2657.158,1976.357h17.812 M2666.063,1976.357
				v-3.648 M2659.948,1990.306c10.086-4.077,10.945-13.949,10.945-13.949 M2661.809,1980.434c0,0,3.008,7.934,11.646,10.366"/>
			<g>
				<path fill="#AAAAAA" d="M2635.41,2016.378c-0.965,0-1.75-0.785-1.75-1.75v-25.683c0-0.965,0.785-1.75,1.75-1.75h25.684
					c0.965,0,1.75,0.785,1.75,1.75v25.683c0,0.965-0.785,1.75-1.75,1.75H2635.41z"/>
				<path fill="#FFFFFF" d="M2661.094,1987.945c0.552,0,1,0.448,1,1v25.683c0,0.552-0.448,1-1,1h-25.683c-0.552,0-1-0.448-1-1
					v-25.683c0-0.552,0.448-1,1-1H2661.094 M2661.094,1986.445h-25.683c-1.378,0-2.5,1.121-2.5,2.5v25.683
					c0,1.379,1.122,2.5,2.5,2.5h25.683c1.378,0,2.5-1.121,2.5-2.5v-25.683C2663.594,1987.566,2662.472,1986.445,2661.094,1986.445
					L2661.094,1986.445z"/>
			</g>
			<text transform="matrix(1 0 0 1 2640.2961 2009.834)" fill="#FFFFFF" font-family="'MyriadPro-Regular'" font-size="26">A</text>
		</g>
		<g>
			
				<rect x="2619.98" y="2052.115" fill="#FFFFFF" stroke="#AAAAAA" stroke-width="0.3005" stroke-miterlimit="10" width="75" height="75"/>
			<path fill="#AAAAAA" d="M2671.987,2107.977c-0.311-0.103-0.629-0.187-0.93-0.312c-1.125-0.471-2.236-0.975-3.367-1.428
				c-0.825-0.33-1.66-0.267-2.51,0.002c-1.84,0.583-3.219,1.62-3.79,3.556c-0.227,0.768-0.528,1.515-0.801,2.27
				c-0.326,0.899-0.982,1.397-1.925,1.422c-0.803,0.021-1.607,0.023-2.409-0.001c-0.952-0.028-1.587-0.524-1.926-1.425
				c-0.399-1.06-0.771-2.133-1.229-3.167c-0.939-2.122-2.859-2.714-4.919-2.872c-0.694-0.053-1.443,0.352-2.135,0.626
				c-0.76,0.302-1.483,0.699-2.226,1.046c-0.896,0.418-1.699,0.276-2.394-0.414c-0.533-0.529-1.065-1.06-1.597-1.591
				c-0.722-0.72-0.859-1.509-0.438-2.434c0.447-0.984,0.891-1.97,1.321-2.962c0.569-1.312,0.35-2.578-0.202-3.845
				c-0.607-1.393-1.573-2.356-3.032-2.828c-0.846-0.273-1.676-0.596-2.512-0.901c-0.839-0.306-1.326-0.912-1.37-1.799
				c-0.043-0.87-0.036-1.746,0.005-2.617c0.042-0.893,0.542-1.479,1.373-1.796c1.059-0.404,2.129-0.78,3.167-1.232
				c2.149-0.937,2.77-2.858,2.906-4.945c0.047-0.728-0.376-1.506-0.66-2.231c-0.292-0.746-0.681-1.453-1.018-2.182
				c-0.391-0.847-0.251-1.652,0.396-2.306c0.553-0.559,1.11-1.114,1.668-1.668c0.689-0.684,1.46-0.812,2.346-0.423
				c1.132,0.497,2.265,0.994,3.41,1.46c0.862,0.351,1.732,0.281,2.611-0.008c1.748-0.575,3.114-1.533,3.68-3.394
				c0.249-0.817,0.567-1.613,0.86-2.416c0.327-0.896,0.96-1.399,1.926-1.421c0.803-0.018,1.607-0.022,2.41-0.003
				c0.907,0.022,1.583,0.528,1.898,1.389c0.269,0.737,0.548,1.472,0.787,2.219c0.671,2.099,2.132,3.271,4.247,3.742
				c0.851,0.189,1.66,0.182,2.455-0.174c1.003-0.448,2.004-0.901,3.002-1.36c0.957-0.441,1.744-0.31,2.48,0.429
				c0.506,0.507,1.011,1.015,1.517,1.523c0.798,0.802,0.903,1.514,0.434,2.565c-0.497,1.113-0.981,2.233-1.427,3.367
				c-0.311,0.788-0.226,1.577,0.003,2.404c0.531,1.924,1.69,3.202,3.575,3.84c0.76,0.257,1.513,0.534,2.268,0.807
				c0.912,0.33,1.41,1.006,1.432,1.978c0.017,0.716,0.016,1.433,0.004,2.149c-0.019,1.158-0.495,1.781-1.594,2.188
				c-1.029,0.381-2.052,0.782-3.069,1.193c-1.345,0.543-1.976,1.679-2.472,2.953c-0.553,1.419-0.398,2.761,0.265,4.09
				c0.366,0.734,0.709,1.479,1.061,2.219c0.421,0.888,0.285,1.695-0.409,2.396c-0.553,0.559-1.115,1.109-1.666,1.67
				C2673.062,2107.738,2672.575,2107.924,2671.987,2107.977z M2657.383,2101.569c6.502,0.091,11.93-5.21,12.023-11.744
				c0.094-6.647-5.139-12.056-11.76-12.155c-6.665-0.1-12.043,5.168-12.143,11.894
				C2645.406,2096.08,2650.745,2101.476,2657.383,2101.569z"/>
			<path fill="#AAAAAA" d="M2657.491,2082.434c3.921,0.013,7.156,3.242,7.156,7.144c0,4.027-3.242,7.235-7.293,7.217
				c-3.89-0.017-7.07-3.271-7.06-7.223C2650.304,2085.619,2653.529,2082.42,2657.491,2082.434z"/>
		</g>
		<g>
			<rect x="2961.959" y="1754.348" fill="#EDEDED" width="325.084" height="464.115"/>
			<path fill="#EDEDED" d="M3281.821,1759.57v453.67h-314.639v-453.67H3281.821 M3292.265,1749.125h-335.527v474.559h335.527
				V1749.125L3292.265,1749.125z"/>
		</g>
		<g>
			<path fill="#EDEDED" d="M2956.738,1749.125v-29.5c0-2.472,2.004-4.476,4.476-4.476h326.575c2.472,0,4.476,2.004,4.476,4.476v29.5
				H2956.738z"/>
			<g>
				<path fill="#AAAAAA" d="M2980.929,1727.91l-4.246,4.246l4.083,4.083l-1.084,1.084l-4.083-4.083l-4.282,4.282l-1.156-1.156
					l4.282-4.282l-4.084-4.084l1.084-1.084l4.084,4.084l4.246-4.246L2980.929,1727.91z"/>
			</g>
		</g>
		<line fill="none" stroke="#AAAAAA" stroke-miterlimit="10" x1="2956.738" y1="1749.125" x2="3292.264" y2="1749.125"/>
		<g>
			<polygon fill="#FFFFFF" points="3165.636,2194.587 3165.636,2178.572 3177.227,2190.191 3170.447,2190.191 3170.035,2190.315 			
				"/>
			<polygon fill="#FFFFFF" points="3174.721,2195.261 3171.116,2196.796 3166.434,2185.707 3170.12,2184.155 			"/>
			
				<rect x="3169.916" y="2187.281" transform="matrix(0.9221 -0.3871 0.3871 0.9221 -601.0068 1398.1738)" width="2" height="7.999"/>
			<polygon points="3166.636,2180.979 3166.636,2192.167 3169.606,2189.302 3170.033,2189.162 3174.802,2189.162 			"/>
		</g>
		<g>
			<path fill="#4A90D9" d="M3093.57,2186.28c0,0.775,0.628,1.404,1.404,1.404h59.055c0.775,0,1.404-0.629,1.404-1.404v-21.201
				c0-0.775-0.628-1.404-1.404-1.404h-59.055c-0.775,0-1.404,0.628-1.404,1.404V2186.28z"/>
			<text transform="matrix(1 0 0 1 3103.5037 2179.3918)" fill="#FFFFFF" font-family="'MyriadPro-Regular'" font-size="10.4442">Start Tails</text>
		</g>
		<g>
			<text transform="matrix(1 0 0 1 3055.2476 1783.3853)" fill="#AAAAAA" font-family="'MyriadPro-Regular'" font-size="18">Welcome to Tails.  </text>
		</g>
		<g>
			<text transform="matrix(1 0 0 1 3021.2996 1798.3851)" fill="#AAAAAA" font-family="'MyriadPro-Regular'" font-size="10.4442">These are your DEFAULT configuration settings.</text>
		</g>
		
			<text transform="matrix(1 0 0 1 3074.835 1820.416)" fill="#4A90D9" font-family="'MyriadPro-Regular'" font-size="10.4442" text-decoration=" underline">Learn more about Tails</text>
		
			<rect x="2992.738" y="2054.458" fill="#FFFFFF" stroke="#AAAAAA" stroke-width="0.3228" stroke-miterlimit="10" width="80.569" height="80.569"/>
		<g>
			<path fill="#AAAAAA" d="M3045.265,2102.393c-0.262-0.087-0.531-0.157-0.784-0.264c-0.948-0.397-1.885-0.822-2.838-1.204
				c-0.695-0.279-1.399-0.226-2.116,0.002c-1.551,0.492-2.713,1.366-3.195,2.998c-0.191,0.648-0.445,1.278-0.675,1.914
				c-0.275,0.758-0.828,1.178-1.622,1.199c-0.677,0.018-1.354,0.019-2.031,0c-0.802-0.023-1.337-0.442-1.624-1.201
				c-0.336-0.894-0.65-1.798-1.036-2.671c-0.792-1.789-2.41-2.288-4.146-2.421c-0.584-0.045-1.216,0.297-1.8,0.528
				c-0.641,0.254-1.25,0.59-1.876,0.882c-0.756,0.353-1.432,0.233-2.017-0.349c-0.449-0.446-0.898-0.894-1.346-1.341
				c-0.609-0.607-0.724-1.272-0.369-2.052c0.377-0.83,0.751-1.661,1.114-2.497c0.479-1.106,0.295-2.174-0.171-3.242
				c-0.511-1.174-1.326-1.987-2.556-2.385c-0.713-0.23-1.413-0.503-2.117-0.76c-0.707-0.259-1.118-0.769-1.155-1.517
				c-0.036-0.734-0.03-1.472,0.004-2.207c0.035-0.753,0.456-1.247,1.157-1.515c0.892-0.34,1.795-0.657,2.669-1.039
				c1.812-0.79,2.335-2.41,2.449-4.169c0.04-0.614-0.317-1.27-0.556-1.882c-0.246-0.629-0.574-1.225-0.858-1.84
				c-0.33-0.714-0.212-1.393,0.334-1.944c0.466-0.471,0.936-0.939,1.406-1.406c0.581-0.577,1.231-0.685,1.977-0.357
				c0.954,0.419,1.909,0.839,2.874,1.232c0.727,0.296,1.46,0.237,2.201-0.007c1.473-0.485,2.625-1.293,3.102-2.862
				c0.21-0.688,0.478-1.36,0.725-2.037c0.276-0.756,0.809-1.18,1.623-1.198c0.677-0.015,1.355-0.019,2.032-0.002
				c0.765,0.019,1.334,0.445,1.599,1.172c0.227,0.622,0.462,1.241,0.663,1.871c0.566,1.77,1.797,2.759,3.579,3.156
				c0.717,0.16,1.399,0.154,2.07-0.146c0.845-0.378,1.689-0.76,2.531-1.147c0.807-0.372,1.47-0.261,2.091,0.362
				c0.426,0.428,0.853,0.856,1.279,1.284c0.673,0.676,0.761,1.277,0.366,2.163c-0.419,0.938-0.827,1.883-1.203,2.839
				c-0.262,0.665-0.19,1.33,0.002,2.027c0.448,1.622,1.425,2.7,3.013,3.238c0.641,0.217,1.275,0.45,1.911,0.681
				c0.769,0.278,1.188,0.848,1.208,1.667c0.014,0.604,0.013,1.208,0.003,1.812c-0.016,0.977-0.417,1.502-1.343,1.845
				c-0.868,0.321-1.729,0.659-2.587,1.006c-1.134,0.458-1.665,1.416-2.083,2.49c-0.466,1.196-0.336,2.328,0.223,3.448
				c0.308,0.619,0.598,1.247,0.894,1.872c0.355,0.749,0.24,1.429-0.345,2.02c-0.466,0.471-0.94,0.935-1.404,1.408
				C3046.171,2102.191,3045.76,2102.348,3045.265,2102.393z M3032.955,2096.99c5.481,0.077,10.056-4.393,10.134-9.902
				c0.08-5.604-4.332-10.166-9.913-10.249c-5.618-0.084-10.151,4.358-10.235,10.029
				C3022.859,2092.362,3027.36,2096.911,3032.955,2096.99z"/>
			<path fill="#AAAAAA" d="M3033.046,2080.855c3.305,0.011,6.032,2.734,6.032,6.023c0,3.396-2.733,6.101-6.148,6.086
				c-3.279-0.015-5.959-2.758-5.951-6.091C3026.988,2083.541,3029.706,2080.844,3033.046,2080.855z"/>
		</g>
		
			<rect x="3091.307" y="2054.505" fill="#FFFFFF" stroke="#AAAAAA" stroke-width="0.5595" stroke-miterlimit="10" width="164.958" height="60.423"/>
		
			<line fill="none" stroke="#AAAAAA" stroke-width="0.5595" stroke-miterlimit="10" x1="3091.307" y1="2094.786" x2="3256.264" y2="2094.786"/>
		
			<line fill="none" stroke="#AAAAAA" stroke-width="0.5595" stroke-miterlimit="10" x1="3091.307" y1="2074.467" x2="3256.264" y2="2074.467"/>
		<g>
			<text transform="matrix(1 0 0 1 3097.9238 2067.9287)"><tspan x="0" y="0" fill="#AAAAAA" font-family="'MyriadPro-Regular'" font-size="8.9521">Windows Camouflage</tspan><tspan x="0" y="20.143" fill="#AAAAAA" font-family="'MyriadPro-Regular'" font-size="8.9521">Mac Spoofing</tspan><tspan x="0" y="40.284" fill="#AAAAAA" font-family="'MyriadPro-Regular'" font-size="8.9521">Network Configuration</tspan></text>
		</g>
		<g>
			<text transform="matrix(1 0 0 1 3239.6909 2067.1836)"><tspan x="0" y="0" fill="#AAAAAA" font-family="'MyriadPro-Regular'" font-size="8.9521">On</tspan><tspan x="-0.25" y="20.143" fill="#AAAAAA" font-family="'MyriadPro-Regular'" font-size="8.9521">Off</tspan><tspan x="-0.25" y="40.284" fill="#AAAAAA" font-family="'MyriadPro-Regular'" font-size="8.9521">Off</tspan></text>
		</g>
		<g>
			<rect x="2992.738" y="1955.889" fill="#AAAAAA" width="80.569" height="80.569"/>
		</g>
		<text transform="matrix(1 0 0 1 3003.252 2024.1522)" fill="#FFFFFF" font-family="'MyriadPro-Bold'" font-size="13.4282">Language</text>
		<g>
			<text transform="matrix(1 0 0 1 3008.3086 2122.7207)" fill="#AAAAAA" font-family="'MyriadPro-Bold'" font-size="13.4282">Settings</text>
		</g>
		<g>
			
				<rect x="3091.307" y="1955.889" fill="#FFFFFF" stroke="#AAAAAA" stroke-width="0.5595" stroke-miterlimit="10" width="164.958" height="80.569"/>
			<g>
				<text transform="matrix(1 0 0 1 3097.9241 1969.3132)"><tspan x="0" y="0" fill="#AAAAAA" font-family="'MyriadPro-Regular'" font-size="8.9521">Text Language</tspan><tspan x="0" y="20.143" fill="#AAAAAA" font-family="'MyriadPro-Regular'" font-size="8.9521">Keyboard Language</tspan><tspan x="0" y="40.284" fill="#AAAAAA" font-family="'MyriadPro-Regular'" font-size="8.9521">Formats</tspan><tspan x="0" y="60.427" fill="#AAAAAA" font-family="'MyriadPro-Regular'" font-size="8.9521">Time Zone</tspan></text>
			</g>
			<g>
				<text transform="matrix(1 0 0 1 3206.5427 1969.3142)"><tspan x="0" y="0" fill="#AAAAAA" font-family="'MyriadPro-Regular'" font-size="8.9521">English [US]</tspan><tspan x="0" y="20.143" fill="#AAAAAA" font-family="'MyriadPro-Regular'" font-size="8.9521">English [US]</tspan><tspan x="-5.648" y="40.284" fill="#AAAAAA" font-family="'MyriadPro-Regular'" font-size="8.9521">United States</tspan><tspan x="6.732" y="60.427" fill="#AAAAAA" font-family="'MyriadPro-Regular'" font-size="8.9521">04:21 UTC</tspan></text>
			</g>
			
				<line fill="none" stroke="#AAAAAA" stroke-width="0.5595" stroke-miterlimit="10" x1="3091.307" y1="1976.031" x2="3256.264" y2="1976.031"/>
			
				<line fill="none" stroke="#AAAAAA" stroke-width="0.5595" stroke-miterlimit="10" x1="3091.307" y1="1996.174" x2="3256.264" y2="1996.174"/>
			
				<line fill="none" stroke="#AAAAAA" stroke-width="0.5595" stroke-miterlimit="10" x1="3091.307" y1="2016.316" x2="3256.264" y2="2016.316"/>
			<g>
				<text transform="matrix(1 0 0 1 3140.5779 1948.7607)" fill="#AAAAAA" font-family="'MyriadPro-Regular'" font-size="8.9521">Save Language Preferences</text>
			</g>
			<rect x="3250.828" y="1943.323" fill="none" stroke="#AAAAAA" stroke-miterlimit="10" width="5.437" height="5.437"/>
		</g>
		<g>
			<g>
				<text transform="matrix(1 0 0 1 2704.3003 1869.6714)" fill="#AAAAAA" font-family="'MyriadPro-Bold'" font-size="18">Storage</text>
			</g>
			<g>
				
					<rect x="2619.98" y="1857.328" fill="#FFFFFF" stroke="#AAAAAA" stroke-width="0.3005" stroke-miterlimit="10" width="75" height="75"/>
				<path fill="#AAAAAA" d="M2669.436,1898.404v14.766c0,1.104-0.896,2-2,2h-31.87c-1.104,0-2-0.896-2-2v-24.882
					c0-1.104,0.896-2,2-2h2.658v-2.193c0-1.105,0.895-2,2-2h7.335c1.104,0,2,0.895,2,2v2.193h7.904
					C2658.05,1892.662,2663.083,1897.747,2669.436,1898.404z M2672.542,1882.095c0-0.858-0.695-1.553-1.553-1.553
					s-1.553,0.695-1.553,1.553v1.242h3.105V1882.095z M2670.989,1880.542c-0.858,0-1.553,0.695-1.553,1.553v1.242h3.105v-1.242
					C2672.542,1881.238,2671.847,1880.542,2670.989,1880.542z M2681.393,1885.046c0,5.832-4.728,10.559-10.559,10.559
					s-10.559-4.727-10.559-10.559s4.728-10.559,10.559-10.559S2681.393,1879.214,2681.393,1885.046z M2675.647,1883.337h-1.242
					v-1.242c0-1.887-1.53-3.416-3.416-3.416s-3.416,1.529-3.416,3.416v1.242h-1.242v6.522h9.317V1883.337z"/>
			</g>
		</g>
		<rect x="2704.3" y="1876.789" fill="#4A90D9" width="172.2" height="20.147"/>
		<text transform="matrix(1 0 0 1 2736.3794 1889.8054)" fill="#FFFFFF" font-family="'MyriadPro-Regular'" font-size="8.9521">Configure Encrypted Storage</text>
		<g>
			<text transform="matrix(1 0 0 1 2780.4048 1908.1475)" fill="#AAAAAA" font-family="'MyriadPro-Regular'" font-size="10.4442">- or -</text>
		</g>
		
			<rect x="2703.938" y="1912.379" fill="#FFFFFF" stroke="#AAAAAA" stroke-width="0.4495" stroke-miterlimit="10" width="172.043" height="20.147"/>
		<g>
			<text transform="matrix(1 0 0 1 2708.0154 1925.4692)"><tspan x="0" y="0" fill="#AAAAAA" font-family="'MyriadPro-Regular'" font-size="8.9521"> </tspan><tspan x="1.897" y="0" fill="#EDEDED" font-family="'MyriadPro-Regular'" font-size="8.9521">Type passphrase to unlock existing storage</tspan></text>
		</g>
		<g>
			<path fill="#AAAAAA" d="M2709.386,1917.974v8.957h-0.6v-8.957H2709.386z"/>
		</g>
		<g>
			<g>
				<rect x="2066.891" y="1857.333" fill="#AAAAAA" width="75" height="75"/>
				<path fill="#FFFFFF" d="M2118.899,1913.196c-0.311-0.103-0.629-0.187-0.93-0.312c-1.125-0.471-2.236-0.975-3.367-1.428
					c-0.825-0.33-1.66-0.267-2.51,0.002c-1.84,0.584-3.219,1.62-3.79,3.556c-0.227,0.768-0.527,1.515-0.801,2.27
					c-0.326,0.899-0.982,1.397-1.925,1.422c-0.803,0.021-1.607,0.023-2.409-0.001c-0.952-0.028-1.587-0.524-1.926-1.425
					c-0.399-1.06-0.771-2.133-1.229-3.167c-0.939-2.122-2.859-2.714-4.919-2.871c-0.694-0.053-1.443,0.352-2.135,0.626
					c-0.761,0.302-1.483,0.7-2.226,1.046c-0.896,0.418-1.698,0.276-2.393-0.414c-0.533-0.529-1.065-1.06-1.597-1.591
					c-0.722-0.72-0.859-1.509-0.438-2.434c0.447-0.984,0.891-1.97,1.321-2.962c0.569-1.312,0.35-2.578-0.202-3.845
					c-0.607-1.393-1.573-2.356-3.032-2.828c-0.846-0.273-1.676-0.596-2.512-0.901c-0.839-0.307-1.326-0.912-1.37-1.799
					c-0.043-0.87-0.036-1.746,0.005-2.617c0.042-0.893,0.541-1.479,1.373-1.796c1.059-0.403,2.129-0.78,3.167-1.232
					c2.149-0.937,2.77-2.858,2.906-4.945c0.047-0.728-0.376-1.506-0.66-2.231c-0.292-0.746-0.681-1.453-1.018-2.182
					c-0.391-0.847-0.251-1.652,0.396-2.306c0.553-0.559,1.11-1.114,1.668-1.668c0.689-0.684,1.46-0.812,2.346-0.423
					c1.132,0.497,2.265,0.994,3.41,1.461c0.862,0.351,1.732,0.281,2.611-0.008c1.748-0.575,3.114-1.533,3.68-3.394
					c0.249-0.817,0.567-1.613,0.86-2.415c0.327-0.896,0.96-1.399,1.926-1.421c0.803-0.018,1.607-0.022,2.41-0.003
					c0.907,0.022,1.583,0.528,1.898,1.389c0.269,0.737,0.548,1.472,0.787,2.219c0.671,2.099,2.132,3.272,4.247,3.742
					c0.851,0.189,1.66,0.182,2.455-0.174c1.003-0.448,2.004-0.901,3.002-1.36c0.957-0.441,1.744-0.31,2.48,0.429
					c0.506,0.507,1.011,1.015,1.517,1.523c0.799,0.802,0.903,1.514,0.434,2.565c-0.497,1.113-0.981,2.233-1.427,3.367
					c-0.311,0.788-0.225,1.577,0.003,2.404c0.531,1.924,1.69,3.202,3.575,3.84c0.76,0.257,1.513,0.534,2.268,0.807
					c0.912,0.33,1.41,1.006,1.432,1.978c0.017,0.716,0.016,1.433,0.004,2.149c-0.019,1.158-0.495,1.781-1.594,2.188
					c-1.029,0.381-2.052,0.782-3.069,1.193c-1.345,0.543-1.975,1.679-2.472,2.953c-0.553,1.419-0.398,2.761,0.265,4.09
					c0.366,0.734,0.71,1.479,1.061,2.219c0.421,0.888,0.285,1.695-0.409,2.396c-0.553,0.559-1.115,1.109-1.666,1.67
					C2119.974,1912.957,2119.486,1913.143,2118.899,1913.196z M2104.294,1906.788c6.502,0.091,11.93-5.21,12.023-11.744
					c0.095-6.647-5.139-12.056-11.76-12.155c-6.665-0.1-12.043,5.168-12.143,11.893
					C2092.317,1901.299,2097.656,1906.695,2104.294,1906.788z"/>
				<path fill="#FFFFFF" d="M2104.409,1885.403c5.15,0.017,9.398,4.258,9.398,9.382c0,5.289-4.258,9.502-9.579,9.478
					c-5.109-0.023-9.285-4.296-9.272-9.487C2094.97,1889.586,2099.206,1885.386,2104.409,1885.403z"/>
				<path fill="#AAAAAA" d="M2104.398,1889.142c3.108,0.01,5.672,2.57,5.672,5.662c0,3.193-2.57,5.735-5.781,5.721
					c-3.083-0.014-5.604-2.593-5.596-5.726C2098.701,1891.666,2101.257,1889.131,2104.398,1889.142z"/>
			</g>
			<g>
				<rect x="1878.302" y="1857.334" fill="#AAAAAA" width="75" height="75"/>
				<path fill="#FFFFFF" d="M1927.758,1898.41v14.766c0,1.105-0.895,2-2,2h-31.87c-1.105,0-2-0.895-2-2v-24.882c0-1.105,0.895-2,2-2
					h2.658v-2.193c0-1.104,0.895-2,2-2h7.335c1.104,0,2,0.896,2,2v2.193h7.904
					C1916.372,1892.667,1921.405,1897.753,1927.758,1898.41z M1930.864,1882.101c0-0.858-0.695-1.553-1.553-1.553
					c-0.858,0-1.553,0.695-1.553,1.553v1.242h3.106V1882.101z M1929.311,1880.548c-0.858,0-1.553,0.695-1.553,1.553v1.242h3.106
					v-1.242C1930.864,1881.243,1930.169,1880.548,1929.311,1880.548z M1939.715,1885.051c0,5.832-4.727,10.559-10.559,10.559
					c-5.832,0-10.559-4.727-10.559-10.559c0-5.832,4.727-10.559,10.559-10.559
					C1934.988,1874.492,1939.715,1879.219,1939.715,1885.051z M1933.97,1883.343h-1.242v-1.242c0-1.887-1.53-3.416-3.416-3.416
					c-1.887,0-3.416,1.53-3.416,3.416v1.242h-1.242v6.522h9.317V1883.343z"/>
			</g>
			<g>
				<rect x="1972.571" y="1857.333" fill="#AAAAAA" width="75" height="75"/>
				<g>
					<path fill="#FFFFFF" d="M2018.118,1871.121c-8.296,0-15.022,6.726-15.022,15.022c0,1.107,0.128,2.182,0.355,3.221h10.233
						c0.819,0,1.54,0.401,1.996,1.011c0.495-0.351,0.968-0.711,1.395-1.089c-2.502-2.733-3.537-5.385-3.61-5.578l1.87-0.711
						c0.016,0.042,0.943,2.395,3.169,4.852c2.496-2.851,3.45-5.97,3.798-7.573h-12.553v-2h7.905v-2.647h2v2.647h7.906v2h-3.214
						c-0.313,1.721-1.322,5.549-4.397,8.998c1.618,1.425,3.715,2.736,6.369,3.483l-0.543,1.926c-3.056-0.86-5.438-2.358-7.259-3.976
						c-0.692,0.618-1.472,1.207-2.332,1.757v8.563c0.635,0.082,1.277,0.138,1.934,0.138c8.296,0,15.022-6.725,15.022-15.022
						S2026.415,1871.121,2018.118,1871.121z"/>
				</g>
				<g>
					<path fill="#FFFFFF" d="M2013.685,1890.864h-25.683c-0.552,0-1,0.448-1,1v25.683c0,0.552,0.448,1,1,1h25.683
						c0.552,0,1-0.448,1-1v-25.683C2014.685,1891.311,2014.237,1890.864,2013.685,1890.864z M2005.784,1912.752l-1.872-5.512h-6.214
						l-1.82,5.512h-2.34l5.98-17.524h2.703l5.98,17.524H2005.784z"/>
					<path fill="#FFFFFF" d="M2000.817,1897.23h-0.051c-0.261,1.014-0.521,2.106-0.885,3.172l-1.716,5.07h5.304l-1.742-5.044
						C2001.337,1899.284,2001.078,1898.244,2000.817,1897.23z"/>
				</g>
			</g>
		</g>
		
			<rect x="2992.738" y="1857.334" fill="#FFFFFF" stroke="#AAAAAA" stroke-width="0.3228" stroke-miterlimit="10" width="80.569" height="80.569"/>
		<path fill="#AAAAAA" d="M3043.093,1892.58v12.437c0,0.93-0.754,1.685-1.685,1.685h-26.844c-0.93,0-1.685-0.754-1.685-1.685
			v-20.958c0-0.93,0.754-1.685,1.685-1.685h2.239v-1.847c0-0.93,0.754-1.685,1.685-1.685h6.179c0.93,0,1.685,0.754,1.685,1.685
			v1.847h6.658C3033.503,1887.743,3037.742,1892.027,3043.093,1892.58z M3045.709,1878.843c0-0.722-0.586-1.308-1.308-1.308
			c-0.722,0-1.308,0.586-1.308,1.308v1.046h2.616V1878.843z M3044.401,1877.535c-0.722,0-1.308,0.586-1.308,1.308v1.046h2.616
			v-1.046C3045.709,1878.12,3045.124,1877.535,3044.401,1877.535z M3053.165,1881.328c0,4.912-3.982,8.894-8.894,8.894
			c-4.912,0-8.894-3.982-8.894-8.894s3.982-8.894,8.894-8.894C3049.182,1872.434,3053.165,1876.416,3053.165,1881.328z
			 M3048.325,1879.889h-1.046v-1.046c0-1.589-1.288-2.877-2.877-2.877c-1.589,0-2.878,1.288-2.878,2.877v1.046h-1.046v5.493h7.848
			V1879.889z"/>
		<g>
			<text transform="matrix(1 0 0 1 3009.4902 1925.5967)" fill="#AAAAAA" font-family="'MyriadPro-Bold'" font-size="13.4282">Storage</text>
		</g>
		<g>
			<g>
				<path fill="#FFFFFF" d="M3039.858,1968.219c-7.047,0-12.76,5.713-12.76,12.76c0,0.94,0.109,1.854,0.302,2.736h8.692
					c0.695,0,1.308,0.341,1.696,0.859c0.421-0.298,0.822-0.604,1.185-0.925c-2.125-2.322-3.004-4.574-3.067-4.738l1.589-0.604
					c0.013,0.036,0.801,2.034,2.692,4.121c2.12-2.421,2.931-5.071,3.226-6.433h-10.663v-1.699h6.715v-2.249h1.699v2.249h6.716v1.699
					h-2.73c-0.266,1.462-1.123,4.713-3.735,7.643c1.375,1.21,3.156,2.324,5.41,2.959l-0.461,1.636
					c-2.595-0.731-4.619-2.003-6.166-3.377c-0.588,0.525-1.25,1.025-1.981,1.492v7.273c0.539,0.069,1.084,0.117,1.642,0.117
					c7.047,0,12.76-5.713,12.76-12.76C3052.617,1973.932,3046.905,1968.219,3039.858,1968.219z"/>
			</g>
			<g>
				<path fill="#FFFFFF" d="M3036.092,1984.989h-21.816c-0.469,0-0.849,0.38-0.849,0.849v21.816c0,0.469,0.38,0.849,0.849,0.849
					h21.816c0.469,0,0.849-0.38,0.849-0.849v-21.816C3036.941,1985.369,3036.561,1984.989,3036.092,1984.989z M3029.38,2003.582
					l-1.59-4.682h-5.278l-1.546,4.682h-1.988l5.08-14.886h2.296l5.08,14.886H3029.38z"/>
				<path fill="#FFFFFF" d="M3025.161,1990.397h-0.043c-0.221,0.861-0.442,1.789-0.752,2.694l-1.457,4.307h4.505l-1.48-4.284
					C3025.604,1992.141,3025.383,1991.258,3025.161,1990.397z"/>
			</g>
		</g>
		<rect x="3091.307" y="1857.334" fill="#4A90D9" width="164.958" height="20.147"/>
		<text transform="matrix(1 0 0 1 3116.1438 1870.3502)" fill="#FFFFFF" font-family="'MyriadPro-Regular'" font-size="8.9521">Configure Encrypted Storage</text>
		<g>
			<text transform="matrix(1 0 0 1 3157.6287 1889.8059)" fill="#AAAAAA" font-family="'MyriadPro-Regular'" font-size="10.4442">- or -</text>
		</g>
		
			<rect x="3091.307" y="1897.882" fill="#FFFFFF" stroke="#AAAAAA" stroke-width="0.4495" stroke-miterlimit="10" width="164.958" height="20.147"/>
		<g>
			<text transform="matrix(1 0 0 1 3097.9243 1910.9727)"><tspan x="0" y="0" fill="#AAAAAA" font-family="'MyriadPro-Regular'" font-size="8.9521"> </tspan><tspan x="1.897" y="0" fill="#EDEDED" font-family="'MyriadPro-Regular'" font-size="8.9521">Type passphrase to unlock your storage</tspan></text>
		</g>
		<g>
			<polygon fill="#FFFFFF" points="2051.227,1989.226 2051.227,1973.211 2062.818,1984.83 2056.037,1984.83 2055.626,1984.954 			
				"/>
			<polygon fill="#FFFFFF" points="2060.312,1989.9 2056.707,1991.435 2052.025,1980.346 2055.711,1978.793 			"/>
			<rect x="2055.507" y="1981.92" transform="matrix(0.9221 -0.3871 0.3871 0.9221 -608.3853 950.8122)" width="2" height="7.999"/>
			<polygon points="2052.227,1975.618 2052.227,1986.806 2055.197,1983.94 2055.624,1983.801 2060.392,1983.801 			"/>
		</g>
	</g>
</g>
</svg>
