<?xml version="1.0" encoding="utf-8"?>
<!-- Generator: Adobe Illustrator 17.0.0, SVG Export Plug-In . SVG Version: 6.00 Build 0)  -->
<!DOCTYPE svg PUBLIC "-//W3C//DTD SVG 1.1//EN" "http://www.w3.org/Graphics/SVG/1.1/DTD/svg11.dtd">
<svg version="1.1" xmlns="http://www.w3.org/2000/svg" xmlns:xlink="http://www.w3.org/1999/xlink" x="0px" y="0px" width="1584px"
	 height="1224px" viewBox="-1662.581 1384.046 1584 1224" enable-background="new -1662.581 1384.046 1584 1224"
	 xml:space="preserve">
<g id="Guides" display="none">
</g>
<g id="Spacer" display="none">
</g>
<g id="Layer_1">
	<g id="_x30_3">
		<rect x="-1662.581" y="1384.046" fill="#FFFFFF" width="1584" height="1224"/>
		<text transform="matrix(1 0 0 1 -1433.9811 2184.8657)" fill="#4A90D9" font-family="'MyriadPro-Bold'" font-size="24">Two Settings Section Labels?</text>
		<rect x="-1433.981" y="2200.579" fill="none" width="448.943" height="277.333"/>
		<text transform="matrix(1 0 0 1 -1433.9811 2215.6455)" enable-background="new    "><tspan x="0" y="0" fill="#AAAAAA" font-family="'MyriadPro-Bold'" font-size="18">Having only two settings section labels lessens visual </tspan><tspan x="0" y="22" fill="#AAAAAA" font-family="'MyriadPro-Bold'" font-size="18">clutter since the content is organized into sections </tspan><tspan x="0" y="44" fill="#AAAAAA" font-family="'MyriadPro-Bold'" font-size="18">based on functional and aesthetic similarities.</tspan><tspan x="0" y="88" fill="#AAAAAA" font-family="'MyriadPro-Bold'" font-size="18">This approach is most appropriate when the informa</tspan><tspan x="419.21" y="88" fill="#AAAAAA" font-family="'MyriadPro-Bold'" font-size="18">-</tspan><tspan x="0" y="110" fill="#AAAAAA" font-family="'MyriadPro-Bold'" font-size="18">tion can logically and effectively be grouped into similar </tspan><tspan x="0" y="132" fill="#AAAAAA" font-family="'MyriadPro-Bold'" font-size="18">and familiar categories that are easy to recognize.</tspan></text>
		<g>
			<text transform="matrix(1 0 0 1 -1597.3877 1524.6453)" fill="#4A90D9" font-family="'MyriadPro-Bold'" font-size="100">[3]</text>
		</g>
		<g>
			<text transform="matrix(1 0 0 1 -1590.5815 1597.6549)" fill="#4A90D9" font-family="'MyriadPro-Bold'" font-size="50">Settings Labels</text>
		</g>
		<g>
			<text transform="matrix(1 0 0 1 -1433.9813 1700.4943)" fill="#AAAAAA" font-family="'MyriadPro-Bold'" font-size="40">Two</text>
		</g>
		<g>
			<text transform="matrix(1 0 0 1 -756.2806 1700.4939)" fill="#AAAAAA" font-family="'MyriadPro-Bold'" font-size="40">Three</text>
		</g>
		<g>
			<g>
				<path fill="#EDEDED" d="M-984.882,1749.073h-449.099v382.719h449.099V1749.073L-984.882,1749.073z"/>
			</g>
			
				<rect x="-1380.295" y="2003.109" fill="#FFFFFF" stroke="#AAAAAA" stroke-width="0.5595" stroke-miterlimit="10" width="341.673" height="60.423"/>
			
				<rect x="-1380.294" y="1915.816" fill="#FFFFFF" stroke="#AAAAAA" stroke-width="0.5595" stroke-miterlimit="10" width="341.673" height="80.569"/>
			<g>
				<text transform="matrix(1 0 0 1 -1366.8652 1929.2395)" fill="#AAAAAA" font-family="'MyriadPro-Regular'" font-size="8.9521">Text Language</text>
				<text transform="matrix(1 0 0 1 -1366.8652 1949.3824)" fill="#AAAAAA" font-family="'MyriadPro-Regular'" font-size="8.9521">Keyboard Language</text>
				<text transform="matrix(1 0 0 1 -1366.8652 1969.5236)" fill="#AAAAAA" font-family="'MyriadPro-Regular'" font-size="8.9521">Formats</text>
				<text transform="matrix(1 0 0 1 -1366.8652 1989.6665)" fill="#AAAAAA" font-family="'MyriadPro-Regular'" font-size="8.9521">Time Zone</text>
			</g>
			<g>
				<text transform="matrix(1 0 0 1 -1096.3341 1929.2404)" fill="#AAAAAA" font-family="'MyriadPro-Regular'" font-size="8.9521">English [US]</text>
				<text transform="matrix(1 0 0 1 -1096.3341 1949.3834)" fill="#AAAAAA" font-family="'MyriadPro-Regular'" font-size="8.9521">English [US]</text>
				<text transform="matrix(1 0 0 1 -1101.9821 1969.5244)" fill="#AAAAAA" font-family="'MyriadPro-Regular'" font-size="8.9521">United States</text>
				<text transform="matrix(1 0 0 1 -1089.6021 1989.6674)" fill="#AAAAAA" font-family="'MyriadPro-Regular'" font-size="8.9521">04:21 UTC</text>
			</g>
			
				<line fill="none" stroke="#AAAAAA" stroke-width="0.5595" stroke-miterlimit="10" x1="-1380.294" y1="1935.958" x2="-1038.621" y2="1935.958"/>
			
				<line fill="none" stroke="#AAAAAA" stroke-width="0.5595" stroke-miterlimit="10" x1="-1380.294" y1="1956.1" x2="-1038.621" y2="1956.1"/>
			
				<line fill="none" stroke="#AAAAAA" stroke-width="0.5595" stroke-miterlimit="10" x1="-1380.294" y1="1976.242" x2="-1038.621" y2="1976.242"/>
			
				<line fill="none" stroke="#AAAAAA" stroke-width="0.5595" stroke-miterlimit="10" x1="-1380.294" y1="2043.391" x2="-1038.621" y2="2043.391"/>
			
				<line fill="none" stroke="#AAAAAA" stroke-width="0.5595" stroke-miterlimit="10" x1="-1380.294" y1="2023.249" x2="-1038.621" y2="2023.249"/>
			<g>
				<text transform="matrix(1 0 0 1 -1366.8652 2016.5332)" fill="#AAAAAA" font-family="'MyriadPro-Regular'" font-size="8.9521">Windows Camouflage</text>
				<text transform="matrix(1 0 0 1 -1366.8652 2036.6761)" fill="#AAAAAA" font-family="'MyriadPro-Regular'" font-size="8.9521">Mac Spoofing</text>
				<text transform="matrix(1 0 0 1 -1366.8652 2056.8174)" fill="#AAAAAA" font-family="'MyriadPro-Regular'" font-size="8.9521">Network Configuration</text>
			</g>
			<g>
				<text transform="matrix(1 0 0 1 -1063.1855 2015.788)" fill="#AAAAAA" font-family="'MyriadPro-Regular'" font-size="8.9521">On</text>
				<text transform="matrix(1 0 0 1 -1063.4355 2035.931)" fill="#AAAAAA" font-family="'MyriadPro-Regular'" font-size="8.9521">Off</text>
				<text transform="matrix(1 0 0 1 -1063.4355 2056.072)" fill="#AAAAAA" font-family="'MyriadPro-Regular'" font-size="8.9521">Off</text>
			</g>
			<rect x="-1380.366" y="1863.038" fill="#6EA6E1" width="160.764" height="20.147"/>
			<rect x="-1199.455" y="1863.038" fill="#FFFFFF" width="160.959" height="20.147"/>
			<rect x="-1199.455" y="1863.038" fill="#CCCCCC" width="20.147" height="20.147"/>
			
				<rect x="-1199.455" y="1863.038" fill="none" stroke="#AAAAAA" stroke-width="0.5595" stroke-miterlimit="10" width="160.959" height="20.147"/>
			<text transform="matrix(1 0 0 1 -1343.9312 1876.0549)" fill="#FFFFFF" font-family="'MyriadPro-Regular'" font-size="8.9521">Configure Encrypted Storage</text>
			<path fill="#EDEDED" d="M-1433.98,1749.073v-29.5c0-2.472,2.004-4.476,4.476-4.476h440.147c2.472,0,4.476,2.004,4.476,4.476v29.5
				H-1433.98z"/>
			<g>
				<path fill="#AAAAAA" d="M-1409.789,1727.856l-4.246,4.246l4.083,4.083l-1.084,1.084l-4.083-4.083l-4.282,4.282l-1.156-1.156
					l4.282-4.282l-4.084-4.084l1.084-1.084l4.084,4.084l4.246-4.246L-1409.789,1727.856z"/>
			</g>
			<line fill="none" stroke="#AAAAAA" stroke-miterlimit="10" x1="-1433.98" y1="1749.073" x2="-984.882" y2="1749.073"/>
			<text transform="matrix(1 0 0 1 -1380.3662 1856.3237)" fill="#AAAAAA" font-family="'MyriadPro-Bold'" font-size="10">Storage</text>
			
				<text transform="matrix(1 0 0 1 -1213.9341 1876.0546)" fill="#AAAAAA" font-family="'MyriadPro-Regular'" font-size="10.4442" text-decoration=" underline">or</text>
			<g>
				<text transform="matrix(1 0 0 1 -1278.6611 1783.3314)" fill="#AAAAAA" font-family="'MyriadPro-Regular'" font-size="18">Welcome to Tails.  </text>
			</g>
			<g>
				<text transform="matrix(1 0 0 1 -1312.6626 1798.3314)" fill="#AAAAAA" font-family="'MyriadPro-Regular'" font-size="10.4442">These are your DEFAULT configuration settings.</text>
			</g>
			<g>
				
					<text transform="matrix(1 0 0 1 -1259.1221 1820.3632)" fill="#4A90D9" font-family="'MyriadPro-Regular'" font-size="10.4442" text-decoration=" underline">Learn more about Tails</text>
			</g>
			<g>
				<path fill="#4A90D9" d="M-1241.46,2107.521c0,0.775,0.629,1.404,1.404,1.404h59.055c0.775,0,1.404-0.628,1.404-1.404v-21.201
					c0-0.775-0.629-1.404-1.404-1.404h-59.055c-0.775,0-1.404,0.628-1.404,1.404V2107.521z"/>
				<text transform="matrix(1 0 0 1 -1231.5259 2100.6311)" fill="#FFFFFF" font-family="'MyriadPro-Regular'" font-size="10.4442">Start Tails</text>
			</g>
			<rect x="-1380.366" y="1863.038" fill="#4A90D9" width="20.147" height="20.147"/>
			
				<rect x="-1380.366" y="1863.038" fill="none" stroke="#AAAAAA" stroke-width="0.3837" stroke-miterlimit="10" width="160.764" height="20.147"/>
			<path fill="#FFFFFF" d="M-1366.596,1877.547h-7.393v-5.175h0.986v-0.986c0-1.497,1.214-2.711,2.711-2.711
				c1.497,0,2.711,1.213,2.711,2.711v0.986h0.986v5.175H-1366.596z M-1370.293,1870.156c-0.68,0-1.232,0.551-1.232,1.232v0.986
				h2.464v-0.986C-1369.06,1870.706-1369.612,1870.156-1370.293,1870.156z"/>
			
				<line fill="none" stroke="#AAAAAA" stroke-width="0.5595" stroke-miterlimit="10" x1="-1179.309" y1="1863.038" x2="-1179.309" y2="1883.185"/>
			<g>
				<text transform="matrix(1 0 0 1 -1173.564 1876.1283)" fill="#EDEDED" font-family="'MyriadPro-Regular'" font-size="8.9521">Enter your passphrase to unlock</text>
			</g>
			<text transform="matrix(1 0 0 1 -1174.8125 1875.5643)" fill="#AAAAAA" font-family="'MyriadPro-Regular'" font-size="10.4442">|</text>
			<path fill="#AAAAAA" d="M-1185.748,1878.185h-7.393v-5.175h0.986v-0.986c0-1.497,1.214-2.711,2.711-2.711
				c0.929,0,1.708,0.497,2.197,1.209l-1.055,1.055c-0.179-0.459-0.62-0.786-1.142-0.786c-0.68,0-1.232,0.552-1.232,1.232v0.986
				h4.928V1878.185z"/>
			<g>
				<text transform="matrix(1 0 0 1 -1380.3662 1909.2823)" fill="#AAAAAA" font-family="'MyriadPro-Bold'" font-size="10">Settings</text>
			</g>
			<g>
				<text transform="matrix(1 0 0 1 -1147.4956 1909.2321)" fill="#AAAAAA" font-family="'MyriadPro-Regular'" font-size="8.9521">Save Settings Preferences</text>
			</g>
			<g>
				<polygon fill="#FFFFFF" points="-1165.499,2095.639 -1165.499,2079.625 -1153.909,2091.243 -1160.689,2091.243 
					-1161.1,2091.367 				"/>
				<polygon fill="#FFFFFF" points="-1156.415,2096.314 -1160.02,2097.848 -1164.702,2086.76 -1161.016,2085.208 				"/>
				
					<rect x="-1161.261" y="2088.406" transform="matrix(-0.922 0.3871 -0.3871 -0.922 -1420.1528 4470.813)" width="2" height="7.999"/>
				<polygon points="-1164.499,2082.031 -1164.499,2093.219 -1161.53,2090.354 -1161.102,2090.215 -1156.334,2090.215 				"/>
			</g>
			
				<rect x="-1044.058" y="1903.49" fill="none" stroke="#AAAAAA" stroke-width="0.5595" stroke-miterlimit="10" width="5.437" height="5.743"/>
		</g>
		<g>
			<g>
				<path fill="#EDEDED" d="M-307.182,1749.073h-449.099v402.914h449.099L-307.182,1749.073L-307.182,1749.073z"/>
			</g>
			<rect x="-702.666" y="1863.038" fill="#6EA6E1" width="160.764" height="20.147"/>
			<rect x="-521.756" y="1863.038" fill="#FFFFFF" width="160.959" height="20.147"/>
			<rect x="-521.756" y="1863.038" fill="#CCCCCC" width="20.147" height="20.147"/>
			
				<rect x="-521.756" y="1863.038" fill="none" stroke="#AAAAAA" stroke-width="0.5595" stroke-miterlimit="10" width="160.959" height="20.147"/>
			<text transform="matrix(1 0 0 1 -666.2311 1876.0548)" fill="#FFFFFF" font-family="'MyriadPro-Regular'" font-size="8.9521">Configure Encrypted Storage</text>
			<path fill="#EDEDED" d="M-756.281,1749.073v-29.5c0-2.472,2.004-4.476,4.476-4.476h440.147c2.472,0,4.476,2.004,4.476,4.476v29.5
				H-756.281z"/>
			<g>
				<path fill="#AAAAAA" d="M-732.089,1727.856l-4.246,4.246l4.083,4.083l-1.084,1.084l-4.083-4.083l-4.282,4.282l-1.156-1.156
					l4.282-4.282l-4.084-4.084l1.084-1.084l4.084,4.084l4.246-4.246L-732.089,1727.856z"/>
			</g>
			<line fill="none" stroke="#AAAAAA" stroke-miterlimit="10" x1="-756.281" y1="1749.073" x2="-307.182" y2="1749.073"/>
			<text transform="matrix(1 0 0 1 -702.6738 1856.3234)" fill="#AAAAAA" font-family="'MyriadPro-Bold'" font-size="10">Storage</text>
			
				<text transform="matrix(1 0 0 1 -536.2341 1876.0543)" fill="#AAAAAA" font-family="'MyriadPro-Regular'" font-size="10.4442" text-decoration=" underline">or</text>
			<g>
				<text transform="matrix(1 0 0 1 -600.9612 1783.3312)" fill="#AAAAAA" font-family="'MyriadPro-Regular'" font-size="18">Welcome to Tails.  </text>
			</g>
			<g>
				<text transform="matrix(1 0 0 1 -634.9626 1798.3312)" fill="#AAAAAA" font-family="'MyriadPro-Regular'" font-size="10.4442">These are your DEFAULT configuration settings.</text>
			</g>
			<g>
				
					<text transform="matrix(1 0 0 1 -581.4221 1820.3629)" fill="#4A90D9" font-family="'MyriadPro-Regular'" font-size="10.4442" text-decoration=" underline">Learn more about Tails</text>
			</g>
			<g>
				<path fill="#4A90D9" d="M-563.76,2127.716c0,0.775,0.628,1.404,1.404,1.404h59.055c0.775,0,1.404-0.628,1.404-1.404v-21.201
					c0-0.775-0.628-1.404-1.404-1.404h-59.055c-0.775,0-1.404,0.628-1.404,1.404V2127.716z"/>
				<text transform="matrix(1 0 0 1 -553.8259 2120.8264)" fill="#FFFFFF" font-family="'MyriadPro-Regular'" font-size="10.4442">Start Tails</text>
			</g>
			<rect x="-702.666" y="1863.038" fill="#4A90D9" width="20.147" height="20.147"/>
			
				<rect x="-702.666" y="1863.038" fill="none" stroke="#AAAAAA" stroke-width="0.3837" stroke-miterlimit="10" width="160.764" height="20.147"/>
			<path fill="#FFFFFF" d="M-688.896,1877.547h-7.393v-5.175h0.986v-0.986c0-1.497,1.214-2.711,2.711-2.711s2.711,1.214,2.711,2.711
				v0.986h0.986v5.175H-688.896z M-692.593,1870.156c-0.68,0-1.232,0.551-1.232,1.232v0.986h2.464v-0.986
				C-691.361,1870.706-691.912,1870.156-692.593,1870.156z"/>
			
				<line fill="none" stroke="#AAAAAA" stroke-width="0.5595" stroke-miterlimit="10" x1="-501.609" y1="1863.038" x2="-501.609" y2="1883.185"/>
			<g>
				<text transform="matrix(1 0 0 1 -495.864 1876.1281)" fill="#EDEDED" font-family="'MyriadPro-Regular'" font-size="8.9521">Enter your passphrase to unlock</text>
			</g>
			<text transform="matrix(1 0 0 1 -497.1122 1875.564)" fill="#AAAAAA" font-family="'MyriadPro-Regular'" font-size="10.4442">|</text>
			<path fill="#AAAAAA" d="M-508.048,1878.185h-7.393v-5.175h0.986v-0.986c0-1.497,1.214-2.711,2.711-2.711
				c0.929,0,1.708,0.497,2.197,1.209l-1.055,1.055c-0.18-0.459-0.62-0.786-1.142-0.786c-0.68,0-1.232,0.552-1.232,1.232v0.986h4.928
				V1878.185z"/>
			<g>
				<polygon fill="#FFFFFF" points="-484.403,2124.019 -484.403,2108.002 -472.812,2119.623 -479.593,2119.623 -480.004,2119.747 
									"/>
				<polygon fill="#FFFFFF" points="-475.318,2124.692 -478.923,2126.228 -483.605,2115.138 -479.919,2113.585 				"/>
				
					<rect x="-480.126" y="2116.763" transform="matrix(-0.922 0.3871 -0.3871 -0.922 -100.0016 4261.665)" width="2" height="7.999"/>
				<polygon points="-483.403,2110.41 -483.403,2121.598 -480.433,2118.732 -480.006,2118.594 -475.238,2118.594 				"/>
			</g>
			
				<rect x="-702.582" y="2022.77" fill="#FFFFFF" stroke="#AAAAAA" stroke-width="0.5595" stroke-miterlimit="10" width="341.673" height="60.423"/>
			
				<rect x="-702.582" y="1915.81" fill="#FFFFFF" stroke="#AAAAAA" stroke-width="0.5595" stroke-miterlimit="10" width="341.673" height="80.569"/>
			<g>
				<text transform="matrix(1 0 0 1 -689.1525 1929.233)" fill="#AAAAAA" font-family="'MyriadPro-Regular'" font-size="8.9521">Text Language</text>
				<text transform="matrix(1 0 0 1 -689.1525 1949.3761)" fill="#AAAAAA" font-family="'MyriadPro-Regular'" font-size="8.9521">Keyboard Language</text>
				<text transform="matrix(1 0 0 1 -689.1525 1969.5171)" fill="#AAAAAA" font-family="'MyriadPro-Regular'" font-size="8.9521">Formats</text>
				<text transform="matrix(1 0 0 1 -689.1525 1989.66)" fill="#AAAAAA" font-family="'MyriadPro-Regular'" font-size="8.9521">Time Zone</text>
			</g>
			<g>
				<text transform="matrix(1 0 0 1 -418.6213 1929.234)" fill="#AAAAAA" font-family="'MyriadPro-Regular'" font-size="8.9521">English [US]</text>
				<text transform="matrix(1 0 0 1 -418.6213 1949.3771)" fill="#AAAAAA" font-family="'MyriadPro-Regular'" font-size="8.9521">English [US]</text>
				<text transform="matrix(1 0 0 1 -424.2694 1969.5181)" fill="#AAAAAA" font-family="'MyriadPro-Regular'" font-size="8.9521">United States</text>
				<text transform="matrix(1 0 0 1 -411.8894 1989.661)" fill="#AAAAAA" font-family="'MyriadPro-Regular'" font-size="8.9521">04:21 UTC</text>
			</g>
			
				<line fill="none" stroke="#AAAAAA" stroke-width="0.5595" stroke-miterlimit="10" x1="-702.582" y1="1935.951" x2="-360.909" y2="1935.951"/>
			
				<line fill="none" stroke="#AAAAAA" stroke-width="0.5595" stroke-miterlimit="10" x1="-702.582" y1="1956.094" x2="-360.909" y2="1956.094"/>
			
				<line fill="none" stroke="#AAAAAA" stroke-width="0.5595" stroke-miterlimit="10" x1="-702.582" y1="1976.236" x2="-360.909" y2="1976.236"/>
			
				<line fill="none" stroke="#AAAAAA" stroke-width="0.5595" stroke-miterlimit="10" x1="-702.582" y1="2063.051" x2="-360.909" y2="2063.051"/>
			
				<line fill="none" stroke="#AAAAAA" stroke-width="0.5595" stroke-miterlimit="10" x1="-702.582" y1="2042.908" x2="-360.909" y2="2042.908"/>
			<g>
				<text transform="matrix(1 0 0 1 -689.1525 2036.1927)" fill="#AAAAAA" font-family="'MyriadPro-Regular'" font-size="8.9521">Windows Camouflage</text>
				<text transform="matrix(1 0 0 1 -689.1525 2056.3359)" fill="#AAAAAA" font-family="'MyriadPro-Regular'" font-size="8.9521">Mac Spoofing</text>
				<text transform="matrix(1 0 0 1 -689.1525 2076.4768)" fill="#AAAAAA" font-family="'MyriadPro-Regular'" font-size="8.9521">Network Configuration</text>
			</g>
			<g>
				<text transform="matrix(1 0 0 1 -385.4729 2035.4476)" fill="#AAAAAA" font-family="'MyriadPro-Regular'" font-size="8.9521">On</text>
				<text transform="matrix(1 0 0 1 -385.7229 2055.5908)" fill="#AAAAAA" font-family="'MyriadPro-Regular'" font-size="8.9521">Off</text>
				<text transform="matrix(1 0 0 1 -385.7229 2075.7317)" fill="#AAAAAA" font-family="'MyriadPro-Regular'" font-size="8.9521">Off</text>
			</g>
			<text transform="matrix(1 0 0 1 -702.6737 1908.6942)" fill="#AAAAAA" font-family="'MyriadPro-Bold'" font-size="10">Language</text>
			<g>
				<text transform="matrix(1 0 0 1 -476.5949 1908.6805)" fill="#AAAAAA" font-family="'MyriadPro-Regular'" font-size="8.9521">Save Language Preferences</text>
			</g>
			<rect x="-366.346" y="1903.243" fill="none" stroke="#AAAAAA" stroke-miterlimit="10" width="5.437" height="5.437"/>
			<g>
				<text transform="matrix(1 0 0 1 -469.7824 2016.1508)" fill="#AAAAAA" font-family="'MyriadPro-Regular'" font-size="8.9521">Save Settings Preferences</text>
			</g>
			<rect x="-366.346" y="2010.713" fill="none" stroke="#AAAAAA" stroke-miterlimit="10" width="5.437" height="5.437"/>
			<text transform="matrix(1 0 0 1 -702.6735 2016.1566)" fill="#AAAAAA" font-family="'MyriadPro-Bold'" font-size="10">Settings</text>
		</g>
		<text transform="matrix(1 0 0 1 -756.2809 2205.0457)" fill="#4A90D9" font-family="'MyriadPro-Bold'" font-size="24">Three Settings Section Labels?</text>
		<rect x="-756.281" y="2220.775" fill="none" width="449.099" height="277.333"/>
		<text transform="matrix(1 0 0 1 -756.2806 2235.8418)" enable-background="new    "><tspan x="0" y="0" fill="#AAAAAA" font-family="'MyriadPro-Bold'" font-size="18">Having three settings section labels lessens the possibili</tspan><tspan x="436.041" y="0" fill="#AAAAAA" font-family="'MyriadPro-Bold'" font-size="18">-</tspan><tspan x="0" y="22" fill="#AAAAAA" font-family="'MyriadPro-Bold'" font-size="18">ty</tspan><tspan x="15.624" y="22" fill="#AAAAAA" font-family="'MyriadPro-Bold'" font-size="18"> of visual ambiguity since the content is organized </tspan><tspan x="0" y="44" fill="#AAAAAA" font-family="'MyriadPro-Bold'" font-size="18">into clearly labeled sections based on functional and</tspan><tspan x="0" y="66" fill="#AAAAAA" font-family="'MyriadPro-Bold'" font-size="18">aesthetic similarities.</tspan><tspan x="0" y="110" fill="#AAAAAA" font-family="'MyriadPro-Bold'" font-size="18">This approach is most appropriate when the informa</tspan><tspan x="419.21" y="110" fill="#AAAAAA" font-family="'MyriadPro-Bold'" font-size="18">-</tspan><tspan x="0" y="132" fill="#AAAAAA" font-family="'MyriadPro-Bold'" font-size="18">tion cannot logically or effectively be grouped into sim</tspan><tspan x="441.133" y="132" fill="#AAAAAA" font-family="'MyriadPro-Bold'" font-size="18">-</tspan><tspan x="0" y="154" fill="#AAAAAA" font-family="'MyriadPro-Bold'" font-size="18">lar and familiar categories that are easy to recognize.</tspan></text>
		<g>
			<text transform="matrix(1 0 0 1 -899.9804 1996.046)" fill="#4A90D9" font-family="'MyriadPro-Bold'" font-size="50">VS</text>
		</g>
	</g>
</g>
</svg>
