<?xml version="1.0" encoding="UTF-8" standalone="no"?>
<!-- Created with Inkscape (http://www.inkscape.org/) -->

<svg
   xmlns:dc="http://purl.org/dc/elements/1.1/"
   xmlns:cc="http://creativecommons.org/ns#"
   xmlns:rdf="http://www.w3.org/1999/02/22-rdf-syntax-ns#"
   xmlns:svg="http://www.w3.org/2000/svg"
   xmlns="http://www.w3.org/2000/svg"
   xmlns:sodipodi="http://sodipodi.sourceforge.net/DTD/sodipodi-0.dtd"
   xmlns:inkscape="http://www.inkscape.org/namespaces/inkscape"
   version="1.2"
   width="575.24744"
   height="425.18658"
   id="svg10689"
   inkscape:version="0.48.3.1 r9886"
   sodipodi:docname="greeter-guided-context.svg"
   inkscape:export-filename="/home/amnesia/Persistent/master/wiki/src/blueprint/greeter_revamp_UI/greeter-guided-context.png"
   inkscape:export-xdpi="117.34081"
   inkscape:export-ydpi="117.34081">
  <sodipodi:namedview
     pagecolor="#ffffff"
     bordercolor="#666666"
     borderopacity="1"
     objecttolerance="10"
     gridtolerance="10"
     guidetolerance="10"
     inkscape:pageopacity="0"
     inkscape:pageshadow="2"
     inkscape:window-width="1024"
     inkscape:window-height="681"
     id="namedview4405"
     showgrid="false"
     inkscape:zoom="1.1101009"
     inkscape:cx="354.41667"
     inkscape:cy="208.26544"
     inkscape:window-x="0"
     inkscape:window-y="27"
     inkscape:window-maximized="1"
     inkscape:current-layer="svg10689" />
  <defs
     id="defs10691" />
  <metadata
     id="metadata10694">
    <rdf:RDF>
      <cc:Work
         rdf:about="">
        <dc:format>image/svg+xml</dc:format>
        <dc:type
           rdf:resource="http://purl.org/dc/dcmitype/StillImage" />
        <dc:title></dc:title>
      </cc:Work>
    </rdf:RDF>
  </metadata>
  <rect
     width="541.02637"
     height="294.50354"
     x="23.573612"
     y="65.176216"
     id="rect22803"
     style="fill:#f0f0f0;fill-opacity:1;stroke:none" />
  <rect
     width="204.95174"
     height="44.143444"
     x="85.102982"
     y="108.57693"
     id="rect6998"
     style="fill:none;stroke:#000000;stroke-width:1.29999995;stroke-miterlimit:4;stroke-opacity:1;stroke-dasharray:none" />
  <flowRoot
     transform="matrix(2,0,0,2,625.2116,-961.92951)"
     id="flowRoot7816"
     xml:space="preserve"
     style="font-size:12px;font-style:normal;font-weight:normal;line-height:125%;letter-spacing:0px;word-spacing:0px;fill:#000000;fill-opacity:1;stroke:none;font-family:Sans"><flowRegion
       id="flowRegion7818"><rect
         width="86.71035"
         height="26.80138"
         x="-260.13104"
         y="539.19458"
         id="rect7820" /></flowRegion><flowPara
       id="flowPara7822"
       style="font-size:10px">Home and office</flowPara></flowRoot>  <rect
     width="204.95174"
     height="44.143444"
     x="85.102982"
     y="166.90933"
     id="rect6998-9"
     style="fill:none;stroke:#000000;stroke-width:1.29999995;stroke-miterlimit:4;stroke-opacity:1;stroke-dasharray:none" />
  <flowRoot
     transform="matrix(2,0,0,2,647.6726,-903.59711)"
     id="flowRoot7816-3"
     xml:space="preserve"
     style="font-size:12px;font-style:normal;font-weight:normal;line-height:125%;letter-spacing:0px;word-spacing:0px;fill:#000000;fill-opacity:1;stroke:none;font-family:Sans"><flowRegion
       id="flowRegion7818-0"><rect
         width="86.71035"
         height="26.80138"
         x="-260.13104"
         y="539.19458"
         id="rect7820-5" /></flowRegion><flowPara
       id="flowPara7822-7"
       style="font-size:10px">Public place</flowPara></flowRoot>  <rect
     width="204.95174"
     height="44.143444"
     x="85.102982"
     y="223.66519"
     id="rect6998-95"
     style="fill:none;stroke:#000000;stroke-width:1.29999995;stroke-miterlimit:4;stroke-opacity:1;stroke-dasharray:none" />
  <flowRoot
     transform="matrix(2,0,0,2,661.74,-846.84125)"
     id="flowRoot7816-9"
     xml:space="preserve"
     style="font-size:12px;font-style:normal;font-weight:normal;line-height:125%;letter-spacing:0px;word-spacing:0px;fill:#000000;fill-opacity:1;stroke:none;font-family:Sans"><flowRegion
       id="flowRegion7818-9"><rect
         width="86.71035"
         height="26.80138"
         x="-260.13104"
         y="539.19458"
         id="rect7820-4" /></flowRegion><flowPara
       id="flowPara7822-9"
       style="font-size:10px">Web cafe</flowPara></flowRoot>  <rect
     width="204.95174"
     height="44.143444"
     x="85.102982"
     y="283.5741"
     id="rect6998-3"
     style="fill:none;stroke:#000000;stroke-width:1.29999995;stroke-miterlimit:4;stroke-opacity:1;stroke-dasharray:none" />
  <flowRoot
     transform="matrix(2,0,0,2,674.987,-786.93227)"
     id="flowRoot7816-6"
     xml:space="preserve"
     style="font-size:12px;font-style:normal;font-weight:normal;line-height:125%;letter-spacing:0px;word-spacing:0px;fill:#000000;fill-opacity:1;stroke:none;font-family:Sans"><flowRegion
       id="flowRegion7818-4"><rect
         width="86.71035"
         height="26.80138"
         x="-260.13104"
         y="539.19458"
         id="rect7820-6" /></flowRegion><flowPara
       id="flowPara7822-8"
       style="font-size:10px">Offline</flowPara></flowRoot>  <flowRoot
     transform="matrix(2,0,0,2,524.69403,-827.10185)"
     id="flowRoot7908"
     xml:space="preserve"
     style="font-size:12px;font-style:normal;font-weight:normal;text-align:justify;line-height:125%;letter-spacing:0px;word-spacing:0px;text-anchor:start;fill:#000000;fill-opacity:1;stroke:none;font-family:Sans"><flowRegion
       id="flowRegion7910"><rect
         width="112.54063"
         height="23.849157"
         x="-108.69207"
         y="496.63913"
         id="rect7912"
         style="text-align:justify;text-anchor:start" /></flowRegion><flowPara
       id="flowPara7922"
       style="font-size:4px;font-weight:bold;text-align:justify;text-anchor:start;-inkscape-font-specification:Sans Bold">Public place</flowPara><flowPara
       id="flowPara7924"
       style="font-size:4px;text-align:justify;text-anchor:start">You are connecting to the Internet for the first time in this location or you need to hide your MAC Address</flowPara><flowPara
       id="flowPara7926"
       style="font-size:4px;text-align:justify;text-anchor:start">Affected options: MAC Spoofing ON, Camouflage ON</flowPara><flowPara
       id="flowPara7928"
       style="font-size:4px;text-align:justify;text-anchor:start" /><flowPara
       id="flowPara7946"
       style="font-size:4px;text-align:justify;text-anchor:start" /></flowRoot>  <flowRoot
     transform="matrix(2,0,0,2,526.73517,-704.02213)"
     id="flowRoot7908-8"
     xml:space="preserve"
     style="font-size:12px;font-style:normal;font-weight:normal;text-align:justify;line-height:125%;letter-spacing:0px;word-spacing:0px;text-anchor:start;fill:#000000;fill-opacity:1;stroke:none;font-family:Sans"><flowRegion
       id="flowRegion7910-3"><rect
         width="109.75365"
         height="23.849157"
         x="-108.69207"
         y="496.63913"
         id="rect7912-6"
         style="text-align:justify;text-anchor:start" /></flowRegion><flowPara
       id="flowPara7938-7"
       style="font-size:4px;font-weight:bold;text-align:justify;text-anchor:start;-inkscape-font-specification:Sans Bold">Offline</flowPara><flowPara
       id="flowPara7940-1"
       style="font-size:4px;text-align:justify;text-anchor:start">You don't want to connect to the Internet.</flowPara><flowPara
       id="flowPara7946-79"
       style="font-size:4px;text-align:justify;text-anchor:start">Affected options: Network: OFF, Camouflage: OFF</flowPara></flowRoot>  <flowRoot
     transform="matrix(2,0,0,2,525.45931,-785.36421)"
     id="flowRoot7908-4"
     xml:space="preserve"
     style="font-size:12px;font-style:normal;font-weight:normal;text-align:justify;line-height:125%;letter-spacing:0px;word-spacing:0px;text-anchor:start;fill:#000000;fill-opacity:1;stroke:none;font-family:Sans"><flowRegion
       id="flowRegion7910-9"><rect
         width="110.86845"
         height="40.013618"
         x="-108.69207"
         y="496.63913"
         id="rect7912-4"
         style="text-align:justify;text-anchor:start" /></flowRegion><flowPara
       id="flowPara7928-1"
       style="font-size:4px;text-align:justify;text-anchor:start" /><flowPara
       id="flowPara7930-00"
       style="font-size:4px;font-weight:bold;text-align:justify;text-anchor:start;-inkscape-font-specification:Sans Bold">Web cafe</flowPara><flowPara
       id="flowPara7932-8"
       style="font-size:4px;text-align:justify;text-anchor:start">You are in an Internet cafe and don't want the network administrator to notice an unknown MAC Address connection</flowPara><flowPara
       id="flowPara7934-8"
       style="font-size:4px;text-align:justify;text-anchor:start">Affected options: MAC Spoofing: OFF, Camouflage: ON</flowPara><flowPara
       id="flowPara7936-22"
       style="font-size:4px;text-align:justify;text-anchor:start" /><flowPara
       id="flowPara7942-4"
       style="font-size:4px;text-align:justify;text-anchor:start" /><flowPara
       id="flowPara7944-2"
       style="font-size:4px;text-align:justify;text-anchor:start" /><flowPara
       id="flowPara7946-2"
       style="font-size:4px;text-align:justify;text-anchor:start" /></flowRoot>  <flowRoot
     transform="matrix(2,0,0,2,526.30621,-886.48559)"
     id="flowRoot7908-6"
     xml:space="preserve"
     style="font-size:12px;font-style:normal;font-weight:normal;text-align:justify;line-height:125%;letter-spacing:0px;word-spacing:0px;text-anchor:start;fill:#000000;fill-opacity:1;stroke:none;font-family:Sans"><flowRegion
       id="flowRegion7910-0"><rect
         width="110.86845"
         height="32.210087"
         x="-108.69207"
         y="496.63913"
         id="rect7912-5"
         style="text-align:justify;text-anchor:start" /></flowRegion><flowPara
       id="flowPara7914-92"
       style="font-size:4px;font-weight:bold;text-align:justify;text-anchor:start;-inkscape-font-specification:Sans Bold">Home &amp; office</flowPara><flowPara
       id="flowPara7916-2"
       style="font-size:4px;text-align:justify;text-anchor:start">You have previously connected to the Internet from thos location and don't need to hide your MAC address</flowPara><flowPara
       id="flowPara7918-9"
       style="font-size:4px;text-align:justify;text-anchor:start">Affected options : MAC Spoofing OFF, Camouflage OFF</flowPara><flowPara
       id="flowPara7920-63"
       style="font-size:4px;text-align:justify;text-anchor:start" /><flowPara
       id="flowPara7944-5"
       style="font-size:4px;text-align:justify;text-anchor:start" /><flowPara
       id="flowPara7946-22"
       style="font-size:4px;text-align:justify;text-anchor:start" /></flowRoot>  <flowRoot
     transform="matrix(2,0,0,2,644.694,-895.10193)"
     id="flowRoot9330"
     xml:space="preserve"
     style="font-size:12px;font-style:normal;font-weight:normal;line-height:125%;letter-spacing:0px;word-spacing:0px;fill:#000000;fill-opacity:1;stroke:none;font-family:Sans"><flowRegion
       id="flowRegion9332"><rect
         width="79.150124"
         height="22.853205"
         x="-166.66118"
         y="615.92169"
         id="rect9334" /></flowRegion><flowPara
       id="flowPara9336"
       style="font-size:4px;fill:#0000ff;fill-opacity:1">More info</flowPara></flowRoot>  <flowRoot
     transform="matrix(2,0,0,2,637.38069,-916.55455)"
     id="flowRoot8410-1"
     xml:space="preserve"
     style="font-size:6px;font-style:normal;font-weight:normal;line-height:125%;letter-spacing:0px;word-spacing:0px;fill:#000000;fill-opacity:1;stroke:none;font-family:Sans"><flowRegion
       id="flowRegion8412-6"><rect
         width="56.755863"
         height="15.765518"
         x="-297.18002"
         y="496.62769"
         id="rect8414-9"
         style="font-size:6px" /></flowRegion><flowPara
       id="flowPara8416-9">1. Introduction</flowPara></flowRoot>  <flowRoot
     transform="matrix(2,0,0,2,765.96569,-915.55064)"
     id="flowRoot8410-0-29"
     xml:space="preserve"
     style="font-size:6px;font-style:normal;font-variant:normal;font-weight:bold;font-stretch:normal;text-align:start;line-height:125%;letter-spacing:0px;word-spacing:0px;writing-mode:lr-tb;text-anchor:start;fill:#000000;fill-opacity:1;stroke:none;font-family:Sans;-inkscape-font-specification:Sans Bold"><flowRegion
       id="flowRegion8412-9-2"><rect
         width="56.755863"
         height="15.765518"
         x="-297.18002"
         y="496.62769"
         id="rect8414-7-4"
         style="font-size:6px;font-style:normal;font-variant:normal;font-weight:bold;font-stretch:normal;text-align:start;line-height:125%;writing-mode:lr-tb;text-anchor:start;font-family:Sans;-inkscape-font-specification:Sans Bold" /></flowRegion><flowPara
       id="flowPara8471-27"
       style="font-size:6px;font-style:normal;font-variant:normal;font-weight:bold;font-stretch:normal;text-align:start;line-height:125%;writing-mode:lr-tb;text-anchor:start;font-family:Sans;-inkscape-font-specification:Sans Bold">2. Context</flowPara></flowRoot>  <flowRoot
     transform="matrix(2,0,0,2,1046.9427,-915.74948)"
     id="flowRoot8410-3-0"
     xml:space="preserve"
     style="font-size:6px;font-style:normal;font-variant:normal;font-weight:normal;font-stretch:normal;text-align:start;line-height:125%;letter-spacing:0px;word-spacing:0px;writing-mode:lr-tb;text-anchor:start;fill:#999999;fill-opacity:1;stroke:none;font-family:Sans;-inkscape-font-specification:Sans"><flowRegion
       id="flowRegion8412-3-4"><rect
         width="56.755863"
         height="15.765518"
         x="-297.18002"
         y="496.62769"
         id="rect8414-4-8"
         style="font-size:6px;font-style:normal;font-variant:normal;font-weight:normal;font-stretch:normal;text-align:start;line-height:125%;writing-mode:lr-tb;text-anchor:start;fill:#999999;font-family:Sans;-inkscape-font-specification:Sans" /></flowRegion><flowPara
       id="flowPara8416-8-4"
       style="font-size:6px;font-style:normal;font-variant:normal;font-weight:normal;font-stretch:normal;text-align:start;line-height:125%;writing-mode:lr-tb;text-anchor:start;fill:#999999;font-family:Sans;-inkscape-font-specification:Sans">4. Check and go</flowPara></flowRoot>  <flowRoot
     transform="matrix(2,0,0,2,866.77089,-915.60186)"
     id="flowRoot8410-37-87"
     xml:space="preserve"
     style="font-size:6px;font-style:normal;font-weight:normal;line-height:125%;letter-spacing:0px;word-spacing:0px;fill:#999999;fill-opacity:1;stroke:none;font-family:Sans"><flowRegion
       id="flowRegion8412-0-07"><rect
         width="68.920967"
         height="9.8497696"
         x="-297.18002"
         y="496.62769"
         id="rect8414-45-31"
         style="font-size:6px;fill:#999999" /></flowRegion><flowPara
       id="flowPara8416-5-3">3. Need to save data?</flowPara></flowRoot>  <text
     x="70.985962"
     y="34.301411"
     id="text3840-4-10"
     xml:space="preserve"
     style="font-size:17.99827576px;font-style:normal;font-variant:normal;font-weight:normal;font-stretch:normal;text-align:start;line-height:125%;letter-spacing:0px;word-spacing:0px;writing-mode:lr-tb;text-anchor:start;fill:#666666;fill-opacity:1;stroke:none;font-family:Sans;-inkscape-font-specification:Sans"><tspan
       x="70.985962"
       y="34.301411"
       id="tspan3842-3-5"
       style="fill:#666666">Welcome to Tails!</tspan></text>
  <path
     d="m 259.5625,20.875 -1.9375,2.28125 14.28125,12.3125 -13.6875,14.34375 2.15625,2.0625 14.78125,-15.46875 1.09375,-1.125 -1.1875,-1.03125 -15.5,-13.375 z"
     id="path22225"
     style="font-size:medium;font-style:normal;font-variant:normal;font-weight:normal;font-stretch:normal;text-indent:0;text-align:start;text-decoration:none;line-height:normal;letter-spacing:normal;word-spacing:normal;text-transform:none;direction:ltr;block-progression:tb;writing-mode:lr-tb;text-anchor:start;baseline-shift:baseline;color:#000000;fill:#000000;fill-opacity:1;stroke:none;stroke-width:3;marker:none;visibility:visible;display:inline;overflow:visible;enable-background:accumulate;font-family:Sans;-inkscape-font-specification:Sans" />
  <text
     x="363.66287"
     y="37.029861"
     id="text3836-4"
     xml:space="preserve"
     style="font-size:18.62428665px;font-style:normal;font-variant:normal;font-weight:normal;font-stretch:normal;text-align:start;line-height:125%;letter-spacing:0px;word-spacing:0px;writing-mode:lr-tb;text-anchor:start;fill:#000000;fill-opacity:1;stroke:none;font-family:Sans;-inkscape-font-specification:Sans"><tspan
       x="363.66287"
       y="37.029861"
       id="tspan3838-7">Discover</tspan></text>
  <text
     x="365.17294"
     y="55.980583"
     id="text20391"
     xml:space="preserve"
     style="font-size:11.61388493px;font-style:normal;font-variant:normal;font-weight:normal;font-stretch:normal;text-align:start;line-height:125%;letter-spacing:0px;word-spacing:0px;writing-mode:lr-tb;text-anchor:start;fill:#000000;fill-opacity:1;stroke:none;font-family:Sans;-inkscape-font-specification:Sans"><tspan
       x="365.17294"
       y="55.980583"
       id="tspan20393">Guided configuration</tspan></text>
  <path
     d="m 350.19698,56.371839 c -0.5027,-0.316345 -4.85563,-4.537108 -9.67318,-9.379491 l -8.75917,-8.804324 0,-1.465517 c 0,-1.260423 0.14495,-1.610467 1.03588,-2.50138 0.89095,-0.890948 1.2409,-1.035864 2.50157,-1.035864 l 1.46573,0 8.94543,8.911501 c 4.92,4.901347 9.14119,9.281732 9.38042,9.734225 0.77822,1.471824 0.55823,2.629411 -0.74783,3.935464 -1.36621,1.366212 -2.6436,1.552592 -4.14885,0.605386 z M 324.45263,42.934598 c -0.821,-0.820985 -0.85593,-3.5886 -0.0576,-4.57432 0.66999,-0.827433 1.97759,-0.892055 2.80985,-0.138801 0.46567,0.421429 0.59924,0.939229 0.59924,2.323081 0,2.012869 -0.65137,2.99945 -1.98033,2.99945 -0.41892,0 -1.03588,-0.274195 -1.37101,-0.609339 z m -11.88201,-0.218199 c -1.05983,-0.380369 -1.828,-1.421943 -1.828,-2.478627 0,-0.919658 0.30859,-1.375876 2.23094,-3.298225 1.92235,-1.922349 2.37859,-2.230945 3.29825,-2.230945 0.72087,0 1.26753,0.222486 1.68431,0.685504 1.33664,1.484948 1.15312,2.475166 -0.86433,4.663856 -2.00349,2.173527 -3.46985,3.035731 -4.52117,2.658437 z m 12.07881,-9.893654 c -4.7178,-1.006294 -5.69447,-7.554601 -1.48003,-9.923259 2.27016,-1.275902 5.60247,-0.625555 7.00627,1.367389 2.91478,4.137992 -0.6153,9.603348 -5.52624,8.55587 z m -14.21147,-3.902819 c -0.80879,-0.808792 -0.77083,-1.874753 0.0959,-2.688885 1.04992,-0.986353 3.61587,-0.939142 4.6404,0.08539 0.91236,0.912383 0.93449,1.370024 0.11631,2.410105 -0.55528,0.70592 -0.84927,0.802747 -2.43734,0.802747 -1.39966,0 -1.94296,-0.137044 -2.41521,-0.609339 z m 26.05815,0.0088 c -0.75318,-0.832247 -0.68856,-2.139846 0.1388,-2.809854 0.98574,-0.798161 3.75334,-0.763215 4.57434,0.05781 0.33513,0.335144 0.60934,0.952091 0.60934,1.371008 0,1.328964 -0.98658,1.98033 -2.99947,1.98033 -1.38385,0 -1.90163,-0.133531 -2.32306,-0.599236 z m -20.87882,-8.447587 c -0.25135,-0.08996 -1.45098,-1.138138 -2.66583,-2.329495 -1.93199,-1.894606 -2.20884,-2.303579 -2.20884,-3.263102 0,-1.427899 1.01155,-2.421912 2.46459,-2.421912 0.90546,0 1.3618,0.311882 3.23198,2.208843 1.19772,1.214847 2.21608,2.483037 2.26305,2.818164 0.1807,1.289976 -0.34332,2.316247 -1.41035,2.762081 -0.57513,0.240302 -1.08437,0.426086 -1.13164,0.412873 -0.0473,-0.01406 -0.29162,-0.09769 -0.54296,-0.187452 z m 19.19401,-0.007 c -1.05984,-0.380352 -1.828,-1.421926 -1.828,-2.478627 0,-1.58529 3.94388,-5.529153 5.52917,-5.529153 0.72088,0 1.26758,0.222487 1.68434,0.685487 1.33664,1.484948 1.15312,2.475184 -0.86433,4.663874 -2.00349,2.173527 -3.46985,3.035731 -4.52118,2.658419 z m -10.22018,-3.576284 c -1.05579,-1.055788 -1.07997,-3.708585 -0.0427,-4.683078 0.87958,-0.826326 1.85342,-0.845881 2.64621,-0.05306 0.47226,0.472277 0.60932,1.015554 0.60932,2.415218 0,1.588048 -0.0968,1.882062 -0.80275,2.437338 -1.04006,0.818121 -1.49772,0.796019 -2.4101,-0.116312 z"
     id="path21150"
     style="fill:#101010" />
  <rect
     width="89.62442"
     height="39.190517"
     x="475.12302"
     y="374.23901"
     id="rect3779-5-4-1"
     style="fill:none;stroke:#000000;stroke-width:1;stroke-linejoin:round;stroke-miterlimit:4;stroke-opacity:1;stroke-dasharray:none" />
  <text
     x="536.99249"
     y="396.99826"
     id="text3844-1"
     xml:space="preserve"
     style="font-size:10.60015774px;font-style:normal;font-variant:normal;font-weight:bold;font-stretch:normal;text-align:center;line-height:125%;letter-spacing:0px;word-spacing:0px;writing-mode:lr-tb;text-anchor:middle;fill:#000000;fill-opacity:1;stroke:none;font-family:Sans;-inkscape-font-specification:Sans Bold"><tspan
       x="536.99249"
       y="396.99826"
       id="tspan3846-4"
       style="font-size:10.60015774px;font-style:normal;font-variant:normal;font-weight:bold;font-stretch:normal;text-align:center;line-height:125%;writing-mode:lr-tb;text-anchor:middle;font-family:Sans;-inkscape-font-specification:Sans Bold">Start</tspan></text>
  <rect
     width="121.39091"
     height="39.190517"
     x="24.503674"
     y="375.79938"
     id="rect3779-4-3"
     style="fill:none;stroke:#000000;stroke-width:0.39333582;stroke-linejoin:round;stroke-miterlimit:4;stroke-opacity:1;stroke-dasharray:2.360015, 2.360015;stroke-dashoffset:0" />
  <rect
     width="120.83021"
     height="39.190517"
     x="162.73523"
     y="375.79938"
     id="rect3779-8-4-3"
     style="fill:none;stroke:#000000;stroke-width:0.39265221;stroke-linejoin:round;stroke-miterlimit:4;stroke-opacity:1;stroke-dasharray:2.35591326, 2.35591326;stroke-dashoffset:0" />
  <text
     x="61.68539"
     y="395.60611"
     id="text3836-4-8"
     xml:space="preserve"
     style="font-size:10.60015774px;font-style:normal;font-variant:normal;font-weight:normal;font-stretch:normal;text-align:start;line-height:125%;letter-spacing:0px;word-spacing:0px;writing-mode:lr-tb;text-anchor:start;fill:#cccccc;fill-opacity:1;stroke:none;font-family:Sans;-inkscape-font-specification:Sans"><tspan
       x="61.68539"
       y="395.60611"
       id="tspan3838-7-2"
       style="fill:#cccccc">Discover</tspan></text>
  <text
     x="197.23642"
     y="396.43323"
     id="text3840-4"
     xml:space="preserve"
     style="font-size:10.60015774px;font-style:normal;font-variant:normal;font-weight:normal;font-stretch:normal;text-align:start;line-height:125%;letter-spacing:0px;word-spacing:0px;writing-mode:lr-tb;text-anchor:start;fill:#808080;fill-opacity:1;stroke:none;font-family:Sans;-inkscape-font-specification:Sans"><tspan
       x="197.23642"
       y="396.43323"
       id="tspan3842-3"
       style="fill:#808080">Quick setup</tspan></text>
  <text
     x="62.544857"
     y="406.39206"
     id="text20391-3"
     xml:space="preserve"
     style="font-size:6.61013317px;font-style:normal;font-variant:normal;font-weight:normal;font-stretch:normal;text-align:start;line-height:125%;letter-spacing:0px;word-spacing:0px;writing-mode:lr-tb;text-anchor:start;fill:#cccccc;fill-opacity:1;stroke:none;font-family:Sans;-inkscape-font-specification:Sans"><tspan
       x="62.544857"
       y="406.39206"
       id="tspan20393-5"
       style="fill:#cccccc">Guided configuration</tspan></text>
  <text
     x="195.6142"
     y="405.88705"
     id="text20391-4"
     xml:space="preserve"
     style="font-size:6.61013317px;font-style:normal;font-variant:normal;font-weight:normal;font-stretch:normal;text-align:start;line-height:125%;letter-spacing:0px;word-spacing:0px;writing-mode:lr-tb;text-anchor:start;fill:#808080;fill-opacity:1;stroke:none;font-family:Sans;-inkscape-font-specification:Sans"><tspan
       x="195.6142"
       y="405.88705"
       id="tspan20393-7"
       style="fill:#808080">Advanced configuration</tspan></text>
  <path
     d="m 170.92224,407.47832 c 0.49836,-2.02832 2.65058,-5.14529 4.48957,-6.50209 2.01427,-1.4861 2.14838,-1.20216 0.76453,1.61866 -1.00845,2.05562 -2.5594,3.92474 -4.03934,4.86803 -1.06425,0.67832 -1.37863,0.6823 -1.21476,0.0154 z m 3.89261,-0.0183 c -0.22299,-0.36082 1.22033,-2.86436 2.29891,-3.98759 1.04037,-1.08343 2.06869,-1.75492 2.31313,-1.51047 0.20013,0.20012 -1.20159,2.81694 -1.98665,3.70882 -0.76312,0.86694 -2.08432,1.94567 -2.38302,1.94567 -0.0801,0 -0.18919,-0.0704 -0.24237,-0.15644 z m 6.88708,-1.82357 c -0.0144,-5.59703 -4.17445,-9.07113 -10.86223,-9.07113 -1.41777,0 -1.87866,-0.0607 -1.95405,-0.25708 -0.16814,-0.43817 1.02219,-2.52367 2.06357,-3.61544 1.5511,-1.62617 3.38214,-2.3764 5.82161,-2.38528 l 1.2364,-0.005 0.74232,-1.09312 c 1.91075,-2.81371 4.39591,-5.072 6.89302,-6.26376 1.09568,-0.52292 4.14768,-1.46543 4.99508,-1.54258 0.3534,-0.0322 0.36593,0.06 0.30821,2.26879 -0.0331,1.26627 -0.16965,2.84243 -0.30346,3.50256 -0.52659,2.598 -2.03861,5.62125 -4.05685,8.11158 l -0.82946,1.02348 0.20481,1.09465 c 0.29076,1.55396 0.11117,4.18018 -0.3727,5.4501 -0.43131,1.13201 -1.5214,2.48991 -2.66227,3.31635 -1.06819,0.7738 -1.2208,0.70714 -1.224,-0.53461 z m 2.96434,-12.88489 c 1.2542,-0.74087 1.37513,-2.3671 0.24952,-3.3554 -1.11127,-0.97572 -2.68765,-0.64063 -3.32727,0.70726 -0.8333,1.75604 1.37355,3.65484 3.07775,2.64814 z m -14.46472,10.76676 c 0.24828,-0.82051 1.20748,-2.45763 1.94392,-3.31779 0.8979,-1.04876 2.33985,-2.08732 2.57354,-1.85363 0.22206,0.22205 -0.77788,2.30388 -1.68296,3.50388 -1.16575,1.54563 -3.15102,2.71355 -2.8345,1.66754 z"
     id="path21112"
     style="fill:#808080" />
  <path
     d="m 54.021178,406.61476 c -0.28612,-0.18005 -2.76362,-2.58233 -5.50557,-5.33841 l -4.98535,-5.01105 0,-0.83411 c 0,-0.71738 0.0825,-0.91661 0.58958,-1.42368 0.50709,-0.50709 0.70627,-0.58957 1.42379,-0.58957 l 0.83423,0 5.09136,5.07205 c 2.80026,2.78964 5.20278,5.28277 5.33894,5.54031 0.44293,0.8377 0.31772,1.49655 -0.42563,2.2399 -0.77759,0.77759 -1.50463,0.88367 -2.36135,0.34456 z m -14.6526,-7.64791 c -0.46728,-0.46727 -0.48716,-2.04248 -0.0328,-2.60351 0.38133,-0.47094 1.12556,-0.50772 1.59925,-0.079 0.26504,0.23986 0.34106,0.53457 0.34106,1.3222 0,1.14564 -0.37073,1.70716 -1.12712,1.70716 -0.23843,0 -0.58958,-0.15606 -0.78032,-0.34681 z m -6.76274,-0.12419 c -0.60321,-0.21649 -1.04042,-0.80931 -1.04042,-1.41073 0,-0.52343 0.17564,-0.78309 1.26976,-1.87721 1.09412,-1.09412 1.35379,-1.26976 1.87722,-1.26976 0.41029,0 0.72143,0.12663 0.95864,0.39016 0.76076,0.84517 0.65631,1.40876 -0.49194,2.65447 -1.1403,1.23708 -1.97489,1.72781 -2.57326,1.51307 z m 6.87475,-5.63105 c -2.68517,-0.57274 -3.24105,-4.29976 -0.84237,-5.6479 1.29208,-0.72619 3.18869,-0.35604 3.98767,0.77826 1.65897,2.35517 -0.3502,5.46582 -3.1453,4.86964 z m -8.08857,-2.22132 c -0.46033,-0.46033 -0.43872,-1.06703 0.0546,-1.5304 0.59757,-0.56139 2.058,-0.53452 2.64112,0.0486 0.51928,0.51929 0.53187,0.77976 0.0662,1.37173 -0.31604,0.40178 -0.48337,0.45689 -1.38723,0.45689 -0.79663,0 -1.10585,-0.078 -1.37464,-0.34681 z m 14.8312,0.005 c -0.42868,-0.47368 -0.3919,-1.21791 0.079,-1.59925 0.56104,-0.45428 2.13624,-0.43439 2.60352,0.0329 0.19074,0.19075 0.34681,0.54189 0.34681,0.78032 0,0.75639 -0.56152,1.12712 -1.70717,1.12712 -0.78763,0 -1.08233,-0.076 -1.32219,-0.34106 z m -11.88334,-4.80801 c -0.14306,-0.0512 -0.82584,-0.64778 -1.51728,-1.32585 -1.09961,-1.07833 -1.25718,-1.3111 -1.25718,-1.85722 0,-0.8127 0.57573,-1.37845 1.40274,-1.37845 0.51535,0 0.77508,0.17751 1.83951,1.25718 0.68169,0.69144 1.2613,1.41324 1.28803,1.60398 0.10285,0.7342 -0.1954,1.31831 -0.80271,1.57206 -0.32734,0.13677 -0.61718,0.24251 -0.64408,0.23499 -0.0269,-0.008 -0.16598,-0.0556 -0.30903,-0.10669 z m 10.92442,-0.004 c -0.60322,-0.21648 -1.04042,-0.8093 -1.04042,-1.41073 0,-0.90228 2.24469,-3.14696 3.14697,-3.14696 0.41029,0 0.72145,0.12663 0.95865,0.39015 0.76076,0.84517 0.65631,1.40877 -0.49194,2.65448 -1.1403,1.23708 -1.97489,1.72781 -2.57326,1.51306 z m -5.8169,-2.03547 c -0.60091,-0.60091 -0.61467,-2.11077 -0.0243,-2.66541 0.50062,-0.47031 1.05489,-0.48144 1.50611,-0.0302 0.26879,0.2688 0.3468,0.57801 0.3468,1.37464 0,0.90385 -0.0551,1.07119 -0.45689,1.38723 -0.59196,0.46564 -0.85244,0.45306 -1.37173,-0.0662 z"
     id="path21150-9"
     style="fill:#e6e6e6" />
  <path
     d="m 425.79633,77.963389 -0.96415,1.135209 7.10671,6.127016 -6.81125,7.137819 1.07301,1.026354 7.35553,-7.697649 0.54427,-0.559829 -0.59093,-0.513176 -7.71319,-6.655744 z"
     id="path22225-3"
     style="font-size:medium;font-style:normal;font-variant:normal;font-weight:normal;font-stretch:normal;text-indent:0;text-align:start;text-decoration:none;line-height:normal;letter-spacing:normal;word-spacing:normal;text-transform:none;direction:ltr;block-progression:tb;writing-mode:lr-tb;text-anchor:start;baseline-shift:baseline;color:#000000;fill:#999999;fill-opacity:1;stroke:none;stroke-width:3;marker:none;visibility:visible;display:inline;overflow:visible;enable-background:accumulate;font-family:Sans;-inkscape-font-specification:Sans" />
  <path
     d="m 254.85218,77.963389 -0.96415,1.135209 7.10672,6.127016 -6.81126,7.137819 1.07301,1.026354 7.35553,-7.697649 0.54428,-0.559829 -0.59093,-0.513176 -7.7132,-6.655744 z"
     id="path22225-5"
     style="font-size:medium;font-style:normal;font-variant:normal;font-weight:normal;font-stretch:normal;text-indent:0;text-align:start;text-decoration:none;line-height:normal;letter-spacing:normal;word-spacing:normal;text-transform:none;direction:ltr;block-progression:tb;writing-mode:lr-tb;text-anchor:start;baseline-shift:baseline;color:#000000;fill:#999999;fill-opacity:1;stroke:none;stroke-width:3;marker:none;visibility:visible;display:inline;overflow:visible;enable-background:accumulate;font-family:Sans;-inkscape-font-specification:Sans" />
  <path
     d="m 149.26392,77.05139 -0.96415,1.135209 7.10672,6.127016 -6.81125,7.137819 1.073,1.026353 7.35553,-7.697648 0.54428,-0.559829 -0.59093,-0.513176 -7.7132,-6.655744 z"
     id="path22225-7"
     style="font-size:medium;font-style:normal;font-variant:normal;font-weight:normal;font-stretch:normal;text-indent:0;text-align:start;text-decoration:none;line-height:normal;letter-spacing:normal;word-spacing:normal;text-transform:none;direction:ltr;block-progression:tb;writing-mode:lr-tb;text-anchor:start;baseline-shift:baseline;color:#000000;fill:#000000;fill-opacity:1;stroke:none;stroke-width:3;marker:none;visibility:visible;display:inline;overflow:visible;enable-background:accumulate;font-family:Sans;-inkscape-font-specification:Sans" />
  <text
     x="71.03952"
     y="51.822609"
     id="text20391-4-7"
     xml:space="preserve"
     style="font-size:11.22351265px;font-style:normal;font-variant:normal;font-weight:normal;font-stretch:normal;text-align:start;line-height:125%;letter-spacing:0px;word-spacing:0px;writing-mode:lr-tb;text-anchor:start;fill:#666666;fill-opacity:1;stroke:none;font-family:Sans;-inkscape-font-specification:Sans"><tspan
       x="71.03952"
       y="51.822609"
       id="tspan20393-7-7"
       style="fill:#666666">Privacy for anyone anywhere</tspan></text>
  <g
     transform="matrix(0.40502837,0,0,0.40502837,24.571054,10.423168)"
     id="g5374"
     style="fill:#666666;fill-opacity:1">
    <path
       d="m 88.342066,56.730068 0,16.662869 c 0,0.510289 -0.341075,0.643984 -0.760689,0.296591 L 79.077314,66.649116 C 78.658103,66.302056 78.317029,65.609 78.317029,65.098711 l 0,-2.097683 -2.657657,-2.16078 c -2.850156,-2.317289 -5.132376,-7.0217 -5.132376,-10.464763 0,-3.442323 2.29778,-4.339449 5.132376,-2.002743 l 2.657657,2.160782 0,-2.097681 c 0,-0.510046 0.341074,-0.643737 0.760285,-0.296677 l 8.503862,7.040243 c 0.420546,0.346435 0.76089,1.040613 0.76089,1.550659 z M 75.81131,51.432227 c -1.50022,-1.236708 -2.716309,-0.761675 -2.716309,1.060197 0,1.822367 1.216089,4.301887 2.716309,5.538595 l 2.505719,2.035532 0,-6.599035 -2.505719,-2.035532 z"
       id="path5189-4"
       style="fill:#666666;fill-opacity:1" />
    <g
       transform="matrix(0.46410314,0.9267926,-0.9267926,0.46410314,77.258376,-14.89278)"
       id="g3500"
       style="fill:#666666;fill-opacity:1">
      <path
         d="M 97.976,37.8 C 97.972,37.779 97.968,37.758 97.963,37.737 97.947,37.669 97.927,37.602 97.901,37.538 97.898,37.53 97.896,37.522 97.893,37.515 97.863,37.446 97.826,37.38 97.786,37.317 97.775,37.299 97.762,37.283 97.75,37.266 97.715,37.216 97.676,37.169 97.634,37.125 97.623,37.113 97.613,37.101 97.601,37.089 97.548,37.037 97.49,36.989 97.428,36.946 97.413,36.935 97.396,36.927 97.38,36.917 97.349,36.898 97.32,36.877 97.288,36.86 L 96.743,36.576 71.837016,47.695585 25.252,24.269 l -0.666,0.33 c -0.006,0.003 -0.01,0.007 -0.016,0.01 -0.047,0.024 -0.09,0.055 -0.134,0.084 -0.029,0.019 -0.06,0.036 -0.087,0.057 -0.034,0.027 -0.063,0.059 -0.094,0.09 -0.031,0.03 -0.065,0.059 -0.093,0.092 -0.022,0.026 -0.039,0.056 -0.06,0.084 -0.031,0.043 -0.063,0.086 -0.088,0.132 -0.003,0.005 -0.007,0.01 -0.01,0.015 -0.015,0.028 -0.022,0.057 -0.035,0.085 -0.02,0.046 -0.041,0.09 -0.056,0.138 -0.013,0.041 -0.02,0.082 -0.029,0.123 -0.009,0.043 -0.019,0.085 -0.024,0.128 -0.005,0.043 -0.004,0.085 -0.005,0.127 -0.001,0.044 -0.003,0.087 0.001,0.13 0.002,0.023 0.005,0.046 0.009,0.069 -0.006,0.051 -0.015,0.1 -0.015,0.152 L 23.854,41.674 27.21708,40.107419 63.622,58.211 38.537615,69.347048 l -18.939,-9.469 L 2.6090632,51.38471 c -0.012,-0.006 -0.025,-0.009 -0.038,-0.014 -0.042,-0.02 -0.086,-0.035 -0.131,-0.05 -0.04,-0.014 -0.08,-0.028 -0.121,-0.038 -0.038,-0.009 -0.078,-0.014 -0.117,-0.019 -0.049,-0.007 -0.098,-0.014 -0.148,-0.015 -0.013,0 -0.024,-0.004 -0.037,-0.004 -0.025,0 -0.049,0.006 -0.074,0.007 -0.05,0.004 -0.099,0.007 -0.148,0.016 -0.04,0.007 -0.079,0.017 -0.118,0.027 -0.043,0.011 -0.085,0.024 -0.127,0.039 -0.039,0.015 -0.077,0.032 -0.114,0.051 -0.039,0.019 -0.077,0.039 -0.115,0.062 -0.035,0.022 -0.068,0.045 -0.1,0.07 -0.035,0.027 -0.07,0.054 -0.103,0.085 -0.031,0.029 -0.059,0.059 -0.087,0.09 -0.028,0.032 -0.056,0.064 -0.082,0.099 -0.028,0.038 -0.052,0.079 -0.076,0.12 -0.013,0.023 -0.03,0.042 -0.042,0.066 -0.006,0.012 -0.008,0.025 -0.014,0.037 -0.02,0.043 -0.036,0.089 -0.051,0.135 -0.013,0.039 -0.027,0.078 -0.036,0.117 -0.009,0.04 -0.014,0.081 -0.02,0.122 -0.007,0.048 -0.013,0.095 -0.014,0.142 0.001,0.014 -0.003,0.026 -0.003,0.039 l 0,19.531 c 0,0.026 0.006,0.051 0.008,0.077 0.003,0.048 0.006,0.096 0.014,0.143 0.007,0.042 0.017,0.082 0.028,0.122 0.011,0.042 0.023,0.083 0.038,0.123 0.015,0.04 0.033,0.079 0.052,0.117 0.019,0.038 0.038,0.076 0.061,0.112 0.022,0.035 0.046,0.069 0.071,0.102 0.027,0.035 0.054,0.069 0.084,0.102 0.028,0.031 0.059,0.059 0.09,0.087 0.032,0.029 0.064,0.056 0.1,0.082 0.038,0.027 0.077,0.051 0.118,0.075 0.023,0.014 0.043,0.031 0.068,0.043 L 37.945615,91.543048 c 0.007,0.004 0.015,0.004 0.022,0.008 0.017,0.008 0.032,0.017 0.049,0.025 0.01,0.004 0.02,0.007 0.03,0.011 0.056,0.022 0.113,0.041 0.171,0.055 0.012,0.003 0.024,0.006 0.036,0.009 0.016,0.003 0.032,0.005 0.048,0.008 0.077,0.014 0.154,0.024 0.232,0.024 0.001,0 0.002,0 0.003,0 l 0.001,0 10e-4,0 c 10e-4,0 0.002,0 0.003,0 0.078,0 0.156,-0.01 0.232,-0.024 0.016,-0.003 0.032,-0.005 0.048,-0.008 0.012,-0.003 0.024,-0.006 0.036,-0.009 0.058,-0.014 0.115,-0.033 0.17,-0.055 0.01,-0.004 0.021,-0.007 0.031,-0.011 0.017,-0.007 0.032,-0.017 0.049,-0.024 0.007,-0.003 0.015,-0.004 0.022,-0.008 L 61.746,81.642 l 9.462,5.221 c 0.018,0.01 0.037,0.017 0.056,0.026 0.019,0.01 0.038,0.02 0.058,0.029 0.008,0.003 0.016,0.007 0.024,0.01 0.031,0.013 0.063,0.023 0.095,0.033 0.019,0.006 0.038,0.013 0.058,0.019 0.021,0.006 0.043,0.011 0.064,0.015 0.015,0.003 0.029,0.006 0.044,0.008 0.007,0.001 0.015,0.003 0.022,0.004 0.014,0.002 0.028,0.006 0.042,0.008 0.059,0.008 0.117,0.013 0.176,0.013 l 0.001,0 0.001,0 c 10e-4,0 0.002,0 0.003,0 0.078,0 0.155,-0.01 0.232,-0.024 0.013,-0.002 0.026,-0.003 0.039,-0.006 0.01,-0.002 0.019,-0.006 0.029,-0.008 0.07,-0.017 0.14,-0.037 0.207,-0.065 0.007,-0.003 0.014,-0.007 0.021,-0.01 0.004,-0.002 0.008,-0.004 0.012,-0.006 0.006,-0.003 0.012,-0.003 0.018,-0.006 L 97.238,75.317 C 97.703,75.098 98,74.631 98,74.117 L 98,38.034 C 98,38.028 97.998,38.023 97.998,38.017 97.997,37.943 97.989,37.871 97.976,37.8 z m -60.762385,40.617048 -7.614,3.666 3.972,1.986 3.641,-1.986 0,6.29 -33.8715518,-16.935338 0,-9.829 8.6775518,4.241338 -7.2569997,3.35 3.972,1.986 7.2689997,-3.378 4.313,2.051 -7.487,3.456 3.972,1.986 7.503,-3.482 4.621,2.344 -7.381,3.407 3.972,1.986 7.395,-3.434 4.303,2.111 z M 65.228,76.939 39.861615,88.216048 l 0,-16.57 L 65.228,60.37 z M 3.3410632,58.52771 l 0,-3.31 33.8725518,16.603338 0,3.31 z"
         id="path3502"
         style="fill:#666666;fill-opacity:1" />
    </g>
    <polygon
       points="33.117,56.241 39.407,53.262 45.366,56.241 39.076,59.22 "
       transform="matrix(0.44775907,0.89415425,-0.89415425,0.44775907,70.46318,-16.30443)"
       id="polygon3506"
       style="fill:#666666;fill-opacity:1" />
    <polygon
       points="28.814,53.593 22.855,50.613 29.145,47.634 35.103,50.613 "
       transform="matrix(0.44775907,0.89415425,-0.89415425,0.44775907,70.02568,-16.55443)"
       id="polygon3508"
       style="fill:#666666;fill-opacity:1" />
    <g
       transform="matrix(0,-0.2492475,0.19547686,0.16114179,71.005984,62.192969)"
       id="Captions"
       style="fill:#666666;fill-opacity:1" />
    <g
       transform="translate(122.10986,-55.111168)"
       id="Captions-7"
       style="fill:#666666;fill-opacity:1" />
    <path
       d="m 45.058193,34.347585 c 2.124399,2.704098 4.295157,7.985437 4.295157,12.865587 0,4.87818 -2.170758,6.542025 -4.295157,5.703941 0,-1.998055 0,-16.795084 0,-18.569528 z"
       id="path4818-2-4-3"
       style="fill:#666666;fill-opacity:1" />
    <g
       transform="translate(74.936297,109.72221)"
       id="Your_Icon"
       style="fill:#666666;fill-opacity:1" />
  </g>
  <path
     d="m 493.28023,407.11193 c -3.57554,-0.77053 -6.60849,-2.80863 -8.64724,-5.81084 -3.32695,-4.89914 -3.05831,-11.55911 0.65293,-16.18717 3.20804,-4.00056 8.41532,-5.93428 13.31645,-4.94505 9.6993,1.95769 14.32378,13.033 8.82371,21.13222 -3.13193,4.61199 -8.83603,6.95511 -14.14585,5.81084 z m 4.30724,-10.05337 c 4.4012,-2.56045 5.13203,-3.04651 5.13203,-3.41328 0,-0.36747 -0.73194,-0.85012 -5.19895,-3.42832 -3.22898,-1.86364 -5.34723,-2.9795 -5.59026,-2.94483 -0.38951,0.0555 -0.3915,0.0836 -0.43962,6.1946 -0.0265,3.37633 -0.008,6.24248 0.04,6.36921 0.0486,0.12672 0.27659,0.22542 0.50656,0.21932 0.22998,-0.006 2.72755,-1.35462 5.55018,-2.9967 z"
     id="path31797"
     style="fill:#060606"
     inkscape:connector-curvature="0" />
</svg>
