<?xml version="1.0" encoding="UTF-8" standalone="no"?>
<!-- Created with Inkscape (http://www.inkscape.org/) -->

<svg
   xmlns:dc="http://purl.org/dc/elements/1.1/"
   xmlns:cc="http://creativecommons.org/ns#"
   xmlns:rdf="http://www.w3.org/1999/02/22-rdf-syntax-ns#"
   xmlns:svg="http://www.w3.org/2000/svg"
   xmlns="http://www.w3.org/2000/svg"
   xmlns:sodipodi="http://sodipodi.sourceforge.net/DTD/sodipodi-0.dtd"
   xmlns:inkscape="http://www.inkscape.org/namespaces/inkscape"
   width="561.67395"
   height="423.60565"
   id="svg11615"
   version="1.1"
   inkscape:version="0.48.3.1 r9886"
   sodipodi:docname="greeter-guided-check.svg"
   inkscape:export-filename="/home/amnesia/Persistent/master/wiki/src/blueprint/greeter_revamp_UI/greeter-guided-check.png"
   inkscape:export-xdpi="120.18"
   inkscape:export-ydpi="120.18">
  <defs
     id="defs11617" />
  <sodipodi:namedview
     id="base"
     pagecolor="#ffffff"
     bordercolor="#666666"
     borderopacity="1.0"
     inkscape:pageopacity="0.0"
     inkscape:pageshadow="2"
     inkscape:zoom="1.0505053"
     inkscape:cx="280.83698"
     inkscape:cy="211.80283"
     inkscape:document-units="px"
     inkscape:current-layer="layer1"
     showgrid="false"
     fit-margin-top="10"
     fit-margin-left="10"
     fit-margin-right="10"
     fit-margin-bottom="10"
     inkscape:window-width="1024"
     inkscape:window-height="681"
     inkscape:window-x="0"
     inkscape:window-y="27"
     inkscape:window-maximized="1" />
  <metadata
     id="metadata11620">
    <rdf:RDF>
      <cc:Work
         rdf:about="">
        <dc:format>image/svg+xml</dc:format>
        <dc:type
           rdf:resource="http://purl.org/dc/dcmitype/StillImage" />
        <dc:title></dc:title>
      </cc:Work>
    </rdf:RDF>
  </metadata>
  <g
     inkscape:label="Layer 1"
     inkscape:groupmode="layer"
     id="layer1"
     transform="translate(-944.77936,-238.61497)">
    <rect
       width="541.02637"
       height="294.50354"
       x="954.77936"
       y="302.21024"
       id="rect22803"
       style="fill:#f0f0f0;fill-opacity:1;stroke:none" />
    <flowRoot
       transform="matrix(2,0,0,2,1568.5865,-679.52053)"
       id="flowRoot8410-1-7"
       xml:space="preserve"
       style="font-size:6px;font-style:normal;font-weight:normal;line-height:125%;letter-spacing:0px;word-spacing:0px;fill:#000000;fill-opacity:1;stroke:none;font-family:Sans"><flowRegion
         id="flowRegion8412-6-8"><rect
           width="56.755863"
           height="15.765518"
           x="-297.18002"
           y="496.62769"
           id="rect8414-9-1"
           style="font-size:6px" /></flowRegion><flowPara
         id="flowPara8416-9-0">1. Introduction</flowPara></flowRoot>    <flowRoot
       transform="matrix(2,0,0,2,1697.1715,-678.51662)"
       id="flowRoot8410-0-29-3"
       xml:space="preserve"
       style="font-size:6px;font-style:normal;font-variant:normal;font-weight:normal;font-stretch:normal;text-align:start;line-height:125%;letter-spacing:0px;word-spacing:0px;writing-mode:lr-tb;text-anchor:start;fill:#000000;fill-opacity:1;stroke:none;font-family:Sans;-inkscape-font-specification:Sans"><flowRegion
         id="flowRegion8412-9-2-9"><rect
           width="56.755863"
           height="15.765518"
           x="-297.18002"
           y="496.62769"
           id="rect8414-7-4-2"
           style="font-size:6px;font-style:normal;font-variant:normal;font-weight:normal;font-stretch:normal;text-align:start;line-height:125%;writing-mode:lr-tb;text-anchor:start;font-family:Sans;-inkscape-font-specification:Sans" /></flowRegion><flowPara
         id="flowPara8471-27-7"
         style="font-size:6px;font-style:normal;font-variant:normal;font-weight:normal;font-stretch:normal;text-align:start;line-height:125%;writing-mode:lr-tb;text-anchor:start;font-family:Sans;-inkscape-font-specification:Sans">2. Context</flowPara></flowRoot>    <flowRoot
       transform="matrix(2,0,0,2,1974.1485,-678.71546)"
       id="flowRoot8410-3-0-9"
       xml:space="preserve"
       style="font-size:6px;font-style:normal;font-variant:normal;font-weight:bold;font-stretch:normal;text-align:start;line-height:125%;letter-spacing:0px;word-spacing:0px;writing-mode:lr-tb;text-anchor:start;fill:#000000;fill-opacity:1;stroke:none;font-family:Sans;-inkscape-font-specification:Sans Bold"><flowRegion
         id="flowRegion8412-3-4-3"><rect
           width="56.755863"
           height="15.765518"
           x="-297.18002"
           y="496.62769"
           id="rect8414-4-8-8"
           style="font-size:6px;font-style:normal;font-variant:normal;font-weight:bold;font-stretch:normal;text-align:start;line-height:125%;writing-mode:lr-tb;text-anchor:start;fill:#000000;font-family:Sans;-inkscape-font-specification:Sans Bold" /></flowRegion><flowPara
         id="flowPara8416-8-4-7"
         style="font-size:6px;font-style:normal;font-variant:normal;font-weight:bold;font-stretch:normal;text-align:start;line-height:125%;writing-mode:lr-tb;text-anchor:start;fill:#000000;font-family:Sans;-inkscape-font-specification:Sans Bold">4. Check and go</flowPara></flowRoot>    <flowRoot
       transform="matrix(2,0,0,2,1797.9767,-678.56784)"
       id="flowRoot8410-37-87-4"
       xml:space="preserve"
       style="font-size:6px;font-style:normal;font-weight:normal;line-height:125%;letter-spacing:0px;word-spacing:0px;fill:#000000;fill-opacity:1;stroke:none;font-family:Sans"><flowRegion
         id="flowRegion8412-0-07-1"><rect
           width="68.920967"
           height="9.8497696"
           x="-297.18002"
           y="496.62769"
           id="rect8414-45-31-9"
           style="font-size:6px;fill:#000000" /></flowRegion><flowPara
         id="flowPara8416-5-3-39">3. Need to save data?</flowPara></flowRoot>    <text
       sodipodi:linespacing="125%"
       x="1002.1917"
       y="271.33545"
       id="text3840-4-10"
       xml:space="preserve"
       style="font-size:17.99827576px;font-style:normal;font-variant:normal;font-weight:normal;font-stretch:normal;text-align:start;line-height:125%;letter-spacing:0px;word-spacing:0px;writing-mode:lr-tb;text-anchor:start;fill:#666666;fill-opacity:1;stroke:none;font-family:Sans;-inkscape-font-specification:Sans"><tspan
         x="1002.1917"
         y="271.33545"
         id="tspan3842-3-5"
         style="fill:#666666">Welcome to Tails!</tspan></text>
    <path
       inkscape:connector-curvature="0"
       d="m 1190.7683,257.90902 -1.9375,2.28125 14.2812,12.3125 -13.6875,14.34375 2.1563,2.0625 14.7812,-15.46875 1.0938,-1.125 -1.1875,-1.03125 -15.5,-13.375 z"
       id="path22225"
       style="font-size:medium;font-style:normal;font-variant:normal;font-weight:normal;font-stretch:normal;text-indent:0;text-align:start;text-decoration:none;line-height:normal;letter-spacing:normal;word-spacing:normal;text-transform:none;direction:ltr;block-progression:tb;writing-mode:lr-tb;text-anchor:start;baseline-shift:baseline;color:#000000;fill:#000000;fill-opacity:1;stroke:none;stroke-width:3;marker:none;visibility:visible;display:inline;overflow:visible;enable-background:accumulate;font-family:Sans;-inkscape-font-specification:Sans" />
    <text
       sodipodi:linespacing="125%"
       x="1294.8687"
       y="274.06387"
       id="text3836-4"
       xml:space="preserve"
       style="font-size:18.62428665px;font-style:normal;font-variant:normal;font-weight:normal;font-stretch:normal;text-align:start;line-height:125%;letter-spacing:0px;word-spacing:0px;writing-mode:lr-tb;text-anchor:start;fill:#000000;fill-opacity:1;stroke:none;font-family:Sans;-inkscape-font-specification:Sans"><tspan
         x="1294.8687"
         y="274.06387"
         id="tspan3838-7">Discover</tspan></text>
    <text
       sodipodi:linespacing="125%"
       x="1296.3787"
       y="293.01462"
       id="text20391"
       xml:space="preserve"
       style="font-size:11.61388493px;font-style:normal;font-variant:normal;font-weight:normal;font-stretch:normal;text-align:start;line-height:125%;letter-spacing:0px;word-spacing:0px;writing-mode:lr-tb;text-anchor:start;fill:#000000;fill-opacity:1;stroke:none;font-family:Sans;-inkscape-font-specification:Sans"><tspan
         x="1296.3787"
         y="293.01462"
         id="tspan20393">Guided configuration</tspan></text>
    <path
       inkscape:connector-curvature="0"
       d="m 1281.4028,293.40586 c -0.5027,-0.31635 -4.8557,-4.53711 -9.6732,-9.37949 l -8.7592,-8.80433 0,-1.46551 c 0,-1.26043 0.145,-1.61047 1.0359,-2.50139 0.8909,-0.89094 1.2409,-1.03586 2.5016,-1.03586 l 1.4657,0 8.9454,8.9115 c 4.92,4.90135 9.1412,9.28173 9.3804,9.73423 0.7783,1.47182 0.5583,2.62941 -0.7478,3.93546 -1.3662,1.36621 -2.6436,1.55259 -4.1488,0.60539 z m -25.7444,-13.43724 c -0.821,-0.82099 -0.8559,-3.5886 -0.058,-4.57432 0.67,-0.82744 1.9776,-0.89206 2.8099,-0.1388 0.4656,0.42142 0.5992,0.93922 0.5992,2.32308 0,2.01287 -0.6514,2.99945 -1.9803,2.99945 -0.419,0 -1.0359,-0.2742 -1.371,-0.60934 z m -11.882,-0.2182 c -1.0598,-0.38037 -1.828,-1.42195 -1.828,-2.47863 0,-0.91966 0.3086,-1.37588 2.2309,-3.29822 1.9224,-1.92235 2.3786,-2.23095 3.2983,-2.23095 0.7209,0 1.2675,0.22249 1.6843,0.6855 1.3366,1.48495 1.1531,2.47517 -0.8643,4.66386 -2.0035,2.17353 -3.4699,3.03573 -4.5212,2.65844 z m 12.0788,-9.89366 c -4.7178,-1.00629 -5.6945,-7.5546 -1.48,-9.92326 2.2701,-1.2759 5.6024,-0.62555 7.0062,1.36739 2.9148,4.138 -0.6153,9.60335 -5.5262,8.55587 z m -14.2115,-3.90282 c -0.8088,-0.80879 -0.7708,-1.87475 0.096,-2.68888 1.05,-0.98635 3.6159,-0.93914 4.6404,0.0854 0.9124,0.91238 0.9345,1.37002 0.1163,2.4101 -0.5552,0.70592 -0.8492,0.80275 -2.4373,0.80275 -1.3997,0 -1.943,-0.13704 -2.4152,-0.60934 z m 26.0582,0.009 c -0.7532,-0.83224 -0.6886,-2.13984 0.1388,-2.80985 0.9857,-0.79816 3.7533,-0.76321 4.5743,0.0578 0.3352,0.33514 0.6094,0.95209 0.6094,1.37101 0,1.32896 -0.9866,1.98033 -2.9995,1.98033 -1.3839,0 -1.9016,-0.13353 -2.3231,-0.59924 z m -20.8788,-8.44758 c -0.2514,-0.09 -1.451,-1.13814 -2.6659,-2.3295 -1.932,-1.8946 -2.2088,-2.30358 -2.2088,-3.2631 0,-1.4279 1.0115,-2.42191 2.4646,-2.42191 0.9054,0 1.3618,0.31188 3.232,2.20884 1.1977,1.21485 2.216,2.48304 2.263,2.81817 0.1807,1.28997 -0.3433,2.31624 -1.4103,2.76208 -0.5752,0.2403 -1.0844,0.42608 -1.1317,0.41287 -0.047,-0.0141 -0.2916,-0.0977 -0.5429,-0.18745 z m 19.194,-0.007 c -1.0599,-0.38035 -1.828,-1.42193 -1.828,-2.47863 0,-1.58529 3.9439,-5.52915 5.5291,-5.52915 0.7209,0 1.2676,0.22248 1.6844,0.68548 1.3366,1.48495 1.1531,2.47519 -0.8643,4.66388 -2.0035,2.17353 -3.4699,3.03573 -4.5212,2.65842 z m -10.2202,-3.57629 c -1.0558,-1.05578 -1.08,-3.70858 -0.043,-4.68307 0.8796,-0.82633 1.8534,-0.84589 2.6462,-0.0531 0.4723,0.47227 0.6093,1.01555 0.6093,2.41521 0,1.58805 -0.097,1.88207 -0.8027,2.43734 -1.0401,0.81812 -1.4977,0.79602 -2.4101,-0.11631 z"
       id="path21150"
       style="fill:#101010" />
    <rect
       width="89.62442"
       height="39.190517"
       x="1406.3289"
       y="611.27307"
       id="rect3779-5-4-1"
       style="fill:none;stroke:#000000;stroke-width:1;stroke-linejoin:round;stroke-miterlimit:4;stroke-opacity:1;stroke-dasharray:none" />
    <text
       sodipodi:linespacing="125%"
       x="1468.1982"
       y="634.03229"
       id="text3844-1"
       xml:space="preserve"
       style="font-size:10.60015774px;font-style:normal;font-variant:normal;font-weight:bold;font-stretch:normal;text-align:center;line-height:125%;letter-spacing:0px;word-spacing:0px;writing-mode:lr-tb;text-anchor:middle;fill:#000000;fill-opacity:1;stroke:none;font-family:Sans;-inkscape-font-specification:Sans Bold"><tspan
         x="1468.1982"
         y="634.03229"
         id="tspan3846-4"
         style="font-size:10.60015774px;font-style:normal;font-variant:normal;font-weight:bold;font-stretch:normal;text-align:center;line-height:125%;writing-mode:lr-tb;text-anchor:middle;font-family:Sans;-inkscape-font-specification:Sans Bold">Start</tspan></text>
    <path
       inkscape:connector-curvature="0"
       d="m 1414.831,644.7476 c -1.4245,-0.62014 -1.3388,-1.08005 1.1284,-6.0578 l 2.0874,-4.21136 -0.02,-7.18882 c -0.018,-6.46676 0.018,-7.26514 0.3648,-7.9487 0.2119,-0.41793 0.6305,-0.8824 0.9302,-1.03216 0.7862,-0.39283 21.0113,-0.39283 21.7975,0 0.2997,0.14976 0.7182,0.61423 0.9299,1.03216 0.3463,0.68341 0.3831,1.48628 0.3656,7.97801 l -0.019,7.21813 2.0866,4.16885 c 1.1477,2.29286 2.0866,4.37245 2.0866,4.6213 0,0.72885 -0.3778,1.23281 -1.1178,1.49075 -1.0988,0.38304 -29.7289,0.31726 -30.6193,-0.0704 z m 4.8173,-3.06734 c 0,-0.36728 -0.1678,-0.44661 -1.0657,-0.50363 -1.1461,-0.0728 -1.5793,0.15556 -1.3634,0.71842 0.106,0.27622 0.3852,0.33873 1.2823,0.28712 0.9795,-0.0563 1.1468,-0.12957 1.1468,-0.50191 z m 3.9236,0 c 0,-0.36728 -0.1679,-0.44661 -1.0658,-0.50363 -1.146,-0.0728 -1.5793,0.15556 -1.3633,0.71842 0.106,0.27622 0.3852,0.33873 1.2823,0.28712 0.9795,-0.0563 1.1468,-0.12957 1.1468,-0.50191 z m 11.7706,0 c 0,-0.42157 -0.1649,-0.43789 -4.9983,-0.49464 -2.9583,-0.0347 -5.083,0.026 -5.2059,0.14883 -0.1141,0.11413 -0.1478,0.36305 -0.075,0.55316 0.1168,0.30421 0.7408,0.33863 5.2059,0.28712 4.9084,-0.0566 5.0732,-0.0727 5.0732,-0.49447 z m 3.9235,0 c 0,-0.36728 -0.1678,-0.44661 -1.0658,-0.50363 -1.146,-0.0728 -1.5793,0.15556 -1.3633,0.71842 0.106,0.27622 0.3852,0.33873 1.2823,0.28712 0.9795,-0.0563 1.1468,-0.12957 1.1468,-0.50191 z m 3.9236,0 c 0,-0.36728 -0.1679,-0.44661 -1.0658,-0.50363 -1.146,-0.0728 -1.5793,0.15556 -1.3633,0.71842 0.106,0.27622 0.3852,0.33873 1.2823,0.28712 0.9795,-0.0563 1.1468,-0.12957 1.1468,-0.50191 z m -22.3828,-2.77918 c 0.06,-0.31764 -0.092,-0.38145 -0.9116,-0.38145 -0.5412,0 -1.0447,0.0981 -1.1187,0.21797 -0.2645,0.42796 0.1631,0.676 1.0535,0.61099 0.6557,-0.0479 0.9244,-0.17095 0.9768,-0.44751 z m 3.4876,0 c 0.061,-0.32267 -0.098,-0.38145 -1.0335,-0.38145 -0.7762,0 -1.1058,0.0866 -1.1058,0.29063 0,0.48331 0.2691,0.60487 1.189,0.53703 0.631,-0.0465 0.8983,-0.17203 0.9503,-0.44621 z m 3.4876,0 c 0.061,-0.32267 -0.098,-0.38145 -1.0335,-0.38145 -0.7762,0 -1.1059,0.0866 -1.1059,0.29063 0,0.48331 0.2692,0.60487 1.1891,0.53703 0.631,-0.0465 0.8983,-0.17203 0.9503,-0.44621 z m 3.4876,0 c 0.061,-0.32267 -0.098,-0.38145 -1.0335,-0.38145 -0.7762,0 -1.1059,0.0866 -1.1059,0.29063 0,0.48331 0.2692,0.60487 1.1891,0.53703 0.631,-0.0465 0.8983,-0.17203 0.9503,-0.44621 z m 3.4876,0 c 0.061,-0.32267 -0.098,-0.38145 -1.0335,-0.38145 -0.7763,0 -1.1059,0.0866 -1.1059,0.29063 0,0.48331 0.2692,0.60487 1.1891,0.53703 0.631,-0.0465 0.8983,-0.17203 0.9503,-0.44621 z m 3.4876,0 c 0.061,-0.32267 -0.098,-0.38145 -1.0335,-0.38145 -0.7763,0 -1.1059,0.0866 -1.1059,0.29063 0,0.48331 0.2692,0.60487 1.1891,0.53703 0.631,-0.0465 0.8983,-0.17203 0.9503,-0.44621 z m 3.419,0.0545 c 0,-0.23542 -0.2899,-0.34557 -1.0354,-0.3934 -0.7699,-0.0494 -1.0354,0.0112 -1.0354,0.23614 0,0.49587 0.2633,0.61724 1.1909,0.54897 0.608,-0.0447 0.8799,-0.16578 0.8799,-0.39171 z m -20.1892,-2.37669 c 0.5006,-0.3171 0.053,-0.67495 -0.8454,-0.67495 -0.8978,0 -1.3459,0.35785 -0.8453,0.67495 0.1652,0.10465 0.5456,0.19027 0.8453,0.19027 0.2997,0 0.6801,-0.0856 0.8454,-0.19027 z m 3.2558,-0.2935 c 0.059,-0.31195 -0.087,-0.38145 -0.8027,-0.38145 -0.8872,0 -1.2606,0.24804 -1.0024,0.66587 0.2386,0.38591 1.7224,0.1521 1.8051,-0.28442 z m 3.201,0.0545 c 0,-0.22883 -0.2781,-0.34708 -0.9264,-0.39399 -0.678,-0.0491 -0.9264,0.0143 -0.9264,0.23614 0,0.48656 0.2604,0.61883 1.0821,0.54967 0.5109,-0.043 0.7707,-0.17507 0.7707,-0.39182 z m 3.134,0.239 c 0.5007,-0.3171 0.053,-0.67495 -0.8453,-0.67495 -0.8978,0 -1.346,0.35785 -0.8453,0.67495 0.1652,0.10465 0.5456,0.19027 0.8453,0.19027 0.2997,0 0.6801,-0.0856 0.8453,-0.19027 z m 3.2559,-0.2935 c 0.059,-0.31195 -0.087,-0.38145 -0.8027,-0.38145 -0.8872,0 -1.2606,0.24804 -1.0024,0.66587 0.2385,0.38591 1.7224,0.1521 1.8051,-0.28442 z m 3.2009,0.0545 c 0,-0.22883 -0.278,-0.34708 -0.9264,-0.39399 -0.6779,-0.0491 -0.9263,0.0143 -0.9263,0.23614 0,0.48656 0.2603,0.61883 1.082,0.54967 0.511,-0.043 0.7707,-0.17507 0.7707,-0.39182 z m 3.1341,0.239 c 0.5006,-0.3171 0.053,-0.67495 -0.8453,-0.67495 -0.8978,0 -1.346,0.35785 -0.8454,0.67495 0.1653,0.10465 0.5457,0.19027 0.8454,0.19027 0.2997,0 0.6801,-0.0856 0.8453,-0.19027 z m -0.7597,-4.50733 c 0.073,-0.18963 0.1323,-2.76936 0.1323,-5.73273 0,-3.89998 -0.072,-5.46017 -0.2615,-5.6495 -0.3762,-0.37614 -18.7184,-0.37614 -19.0946,0 -0.1893,0.18933 -0.2615,1.74952 -0.2615,5.6495 0,2.96337 0.06,5.5431 0.1323,5.73273 0.1178,0.30714 1.1745,0.34479 9.6765,0.34479 8.502,0 9.5587,-0.0376 9.6765,-0.34479 z"
       id="path21190"
       style="fill:#181818" />
    <rect
       width="121.39091"
       height="39.190517"
       x="955.70941"
       y="612.83344"
       id="rect3779-4-3"
       style="fill:none;stroke:#000000;stroke-width:0.39333582;stroke-linejoin:round;stroke-miterlimit:4;stroke-opacity:1;stroke-dasharray:2.360015, 2.360015;stroke-dashoffset:0" />
    <rect
       width="120.83021"
       height="39.190517"
       x="1093.941"
       y="612.83344"
       id="rect3779-8-4-3"
       style="fill:none;stroke:#000000;stroke-width:0.39265221;stroke-linejoin:round;stroke-miterlimit:4;stroke-opacity:1;stroke-dasharray:2.35591326, 2.35591326;stroke-dashoffset:0" />
    <text
       sodipodi:linespacing="125%"
       x="992.89117"
       y="632.64014"
       id="text3836-4-8"
       xml:space="preserve"
       style="font-size:10.60015774px;font-style:normal;font-variant:normal;font-weight:normal;font-stretch:normal;text-align:start;line-height:125%;letter-spacing:0px;word-spacing:0px;writing-mode:lr-tb;text-anchor:start;fill:#cccccc;fill-opacity:1;stroke:none;font-family:Sans;-inkscape-font-specification:Sans"><tspan
         x="992.89117"
         y="632.64014"
         id="tspan3838-7-2"
         style="fill:#cccccc">Discover</tspan></text>
    <text
       sodipodi:linespacing="125%"
       x="1128.4421"
       y="633.46729"
       id="text3840-4"
       xml:space="preserve"
       style="font-size:10.60015774px;font-style:normal;font-variant:normal;font-weight:normal;font-stretch:normal;text-align:start;line-height:125%;letter-spacing:0px;word-spacing:0px;writing-mode:lr-tb;text-anchor:start;fill:#808080;fill-opacity:1;stroke:none;font-family:Sans;-inkscape-font-specification:Sans"><tspan
         x="1128.4421"
         y="633.46729"
         id="tspan3842-3"
         style="fill:#808080">Quick setup</tspan></text>
    <text
       sodipodi:linespacing="125%"
       x="993.75061"
       y="643.42609"
       id="text20391-3"
       xml:space="preserve"
       style="font-size:6.61013317px;font-style:normal;font-variant:normal;font-weight:normal;font-stretch:normal;text-align:start;line-height:125%;letter-spacing:0px;word-spacing:0px;writing-mode:lr-tb;text-anchor:start;fill:#cccccc;fill-opacity:1;stroke:none;font-family:Sans;-inkscape-font-specification:Sans"><tspan
         x="993.75061"
         y="643.42609"
         id="tspan20393-5"
         style="fill:#cccccc">Guided configuration</tspan></text>
    <text
       sodipodi:linespacing="125%"
       x="1126.8199"
       y="642.92108"
       id="text20391-4"
       xml:space="preserve"
       style="font-size:6.61013317px;font-style:normal;font-variant:normal;font-weight:normal;font-stretch:normal;text-align:start;line-height:125%;letter-spacing:0px;word-spacing:0px;writing-mode:lr-tb;text-anchor:start;fill:#808080;fill-opacity:1;stroke:none;font-family:Sans;-inkscape-font-specification:Sans"><tspan
         x="1126.8199"
         y="642.92108"
         id="tspan20393-7"
         style="fill:#808080">Advanced configuration</tspan></text>
    <path
       inkscape:connector-curvature="0"
       d="m 1102.128,644.51234 c 0.4984,-2.02832 2.6506,-5.14529 4.4896,-6.50209 2.0143,-1.4861 2.1484,-1.20216 0.7645,1.61866 -1.0084,2.05562 -2.5594,3.92474 -4.0393,4.86803 -1.0643,0.67832 -1.3787,0.6823 -1.2148,0.0154 z m 3.8926,-0.0183 c -0.223,-0.36082 1.2204,-2.86436 2.2989,-3.98759 1.0404,-1.08343 2.0687,-1.75492 2.3132,-1.51047 0.2001,0.20012 -1.2016,2.81694 -1.9867,3.70882 -0.7631,0.86694 -2.0843,1.94567 -2.383,1.94567 -0.08,0 -0.1892,-0.0704 -0.2424,-0.15644 z m 6.8871,-1.82357 c -0.014,-5.59703 -4.1744,-9.07113 -10.8622,-9.07113 -1.4178,0 -1.8787,-0.0607 -1.9541,-0.25708 -0.1681,-0.43817 1.0222,-2.52367 2.0636,-3.61544 1.5511,-1.62617 3.3821,-2.3764 5.8216,-2.38528 l 1.2364,-0.005 0.7423,-1.09312 c 1.9108,-2.81371 4.3959,-5.072 6.893,-6.26376 1.0957,-0.52292 4.1477,-1.46543 4.9951,-1.54258 0.3534,-0.0322 0.366,0.06 0.3082,2.26879 -0.033,1.26627 -0.1696,2.84243 -0.3034,3.50256 -0.5266,2.598 -2.0386,5.62125 -4.0569,8.11158 l -0.8294,1.02348 0.2048,1.09465 c 0.2907,1.55396 0.1111,4.18018 -0.3727,5.4501 -0.4313,1.13201 -1.5214,2.48991 -2.6623,3.31635 -1.0682,0.7738 -1.2208,0.70714 -1.224,-0.53461 z m 2.9643,-12.88489 c 1.2542,-0.74087 1.3752,-2.3671 0.2496,-3.3554 -1.1113,-0.97572 -2.6877,-0.64063 -3.3273,0.70726 -0.8333,1.75604 1.3735,3.65484 3.0777,2.64814 z m -14.4647,10.76676 c 0.2483,-0.82051 1.2075,-2.45763 1.9439,-3.31779 0.8979,-1.04876 2.3399,-2.08732 2.5736,-1.85363 0.222,0.22205 -0.7779,2.30388 -1.683,3.50388 -1.1657,1.54563 -3.151,2.71355 -2.8345,1.66754 z"
       id="path21112"
       style="fill:#808080" />
    <path
       inkscape:connector-curvature="0"
       d="m 985.22695,643.64878 c -0.28612,-0.18005 -2.76362,-2.58233 -5.50557,-5.33841 l -4.98535,-5.01105 0,-0.83411 c 0,-0.71738 0.0825,-0.91661 0.58958,-1.42368 0.50709,-0.50709 0.70627,-0.58957 1.42379,-0.58957 l 0.83423,0 5.09136,5.07205 c 2.80026,2.78964 5.20278,5.28277 5.33894,5.54031 0.44293,0.8377 0.31772,1.49655 -0.42563,2.2399 -0.77759,0.77759 -1.50463,0.88367 -2.36135,0.34456 z m -14.65261,-7.64791 c -0.46728,-0.46727 -0.48716,-2.04248 -0.0328,-2.60351 0.38133,-0.47094 1.12556,-0.50772 1.59926,-0.079 0.26504,0.23986 0.34106,0.53457 0.34106,1.3222 0,1.14564 -0.37073,1.70716 -1.12713,1.70716 -0.23843,0 -0.58958,-0.15606 -0.78032,-0.34681 z m -6.76274,-0.12419 c -0.60321,-0.21649 -1.04042,-0.80931 -1.04042,-1.41073 0,-0.52343 0.17564,-0.78309 1.26976,-1.87721 1.09412,-1.09412 1.35379,-1.26976 1.87722,-1.26976 0.41029,0 0.72143,0.12663 0.95864,0.39016 0.76076,0.84517 0.65631,1.40876 -0.49194,2.65447 -1.1403,1.23708 -1.97489,1.72781 -2.57326,1.51307 z m 6.87475,-5.63105 c -2.68517,-0.57274 -3.24105,-4.29976 -0.84237,-5.6479 1.29208,-0.72619 3.1887,-0.35604 3.98768,0.77826 1.65897,2.35517 -0.3502,5.46582 -3.14531,4.86964 z m -8.08857,-2.22132 c -0.46033,-0.46033 -0.43872,-1.06703 0.0546,-1.5304 0.59757,-0.56139 2.058,-0.53452 2.64112,0.0486 0.51928,0.51929 0.53187,0.77976 0.0662,1.37173 -0.31604,0.40178 -0.48337,0.45689 -1.38723,0.45689 -0.79663,0 -1.10585,-0.078 -1.37464,-0.34681 z m 14.83121,0.005 c -0.42868,-0.47368 -0.3919,-1.21791 0.079,-1.59925 0.56104,-0.45428 2.13624,-0.43439 2.60352,0.0329 0.19074,0.19075 0.34681,0.54189 0.34681,0.78032 0,0.75639 -0.56152,1.12712 -1.70717,1.12712 -0.78763,0 -1.08233,-0.076 -1.32219,-0.34106 z m -11.88335,-4.80801 c -0.14306,-0.0512 -0.82584,-0.64778 -1.51728,-1.32585 -1.09961,-1.07833 -1.25718,-1.3111 -1.25718,-1.85722 0,-0.8127 0.57573,-1.37845 1.40274,-1.37845 0.51535,0 0.77508,0.17751 1.83951,1.25718 0.68169,0.69144 1.2613,1.41324 1.28803,1.60398 0.10285,0.7342 -0.1954,1.31831 -0.80271,1.57206 -0.32734,0.13677 -0.61718,0.24251 -0.64408,0.23499 -0.0269,-0.008 -0.16598,-0.0556 -0.30903,-0.10669 z m 10.92443,-0.004 c -0.60322,-0.21648 -1.04042,-0.8093 -1.04042,-1.41073 0,-0.90228 2.24469,-3.14696 3.14697,-3.14696 0.41029,0 0.72145,0.12663 0.95865,0.39015 0.76076,0.84517 0.65631,1.40877 -0.49194,2.65448 -1.1403,1.23708 -1.97489,1.72781 -2.57326,1.51306 z m -5.81691,-2.03547 c -0.60091,-0.60091 -0.61467,-2.11077 -0.0243,-2.66541 0.50062,-0.47031 1.05489,-0.48144 1.50612,-0.0302 0.26879,0.2688 0.3468,0.57801 0.3468,1.37464 0,0.90385 -0.0551,1.07119 -0.45689,1.38723 -0.59197,0.46564 -0.85245,0.45306 -1.37174,-0.0662 z"
       id="path21150-9"
       style="fill:#e6e6e6" />
    <path
       inkscape:connector-curvature="0"
       d="m 1357.0021,314.99741 -0.9641,1.13521 7.1067,6.12701 -6.8113,7.13782 1.073,1.02636 7.3556,-7.69765 0.5442,-0.55983 -0.5909,-0.51318 -7.7132,-6.65574 z"
       id="path22225-3"
       style="font-size:medium;font-style:normal;font-variant:normal;font-weight:normal;font-stretch:normal;text-indent:0;text-align:start;text-decoration:none;line-height:normal;letter-spacing:normal;word-spacing:normal;text-transform:none;direction:ltr;block-progression:tb;writing-mode:lr-tb;text-anchor:start;baseline-shift:baseline;color:#000000;fill:#000000;fill-opacity:1;stroke:none;stroke-width:3;marker:none;visibility:visible;display:inline;overflow:visible;enable-background:accumulate;font-family:Sans;-inkscape-font-specification:Sans" />
    <path
       inkscape:connector-curvature="0"
       d="m 1186.058,314.99741 -0.9642,1.13521 7.1067,6.12701 -6.8112,7.13782 1.073,1.02636 7.3555,-7.69765 0.5443,-0.55983 -0.5909,-0.51318 -7.7132,-6.65574 z"
       id="path22225-5"
       style="font-size:medium;font-style:normal;font-variant:normal;font-weight:normal;font-stretch:normal;text-indent:0;text-align:start;text-decoration:none;line-height:normal;letter-spacing:normal;word-spacing:normal;text-transform:none;direction:ltr;block-progression:tb;writing-mode:lr-tb;text-anchor:start;baseline-shift:baseline;color:#000000;fill:#000000;fill-opacity:1;stroke:none;stroke-width:3;marker:none;visibility:visible;display:inline;overflow:visible;enable-background:accumulate;font-family:Sans;-inkscape-font-specification:Sans" />
    <path
       inkscape:connector-curvature="0"
       d="m 1080.4697,314.08541 -0.9642,1.13521 7.1068,6.12701 -6.8113,7.13782 1.073,1.02635 7.3555,-7.69764 0.5443,-0.55983 -0.5909,-0.51318 -7.7132,-6.65574 z"
       id="path22225-7"
       style="font-size:medium;font-style:normal;font-variant:normal;font-weight:normal;font-stretch:normal;text-indent:0;text-align:start;text-decoration:none;line-height:normal;letter-spacing:normal;word-spacing:normal;text-transform:none;direction:ltr;block-progression:tb;writing-mode:lr-tb;text-anchor:start;baseline-shift:baseline;color:#000000;fill:#000000;fill-opacity:1;stroke:none;stroke-width:3;marker:none;visibility:visible;display:inline;overflow:visible;enable-background:accumulate;font-family:Sans;-inkscape-font-specification:Sans" />
    <text
       sodipodi:linespacing="125%"
       x="1002.2453"
       y="288.85663"
       id="text20391-4-7"
       xml:space="preserve"
       style="font-size:11.22351265px;font-style:normal;font-variant:normal;font-weight:normal;font-stretch:normal;text-align:start;line-height:125%;letter-spacing:0px;word-spacing:0px;writing-mode:lr-tb;text-anchor:start;fill:#666666;fill-opacity:1;stroke:none;font-family:Sans;-inkscape-font-specification:Sans"><tspan
         x="1002.2453"
         y="288.85663"
         id="tspan20393-7-7"
         style="fill:#666666">Privacy for anyone anywhere</tspan></text>
    <g
       transform="matrix(0.40502837,0,0,0.40502837,955.77682,247.45719)"
       id="g5374"
       style="fill:#666666;fill-opacity:1">
      <path
         inkscape:connector-curvature="0"
         d="m 88.342066,56.730068 0,16.662869 c 0,0.510289 -0.341075,0.643984 -0.760689,0.296591 L 79.077314,66.649116 C 78.658103,66.302056 78.317029,65.609 78.317029,65.098711 l 0,-2.097683 -2.657657,-2.16078 c -2.850156,-2.317289 -5.132376,-7.0217 -5.132376,-10.464763 0,-3.442323 2.29778,-4.339449 5.132376,-2.002743 l 2.657657,2.160782 0,-2.097681 c 0,-0.510046 0.341074,-0.643737 0.760285,-0.296677 l 8.503862,7.040243 c 0.420546,0.346435 0.76089,1.040613 0.76089,1.550659 z M 75.81131,51.432227 c -1.50022,-1.236708 -2.716309,-0.761675 -2.716309,1.060197 0,1.822367 1.216089,4.301887 2.716309,5.538595 l 2.505719,2.035532 0,-6.599035 -2.505719,-2.035532 z"
         id="path5189-4"
         style="fill:#666666;fill-opacity:1" />
      <g
         transform="matrix(0.46410314,0.9267926,-0.9267926,0.46410314,77.258376,-14.89278)"
         id="g3500"
         style="fill:#666666;fill-opacity:1">
        <path
           inkscape:connector-curvature="0"
           d="M 97.976,37.8 C 97.972,37.779 97.968,37.758 97.963,37.737 97.947,37.669 97.927,37.602 97.901,37.538 97.898,37.53 97.896,37.522 97.893,37.515 97.863,37.446 97.826,37.38 97.786,37.317 97.775,37.299 97.762,37.283 97.75,37.266 97.715,37.216 97.676,37.169 97.634,37.125 97.623,37.113 97.613,37.101 97.601,37.089 97.548,37.037 97.49,36.989 97.428,36.946 97.413,36.935 97.396,36.927 97.38,36.917 97.349,36.898 97.32,36.877 97.288,36.86 L 96.743,36.576 71.837016,47.695585 25.252,24.269 l -0.666,0.33 c -0.006,0.003 -0.01,0.007 -0.016,0.01 -0.047,0.024 -0.09,0.055 -0.134,0.084 -0.029,0.019 -0.06,0.036 -0.087,0.057 -0.034,0.027 -0.063,0.059 -0.094,0.09 -0.031,0.03 -0.065,0.059 -0.093,0.092 -0.022,0.026 -0.039,0.056 -0.06,0.084 -0.031,0.043 -0.063,0.086 -0.088,0.132 -0.003,0.005 -0.007,0.01 -0.01,0.015 -0.015,0.028 -0.022,0.057 -0.035,0.085 -0.02,0.046 -0.041,0.09 -0.056,0.138 -0.013,0.041 -0.02,0.082 -0.029,0.123 -0.009,0.043 -0.019,0.085 -0.024,0.128 -0.005,0.043 -0.004,0.085 -0.005,0.127 -0.001,0.044 -0.003,0.087 0.001,0.13 0.002,0.023 0.005,0.046 0.009,0.069 -0.006,0.051 -0.015,0.1 -0.015,0.152 L 23.854,41.674 27.21708,40.107419 63.622,58.211 38.537615,69.347048 l -18.939,-9.469 L 2.6090632,51.38471 c -0.012,-0.006 -0.025,-0.009 -0.038,-0.014 -0.042,-0.02 -0.086,-0.035 -0.131,-0.05 -0.04,-0.014 -0.08,-0.028 -0.121,-0.038 -0.038,-0.009 -0.078,-0.014 -0.117,-0.019 -0.049,-0.007 -0.098,-0.014 -0.148,-0.015 -0.013,0 -0.024,-0.004 -0.037,-0.004 -0.025,0 -0.049,0.006 -0.074,0.007 -0.05,0.004 -0.099,0.007 -0.148,0.016 -0.04,0.007 -0.079,0.017 -0.118,0.027 -0.043,0.011 -0.085,0.024 -0.127,0.039 -0.039,0.015 -0.077,0.032 -0.114,0.051 -0.039,0.019 -0.077,0.039 -0.115,0.062 -0.035,0.022 -0.068,0.045 -0.1,0.07 -0.035,0.027 -0.07,0.054 -0.103,0.085 -0.031,0.029 -0.059,0.059 -0.087,0.09 -0.028,0.032 -0.056,0.064 -0.082,0.099 -0.028,0.038 -0.052,0.079 -0.076,0.12 -0.013,0.023 -0.03,0.042 -0.042,0.066 -0.006,0.012 -0.008,0.025 -0.014,0.037 -0.02,0.043 -0.036,0.089 -0.051,0.135 -0.013,0.039 -0.027,0.078 -0.036,0.117 -0.009,0.04 -0.014,0.081 -0.02,0.122 -0.007,0.048 -0.013,0.095 -0.014,0.142 0.001,0.014 -0.003,0.026 -0.003,0.039 l 0,19.531 c 0,0.026 0.006,0.051 0.008,0.077 0.003,0.048 0.006,0.096 0.014,0.143 0.007,0.042 0.017,0.082 0.028,0.122 0.011,0.042 0.023,0.083 0.038,0.123 0.015,0.04 0.033,0.079 0.052,0.117 0.019,0.038 0.038,0.076 0.061,0.112 0.022,0.035 0.046,0.069 0.071,0.102 0.027,0.035 0.054,0.069 0.084,0.102 0.028,0.031 0.059,0.059 0.09,0.087 0.032,0.029 0.064,0.056 0.1,0.082 0.038,0.027 0.077,0.051 0.118,0.075 0.023,0.014 0.043,0.031 0.068,0.043 L 37.945615,91.543048 c 0.007,0.004 0.015,0.004 0.022,0.008 0.017,0.008 0.032,0.017 0.049,0.025 0.01,0.004 0.02,0.007 0.03,0.011 0.056,0.022 0.113,0.041 0.171,0.055 0.012,0.003 0.024,0.006 0.036,0.009 0.016,0.003 0.032,0.005 0.048,0.008 0.077,0.014 0.154,0.024 0.232,0.024 0.001,0 0.002,0 0.003,0 l 0.001,0 10e-4,0 c 10e-4,0 0.002,0 0.003,0 0.078,0 0.156,-0.01 0.232,-0.024 0.016,-0.003 0.032,-0.005 0.048,-0.008 0.012,-0.003 0.024,-0.006 0.036,-0.009 0.058,-0.014 0.115,-0.033 0.17,-0.055 0.01,-0.004 0.021,-0.007 0.031,-0.011 0.017,-0.007 0.032,-0.017 0.049,-0.024 0.007,-0.003 0.015,-0.004 0.022,-0.008 L 61.746,81.642 l 9.462,5.221 c 0.018,0.01 0.037,0.017 0.056,0.026 0.019,0.01 0.038,0.02 0.058,0.029 0.008,0.003 0.016,0.007 0.024,0.01 0.031,0.013 0.063,0.023 0.095,0.033 0.019,0.006 0.038,0.013 0.058,0.019 0.021,0.006 0.043,0.011 0.064,0.015 0.015,0.003 0.029,0.006 0.044,0.008 0.007,0.001 0.015,0.003 0.022,0.004 0.014,0.002 0.028,0.006 0.042,0.008 0.059,0.008 0.117,0.013 0.176,0.013 l 0.001,0 0.001,0 c 10e-4,0 0.002,0 0.003,0 0.078,0 0.155,-0.01 0.232,-0.024 0.013,-0.002 0.026,-0.003 0.039,-0.006 0.01,-0.002 0.019,-0.006 0.029,-0.008 0.07,-0.017 0.14,-0.037 0.207,-0.065 0.007,-0.003 0.014,-0.007 0.021,-0.01 0.004,-0.002 0.008,-0.004 0.012,-0.006 0.006,-0.003 0.012,-0.003 0.018,-0.006 L 97.238,75.317 C 97.703,75.098 98,74.631 98,74.117 L 98,38.034 C 98,38.028 97.998,38.023 97.998,38.017 97.997,37.943 97.989,37.871 97.976,37.8 z m -60.762385,40.617048 -7.614,3.666 3.972,1.986 3.641,-1.986 0,6.29 -33.8715518,-16.935338 0,-9.829 8.6775518,4.241338 -7.2569997,3.35 3.972,1.986 7.2689997,-3.378 4.313,2.051 -7.487,3.456 3.972,1.986 7.503,-3.482 4.621,2.344 -7.381,3.407 3.972,1.986 7.395,-3.434 4.303,2.111 z M 65.228,76.939 39.861615,88.216048 l 0,-16.57 L 65.228,60.37 z M 3.3410632,58.52771 l 0,-3.31 33.8725518,16.603338 0,3.31 z"
           id="path3502"
           style="fill:#666666;fill-opacity:1" />
      </g>
      <polygon
         points="39.407,53.262 45.366,56.241 39.076,59.22 33.117,56.241 "
         transform="matrix(0.44775907,0.89415425,-0.89415425,0.44775907,70.46318,-16.30443)"
         id="polygon3506"
         style="fill:#666666;fill-opacity:1" />
      <polygon
         points="22.855,50.613 29.145,47.634 35.103,50.613 28.814,53.593 "
         transform="matrix(0.44775907,0.89415425,-0.89415425,0.44775907,70.02568,-16.55443)"
         id="polygon3508"
         style="fill:#666666;fill-opacity:1" />
      <g
         transform="matrix(0,-0.2492475,0.19547686,0.16114179,71.005984,62.192969)"
         id="Captions"
         style="fill:#666666;fill-opacity:1" />
      <g
         transform="translate(122.10986,-55.111168)"
         id="Captions-7"
         style="fill:#666666;fill-opacity:1" />
      <path
         inkscape:connector-curvature="0"
         d="m 45.058193,34.347585 c 2.124399,2.704098 4.295157,7.985437 4.295157,12.865587 0,4.87818 -2.170758,6.542025 -4.295157,5.703941 0,-1.998055 0,-16.795084 0,-18.569528 z"
         id="path4818-2-4-3"
         style="fill:#666666;fill-opacity:1" />
      <g
         transform="translate(74.936297,109.72221)"
         id="Your_Icon"
         style="fill:#666666;fill-opacity:1" />
    </g>
    <flowRoot
       transform="matrix(2,0,0,2,1730.6937,-584.62856)"
       xml:space="preserve"
       id="flowRoot8410-37-87-2"
       style="font-size:6px;font-style:normal;font-weight:normal;line-height:125%;letter-spacing:0px;word-spacing:0px;fill:#000000;fill-opacity:1;stroke:none;font-family:Sans"><flowRegion
         id="flowRegion8412-0-07-3"><rect
           id="rect8414-45-31-2"
           width="63.850346"
           height="15.765518"
           x="-297.18002"
           y="496.62769"
           style="font-size:6px" /></flowRegion><flowPara
         id="flowPara8416-5-3-3">MAC Spoofing</flowPara></flowRoot>    <flowRoot
       transform="matrix(2,0,0,2,1730.6937,-553.80212)"
       xml:space="preserve"
       id="flowRoot8410-37-87-0"
       style="font-size:6px;font-style:normal;font-weight:normal;line-height:125%;letter-spacing:0px;word-spacing:0px;fill:#000000;fill-opacity:1;stroke:none;font-family:Sans"><flowRegion
         id="flowRegion8412-0-07-6"><rect
           id="rect8414-45-31-4"
           width="80.014809"
           height="14.093332"
           x="-297.18002"
           y="496.62769"
           style="font-size:6px" /></flowRegion><flowPara
         id="flowPara8416-5-3-5">Windows Camouflage</flowPara></flowRoot>    <flowRoot
       transform="matrix(2,0,0,2,1730.6937,-522.97568)"
       xml:space="preserve"
       id="flowRoot8410-37-87-1"
       style="font-size:6px;font-style:normal;font-weight:normal;line-height:125%;letter-spacing:0px;word-spacing:0px;fill:#000000;fill-opacity:1;stroke:none;font-family:Sans"><flowRegion
         id="flowRegion8412-0-07-8"><rect
           id="rect8414-45-31-7"
           width="86.703552"
           height="14.093332"
           x="-297.18002"
           y="496.62769"
           style="font-size:6px" /></flowRegion><flowPara
         id="flowPara8416-5-3-6">Network configuration</flowPara></flowRoot>    <flowRoot
       transform="matrix(2,0,0,2,1728.8629,-492.14924)"
       xml:space="preserve"
       id="flowRoot8410-37-87-1-5"
       style="font-size:6px;font-style:normal;font-weight:normal;line-height:125%;letter-spacing:0px;word-spacing:0px;fill:#000000;fill-opacity:1;stroke:none;font-family:Sans"><flowRegion
         id="flowRegion8412-0-07-8-5"><rect
           id="rect8414-45-31-7-8"
           width="86.703552"
           height="14.093332"
           x="-297.18002"
           y="496.62769"
           style="font-size:6px" /></flowRegion><flowPara
         id="flowPara8416-5-3-6-5">Encrypted persistence</flowPara></flowRoot>    <flowRoot
       transform="matrix(2,0,0,2,1915.9484,-585.2101)"
       xml:space="preserve"
       id="flowRoot8410-37-87-2-7"
       style="font-size:6px;font-style:normal;font-weight:normal;line-height:125%;letter-spacing:0px;word-spacing:0px;fill:#000000;fill-opacity:1;stroke:none;font-family:Sans"><flowRegion
         id="flowRegion8412-0-07-3-5"><rect
           id="rect8414-45-31-2-6"
           width="63.850346"
           height="15.765518"
           x="-297.18002"
           y="496.62769"
           style="font-size:6px" /></flowRegion><flowPara
         id="flowPara8416-5-3-3-7">ON</flowPara></flowRoot>    <flowRoot
       transform="matrix(2,0,0,2,1915.9484,-554.38366)"
       xml:space="preserve"
       id="flowRoot8410-37-87-0-0"
       style="font-size:6px;font-style:normal;font-weight:normal;line-height:125%;letter-spacing:0px;word-spacing:0px;fill:#000000;fill-opacity:1;stroke:none;font-family:Sans"><flowRegion
         id="flowRegion8412-0-07-6-8"><rect
           id="rect8414-45-31-4-9"
           width="80.014809"
           height="14.093332"
           x="-297.18002"
           y="496.62769"
           style="font-size:6px" /></flowRegion><flowPara
         id="flowPara8416-5-3-5-7">OFF</flowPara></flowRoot>    <flowRoot
       transform="matrix(2,0,0,2,1915.9484,-523.55722)"
       xml:space="preserve"
       id="flowRoot8410-37-87-1-3"
       style="font-size:6px;font-style:normal;font-weight:normal;line-height:125%;letter-spacing:0px;word-spacing:0px;fill:#000000;fill-opacity:1;stroke:none;font-family:Sans"><flowRegion
         id="flowRegion8412-0-07-8-6"><rect
           id="rect8414-45-31-7-6"
           width="86.703552"
           height="14.093332"
           x="-297.18002"
           y="496.62769"
           style="font-size:6px" /></flowRegion><flowPara
         id="flowPara8416-5-3-6-8">OFF</flowPara></flowRoot>    <flowRoot
       transform="matrix(2,0,0,2,1914.1176,-492.73078)"
       xml:space="preserve"
       id="flowRoot8410-37-87-1-5-4"
       style="font-size:6px;font-style:normal;font-weight:normal;line-height:125%;letter-spacing:0px;word-spacing:0px;fill:#000000;fill-opacity:1;stroke:none;font-family:Sans"><flowRegion
         id="flowRegion8412-0-07-8-5-0"><rect
           id="rect8414-45-31-7-8-3"
           width="86.703552"
           height="14.093332"
           x="-297.18002"
           y="496.62769"
           style="font-size:6px" /></flowRegion><flowPara
         id="flowPara8416-5-3-6-5-9">OFF</flowPara></flowRoot>  </g>
</svg>
