<?xml version="1.0" encoding="utf-8"?>
<!-- Generator: Adobe Illustrator 17.0.0, SVG Export Plug-In . SVG Version: 6.00 Build 0)  -->
<!DOCTYPE svg PUBLIC "-//W3C//DTD SVG 1.1//EN" "http://www.w3.org/Graphics/SVG/1.1/DTD/svg11.dtd">
<svg version="1.1" xmlns="http://www.w3.org/2000/svg" xmlns:xlink="http://www.w3.org/1999/xlink" x="0px" y="0px" width="1584px"
	 height="1224px" viewBox="1775.211 27.91 1584 1224" enable-background="new 1775.211 27.91 1584 1224" xml:space="preserve">
<g id="Guides" display="none">
</g>
<g id="Spacer" display="none">
</g>
<g id="Layer_1">
	<g id="_x30_6">
		<rect x="1775.21" y="27.91" fill="#FFFFFF" width="1584" height="1224"/>
		<g>
			<text transform="matrix(1 0 0 1 1840.4036 168.5096)" fill="#4A90D9" font-family="'MyriadPro-Bold'" font-size="100">[6]</text>
		</g>
		<g>
			<text transform="matrix(1 0 0 1 1847.2097 241.5193)" fill="#4A90D9" font-family="'MyriadPro-Bold'" font-size="50">Display/Hide</text>
		</g>
		<g>
			<g>
				<g>
					<path fill="#EDEDED" d="M2452.909,470.227h-449.099v213.846h449.099L2452.909,470.227L2452.909,470.227z"/>
				</g>
				<path fill="#EDEDED" d="M2003.811,470.227v-29.5c0-2.472,2.004-4.476,4.476-4.476h440.147c2.472,0,4.476,2.004,4.476,4.476v29.5
					H2003.811z"/>
				<g>
					<path fill="#AAAAAA" d="M2028.002,449.011l-4.246,4.246l4.083,4.083l-1.084,1.084l-4.083-4.083l-4.282,4.282l-1.156-1.156
						l4.282-4.282l-4.084-4.084l1.084-1.084l4.084,4.084l4.246-4.246L2028.002,449.011z"/>
				</g>
				<line fill="none" stroke="#AAAAAA" stroke-miterlimit="10" x1="2003.811" y1="470.227" x2="2452.909" y2="470.227"/>
				<g>
					<text transform="matrix(1 0 0 1 2159.1294 504.4863)" fill="#AAAAAA" font-family="'MyriadPro-Regular'" font-size="18">Welcome to Tails.  </text>
				</g>
				<g>
					<text transform="matrix(1 0 0 1 2125.1279 519.4863)" fill="#AAAAAA" font-family="'MyriadPro-Regular'" font-size="10.4442">These are your DEFAULT configuration settings.</text>
				</g>
				
					<text transform="matrix(1 0 0 1 2178.6685 541.5173)" fill="#4A90D9" font-family="'MyriadPro-Regular'" font-size="10.4442" text-decoration=" underline">Learn more about Tails</text>
				<g>
					<text transform="matrix(1 0 0 1 2057.4243 630.3867)" fill="#AAAAAA" font-family="'MyriadPro-Bold'" font-size="10">Settings</text>
				</g>
				<g>
					<g>
						<path fill="#AAAAAA" d="M2103.924,631.275v-2.658h-2.548v-1.134h2.548v-2.694h1.194v2.694h2.549v1.134h-2.549v2.658H2103.924z
							"/>
					</g>
				</g>
				<g>
					<polygon fill="#FFFFFF" points="2115.842,653.724 2115.842,637.709 2127.433,649.328 2120.652,649.328 2120.24,649.452 					
						"/>
					<polygon fill="#FFFFFF" points="2124.926,654.398 2121.321,655.933 2116.638,644.844 2120.324,643.291 					"/>
					
						<rect x="2120.001" y="646.528" transform="matrix(-0.922 0.3871 -0.3871 -0.922 4328.4688 429.353)" width="2" height="7.999"/>
					<polygon points="2116.842,640.116 2116.842,651.304 2119.811,648.438 2120.239,648.299 2125.007,648.299 					"/>
				</g>
				<rect x="2057.425" y="584.194" fill="#6EA6E1" width="160.764" height="20.147"/>
				<rect x="2238.335" y="584.194" fill="#FFFFFF" width="160.959" height="20.147"/>
				<rect x="2238.335" y="584.194" fill="#CCCCCC" width="20.147" height="20.147"/>
				
					<rect x="2238.335" y="584.194" fill="none" stroke="#AAAAAA" stroke-width="0.5595" stroke-miterlimit="10" width="160.959" height="20.147"/>
				<text transform="matrix(1 0 0 1 2093.8589 597.2097)" fill="#FFFFFF" font-family="'MyriadPro-Regular'" font-size="8.9521">Configure Encrypted Storage</text>
				<text transform="matrix(1 0 0 1 2057.4243 577.4788)" fill="#AAAAAA" font-family="'MyriadPro-Bold'" font-size="10">Storage</text>
				
					<text transform="matrix(1 0 0 1 2223.8564 597.2097)" fill="#AAAAAA" font-family="'MyriadPro-Regular'" font-size="10.4442" text-decoration=" underline">or</text>
				<rect x="2057.426" y="584.194" fill="#4A90D9" width="20.147" height="20.147"/>
				
					<rect x="2057.425" y="584.194" fill="none" stroke="#AAAAAA" stroke-width="0.3837" stroke-miterlimit="10" width="160.764" height="20.147"/>
				<path fill="#FFFFFF" d="M2071.195,598.703h-7.393v-5.175h0.986v-0.986c0-1.497,1.214-2.711,2.711-2.711s2.711,1.214,2.711,2.711
					v0.986h0.986L2071.195,598.703L2071.195,598.703z M2067.499,591.31c-0.68,0-1.232,0.551-1.232,1.232v0.986h2.464v-0.986
					C2068.73,591.861,2068.178,591.31,2067.499,591.31z"/>
				
					<line fill="none" stroke="#AAAAAA" stroke-width="0.5595" stroke-miterlimit="10" x1="2258.482" y1="584.194" x2="2258.482" y2="604.34"/>
				<g>
					<text transform="matrix(1 0 0 1 2264.2261 597.2834)" fill="#EDEDED" font-family="'MyriadPro-Regular'" font-size="8.9521">Enter your passphrase to unlock</text>
				</g>
				<text transform="matrix(1 0 0 1 2262.9785 596.7189)" fill="#AAAAAA" font-family="'MyriadPro-Regular'" font-size="10.4442">|</text>
				<path fill="#AAAAAA" d="M2252.043,599.34h-7.393v-5.175h0.986v-0.986c0-1.497,1.214-2.711,2.711-2.711
					c0.929,0,1.708,0.497,2.197,1.209l-1.055,1.055c-0.179-0.459-0.62-0.786-1.142-0.786c-0.681,0-1.232,0.551-1.232,1.232v0.986
					h4.928V599.34z"/>
			</g>
			<g>
				<path fill="#4A90D9" d="M2385.72,463.63c0,0.775,0.628,1.404,1.404,1.404h59.055c0.775,0,1.404-0.629,1.404-1.404V442.43
					c0-0.775-0.628-1.404-1.404-1.404h-59.055c-0.775,0-1.404,0.629-1.404,1.404V463.63z"/>
				<text transform="matrix(1 0 0 1 2395.6543 456.7419)" fill="#FFFFFF" font-family="'MyriadPro-Regular'" font-size="10.4442">Start Tails</text>
			</g>
		</g>
		<g>
			<path fill="#EDEDED" d="M2003.811,392.937v-29.5c0-2.472,2.004-4.476,4.476-4.476h440.147c2.472,0,4.476,2.004,4.476,4.476v29.5
				H2003.811z"/>
			<rect x="2003.811" y="392.937" fill="#EDEDED" width="449.099" height="7.314"/>
			<g>
				<path fill="#AAAAAA" d="M2029.414,376.767h-6.004v5.775h-1.533v-5.775h-6.055v-1.635h6.055v-5.776h1.533v5.776h6.004V376.767z"
					/>
			</g>
			<line fill="none" stroke="#AAAAAA" stroke-miterlimit="10" x1="2003.811" y1="392.937" x2="2452.909" y2="392.937"/>
			<path fill="#4A90D9" d="M2385.671,386.937c0,0.775,0.628,1.404,1.404,1.404h59.055c0.775,0,1.404-0.628,1.404-1.404v-21.201
				c0-0.775-0.628-1.404-1.404-1.404h-59.055c-0.775,0-1.404,0.628-1.404,1.404V386.937z"/>
			<text transform="matrix(1 0 0 1 2395.6052 380.0481)" fill="#FFFFFF" font-family="'MyriadPro-Regular'" font-size="10.4442">Start Tails</text>
			<g>
				<polygon fill="#FFFFFF" points="2038.257,403.497 2038.257,387.482 2049.847,399.101 2043.067,399.101 2042.656,399.225 				"/>
				<polygon fill="#FFFFFF" points="2047.341,404.171 2043.736,405.706 2039.054,394.617 2042.74,393.065 				"/>
				<rect x="2042.536" y="396.191" transform="matrix(0.9221 -0.3871 0.3871 0.9221 4.3909 822.1849)" width="2" height="7.999"/>
				<polygon points="2039.257,389.889 2039.257,401.077 2042.226,398.211 2042.654,398.072 2047.422,398.072 				"/>
			</g>
		</g>
		<g>
			<g>
				<g>
					<path fill="#AAAAAA" d="M2714.482,552.68l1.879-1.879l-1.802-1.802l0.802-0.802l1.802,1.802l1.905-1.905l0.844,0.844
						l-1.905,1.905l1.802,1.802l-0.802,0.802l-1.802-1.802l-1.879,1.879L2714.482,552.68z"/>
				</g>
			</g>
			<g>
				<g>
					<g>
						<path fill="#CCCCCC" d="M3130.609,560.346H2681.51v6.92h449.099L3130.609,560.346z"/>
					</g>
					<g>
						<path fill="#EDEDED" d="M3130.609,392.919H2681.51v167.426h449.099L3130.609,392.919L3130.609,392.919z"/>
					</g>
					<path fill="#EDEDED" d="M2681.51,392.919v-29.5c0-2.472,2.004-4.476,4.476-4.476h440.147c2.472,0,4.476,2.004,4.476,4.476v29.5
						H2681.51z"/>
					<g>
						<path fill="#AAAAAA" d="M2705.701,371.703l-4.246,4.246l4.083,4.083l-1.084,1.084l-4.083-4.083l-4.282,4.282l-1.156-1.156
							l4.282-4.282l-4.084-4.084l1.084-1.084l4.084,4.084l4.246-4.246L2705.701,371.703z"/>
					</g>
					<line fill="none" stroke="#AAAAAA" stroke-miterlimit="10" x1="2681.51" y1="392.919" x2="3130.609" y2="392.919"/>
					<g>
						<text transform="matrix(1 0 0 1 2836.8286 427.1784)" fill="#AAAAAA" font-family="'MyriadPro-Regular'" font-size="18">Welcome to Tails.  </text>
					</g>
					<g>
						<text transform="matrix(1 0 0 1 2802.8271 442.1784)" fill="#AAAAAA" font-family="'MyriadPro-Regular'" font-size="10.4442">These are your DEFAULT configuration settings.</text>
					</g>
					
						<text transform="matrix(1 0 0 1 2856.3677 464.2094)" fill="#4A90D9" font-family="'MyriadPro-Regular'" font-size="10.4442" text-decoration=" underline">Learn more about Tails</text>
					<g>
						<text transform="matrix(1 0 0 1 2735.1235 553.0787)" fill="#AAAAAA" font-family="'MyriadPro-Bold'" font-size="10">Settings</text>
					</g>
					<g>
						<g>
							<path fill="#AAAAAA" d="M2781.623,553.967v-2.658h-2.548v-1.134h2.548v-2.694h1.194v2.694h2.549v1.134h-2.549v2.658H2781.623
								z"/>
						</g>
					</g>
					<g>
						<polygon fill="#FFFFFF" points="2792.686,567.304 2792.686,551.289 2804.277,562.908 2797.496,562.908 2797.085,563.032 
													"/>
						<polygon fill="#FFFFFF" points="2801.77,567.978 2798.165,569.513 2793.483,558.424 2797.169,556.871 						"/>
						
							<rect x="2796.845" y="560.108" transform="matrix(-0.922 0.3871 -0.3871 -0.922 5595.9438 1.2585)" width="2" height="7.999"/>
						<polygon points="2793.686,553.696 2793.686,564.884 2796.655,562.018 2797.083,561.879 2801.851,561.879 						"/>
					</g>
					<rect x="2735.124" y="506.886" fill="#6EA6E1" width="160.764" height="20.147"/>
					<rect x="2916.035" y="506.886" fill="#FFFFFF" width="160.959" height="20.147"/>
					<rect x="2916.035" y="506.886" fill="#CCCCCC" width="20.147" height="20.147"/>
					
						<rect x="2916.035" y="506.886" fill="none" stroke="#AAAAAA" stroke-width="0.5595" stroke-miterlimit="10" width="160.959" height="20.147"/>
					<text transform="matrix(1 0 0 1 2771.5581 519.9017)" fill="#FFFFFF" font-family="'MyriadPro-Regular'" font-size="8.9521">Configure Encrypted Storage</text>
					<text transform="matrix(1 0 0 1 2735.1235 500.1708)" fill="#AAAAAA" font-family="'MyriadPro-Bold'" font-size="10">Storage</text>
					
						<text transform="matrix(1 0 0 1 2901.5557 519.9017)" fill="#AAAAAA" font-family="'MyriadPro-Regular'" font-size="10.4442" text-decoration=" underline">or</text>
					<rect x="2735.125" y="506.886" fill="#4A90D9" width="20.147" height="20.147"/>
					
						<rect x="2735.124" y="506.886" fill="none" stroke="#AAAAAA" stroke-width="0.3837" stroke-miterlimit="10" width="160.764" height="20.147"/>
					<path fill="#FFFFFF" d="M2748.894,521.395h-7.393v-5.175h0.986v-0.986c0-1.497,1.214-2.711,2.711-2.711
						s2.711,1.214,2.711,2.711v0.986h0.986L2748.894,521.395L2748.894,521.395z M2745.198,514.002c-0.68,0-1.232,0.551-1.232,1.232
						v0.986h2.464v-0.986C2746.43,514.553,2745.878,514.002,2745.198,514.002z"/>
					
						<line fill="none" stroke="#AAAAAA" stroke-width="0.5595" stroke-miterlimit="10" x1="2936.182" y1="506.886" x2="2936.182" y2="527.032"/>
					<g>
						<text transform="matrix(1 0 0 1 2941.9253 519.9755)" fill="#EDEDED" font-family="'MyriadPro-Regular'" font-size="8.9521">Enter your passphrase to unlock</text>
					</g>
					<text transform="matrix(1 0 0 1 2940.6777 519.4109)" fill="#AAAAAA" font-family="'MyriadPro-Regular'" font-size="10.4442">|</text>
					<path fill="#AAAAAA" d="M2929.743,522.032h-7.393v-5.175h0.986v-0.986c0-1.497,1.214-2.711,2.711-2.711
						c0.929,0,1.708,0.497,2.197,1.209l-1.055,1.055c-0.179-0.459-0.62-0.786-1.142-0.786c-0.681,0-1.232,0.551-1.232,1.232v0.986
						h4.928V522.032z"/>
				</g>
				<g>
					<path fill="#4A90D9" d="M3063.419,386.322c0,0.775,0.628,1.404,1.404,1.404h59.055c0.775,0,1.404-0.628,1.404-1.404v-21.201
						c0-0.775-0.628-1.404-1.404-1.404h-59.055c-0.775,0-1.404,0.629-1.404,1.404V386.322z"/>
					<text transform="matrix(1 0 0 1 3073.3535 379.434)" fill="#FFFFFF" font-family="'MyriadPro-Regular'" font-size="10.4442">Start Tails</text>
				</g>
			</g>
		</g>
		<g>
			<g>
				<rect x="2681.369" y="774.961" fill="#CCCCCC" width="449.099" height="231.925"/>
			</g>
			<g>
				<path fill="#EDEDED" d="M3130.609,630.863H2681.51V798.29h449.099L3130.609,630.863L3130.609,630.863z"/>
			</g>
			<g>
				
					<rect x="2734.983" y="892.505" fill="#FFFFFF" stroke="#AAAAAA" stroke-width="0.5595" stroke-miterlimit="10" width="341.673" height="60.423"/>
				
					<rect x="2734.983" y="805.21" fill="#FFFFFF" stroke="#AAAAAA" stroke-width="0.5595" stroke-miterlimit="10" width="341.673" height="80.569"/>
				<g>
					<text transform="matrix(1 0 0 1 2748.4124 818.6344)"><tspan x="0" y="0" fill="#AAAAAA" font-family="'MyriadPro-Regular'" font-size="8.9521">Text Language</tspan><tspan x="0" y="20.143" fill="#AAAAAA" font-family="'MyriadPro-Regular'" font-size="8.9521">Keyboard Language</tspan><tspan x="0" y="40.284" fill="#AAAAAA" font-family="'MyriadPro-Regular'" font-size="8.9521">Formats</tspan><tspan x="0" y="60.427" fill="#AAAAAA" font-family="'MyriadPro-Regular'" font-size="8.9521">Time Zone</tspan></text>
				</g>
				<g>
					<text transform="matrix(1 0 0 1 3018.9434 818.6354)"><tspan x="0" y="0" fill="#AAAAAA" font-family="'MyriadPro-Regular'" font-size="8.9521">English [US]</tspan><tspan x="0" y="20.143" fill="#AAAAAA" font-family="'MyriadPro-Regular'" font-size="8.9521">English [US]</tspan><tspan x="-5.648" y="40.284" fill="#AAAAAA" font-family="'MyriadPro-Regular'" font-size="8.9521">United States</tspan><tspan x="6.732" y="60.427" fill="#AAAAAA" font-family="'MyriadPro-Regular'" font-size="8.9521">04:21 UTC</tspan></text>
				</g>
				
					<line fill="none" stroke="#AAAAAA" stroke-width="0.5595" stroke-miterlimit="10" x1="2734.983" y1="825.352" x2="3076.656" y2="825.352"/>
				
					<line fill="none" stroke="#AAAAAA" stroke-width="0.5595" stroke-miterlimit="10" x1="2734.983" y1="845.495" x2="3076.656" y2="845.495"/>
				
					<line fill="none" stroke="#AAAAAA" stroke-width="0.5595" stroke-miterlimit="10" x1="2734.983" y1="865.637" x2="3076.656" y2="865.637"/>
				
					<line fill="none" stroke="#AAAAAA" stroke-width="0.5595" stroke-miterlimit="10" x1="2734.983" y1="932.786" x2="3076.656" y2="932.786"/>
				
					<line fill="none" stroke="#AAAAAA" stroke-width="0.5595" stroke-miterlimit="10" x1="2734.983" y1="912.643" x2="3076.656" y2="912.643"/>
				<g>
					<text transform="matrix(1 0 0 1 2748.4124 905.9281)"><tspan x="0" y="0" fill="#AAAAAA" font-family="'MyriadPro-Regular'" font-size="8.9521">Windows Camouflage</tspan><tspan x="0" y="20.143" fill="#AAAAAA" font-family="'MyriadPro-Regular'" font-size="8.9521">Mac Spoofing</tspan><tspan x="0" y="40.284" fill="#AAAAAA" font-family="'MyriadPro-Regular'" font-size="8.9521">Network Configuration</tspan></text>
				</g>
				<g>
					<text transform="matrix(1 0 0 1 3052.0918 905.183)"><tspan x="0" y="0" fill="#AAAAAA" font-family="'MyriadPro-Regular'" font-size="8.9521">On</tspan><tspan x="-0.25" y="20.143" fill="#AAAAAA" font-family="'MyriadPro-Regular'" font-size="8.9521">Off</tspan><tspan x="-0.25" y="40.284" fill="#AAAAAA" font-family="'MyriadPro-Regular'" font-size="8.9521">Off</tspan></text>
				</g>
			</g>
			<g>
				<polygon fill="#FFFFFF" points="3088.556,659.473 3088.556,643.458 3100.147,655.077 3093.366,655.077 3092.955,655.201 				"/>
				<polygon fill="#FFFFFF" points="3097.641,660.147 3094.036,661.682 3089.354,650.593 3093.04,649.04 				"/>
				<rect x="3092.835" y="652.167" transform="matrix(0.9221 -0.3871 0.3871 0.9221 -12.8192 1248.677)" width="2" height="7.999"/>
				<polygon points="3089.556,645.865 3089.556,657.053 3092.525,654.187 3092.953,654.048 3097.721,654.048 				"/>
			</g>
			<g>
				<g>
					<path fill="#EDEDED" d="M2681.51,630.863v-29.5c0-2.472,2.004-4.476,4.476-4.476h440.147c2.472,0,4.476,2.004,4.476,4.476v29.5
						H2681.51z"/>
					<g>
						<path fill="#AAAAAA" d="M2705.701,609.647l-4.246,4.246l4.083,4.083l-1.084,1.084l-4.083-4.083l-4.282,4.282l-1.156-1.156
							l4.282-4.282l-4.084-4.084l1.084-1.084l4.084,4.084l4.246-4.246L2705.701,609.647z"/>
					</g>
					<line fill="none" stroke="#AAAAAA" stroke-miterlimit="10" x1="2681.51" y1="630.863" x2="3130.609" y2="630.863"/>
					<g>
						<text transform="matrix(1 0 0 1 2836.8289 665.1226)" fill="#AAAAAA" font-family="'MyriadPro-Regular'" font-size="18">Welcome to Tails.  </text>
					</g>
					<g>
						<text transform="matrix(1 0 0 1 2802.8274 680.1226)" fill="#AAAAAA" font-family="'MyriadPro-Regular'" font-size="10.4442">These are your DEFAULT configuration settings.</text>
					</g>
					
						<text transform="matrix(1 0 0 1 2856.3679 702.1536)" fill="#4A90D9" font-family="'MyriadPro-Regular'" font-size="10.4442" text-decoration=" underline">Learn more about Tails</text>
					<g>
						<text transform="matrix(1 0 0 1 2735.1238 791.0229)" fill="#AAAAAA" font-family="'MyriadPro-Bold'" font-size="10">Settings</text>
					</g>
					<g>
						<g>
							<path fill="#AAAAAA" d="M2779.505,790.539l1.879-1.88l-1.802-1.802l0.802-0.802l1.802,1.802l1.905-1.905l0.844,0.844
								l-1.905,1.905l1.802,1.802l-0.802,0.802l-1.802-1.802l-1.88,1.88L2779.505,790.539z"/>
						</g>
					</g>
					<rect x="2735.124" y="744.83" fill="#6EA6E1" width="160.764" height="20.147"/>
					<rect x="2916.035" y="744.83" fill="#FFFFFF" width="160.959" height="20.147"/>
					<rect x="2916.035" y="744.83" fill="#CCCCCC" width="20.147" height="20.147"/>
					
						<rect x="2916.035" y="744.83" fill="none" stroke="#AAAAAA" stroke-width="0.5595" stroke-miterlimit="10" width="160.959" height="20.147"/>
					<text transform="matrix(1 0 0 1 2771.5583 757.8459)" fill="#FFFFFF" font-family="'MyriadPro-Regular'" font-size="8.9521">Configure Encrypted Storage</text>
					<text transform="matrix(1 0 0 1 2735.1238 738.115)" fill="#AAAAAA" font-family="'MyriadPro-Bold'" font-size="10">Storage</text>
					
						<text transform="matrix(1 0 0 1 2901.5559 757.8459)" fill="#AAAAAA" font-family="'MyriadPro-Regular'" font-size="10.4442" text-decoration=" underline">or</text>
					<rect x="2735.125" y="744.83" fill="#4A90D9" width="20.147" height="20.147"/>
					
						<rect x="2735.124" y="744.83" fill="none" stroke="#AAAAAA" stroke-width="0.3837" stroke-miterlimit="10" width="160.764" height="20.147"/>
					<path fill="#FFFFFF" d="M2748.894,759.339h-7.393v-5.175h0.986v-0.986c0-1.497,1.214-2.711,2.711-2.711
						s2.711,1.214,2.711,2.711v0.986h0.986L2748.894,759.339L2748.894,759.339z M2745.198,751.946c-0.68,0-1.232,0.551-1.232,1.232
						v0.986h2.464v-0.986C2746.43,752.497,2745.878,751.946,2745.198,751.946z"/>
					
						<line fill="none" stroke="#AAAAAA" stroke-width="0.5595" stroke-miterlimit="10" x1="2936.182" y1="744.83" x2="2936.182" y2="764.976"/>
					<g>
						<text transform="matrix(1 0 0 1 2941.9255 757.9197)" fill="#EDEDED" font-family="'MyriadPro-Regular'" font-size="8.9521">Enter your passphrase to unlock</text>
					</g>
					<text transform="matrix(1 0 0 1 2940.678 757.3551)" fill="#AAAAAA" font-family="'MyriadPro-Regular'" font-size="10.4442">|</text>
					<path fill="#AAAAAA" d="M2929.743,759.976h-7.393v-5.175h0.986v-0.986c0-1.497,1.214-2.711,2.711-2.711
						c0.929,0,1.708,0.497,2.197,1.209l-1.055,1.055c-0.179-0.459-0.62-0.786-1.142-0.786c-0.681,0-1.232,0.551-1.232,1.232v0.986
						h4.928V759.976z"/>
				</g>
				<g>
					<path fill="#4A90D9" d="M3063.419,624.267c0,0.775,0.628,1.404,1.404,1.404h59.055c0.775,0,1.404-0.628,1.404-1.404v-21.201
						c0-0.775-0.628-1.404-1.404-1.404h-59.055c-0.775,0-1.404,0.629-1.404,1.404V624.267z"/>
					<text transform="matrix(1 0 0 1 3073.3535 617.3781)" fill="#FFFFFF" font-family="'MyriadPro-Regular'" font-size="10.4442">Start Tails</text>
				</g>
			</g>
			<g>
				<text transform="matrix(1 0 0 1 2967.9766 791.0227)" fill="#AAAAAA" font-family="'MyriadPro-Regular'" font-size="8.9521">Save Settings Preferences</text>
			</g>
			
				<rect x="3071.415" y="785.804" fill="none" stroke="#AAAAAA" stroke-width="0.5595" stroke-miterlimit="10" width="5.437" height="5.743"/>
		</g>
		<g>
			<text transform="matrix(1 0 0 1 2003.8108 344.3599)" fill="#AAAAAA" font-family="'MyriadPro-Bold'" font-size="40">Accordion</text>
		</g>
		<g>
			<text transform="matrix(1 0 0 1 2681.5122 344.3597)" fill="#AAAAAA" font-family="'MyriadPro-Bold'" font-size="40">Drawer</text>
		</g>
		<text transform="matrix(1 0 0 1 2681.5039 1059.9456)" fill="#4A90D9" font-family="'MyriadPro-Bold'" font-size="24">Use Display/Hide Functionality?</text>
		<rect x="2681.504" y="1075.668" fill="none" width="440.932" height="84.832"/>
		<text transform="matrix(1 0 0 1 2681.5039 1090.734)" enable-background="new    "><tspan x="0" y="0" fill="#AAAAAA" font-family="'MyriadPro-Bold'" font-size="18">Having hidden content appear on demand saves space </tspan><tspan x="0" y="22" fill="#AAAAAA" font-family="'MyriadPro-Bold'" font-size="18">and minimizes the possibility for confusion.  However,</tspan><tspan x="0" y="44" fill="#AAAAAA" font-family="'MyriadPro-Bold'" font-size="18">given Tails’ amnesiac nature, this functionality is not as </tspan><tspan x="0" y="66" fill="#AAAAAA" font-family="'MyriadPro-Bold'" font-size="18">appropriate as it would otherwise be.</tspan></text>
		<g>
			<g>
				<g>
					<path fill="#EDEDED" d="M2452.91,754.054h-449.099v368.147h449.099L2452.91,754.054L2452.91,754.054z"/>
				</g>
				
					<rect x="2057.497" y="1008.092" fill="#FFFFFF" stroke="#AAAAAA" stroke-width="0.5595" stroke-miterlimit="10" width="341.673" height="60.423"/>
				
					<rect x="2057.497" y="920.797" fill="#FFFFFF" stroke="#AAAAAA" stroke-width="0.5595" stroke-miterlimit="10" width="341.673" height="80.569"/>
				<g>
					<text transform="matrix(1 0 0 1 2070.9265 934.2221)" fill="#AAAAAA" font-family="'MyriadPro-Regular'" font-size="8.9521">Text Language</text>
					<text transform="matrix(1 0 0 1 2070.9265 954.3652)" fill="#AAAAAA" font-family="'MyriadPro-Regular'" font-size="8.9521">Keyboard Language</text>
					<text transform="matrix(1 0 0 1 2070.9265 974.5062)" fill="#AAAAAA" font-family="'MyriadPro-Regular'" font-size="8.9521">Formats</text>
					<text transform="matrix(1 0 0 1 2070.9265 994.649)" fill="#AAAAAA" font-family="'MyriadPro-Regular'" font-size="8.9521">Time Zone</text>
				</g>
				<g>
					<text transform="matrix(1 0 0 1 2341.4575 934.2231)" fill="#AAAAAA" font-family="'MyriadPro-Regular'" font-size="8.9521">English [US]</text>
					<text transform="matrix(1 0 0 1 2341.4575 954.3661)" fill="#AAAAAA" font-family="'MyriadPro-Regular'" font-size="8.9521">English [US]</text>
					<text transform="matrix(1 0 0 1 2335.8096 974.5072)" fill="#AAAAAA" font-family="'MyriadPro-Regular'" font-size="8.9521">United States</text>
					<text transform="matrix(1 0 0 1 2348.1895 994.65)" fill="#AAAAAA" font-family="'MyriadPro-Regular'" font-size="8.9521">04:21 UTC</text>
				</g>
				
					<line fill="none" stroke="#AAAAAA" stroke-width="0.5595" stroke-miterlimit="10" x1="2057.497" y1="940.94" x2="2399.17" y2="940.94"/>
				
					<line fill="none" stroke="#AAAAAA" stroke-width="0.5595" stroke-miterlimit="10" x1="2057.497" y1="961.082" x2="2399.17" y2="961.082"/>
				
					<line fill="none" stroke="#AAAAAA" stroke-width="0.5595" stroke-miterlimit="10" x1="2057.497" y1="981.224" x2="2399.17" y2="981.224"/>
				
					<line fill="none" stroke="#AAAAAA" stroke-width="0.5595" stroke-miterlimit="10" x1="2057.497" y1="1048.373" x2="2399.17" y2="1048.373"/>
				
					<line fill="none" stroke="#AAAAAA" stroke-width="0.5595" stroke-miterlimit="10" x1="2057.497" y1="1028.23" x2="2399.17" y2="1028.23"/>
				<g>
					<text transform="matrix(1 0 0 1 2070.9265 1021.5157)" fill="#AAAAAA" font-family="'MyriadPro-Regular'" font-size="8.9521">Windows Camouflage</text>
					<text transform="matrix(1 0 0 1 2070.9265 1041.6588)" fill="#AAAAAA" font-family="'MyriadPro-Regular'" font-size="8.9521">Mac Spoofing</text>
					<text transform="matrix(1 0 0 1 2070.9265 1061.7999)" fill="#AAAAAA" font-family="'MyriadPro-Regular'" font-size="8.9521">Network Configuration</text>
				</g>
				<g>
					<text transform="matrix(1 0 0 1 2374.606 1020.7706)" fill="#AAAAAA" font-family="'MyriadPro-Regular'" font-size="8.9521">On</text>
					<text transform="matrix(1 0 0 1 2374.356 1040.9137)" fill="#AAAAAA" font-family="'MyriadPro-Regular'" font-size="8.9521">Off</text>
					<text transform="matrix(1 0 0 1 2374.356 1061.0548)" fill="#AAAAAA" font-family="'MyriadPro-Regular'" font-size="8.9521">Off</text>
				</g>
				<rect x="2057.425" y="868.021" fill="#6EA6E1" width="160.764" height="20.147"/>
				<rect x="2238.336" y="868.021" fill="#FFFFFF" width="160.959" height="20.147"/>
				<rect x="2238.336" y="868.021" fill="#CCCCCC" width="20.147" height="20.147"/>
				
					<rect x="2238.336" y="868.021" fill="none" stroke="#AAAAAA" stroke-width="0.5595" stroke-miterlimit="10" width="160.959" height="20.147"/>
				<text transform="matrix(1 0 0 1 2093.8606 881.037)" fill="#FFFFFF" font-family="'MyriadPro-Regular'" font-size="8.9521">Configure Encrypted Storage</text>
				<path fill="#EDEDED" d="M2003.811,754.054v-29.5c0-2.472,2.004-4.476,4.476-4.476h440.146c2.472,0,4.476,2.004,4.476,4.476v29.5
					H2003.811z"/>
				<g>
					<path fill="#AAAAAA" d="M2028.002,732.838l-4.246,4.246l4.083,4.083l-1.084,1.084l-4.083-4.083l-4.282,4.282l-1.156-1.156
						l4.282-4.282l-4.084-4.084l1.084-1.084l4.084,4.084l4.246-4.246L2028.002,732.838z"/>
				</g>
				<line fill="none" stroke="#AAAAAA" stroke-miterlimit="10" x1="2003.811" y1="754.054" x2="2452.91" y2="754.054"/>
				<text transform="matrix(1 0 0 1 2057.4255 861.3063)" fill="#AAAAAA" font-family="'MyriadPro-Bold'" font-size="10">Storage</text>
				
					<text transform="matrix(1 0 0 1 2223.8582 881.0373)" fill="#AAAAAA" font-family="'MyriadPro-Regular'" font-size="10.4442" text-decoration=" underline">or</text>
				<g>
					<text transform="matrix(1 0 0 1 2159.1311 788.3141)" fill="#AAAAAA" font-family="'MyriadPro-Regular'" font-size="18">Welcome to Tails.  </text>
				</g>
				<g>
					<text transform="matrix(1 0 0 1 2125.1292 803.3141)" fill="#AAAAAA" font-family="'MyriadPro-Regular'" font-size="10.4442">These are your DEFAULT configuration settings.</text>
				</g>
				<g>
					
						<text transform="matrix(1 0 0 1 2178.6702 825.3451)" fill="#4A90D9" font-family="'MyriadPro-Regular'" font-size="10.4442" text-decoration=" underline">Learn more about Tails</text>
				</g>
				<g>
					<path fill="#4A90D9" d="M2386.271,747.458c0,0.775,0.628,1.404,1.404,1.404h59.055c0.775,0,1.404-0.629,1.404-1.404v-21.201
						c0-0.775-0.628-1.404-1.404-1.404h-59.055c-0.775,0-1.404,0.629-1.404,1.404V747.458z"/>
					<text transform="matrix(1 0 0 1 2396.2051 740.5704)" fill="#FFFFFF" font-family="'MyriadPro-Regular'" font-size="10.4442">Start Tails</text>
				</g>
				<rect x="2057.426" y="868.021" fill="#4A90D9" width="20.147" height="20.147"/>
				
					<rect x="2057.425" y="868.021" fill="none" stroke="#AAAAAA" stroke-width="0.3837" stroke-miterlimit="10" width="160.764" height="20.147"/>
				<path fill="#FFFFFF" d="M2071.195,882.53h-7.393v-5.175h0.986v-0.986c0-1.497,1.213-2.711,2.71-2.711s2.711,1.214,2.711,2.711
					v0.986h0.986V882.53z M2067.499,875.137c-0.68,0-1.232,0.551-1.232,1.232v0.986h2.464v-0.986
					C2068.731,875.688,2068.18,875.137,2067.499,875.137z"/>
				
					<line fill="none" stroke="#AAAAAA" stroke-width="0.5595" stroke-miterlimit="10" x1="2258.483" y1="868.021" x2="2258.483" y2="888.167"/>
				<g>
					<text transform="matrix(1 0 0 1 2264.2278 881.111)" fill="#EDEDED" font-family="'MyriadPro-Regular'" font-size="8.9521">Enter your passphrase to unlock</text>
				</g>
				<text transform="matrix(1 0 0 1 2262.9797 880.5461)" fill="#AAAAAA" font-family="'MyriadPro-Regular'" font-size="10.4442">|</text>
				<path fill="#AAAAAA" d="M2252.044,883.167h-7.393v-5.175h0.986v-0.986c0-1.497,1.214-2.711,2.711-2.711
					c0.929,0,1.708,0.497,2.197,1.209l-1.055,1.055c-0.179-0.459-0.62-0.786-1.142-0.786c-0.68,0-1.232,0.552-1.232,1.232v0.986
					h4.928V883.167z"/>
				<g>
					<text transform="matrix(1 0 0 1 2057.4255 914.265)" fill="#AAAAAA" font-family="'MyriadPro-Bold'" font-size="10">Settings</text>
				</g>
				<g>
					<text transform="matrix(1 0 0 1 2290.2964 914.2147)" fill="#AAAAAA" font-family="'MyriadPro-Regular'" font-size="8.9521">Save Settings Preferences</text>
				</g>
				<g>
					<polygon fill="#FFFFFF" points="2411.407,780.949 2411.407,764.934 2422.998,776.553 2416.217,776.553 2415.806,776.677 					
						"/>
					<polygon fill="#FFFFFF" points="2420.491,781.623 2416.886,783.158 2412.204,772.069 2415.89,770.517 					"/>
					
						<rect x="2415.592" y="773.819" transform="matrix(-0.922 0.3871 -0.3871 -0.922 4945.8799 559.595)" width="2" height="7.999"/>
					<polygon points="2412.407,767.341 2412.407,778.529 2415.376,775.663 2415.804,775.524 2420.572,775.524 					"/>
				</g>
				
					<rect x="2393.733" y="908.471" fill="none" stroke="#AAAAAA" stroke-width="0.5595" stroke-miterlimit="10" width="5.437" height="5.743"/>
			</g>
			<g>
				<g>
					<path fill="#AAAAAA" d="M2101.805,913.779l1.88-1.88l-1.802-1.802l0.802-0.802l1.802,1.802l1.905-1.905l0.844,0.844
						l-1.905,1.905l1.802,1.802l-0.802,0.802l-1.802-1.802l-1.879,1.88L2101.805,913.779z"/>
				</g>
			</g>
		</g>
		<g>
			<text transform="matrix(1 0 0 1 2543.2859 639.9104)" fill="#4A90D9" font-family="'MyriadPro-Bold'" font-size="50">or</text>
		</g>
	</g>
</g>
</svg>
