<?xml version="1.0" encoding="UTF-8" standalone="no"?>
<!-- Created with Inkscape (http://www.inkscape.org/) -->

<svg
   xmlns:dc="http://purl.org/dc/elements/1.1/"
   xmlns:cc="http://creativecommons.org/ns#"
   xmlns:rdf="http://www.w3.org/1999/02/22-rdf-syntax-ns#"
   xmlns:svg="http://www.w3.org/2000/svg"
   xmlns="http://www.w3.org/2000/svg"
   xmlns:sodipodi="http://sodipodi.sourceforge.net/DTD/sodipodi-0.dtd"
   xmlns:inkscape="http://www.inkscape.org/namespaces/inkscape"
   version="1.2"
   width="452.55945"
   height="109.38216"
   id="svg4623"
   inkscape:version="0.48.3.1 r9886"
   sodipodi:docname="greeter-1st-screen-langsaved.svg"
   inkscape:export-filename="/home/amnesia/Persistent/master/wiki/src/blueprint/greeter_revamp_UI/greeter-1st-screen-langsaved.png"
   inkscape:export-xdpi="150"
   inkscape:export-ydpi="150">
  <sodipodi:namedview
     pagecolor="#ffffff"
     bordercolor="#666666"
     borderopacity="1"
     objecttolerance="10"
     gridtolerance="10"
     guidetolerance="10"
     inkscape:pageopacity="0"
     inkscape:pageshadow="2"
     inkscape:window-width="1024"
     inkscape:window-height="681"
     id="namedview4057"
     showgrid="false"
     inkscape:zoom="2.3499423"
     inkscape:cx="320.60426"
     inkscape:cy="13.871988"
     inkscape:window-x="0"
     inkscape:window-y="27"
     inkscape:window-maximized="1"
     inkscape:current-layer="svg4623" />
  <defs
     id="defs4625" />
  <metadata
     id="metadata4628">
    <rdf:RDF>
      <cc:Work
         rdf:about="">
        <dc:format>image/svg+xml</dc:format>
        <dc:type
           rdf:resource="http://purl.org/dc/dcmitype/StillImage" />
        <dc:title></dc:title>
      </cc:Work>
    </rdf:RDF>
  </metadata>
  <rect
     width="432.55945"
     height="89.382156"
     x="10"
     y="10"
     id="rect22803"
     style="fill:#f0f0f0;fill-opacity:1;stroke:none" />
  <flowRoot
     transform="matrix(0.49020578,0,0,0.49020578,54.157302,5.1168515)"
     id="flowRoot3763-2"
     xml:space="preserve"
     style="font-size:16px;font-style:normal;font-variant:normal;font-weight:bold;font-stretch:normal;text-align:start;line-height:125%;letter-spacing:0px;word-spacing:0px;writing-mode:lr-tb;text-anchor:start;fill:#000000;fill-opacity:1;stroke:none;font-family:Sans;-inkscape-font-specification:Sans Bold"><flowRegion
       id="flowRegion3765-8"><rect
         width="410.1712"
         height="35.182026"
         x="27.274118"
         y="45.240093"
         id="rect3767-8"
         style="font-size:16px;font-style:normal;font-variant:normal;font-weight:bold;font-stretch:normal;text-align:start;line-height:125%;writing-mode:lr-tb;text-anchor:start;font-family:Sans;-inkscape-font-specification:Sans Bold" /></flowRegion><flowPara
       id="flowPara3769-4">Language</flowPara></flowRoot>  <flowRoot
     transform="matrix(0.49020578,0,0,0.49020578,103.0827,-7.4924485)"
     id="flowRoot3862-5-9-7-9"
     xml:space="preserve"
     style="font-size:16px;font-style:normal;font-weight:normal;line-height:125%;letter-spacing:0px;word-spacing:0px;fill:#000000;fill-opacity:1;stroke:none;font-family:Sans"><flowRegion
       id="flowRegion3864-8-8-5-0"><rect
         width="201.42857"
         height="201.42857"
         x="45.714287"
         y="70.933609"
         id="rect3866-4-6-4-8" /></flowRegion><flowPara
       id="flowPara3888-8-1-7-3"
       style="font-weight:normal;-inkscape-font-specification:Sans Bold">English</flowPara></flowRoot>  <path
     d="m 38.349495,61.010323 c 0.540136,-0.596839 0.621013,-1.815121 0.621013,-9.354139 0,-7.379616 -0.08765,-8.755568 -0.58966,-9.257589 -0.502919,-0.502918 -1.899414,-0.58966 -9.493511,-0.58966 -6.424899,0 -9.029217,0.125375 -9.354143,0.450285 -0.325466,0.325489 -0.450271,2.973957 -0.450271,9.555364 0,8.617883 0.03883,9.125857 0.725794,9.493511 0.439739,0.235341 4.114248,0.388443 9.322783,0.388443 7.85207,0 8.650793,-0.05945 9.217995,-0.686215 z m -6.330595,-5.411397 -0.740763,-1.594762 -2.435523,0 c -2.411169,0 -2.441933,0.01306 -3.076638,1.313332 -0.352619,0.722333 -0.702035,1.470353 -0.776503,1.662269 -0.07444,0.191914 -0.40957,0.243721 -0.744704,0.11513 -0.525469,-0.201632 -0.33059,-0.943088 1.41594,-5.387537 2.214864,-5.636237 2.799454,-6.552414 3.702575,-5.802881 0.579877,0.481251 4.353897,9.803463 4.353897,10.754549 0,1.094785 -0.982097,0.481746 -1.698281,-1.060089 z m -1.477717,-3.377141 c 0.263193,-0.695142 -1.175625,-4.221424 -1.722465,-4.221424 -0.519975,0 -1.962523,3.838991 -1.639159,4.362206 0.315224,0.510053 3.160315,0.390903 3.361624,-0.140777 z m 15.183604,-3.67866 c 3.638099,-1.662113 5.978105,-4.962159 6.292067,-8.873529 0.367787,-4.581815 -1.713178,-8.378666 -5.713387,-10.424451 -5.683729,-2.906765 -12.604046,-0.26197 -14.821386,5.664404 -0.865937,2.314436 -1.006057,5.107989 -0.286147,5.705451 0.485883,0.403255 8.386006,0.707585 8.756278,0.337321 0.110114,-0.110114 -0.251713,-0.883163 -0.804088,-1.717859 -0.552373,-0.834694 -1.224242,-2.157346 -1.493047,-2.93924 -0.332833,-0.968153 -0.769531,-1.487912 -1.369029,-1.62944 -0.484163,-0.114281 -0.880298,-0.453479 -0.880298,-0.753745 0,-0.413259 0.61947,-0.572997 2.548799,-0.657259 2.312237,-0.100986 2.581283,-0.19675 2.898806,-1.031905 0.446618,-1.174701 1.041017,-1.174701 1.487635,0 0.317524,0.835148 0.586568,0.930915 2.898807,1.031905 1.965964,0.08586 2.548798,0.240023 2.548798,0.67417 0,0.462382 -0.78704,0.581731 -4.409045,0.668575 -4.215765,0.101076 -4.409042,0.140754 -4.409042,0.905128 0,1.099731 1.785194,4.054864 2.44954,4.054864 0.297944,0 0.988692,-0.675433 1.534999,-1.50095 0.546303,-0.825517 1.129733,-1.50095 1.29651,-1.50095 0.81189,0 0.681876,0.949849 -0.346384,2.530588 -0.624313,0.959762 -1.047367,1.886993 -0.940119,2.060519 0.107241,0.173532 1.117095,0.835906 2.244108,1.471962 1.877231,1.059442 2.358083,1.765622 1.416057,2.079629 -0.201288,0.0671 -1.366425,-0.480425 -2.58917,-1.216726 -3.581585,-2.156727 -4.462003,-1.488926 -4.241297,3.217017 l 0.113847,2.427468 2.063804,0.09425 c 1.44589,0.06603 2.569378,-0.136721 3.752377,-0.677196 z"
     id="path19435"
     style="fill:#131313"
     inkscape:connector-curvature="0" />
  <flowRoot
     transform="matrix(0.49020578,0,0,0.49020578,55.617088,38.625737)"
     id="flowRoot3763-2-0-1"
     xml:space="preserve"
     style="font-size:16px;font-style:normal;font-variant:normal;font-weight:bold;font-stretch:normal;text-align:start;line-height:125%;letter-spacing:0px;word-spacing:0px;writing-mode:lr-tb;text-anchor:start;fill:#000000;fill-opacity:1;stroke:none;font-family:Sans;-inkscape-font-specification:Sans Bold"><flowRegion
       id="flowRegion3765-8-7-6"><rect
         width="538.65204"
         height="26.321278"
         x="27.274118"
         y="45.240093"
         id="rect3767-8-8-1"
         style="font-size:16px;font-style:normal;font-variant:normal;font-weight:bold;font-stretch:normal;text-align:start;line-height:125%;writing-mode:lr-tb;text-anchor:start;font-family:Sans;-inkscape-font-specification:Sans Bold" /></flowRegion><flowPara
       id="flowPara3769-4-9-3">Formats</flowPara></flowRoot>  <flowRoot
     transform="matrix(0.49020578,0,0,0.49020578,103.67142,26.475984)"
     id="flowRoot3862-5-9-0"
     xml:space="preserve"
     style="font-size:16px;font-style:normal;font-weight:normal;line-height:125%;letter-spacing:0px;word-spacing:0px;fill:#000000;fill-opacity:1;stroke:none;font-family:Sans"><flowRegion
       id="flowRegion3864-8-8-2"><rect
         width="201.42857"
         height="201.42857"
         x="45.714287"
         y="70.933609"
         id="rect3866-4-6-8" /></flowRegion><flowPara
       id="flowPara3888-8-1-76"
       style="font-weight:normal;-inkscape-font-specification:Sans Bold">United States</flowPara></flowRoot>  <flowRoot
     transform="matrix(0.49020578,0,0,0.49020578,103.56717,8.9191325)"
     id="flowRoot3862-5-9-7-2"
     xml:space="preserve"
     style="font-size:16px;font-style:normal;font-weight:normal;line-height:125%;letter-spacing:0px;word-spacing:0px;fill:#000000;fill-opacity:1;stroke:none;font-family:Sans"><flowRegion
       id="flowRegion3864-8-8-5-2"><rect
         width="201.42857"
         height="201.42857"
         x="45.714287"
         y="70.933609"
         id="rect3866-4-6-4-2" /></flowRegion><flowPara
       id="flowPara3888-8-1-7-8"
       style="font-weight:normal;-inkscape-font-specification:Sans Bold">English (US)</flowPara></flowRoot>  <flowRoot
     transform="matrix(0.49020578,0,0,0.49020578,54.746007,21.24119)"
     id="flowRoot3763-2-6-8"
     xml:space="preserve"
     style="font-size:16px;font-style:normal;font-variant:normal;font-weight:bold;font-stretch:normal;text-align:start;line-height:125%;letter-spacing:0px;word-spacing:0px;writing-mode:lr-tb;text-anchor:start;fill:#000000;fill-opacity:1;stroke:none;font-family:Sans;-inkscape-font-specification:Sans Bold"><flowRegion
       id="flowRegion3765-8-8-8"><rect
         width="410.1712"
         height="35.182026"
         x="27.274118"
         y="45.240093"
         id="rect3767-8-5-1"
         style="font-size:16px;font-style:normal;font-variant:normal;font-weight:bold;font-stretch:normal;text-align:start;line-height:125%;writing-mode:lr-tb;text-anchor:start;font-family:Sans;-inkscape-font-specification:Sans Bold" /></flowRegion><flowPara
       id="flowPara3769-4-2-6">Keyboard</flowPara></flowRoot>  <flowRoot
     transform="matrix(0.49020578,0,0,0.49020578,55.592478,56.023639)"
     id="flowRoot3763-2-0-2-3"
     xml:space="preserve"
     style="font-size:16px;font-style:normal;font-variant:normal;font-weight:bold;font-stretch:normal;text-align:start;line-height:125%;letter-spacing:0px;word-spacing:0px;writing-mode:lr-tb;text-anchor:start;fill:#000000;fill-opacity:1;stroke:none;font-family:Sans;-inkscape-font-specification:Sans Bold"><flowRegion
       id="flowRegion3765-8-7-7-6"><rect
         width="538.65204"
         height="26.321278"
         x="27.274118"
         y="45.240093"
         id="rect3767-8-8-0-1"
         style="font-size:16px;font-style:normal;font-variant:normal;font-weight:bold;font-stretch:normal;text-align:start;line-height:125%;writing-mode:lr-tb;text-anchor:start;font-family:Sans;-inkscape-font-specification:Sans Bold" /></flowRegion><flowPara
       id="flowPara3769-4-9-9-5">Timezone</flowPara></flowRoot>  <flowRoot
     transform="matrix(0.49020578,0,0,0.49020578,137.89035,44.298158)"
     id="flowRoot3862-5-9-8-3"
     xml:space="preserve"
     style="font-size:16px;font-style:normal;font-weight:normal;line-height:125%;letter-spacing:0px;word-spacing:0px;fill:#000000;fill-opacity:1;stroke:none;font-family:Sans"><flowRegion
       id="flowRegion3864-8-8-7-7"><rect
         width="201.42857"
         height="201.42857"
         x="45.714287"
         y="70.933609"
         id="rect3866-4-6-1-3" /></flowRegion><flowPara
       id="flowPara3888-8-1-2-6"
       style="font-weight:normal;-inkscape-font-specification:Sans Bold">(Eastern Time)</flowPara></flowRoot>  <flowRoot
     transform="matrix(0.49020578,0,0,0.49020578,103.99666,43.881205)"
     id="flowRoot3862-5-9-8-6-4"
     xml:space="preserve"
     style="font-size:16px;font-style:normal;font-weight:normal;line-height:125%;letter-spacing:0px;word-spacing:0px;fill:#000000;fill-opacity:1;stroke:none;font-family:Sans"><flowRegion
       id="flowRegion3864-8-8-7-4-6"><rect
         width="201.42857"
         height="201.42857"
         x="45.714287"
         y="70.933609"
         id="rect3866-4-6-1-9-9" /></flowRegion><flowPara
       id="flowPara3888-8-1-2-2-3"
       style="font-weight:normal;-inkscape-font-specification:Sans Bold">09:03</flowPara></flowRoot>  <rect
     width="65.68119"
     height="12.915348"
     x="122.55151"
     y="26.079178"
     id="rect29250"
     style="fill:none;stroke:#000000;stroke-width:0.95988774;stroke-miterlimit:4;stroke-opacity:1;stroke-dasharray:3.83955086, 3.83955086;stroke-dashoffset:0" />
  <rect
     width="65.68119"
     height="12.915348"
     x="122.15101"
     y="42.049229"
     id="rect29250-7"
     style="fill:none;stroke:#000000;stroke-width:0.95988774;stroke-miterlimit:4;stroke-opacity:1;stroke-dasharray:3.83955086, 3.83955086;stroke-dashoffset:0" />
  <rect
     width="65.68119"
     height="12.915348"
     x="122.151"
     y="59.270519"
     id="rect29250-6"
     style="fill:none;stroke:#000000;stroke-width:0.95988774;stroke-miterlimit:4;stroke-opacity:1;stroke-dasharray:3.83955086, 3.83955086;stroke-dashoffset:0" />
  <rect
     width="101.28108"
     height="12.915348"
     x="121.35001"
     y="77.292801"
     id="rect29250-1"
     style="fill:none;stroke:#000000;stroke-width:1;stroke-miterlimit:4;stroke-opacity:1;stroke-dasharray:4, 4;stroke-dashoffset:0" />
  <rect
     width="69.505913"
     height="21.452444"
     x="366.81442"
     y="69.203888"
     id="rect7125-7-0-1"
     style="fill:#000000;fill-opacity:0.00392157;stroke:#000000;stroke-width:1;stroke-linecap:round;stroke-linejoin:round;stroke-miterlimit:4;stroke-opacity:1;stroke-dasharray:none;stroke-dashoffset:0" />
  <flowRoot
     transform="translate(558.48561,-214.82649)"
     id="flowRoot7127-5-4-8"
     xml:space="preserve"
     style="font-size:12px;font-style:normal;font-variant:normal;font-weight:600;font-stretch:normal;text-align:start;line-height:125%;letter-spacing:0px;word-spacing:0px;writing-mode:lr-tb;text-anchor:start;fill:#000000;fill-opacity:1;stroke:none;font-family:Source Sans Pro;-inkscape-font-specification:Source Sans Pro Semi-Bold"><flowRegion
       id="flowRegion7129-2-6-2"><rect
         width="90.958359"
         height="29.175323"
         x="-183.63292"
         y="286.60464"
         id="rect7131-9-4-4" /></flowRegion><flowPara
       id="flowPara7133-1-8-8">Erase</flowPara></flowRoot></svg>
