<?xml version="1.0" encoding="utf-8"?>
<!-- Generator: Adobe Illustrator 17.0.0, SVG Export Plug-In . SVG Version: 6.00 Build 0)  -->
<!DOCTYPE svg PUBLIC "-//W3C//DTD SVG 1.1//EN" "http://www.w3.org/Graphics/SVG/1.1/DTD/svg11.dtd">
<svg version="1.1" xmlns="http://www.w3.org/2000/svg" xmlns:xlink="http://www.w3.org/1999/xlink" x="0px" y="0px" width="1584px"
	 height="1224px" viewBox="-3381.753 1384.046 1584 1224" enable-background="new -3381.753 1384.046 1584 1224"
	 xml:space="preserve">
<g id="Guides" display="none">
</g>
<g id="Spacer" display="none">
</g>
<g id="Layer_1">
	<g id="_x30_1">
		<rect x="-3381.753" y="1384.046" fill="#FFFFFF" width="1584" height="1224"/>
		<g>
			<text transform="matrix(1 0 0 1 -3316.5596 1524.6453)" fill="#4A90D9" font-family="'MyriadPro-Bold'" font-size="100">[1]</text>
		</g>
		<g>
			<text transform="matrix(1 0 0 1 -3309.7534 1597.6549)" fill="#4A90D9" font-family="'MyriadPro-Bold'" font-size="50">Start Tails Button Location</text>
		</g>
		<text transform="matrix(1 0 0 1 -3153.1404 2170.2742)" fill="#4A90D9" font-family="'MyriadPro-Bold'" font-size="24">‘Start Tails’ from the top?</text>
		<rect x="-3153.141" y="2186.019" fill="none" width="448.943" height="277.333"/>
		<text transform="matrix(1 0 0 1 -3153.1404 2201.0852)" enable-background="new    "><tspan x="0" y="0" fill="#AAAAAA" font-family="'MyriadPro-Bold'" font-size="18">Starting Tails from the top canvas frame provides the</tspan><tspan x="0" y="22" fill="#AAAAAA" font-family="'MyriadPro-Bold'" font-size="18">most customizable experience, as it allows people to </tspan><tspan x="0" y="44" fill="#AAAAAA" font-family="'MyriadPro-Bold'" font-size="18">circumvent dealing with any settings configuration and </tspan><tspan x="0" y="66" fill="#AAAAAA" font-family="'MyriadPro-Bold'" font-size="18">moves them forward using Tails’ default settings. </tspan><tspan x="0" y="88" fill="#AAAAAA" font-family="'MyriadPro-Bold'" font-size="18">Starting Tails from the top canvas frame also presents </tspan><tspan x="0" y="110" fill="#AAAAAA" font-family="'MyriadPro-Bold'" font-size="18">an</tspan><tspan x="0" y="132" fill="#AAAAAA" font-family="'MyriadPro-Bold'" font-size="18">opportunity for the settings to be hidden/collapsed </tspan><tspan x="0" y="154" fill="#AAAAAA" font-family="'MyriadPro-Bold'" font-size="18">since ‘Start Tails’ is now removed from the settings</tspan><tspan x="0" y="176" fill="#AAAAAA" font-family="'MyriadPro-Bold'" font-size="18">configuration flow.</tspan><tspan x="0" y="220" fill="#AAAAAA" font-family="'MyriadPro-Bold'" font-size="18">This location is most appropriate if the ‘Start Tails’ </tspan><tspan x="0" y="242" fill="#AAAAAA" font-family="'MyriadPro-Bold'" font-size="18">button can accompany a close[x] that moves people </tspan></text>
		<text transform="matrix(1 0 0 1 -2475.4431 2184.8657)" fill="#4A90D9" font-family="'MyriadPro-Bold'" font-size="24">‘Start Tails’ from the bottom?</text>
		<rect x="-2475.443" y="2200.595" fill="none" width="449.099" height="277.333"/>
		<text transform="matrix(1 0 0 1 -2475.4429 2215.6619)" enable-background="new    "><tspan x="0" y="0" fill="#AAAAAA" font-family="'MyriadPro-Bold'" font-size="18">Starting Tails from the bottom of the canvas provides</tspan><tspan x="0" y="22" fill="#AAAAAA" font-family="'MyriadPro-Bold'" font-size="18">the most logical settings configuration experience, as it </tspan><tspan x="0" y="44" fill="#AAAAAA" font-family="'MyriadPro-Bold'" font-size="18">presents the ‘Start Tails’ button at the end of a linear </tspan><tspan x="0" y="66" fill="#AAAAAA" font-family="'MyriadPro-Bold'" font-size="18">configuration flow.</tspan><tspan x="0" y="110" fill="#AAAAAA" font-family="'MyriadPro-Bold'" font-size="18">This location is most appropriate if the ‘Start Tails’ </tspan><tspan x="0" y="132" fill="#AAAAAA" font-family="'MyriadPro-Bold'" font-size="18">button can stand alone as the only way to move away </tspan><tspan x="0" y="154" fill="#AAAAAA" font-family="'MyriadPro-Bold'" font-size="18">from this screen.  However, this location would also </tspan><tspan x="0" y="176" fill="#AAAAAA" font-family="'MyriadPro-Bold'" font-size="18">work if there is a close[x] located in the top canvas frame </tspan><tspan x="0" y="198" fill="#AAAAAA" font-family="'MyriadPro-Bold'" font-size="18">that moves people back to the Tails boot screen when </tspan><tspan x="0" y="220" fill="#AAAAAA" font-family="'MyriadPro-Bold'" font-size="18">clicked, though there is some imbalance in the compari</tspan><tspan x="436.452" y="220" fill="#AAAAAA" font-family="'MyriadPro-Bold'" font-size="18">-</tspan><tspan x="0" y="242" fill="#AAAAAA" font-family="'MyriadPro-Bold'" font-size="18">son of these two locations given their intended function.</tspan></text>
		<g>
			<text transform="matrix(1 0 0 1 -3153.1404 1700.4951)" fill="#AAAAAA" font-family="'MyriadPro-Bold'" font-size="40">Top</text>
		</g>
		<g>
			<text transform="matrix(1 0 0 1 -2475.4431 1700.4948)" fill="#AAAAAA" font-family="'MyriadPro-Bold'" font-size="40">Bottom</text>
		</g>
		<g>
			<g>
				<path fill="#EDEDED" d="M-2704.042,1749.072h-449.099v368.147h449.099L-2704.042,1749.072L-2704.042,1749.072z"/>
			</g>
			
				<rect x="-3099.455" y="2003.11" fill="#FFFFFF" stroke="#AAAAAA" stroke-width="0.5595" stroke-miterlimit="10" width="341.673" height="60.423"/>
			
				<rect x="-3099.455" y="1915.815" fill="#FFFFFF" stroke="#AAAAAA" stroke-width="0.5595" stroke-miterlimit="10" width="341.673" height="80.569"/>
			<g>
				<text transform="matrix(1 0 0 1 -3086.0247 1929.2404)" fill="#AAAAAA" font-family="'MyriadPro-Regular'" font-size="8.9521">Text Language</text>
				<text transform="matrix(1 0 0 1 -3086.0247 1949.3834)" fill="#AAAAAA" font-family="'MyriadPro-Regular'" font-size="8.9521">Keyboard Language</text>
				<text transform="matrix(1 0 0 1 -3086.0247 1969.5245)" fill="#AAAAAA" font-family="'MyriadPro-Regular'" font-size="8.9521">Formats</text>
				<text transform="matrix(1 0 0 1 -3086.0247 1989.6674)" fill="#AAAAAA" font-family="'MyriadPro-Regular'" font-size="8.9521">Time Zone</text>
			</g>
			<g>
				<text transform="matrix(1 0 0 1 -2815.4937 1929.2413)" fill="#AAAAAA" font-family="'MyriadPro-Regular'" font-size="8.9521">English [US]</text>
				<text transform="matrix(1 0 0 1 -2815.4937 1949.3844)" fill="#AAAAAA" font-family="'MyriadPro-Regular'" font-size="8.9521">English [US]</text>
				<text transform="matrix(1 0 0 1 -2821.1416 1969.5255)" fill="#AAAAAA" font-family="'MyriadPro-Regular'" font-size="8.9521">United States</text>
				<text transform="matrix(1 0 0 1 -2808.7617 1989.6683)" fill="#AAAAAA" font-family="'MyriadPro-Regular'" font-size="8.9521">04:21 UTC</text>
			</g>
			
				<line fill="none" stroke="#AAAAAA" stroke-width="0.5595" stroke-miterlimit="10" x1="-3099.455" y1="1935.958" x2="-2757.781" y2="1935.958"/>
			
				<line fill="none" stroke="#AAAAAA" stroke-width="0.5595" stroke-miterlimit="10" x1="-3099.455" y1="1956.1" x2="-2757.781" y2="1956.1"/>
			
				<line fill="none" stroke="#AAAAAA" stroke-width="0.5595" stroke-miterlimit="10" x1="-3099.455" y1="1976.242" x2="-2757.781" y2="1976.242"/>
			
				<line fill="none" stroke="#AAAAAA" stroke-width="0.5595" stroke-miterlimit="10" x1="-3099.455" y1="2043.391" x2="-2757.781" y2="2043.391"/>
			
				<line fill="none" stroke="#AAAAAA" stroke-width="0.5595" stroke-miterlimit="10" x1="-3099.455" y1="2023.248" x2="-2757.781" y2="2023.248"/>
			<g>
				<text transform="matrix(1 0 0 1 -3086.0247 2016.5341)" fill="#AAAAAA" font-family="'MyriadPro-Regular'" font-size="8.9521">Windows Camouflage</text>
				<text transform="matrix(1 0 0 1 -3086.0247 2036.6771)" fill="#AAAAAA" font-family="'MyriadPro-Regular'" font-size="8.9521">Mac Spoofing</text>
				<text transform="matrix(1 0 0 1 -3086.0247 2056.8184)" fill="#AAAAAA" font-family="'MyriadPro-Regular'" font-size="8.9521">Network Configuration</text>
			</g>
			<g>
				<text transform="matrix(1 0 0 1 -2782.3452 2015.7889)" fill="#AAAAAA" font-family="'MyriadPro-Regular'" font-size="8.9521">On</text>
				<text transform="matrix(1 0 0 1 -2782.5952 2035.932)" fill="#AAAAAA" font-family="'MyriadPro-Regular'" font-size="8.9521">Off</text>
				<text transform="matrix(1 0 0 1 -2782.5952 2056.0732)" fill="#AAAAAA" font-family="'MyriadPro-Regular'" font-size="8.9521">Off</text>
			</g>
			<rect x="-3099.527" y="1863.039" fill="#6EA6E1" width="160.764" height="20.147"/>
			<rect x="-2918.615" y="1863.039" fill="#FFFFFF" width="160.959" height="20.147"/>
			<rect x="-2918.615" y="1863.039" fill="#CCCCCC" width="20.147" height="20.147"/>
			
				<rect x="-2918.615" y="1863.039" fill="none" stroke="#AAAAAA" stroke-width="0.5595" stroke-miterlimit="10" width="160.959" height="20.147"/>
			<text transform="matrix(1 0 0 1 -3063.0906 1876.0553)" fill="#FFFFFF" font-family="'MyriadPro-Regular'" font-size="8.9521">Configure Encrypted Storage</text>
			<path fill="#EDEDED" d="M-3153.141,1749.072v-29.5c0-2.472,2.004-4.476,4.476-4.476h440.146c2.472,0,4.476,2.004,4.476,4.476
				v29.5H-3153.141z"/>
			<g>
				<path fill="#AAAAAA" d="M-3128.949,1727.856l-4.246,4.246l4.083,4.083l-1.084,1.084l-4.083-4.083l-4.282,4.282l-1.156-1.156
					l4.282-4.282l-4.084-4.084l1.084-1.084l4.084,4.084l4.246-4.246L-3128.949,1727.856z"/>
			</g>
			<line fill="none" stroke="#AAAAAA" stroke-miterlimit="10" x1="-3153.141" y1="1749.072" x2="-2704.042" y2="1749.072"/>
			<text transform="matrix(1 0 0 1 -3099.5256 1856.3246)" fill="#AAAAAA" font-family="'MyriadPro-Bold'" font-size="10">Storage</text>
			
				<text transform="matrix(1 0 0 1 -2933.093 1876.0555)" fill="#AAAAAA" font-family="'MyriadPro-Regular'" font-size="10.4442" text-decoration=" underline">or</text>
			<g>
				<text transform="matrix(1 0 0 1 -2997.8201 1783.3324)" fill="#AAAAAA" font-family="'MyriadPro-Regular'" font-size="18">Welcome to Tails.  </text>
			</g>
			<g>
				<text transform="matrix(1 0 0 1 -3031.822 1798.3324)" fill="#AAAAAA" font-family="'MyriadPro-Regular'" font-size="10.4442">These are your DEFAULT configuration settings.</text>
			</g>
			<g>
				
					<text transform="matrix(1 0 0 1 -2978.281 1820.3634)" fill="#4A90D9" font-family="'MyriadPro-Regular'" font-size="10.4442" text-decoration=" underline">Learn more about Tails</text>
			</g>
			<g>
				<path fill="#4A90D9" d="M-2770.68,1742.476c0,0.775,0.628,1.404,1.404,1.404h59.055c0.775,0,1.404-0.629,1.404-1.404v-21.201
					c0-0.775-0.628-1.404-1.404-1.404h-59.055c-0.775,0-1.404,0.629-1.404,1.404V1742.476z"/>
				<text transform="matrix(1 0 0 1 -2760.7461 1735.5887)" fill="#FFFFFF" font-family="'MyriadPro-Regular'" font-size="10.4442">Start Tails</text>
			</g>
			<rect x="-3099.526" y="1863.039" fill="#4A90D9" width="20.147" height="20.147"/>
			
				<rect x="-3099.527" y="1863.039" fill="none" stroke="#AAAAAA" stroke-width="0.3837" stroke-miterlimit="10" width="160.764" height="20.147"/>
			<path fill="#FFFFFF" d="M-3085.757,1877.548h-7.393v-5.175h0.986v-0.986c0-1.497,1.213-2.711,2.71-2.711s2.711,1.214,2.711,2.711
				v0.986h0.986V1877.548z M-3089.453,1870.155c-0.68,0-1.232,0.551-1.232,1.232v0.986h2.464v-0.986
				C-3088.22,1870.706-3088.771,1870.155-3089.453,1870.155z"/>
			
				<line fill="none" stroke="#AAAAAA" stroke-width="0.5595" stroke-miterlimit="10" x1="-2898.469" y1="1863.039" x2="-2898.469" y2="1883.185"/>
			<g>
				<text transform="matrix(1 0 0 1 -2892.7234 1876.1293)" fill="#EDEDED" font-family="'MyriadPro-Regular'" font-size="8.9521">Enter your passphrase to unlock</text>
			</g>
			<text transform="matrix(1 0 0 1 -2893.9714 1875.5643)" fill="#AAAAAA" font-family="'MyriadPro-Regular'" font-size="10.4442">|</text>
			<path fill="#AAAAAA" d="M-2904.907,1878.185h-7.393v-5.175h0.986v-0.986c0-1.497,1.214-2.711,2.711-2.711
				c0.929,0,1.708,0.497,2.197,1.209l-1.055,1.055c-0.179-0.459-0.62-0.786-1.142-0.786c-0.68,0-1.232,0.552-1.232,1.232v0.986
				h4.928V1878.185z"/>
			<g>
				<text transform="matrix(1 0 0 1 -3099.5256 1909.2833)" fill="#AAAAAA" font-family="'MyriadPro-Bold'" font-size="10">Settings</text>
			</g>
			<g>
				<text transform="matrix(1 0 0 1 -2866.6548 1909.233)" fill="#AAAAAA" font-family="'MyriadPro-Regular'" font-size="8.9521">Save Settings Preferences</text>
			</g>
			<g>
				<polygon fill="#FFFFFF" points="-2745.544,1775.967 -2745.544,1759.952 -2733.954,1771.571 -2740.735,1771.571 
					-2741.146,1771.695 				"/>
				<polygon fill="#FFFFFF" points="-2736.46,1776.641 -2740.065,1778.176 -2744.748,1767.087 -2741.062,1765.535 				"/>
				
					<rect x="-2741.359" y="1768.837" transform="matrix(-0.922 0.3871 -0.3871 -0.922 -4580.874 4468.208)" width="2" height="7.999"/>
				<polygon points="-2744.544,1762.359 -2744.544,1773.547 -2741.575,1770.681 -2741.147,1770.542 -2736.38,1770.542 				"/>
			</g>
			
				<rect x="-2763.219" y="1903.49" fill="none" stroke="#AAAAAA" stroke-width="0.5595" stroke-miterlimit="10" width="5.437" height="5.743"/>
		</g>
		<g>
			<g>
				<path fill="#EDEDED" d="M-2026.344,1749.072h-449.099v382.719h449.099V1749.072L-2026.344,1749.072z"/>
			</g>
			
				<rect x="-2421.756" y="2003.11" fill="#FFFFFF" stroke="#AAAAAA" stroke-width="0.5595" stroke-miterlimit="10" width="341.673" height="60.423"/>
			
				<rect x="-2421.756" y="1915.815" fill="#FFFFFF" stroke="#AAAAAA" stroke-width="0.5595" stroke-miterlimit="10" width="341.673" height="80.569"/>
			<g>
				<text transform="matrix(1 0 0 1 -2408.3269 1929.2393)" fill="#AAAAAA" font-family="'MyriadPro-Regular'" font-size="8.9521">Text Language</text>
				<text transform="matrix(1 0 0 1 -2408.3269 1949.3823)" fill="#AAAAAA" font-family="'MyriadPro-Regular'" font-size="8.9521">Keyboard Language</text>
				<text transform="matrix(1 0 0 1 -2408.3269 1969.5234)" fill="#AAAAAA" font-family="'MyriadPro-Regular'" font-size="8.9521">Formats</text>
				<text transform="matrix(1 0 0 1 -2408.3269 1989.6663)" fill="#AAAAAA" font-family="'MyriadPro-Regular'" font-size="8.9521">Time Zone</text>
			</g>
			<g>
				<text transform="matrix(1 0 0 1 -2137.7964 1929.2402)" fill="#AAAAAA" font-family="'MyriadPro-Regular'" font-size="8.9521">English [US]</text>
				<text transform="matrix(1 0 0 1 -2137.7964 1949.3833)" fill="#AAAAAA" font-family="'MyriadPro-Regular'" font-size="8.9521">English [US]</text>
				<text transform="matrix(1 0 0 1 -2143.4443 1969.5244)" fill="#AAAAAA" font-family="'MyriadPro-Regular'" font-size="8.9521">United States</text>
				<text transform="matrix(1 0 0 1 -2131.0645 1989.6672)" fill="#AAAAAA" font-family="'MyriadPro-Regular'" font-size="8.9521">04:21 UTC</text>
			</g>
			
				<line fill="none" stroke="#AAAAAA" stroke-width="0.5595" stroke-miterlimit="10" x1="-2421.757" y1="1935.958" x2="-2080.084" y2="1935.958"/>
			
				<line fill="none" stroke="#AAAAAA" stroke-width="0.5595" stroke-miterlimit="10" x1="-2421.757" y1="1956.1" x2="-2080.084" y2="1956.1"/>
			
				<line fill="none" stroke="#AAAAAA" stroke-width="0.5595" stroke-miterlimit="10" x1="-2421.757" y1="1976.242" x2="-2080.084" y2="1976.242"/>
			
				<line fill="none" stroke="#AAAAAA" stroke-width="0.5595" stroke-miterlimit="10" x1="-2421.757" y1="2043.391" x2="-2080.084" y2="2043.391"/>
			
				<line fill="none" stroke="#AAAAAA" stroke-width="0.5595" stroke-miterlimit="10" x1="-2421.757" y1="2023.248" x2="-2080.084" y2="2023.248"/>
			<g>
				<text transform="matrix(1 0 0 1 -2408.3269 2016.533)" fill="#AAAAAA" font-family="'MyriadPro-Regular'" font-size="8.9521">Windows Camouflage</text>
				<text transform="matrix(1 0 0 1 -2408.3269 2036.676)" fill="#AAAAAA" font-family="'MyriadPro-Regular'" font-size="8.9521">Mac Spoofing</text>
				<text transform="matrix(1 0 0 1 -2408.3269 2056.8171)" fill="#AAAAAA" font-family="'MyriadPro-Regular'" font-size="8.9521">Network Configuration</text>
			</g>
			<g>
				<text transform="matrix(1 0 0 1 -2104.6479 2015.7878)" fill="#AAAAAA" font-family="'MyriadPro-Regular'" font-size="8.9521">On</text>
				<text transform="matrix(1 0 0 1 -2104.8979 2035.9309)" fill="#AAAAAA" font-family="'MyriadPro-Regular'" font-size="8.9521">Off</text>
				<text transform="matrix(1 0 0 1 -2104.8979 2056.072)" fill="#AAAAAA" font-family="'MyriadPro-Regular'" font-size="8.9521">Off</text>
			</g>
			<rect x="-2421.828" y="1863.039" fill="#6EA6E1" width="160.764" height="20.147"/>
			<rect x="-2240.918" y="1863.039" fill="#FFFFFF" width="160.959" height="20.147"/>
			<rect x="-2240.918" y="1863.039" fill="#CCCCCC" width="20.147" height="20.147"/>
			
				<rect x="-2240.918" y="1863.039" fill="none" stroke="#AAAAAA" stroke-width="0.5595" stroke-miterlimit="10" width="160.959" height="20.147"/>
			<text transform="matrix(1 0 0 1 -2385.3923 1876.0549)" fill="#FFFFFF" font-family="'MyriadPro-Regular'" font-size="8.9521">Configure Encrypted Storage</text>
			<path fill="#EDEDED" d="M-2475.443,1749.072v-29.5c0-2.472,2.004-4.476,4.476-4.476h440.147c2.472,0,4.476,2.004,4.476,4.476
				v29.5H-2475.443z"/>
			<g>
				<path fill="#AAAAAA" d="M-2451.252,1727.856l-4.246,4.246l4.083,4.083l-1.084,1.084l-4.083-4.083l-4.282,4.282l-1.156-1.156
					l4.282-4.282l-4.084-4.084l1.084-1.084l4.084,4.084l4.246-4.246L-2451.252,1727.856z"/>
			</g>
			<line fill="none" stroke="#AAAAAA" stroke-miterlimit="10" x1="-2475.443" y1="1749.072" x2="-2026.344" y2="1749.072"/>
			<text transform="matrix(1 0 0 1 -2421.8279 1856.3237)" fill="#AAAAAA" font-family="'MyriadPro-Bold'" font-size="10">Storage</text>
			
				<text transform="matrix(1 0 0 1 -2255.396 1876.0547)" fill="#AAAAAA" font-family="'MyriadPro-Regular'" font-size="10.4442" text-decoration=" underline">or</text>
			<g>
				<text transform="matrix(1 0 0 1 -2320.1228 1783.3313)" fill="#AAAAAA" font-family="'MyriadPro-Regular'" font-size="18">Welcome to Tails.  </text>
			</g>
			<g>
				<text transform="matrix(1 0 0 1 -2354.1248 1798.3313)" fill="#AAAAAA" font-family="'MyriadPro-Regular'" font-size="10.4442">These are your DEFAULT configuration settings.</text>
			</g>
			<g>
				
					<text transform="matrix(1 0 0 1 -2300.5837 1820.363)" fill="#4A90D9" font-family="'MyriadPro-Regular'" font-size="10.4442" text-decoration=" underline">Learn more about Tails</text>
			</g>
			<g>
				<path fill="#4A90D9" d="M-2282.922,2107.521c0,0.775,0.628,1.404,1.404,1.404h59.055c0.775,0,1.404-0.628,1.404-1.404v-21.201
					c0-0.775-0.628-1.404-1.404-1.404h-59.055c-0.775,0-1.404,0.629-1.404,1.404V2107.521z"/>
				<text transform="matrix(1 0 0 1 -2272.9878 2100.6313)" fill="#FFFFFF" font-family="'MyriadPro-Regular'" font-size="10.4442">Start Tails</text>
			</g>
			<rect x="-2421.829" y="1863.039" fill="#4A90D9" width="20.147" height="20.147"/>
			
				<rect x="-2421.828" y="1863.039" fill="none" stroke="#AAAAAA" stroke-width="0.3837" stroke-miterlimit="10" width="160.764" height="20.147"/>
			<path fill="#FFFFFF" d="M-2408.058,1877.548h-7.393v-5.175h0.986v-0.986c0-1.497,1.214-2.711,2.711-2.711
				s2.711,1.214,2.711,2.711v0.986h0.986L-2408.058,1877.548L-2408.058,1877.548z M-2411.755,1870.155
				c-0.68,0-1.232,0.551-1.232,1.232v0.986h2.464v-0.986C-2410.523,1870.706-2411.074,1870.155-2411.755,1870.155z"/>
			
				<line fill="none" stroke="#AAAAAA" stroke-width="0.5595" stroke-miterlimit="10" x1="-2220.771" y1="1863.039" x2="-2220.771" y2="1883.185"/>
			<g>
				<text transform="matrix(1 0 0 1 -2215.0264 1876.1284)" fill="#EDEDED" font-family="'MyriadPro-Regular'" font-size="8.9521">Enter your passphrase to unlock</text>
			</g>
			<text transform="matrix(1 0 0 1 -2216.2744 1875.5645)" fill="#AAAAAA" font-family="'MyriadPro-Regular'" font-size="10.4442">|</text>
			<path fill="#AAAAAA" d="M-2227.21,1878.185h-7.393v-5.175h0.986v-0.986c0-1.497,1.214-2.711,2.711-2.711
				c0.929,0,1.708,0.497,2.197,1.209l-1.055,1.055c-0.179-0.459-0.62-0.786-1.142-0.786c-0.68,0-1.232,0.552-1.232,1.232v0.986
				h4.928V1878.185z"/>
			<g>
				<text transform="matrix(1 0 0 1 -2421.8279 1909.2822)" fill="#AAAAAA" font-family="'MyriadPro-Bold'" font-size="10">Settings</text>
			</g>
			<g>
				<text transform="matrix(1 0 0 1 -2188.9575 1909.2322)" fill="#AAAAAA" font-family="'MyriadPro-Regular'" font-size="8.9521">Save Settings Preferences</text>
			</g>
			<g>
				<polygon fill="#FFFFFF" points="-2207.534,2109.109 -2207.534,2093.094 -2195.943,2104.713 -2202.724,2104.713 
					-2203.135,2104.837 				"/>
				<polygon fill="#FFFFFF" points="-2198.449,2109.784 -2202.054,2111.318 -2206.736,2100.229 -2203.05,2098.677 				"/>
				
					<rect x="-2203.32" y="2101.983" transform="matrix(-0.922 0.3871 -0.3871 -0.922 -3417.7842 4900.2676)" width="2" height="7.999"/>
				<polygon points="-2206.534,2095.5 -2206.534,2106.688 -2203.565,2103.823 -2203.137,2103.685 -2198.369,2103.685 				"/>
			</g>
			
				<rect x="-2085.52" y="1903.49" fill="none" stroke="#AAAAAA" stroke-width="0.5595" stroke-miterlimit="10" width="5.437" height="5.743"/>
		</g>
		<g>
			<text transform="matrix(1 0 0 1 -2619.1523 1996.046)" fill="#4A90D9" font-family="'MyriadPro-Bold'" font-size="50">VS</text>
		</g>
	</g>
</g>
</svg>
