<svg xmlns="http://www.w3.org/2000/svg" viewBox="0 0 350 400"><defs><style>.cls-1{fill:#d6d7d9;}.cls-2{fill:#fff;}.cls-3{fill:#7a478b;}.cls-4{fill:#9c6bad;}.cls-5,.cls-6{fill:#393a35;}.cls-6{opacity:0.44;}.cls-7{fill:#af97c7;}.cls-10,.cls-11,.cls-8{fill:none;}.cls-8{stroke:#fff;stroke-linecap:round;stroke-linejoin:round;}.cls-9{fill:#b5b7b9;}.cls-10,.cls-11{stroke:#393a35;stroke-miterlimit:10;}.cls-11{stroke-dasharray:2.15 2.15;}.cls-12{fill:#a0a2a5;}</style></defs><title>tails_2.2_amnesia</title><g id="Layer_5" data-name="Layer 5"><path class="cls-1" d="M168.28,14.24C255.08,7,250.09,90.45,279.16,141.63s65.21,66,66,115.62c1.61,94.54-57.47,115.57-173.3,115C55.87,371.7-20.81,332.73,12,240.89,27.71,197,65.84,187,81.88,125.9,90.41,93.4,96.85,20.19,168.28,14.24Z"/></g><g id="Layer_6" data-name="Layer 6"><path class="cls-2" d="M175.92,350.68h14c.17-2.38.85-6.94,3.51-9.76a2.4,2.4,0,0,0-3.49-3.29c-2.86,3.05-4.05,7.23-4.54,10.36a93.36,93.36,0,0,0-.23-10,2.4,2.4,0,0,0-4.76.61,97.75,97.75,0,0,1,.18,10.28c-.23-3.13-1-7.64-3.36-10.75a2.4,2.4,0,1,0-3.81,2.91C175.34,343.51,175.85,348,175.92,350.68Z"/><path class="cls-2" d="M291.28,310.42a2.39,2.39,0,0,0-3.38.1,18.78,18.78,0,0,0-4.34,9.25c0,.23-.05.47-.07.7-.34-3-1.18-6.77-3.24-9.47a2.4,2.4,0,1,0-3.82,2.9c1.9,2.49,2.41,7,2.48,9.67h9c.18-2.38.86-6.94,3.52-9.77A2.38,2.38,0,0,0,291.28,310.42Z"/><path class="cls-2" d="M90.88,303.51a2.4,2.4,0,0,0-3.39.11,18.87,18.87,0,0,0-4.34,9.25l-.06.69c-.34-3-1.19-6.76-3.25-9.46A2.39,2.39,0,1,0,76,307c1.9,2.49,2.41,7,2.48,9.67h9c.17-2.38.86-6.94,3.51-9.77A2.4,2.4,0,0,0,90.88,303.51Z"/><path class="cls-2" d="M294.67,219.32a2.39,2.39,0,0,0-3.38.1,18.77,18.77,0,0,0-4.34,9.26c0,.23-.05.46-.07.69-.34-3-1.18-6.77-3.24-9.47a2.4,2.4,0,0,0-3.82,2.91c1.9,2.49,2.41,7,2.48,9.66h9c.18-2.38.86-6.94,3.52-9.76A2.39,2.39,0,0,0,294.67,219.32Z"/><path class="cls-2" d="M42.9,220.68h14c.17-2.38.86-6.94,3.52-9.77a2.4,2.4,0,0,0-3.5-3.28c-2.86,3.05-4,7.23-4.53,10.36a90.54,90.54,0,0,0-.24-10,2.39,2.39,0,1,0-4.75.61,100.57,100.57,0,0,1,.18,10.28c-.24-3.13-1-7.64-3.36-10.75a2.4,2.4,0,0,0-3.82,2.9C42.32,213.51,42.83,218,42.9,220.68Z"/></g><g id="Layer_3" data-name="Layer 3"><path class="cls-3" d="M207,263.22c1.05.77.37,4-1.41,6.07s-7,7.5-7,7.5L194.63,274l1.83-2.55s1.38,1.43,3.37-.83S205.89,262.43,207,263.22Z"/><path class="cls-4" d="M192.62,281.33s7.47,6.76,10.47-.4,6.44-13.39,6.91-14.75-1-3.29-2.82-1.41-6,9.87-7.63,9a16.62,16.62,0,0,1-3.45-2.61Z"/><path class="cls-4" d="M151.85,191.24s25.55,61.91,44.61,80.22l-3.84,9.87C187,276.38,139.56,222,134,196.25,138.51,194.05,151.85,191.24,151.85,191.24Z"/><polygon class="cls-5" points="163.24 216.71 147.54 224.23 130.33 197.22 151.04 188.14 163.24 216.71"/><path class="cls-3" d="M162.08,191.24s39.69,45,56.7,54.42c-2.75,5.68-6.29,7-6.29,7s-55.21-43.69-69.3-61C148.78,190,162.08,191.24,162.08,191.24Z"/><path class="cls-5" d="M174.45,204.82l-9.2,8.46s-26.59-22.84-26.31-22.57,20.52-2.87,20.52-2.87Z"/><path class="cls-4" d="M63.8,260.21l-29.57,13s-11,5-.08,7.48c11.09-.3,37.55-2.91,37.55-2.91Z"/><polygon class="cls-6" points="59.44 262.13 62.35 278.65 70.4 277.89 62.59 260.86 59.44 262.13"/><path class="cls-4" d="M136.24,256.32l-20,25.38s-2.6,6,3.94,4.2c6.08-3.76,31.66-18.86,31.66-18.86Z"/><polygon class="cls-6" points="132.77 260.73 140.71 273.63 150.77 267.48 135.27 257.55 132.77 260.73"/><path class="cls-2" d="M96.88,226.81,79.77,251.66l-20.71,8,11.73,28.66s17.94-10.78,26.09-19.05,27.33-39.35,27.33-39.35Z"/><polygon class="cls-6" points="92.67 232.92 114.81 244.62 124.21 229.89 96.88 226.81 92.67 232.92"/><path class="cls-2" d="M89.2,193.77s-20.78,28.23,5,36.37,55.95,5.94,55.95,5.94L131,257l22.51,19.58,25-34.59c4.2-5.69,10.08-20.71-8.5-25.33-17.56-4.37-41.31-7.87-41.31-7.87S102.34,201.39,89.2,193.77Z"/><path class="cls-5" d="M176.47,195.92s-28.19-12.57-47.71,12.86c-10.84-2.06-38.85-11.43-39.56-15,7.62-7.46,23.5-22.8,49-19.65s37.56,10.57,37.56,10.57Z"/><path class="cls-4" d="M175.75,184.69s-4.83-3-14.81-5.94c-4.56,4.48-7.82,9.76-4.82,14.25,9.14.11,20.35,2.92,20.35,2.92Z"/><polyline class="cls-6" points="166.59 193.98 166.86 187.34 168.77 186.39 172.45 195.03"/><path class="cls-4" d="M211.24,176l-14.71,25.19-4.69-3.57-12.7,9.62L172.45,195l-3.19-5.8s13.17-31.78,25.33-29.89C197.25,159.75,204.11,162.1,211.24,176Z"/><path class="cls-5" d="M185.12,193c0-.13-.19-.2-.25-.07-1.33,2.85-.17,6.21,1.74,8.58l1.38-1A10.43,10.43,0,0,1,185.12,193Z"/><path class="cls-7" d="M107,168.89s10.22-10.91,19.18-7.19,9,6,12,5.49,6.91-3.49,10.07-3.64c4.93-.23,8.65,7,12.19,8.72,3.81,1.82,9.56.22,11.14-4.62,2-6.19.08-13.37,7.42-16,6.15-2.18,12,1.12,18.81,6.2a33,33,0,0,1,9.85,12s-7.82-3.31-16.94,2.46c-5.42,3.44-6.94,10.28-14.26,14.9-7.79,4.92-16.58-.4-23.69-.4-5,0-7.68,4.27-12.55,4.19s-7.25-3-12-2.59a14.41,14.41,0,0,0-7.43,3.24A93,93,0,0,1,107,168.89Z"/><path class="cls-8" d="M117.57,187.51s3.43-5.08,9.16-4.51,6.22,3,11.46,2.46,7.05-4.32,12-4.32,13.33,4.29,19,3.39c5.15-.8,7.64-3.89,10.43-7.15s6.39-9.22,10.56-11.49c3.37-1.83,9.25-2.31,14.05-1.52"/><path class="cls-8" d="M113.05,180.71s6.26-4.83,10.78-4.49c5.88.45,9.6,4.71,14,3.15s5.49-4.36,10.9-4.12,12.76,6.24,18.55,5.46c4.6-.62,7.59-4.22,9.7-7.77,1.52-2.58,5-9.3,9.18-11.48,2.67-1.38,7.68-1.91,13.52-2.05"/><path class="cls-8" d="M110,175.38s6-7.07,11.69-6.9,8,4.52,13.23,4.35c5-.16,8.56-3.83,13.72-3.31,5.32.54,11,7.75,17.67,7,5.66-.66,7.66-5.12,10.12-11.39,2.7-6.88,7.05-11.72,15.57-10.92"/><path class="cls-2" d="M190.73,176.44c-3,4.34-2.65,12.89,8.31,11.56C201.43,183.23,198.63,175,190.73,176.44Z"/><path class="cls-5" d="M199,188a8.41,8.41,0,0,0,.82-4.13,3.79,3.79,0,0,0-3-1.38,4.38,4.38,0,0,0-4,5A12.21,12.21,0,0,0,199,188Z"/><path class="cls-5" d="M202.25,178.17a14.56,14.56,0,0,0-3-3.78.12.12,0,0,0-.19.15,32.29,32.29,0,0,1,2.24,4.48c.28.82.34,2.2,1.1,2.72a.59.59,0,0,0,.86-.35C203.54,180.47,202.66,179,202.25,178.17Z"/><path class="cls-9" d="M113.1,204.53A68.91,68.91,0,0,1,107,216.16s29.42,8.31,35.72,8.07c1.29-3.15,4.71-12.45,4.71-12.45"/><path class="cls-10" d="M118.5,206.24s-.1.35-.3.95"/><path class="cls-11" d="M117.5,209.22a54,54,0,0,1-3,6.92"/><path class="cls-10" d="M114,217.09l-.51.85"/><path class="cls-5" d="M116.32,281.62s-6.43-.6-11.54,6.67c1.43,2.75,7,8.36,11.77,10.77,3.78,0,28.12-1.22,28.12-1.22s1.66-12.11-11.68-11c-4.1.35-10,2.76-12.27,1.69-2.87-1.33.53-3.32.53-3.32Z"/><path class="cls-4" d="M116.32,281.62l-3.2,2.53s.76,12,14.44,5.62c-4.92,0-10.67-1.89-6.31-4.52Z"/><path class="cls-5" d="M33.67,273.47s-3.67-4.85-8.76-5.42c-4.08,6.24-11.29,20.57-11.29,20.57s-3.28,9.41,5.33,9,25.14-.44,25.14-.44.58-8.12-15.55-9.49c1.47-2.1,5.61-7,5.61-7Z"/><path class="cls-4" d="M33.67,273.47l-3.53-.38s-12.63,12.07-4.09,18.09c.23-4.91,2.66-10.78,8.1-10.5Z"/><path class="cls-12" d="M332.86,286.54c-4.12-2.8-8.52-.26-12.85.37s-8.71-2.33-12.86-3c-3.44-.56-6.21-.05-9.54.27-4.08.39-7.16-2.76-11-3.69a34.51,34.51,0,0,0-10.24-.64c-7.4.5-14.56,4.45-22,3.82-2.55-.22-4.9-1.26-7.34-1.83,1.1-1.19,3.1-1.6,4.14-2.91,1.72-2.17,1-5.14,2.21-7.56,2.14-4.31.8-6.05-1.63-9.73s-3.1-8.47-7.38-10.75a21.37,21.37,0,0,0-14.86-1.16c-2.44.85-5.17,1.37-7.53,2.38s-2.69,2.37-4.2,4.15-3.87,2.13-5.49,3.73c-2,2-1.85,3.93-2.63,6.48-1.41,4.59-5.42,7.33-3.61,12.68.57,1.71,1,3.56,1.51,5.25a5.82,5.82,0,0,0,.87,1.92c1.18,1.57,3.16,1.62,4.6,2.71s2.3,2.68,4.2,3.34c2.73.95,5.88-.17,8.64-.31a62,62,0,0,1,10.17.8,55,55,0,0,0,11-.1c7.67-.61,15.39.35,23.09-.06,7.15-.38,14,.67,21.1-.45,4.08-.64,7.53-.09,11.59.34a102,102,0,0,0,12.11.12c3.93-.05,7.75.49,11.66.65,2,.09,9.42-.21,9.42-.21C336,291.66,334.93,287.94,332.86,286.54Z"/><path class="cls-10" d="M247,281.82s-4.39.85-6.78,2.61-3.37,2.09-7.64,2.41-5.57.48-9.28,0-4.67-2.18-7.62-3.71-5.29-2.26-4.73-5.33,2.67-4.52,3.23-7.34,0-2.2,2.42-5.66,2.66-3.78,6.38-5.23,3.79-1.29,6-2.58,3.95-1.29,7.9-1.13,4.85-.66,6.46,2.65,4.47,5.82,3.69,8.24-.28,1.15-1.95,4.37-.75,3.86-4.83,5.8a28.22,28.22,0,0,0-5.54,3.14c-2.59,1.62-6.92,1.26-9.43.87s-3.56,1.41-4.61-2.31-2.2-4.61-.9-7.76.09-1.77,4-4.68,3.07-2.5,6.46-3.55,3-2.9,4.92-1,2.26,2.42,3.55,2.94,2.5,1.85-.16,4.29-2,2.18-4.65,4.09-3.1,4.09-4.71,1.95-2.83-1.95-1.82-3.74.37-2.84,2.46-2.6,2.34-.62,3.23-.56"/><path class="cls-3" d="M212.49,252.7s5.09,4.82,7.83,2.08,10.52-5.1,17.67-4.45c1.89.16,2.64-2.1,0-2.91a29.57,29.57,0,0,0-12.13-.24,9.5,9.5,0,0,1-7.08-1.52Z"/></g></svg>