<svg xmlns="http://www.w3.org/2000/svg" xmlns:xlink="http://www.w3.org/1999/xlink" viewBox="0 0 350 400"><defs><style>.cls-1{fill:none;}.cls-2{fill:#dadbdc;}.cls-3{fill:#af97c7;}.cls-4{fill:#9c6bad;}.cls-10,.cls-5{fill:#393a35;}.cls-12,.cls-6{fill:#7a478b;}.cls-10,.cls-6{opacity:0.44;}.cls-7{fill:#a0a2a5;}.cls-8{clip-path:url(#clip-path);}.cls-9{fill:#58595b;}.cls-11{fill:#fff;}</style><clipPath id="clip-path"><path class="cls-1" d="M147.29,297.05c-.58,6.3,4.73,9.52,19.55,9.62s22.73-1.28,23.06-6.57c.41-6.6-10.64-9.21-21.44-9.74S147.87,290.67,147.29,297.05Z"/></clipPath></defs><title>tails_2.1_anywhere</title><g id="Layer_7" data-name="Layer 7"><rect class="cls-2" x="25.83" y="65.27" width="86.93" height="86.93"/><circle class="cls-2" cx="69.3" cy="68.32" r="43.47"/><rect class="cls-2" x="93.86" y="96.29" width="55.92" height="55.92"/><circle class="cls-2" cx="121.82" cy="98.25" r="27.96"/><rect class="cls-2" x="260.85" y="67.86" width="58.81" height="58.81" transform="translate(580.51 194.52) rotate(-180)"/><circle class="cls-2" cx="290.26" cy="69.92" r="29.41"/><rect class="cls-2" x="220.99" y="57.67" width="48.45" height="48.45" transform="translate(490.42 163.78) rotate(-180)"/><circle class="cls-2" cx="245.21" cy="59.36" r="24.23"/></g><g id="Layer_1" data-name="Layer 1"><path class="cls-2" d="M187.53,377.63h15.8c.2-2.69,1-7.82,4-11a2.7,2.7,0,1,0-3.93-3.7c-3.23,3.43-4.57,8.14-5.12,11.67A103,103,0,0,0,198,363.3a2.7,2.7,0,0,0-5.36.69,110.24,110.24,0,0,1,.21,11.58c-.27-3.53-1.13-8.61-3.79-12.11a2.7,2.7,0,0,0-4.3,3.27C186.88,369.54,187.45,374.59,187.53,377.63Z"/><path class="cls-2" d="M43.12,169.94a2.7,2.7,0,0,0-3.82.11,21.14,21.14,0,0,0-4.89,10.43c0,.26,0,.52-.08.78-.38-3.37-1.33-7.62-3.65-10.67a2.7,2.7,0,0,0-4.3,3.27c2.14,2.81,2.71,7.87,2.79,10.9h10.1c.2-2.69,1-7.82,4-11A2.7,2.7,0,0,0,43.12,169.94Z"/><path class="cls-2" d="M52.18,325.63a2.69,2.69,0,0,0-3.81.12,21.25,21.25,0,0,0-4.9,10.43c0,.26,0,.52-.07.78-.38-3.38-1.34-7.62-3.65-10.67a2.7,2.7,0,0,0-4.3,3.27c2.14,2.81,2.71,7.86,2.79,10.9h10.1c.2-2.69,1-7.83,4-11A2.7,2.7,0,0,0,52.18,325.63Z"/><path class="cls-2" d="M285.11,322.32a2.69,2.69,0,0,0-3.81.12,21.14,21.14,0,0,0-4.89,10.43c0,.26-.05.52-.08.78C276,330.27,275,326,272.68,323a2.7,2.7,0,0,0-4.3,3.27c2.14,2.81,2.71,7.86,2.79,10.9h10.1c.2-2.69,1-7.82,4-11A2.7,2.7,0,0,0,285.11,322.32Z"/><path class="cls-2" d="M315.1,214.38h15.8c.19-2.68,1-7.82,4-11a2.7,2.7,0,0,0-3.94-3.7c-3.22,3.43-4.56,8.14-5.11,11.67a103,103,0,0,0-.26-11.29,2.7,2.7,0,0,0-5.36.69,110.64,110.64,0,0,1,.2,11.58c-.26-3.53-1.12-8.61-3.78-12.11a2.7,2.7,0,0,0-4.3,3.27C314.44,206.3,315,211.35,315.1,214.38Z"/></g><g id="Layer_3" data-name="Layer 3"><path class="cls-3" d="M86,143.3s-26.32,57.63-38.65,85.49-34,77.32-34,77.32,23.56-1.47,67.45-.8c44.33.69,70,2.44,70,2.44s-51.7-126.1-55.27-137.19S86,143.3,86,143.3"/><path class="cls-4" d="M86,143.3s65.66-1.06,98.2-1.42,80.67-1.38,80.67-1.38,36.65,83.44,44.55,105.13,29.72,60.63,29.72,60.63-185.64,1.6-190.39,1.49S86,143.3,86,143.3Z"/><path class="cls-5" d="M86.42,144.75s-.39,63.21,0,78-2,61.57-1.85,68.94-.36,11.47.91,13.82l-4.63-.2s.26-12,0-18.38,1.36-69,2.73-87.27S86.42,144.75,86.42,144.75Z"/><path class="cls-6" d="M107.63,305.52s-1.16-136.76,89.09-138.7c105.53-2.27,118.66,139.25,118.66,139.25l-166.62,1.68Z"/></g><g id="Layer_6" data-name="Layer 6"><path class="cls-5" d="M174.81,294.36c-.57,6.29,4.74,9.51,19.56,9.61s22.73-1.28,23.06-6.57c.41-6.6-10.64-9.21-21.44-9.74S175.4,288,174.81,294.36Z"/><polygon class="cls-7" points="183.88 305.47 203.73 297.9 191.14 289.46 179.71 293.65 183.88 305.47"/><path class="cls-2" d="M147.29,297.05c-.58,6.3,4.73,9.52,19.55,9.62s22.73-1.28,23.06-6.57c.41-6.6-10.64-9.21-21.44-9.74S147.87,290.67,147.29,297.05Z"/><g class="cls-8"><polygon class="cls-7" points="150.48 310.56 149.48 310.53 150.13 286.73 151.13 286.76 150.48 310.56"/><rect class="cls-7" x="142.04" y="298.37" width="24.13" height="1" transform="translate(-149.53 443.33) rotate(-88.17)"/><rect class="cls-7" x="147.27" y="297.92" width="22.8" height="1" transform="translate(-141.11 454.52) rotate(-89.51)"/><rect class="cls-7" x="150.53" y="298.43" width="25.08" height="1" transform="translate(-139.72 454.72) rotate(-88.61)"/><rect class="cls-7" x="155.07" y="297.92" width="24.44" height="1" transform="translate(-132.24 463.72) rotate(-89.62)"/><rect class="cls-7" x="160.8" y="297.38" width="22.85" height="1" transform="translate(-132.29 458.08) rotate(-87.71)"/><rect class="cls-7" x="165.16" y="298.23" width="24.13" height="1" transform="translate(-126.7 466.9) rotate(-88.28)"/><rect class="cls-7" x="169.74" y="299.68" width="24.62" height="1" transform="translate(-120.39 478.46) rotate(-89.28)"/><rect class="cls-7" x="174.68" y="299.46" width="23.77" height="1" transform="translate(-122.62 470.81) rotate(-87.04)"/></g><polygon class="cls-9" points="192.43 273.5 215.75 273.6 214.5 269.98 191.03 269.54 192.43 273.5"/><path class="cls-2" d="M257.63,233.27c-1.28-1-2.53-2.06-3.77-3.13a1.58,1.58,0,0,0-.3-1.75,44.67,44.67,0,0,0-9-7.39,47.11,47.11,0,0,0-4.26-2.3,64.2,64.2,0,0,0-5.76-4,2.44,2.44,0,0,0-2.06,3.76l.81.72a2.35,2.35,0,0,0-.19.25l-.12-.1-.07-.07h0l-.32-.25c-1.43-1.07-3.17,1.31-1.87,2.49l.29.28a1.78,1.78,0,0,0-.73,1.51l-.1-.14c-.44-.73-1.48-.07-1.12.68l0,0a1.6,1.6,0,0,0-.93.69,1.55,1.55,0,0,0-.74,1.3,1.32,1.32,0,0,0-.27,1.81,62.07,62.07,0,0,0,5.34,6.62,25.46,25.46,0,0,0,3.72,3.61l.21.18h0a3.5,3.5,0,0,0,.3.24h0l-.1.27a1.63,1.63,0,0,0,.44,1.59l.81.84a1.67,1.67,0,0,0,2.29,0l.78.27a1.66,1.66,0,0,0,2.2-.58,1.59,1.59,0,0,0,1.8-.68,9.34,9.34,0,0,1,1.08.79,1.64,1.64,0,0,0,2.69-1.62c-.08-.32-.16-.65-.23-1a1.74,1.74,0,0,0,1.9-2.18l1.9,1.41c1.19.88,2.63-.57,2.4-1.78a15,15,0,0,0,1.91.34A1.6,1.6,0,0,0,257.63,233.27Z"/><path class="cls-10" d="M236.15,215.74l-1,2.76-1.75,16.85s-2.12-2.33-2.79-3.13-2.78-3.49-2.78-3.49l6.69-14Z"/><path class="cls-7" d="M199.14,232.13c-.5-3.16-2.2-6.41-3.62-9.25-.19-.38.33-.65.62-.44a22.35,22.35,0,0,1,4.54,3.63l.36.48a2.05,2.05,0,0,1,2.67.91,16.74,16.74,0,0,1,2.58,8.2c0,2.57-2.17,4.92-4.78,3.36C199.23,237.66,199.5,234.39,199.14,232.13Z"/><path class="cls-2" d="M190.57,220.43a9.12,9.12,0,0,1,.33-2.24c.22-.75,9.57-12.77,12.35-15.63a32.37,32.37,0,0,1,4.36-4.05,9.52,9.52,0,0,1,2.11-1.49,1.83,1.83,0,0,1,1.15-.21c4.19-1.54,9.1,2.32,12.6,4.87a67.67,67.67,0,0,1,8.2,6.6c2,2,5,4.94,5,8a5,5,0,0,1-.22,1.43,7.25,7.25,0,0,1-.68,2.26,19.51,19.51,0,0,1-4.47,5.95c-1.57,2-3.32,3.77-4.92,5.66a46.59,46.59,0,0,1-8,7.54c-2.61,1.92-5.69,2.67-8.73,1.31-1.76-.79-11.22-8.58-13.88-11.33C193.78,227,190.21,223.6,190.57,220.43Z"/><path class="cls-5" d="M222.3,200.82c-1.13,1-2.4,1.88-3.55,2.74a54.87,54.87,0,0,1-9.37,5.67c-5,2.33-10.83,5.77-16.62,6.4a26.91,26.91,0,0,1,2.55-4.08,91.46,91.46,0,0,1,7.94-9,32.37,32.37,0,0,1,4.36-4.05,9.52,9.52,0,0,1,2.11-1.49,1.83,1.83,0,0,1,1.15-.21C214.61,195.44,218.93,198.36,222.3,200.82Z"/><path class="cls-5" d="M218.53,197.93a3.59,3.59,0,0,1,2.93-4.48,5.28,5.28,0,0,1,4,1,3.8,3.8,0,0,1,1.77,2.18,3.39,3.39,0,0,1-2,4.2,4.93,4.93,0,0,1-2.58.2,3.47,3.47,0,0,1-1.66-.51A4.4,4.4,0,0,1,218.53,197.93Z"/><path class="cls-5" d="M225.12,194.34a4,4,0,0,1,.71-.43c5.53-4.32,14.12-2.88,20.6-2.27a75.1,75.1,0,0,1,12.36,2.18c3.41.9,7.45,2.07,10.26,4.29a.36.36,0,0,1,.11.14,1.68,1.68,0,0,1,.32.09.6.6,0,0,1,.29,1c-2.44,2.35-6.82,3-10,3.74a51.2,51.2,0,0,1-13.05,1.42c-4.13-.12-8.78-.15-12.73-1.49a23.62,23.62,0,0,1-7.75-4.49,6.73,6.73,0,0,1-1-.5A2.15,2.15,0,0,1,225.12,194.34Z"/><path class="cls-5" d="M216.25,213.78a10.78,10.78,0,0,0,1.55,1.3c.43.31,1,.6,1.31,1.07a.39.39,0,0,1-.47.57,5.82,5.82,0,0,1-1.58-1.27,4.77,4.77,0,0,1-1.15-1.49C215.8,213.74,216.12,213.63,216.25,213.78Z"/><path class="cls-5" d="M215.47,216.92a12.45,12.45,0,0,0,1.66,1.42c.3.21,1,.69.56,1.12s-1.17-.3-1.49-.57a3.49,3.49,0,0,1-1.18-1.65C215,217,215.26,216.71,215.47,216.92Z"/><path class="cls-5" d="M213.53,220.32a.28.28,0,0,1,.52-.19,4.22,4.22,0,0,0,1.07,1.12c.32.29.69.5.74,1a.39.39,0,0,1-.35.41c-.54,0-.89-.45-1.22-.82A3.54,3.54,0,0,1,213.53,220.32Z"/><path class="cls-5" d="M211.49,223.13c0-.22.32-.3.38-.09a4.91,4.91,0,0,0,.32.83,5.86,5.86,0,0,0,.54.67c.14.19,0,.54-.29.46a1.07,1.07,0,0,1-.73-.73A4.43,4.43,0,0,1,211.49,223.13Z"/><path class="cls-5" d="M208.55,225.59a8.69,8.69,0,0,1-.11-1.53c0-.11.14-.15.21-.07a4.35,4.35,0,0,1,.58,1c.15.41.5.62.66,1a.39.39,0,0,1-.33.51C209,226.56,208.69,226.06,208.55,225.59Z"/><path class="cls-5" d="M205.47,225.84a2.49,2.49,0,0,1,0-1.12.27.27,0,0,1,.51,0,7.75,7.75,0,0,0,.46.79c.17.3.39.5.32.87a.5.5,0,0,1-.57.4C205.79,226.68,205.58,226.23,205.47,225.84Z"/><path class="cls-5" d="M207.85,239.43l-.38-.29c-.25-.19-.51-.38-.78-.56a1.34,1.34,0,0,1,.11-.14c1.2-1.09,2.89-1.14,3.64-2.82a6.21,6.21,0,0,0,.4-2.49c0-.5-.1-.76.19-1.17a.17.17,0,0,1,.22,0c.56.42.58,1.33.67,2a4.51,4.51,0,0,1-.41,2.63A5.8,5.8,0,0,1,207.85,239.43Z"/><path class="cls-5" d="M200.68,212.8c2.6-2.44,5.64-5.4,9.35-5.74a.51.51,0,0,1,.33.92c-2.51,2-5.29,3.49-7.75,5.57A23.4,23.4,0,0,0,200,216c-.58.66-.86,1.58-1.49,2.14a.45.45,0,0,1-.56,0C196.38,216.54,199.67,213.75,200.68,212.8Z"/><path class="cls-11" d="M210.49,220.27a3.73,3.73,0,0,0-1.64-1.82,4.3,4.3,0,0,0-.74-.45,4.35,4.35,0,0,0-2.36-.39,5.92,5.92,0,0,0-3.76.71,4.54,4.54,0,0,1,.5-1.39,10.46,10.46,0,0,1,2.95-3.92c2.53-2.11,6.91-3.92,10.1-2.44a.45.45,0,0,1,.26.45c1.77,4.17.6,7.7-2.62,10.82a15.24,15.24,0,0,1-1.49,1.26A6.08,6.08,0,0,0,210.49,220.27Z"/><path class="cls-5" d="M208,224.91c-1.3.32-3.33.56-4.59-.11a1.11,1.11,0,0,1-.73-.59,8.4,8.4,0,0,1-.78-5.45c0-.15,0-.29.07-.44a5.92,5.92,0,0,1,3.76-.71,4.35,4.35,0,0,1,2.36.39,4.3,4.3,0,0,1,.74.45,3.73,3.73,0,0,1,1.64,1.82,6.08,6.08,0,0,1,1.2,2.83A10.25,10.25,0,0,1,208,224.91Z"/><path class="cls-9" d="M253.92,228.58s32.18,16.54,35.19,42S277,312.39,256.22,304.43s-15.56-28.25-15.56-28.25-15.26-14.26-5.89-39.09C238.31,235.12,253.92,228.58,253.92,228.58Z"/><path class="cls-2" d="M234.93,236.64c-.46,1.24-.85,2.44-1.2,3.62,5.1.37,14.26-.7,21.06-11.2l-1.23-.67S238.48,234.67,234.93,236.64Z"/><path class="cls-2" d="M207.66,257.13s-12.9-1.41-14,9.5c0,1.1,1.2,3,2.16.69.35,1.22,1.67,1.74,2.2,0,.3,1.76,2,1.68,2.42.08.52,1.81,2.15,1.08,2.31,0s-.06-5.28,1.57-4.76,3.31-5.56,3.31-5.56"/><path class="cls-12" d="M195.85,267.69l-.35.29a16.87,16.87,0,0,1,1.47-6.29.37.37,0,0,1,.65.37,16.94,16.94,0,0,0-1.4,6l-.37-.33Z"/><path class="cls-12" d="M198.05,267.72l-.4.4a19.94,19.94,0,0,1,1.31-6.43.37.37,0,0,1,.5-.18.39.39,0,0,1,.17.51,20.79,20.79,0,0,0-1.24,6.18l-.34-.48Z"/><path class="cls-12" d="M200.47,267.8l-.38.4a30.39,30.39,0,0,1,.84-6.49.38.38,0,0,1,.72.23,27.58,27.58,0,0,0-.86,6.16l-.31-.3Z"/><path class="cls-2" d="M160,284.29c1-6.57,6.44-11,19.43-10.85s52.71,2.1,52.71,2.1l-3.25,26.95S157.82,298.07,160,284.29Z"/><path class="cls-5" d="M232.16,275.54l28.66-.37,27.81-7.68s6.53,42.47-24.34,39-35.38-4-35.38-4Z"/><polygon class="cls-5" points="159.28 273.35 192.43 273.5 177.5 231.18 143.22 232.26 159.28 273.35"/><path class="cls-10" d="M260.86,245.25s8.69,8.46,9.46,27.3l-8.48,2.39L258,240.54"/></g><g id="Layer_2" data-name="Layer 2"><path class="cls-2" d="M203.91,260.33a3.84,3.84,0,0,1,3.75-3.2c2.42-.18,54.76-1.41,54.71,20.23-24-.48-31.28-.26-58-14.67C204.09,261.6,203.91,260.33,203.91,260.33Z"/><path class="cls-2" d="M252.57,249.58c2.77.78,8.39-6.44,11.2,2.78a34.51,34.51,0,0,1-1.4,25c-28.48-2.53-18.71-17-18.71-17a58.17,58.17,0,0,1-.4-6.18C243.17,246.87,244.33,249.58,252.57,249.58Z"/><path class="cls-9" d="M243.34,256.53l21.27-.93c-2.35-10.85-8.92-19.11-12-20a7.32,7.32,0,0,0-3.23.71l-.84.48C243.31,240.34,243.05,250.79,243.34,256.53Z"/></g><g id="Layer_8" data-name="Layer 8"><path class="cls-11" d="M177.5,231.18q1.94,4.74,3.77,9.5c1.21,3.18,2.47,6.34,3.65,9.53l3.56,9.58c1.18,3.19,2.31,6.4,3.47,9.6l-.42-.3c3.83.08,7.66.21,11.49.36s7.65.32,11.48.53c-3.83.07-7.66.11-11.5.09s-7.66,0-11.49-.07h-.31l-.1-.29c-1.18-3.19-2.39-6.37-3.54-9.58l-3.46-9.61c-1.15-3.2-2.24-6.43-3.36-9.64S178.55,234.42,177.5,231.18Z"/></g></svg>