<svg xmlns="http://www.w3.org/2000/svg" viewBox="0 0 350 400"><defs><style>.cls-1{fill:#d6d7d9;}.cls-2,.cls-20,.cls-9{fill:#fff;}.cls-18,.cls-3,.cls-7{fill:#393a35;}.cls-3,.cls-6{opacity:0.44;}.cls-4{fill:#9c6bad;}.cls-5{fill:#af97c7;}.cls-8{opacity:0.33;}.cls-10,.cls-9{stroke:#8f4299;}.cls-10,.cls-12,.cls-13,.cls-14,.cls-9{stroke-miterlimit:10;}.cls-10,.cls-12,.cls-13,.cls-14,.cls-17{fill:none;}.cls-11,.cls-18{opacity:0.22;}.cls-12,.cls-13,.cls-14{stroke:#fff;}.cls-12,.cls-13{stroke-width:2px;}.cls-13{stroke-dasharray:3.89 3.89;}.cls-14{stroke-width:4px;}.cls-15{fill:#a0a2a5;}.cls-16{fill:#58595b;}.cls-17{stroke:#a0a2a5;stroke-linejoin:round;stroke-width:7px;}.cls-19{fill:#8f4299;}.cls-20{opacity:0.11;}</style></defs><title>tails_4.1_blueprint</title><g id="Layer_8" data-name="Layer 8"><path class="cls-1" d="M52,48.77c36.8-27.94,69.47-34.25,114.78-25.05s64.2,112.87,90,142.3,131.34,128.35,63.71,190.77c-84.17,77.71-242,17.8-259.31-48.46s-3.15-88.78-28.86-145.76S18.07,74.54,52,48.77Z"/><path class="cls-2" d="M142,57.59h20.2c.24-3.43,1.23-10,5.06-14.07a3.45,3.45,0,0,0-5-4.72c-4.12,4.38-5.83,10.4-6.54,14.91a130.51,130.51,0,0,0-.33-14.42,3.45,3.45,0,1,0-6.85.87,145,145,0,0,1,.26,14.8c-.34-4.5-1.44-11-4.84-15.47a3.45,3.45,0,0,0-5.5,4.18C141.12,47.26,141.85,53.71,142,57.59Z"/><path class="cls-2" d="M317.49,259.7a3.45,3.45,0,0,0-4.88.15c-3.66,3.88-5.41,9-6.25,13.32,0,.34-.07.67-.1,1-.49-4.31-1.71-9.74-4.67-13.63a3.45,3.45,0,1,0-5.49,4.18c2.73,3.59,3.47,10,3.56,13.92h12.91c.25-3.43,1.24-10,5.07-14.06A3.47,3.47,0,0,0,317.49,259.7Z"/><path class="cls-2" d="M64.54,133.46a3.47,3.47,0,0,0-4.88.15c-3.66,3.89-5.41,9.06-6.25,13.33,0,.33-.07.67-.1,1-.49-4.32-1.7-9.74-4.67-13.63a3.45,3.45,0,1,0-5.49,4.18c2.73,3.58,3.47,10,3.57,13.92H59.63c.25-3.43,1.23-10,5.06-14.07A3.46,3.46,0,0,0,64.54,133.46Z"/><path class="cls-2" d="M110.16,307.43a3.45,3.45,0,0,0-4.88.15c-3.65,3.89-5.41,9.06-6.25,13.33l-.09,1c-.49-4.31-1.71-9.74-4.67-13.63a3.45,3.45,0,0,0-5.5,4.18c2.74,3.59,3.47,10.05,3.57,13.93h12.91c.25-3.43,1.23-10,5.06-14.07A3.45,3.45,0,0,0,110.16,307.43Z"/><path class="cls-2" d="M205.91,376.44h20.2c.25-3.43,1.23-10,5.06-14.07a3.45,3.45,0,0,0-5-4.73c-4.12,4.39-5.83,10.41-6.53,14.92a132.93,132.93,0,0,0-.34-14.43,3.45,3.45,0,0,0-6.85.88,142.07,142.07,0,0,1,.26,14.8c-.34-4.51-1.44-11-4.84-15.48a3.45,3.45,0,0,0-5.49,4.18C205.08,366.1,205.81,372.56,205.91,376.44Z"/><polygon class="cls-3" points="52.75 263.19 130.63 281.01 170.35 237.32 256.81 250.57 287.81 238.08 304.43 221.15 249.33 147.47 75.51 214.51 51.23 247.56 52.75 263.19"/></g><g id="Layer_3" data-name="Layer 3"><path class="cls-4" d="M85.54,174.22s-21.66,15.93-36.27,33.21-25.94,30-34.93,36.43c19.74,6.71,68.86,23.58,88.77,27.38s94,29.41,107.47,38.53c16.77-15.8,71.3-60.32,78.89-76,7.45-15.33,16.31-25.56,28.45-54.66S339,136.35,339,136.35a296.54,296.54,0,0,0-51.68-15.63c-28.23-5.65-51.42-11-51.42-11S189.58,98.9,175.79,92.47,134,80.77,134,80.77s-13.79,30.94-25.09,47.29S89.77,157.65,85.54,174.22Z"/><path class="cls-5" d="M187.78,200.62C169,192,108.14,173.19,85.49,174.26c-1,.78-22,16.33-36.22,33.17-14.61,17.27-25.94,30-34.93,36.43,19.74,6.71,68.86,23.58,88.77,27.38s94,29.41,107.47,38.53c16.77-15.8,71.3-60.32,78.89-76,.2-.42.41-.84.62-1.25C274.63,221.15,207.2,204.8,187.78,200.62Z"/><g class="cls-6"><path class="cls-7" d="M232.59,113.85s-29,52.22-39.51,77.35"/><path class="cls-7" d="M122.7,270s38.93-47.86,60.42-65.27"/><path class="cls-7" d="M198.53,203.05s61.42,12.58,84,25.16"/><path class="cls-7" d="M92.89,174c.75.06,53.65,8.26,84.05,22.21"/></g></g><g id="Layer_5" data-name="Layer 5"><g class="cls-8"><path class="cls-9" d="M222.2,146.14c6.28-11.24,11.94-22,17.19-33.36Z"/><path class="cls-9" d="M212.39,165.19l9.81-19.05c-1.37,2.46-2.77,4.94-4.21,7.46C216.08,157.42,214.23,161.29,212.39,165.19Z"/><path class="cls-9" d="M194,201c7-11.38,12.63-23.68,18.36-35.78L194,201Z"/><path class="cls-9" d="M210.76,180.27l32.83-65.68C232.09,136,221.45,158.46,210.76,180.27Z"/><path class="cls-9" d="M199.75,202.31c3.7-7.22,7.36-14.59,11-22l-11,22Z"/><path class="cls-9" d="M249.33,115.24l-20.85,42C235.54,143.37,242.62,129.45,249.33,115.24Z"/><path class="cls-9" d="M205.41,203.64l23.07-46.43c-7.89,15.46-15.76,30.83-23.09,46.42Z"/><path class="cls-9" d="M244,139.6c4-8,8-15,11.42-23.06L237.52,151.2C239.58,147.31,241.72,143.44,244,139.6Z"/><path class="cls-9" d="M209.94,204.74c8.35-14.12,15.15-29.08,22.65-44l-22.71,44Z"/><path class="cls-9" d="M237.52,151.2q-2.53,4.76-4.93,9.53Z"/><path class="cls-9" d="M215.8,206.17l45.64-88.53c-15.22,29.52-31,59.07-45.65,88.52Z"/><path class="cls-9" d="M267.33,119l-34.6,66.94C244.46,163.76,256.63,141.82,267.33,119Z"/><path class="cls-9" d="M221.52,207.58l11.21-21.69c-3.81,7.2-7.57,14.42-11.22,21.69Z"/><path class="cls-9" d="M227.19,209c15.4-29.53,31.09-59,46-88.75l-46,88.75Z"/><path class="cls-9" d="M232.92,210.46c1.37-2.36,2.61-4.77,3.79-7.19l-3.81,7.18Z"/><path class="cls-9" d="M279.81,121.86C268,143.6,257,165.6,244,188.6c-2.63,4.61-4.83,9.64-7.28,14.67Z"/><path class="cls-9" d="M286,123.33c-16,29.27-30,58.27-45.87,87.73"/><path class="cls-9" d="M245.71,213.78C256.92,193.06,268,171.91,279,151.12l-33.29,62.66Z"/><path class="cls-9" d="M279,151.12l13.83-26C288.22,133.66,283.61,142.36,279,151.12Z"/><path class="cls-9" d="M252.32,215.54c13.53-24.3,26-49.27,38.66-73.7l-38.71,73.69Z"/><path class="cls-9" d="M291,141.84l7.88-15Q294.89,134.3,291,141.84Z"/><path class="cls-9" d="M257.69,217h0c8.87-16.48,17.62-33,27.3-50.41,7-13,13-25,19.92-38Z"/><path class="cls-9" d="M264.27,218.94h0l47.08-88.53Q287.24,174.9,264.27,218.94Z"/><path class="cls-9" d="M304.43,155.33l12.09-23.4A246,246,0,0,0,304.43,155.33Z"/><path class="cls-9" d="M270.52,221l15.69-30.38c-5.34,10-10.61,20-15.72,30.37Z"/><path class="cls-9" d="M286.21,190.6c4.23-7.93,8.51-15.87,12.78-24,1.89-3.77,3.67-7.54,5.44-11.27Z"/><path class="cls-9" d="M276.75,223.3l46.9-89.1C310,156.6,300,179.6,287,202.6c-3.63,7.26-7.26,13.71-10.38,20.64Z"/><path class="cls-9" d="M282.05,225.57l.05,0c16.49-29.26,31.22-59.61,47-89.43Z"/><path class="cls-9" d="M288.23,228.67l.14.08,25.69-49.59C305.07,195.64,296.05,212,288.23,228.67Z"/><path class="cls-9" d="M314.06,179.16c7.31-13.4,12.71-27.1,19.3-41.06Z"/><path class="cls-9" d="M334.36,139.34c-28.76-7.71-57.92-14.57-86.8-21.73l86.79,21.76Z"/><path class="cls-9" d="M247.56,117.61l-15-3.76Q240.06,115.76,247.56,117.61Z"/><path class="cls-9" d="M331.91,145.14l-53.46-13.33c17.89,4.62,35.7,9.23,53.45,13.35Z"/><path class="cls-9" d="M231.26,120v0l47.2,11.77C262.78,127.76,247.05,123.72,231.26,120Z"/><path class="cls-9" d="M228,125.76l0,.06,85.15,20.68C284.83,139.46,256.6,131.81,228,125.76Z"/><path class="cls-9" d="M329.48,150.47l-16.34-4q8.16,2,16.33,4Z"/><path class="cls-9" d="M224.43,132.06v0l68.51,16.19C269.74,142,247.13,137,224.43,132.06Z"/><path class="cls-9" d="M326.71,156.25l-33.78-8q6,1.6,12.06,3.33c7.45,1.86,14.05,2.87,21.72,4.65Z"/><path class="cls-9" d="M324,161.71c-16.25-4.39-32.95-7.83-49.64-11.24L324,161.77Z"/><path class="cls-9" d="M221.18,138.36l0,.06c17.33,4.75,35.27,8.39,53.24,12.05Z"/><path class="cls-9" d="M321.21,167.23,218.17,144h0c34.55,7.82,68.3,15.53,103,23.29Z"/><path class="cls-9" d="M318.53,172.63,264.7,160c17.7,4.4,35.45,8.83,53.81,12.65Z"/><path class="cls-9" d="M215.71,148.51l0,0,49,11.48C248.47,156,232.28,152,215.71,148.51Z"/><path class="cls-9" d="M212.73,154.35l4.14,1a17.09,17.09,0,0,0-4-1.33Z"/><path class="cls-9" d="M315.9,179.1C290.74,173,266.32,166.78,240.63,161L315.9,179.1Z"/><path class="cls-9" d="M240.63,161l-23.76-5.7c1,.45,2.08.91,3.12,1.26C227,158,233.85,159.52,240.63,161Z"/><path class="cls-9" d="M313.27,185.93l-52-13.13c17.16,4.48,34.47,9,52,13.14Z"/><path class="cls-9" d="M210.18,159.88v0l51.09,12.9C244.11,168.33,227.12,163.9,210.18,159.88Z"/><path class="cls-9" d="M309.94,192.69c-14.6-3.9-29.27-7.58-44-11.25l44,11.26Z"/><path class="cls-9" d="M207.18,166.4v0c19.67,5.31,39.26,10.16,58.77,15Z"/><path class="cls-9" d="M204.41,172.5h0l30.82,7.76C225,177.62,214.69,175,204.41,172.5Z"/><path class="cls-9" d="M307,198.36l-71.75-18.09c24,6.22,47.92,12.63,71.75,18.1Z"/><path class="cls-9" d="M303.31,204.91c-34.07-9.23-68-18-101.57-26.87h0l101.57,26.87Z"/><path class="cls-9" d="M299.8,211.34c-13.91-4-27.87-7.84-41.84-11.67l41.83,11.67Z"/><path class="cls-9" d="M199.06,183.25v0c19.58,5.67,39.25,11,58.91,16.4Z"/><path class="cls-9" d="M296.19,217.37l-63.25-17.83c21,6.12,41.92,12.34,63.24,17.85Z"/><path class="cls-9" d="M196.41,189.24l36.53,10.3c-12.12-3.54-24.27-7-36.52-10.33Z"/><path class="cls-9" d="M193,196l31.39,8.63c-10.39-3-20.63-6.22-31.31-8.72Z"/><path class="cls-9" d="M292.78,223.42c-14.91-4.85-29.85-8.84-44.79-12.82-3.76-.75-7.45-1.61-11.1-2.54l55.89,15.36Z"/><path class="cls-9" d="M236.89,208.06l-12.52-3.44C228.5,205.82,232.67,207,236.89,208.06Z"/></g><g class="cls-8"><path class="cls-10" d="M228.6,110.79C214,138.6,200,166.6,185.07,194.52"/><path class="cls-10" d="M220.51,109.76c-11.83,21.23-22,43.31-33.09,64.93-3.14,6.12-6.34,12.22-9.67,18.24"/><path class="cls-10" d="M215.74,108.48C200,135.6,187,163.6,171.5,191.38"/><path class="cls-10" d="M210.23,106.67C196,134.6,180,162.6,166,190.2"/><path class="cls-10" d="M204.69,104.49C189,131.6,176,160.6,160.74,188.65"/><path class="cls-10" d="M200.57,103.14c-12.48,21.42-23,43.88-34.66,65.74-3.32,6.22-6.73,12.4-10.3,18.48"/><path class="cls-10" d="M195.53,101.3C179,128.6,166,157.6,150.17,185.41"/><path class="cls-10" d="M189.2,99.37q-17.19,33-34.27,66.14l-9.66,18.76"/><path class="cls-10" d="M183.09,97.44q-17.1,33-34.14,66.08-4.92,9.54-9.83,19.1"/><path class="cls-10" d="M177.28,95.92C164,124.6,148,152.6,134.84,181.87"/><path class="cls-10" d="M172.65,94.37C157,122.6,144,151.6,130,180.8"/><path class="cls-10" d="M167.48,93c-10.32,22.64-21.94,44.64-33.14,66.84-3.22,6.39-6.41,12.8-9.52,19.24"/><path class="cls-10" d="M162,91.44c-11.39,22.11-21.66,44.77-32.69,67.07q-4.77,9.63-9.76,19.15"/><path class="cls-10" d="M157,90.22c-15,28.38-29,57.38-43.26,85.86"/><path class="cls-10" d="M151,88.54c-8,17.06-16,33.06-26,50.06-6,12-11,24-16.58,35.66"/><path class="cls-10" d="M144.78,87.1C133,108.6,124,130.6,113,152.6a172.31,172.31,0,0,0-9.82,19.74"/><path class="cls-10" d="M138.16,85.44c-11.35,21.89-21.27,44.47-31.59,66.84-2.93,6.35-5.89,12.69-8.93,19"/><path class="cls-10" d="M230,113.19q-48-14.39-96-27"/><path class="cls-10" d="M227.1,118.21C196,108.6,164,100.6,132.47,91.24"/><path class="cls-10" d="M224.4,124.61c-31.41-10-62.41-18-93.77-27.88"/><path class="cls-10" d="M221.3,130.38c-31.31-10.78-62.31-18.78-94-27"/><path class="cls-10" d="M217.74,137.32c-30.75-9.72-62.75-18.72-94-27.85"/><path class="cls-10" d="M215.36,142.88C183,133.6,152,124.6,120.22,115.32"/><path class="cls-10" d="M212.43,147.47C180,139.6,149,128.6,117.13,121.18"/><path class="cls-10" d="M209.76,153.65C178,146.6,146,135.6,114,127.47"/><path class="cls-10" d="M206.63,158.22C175,149.6,142,144.6,110.69,134"/><path class="cls-10" d="M203.56,164.41c-25.12-5.67-50-12.18-75-18.51q-10.61-2.7-21.22-5.31"/><path class="cls-10" d="M200.49,171.19C190,166.6,178,166.6,167,163.6c-21-7-42-12-62.69-16.91"/><path class="cls-10" d="M197.35,176.86C165,167.6,133,162.6,101.52,153"/><path class="cls-10" d="M195.69,182c-25.14-5.87-50.06-12.59-75.14-18.71q-10.62-2.59-21.29-5"/><path class="cls-10" d="M193.06,187.94C161,180.6,129,170.6,97,163.39"/><path class="cls-10" d="M189.33,194.67C158,184.6,125,177.6,94.44,167.93"/></g><g class="cls-11"><path class="cls-10" d="M87.38,175.56c-22.39,23-44.39,45-66.63,68"/><path class="cls-10" d="M94,176.72C72,200.6,48,222.6,26.2,246.16"/><path class="cls-10" d="M100.45,178.09C78,202.6,53,223.6,31.06,248.12"/><path class="cls-10" d="M105,179.24c-17.94,18.24-35.7,36.65-53.51,55Q44,242,36.42,249.78"/><path class="cls-10" d="M110.29,180.26C93,198.55,76.46,217.59,59.37,236.1q-7.41,8-15,15.9"/><path class="cls-10" d="M117.22,182.14C94,205.6,72,229.6,49.67,253.62"/><path class="cls-10" d="M121.78,183.59c-17,18.78-34.43,37.2-51.59,55.86q-7.31,7.94-14.54,16"/><path class="cls-10" d="M128.25,185C106,209.6,82,232.6,60,256.65"/><path class="cls-10" d="M131.92,185.88c-17.48,18.94-35.24,37.61-52.7,56.56q-7.36,8-14.63,16.05"/><path class="cls-10" d="M135.77,187.14c-16.59,19.41-34.26,37.84-51.23,56.91q-7.2,8.1-14.2,16.41"/><path class="cls-10" d="M141.89,188.52,90,246.2l-14.44,16"/><path class="cls-10" d="M146.45,189.55C125,214.6,102,238.6,80.64,264"/><path class="cls-10" d="M153,191.24c-17.53,18.95-33.83,39-50.86,58.35Q94.83,257.9,87.31,266"/><path class="cls-10" d="M158.57,193.17C136,217.6,115,243.6,92.63,267.44"/><path class="cls-10" d="M163.28,194.07C142,219.6,120,244.6,97.32,268.7"/><path class="cls-10" d="M168.49,195.8c-16.31,19.73-33.73,38.5-50.55,57.78q-7.17,8.21-14.15,16.58"/><path class="cls-10" d="M174.25,197.86C157,216.56,140.64,236,123.91,255.15c-4.71,5.38-9.38,10.78-14,16.27"/><path class="cls-10" d="M181.8,199.55C164.91,219,147,237.43,129.34,256.11q-7.56,8-15,16"/><path class="cls-10" d="M184.36,203.05C150,194.6,118,184.6,83.8,176.31"/><path class="cls-10" d="M180.61,207C147,198.6,113,189.6,80,181.07"/><path class="cls-10" d="M176.05,210.9C142,202.6,109,193.6,75.27,186.27"/><path class="cls-10" d="M172,215.85c-28-6.25-55-14.25-85-20.25-6-1-11-5-16.58-4.61"/><path class="cls-10" d="M167.51,221.15C161,219.6,153,218.6,146,216.6c-28-8-54-13-81.27-19.54"/><path class="cls-10" d="M163.36,225.49C128,217.6,94,210.6,59.49,202.42"/><path class="cls-10" d="M158.18,230.57c-34.19-8-69.19-16-102.89-23.8"/><path class="cls-10" d="M154.14,235.69C119,227.6,85,220.6,50,212"/><path class="cls-10" d="M149.68,240.25C115,232.6,81,224.6,45.75,216.48"/><path class="cls-10" d="M144.29,245C117,237.6,90,232.6,62,224.6c-7-2-13-3-20.27-4.42"/><path class="cls-10" d="M139.77,251.07C105,242.6,71,232.6,37.28,224.54"/><path class="cls-10" d="M134.91,257C101,247.6,66,238.6,32.32,229.49"/><path class="cls-10" d="M130.92,260.07C96,252.6,62,242.6,28.13,234.32"/><path class="cls-10" d="M125.83,266.16C93,255.6,58,248.6,24.8,238.08"/><path class="cls-10" d="M121.54,271.07C88,262.6,54,251.6,20,242.5"/></g><g class="cls-11"><path class="cls-10" d="M193.48,201.88C186,209.6,179,216.6,172,224.6c-17,16-32,33-48.69,48.64"/><path class="cls-10" d="M199.29,203.23C176,227.6,152,250.6,129.55,275.1"/><path class="cls-10" d="M205,204.44c-23,24.16-46,49.16-69.61,72.89"/><path class="cls-10" d="M209.39,205.67C186,230.6,164,254.6,140.43,279"/><path class="cls-10" d="M215.12,207.49C192,231.6,169,256.6,145.14,280.68"/><path class="cls-10" d="M221,208.61c-23,25-48,48-71.21,73.7"/><path class="cls-10" d="M226.3,210.7C214,224.6,201,236.6,188,250.6c-11,11-22,22-33.22,33.45"/><path class="cls-10" d="M232.59,211.05C215,229.6,197,248.6,179,268.6c-6,6-12,12-17.58,17.76"/><path class="cls-10" d="M239.42,212.33C216,237.6,192,263.6,168.6,288.81"/><path class="cls-10" d="M245.3,214.51C222,240.6,196,264.6,172.58,290.2"/><path class="cls-10" d="M251.24,217.5q-36.37,37.65-72.17,74.88"/><path class="cls-10" d="M258.26,218.62C234,243.6,210,268.6,184.79,294"/><path class="cls-10" d="M263.45,220.52C239,246.6,213,269.6,188.87,295.48"/><path class="cls-10" d="M269.56,222.83C244,247.6,219,272.6,194,297.36"/><path class="cls-10" d="M275.66,225.36C250,249.6,225,275.6,199.49,299.54"/><path class="cls-10" d="M282.55,228.21C274,235.6,267,243.6,259,251.6c-19,16-35,34-53.73,50.24"/><path class="cls-10" d="M287.45,230.83l-19.11,18.4L230.14,286,211,304.41"/><path class="cls-10" d="M185.7,203.46C219,213.6,253,223.6,286.45,234.41"/><path class="cls-10" d="M182.56,207.64c33.43,12,66.43,20,99.2,30.83"/><path class="cls-10" d="M179.32,212C212,223.6,245,231.6,278,242.9"/><path class="cls-10" d="M174.6,216.72c25.47,8.48,51.24,16,76.86,24q10.75,3.36,21.47,6.87"/><path class="cls-10" d="M170.15,222C202,233.6,236,241.6,267.52,253.19"/><path class="cls-10" d="M165.91,226.19c25.29,7.1,49.46,17.52,74.25,26.09,7.05,2.44,14.15,4.72,21.33,6.74"/><path class="cls-10" d="M160.76,231.36C193,240.6,225,253.6,256.81,263.77"/><path class="cls-10" d="M156.05,236.34C188,246.6,219,258.6,251,268.83"/><path class="cls-10" d="M151.6,240.87c32.39,10.73,63.39,22.73,95.52,32"/><path class="cls-10" d="M146.74,246.14C179,255.6,210,268.6,242.12,278.05"/><path class="cls-10" d="M141.67,251.8c24,9.25,48.58,17,73,25.23,7,2.36,14,4.75,21,7.22"/><path class="cls-10" d="M136.15,257.49c24.25,8.94,49.23,15.68,73.78,23.72,7.08,2.32,14.14,4.75,21.12,7.35"/><path class="cls-10" d="M132.9,260.73l73.5,24.59,20.74,6.94"/><path class="cls-10" d="M127.8,266.77c24.27,7.64,48.39,15.65,72.48,23.82q10.4,3.53,20.82,7"/><path class="cls-10" d="M122.84,271.54c31.15,12.06,62.15,19.06,93,30.75"/></g></g><g id="Layer_2" data-name="Layer 2"><polygon class="cls-12" points="250.12 165.72 252.06 217.54 243.71 252.51 163.36 225.49 91.3 203.06 129.78 181.54 164.5 139.85 210.26 155.53 250.12 165.72"/><line class="cls-12" x1="250.12" y1="165.73" x2="248.9" y2="167.31"/><polyline class="cls-13" points="246.53 170.4 217.79 207.78 189.65 231.01"/><line class="cls-12" x1="188.15" y1="232.25" x2="186.61" y2="233.53"/><polyline class="cls-12" points="164.5 139.85 164.5 191.2 149.5 220.81"/><polyline class="cls-12" points="120.33 212.02 147.92 186.61 164.5 139.85"/><line class="cls-12" x1="168.96" y1="126.46" x2="175.39" y2="111.31"/><line class="cls-12" x1="254.2" y1="151.14" x2="259.95" y2="136.49"/><line class="cls-12" x1="256.56" y1="167.06" x2="268.42" y2="169.81"/><line class="cls-12" x1="250.45" y1="254.74" x2="259.95" y2="257.91"/><line class="cls-12" x1="264.05" y1="221.48" x2="254.81" y2="256.91"/><line class="cls-12" x1="262.66" y1="168.43" x2="264.05" y2="221.48"/><line class="cls-12" x1="139.18" y1="157.32" x2="147.92" y2="147.47"/><line class="cls-12" x1="85.76" y1="208.9" x2="74.74" y2="218.88"/><path class="cls-12" d="M118,246.91c1.93.61,3.85,1.22,5.76,1.85"/><path class="cls-12" d="M107.09,243.52c2.35.73,4.71,1.45,7.06,2.19"/><path class="cls-12" d="M83.74,235.9c6.47,2.3,13,4.39,19.56,6.43"/><path class="cls-12" d="M72.22,232.2l8.3,2.67"/><path class="cls-12" d="M91.88,245.77l14.2,4.64"/><path class="cls-12" d="M66.83,237.59l20.79,6.79"/><path class="cls-12" d="M99,255.47c3.72,1.22,7.43,2.5,11.1,3.85"/><path class="cls-12" d="M79.36,249.39c4.88,1.47,9.76,2.94,14.62,4.48"/><path class="cls-12" d="M59.9,243.1l14.4,4.66"/><line class="cls-12" x1="178.03" y1="238.61" x2="171.68" y2="245.01"/><line class="cls-12" x1="238.97" y1="259.54" x2="230.59" y2="267.1"/><line class="cls-12" x1="175" y1="241.66" x2="234.78" y2="263.32"/><path class="cls-12" d="M142.53,153.39c-12.75-12.81-2.14-42.3,29.78-34.83l84.89,24.92"/><path class="cls-14" d="M110.18,219.66l22.93,7.26"/><path class="cls-14" d="M90.24,213.35l16,5.06"/><line class="cls-14" x1="83.74" y1="219.72" x2="123.77" y2="232.67"/><line class="cls-14" x1="269.56" y1="196.2" x2="285.9" y2="195.27"/><line class="cls-14" x1="209.76" y1="121.18" x2="220.99" y2="123.33"/><line class="cls-14" x1="131.92" y1="113.85" x2="138.16" y2="118.95"/><line class="cls-14" x1="190.54" y1="256.65" x2="203.17" y2="260.73"/></g><g id="Layer_6" data-name="Layer 6"><path class="cls-15" d="M42.51,46.93v51c0,11.47,13.34,20.76,29.8,20.76s29.79-9.29,29.79-20.76v-51Z"/><ellipse class="cls-16" cx="72.31" cy="46.93" rx="29.8" ry="20.76"/><ellipse class="cls-7" cx="72.31" cy="55.44" rx="27.17" ry="12.24"/><polyline class="cls-17" points="42.51 56.54 26.38 56.54 26.38 87.22 42.51 87.22"/><path class="cls-18" d="M83,66.31,72.31,118.66S99.39,118,102,99.37c.08-17.35,0-53.91,0-53.91S104.27,61,83,66.31"/></g><g id="Layer_7" data-name="Layer 7"><path class="cls-5" d="M230.63,277.33l-19.12-16.6-34.57-5.26-7.59,1.18L148.06,265l-8.29,6-6.87,9.61-2.79,4.71,1.56,6.69.67,2.69c18.85,7,45.87,17.16,64.77,24.3l16.59-4.51,13.42-10.15,3.84-15.1Z"/><path class="cls-19" d="M160.37,260.68a8.76,8.76,0,0,1-2.48,2,3,3,0,0,1-2.39.17,1.88,1.88,0,0,1-.66-.38l-1.34.52a3.37,3.37,0,0,0,1.25.71q3.72,1.31,7.37-2.82c.25-.29.47-.56.67-.83C162,260.25,161.17,260.46,160.37,260.68Z"/><path class="cls-19" d="M165.78,267.39l-1.4-.48,4.42-5c.39-.44,1-1.09,1.81-2-.35.09-.85.18-1.51.29l-1.76.25-.17-.94,4.49-.58,1.19.42Z"/><path class="cls-19" d="M175.55,270.79l-1.4-.48,4.42-5c.4-.44,1-1.09,1.81-1.95-.34.09-.85.18-1.51.29l-1.75.25-.18-.94,4.5-.58,1.19.42Z"/><path class="cls-19" d="M185.33,274.19l-1.4-.48,4.42-5c.39-.44,1-1.09,1.81-1.95-.35.09-.85.18-1.51.28l-1.76.26-.17-.94,4.49-.58,1.19.42Z"/><path class="cls-19" d="M195.1,277.59l-1.4-.48,4.42-5c.39-.44,1-1.09,1.81-1.95-.34.09-.85.18-1.51.28l-1.75.26-.18-.94,4.49-.58,1.2.42Z"/><path class="cls-19" d="M203.62,280.7c-1.22-.42-1.82-1.1-1.83-2a5.71,5.71,0,0,1,1.77-3.39q3.65-4.11,7.34-2.82c1.23.43,1.85,1.1,1.85,2a5.58,5.58,0,0,1-1.76,3.38Q207.35,282,203.62,280.7Zm.75-.85a3.06,3.06,0,0,0,2.4-.17,9.26,9.26,0,0,0,2.76-2.31,6.15,6.15,0,0,0,1.66-2.68c.08-.64-.26-1.1-1-1.37a3,3,0,0,0-2.37.18,9.2,9.2,0,0,0-2.74,2.31,6.22,6.22,0,0,0-1.68,2.69C203.26,279.13,203.6,279.58,204.37,279.85Z"/><path class="cls-19" d="M213.39,284.1c-1.21-.42-1.82-1.1-1.82-2a5.71,5.71,0,0,1,1.77-3.39q3.65-4.11,7.34-2.82c1.23.43,1.84,1.1,1.85,2a5.69,5.69,0,0,1-1.76,3.38Q217.13,285.39,213.39,284.1Zm.75-.85a3.11,3.11,0,0,0,2.4-.17,9.42,9.42,0,0,0,2.76-2.31,6.15,6.15,0,0,0,1.66-2.68c.09-.64-.26-1.1-1-1.37a3,3,0,0,0-2.36.18,9.21,9.21,0,0,0-2.75,2.31,6.22,6.22,0,0,0-1.68,2.69C213,282.53,213.37,283,214.14,283.25Z"/><path class="cls-19" d="M229.05,279.54l-3.24.42.18.94,1.76-.26c.66-.1,1.16-.19,1.5-.28-.81.86-1.41,1.51-1.81,1.95l-4.41,5,1.4.48,5.5-6.21A19.3,19.3,0,0,1,229.05,279.54Z"/><path class="cls-19" d="M144.11,277.44l-1.4-.49,4.42-5c.39-.45,1-1.1,1.81-2-.35.09-.85.18-1.51.29l-1.75.25-.18-.94L150,269l1.2.42Z"/><path class="cls-19" d="M152.63,280.54c-1.22-.42-1.83-1.09-1.83-2a5.66,5.66,0,0,1,1.77-3.38q3.65-4.12,7.34-2.83c1.23.43,1.85,1.1,1.85,2a5.58,5.58,0,0,1-1.76,3.38Q156.35,281.85,152.63,280.54Zm.75-.85a3,3,0,0,0,2.39-.17,9.25,9.25,0,0,0,2.77-2.31,6.1,6.1,0,0,0,1.65-2.68c.09-.64-.26-1.1-1-1.37a3,3,0,0,0-2.37.18,9.34,9.34,0,0,0-2.75,2.31,6.42,6.42,0,0,0-1.68,2.69C152.27,279,152.61,279.43,153.38,279.69Z"/><path class="cls-19" d="M163.66,284.23l-1.4-.48,4.42-5c.39-.44,1-1.09,1.81-1.95-.35.09-.85.18-1.51.29l-1.76.25-.17-.94,4.49-.58,1.19.42Z"/><path class="cls-19" d="M172.18,287.34c-1.22-.42-1.83-1.1-1.83-2a5.66,5.66,0,0,1,1.77-3.38q3.65-4.12,7.34-2.83c1.23.43,1.85,1.1,1.85,2a5.64,5.64,0,0,1-1.76,3.38Q175.91,288.63,172.18,287.34Zm.75-.85a3,3,0,0,0,2.39-.17,9.25,9.25,0,0,0,2.77-2.31,6.2,6.2,0,0,0,1.65-2.68c.09-.64-.26-1.1-1-1.37a3,3,0,0,0-2.36.18,9.34,9.34,0,0,0-2.75,2.31,6.42,6.42,0,0,0-1.68,2.69Q171.77,286.08,172.93,286.49Z"/><path class="cls-19" d="M182,290.74c-1.21-.42-1.82-1.1-1.82-2a5.61,5.61,0,0,1,1.77-3.38q3.63-4.12,7.33-2.83c1.23.43,1.85,1.1,1.85,2a5.58,5.58,0,0,1-1.76,3.38Q185.68,292,182,290.74Zm.75-.85a3.06,3.06,0,0,0,2.4-.17,9.11,9.11,0,0,0,2.76-2.31,6.15,6.15,0,0,0,1.66-2.68c.08-.64-.26-1.1-1-1.37a3,3,0,0,0-2.37.18,9.32,9.32,0,0,0-2.74,2.31,6.22,6.22,0,0,0-1.68,2.69C181.59,289.17,181.93,289.62,182.7,289.89Z"/><path class="cls-19" d="M193,294.43l-1.4-.48,4.42-5c.39-.44,1-1.09,1.81-1.95-.34.09-.85.18-1.51.28l-1.75.26-.18-.94,4.49-.58,1.2.42Z"/><path class="cls-19" d="M201.5,297.54c-1.22-.42-1.82-1.1-1.82-2s.58-2,1.76-3.39q3.65-4.11,7.34-2.82c1.23.43,1.85,1.1,1.85,2a5.58,5.58,0,0,1-1.76,3.38Q205.23,298.83,201.5,297.54Zm.75-.85a3.06,3.06,0,0,0,2.4-.17,9.26,9.26,0,0,0,2.76-2.31,6.15,6.15,0,0,0,1.66-2.68c.08-.64-.26-1.1-1-1.37a3,3,0,0,0-2.37.18,9.2,9.2,0,0,0-2.74,2.31,6.22,6.22,0,0,0-1.68,2.69C201.14,296,201.48,296.42,202.25,296.69Z"/><path class="cls-19" d="M211.27,300.94c-1.21-.42-1.82-1.1-1.82-2a5.71,5.71,0,0,1,1.77-3.39q3.65-4.11,7.34-2.82c1.23.43,1.84,1.1,1.85,2a5.64,5.64,0,0,1-1.76,3.38Q215,302.23,211.27,300.94Zm.75-.85a3.11,3.11,0,0,0,2.4-.17,9.42,9.42,0,0,0,2.76-2.31,6.15,6.15,0,0,0,1.66-2.68c.09-.64-.26-1.1-1-1.37a3,3,0,0,0-2.36.18,9.21,9.21,0,0,0-2.75,2.31,6.22,6.22,0,0,0-1.68,2.69C210.92,299.37,211.25,299.82,212,300.09Z"/><path class="cls-19" d="M221.05,304.34c-1.22-.42-1.82-1.1-1.83-2a5.71,5.71,0,0,1,1.77-3.39q3.64-4.11,7.34-2.82c1.23.42,1.85,1.1,1.85,2a5.58,5.58,0,0,1-1.76,3.39Q224.78,305.63,221.05,304.34Zm.75-.85a3.11,3.11,0,0,0,2.4-.17A9.55,9.55,0,0,0,227,301a6.1,6.1,0,0,0,1.65-2.68c.09-.64-.25-1.1-1-1.37a3,3,0,0,0-2.37.18,9.34,9.34,0,0,0-2.75,2.31,6.37,6.37,0,0,0-1.68,2.69Q220.65,303.08,221.8,303.49Z"/><path class="cls-19" d="M132.21,290.88l-1.39-.49,4.41-5c.4-.45,1-1.1,1.81-2-.34.09-.84.18-1.5.29l-1.76.25-.18-.94,4.5-.57,1.19.41Z"/><path class="cls-19" d="M142,294.28l-1.4-.49,4.42-5c.39-.45,1-1.1,1.81-2-.35.09-.85.18-1.51.29l-1.75.25-.18-.94,4.49-.57,1.2.41Z"/><path class="cls-19" d="M151.76,297.68l-1.4-.49,4.42-5c.4-.45,1-1.1,1.81-2-.34.09-.85.18-1.51.29l-1.75.25-.18-.94,4.5-.57,1.19.41Z"/><path class="cls-19" d="M161.54,301.08l-1.4-.49,4.42-5c.39-.45,1-1.1,1.81-2-.35.09-.85.18-1.51.29l-1.76.25-.17-.94,4.49-.58,1.19.42Z"/><path class="cls-19" d="M170.05,304.18c-1.21-.42-1.82-1.09-1.82-2a5.66,5.66,0,0,1,1.77-3.38q3.65-4.12,7.34-2.83c1.23.43,1.85,1.1,1.85,2a5.64,5.64,0,0,1-1.76,3.38Q173.79,305.49,170.05,304.18Zm.75-.85a3.06,3.06,0,0,0,2.4-.17,9.25,9.25,0,0,0,2.77-2.31,6.2,6.2,0,0,0,1.65-2.68c.09-.64-.26-1.1-1-1.37a3,3,0,0,0-2.36.18,9.21,9.21,0,0,0-2.75,2.31,6.42,6.42,0,0,0-1.68,2.69C169.7,302.61,170,303.07,170.8,303.33Z"/><path class="cls-19" d="M181.09,307.87l-1.4-.48,4.42-5c.39-.44,1-1.09,1.81-1.95-.35.09-.85.18-1.51.29l-1.76.25-.17-.94,4.49-.58,1.19.42Z"/><path class="cls-19" d="M189.6,311c-1.21-.42-1.82-1.09-1.82-2a5.66,5.66,0,0,1,1.77-3.38q3.64-4.12,7.34-2.83c1.23.43,1.84,1.1,1.85,2a5.64,5.64,0,0,1-1.76,3.38Q193.34,312.27,189.6,311Zm.75-.85a3.06,3.06,0,0,0,2.4-.17,9.11,9.11,0,0,0,2.76-2.31,6.15,6.15,0,0,0,1.66-2.68c.09-.64-.26-1.1-1-1.37a3,3,0,0,0-2.36.18,9.21,9.21,0,0,0-2.75,2.31,6.22,6.22,0,0,0-1.68,2.69C189.25,309.41,189.58,309.86,190.35,310.13Z"/><path class="cls-19" d="M200.64,314.67l-1.4-.48,4.41-5c.4-.44,1-1.09,1.82-1.95-.35.09-.85.18-1.51.29l-1.76.25-.17-.94,4.49-.58,1.19.42Z"/><path class="cls-19" d="M209.15,317.78c-1.21-.42-1.82-1.1-1.82-2a5.71,5.71,0,0,1,1.77-3.39q3.63-4.11,7.34-2.82c1.23.43,1.84,1.1,1.85,2a5.69,5.69,0,0,1-1.76,3.38Q212.89,319.07,209.15,317.78Zm.75-.85a3.06,3.06,0,0,0,2.4-.17,9.11,9.11,0,0,0,2.76-2.31,6.15,6.15,0,0,0,1.66-2.68c.09-.64-.26-1.1-1-1.37a3,3,0,0,0-2.36.18,9.21,9.21,0,0,0-2.75,2.31,6.22,6.22,0,0,0-1.68,2.69C208.8,316.21,209.13,316.66,209.9,316.93Z"/></g><g id="Layer_9" data-name="Layer 9"><path class="cls-16" d="M180.86,253.6c26.6,0,48.44,14.19,50.81,32.29a25.14,25.14,0,0,0,.22-3.26c0-19.63-22.85-35.55-51-35.55s-51,15.92-51,35.55a25.14,25.14,0,0,0,.22,3.26C132.42,267.79,154.26,253.6,180.86,253.6Z"/><path class="cls-16" d="M180.86,259.6c25.12,0,46,12.65,50.23,29.29a27.86,27.86,0,0,0,.58-3c-2.37-18.1-24.21-32.29-50.81-32.29s-48.44,14.19-50.81,32.29a27.86,27.86,0,0,0,.58,3C134.88,272.25,155.75,259.6,180.86,259.6Z"/><path class="cls-20" d="M180.86,259.6c25.12,0,46,12.65,50.23,29.29a27.86,27.86,0,0,0,.58-3c-2.37-18.1-24.21-32.29-50.81-32.29s-48.44,14.19-50.81,32.29a27.86,27.86,0,0,0,.58,3C134.88,272.25,155.75,259.6,180.86,259.6Z"/><path class="cls-15" d="M231.89,295V282.16a55.57,55.57,0,0,1-.93,7.15c-4.49,16.44-25.2,28.87-50.1,28.87-23.48,0-43.24-11.05-49.19-26.1a35.05,35.05,0,0,1-1.84-9.45v11.76h0c0,.26,0,.51,0,.77,0,19.64,22.85,35.55,51,35.55,28,0,50.66-15.66,51-35.08l0,0V295Z"/><path class="cls-16" d="M170.65,325.27h0a8.08,8.08,0,0,0-15.22-5.44l-25.59,59.71,14.67,6.79,25.71-60a8.18,8.18,0,0,0,.39-.92Z"/><circle class="cls-7" cx="137.3" cy="382.66" r="8.09"/><path class="cls-18" d="M190.54,317.54l-2.38,12.8s35.47-2.13,43.59-30.88c.14-6.28.14-16.83.14-16.83S232.59,310.85,190.54,317.54Z"/></g></svg>