<svg xmlns="http://www.w3.org/2000/svg" viewBox="0 0 340 400"><defs><style>.cls-1{fill:#a0a2a5;}.cls-2{fill:#dadbdc;}.cls-3{fill:#fff;}.cls-4,.cls-5,.cls-6{fill:#393a35;}.cls-4{opacity:0.44;}.cls-12,.cls-5{opacity:0.22;}.cls-7{fill:#c2c4c6;}.cls-8{fill:#58595b;}.cls-10,.cls-13,.cls-18,.cls-9{fill:none;}.cls-9{stroke:#58595b;stroke-linecap:round;}.cls-10,.cls-18,.cls-9{stroke-miterlimit:10;}.cls-10{stroke:#dadbdc;stroke-dasharray:1;}.cls-11,.cls-12{fill:#363436;}.cls-14{fill:#7a478b;}.cls-15{fill:#af97c7;}.cls-16{opacity:0.53;}.cls-17{opacity:0.78;}.cls-18{stroke:#fff;}</style></defs><title>tails_4.2_bonfire</title><g id="Layer_10" data-name="Layer 10"><path class="cls-1" d="M5.7,265.47c0-1.67,6.56-255.17,167.44-254.29S334.62,257.07,334.62,257.07Z"/></g><g id="Layer_9" data-name="Layer 9"><path class="cls-2" d="M156.11,145.72c33-2.32,163,1.57,175.49,82.4,6.7,43.16,3.35,89.67-21.37,118C263.2,400,110.43,394.49,61,374.93,12.23,355.64-3.8,310,8.54,247.21,27.91,148.67,91.77,150.25,156.11,145.72Z"/><path class="cls-3" d="M157.88,354.65a1.8,1.8,0,0,0-2.54.07,14.16,14.16,0,0,0-3.25,6.93c0,.18,0,.35-.05.52a14.77,14.77,0,0,0-2.43-7.09,1.79,1.79,0,1,0-2.85,2.18c1.42,1.86,1.8,5.22,1.85,7.24h6.71c.13-1.79.64-5.2,2.64-7.32A1.8,1.8,0,0,0,157.88,354.65Z"/><path class="cls-3" d="M177.24,313.7h10.5c.13-1.78.64-5.19,2.63-7.31a1.79,1.79,0,1,0-2.61-2.46,14.61,14.61,0,0,0-3.4,7.76,66.3,66.3,0,0,0-.18-7.5,1.79,1.79,0,1,0-3.56.45,72.26,72.26,0,0,1,.14,7.7c-.18-2.35-.75-5.73-2.52-8a1.8,1.8,0,0,0-2.86,2.17C176.8,308.33,177.19,311.69,177.24,313.7Z"/><path class="cls-3" d="M320.34,274.61a1.79,1.79,0,0,0-2.53.08,14,14,0,0,0-3.25,6.93c0,.17,0,.34-.05.52a14.8,14.8,0,0,0-2.43-7.09,1.8,1.8,0,0,0-2.86,2.17c1.42,1.87,1.8,5.23,1.86,7.24h6.71c.13-1.78.64-5.2,2.63-7.31A1.79,1.79,0,0,0,320.34,274.61Z"/><path class="cls-3" d="M18,248.59h10.5c.13-1.79.64-5.2,2.63-7.32a1.79,1.79,0,0,0-2.61-2.46,14.61,14.61,0,0,0-3.4,7.76,66.44,66.44,0,0,0-.18-7.5,1.79,1.79,0,0,0-3.56.46,72,72,0,0,1,.14,7.69c-.18-2.34-.75-5.72-2.52-8.05a1.8,1.8,0,0,0-2.86,2.18C17.58,243.21,18,246.57,18,248.59Z"/></g><g id="Layer_4" data-name="Layer 4"><path class="cls-4" d="M242.63,231.22l31.27-17.15-1.34,6.76L309.91,198l7.4,2.53,3.05-1.54s-3.74-6.32-13.8-15.56c-1.9-1.74-13.35-10.07-15.9-11.52-17.78-10.17-41.75-17.77-41.75-17.77l-38.64,36.38,46.19,17.93Z"/><path class="cls-4" d="M58.81,223.32,21.37,206.53s7.25-15.45,16.82-25.4c23.1-24,57.18-29.52,57.18-29.52l20.22,31.84L92.53,207.82,78.69,195.46,58.81,208.64Z"/><path class="cls-4" d="M205.55,349.44,218,384.94s74.95-8.69,97.52-45.61c-6.92-2.31-30.44-12-30.44-12Z"/><path class="cls-4" d="M126.27,348.14,111.82,386s-63.28-3.21-88.1-37.85c4.9-2.94,17.78-10.86,17.78-10.86Z"/><polygon class="cls-4" points="119.2 261.69 148.74 255.99 150.31 273.93 158.26 272.54 173.14 255.99 210.04 270.08 203.41 250.19 217.86 244.38 182.94 231.22 144.92 236.85 117.43 233.06 130.51 243.04 119.2 261.69"/><polygon class="cls-5" points="311.08 284.46 332.49 294.01 333.51 286.39 317.99 282.77 317.79 284.46 311.08 284.46"/><polygon class="cls-5" points="148.61 364.5 142.7 388.39 154.69 388.78 155.32 364.5 148.61 364.5"/><polygon class="cls-5" points="28.52 248.59 7.76 251.34 9.45 242.78 17.54 244.64 18.05 248.27 28.52 248.59 28.52 248.59"/><path class="cls-5" d="M177.19,313.7l10.68-.38c.43,4.35,2.18,20.33,4.53,25.37a9.46,9.46,0,0,1,.35,6.2c-.61,1.71-1.75,1.7-2.55,0-2.52-5.43-3.94-13-4.7-18.73.47,6.17,1,14.28,1.1,18.35,0,2.41-.74,4.17-1.75,3.93S183,346,183,343.63c-.07-3.73-.67-12.35-1.17-18.82.22,5.74.22,14-1.15,19.84-.47,2-1.57,2.42-2.45,1a9.25,9.25,0,0,1-.77-6.12C178.53,334.88,177.48,318.64,177.19,313.7Z"/></g><g id="Layer_13" data-name="Layer 13"><path class="cls-6" d="M232.15,95.25a8.65,8.65,0,0,0-.31,2.53c0,.65-.32,1.55.15,2.09a.24.24,0,0,0,.28,0c.65-.34.52-1.18.5-1.81,0-.92-.14-1.85-.21-2.77C232.54,95.1,232.23,95,232.15,95.25Z"/><path class="cls-2" d="M231.49,98a2.88,2.88,0,0,0-2.46,2.87c-.29,1.34-.08,3.13.82,4a3.05,3.05,0,0,0,1.46.69,1.8,1.8,0,0,0,.83.08,3.7,3.7,0,0,0,2-.52c1.39-.88,1.19-2.87.95-4.28C234.75,98.88,233.49,97.7,231.49,98Z"/><path class="cls-6" d="M232.49,119.12c.08-2.4.34-10.88-.11-14.19l-.38,0h-.3c-.73,3.27-.21,12.4-.35,14.78-.17,2.83-.81,6.22-.24,9a.62.62,0,0,0,1.21-.11C232.54,125.41,232.39,122.28,232.49,119.12Z"/><path class="cls-7" d="M257.93,133.85c1.69-.79-2.73.12-4.83,3.67s-14.66,28.21-14.66,28.21l2.32,9.79s13.63-12.59,18-26.85C260.58,143.83,257.93,133.85,257.93,133.85Z"/><path class="cls-7" d="M227.79,136s.83,22.71,13,39.49a49.71,49.71,0,0,0,3.58-12.26s-9.46-25.43-10.73-27.52C232.84,135.79,227.79,136,227.79,136Z"/><path class="cls-7" d="M233,127.16c-.44-.83-.79-1.22-1.15-1.8-.87-1.4-1.94-3.31-3.71-3.54-.52-.07-1.32.59-1.59,1-.51.77,0,1.89.42,2.74a3.25,3.25,0,0,0-1.55,1c-.61,1.11,0,2.56.55,3.68-1.1.21-2.72,1.12-2.39,2.47.18.74,1.15,1.36,1.76,1.8-.22.31-.72.54-.71.93a1.58,1.58,0,0,0,1,1.5,8.46,8.46,0,0,0,2.29.54c.19.08.63.8.89.9a2.8,2.8,0,0,0,1.67.12,1.6,1.6,0,0,0,.86-.58c.93.35,1.56,1,1.73.05a14.35,14.35,0,0,0,2.67-6.63C236.09,128.69,234.73,127.62,233,127.16Z"/><path class="cls-8" d="M229.47,129.13a.9.9,0,0,1,.09-1c.44-.63,1.53-1.32,3.51-1l-.47-.75c-2.07,0-3.07.48-3.66,1.33,0,0,0,.09-.07.14a7.17,7.17,0,0,1-1.86-2.34l-.66.28a7.56,7.56,0,0,0,2.28,2.79,1.48,1.48,0,0,0,.2.89,2.44,2.44,0,0,0,1.63,1,1.33,1.33,0,0,1,.14,1.17,1.2,1.2,0,0,1-1,.64,3.91,3.91,0,0,1-3.57-2.07l-.77.24a5.07,5.07,0,0,0,4.26,2.58h.12a2,2,0,0,0,.8-.23,1.35,1.35,0,0,1,.26,1.48c-.39.58-3.22,1.34-5.3.2l-.57.57a7,7,0,0,0,3.39.71,4.89,4.89,0,0,0,3.11-1.07,2,2,0,0,0-.3-2.36,2.49,2.49,0,0,0,.23-.31,1.69,1.69,0,0,0,.07-1.44c.13,0,.25,0,.39,0l.73,0-.07-.75C230.91,130,229.83,129.73,229.47,129.13Z"/><path class="cls-7" d="M287.05,129.87l-8-2.58s-3.68-10.25-3.75-11c-.63-6.75-3.73-30.24-3.79-30.58l-12.22,27.17s3.25,18,3.32,19l-4.7,1.82,9.3,21.42,14.29-3.91,5.59-20.9C287.13,130.08,287.12,129.93,287.05,129.87Z"/><path class="cls-8" d="M249.49,108.58s-1.07,7.75-2.38,10.56c1.58-.29,4.75-1.14,4.75-1.14Z"/><path class="cls-7" d="M272.42,85.29,247.74,101,253,125.41s.36,1.43,1.64,1.13,10.3-2.13,10.3-2.13Z"/><polygon class="cls-4" points="261.62 125.21 272.25 123.29 262.32 130.19 261.62 125.21"/><path class="cls-3" d="M252.63,179.59l37.39-3-3-46.71h0l-3.5-1.13c-10.63,7.51-18.43,5.3-22.74,3.88l-2.87,1Z"/><path class="cls-8" d="M264.5,90.28,274,120.07s1.78-.34,1.28-4.87-2.82-29.91-2.82-29.91Z"/><path class="cls-3" d="M260.16,104.8c-1.09,2.18-3.81,3.46-7.4,2.18C252.91,103.45,258,101.16,260.16,104.8Z"/><path class="cls-6" d="M252.76,107a7.59,7.59,0,0,0,3.53.46,2.06,2.06,0,0,0,.23-.55,2,2,0,0,0,0-1v0a1.93,1.93,0,0,0-2.43-1.64A4,4,0,0,0,252.76,107Z"/><path class="cls-9" d="M250.93,104.22c1.84-.63,4.29,7.28,2.31,7.76S248.71,105,250.93,104.22Z"/><line class="cls-9" x1="250.62" y1="108.99" x2="248.49" y2="108.97"/><line class="cls-9" x1="253.89" y1="108.95" x2="271.98" y2="102.73"/><path class="cls-6" d="M257.6,99.1a4.34,4.34,0,0,0-2.66.43,5.65,5.65,0,0,0-3.1,2.08.18.18,0,0,0,.22.26c1-.41,1.89-1,2.9-1.31a4.5,4.5,0,0,1,2.28-.48C257.89,100.27,258.25,99.28,257.6,99.1Z"/><path class="cls-6" d="M256.47,118.44c-1.12,1.7-2.66,2.18-4.35,2.88l.13.61c1.95-.16,4.5-1.28,4.62-3.34C256.88,118.38,256.59,118.25,256.47,118.44Z"/><path class="cls-1" d="M268.66,105.74s2.53-7.49,5.13-2.66-3.62,7.86-3.62,7.86"/><path class="cls-8" d="M271.21,78.7a5.82,5.82,0,0,0-3.36-3.25c-3-1-4.39,1.7-4.38,4.22a4.68,4.68,0,0,0-2.58-1.54,4.29,4.29,0,0,0-3.49.83,4,4,0,0,0-1.53,3.31c0,.2,0,.42,0,.65a3.26,3.26,0,0,0-1.57-.87,2.89,2.89,0,0,0-3,1,5,5,0,0,0-.93,3.61,2.4,2.4,0,0,0-2.85-.42,2.32,2.32,0,0,0-.87.76,2.36,2.36,0,0,0-.76-1,1.85,1.85,0,0,0-2.61.34,4.2,4.2,0,0,0-.55,4.69,1.94,1.94,0,0,0-1.71.34c-1.38.94-1.87,2.87-2.23,4.39-.76,3.23-1.17,9.12,2.53,8.71,2.13-.23,3.54-1.39,5.86-2.92,0,0,24.88-16.07,25.15-16.21C272.38,85,271.74,79.87,271.21,78.7Z"/><path class="cls-7" d="M287.05,129.87l7.28,3.19a2.85,2.85,0,0,1,1.69,1.86c.3,1.34,10.74,61,10.74,61l-4.19,4.71s-1.94.16-2.58-4.12-7.62-27.9-7.62-27.9l-4.9-17.83Z"/><path class="cls-7" d="M302.57,200.67H309c.46,0,1.59-.92,3.18-.84s3,.94,4.09.94,2.42-.73,1.61-1.76c1.13-.43,1.27-1.94-1.61-3-.15-1.31-2.25-2.3-4.45-1.87s-5.69,1.18-5.69,1.18Z"/><path class="cls-8" d="M311,199.06c-.82-2.27-5.17-.88-5.66-.71a.37.37,0,0,0-.23.48.36.36,0,0,0,.47.23c1.07-.36,4.23-1.09,4.72.25a.92.92,0,0,1,0,.67,1.63,1.63,0,0,1-.16.28,4.79,4.79,0,0,1,1-.32A1.83,1.83,0,0,0,311,199.06Z"/><path class="cls-8" d="M318.51,198.52c-3.91-2.36-6.73-1.29-7.29-1a.34.34,0,0,0-.18.45.4.4,0,0,0,.5.22c.48-.22,2.78-1.28,6.34.84A1.14,1.14,0,0,0,318.51,198.52Z"/><path class="cls-8" d="M315.86,195.13a8.3,8.3,0,0,0-5.43.55.36.36,0,0,0-.16.5.37.37,0,0,0,.51.16,8.52,8.52,0,0,1,5.49-.33A1.75,1.75,0,0,0,315.86,195.13Z"/><polygon class="cls-6" points="263.2 200.56 270.54 201.35 268.86 212.31 262.08 210.29 263.2 200.56"/><path class="cls-1" d="M260.17,215.55l1,5.41s-10.41,10.49-19.49,12.47c-2.61-.37-5.85-3.46-5.85-3.46s3.12-10.4,10.9-15.47C251.8,214.56,260.17,215.55,260.17,215.55Z"/><path class="cls-2" d="M248.06,227.05l-.92-.5.47-.89c.31.17.63.34.95.53Zm-1.85-1-1-.44.4-.91c.33.14.65.29,1,.46Zm-1.92-.85c-.33-.14-.66-.26-1-.38l.35-.94,1,.39Zm-2-.72c-.35-.12-.68-.22-1-.31l.27-1,1,.32Zm-2-.58-1-.23.2-1c.31.06.66.14,1.06.24Z"/><path class="cls-2" d="M241.72,233.43c9.08-2,19.49-12.47,19.49-12.47l-.43-2.27a86.76,86.76,0,0,1-19,13c-.36-.21-3.47-2.51-5.2-3.8l-.75,2.12S239.11,233.06,241.72,233.43Z"/><path class="cls-6" d="M247.68,215.29c2.12-.66,8.5-.36,9.24.51s-1.19,4.21-5.45,5-6-1-6.35-2.48S246.86,215.54,247.68,215.29Z"/><path class="cls-8" d="M259.75,212s3.56,1,3.89-1.66.15-4,.35-6.37,1-4.9.67-6.11-5.94-1.74-5.94-1.74Z"/><path class="cls-1" d="M269.2,200.75a23.37,23.37,0,0,1,7,.17c-.89,6.15-4.92,26.67-4.92,26.67l-5.12-.14-.77-14.89S270.83,209.79,269.2,200.75Z"/><polygon class="cls-2" points="274.36 200.63 269.1 227.54 271.31 227.59 276.23 200.92 274.36 200.63"/><path class="cls-10" d="M272,200.75s-.15,4,1.66,5.68"/><line class="cls-10" x1="266.18" y1="220.26" x2="273" y2="213.63"/><polygon class="cls-8" points="278.06 200.07 266.37 181.38 250.85 174.52 251.02 172.73 236.07 178.12 216.27 186.21 212.91 193.31 237.38 194.96 249.03 191.65 258.24 200.14 278.06 200.07"/><path class="cls-4" d="M212.91,188.22a22.47,22.47,0,0,0,8,.16c2.56-.58,6.19-3,9.46-1.48s5.64-1.6,8-2.18,8.09-2.36,10.47-.3.18,6.63,1.49,6.28-8.42,3-8.42,3l-9.58,2.82-22.13,1.15Z"/><path class="cls-8" d="M263.2,188.63a17.36,17.36,0,0,1,3.17,2.32c.75.89.14,3,2.2,4.37s3,1.11,4.31,1.93,1.73,2.73,2.87,2.81,10.44-.1,10.44-.1l1.91-7.25-16.78-43-6.06,3.37Z"/><path class="cls-8" d="M251,172.73c-1.94.38-4.55.44-6.19.71s-3,2-4.56,2.19-3.47-1.21-5-.52-3.17,3.31-5.81,3.74-5.94-1-8.19-.33-6,4.43-8.12,5-14.07.19-13.79,12.56,9.46,10.25,12.43,11.06,3.63,1.64,5.94,1.85,5.16-1.71,8-1.67,3.55,2.8,5.94,2.84,4.44-1.81,6.85-1.17,4.05,2.58,7.06,1.92,4.15-14.83,4.15-14.83-4.6.27-6.49-.29-2.23-2.31-4.54-2.75-5,.5-7.38,0-4.32-2.05-6.07-2.38-4.11.39-6.09,0,7.82-6.11,7.82-6.11Z"/><path class="cls-4" d="M270.18,154.55a86.94,86.94,0,0,0,1.47,8.6c1.07,5.06-1.57,3.39-1.15,10.51s2.4,4.81,1.44,11.06,1.09,8.51,2.82,10.93c2,2.77,10.32,4.29,10.32,4.29l-24.69.32,7.1-44.32Z"/><path class="cls-8" d="M286.19,200s3.76.15,4.29-4.55.44-20.92.44-20.92-.38-3.75-2.37-5.73-15.47-21.44-15.47-21.44-1.62-2.29-3.48-2.7-14.19,1.16-14.19,1.16-3.91,1.69-4.65,4.63.82,3.12.26,4.68-3.25,3.28-3.78,6.16,2.2,3.7,1.25,5.72-2.59,2.1-3.05,4.52,2.11,3.73,1.58,6.09-2.18,2.41-2.68,5.93,2,3.9,1.91,6.24-3,3.86-2.65,6.18,2.52,2.8,1.67,5.42-3.24,5.07-3.39,7.64-.23,6.34,2.46,7.44,7.45,3.51,10.68,2.73,3.42-1.07,4.37-1.78,1.78-2.31,1.1-5.81a56.8,56.8,0,0,0,1.35-6.47c.39-3-.68-5,.24-7.08s3-3.17,3.18-6-1.07-5.57-.34-8.46,2.62-4.89,2.88-8-.85-3.31-.4-6,2.39-3.21,2.69-6.07-1.41-4.3-.89-6.28a14,14,0,0,1,1.34-3.34Z"/><path class="cls-11" d="M290.8,189.35l-20.14-40.74a.44.44,0,0,0-.12-.15c-.3-.27-.76-.23-1.49.12-1.94.93-5.54,4-5.43,7.06a22,22,0,0,0,.44,3.57,12.54,12.54,0,0,1,.28,4A6.64,6.64,0,0,1,263.2,166a9.65,9.65,0,0,0-1.61,4.17,7.11,7.11,0,0,0,.5,4.06,7,7,0,0,1,.61,2.78,6.18,6.18,0,0,1-1.47,3.53,8.7,8.7,0,0,0-1.93,5.06,10.8,10.8,0,0,0,.58,3.83,4.51,4.51,0,0,1,.26,2.41,8.34,8.34,0,0,1-1.6,3.48,10.5,10.5,0,0,0-1.63,3.28,14,14,0,0,0-.15,4.71,23.37,23.37,0,0,1,.13,2.41,5.58,5.58,0,0,1-1,2.86,10.16,10.16,0,0,0-1.35,3.51c-.47,2.74.9,5.86,1.38,6.85a8.41,8.41,0,0,0,1-.28c-.41-.84-1.8-3.93-1.38-6.4a9.16,9.16,0,0,1,1.25-3.19,6.47,6.47,0,0,0,1.08-3.35,25,25,0,0,0-.13-2.5,13,13,0,0,1,.12-4.39,9.62,9.62,0,0,1,1.5-3,9.24,9.24,0,0,0,1.75-3.9,5.44,5.44,0,0,0-.3-2.85,9.87,9.87,0,0,1-.53-3.52,7.79,7.79,0,0,1,1.76-4.5A7.08,7.08,0,0,0,263.7,177a8.27,8.27,0,0,0-.67-3.13,6,6,0,0,1-.45-3.56,8.78,8.78,0,0,1,1.47-3.78,7.56,7.56,0,0,0,1.28-3.16A13.63,13.63,0,0,0,265,159a23.08,23.08,0,0,1-.43-3.42c-.05-1.64,1.3-3.25,2.11-4.06a9.59,9.59,0,0,1,3.17-2.24l20.84,42.16C290.75,191.52,290.79,189.42,290.8,189.35Z"/><path class="cls-11" d="M290.66,193l-20.91-41.5a.51.51,0,0,0-.29-.25.53.53,0,0,0-.39,0,6.5,6.5,0,0,0-3.19,4.69,10.86,10.86,0,0,0,.22,4.17,9,9,0,0,1,.24,3.11,8.5,8.5,0,0,1-1.08,2.95,12,12,0,0,0-1.48,4.32,6,6,0,0,0,.52,3.85,5.76,5.76,0,0,1,.62,2.63,6.17,6.17,0,0,1-1.44,3.55,8.9,8.9,0,0,0-1.9,5.09,13.92,13.92,0,0,0,.5,3.94,6,6,0,0,1,.22,2.67,6.77,6.77,0,0,1-1.64,3.2,8.6,8.6,0,0,0-1.75,3.17,11,11,0,0,0,.07,4.47,16.91,16.91,0,0,1,.28,2.69,5.47,5.47,0,0,1-1,2.83,9.84,9.84,0,0,0-1.38,3.5,10.85,10.85,0,0,0,1.13,6.18,2.9,2.9,0,0,0,.87-.51,9.48,9.48,0,0,1-1-5.5,8.91,8.91,0,0,1,1.27-3.18,6.31,6.31,0,0,0,1.11-3.31,18.46,18.46,0,0,0-.29-2.86,10,10,0,0,1-.09-4.08,7.57,7.57,0,0,1,1.58-2.79,7.63,7.63,0,0,0,1.83-3.68,7.08,7.08,0,0,0-.24-3,12.78,12.78,0,0,1-.47-3.69,7.92,7.92,0,0,1,1.74-4.54,7.21,7.21,0,0,0,1.6-4.12,6.78,6.78,0,0,0-.7-3,5,5,0,0,1-.45-3.31,10.94,10.94,0,0,1,1.38-4,9.4,9.4,0,0,0,1.18-3.28,10,10,0,0,0-.25-3.44,10.13,10.13,0,0,1-.21-3.82,5.53,5.53,0,0,1,2.23-3.68l21.43,42.51Z"/></g><g id="Layer_11" data-name="Layer 11"><path class="cls-7" d="M110.77,174.54c4.39-.78,16.43,3,11.15,11.82l-11.3,11.78L91.88,195.8l15.37-19.22A6.09,6.09,0,0,1,110.77,174.54Z"/><path class="cls-3" d="M110.44,198.31l10.06-10.46a15.3,15.3,0,0,0-3.65-2.11,21.8,21.8,0,0,0-16.51-.53L91.88,195.8Z"/><path class="cls-6" d="M97.55,187.36c0,.09-.06.17-.11.26l-.25.45a34.84,34.84,0,0,1,10.7-.93c4.66.43,6.71.84,10.34,3.08l1-1C112.23,185.58,105.16,185.47,97.55,187.36Z"/><path class="cls-6" d="M108.69,188.61a34.29,34.29,0,0,0-12.42,1c-.29.47-.59.92-.9,1.37,3.88-.84,7.62-1.79,11.8-1.59,4.56.21,5.87.48,9.19,2.73,0,0,.76-.76.76-.8C114.11,189.25,112.68,188.92,108.69,188.61Z"/><path class="cls-8" d="M103.61,193.48c4.88.19,16.23-.06,14.51,7.86s-7.29,8.53-16.18,7.92-13.36-1.21-12.52-7.92S95.31,193.15,103.61,193.48Z"/><path class="cls-6" d="M94.68,194.37l-3.07,13c.29.1.57.34.92.46L95.76,194C95.63,194.06,94.68,194.37,94.68,194.37Z"/><path class="cls-6" d="M97.24,193.73l-2.59,14.72c.33.08.66.12,1,.19l2.63-15Z"/><path class="cls-6" d="M100.91,193.44l-3.2,15.47c.32.05.66.06,1,.1l3.22-15.57Z"/><path class="cls-6" d="M103.55,193.47l-2.1,15.76,1,.07,2.08-15.79Z"/><path class="cls-6" d="M107.35,193.62l-2.92,15.82h1l2.91-15.74C108,193.68,107.69,193.62,107.35,193.62Z"/><path class="cls-6" d="M111.25,194l-2.91,15.33,1-.09,2.85-15.05S111.57,194.09,111.25,194Z"/><path class="cls-6" d="M114.64,195,113,208.47c.36-.12.75-.48,1.09-.63l1.54-12.4Z"/><path class="cls-12" d="M110.62,181.67l-12,11.93s-4.63.14-7,2.67c3-3.94,11.38-14.37,11.38-14.37Z"/><path class="cls-6" d="M73.39,161.23l-.89,8.12,31.22.75-44.2,27.08H49.85c-7.36.72-20.49-15.42-5-36Z"/><path class="cls-7" d="M73.13,137.46s14.94,13,20.2,21.88c4.75-5.34,14.69-13.87,20.34-15.69a53.44,53.44,0,0,1,3.76,4.57S102,167.38,95.36,172.35c-5.4-1-21.19-10.4-25.68-18.95C69.65,152.78,73.13,137.46,73.13,137.46Z"/><path class="cls-8" d="M84.24,148.18l-11.62,8.23L72,136.7A63.77,63.77,0,0,1,84.24,148.18Z"/><path class="cls-12" d="M76.07,144.39s.92,10.77.69,17.19c-.72-.49-3.92-3.75-3.92-3.75Z"/><polygon class="cls-7" points="55.7 122.55 54.15 132.66 57.35 142.96 69.04 142.2 70.23 121.01 55.7 122.55"/><polygon class="cls-12" points="69.95 125.94 54.64 129.48 55.85 121.75 70.24 119.9 69.95 125.94"/><path class="cls-8" d="M72.29,132.79c1.29,2.15,8,13.62,1.1,28.44-5.91.08-28.51,0-28.51,0s-.38-20.85,9.27-28.57C55.7,132.54,72.29,132.79,72.29,132.79Z"/><path class="cls-7" d="M69.67,129.68s-14,2.86-15.52,3c0,0,5.49,6.3,18.14.13h0A12.81,12.81,0,0,0,69.67,129.68Z"/><path class="cls-7" d="M64,149.89l-18.2,1.9s-4.17,20.7,1.76,32.12c6,.37,27.75-1.27,34.24-3.91l.1-4.78c-7.68-2.06-13.31-3.58-24.32-2.72C58.64,169.29,62.48,157.66,64,149.89Z"/><path class="cls-7" d="M81.79,180l-.39-4.78s8.85.15,9.37,3.34-3.4,4.18-3.4,4.18"/><polygon class="cls-12" points="63.66 151.61 63.22 161.26 60.99 161.66 63.66 151.61"/><path class="cls-7" d="M45.91,200.81S95,172.44,98.65,170.1s9.66-1.26,12.7,2.83,1.35,7.54-1.45,9.49S64.24,211.9,64.24,211.9a8.37,8.37,0,0,0-.38,3.51c.25,1.8,1.6,4.89-2.34,7.14a3.79,3.79,0,0,1-5.67-1.61l-11-17A2.28,2.28,0,0,1,45.91,200.81Z"/><path class="cls-3" d="M75.94,194.83a39.57,39.57,0,0,0-4-6.36c-.63-1-1.07-1.38-1.4-1.9L54.19,196a47.06,47.06,0,0,0,4.79,9.1c1,1.31,4.91,4.86,5.58,6.57L79.67,202C78.32,199.21,77.34,197.55,75.94,194.83Z"/><path class="cls-6" d="M66.93,188.65c-.1.07-.3.16-.4.23,1.49,2.73,3.23,4.9,4.69,7.61s2.92,5.29,4.63,7.95c.36-.23.7-.48,1.06-.68C73.64,198.37,70.14,194,66.93,188.65Z"/><path class="cls-6" d="M70.71,198.07a89.64,89.64,0,0,1-5.88-8.2c-.13.09-.18.08-.31.17l-.18.11a32,32,0,0,0,4.26,6.59,89.73,89.73,0,0,1,5.83,8.65,5.5,5.5,0,0,1,.48-.28A55.9,55.9,0,0,0,70.71,198.07Z"/><path class="cls-6" d="M44.88,203.92l11,17a3.79,3.79,0,0,0,5.67,1.61c3.94-2.25,2.59-5.34,2.34-7.14a8.37,8.37,0,0,1,.38-3.51L66,210.81,55.5,195.27l-9.59,5.54A2.28,2.28,0,0,0,44.88,203.92Z"/><path class="cls-8" d="M44.88,203.92l11,17a3.76,3.76,0,0,0,5.34,1.77c2.31-2.12.64-3.66-5.52-14.1-4-6.79-5.74-9.08-8-8.81l-1.75,1A2.28,2.28,0,0,0,44.88,203.92Z"/><path class="cls-6" d="M50,200l-5.28,3.28a2.35,2.35,0,0,0,.41.92l5.56-3.45A4.87,4.87,0,0,0,50,200Z"/><path class="cls-6" d="M51.5,202.08a1.86,1.86,0,0,1-.11-.19l-5.48,3.61.54.84L52,202.7C51.82,202.5,51.65,202.3,51.5,202.08Z"/><path class="cls-6" d="M53.25,204.21l-.13-.15-5.56,4c.16.29.38.55.54.84l5.65-4.07A7.68,7.68,0,0,0,53.25,204.21Z"/><path class="cls-6" d="M55.09,207.26a3.24,3.24,0,0,1-.2-.36l-5.74,3.65c.09.16.47.71.55.84l5.72-3.64A5.25,5.25,0,0,0,55.09,207.26Z"/><path class="cls-6" d="M56.23,209l-5.1,4.58c.19.28.36.57.55.85l5-4.49Z"/><path class="cls-6" d="M57.82,212.1l-5.37,3.57c.19.27.35.57.54.84L58.32,213C58.15,212.68,58,212.39,57.82,212.1Z"/><path class="cls-6" d="M59.6,215l-5.26,3.59c.19.27.35.56.54.83l5.33-3.62A8,8,0,0,1,59.6,215Z"/><path class="cls-6" d="M61.28,217.78,55.9,221a3.39,3.39,0,0,0,.55.84l5.26-3.17A9.47,9.47,0,0,1,61.28,217.78Z"/><path class="cls-3" d="M63.83,214A24,24,0,0,0,61,212.19a.1.1,0,0,0-.14.11c.3.75,1.28,1.11,1.88,1.58a13.82,13.82,0,0,1,1.09.91A3.9,3.9,0,0,0,63.83,214Z"/><path class="cls-3" d="M64.07,212.48a11.31,11.31,0,0,0-.92-.78,3.83,3.83,0,0,0-2-1.13.11.11,0,0,0-.13.14c.09.29.2.31.49.45a5.18,5.18,0,0,1,1.14.88c.31.28.64.53.94.83.13.13.2.22.33.36C64,213.05,64.05,212.52,64.07,212.48Z"/><path class="cls-3" d="M64.37,211.82a5.11,5.11,0,0,0,.62-.4,1.07,1.07,0,0,0-.28-.37,6.35,6.35,0,0,0-2.53-2,.14.14,0,0,0-.14.23c.69.74,1.36,1.49,2.07,2.21C64.3,211.67,64.21,211.52,64.37,211.82Z"/><path class="cls-12" d="M88.18,176.3,81.79,180l-3.62,1.13S84.77,175.22,88.18,176.3Z"/><path class="cls-7" d="M113.17,144.05a4.27,4.27,0,0,1,3.47-3.7c3.14-.49,5.59-.1,7.06.93s3.35,2.54,2.89,3.59-2.23,4.41-3.23,5.07a3.86,3.86,0,0,1-3.33.86c-1.56-.31-3.45-.54-3.8-2.44S113.17,144.05,113.17,144.05Z"/><path class="cls-13" d="M124.45,141.83a3.38,3.38,0,0,0,.16-1.39.5.5,0,0,0-.55-.44.5.5,0,0,0-.45.55,2.25,2.25,0,0,1,0,.66l.12.07Z"/><path class="cls-8" d="M121,144.56l-.62-.17c-.38-.1-.51-.22-.53-.28v0q.36,0,.75,0a5.17,5.17,0,0,0,1.94-.32,3.2,3.2,0,0,0,1.92-2l-.75-.55-.12-.07a2.19,2.19,0,0,1-1.44,1.66c-1.47.61-4.09-.1-4.12-.1a.49.49,0,0,0-.61.34.5.5,0,0,0,.35.62s.48.13,1.08.23a1.07,1.07,0,0,0,0,.46.33.33,0,0,0,.07.13.6.6,0,0,0-.13.09,1.64,1.64,0,0,0-.64,1.6,1,1,0,0,0,.13.3,1.57,1.57,0,0,0-.52.58,1.41,1.41,0,0,0,.36,1.65c.54.5,3,1.09,4.73,1.47l.47-.3a3,3,0,0,0,.54-.51,24.1,24.1,0,0,1-5.07-1.39.41.41,0,0,1-.12-.49c.09-.19.36-.35.85-.3a18.69,18.69,0,0,0,5,1.23c.2-.31.41-.64.61-1a16.18,16.18,0,0,1-5.34-1.2l-.24-.08c-.27-.05-.45-.14-.48-.24a.76.76,0,0,1,.31-.57c.18-.14.32-.17.37-.15h0l.28.1.6.16a18.2,18.2,0,0,0,4.63.89l.48,0c.23-.43.43-.81.57-1.12C125.12,145.74,122.22,144.91,121,144.56Z"/><path class="cls-11" d="M164.46,130.45c-1,.13-1.91.29-2.85.5-.55.13-.32,1,.23.84.94-.22,1.84-.56,2.76-.85A.25.25,0,0,0,164.46,130.45Z"/><path class="cls-2" d="M162.38,130.67a2.9,2.9,0,0,0-3.3-1.85c-1.37,0-3.08.55-3.72,1.6A3,3,0,0,0,155,132a1.92,1.92,0,0,0,.09.83,3.75,3.75,0,0,0,.9,1.85c1.14,1.18,3,.59,4.39.08C162.16,134,163.06,132.58,162.38,130.67Z"/><path class="cls-11" d="M156,132.5c0-.05,0-.1,0-.16a60.47,60.47,0,0,0-7.18,1.59c-1.87.41-3.73.87-5.57,1.34l-.17,0q-.93.23-1.83.51-1.26.36-2.52.75c-.62.2-1.25.38-1.84.61-1.34.38-2.7.75-4,1.22a76.69,76.69,0,0,0-8.38,3.42,3.55,3.55,0,0,1-2,2c.82.08,7.88-2.41,11-3.76,1.77-.76,3.63-1.25,5.41-2,.7-.27,1.38-.58,2-.89,1.2-.41,2.4-.81,3.61-1.11,2.88-.69,9-1.7,11.52-3.28A1.28,1.28,0,0,1,156,132.5Z"/></g><g id="Layer_11_copy" data-name="Layer 11 copy"><path class="cls-8" d="M81.7,107.13a25.7,25.7,0,0,1-4.4-6.21c-.17-.28-.56,0-.55.22a17,17,0,0,0,.43,4.43c0,.15.1.29.15.44a1.57,1.57,0,0,0-.54,2.09A12.84,12.84,0,0,0,81,113.19c1.65,1.09,4.06.68,4.16-1.65C85.2,109.51,83,108.3,81.7,107.13Z"/><path class="cls-7" d="M76.85,96.78a1.57,1.57,0,0,0-.73-.32,15.62,15.62,0,0,0-1.81-.18,16.42,16.42,0,0,0-5.1-.34,69.81,69.81,0,0,0-9.09,1.3,25.28,25.28,0,0,0-4.42,1.1,7.32,7.32,0,0,0-1.84.72,1.42,1.42,0,0,0-.62.65c-2.74,2-2.34,6.81-2.17,10.12a51.39,51.39,0,0,0,.79,8c.45,2.15,1.08,5.25,3,6.54a3.67,3.67,0,0,0,1,.46,5.65,5.65,0,0,0,1.74.51,14.86,14.86,0,0,0,5.69-.36c1.9-.19,3.8-.55,5.69-.78a35.86,35.86,0,0,0,8.17-1.93,6.52,6.52,0,0,0,4.5-5.05,11.93,11.93,0,0,0-.26-4.33c.31-3.08-.53-6.46-1.17-9.31C79.78,101.45,79,97.89,76.85,96.78Z"/><path class="cls-6" d="M51,108.72c1.12-.3,2.22-.75,3.24-1.13A42.1,42.1,0,0,0,61.82,104c3.58-2.2,8.24-4.52,11.08-8a18.91,18.91,0,0,0-3.69-.07,69.81,69.81,0,0,0-9.09,1.3,25.28,25.28,0,0,0-4.42,1.1,7.32,7.32,0,0,0-1.84.72,1.42,1.42,0,0,0-.62.65C50.79,101.53,50.85,105.53,51,108.72Z"/><path class="cls-6" d="M50.74,105.09a2.74,2.74,0,0,0-4.09,0A4,4,0,0,0,45.59,108a2.94,2.94,0,0,0,.65,2,2.61,2.61,0,0,0,3.52.51A3.81,3.81,0,0,0,51,109a2.64,2.64,0,0,0,.37-1.28A3.33,3.33,0,0,0,50.74,105.09Z"/><path class="cls-6" d="M47.17,108.87a2.65,2.65,0,0,0-.63.08c-5.38,0-9.88,4.92-13.5,8.34a58.09,58.09,0,0,0-6.44,7.14c-1.63,2.15-3.51,4.77-4.16,7.43a.61.61,0,0,0,0,.14l-.15.2a.46.46,0,0,0,.29.73c2.58.26,5.54-1.4,7.79-2.45a39.15,39.15,0,0,0,8.54-5.29c2.44-2,5.23-4.23,7-6.91a18.15,18.15,0,0,0,2.56-6.36,4.27,4.27,0,0,0,.4-.8A1.65,1.65,0,0,0,47.17,108.87Z"/><path class="cls-6" d="M61.85,110.28a8,8,0,0,1,.18,1.54,3.29,3.29,0,0,0,.14,1.29.29.29,0,0,0,.56-.06,4.31,4.31,0,0,0-.15-1.55,3.79,3.79,0,0,0-.47-1.36C62,110,61.81,110.13,61.85,110.28Z"/><path class="cls-6" d="M64.2,111.1a9.29,9.29,0,0,1,.2,1.66c0,.28,0,.93.49.82s.3-.86.26-1.19a2.61,2.61,0,0,0-.57-1.44C64.46,110.8,64.14,110.88,64.2,111.1Z"/><path class="cls-6" d="M67.19,111.28a.22.22,0,0,0-.35.26,3,3,0,0,1,.27,1.15c0,.33,0,.65.31.88a.3.3,0,0,0,.4,0c.24-.34.09-.76,0-1.13A3,3,0,0,0,67.19,111.28Z"/><path class="cls-6" d="M69.84,111.16c-.13-.11-.33.07-.22.2a3,3,0,0,1,.4.56,5,5,0,0,1,.2.62c.07.17.37.21.42,0a.8.8,0,0,0-.16-.77A2.89,2.89,0,0,0,69.84,111.16Z"/><path class="cls-6" d="M72.65,110.3a6.29,6.29,0,0,0-.93-.7c-.07-.06-.16,0-.14.1a3.45,3.45,0,0,0,.4.79c.2.26.18.58.37.84a.29.29,0,0,0,.46,0A.82.82,0,0,0,72.65,110.3Z"/><path class="cls-6" d="M74.11,108.44a2,2,0,0,0-.73-.45.21.21,0,0,0-.25.31,5.33,5.33,0,0,1,.32.63c.12.23.15.46.42.57a.39.39,0,0,0,.49-.2A.81.81,0,0,0,74.11,108.44Z"/><path class="cls-6" d="M81.81,115.66c0-.12,0-.24,0-.36s0-.49,0-.73h-.13c-1.21.3-2,1.37-3.33,1.15a4.72,4.72,0,0,1-1.77-.79c-.32-.22-.45-.39-.83-.37a.12.12,0,0,0-.11.13c0,.53.61.93,1,1.26a3.41,3.41,0,0,0,1.86.84A4.47,4.47,0,0,0,81.81,115.66Z"/><path class="cls-6" d="M67.76,99.89c-2.66.64-5.82,1.35-7.6,3.59a.39.39,0,0,0,.45.6c2.32-.78,4.45-1.93,6.82-2.63a16.56,16.56,0,0,1,2.67-.67,18.57,18.57,0,0,0,2-.06.36.36,0,0,0,.23-.37C72,98.71,68.79,99.65,67.76,99.89Z"/><path class="cls-3" d="M68.43,109.32A2.88,2.88,0,0,1,68,107.5a3.78,3.78,0,0,1,0-.67,3.41,3.41,0,0,1,.74-1.67,4.54,4.54,0,0,1,2-2.11,3.75,3.75,0,0,0-1.11-.26,8,8,0,0,0-3.75.24c-2.41.74-5.4,2.78-5.8,5.45a.34.34,0,0,0,.18.35c1.93,2.89,4.68,3.62,8,2.87a10.78,10.78,0,0,0,1.44-.43A4.65,4.65,0,0,1,68.43,109.32Z"/><path class="cls-6" d="M72.44,109.68a5.59,5.59,0,0,0,1.85-3,.85.85,0,0,0-.07-.72,6.33,6.33,0,0,0-3.16-2.78c-.1-.06-.21-.1-.31-.15a4.54,4.54,0,0,0-2,2.11,3.41,3.41,0,0,0-.74,1.67,3.78,3.78,0,0,0,0,.67,2.88,2.88,0,0,0,.48,1.82,4.65,4.65,0,0,0,1.31,2A7.9,7.9,0,0,0,72.44,109.68Z"/></g><g id="Layer_3" data-name="Layer 3"><path class="cls-14" d="M174.83,217.69c-2.08,2.08-4.85,5.86-8.31,10.32s-7.47,10.67-11.39,13.92-11.55,14.22-13.62,17.23-3.92,5.94-3.41,9.1,6.44.92,11.6,1.89c6.27,1.18,4.5,6.36,7,4.08s8.79-12,11.57-15.07,9.83-11.38,9.83-11.38,2.93-3.52,6.5-7.84c5.51-6.69,12.55-15.3,12.68-15.79.34-1.35,2.49-4.84,2.93-6.46s.64-7.31-3.77-9.78c-3.26-1.82-9.12-.93-13.53,2.47A102.26,102.26,0,0,0,174.83,217.69Z"/><path class="cls-15" d="M138.1,268.26c.5,3.15,1,7.38,6,8.95,4.83,1.51,10-1,12.62-3,3.35-5,.89-11.85-4.19-14.11a38.06,38.06,0,0,0-5.55-1.07c-2.39-.22-4.26-.35-7.32,3A9.54,9.54,0,0,0,138.1,268.26Z"/><path class="cls-14" d="M114.91,240.15c2-.31,29.6-3.79,31.67-5.05s27.53-4,31.59-4.52,23.93-4.24,29.77-5.25,14.09-.75,15.61,6c.92,4.1-1.34,12.05-5.69,13-6.78,1.49-21.05,2.75-32,4.46s-45.35,6.41-53.31,9.28a71.77,71.77,0,0,1-17.65,3.81,9.73,9.73,0,0,1-10.46-8.73C103.28,245.34,110.54,240.83,114.91,240.15Z"/><path class="cls-4" d="M140.15,241.83s5.84,1.38,3.13,13.76l.84-.16,7.14-9.22Z"/><path class="cls-14" d="M126.16,215.4c2.81.83,43,15.72,46.76,17.56s29.57,11.55,31.74,12.37,12.92,5.28,16,6.77-.21,4.66-3.75,11.24-2.16,9.72-6.59,7.39c-2.92-1.53-33.44-15.07-35.44-15.8s-19.31-7.7-22.58-8.65S125.09,235.78,122,235.1s-6.15-3-6.22-3.39-6-5-3.26-11.77S122.6,214.34,126.16,215.4Z"/><path class="cls-15" d="M220.05,251.82c-4.11-1.85-8.65.1-11.63,3.14a9.76,9.76,0,0,0-1.55,11.85c0,.1.11.18.16.28a7,7,0,0,0,.58,1.12c2.19,3.48,6.58,4.27,10.26,3C226.17,268.22,229.07,255.88,220.05,251.82Z"/><g class="cls-16"><path class="cls-15" d="M165.84,133.31c.52,2.69-.33,2.69.85,5.88s1.73,3.37,1.45,6.23a16.38,16.38,0,0,0,0,5.4,45.3,45.3,0,0,1,1.75,7.16c.51,3.76-.5,4.26.84,6.45a43.66,43.66,0,0,1,2.86,4.83c1.13,2.62,1.85,8.45,3.31,10.89.69,1.15,3.35,2.52,3.8,3.78.73,2.06-.68,6.5-.72,8.68A107.66,107.66,0,0,0,180.7,207c.28,1.65,1.26,4.84,1.71,6.44a12.32,12.32,0,0,1,0,7.21c-.91,3.68-1,5-1.71,6.54-1,2.21-3.07,4.41-7.11,6.66s-8.31,4.46-11.36,4.48c-3.57,0-10.58-3-13.57-4.48s-4.67-3.12-4.84-6.15-.68-3.87-.51-8.25.71-5,1.31-6.58c1.22-3.16,2.82-10.57,4-12.93s-.09-1.8.31-5.55.95-4.08,3.28-7.93,2.26-5.69,2.88-9.23-1.72-3.38.13-5.73,3.12-9.33,4.28-14.38.57-4.75,2.35-9,.93-4.54,1.28-7S165.84,133.31,165.84,133.31Z"/></g><g class="cls-16"><path class="cls-15" d="M180.7,162.91c1.3,5.05.65,4.67,2.24,10.73s2.34,6.05,2.85,9.21.25,4.54,2.27,8.7,3.41,1.9,2.9,6.56-1.26,6.56.13,10.47,3.12,4.42,1.56,7.45.45,4.35-2.51,6.34-7.56,8.79-9.44,8.17-5.64-.51-7.15-1.52-4.25-5.67-5.41-7.31-2-2.28-1.45-5.81a23.66,23.66,0,0,0,0-7.44c-.21-1.77,0-3,1.45-5.43s2.76-3,2.63-5.42-.88-3.28.38-6.06,6-13.16,5.93-16-.52-5.06.94-7.2A30.49,30.49,0,0,0,180.7,162.91Z"/></g><g class="cls-16"><path class="cls-15" d="M143.28,194.58c.87,5.68.53,3,1.34,4.92a95.87,95.87,0,0,1,2.32,9.34s1.38,5,3,7.31,2,2,1.89,5.56-.88,4-.25,6.56a11.24,11.24,0,0,1,.65,4.84c0,3.1.43,2.93-1,5.23s-2.14,3.46-3.19,3.68-2.27-.63-4.16-.13-2.63,1.32-4.29.88-1.82-1.17-2.85-3.22a48.31,48.31,0,0,0-2.7-4.53c-1.38-2.27-1.13-3.22-.13-6.5s.76-4,1.39-6.18,1.52-2.48,2.15-4.65a59.38,59.38,0,0,0,2.28-9.78,18.23,18.23,0,0,1,1.76-6.77A40.93,40.93,0,0,0,143.28,194.58Z"/></g><g class="cls-16"><path class="cls-15" d="M162.23,192.4c-1.55,4.58-3.19,11.9-5.46,17.07s-3.15,4.41-3.91,9.27-4.24,11.57-4.06,17.18-1.33,6.16.17,9.41,2.76,3.27,6.16,4.84,7.42,2.09,10.71,0,5.51-.14,6.1-4.84-.3-3.28,0-7,1.74-2.92,1-5.35-2.78-7.54-3.16-10.59.64-6.47-.25-8.55-4-9.9-4.92-13.06a59.19,59.19,0,0,1-1.48-6.18A7.26,7.26,0,0,0,162.23,192.4Z"/></g><g class="cls-16"><path class="cls-15" d="M199.27,214.13c1.84,6,1.26,6.54,2.59,12.73s5.12,7.51,3.1,13.77-.84,11.27-2.63,11.92-9,1.41-10.74-1-.66-8.48,1.06-13.23,3-7.42,2.95-12.06S199.27,214.13,199.27,214.13Z"/></g><path class="cls-15" d="M110.21,241.35c-7,3.27-10.19,14.39-2.77,19.18a8.16,8.16,0,0,0,4.65,1.26c5.3.93,11.35-2.06,12.27-7.88C125.58,246.1,118.19,237.63,110.21,241.35Z"/><path class="cls-8" d="M214.91,270.08a6.39,6.39,0,0,1-2.84-.64c-2.3-1.12-3.74-3.55-4.06-6.84a8.55,8.55,0,0,1,1-5,8.37,8.37,0,0,1,2.11-2.49,8.19,8.19,0,0,1,7.06-1.85,7.9,7.9,0,0,1,5.09,4c1.59,3.2.14,6.39-.33,7.44a9,9,0,0,1-3.31,4A9.33,9.33,0,0,1,214.91,270.08Zm1.54-16.62a8.44,8.44,0,0,0-5.14,1.95,7.92,7.92,0,0,0-2,2.39h0a8.11,8.11,0,0,0-.91,4.76c.31,3.16,1.67,5.48,3.85,6.54,3.21,1.56,6.5-.35,7.13-.75a8.44,8.44,0,0,0,3.17-3.83c.5-1.11,1.85-4.07.34-7.11a7.52,7.52,0,0,0-4.84-3.77A6.86,6.86,0,0,0,216.45,253.46Z"/><path class="cls-8" d="M214.84,267.93a5,5,0,0,1-3.05-.95,6,6,0,0,1-2.1-4.38,7,7,0,0,1,1.56-5.19,7.16,7.16,0,0,1,4.11-2.21h0a7.66,7.66,0,0,1,2.29-.08,5.17,5.17,0,0,1,3,1.1,5.45,5.45,0,0,1,1.54,3.87,7.72,7.72,0,0,1-.3,2.75,6.71,6.71,0,0,1-1.61,3.07,6.45,6.45,0,0,1-3.33,1.74A9.71,9.71,0,0,1,214.84,267.93Zm.55-12.54,0,.19a6.63,6.63,0,0,0-3.89,2.08,6.49,6.49,0,0,0-1.46,4.9,5.55,5.55,0,0,0,1.94,4.12c1.74,1.3,3.92.81,4.85.6a6.05,6.05,0,0,0,3.14-1.63,6.35,6.35,0,0,0,1.51-2.91,7.59,7.59,0,0,0,.29-2.62,5.1,5.1,0,0,0-1.41-3.62,4.89,4.89,0,0,0-2.8-1,6.9,6.9,0,0,0-2.17.08Z"/><path class="cls-8" d="M215.36,266.05a4,4,0,0,1-3.14-1.24,4.1,4.1,0,0,1-.84-2.6,4.7,4.7,0,0,1,.79-3.06,4.89,4.89,0,0,1,2.4-1.71,6,6,0,0,1,1.74-.35,4.05,4.05,0,0,1,3.17.82,3.43,3.43,0,0,1,.85,1.9,5.64,5.64,0,0,1,0,2.52,4.51,4.51,0,0,1-1,2.23,4.26,4.26,0,0,1-2.24,1.28A7.26,7.26,0,0,1,215.36,266.05Zm1.63-8.6q-.36,0-.66,0a5.25,5.25,0,0,0-1.63.32h0a4.52,4.52,0,0,0-2.22,1.57,4.29,4.29,0,0,0-.72,2.82,3.82,3.82,0,0,0,.75,2.37c1.4,1.66,4.17,1,4.48.91a4,4,0,0,0,2-1.16,4.37,4.37,0,0,0,.88-2.06,5.43,5.43,0,0,0,0-2.36,3.07,3.07,0,0,0-.75-1.71A3,3,0,0,0,217,257.45Z"/><path class="cls-8" d="M215.39,264.07a2,2,0,0,1-1.53-.6,2.52,2.52,0,0,1-.16-2.52,2.7,2.7,0,0,1,1.5-1.45,2.49,2.49,0,0,1,1.87.05,2.09,2.09,0,0,1,1.19,1.2,2.49,2.49,0,0,1-.53,2.34,2.76,2.76,0,0,1-1.4.85A3.65,3.65,0,0,1,215.39,264.07Zm.71-4.34a2.45,2.45,0,0,0-.77.13h0a2.36,2.36,0,0,0-1.28,1.24c-.09.23-.55,1.38.1,2.11a2.13,2.13,0,0,0,2.08.37,2.39,2.39,0,0,0,1.21-.74,2.16,2.16,0,0,0,.47-2,1.8,1.8,0,0,0-1-1A1.9,1.9,0,0,0,216.1,259.73Z"/><path class="cls-8" d="M215.87,262.46a.71.71,0,0,1-.21,0,.74.74,0,0,1-.48-.34.8.8,0,0,1,0-.61.85.85,0,0,1,.48-.5h0a.79.79,0,0,1,.64,0,.73.73,0,0,1,.4.39.8.8,0,0,1-.32.95A.86.86,0,0,1,215.87,262.46Zm.06-1.16a.47.47,0,0,0-.17,0h0a.46.46,0,0,0-.25.28.32.32,0,0,0,.24.45.46.46,0,0,0,.38-.06.43.43,0,0,0,.18-.48.37.37,0,0,0-.2-.19A.52.52,0,0,0,215.93,261.3Z"/><path class="cls-8" d="M147,276a7.22,7.22,0,0,1-1.56-.17,7.55,7.55,0,0,1-4.36-2.68,8.21,8.21,0,0,1-1.59-4.94,7.55,7.55,0,0,1,.25-2.72,7.32,7.32,0,0,1,1.52-2.76h0a7.34,7.34,0,0,1,2.16-1.69,8,8,0,0,1,4.82-.44c1.92.28,3.9.55,5.65,2.11s3.43,4.76,2.54,7.73a7,7,0,0,1-2.51,3.5,9.12,9.12,0,0,1-4,1.63A12.88,12.88,0,0,1,147,276Zm-5.46-13a7,7,0,0,0-1.43,2.62,7.45,7.45,0,0,0-.24,2.59,7.87,7.87,0,0,0,1.51,4.72,7.18,7.18,0,0,0,4.14,2.54,9,9,0,0,0,4.29-.25,8.8,8.8,0,0,0,3.88-1.56,6.57,6.57,0,0,0,2.37-3.31c.84-2.81-.66-5.77-2.42-7.33s-3.51-1.74-5.45-2a7.52,7.52,0,0,0-4.6.41,6.72,6.72,0,0,0-2.05,1.59Z"/><path class="cls-8" d="M147,273.93a5.09,5.09,0,0,1-3.4-1.07c-1.64-1.36-1.75-3.54-1.83-5.14a5.55,5.55,0,0,1,.66-3.52,5,5,0,0,1,2.22-1.83,7.24,7.24,0,0,1,5.49.12,6.56,6.56,0,0,1,3.54,2.42,5.85,5.85,0,0,1,.87,4.44,5.57,5.57,0,0,1-2.05,3.18,6.7,6.7,0,0,1-3.88,1.3C148.12,273.88,147.57,273.93,147,273.93Zm.07-11.69a5.59,5.59,0,0,0-2.26.47h0a4.66,4.66,0,0,0-2.06,1.7,5.18,5.18,0,0,0-.6,3.29c.08,1.61.18,3.62,1.69,4.87s3.26,1,4.74.88a6.29,6.29,0,0,0,3.69-1.22,5.3,5.3,0,0,0,1.91-3,5.45,5.45,0,0,0-.82-4.14,6.16,6.16,0,0,0-3.35-2.28A8.6,8.6,0,0,0,147.08,262.24Z"/><path class="cls-8" d="M146.89,272.32a2.62,2.62,0,0,1-1.4-.32,4.18,4.18,0,0,1-1.73-2.94,4.43,4.43,0,0,1,.31-3.16,4.19,4.19,0,0,1,2.73-2h0a4.91,4.91,0,0,1,4.9,1.54,4.65,4.65,0,0,1,1.1,3,3.77,3.77,0,0,1-1.12,2.88c-.68.6-1.47.68-3.05.84A16.41,16.41,0,0,1,146.89,272.32Zm0-8.22,0,.18a3.85,3.85,0,0,0-2.49,1.8,4.09,4.09,0,0,0-.27,2.9,3.84,3.84,0,0,0,1.55,2.69c.65.37,1.41.3,2.91.14s2.25-.23,2.84-.75a3.38,3.38,0,0,0,1-2.59,4.37,4.37,0,0,0-1-2.78,4.53,4.53,0,0,0-4.52-1.41Z"/><path class="cls-8" d="M148.21,271a2.63,2.63,0,0,1-1.25-.31,2.91,2.91,0,0,1-1.36-2.35,2.83,2.83,0,0,1,1.28-2.57h0a2.52,2.52,0,0,1,2.05-.1,3,3,0,0,1,1.68,2.16,2.6,2.6,0,0,1-.42,2.26A2.53,2.53,0,0,1,148.21,271Zm-.23-5.12a1.93,1.93,0,0,0-.92.22h0a2.57,2.57,0,0,0,.09,4.25,2.26,2.26,0,0,0,2.74-.5,2.23,2.23,0,0,0,.34-1.94,2.56,2.56,0,0,0-1.44-1.88A2.25,2.25,0,0,0,148,265.85Z"/><path class="cls-8" d="M148.25,269.22a1,1,0,0,1-.69-.31.89.89,0,0,1-.27-.78.91.91,0,0,1,.8-.61h0a.94.94,0,0,1,1,.6.86.86,0,0,1-.1.66.92.92,0,0,1-.59.42Zm-.06-1.32h-.06a.54.54,0,0,0-.47.32.49.49,0,0,0,.17.42.57.57,0,0,0,.49.19.56.56,0,0,0,.34-.25.46.46,0,0,0,.06-.35A.54.54,0,0,0,148.19,267.9Z"/><path class="cls-8" d="M112.9,260.29a7.1,7.1,0,0,1-2.8-.56,8.07,8.07,0,0,1-4.65-5.47,9,9,0,0,1,0-3.31,9.73,9.73,0,0,1,1.29-3.9,9.36,9.36,0,0,1,2.66-2.83,8.35,8.35,0,0,1,3.82-1.76h0a8,8,0,0,1,6,1.89c1.46,1.24,3.16,3.62,3,8a7.71,7.71,0,0,1-1.73,5.08,7.55,7.55,0,0,1-3.36,2A12.1,12.1,0,0,1,112.9,260.29Zm.33-17.45a8,8,0,0,0-3.66,1.69,9.12,9.12,0,0,0-2.55,2.72,9.22,9.22,0,0,0-1.24,3.75,8.68,8.68,0,0,0,0,3.17,7.66,7.66,0,0,0,4.43,5.21c2.62,1.09,5,.23,6.63-.34a7.12,7.12,0,0,0,3.2-1.88,7.42,7.42,0,0,0,1.64-4.85c.14-3.37-.81-5.95-2.84-7.66a7.52,7.52,0,0,0-5.65-1.81Z"/><path class="cls-8" d="M113.68,258.16h-.41a6,6,0,0,1-4.34-1.92,6.15,6.15,0,0,1-1.26-3.86,6.86,6.86,0,0,1,.87-4.18,6.52,6.52,0,0,1,3.42-2.78h0c.14,0,3.42-1.12,5.82.88,1.51,1.26,1.79,3,2.09,4.82a6,6,0,0,1-.19,3.52,5.48,5.48,0,0,1-2.34,2.48A7.08,7.08,0,0,1,113.68,258.16Zm-1.59-12.39a6.13,6.13,0,0,0-3.22,2.61,6.53,6.53,0,0,0-.82,4,5.74,5.74,0,0,0,1.18,3.63,5.62,5.62,0,0,0,4.07,1.79,6.64,6.64,0,0,0,3.84-1,5.2,5.2,0,0,0,2.19-2.32,5.5,5.5,0,0,0,.16-3.3c-.28-1.76-.55-3.42-1.95-4.59-2.24-1.87-5.32-.85-5.45-.81Z"/><path class="cls-8" d="M113.77,256.37a4.48,4.48,0,0,1-4.37-5.87,5.08,5.08,0,0,1,1.92-2.75,4.34,4.34,0,0,1,2.73-.92h0a4.24,4.24,0,0,1,3,1.55c.58.78.64,1.76.75,3.72a4.71,4.71,0,0,1-.14,2.19,3.76,3.76,0,0,1-2.82,2A4.86,4.86,0,0,1,113.77,256.37Zm.14-9.16a4,4,0,0,0-2.36.85,4.72,4.72,0,0,0-1.78,2.55,4.06,4.06,0,0,0,1.72,4.75,4.52,4.52,0,0,0,3.31.52,3.4,3.4,0,0,0,2.56-1.74,4.56,4.56,0,0,0,.11-2c-.11-1.88-.16-2.82-.68-3.51a3.92,3.92,0,0,0-2.75-1.4Z"/><path class="cls-8" d="M113.91,254.66a3.91,3.91,0,0,1-.62,0,3,3,0,0,1-2.29-1.9,2.93,2.93,0,0,1,.89-2.79,2.75,2.75,0,0,1,2.34-1h0a3.08,3.08,0,0,1,1.94,4.72A2.77,2.77,0,0,1,113.91,254.66Zm.06-5.36a2.52,2.52,0,0,0-1.81.88,2.27,2.27,0,0,0,1.2,4.06,2.67,2.67,0,0,0,2.51-.82,2.6,2.6,0,0,0,.26-2.42,2.65,2.65,0,0,0-1.94-1.68h0Z"/><path class="cls-8" d="M113.89,253.07a1.46,1.46,0,0,1-.55-.11,1.33,1.33,0,0,1-.82-1.58,1.29,1.29,0,0,1,1.48-.8h0a1.34,1.34,0,0,1,.83.67,1.32,1.32,0,0,1,.23,1.14,1,1,0,0,1-.59.56A1.47,1.47,0,0,1,113.89,253.07Zm-.15-2.14a.9.9,0,0,0-.86.57,1,1,0,0,0,.61,1.11,1.13,1.13,0,0,0,.83,0,.68.68,0,0,0,.39-.35.94.94,0,0,0-.2-.79,1.06,1.06,0,0,0-.59-.51h0Z"/><path class="cls-4" d="M180.56,257.4l-7.84-3.29,11.11-13.21S176.54,248,180.56,257.4Z"/><g class="cls-17"><path class="cls-15" d="M161.22,228.12c-.51,1.52-1.06,4-1.82,5.69s-1.05,1.47-1.3,3.09-1.41,3.85-1.35,5.72-.45,2.06.05,3.14.92,1.09,2.06,1.61a3.71,3.71,0,0,0,3.57,0c1.09-.7,1.83,0,2-1.61s-.1-1.09,0-2.34.58-1,.33-1.78a24.89,24.89,0,0,1-1.06-3.53c-.12-1,.21-2.16-.08-2.85S162.3,232,162,230.9a20.11,20.11,0,0,1-.49-2.06A2.57,2.57,0,0,0,161.22,228.12Z"/></g><g class="cls-16"><path class="cls-15" d="M198.55,235.6a39.34,39.34,0,0,1,1,4.76c.5,2.31,1.91,2.8,1.16,5.14s-.32,4.21-1,4.45-3.35.53-4-.37-.25-3.17.4-5a11.79,11.79,0,0,0,1.1-4.5A13.65,13.65,0,0,1,198.55,235.6Z"/></g><g class="cls-16"><path class="cls-15" d="M142.55,221.19c.29,2,.18,1,.45,1.7s.79,3.23.79,3.23a10.22,10.22,0,0,0,1,2.53c.55.79.68.7.64,1.92s-.3,1.4-.09,2.27a3.75,3.75,0,0,1,.22,1.67c0,1.08.15,1-.33,1.81s-.73,1.2-1.08,1.27-.77-.21-1.41,0-.89.46-1.45.3-.62-.4-1-1.11a17.19,17.19,0,0,0-.91-1.57c-.47-.78-.39-1.11-.05-2.24s.26-1.4.47-2.14.52-.86.73-1.61a20.68,20.68,0,0,0,.77-3.38,6.41,6.41,0,0,1,.6-2.34A14.1,14.1,0,0,0,142.55,221.19Z"/></g><g class="cls-16"><path class="cls-15" d="M180.12,197.78c.48,1.89.24,1.75.83,4s.89,2.28,1.07,3.46a8.32,8.32,0,0,0,.86,3.27c.76,1.57,1.28.71,1.09,2.47s-.48,2.46,0,3.93,1.18,1.66.59,2.79.17,1.64-.94,2.38-2.84,3.31-3.54,3.07-2.12-.19-2.69-.57a15.58,15.58,0,0,1-2-2.74,2.24,2.24,0,0,1-.55-2.18,8.78,8.78,0,0,0,0-2.8,2.78,2.78,0,0,1,.55-2c.56-.9,1-1.13,1-2s-.33-1.24.14-2.28,2.25-4.94,2.23-6-.2-1.91.35-2.71A11.35,11.35,0,0,0,180.12,197.78Z"/></g><g class="cls-16"><path class="cls-15" d="M164.69,195c.17.89-.11.89.28,1.95s.57,1.1.48,2.05a5.34,5.34,0,0,0,0,1.78,14.21,14.21,0,0,1,.57,2.36c.17,1.24-.16,1.41.28,2.13a13.91,13.91,0,0,1,.94,1.59c.38.86.61,2.79,1.1,3.59.22.38,1.1.83,1.25,1.25.24.68-.23,2.14-.24,2.86a34.06,34.06,0,0,0,.24,4.74c.09.54.41,1.59.56,2.12a4,4,0,0,1,0,2.38,13.07,13.07,0,0,1-.56,2.16,5.13,5.13,0,0,1-2.35,2.19,9.51,9.51,0,0,1-3.74,1.48,14.24,14.24,0,0,1-4.48-1.48,2.29,2.29,0,0,1-1.59-2,16.39,16.39,0,0,1-.17-2.71,4.66,4.66,0,0,1,.43-2.18c.4-1,.93-3.48,1.33-4.26s0-.59.1-1.83a4.88,4.88,0,0,1,1.08-2.62,6.79,6.79,0,0,0,1-3c.2-1.16-.57-1.11,0-1.89s1-3.08,1.41-4.74a11.51,11.51,0,0,1,.78-3,5.09,5.09,0,0,0,.42-2.31A15,15,0,0,1,164.69,195Z"/></g></g><g id="Layer_5" data-name="Layer 5"><path class="cls-6" d="M163.53,292.81c-.62-2.35-1-4.8-1.36-7.22-.29-1-.57-1.93-.81-2.9a3.26,3.26,0,0,0-.69-.22.26.26,0,0,0-.21-.11,8.86,8.86,0,0,0-1.71,0,5,5,0,0,0-.09-.51c-.06-.24-.11-.52-.18-.79L159,281a.67.67,0,0,0,0-1.28,4.62,4.62,0,0,0-2,.14.63.63,0,0,0,.07,1.24.62.62,0,0,0,.51.14l.14,0c0,.18.11.36.17.53a6.44,6.44,0,0,1,.2.72,24.19,24.19,0,0,0-3.4.86c0-.11-.05-.21-.07-.3a10.4,10.4,0,0,0-.28-1.2l.2-.07h0l.16-.06c.59-.24.36-1.32-.3-1.25a2.88,2.88,0,0,0-1.3.41.82.82,0,0,0-.32.4.56.56,0,0,0,.18.75.68.68,0,0,0,.54.18,8.16,8.16,0,0,0,.35,1c0,.11.06.23.1.34-.45.14-.91.27-1.37.39-.7.18-1.47.33-2.24.5a4,4,0,0,0-.2-1.32h.05l.16-.08.16-.06a.63.63,0,0,0,.31-.69.66.66,0,0,0-.59-.47,3.13,3.13,0,0,0-1.58.36.65.65,0,0,0-.26.88.66.66,0,0,0,.88.27l.08,0h0a6,6,0,0,1,.27,1.07l0,.24a18.31,18.31,0,0,0-1.93.52l0,.14h0c0,.07,0,.14,0,.21a.43.43,0,0,1,0,.11l-.06.3s0,.08,0,.12,0,.2-.05.3,0,.08,0,.12,0,.28-.05.42a.15.15,0,0,1,0,.07h0c0,.12,0,.25,0,.38h0v.05a.72.72,0,0,1-.23.6c0,.11,0,.22,0,.33l-.21,0c-1.39.19-2.77.51-4.14.82-2.56.57-5.15,1.06-7.72,1.58a3.13,3.13,0,0,0-1.24-.61,4.59,4.59,0,0,0-1.62-.33,6.39,6.39,0,0,0-2-.16,3,3,0,0,0-2.65,2.78c-3.81.95-7.59,2-11.39,2.94-2.43.61-4.9,1.1-7.28,1.89l-.42.14c-1.16-2.77-2.37-5.53-3.51-8.31-1.39-3.38-2.66-6.84-4.37-10.08a.93.93,0,0,0-.36-1.17A60.71,60.71,0,0,0,83,270.68c.14-1.5.15-3,.26-4.5.15-1.83.33-3.69.4-5.54v-.2l.52-.05a6.71,6.71,0,0,0,2.81-.45,9,9,0,0,0,3.29-1.43.59.59,0,0,0,.31-.13,3.34,3.34,0,0,0,.73-.78.88.88,0,0,0,.82-.52,15.15,15.15,0,0,0,1.13-6.67,2.64,2.64,0,0,0,.73-.48,2.82,2.82,0,0,0,1.16-.67,1.36,1.36,0,0,0,.32-.69,41.64,41.64,0,0,1-2.17-5c-.24-.58-.47-1.16-.66-1.76l-.14-.12A16.66,16.66,0,0,0,90.87,235l1.59-.51c.62-.2,1.24-.41,1.85-.64a.91.91,0,0,0,.22-.13l.8-.33c.59-.25.25-1.25-.33-1.15a.75.75,0,0,0-.18-.07,27.9,27.9,0,0,0-5.44-.37c.06-.12-.14-.38-.34-.62a7.34,7.34,0,0,0-1.89-2.39l-.23-.29-.43-.57a18.32,18.32,0,0,0-2-2.69c-.32-.44-.64-.89-1-1.34a10.46,10.46,0,0,0-.92-1.33.67.67,0,0,0-.38-.23l0,0a1.14,1.14,0,0,0-1.14-.9c-2.77,0-5.35,1-8.07,1.42s-5.84.59-8.46,1.57c-2.16.82-2.57,2.61-3,4.66-.49,2.44-1,4.87-1.35,7.32l-.5.09a5,5,0,0,0-3.26,1.37v1c.12,1.35.18,2.7.22,4.06,0,.74,0,1.47.09,2.21a15.18,15.18,0,0,0,4.21-1.1l-.06.6c.17.32.33.65.47,1h0c.16.38.3.76.44,1.15v0c.1.31.2.62.29.94.42,3,.69,5.91,1.13,8.86.26,1.77.7,3.49,1.08,5.23.07.55.15,1.12.21,1.69,0,.19.1.37.16.55,0,.63.08,1.26.17,1.89a8.13,8.13,0,0,0,.55,1.69q0,.42.12.84c-1,.44-2,.93-3,1.3-2.34.82-4.66,1.59-7,2.53-1.83.75-3.72,1.39-5.47,2.32-1.17.63-2.79,1.46-3.09,2.85-1.8,2-3,5-4.12,7.25a66.2,66.2,0,0,0-3.44,8.58A75.58,75.58,0,0,0,37.16,303c-.61,3.33-.65,6.71-1.23,10a.72.72,0,0,0,1.15.74c1.39.38,2.81.67,4.23,1a37,37,0,0,0,1.3,7.36L38.24,324a27.73,27.73,0,0,0-5,2.33c-2.91,2-3,5.48-3,8.71.08,3.73.83,8,2.88,11.12a1.83,1.83,0,0,0,.21.26.83.83,0,0,1,.07.13.46.46,0,0,0,.24.65l0,0a.62.62,0,0,0,.39.6,71.63,71.63,0,0,0,8.43,3.26c3.52,1.1,7,2.62,10.62,3.2a6,6,0,0,0,.84.08l0,0c.86.65,2.56-.11,3.58-.19,1.7-.13,3.42,0,5.13-.08,4.56-.16,9.12-.45,13.68-.61s8.9-.06,13.34-.22c3.06-.11,6.09-.29,9.12-.36a29.31,29.31,0,0,0,3.11,0l1.92,0a1.34,1.34,0,0,0,1.1-.43,56.62,56.62,0,0,0,6.24-1.62,125.34,125.34,0,0,0,13.12-1.95l.75,0a1,1,0,0,0,1.14-.76,1.07,1.07,0,0,0,1-.49,30.73,30.73,0,0,0,5.23-12c.87-2.46,1.25-5,.14-7.18a5.22,5.22,0,0,0-.83-1.2,5.31,5.31,0,0,0-2.59-1.66,16,16,0,0,0-2.72-.76l-.45-.13c-3.08-1-6.14-2-9.26-2.82l-.25-.06c1.18-1.17,2.32-2.38,3.5-3.46,2.32-2.1,4.42-4.34,6.55-6.61.18-.17.37-.33.54-.51q2.19-2.13,4.25-4.38c1-.95,1.91-1.89,2.85-2.84.73-.74,1.68-1.6,2.52-2.56.27-.07.55-.13.81-.21,2.23-.65,5.14-2.3,5-4.81,1-.23,2-.44,3-.65a26.63,26.63,0,0,0,3.19-.81,4.19,4.19,0,0,0,.33.71v0l.06.06.09.08.11.15h0l.08.16h0v0h0a3.72,3.72,0,0,0,.21.39,1.94,1.94,0,0,1,.21.2,1.52,1.52,0,0,0,.81.09l1.2-.25c0,.16.06.33.08.5s0,.35.05.52a.69.69,0,0,0-.32.38l-.15.05h0l-.16.06a.63.63,0,0,0,.28,1.18,4.34,4.34,0,0,0,1.65-.43.69.69,0,0,0-.13-1.26l-.27-.06c0-.22-.09-.44-.13-.64l-.12-.48c1.14-.25,2.28-.51,3.4-.81a3.42,3.42,0,0,0,.13.71,1.16,1.16,0,0,1,0,.18,1.16,1.16,0,0,0-.89.95.59.59,0,0,0,.43.59.89.89,0,0,0,.79-.2,4.08,4.08,0,0,0,.76-.21l.07,0a.67.67,0,0,0,.22-.13.54.54,0,0,0,.14-.16.39.39,0,0,0,0-.6.54.54,0,0,0-.33-.26,2,2,0,0,0-.37-.06c-.06-.18-.11-.36-.16-.55a2.54,2.54,0,0,0-.12-.43c1.18-.32,2.34-.68,3.49-1.08,0,.16,0,.34,0,.49s0,.41,0,.63l-.08.1-.24.11a.61.61,0,0,0-.28.77.62.62,0,0,0,.73.39,4.16,4.16,0,0,1,.5-.16,1,1,0,0,0,.25-.12,2.79,2.79,0,0,0,.35-.11h.06a.51.51,0,0,0,.48-.38.57.57,0,0,0,0-.46.6.6,0,0,0-.67-.36l-.38.07h0c0-.1,0-.19-.05-.28q0-.46-.12-.93a.36.36,0,0,0,0-.09,7.73,7.73,0,0,0,2.15-.8A3.32,3.32,0,0,0,163.53,292.81ZM48,278.62l.05,0a1.63,1.63,0,0,0-.11.17Zm64.51,29.54c-.35-1.12-.71-2.25-1.08-3.37q4.77-1.34,9.56-2.61c-.7.39-1.4.78-2.08,1.19A42.7,42.7,0,0,0,112.55,308.16Zm22.23-8.49,0,0h-.06Zm3.6-.8.5-.21a1.06,1.06,0,0,0,.31,0,5,5,0,0,1-.85.3Z"/><path class="cls-6" d="M304,336.3h0c0-.35-.05-.7-.08-1,0-.08,0-.16,0-.23l-.06-.55c0-.11,0-.23,0-.34s0-.32-.07-.48,0-.28-.07-.43,0-.27-.07-.41-.06-.35-.1-.52l-.06-.33c-.06-.28-.13-.56-.19-.85-.76-3.05-2.33-5.1-4.17-7.58-.42-.57-.84-1.16-1.21-1.77-.42-.38-.85-.77-1.26-1.19a27.54,27.54,0,0,1-1.42-3.52,40.52,40.52,0,0,1-1.72-16.8c.3-2.76,1-5.4,1.55-8.11a50.58,50.58,0,0,0,.79-8.05c.05-1.78.14-3.66,0-5.49-.52-1.66-.94-3.35-1.31-5.06,0-.09-.05-.18-.08-.27a40.1,40.1,0,0,0-2.66-4.51c-.73-.4-1.39-.79-1.89-1.05l-1.1-.56c-2-.7-4-1.36-5.93-2.08a1.33,1.33,0,0,1-.24-.11,1.26,1.26,0,0,1-.9-1,.43.43,0,0,0,0-.11l1.72-.17.65-.06a.93.93,0,0,0,.14.14l.8-.13c.55-.09,1.11-.19,1.66-.3l0,0a10,10,0,0,0,2.49-.76.66.66,0,0,0,.39-.46.75.75,0,0,0,.11-.58c-1-5.71-.89-11.53-1.92-17.23-.24-1.38-.53-2.75-.82-4.13q-.23-2.86-.64-5.66a26,26,0,0,0-2.63-8.29,6.58,6.58,0,0,0-2.57-3.09,5.09,5.09,0,0,0-2.5-1.51,12.8,12.8,0,0,0-2.44-.46c-1.18-.14-2.38-.25-3.59-.32a24.14,24.14,0,0,0-4.8-.22c-.45,0-.95.08-1.48.15-2.61-.18-6,1.27-7.62,2.23a11.33,11.33,0,0,0-4.21,4.83c-.8,1.65-1.87,4-1.46,5.88a.49.49,0,0,0,.74.28,2.57,2.57,0,0,0,.91.16l.06,0c-.17.94-.3,1.88-.39,2.8-.07.69-.11,1.37-.14,2.07l-.9,1.58c-.67,1.19-1.76,2.21-2.28,3.47-.9,2.18,1.53,2.41,3.3,2.49.26,3.72,1.24,7.35,5,9a11.4,11.4,0,0,0,1.67.6,10,10,0,0,0,.23,3.13,47.74,47.74,0,0,1,.36,5.61.64.64,0,0,0,.61.64.42.42,0,0,0,.26.16,16.28,16.28,0,0,0,3.06.29,8.7,8.7,0,0,0,.86,2.33c-.53.09-1.06.19-1.58.3A8.91,8.91,0,0,1,263,270.4a33.11,33.11,0,0,1-3.51,2.71c-1,.68-2.07,1.47-3.21,2.2-.15.2-.31.4-.47.59L255,277c-.71,1.54-1.37,3.1-2,4.67-.23.41-.47.82-.72,1.22l-.49.82-.5.82c-.81,1.21-1.63,2.41-2.44,3.63-2,3-3.87,6.09-5.85,9.11-.82,1.24-1.58,2.51-2.38,3.76s-1.81,2.28-2.46,3.54c-1,.93-1.79,2-2.59,3l-.09.11c-.59.51-1.15,1.05-1.72,1.59-2,1.85-3.93,3.62-5.71,5.64s-3.78,4.19-5.47,6.47l-3.12,2.88a6.88,6.88,0,0,0-4.65,2.77,3.06,3.06,0,0,0-.56,1.3,8.88,8.88,0,0,0-1.67,1.77c-1.52,2.19-2,4.94-2.22,7.54,0,.16,0,.33-.05.49a10,10,0,0,0-3.35.65,13.74,13.74,0,0,0-1.74.08c-.75.08-.83,1-.48,1.49a2.39,2.39,0,0,0,1.57.75c-.62.31-1.26.54-1.9.79-.8.32-.44,1.54.34,1.58h.23a1.06,1.06,0,0,0,.41.82s-.88.22-1.25.23c-.87,0-1.3,1.39-.31,1.64a1.66,1.66,0,0,0,.22,0h0a6.54,6.54,0,0,1,1.12.11c.92.28-.1.72-.69.77-1,.08-1.55,1.58-.37,1.94a7.07,7.07,0,0,0,.82.17c1.81,1,5.06.93,7,.75l.61-.06a2.11,2.11,0,0,0,.38.12l.18,0c1.69,1.67,4.6,1.94,7.11,1.95,2.35,0,4.7,0,7.06-.1a89.4,89.4,0,0,0,10.49.35c4.33-.11,8.66-.45,13-.8s9.13-.25,13.29-1.66a.67.67,0,0,0,.15-.06,67.76,67.76,0,0,0,6.71,1.4,46.16,46.16,0,0,0,9.39.78,39.17,39.17,0,0,0,16.55-4,13.36,13.36,0,0,0,6.93-8.81c.11-.14.22-.28.31-.42C304,337.81,304,337.05,304,336.3Zm-64.74-23.6.17-.08-.23.25s0-.05,0-.08Zm-4.47,12.67-.12-.07-.09,0,1.11-.16Zm26.77-5.45a61.28,61.28,0,0,0-10,.87c-4.08.62-8.18.92-12.28,1.34-3,.32-6,.69-9,1.29,1.52-1.24,3-2.5,4.49-3.82a42.73,42.73,0,0,0,7.94-8.83,49.23,49.23,0,0,0,5.67-4.69c2.61-2.34,5.14-4.79,7.52-7.37.78-.85,1.55-1.72,2.31-2.59.05.15.09.31.14.46,1.19,3.84,2.84,7.59,3.35,11.61S260.53,316.12,261.53,319.92Zm-6.46-87.47Zm7.78,32.26,0,0h0Zm-5.09-12.15.08-.05.18.22c0,.06,0,.12,0,.18C258,252.79,257.85,252.68,257.76,252.56Zm40.92,90.58-.09.07.23-.29.05,0C298.8,343,298.74,343.08,298.68,343.14Z"/></g><g id="Layer_17" data-name="Layer 17"><path class="cls-4" d="M58.39,97.58s-1.59,18,2.28,27.86c-1.49,0-8.44,2.22-9.28-10.88C50.63,102.62,51.16,98.93,58.39,97.58Z"/><path class="cls-4" d="M59.83,125.6l-1.23,9.47s-11.21,36-8.84,48.89l-2.21-.05c-3.82-2.24-6.54-39.52,6.6-51.25.46-3,1.32-8,1.32-8Z"/><path class="cls-4" d="M260.89,78.13l9.73,45.37,2.57-.14,2.95,5.68,2.94-1.75-3.75-11-3.79-36.4s-.58-4.61-4.6-4.61c-3.58,0-3.47,4.43-3.47,4.43Z"/><polygon class="cls-4" points="276.14 129.04 287.05 129.87 279.08 127.29 276.14 129.04"/><polygon class="cls-4" points="292.42 132.23 306.63 195.21 295.93 134.62 295.18 133.59 292.42 132.23"/><path class="cls-4" d="M287.58,151.19l1.22,4.44.82,14.59a7.24,7.24,0,0,1,1.18,3.49c.12,2.06-.49,22.67-.49,22.67S289,200,287.58,200s-4,0-4,0Z"/></g><g id="Layer_7" data-name="Layer 7"><path class="cls-18" d="M206.26,341.06c-2.8-.5-1.51-2.05-1.51-2.05l2.16-.27a27,27,0,0,1,3.35-.65,15.24,15.24,0,0,1,1.76-7.2s1.13-.21,2.18-2.6c1.28-2.92,5.21-4.07,5.21-4.07l17.33-18.17,15.49-23.19,3.61-7,8.88-7.22,1.58-.3-.86-2.33-3.71-.58s-.13-3-.44-5.07-.58-2.83-.37-4.18.28-9.19.29-14a31,31,0,0,0-.9-7.93L253,233.7"/><path class="cls-18" d="M258.32,296.58s2.73,7.06,3.09,10-.3,7-.19,9.66a28,28,0,0,0,.31,3.67l.7,5.18-33.46.14"/><path class="cls-18" d="M255.07,233.88a27.06,27.06,0,0,0-1.1,5.51c-1.59,2.54-2.8,3.67-3,4.7s-.43,1.83.85,2.11a18.87,18.87,0,0,0,2.45.38s-.27,8.43,6.63,9.64"/><path class="cls-18" d="M212.87,350a20.47,20.47,0,0,1-2.61-11.87"/><path class="cls-18" d="M82.22,222.33s5.83,7.59,7.16,9.5"/><path class="cls-18" d="M90.87,235a14.87,14.87,0,0,1,1.64,6.65c1.27,3.14,3,6.89,3,6.89s.18.34-2.21,1.84c-.18,3.31.64,4.08-1.13,6.67s-8.48,3.36-8.48,3.36L83,270.68s13.85,3.59,17.39,7.1c2.42,5.57,8.24,19.56,8.24,19.56l19.09-5s.07-3,2.65-2.78a19.78,19.78,0,0,1,4.85,1.1l12.07-2.43.41-3,1.42-.53"/><line class="cls-18" x1="150.69" y1="284.35" x2="153.95" y2="283.54"/><line class="cls-18" x1="154.68" y1="283.32" x2="158.08" y2="282.46"/><line class="cls-18" x1="159.57" y1="282.46" x2="161.36" y2="282.69"/><line class="cls-18" x1="112.55" y1="308.16" x2="108.63" y2="297.34"/><path class="cls-18" d="M96.9,321.59s10.6-2.51,19.86.31,13.81,4.33,13.81,4.33a4.45,4.45,0,0,1,2.53,4.66c-.26,3.58-1.49,9.15-3,11.95a33,33,0,0,1-3.8,5.3"/></g></svg>