<svg xmlns="http://www.w3.org/2000/svg" viewBox="0 0 340 400"><defs><style>.cls-1{isolation:isolate;}.cls-2{fill:#d6d7d9;}.cls-3{fill:#fff;}.cls-10,.cls-4,.cls-5,.cls-8,.cls-9{fill:#58595b;}.cls-22,.cls-4{opacity:0.44;}.cls-6{opacity:0.88;}.cls-7,.cls-8{opacity:0.66;}.cls-29,.cls-9{opacity:0.22;}.cls-10{opacity:0.11;}.cls-11{fill:#c2c4c6;}.cls-12,.cls-16{fill:#a0a2a5;}.cls-12{stroke:#af97c7;}.cls-12,.cls-13,.cls-15,.cls-18,.cls-19,.cls-20,.cls-21,.cls-28{stroke-miterlimit:10;}.cls-13,.cls-15,.cls-18,.cls-19,.cls-20,.cls-21,.cls-26,.cls-28{fill:none;}.cls-13{stroke:#393a35;}.cls-14{fill:#b5b7b9;}.cls-15,.cls-28{stroke:#58595b;}.cls-17{fill:#363436;mix-blend-mode:hard-light;}.cls-18,.cls-19,.cls-20,.cls-21{stroke:#fff;}.cls-19{stroke-dasharray:2.92 2.92;}.cls-20{stroke-dasharray:2.82 2.82;}.cls-21{stroke-dasharray:3;}.cls-22,.cls-27,.cls-29{fill:#393a35;}.cls-23{fill:#9c6bad;}.cls-24{fill:#7a478b;}.cls-25{fill:#af97c7;}.cls-26{stroke:#a0a2a5;stroke-linejoin:round;}.cls-26,.cls-28{stroke-linecap:round;}</style></defs><title>tails_3.3_footprints</title><g class="cls-1"><g id="Layer_14" data-name="Layer 14"><path class="cls-2" d="M80.58,31s57.34,2.7,54.2,24.93-71.35,51.86-97,102.57C9.77,214-10,297.6,57,356.2s256.09,20.71,265.92,15.88C348,259.58,175.1,309.62,136,274.93c0,0-73.51-58.58,20.65-153.11C180.53,96.85,185,39.71,142.41,26S61,21.88,61,21.88Z"/></g><g id="Layer_8" data-name="Layer 8"><path class="cls-3" d="M251.54,363a2.29,2.29,0,0,0-3.23.1,17.84,17.84,0,0,0-4.13,8.81l-.06.66c-.33-2.85-1.13-6.44-3.09-9a2.28,2.28,0,1,0-3.63,2.76c1.8,2.37,2.29,6.64,2.36,9.2h8.53c.16-2.26.81-6.6,3.35-9.29A2.3,2.3,0,0,0,251.54,363Z"/><path class="cls-3" d="M210.44,321.55h13.35c.17-2.27.82-6.61,3.35-9.3a2.28,2.28,0,1,0-3.32-3.12C221.09,312,220,316,219.5,319a89.63,89.63,0,0,0-.23-9.54,2.28,2.28,0,0,0-4.52.58,97,97,0,0,1,.17,9.78c-.23-3-.95-7.27-3.2-10.23a2.28,2.28,0,1,0-3.63,2.77C209.89,314.72,210.38,319,210.44,321.55Z"/><path class="cls-3" d="M98.34,339.76a2.29,2.29,0,0,0-3.23.1A18,18,0,0,0,91,348.67l-.06.66c-.33-2.85-1.13-6.44-3.09-9a2.28,2.28,0,1,0-3.63,2.76c1.81,2.37,2.29,6.64,2.36,9.2h8.53c.17-2.26.82-6.6,3.35-9.29A2.29,2.29,0,0,0,98.34,339.76Z"/><path class="cls-3" d="M24.61,253.27H38c.16-2.27.81-6.61,3.34-9.3A2.28,2.28,0,0,0,38,240.85c-2.73,2.89-3.86,6.87-4.32,9.86a87.33,87.33,0,0,0-.22-9.54,2.28,2.28,0,0,0-4.53.58,94.12,94.12,0,0,1,.17,9.78c-.22-3-.95-7.27-3.2-10.23a2.28,2.28,0,0,0-3.63,2.77C24.05,246.44,24.54,250.71,24.61,253.27Z"/><path class="cls-4" d="M260.25,357.82s38.9,3.45,51,0-44.75-9.07-51,0"/></g><g id="Layer_12" data-name="Layer 12"><path class="cls-5" d="M128.79,307.31c13.05-5.49,39.2-.54,51.36,7.78.48.33-14.85,1.63-19.25,6.84-6.9,8.17-17.08,15-34.91,2.66C118.41,319.34,119.9,311.05,128.79,307.31Z"/><polyline class="cls-5" points="159.5 306.93 197.01 318.06 175.76 320.1 196.1 328.13 164.82 327.19 188.14 336.94 143.55 331.38"/><g class="cls-6"><path class="cls-5" d="M52.4,273.88C59.17,272,69,277.28,76.13,285.3c1.37,1.55,1.37,3.31-1,13.77A17,17,0,0,1,58.9,312.28c-10.93,0-12.78-5.12-15.13-8.92-1.12-1.81-9.25-15.41-2.17-23.9C44.44,276.05,49.86,274.39,52.4,273.88Z"/><polygon class="cls-5" points="47.78 308.99 68.31 330.1 65.72 310.63 82.58 323.39 76.18 303.04 94.46 307.46 76.13 285.3 47.78 308.99"/></g><g class="cls-6"><path class="cls-5" d="M83.94,225c-7.57-.91-11.57,1.24-13.54,4.46-2.13,3.49-1.71,7.61.12,12.21,3.13,7.89,9.88,3.21,12.1,3.89,5.56,1.71,15.66-.45,16.62-.74.49-.16,2.54-4.63.46-10.74C98.16,229.53,93.07,226.07,83.94,225Z"/><polygon class="cls-5" points="69.72 239.18 77.06 260.49 81.96 248.1 90.29 260.16 92.2 248.27 100.8 257.43 100.52 239.68 69.72 239.18"/></g><g class="cls-7"><path class="cls-5" d="M47.66,191.07c3.59.21,10.1.57,12.41,5.46,2,4.19.55,8.64-3.25,10.49-5.36,2.62-11.26.44-15-.91-5.58-2-8.68-7.32-6.16-11.56C38,190.53,44.72,190.91,47.66,191.07Z"/><polygon class="cls-5" points="34.92 199.36 39.11 215.79 44.76 208 46.86 216.64 52.32 209.13 54.38 216.23 60.19 203.74 34.92 199.36"/></g><g class="cls-7"><path class="cls-5" d="M93.74,177c6.73,1.84,7.59,2.59,8.49,4,1.69,2.68.16,7.06-2.12,9.56-3.43,3.75-7.16-.67-11.16-2.29-1-.39-7.92,2.24-8.93-2.82-.73-3.68.81-8.15,3.83-9.53C85.45,175.24,86.61,175.09,93.74,177Z"/><path class="cls-5" d="M79.85,183.26c0,.33,1,12,1,12l5.81-5.75,0,8.38,6.31-6.6-.25,8.05,8.34-10.05Z"/></g><path class="cls-8" d="M75.89,153c-1-2.17-3.76-2.7-7.55-3.42-4.31-.81-7.13-1.35-9.69.44a8.91,8.91,0,0,0-3.19,4.29l-.24,1.09-.76,7.78,4.76-1,.26.11.93,3.41L65,163.22h.21l1.44,3.07,5.88-5.35a2.19,2.19,0,0,0,.6-.49C75.1,158.69,77,155.39,75.89,153Z"/><path class="cls-8" d="M113.25,146.78c-.49-2.76-6-3.64-7.13-3.82-4.66-.75-11.1.33-11.63,2.91l.24,5,3.74-.27.62,3,4.5-.87,2.15,2.4,4-3.06a9.23,9.23,0,0,0,1.49-1.36h0C112.63,149.44,113.48,148,113.25,146.78Z"/><path class="cls-4" d="M90.79,122.68c-2.83-.48-6.24.65-7.74,2.59a3.54,3.54,0,0,0-.45.71h0l-3.28,4.38,4.37.16.75,3,3.1-.53c.12,0,.23.09.35.12l2.74,2.66,4.62-3.07h0a4.21,4.21,0,0,0,2.47-2.3C98.56,127.83,95.05,123.4,90.79,122.68Z"/><path class="cls-4" d="M120.66,117c-3-1.23-7.4-.65-8.7,1.64h0l-2.41,4.18,3.75,1.53,1.2,3.06,3.88.2,1.82,1.86,4.18-2.81a3.92,3.92,0,0,0,.67-.45h0a3,3,0,0,0,.69-.87C127,122.87,124.27,118.48,120.66,117Z"/><path class="cls-9" d="M112.93,99.62c-3-1.06-7.37-1-8.27,1.1-.82,1.87,1.48,4.87,3.86,6.25,3.84,2.24,9.61,1.28,10.34-1C119.51,104,116.22,100.79,112.93,99.62Z"/><path class="cls-9" d="M139.67,98.07c-2.18-1.89-6.1-1.62-7.22.37-.9,1.6.21,3.92,1.49,5.15,1.8,1.74,5.21,2.55,6.78.87S141.5,99.67,139.67,98.07Z"/><path class="cls-10" d="M127.12,82.93c-1.81.29-4.66,1.38-4.75,3s2.84,3.58,5.41,3.86c3.36.36,7.11-1.91,7.05-3.76S130.61,82.38,127.12,82.93Z"/><path class="cls-10" d="M149.82,82.24c-.72,0-5.27,0-5.54,2-.22,1.71,2.56,4.75,5.41,5,3.16.32,6.42-2.75,6.26-4.55S151.76,82.26,149.82,82.24Z"/><path class="cls-11" d="M97.84,58.89V33.56S99.42,7.15,73,6.05C52.71,5.2,49.67,20,49,38s-2.23,21.82-2.23,21.82Z"/><path class="cls-2" d="M14.37,98.66l61.81-.47s.25-14.36,0-30.23c-.28-19.46-7.13-41-29.52-41.08-36.1-.12-32.9,34-32.29,43Z"/><path class="cls-2" d="M71.65,82.2l34-.22s.14-6.58,0-13.86c-.15-8.93-3.91-18.81-16.22-18.84C69.57,49.22,71.33,64.85,71.66,69Z"/></g><g id="Layer_7" data-name="Layer 7"><path class="cls-12" d="M172.47,82.83c37.56-2.77,11.72,12,2.58,36.58s-17.29,49.09-17.29,49.09-19.47,4.2-29.11-4.89-5.6-36.86,1.78-50.23S151.14,84.41,172.47,82.83Z"/><path class="cls-5" d="M127,171.2c7.48-7,15.25-10.28,24.64-3s3.81,18.73-1.39,23.14-18.93,10.79-25.55,2.62,4.63-20.21,4.63-20.21Z"/><path class="cls-13" d="M129.32,173.76c.37.11,14.86-9.94,20.44,3.17,1.91,4.47-1.73,8.59-3,10.3a16,16,0,0,1-7.45,5.39c-2.2.75-4.9,1.66-7.61.31-3.4-1.69-4.08-5.59-4.12-5.86-.69-4.39,2.68-8,5.39-9.67,2.31-1.38,7.22-3.15,9.51-.63,1.87,2,1.14,6-.79,8.24s-5.2,3.26-6.5,2.22c-3-2.39.08-4.95,2.14-5.33"/><path class="cls-14" d="M135,128l24.09,5.07s-3.11,25.83-19,22.57S135,128,135,128Z"/><path class="cls-15" d="M181.61,82.51s-.36,4.52-6.44,6.88c-9,3.48-25.51,6.44-32.2,17.43a28.62,28.62,0,0,1-7.18-1.88"/></g><g id="Layer_6" data-name="Layer 6"><path class="cls-16" d="M261.27,136.52s-.7,2.55.84,3.31,13.37-1.22,19.5-2.34,12.35-2.21,15.1-2.24,4.06,0,4.77-1.29.16-7.24.16-7.24l-35.34,5.63Z"/><path class="cls-17" d="M262.21,136.38s-.71,2.32,1.21,2.45,16.12-1.6,18.82-2.13,15.78-3.25,17.13-3.11a3.86,3.86,0,0,0,1.91-.15l2.23-11.62-36.06,5.75Z"/><path class="cls-16" d="M316,67.6a60.22,60.22,0,0,1,0,7.72c-.27,4.61-2.2,12.56-3,18s-1.31,8.43-1.31,8.43-3.41,8.67-4.07,11.14-4.33,14.21-5.11,16.62a26.48,26.48,0,0,0-1,4.42s0-1.37-2.71-1.5-8.17,2.16-12.33,2.82-11.52,2-14,2.14-8.8.89-8.8.89l15-33.65L281.81,76l24.09-5.37S313.4,67.79,316,67.6Z"/><path class="cls-17" d="M313.32,68.15s-.81,12.31-1.28,16.93-1.32,13.21-1.32,13.21-2.48,7.24-4.82,13.12-4,11.94-5.5,15.53c-.76,1.8-1.73,4.53-1.73,4.53s-7.62,1-11,2.25c-2.61,1-9.47,1.66-12.73,2-1.34.15-10.78,1.55-10.78,1.55l12.19-32,5.14-29.08s18.55-3.93,21.68-4.68S311.85,68.52,313.32,68.15Z"/><path class="cls-16" d="M275.05,71c.21,6.26.49,12.36.28,16.28s-1.21,14.49-1.19,17.67c-1.08,3.34-4.55,12.66-6.89,18.22s-5.46,11.52-6,13.4c2.24-.35,13.15-2,18.19-2.58S297,131,298,131.07c.73-2.7,4.13-11.88,5.86-16.48s5.71-15.77,5.88-16.72c-.06-1.44.8-9.43.63-13.25s-.94-10.27-1-13.45-.1-8.11-.1-8.11S297,66,295.75,66.35,279.12,69,275.05,71Z"/><path class="cls-14" d="M261.27,136.52c2.24-.35,13.15-2,18.19-2.58S297,131,298,131.07c.73-2.7,4.13-11.88,5.86-16.48,1.54-4.11,4.89-13.46,5.71-16.09-1.94.36-4,.73-5.31,1-3.29.56-11.25,2.31-18,3.8-3.94.87-9,1.81-12.44,2.44-1.3,3.86-4.45,12.26-6.62,17.42C264.9,128.68,261.79,134.64,261.27,136.52Z"/><path class="cls-15" d="M272.87,108.55a6.66,6.66,0,0,0,2.85,2.64c2.65,1.5,1.95,4.33.46,7.39-2,4-4.63,3.52-5.11,6.23-.69,4-2.5,8.5-7,5.44"/><path class="cls-15" d="M271.56,112.13s2.32,1.73,2.27,3.3c-.11,3.57-3,3.87-3.79,5.34-1.13,2.13-1.81,4.84-3.78,4.61"/><path class="cls-15" d="M270.54,114.83s2.23,2.26-1.41,3.64"/><path class="cls-15" d="M310.34,83.83s-3.14-.32-5.14,1.42a11.87,11.87,0,0,0-3.64,5.61c-.55,2.68-2.41,2.93-4.15,5.5s-.91,2.41-1.76,4.85a8.84,8.84,0,0,1-4,5.35c-1.79,1-3.3,1.53-4.25,4.89s1.42,4.45-.32,7.41-3.41,2.84-5.86,6.12-2.79,5,.17,8.7"/><path class="cls-15" d="M310.2,90.81s-4,.55-5.56,3.49a17.29,17.29,0,0,0-1.26,5.32,7.35,7.35,0,0,1-2.26,3.59c-1.8,1.52-4.69.87-8.47,7.9-1.9,3.52,1,5.47-1.55,9.35-1.48,2.23-3.19,3.09-3.72,5.71s.78,4.32,2,6.23"/><path class="cls-15" d="M307.82,103.67c-.1.28-1.29-1.88-3.36.46-1.77,2-6.8,4.44-6.91,7.89a44.29,44.29,0,0,1-.73,8c-.43,2.5-3.56,3.42-2.07,7.25s3.63,2.57,3.63,2.57"/><path class="cls-15" d="M305.92,109s-5.48.32-4.9,3.44c.66,3.61.6,5.77-.78,7.47-1.71,2.09-.53,3.75.11,4.24"/><path class="cls-15" d="M297.31,65.94a3.53,3.53,0,0,0-.27,3.72c1,2.18,5.36,2,4.34,6.61s-4.68,5-7.18,8.13-2.33,5.6-3.74,8.32-7.21,8.54-10.48,6.63-3.43-3.46-5.24-3"/><path class="cls-15" d="M275.31,91.13a4.88,4.88,0,0,1,3.27,1.27c1.26,1.31,3,2.36,5.13,1s3-5.82,5.47-9.44,5.9-7.23,4.91-9.65-1.89-5.94-4.9-5.51-7.43,1.78-9.11,4.34-3.84,6-4.78,5.26"/><path class="cls-15" d="M285.28,73.57c-1.43.38-4.5,1.37-5.4,3.38s-2.93,4.12-2.37,6.34.45,3.77,2,4.93,2.31,2.17,3.7-.65,1.27-4.51,2.32-7.22,2.33-2.73,2.06-4.62A2.74,2.74,0,0,0,285.28,73.57Z"/><path class="cls-15" d="M282.81,78.66c-1-1.25-2.51,1.47-2.27,2.65s.77,2.59,1.5,1.42S284,80,282.81,78.66Z"/><circle class="cls-3" cx="298.64" cy="85.39" r="1.82"/><circle class="cls-3" cx="279.13" cy="109.25" r="1.82"/><path class="cls-18" d="M275.33,87.23l1.49-.19"/><path class="cls-19" d="M279.71,86.61a5.49,5.49,0,0,0,2.08-1.16c1.87-1.54,4.42-9.28,10.31-8S299,86.84,297,89.62s-1.67,4.21-3.74,6.1-5.7,3.34-5,7c.25,1.9.89,3-3.77,5.22a15.55,15.55,0,0,1-2,.81"/><path class="cls-18" d="M281,109.12a10.82,10.82,0,0,1-1.48.22s.14.58.31,1.47"/><path class="cls-20" d="M280.25,113.6a17.69,17.69,0,0,1,.08,4.34c-.45,3.21-1.59,3.86-4.15,6.78s-3.95,3.19-3.83,6.05c0,.45,0,.85.09,1.22"/><path class="cls-18" d="M272.67,133.38a5.46,5.46,0,0,0,.47,1.41"/><path class="cls-21" d="M309.76,76.68c-3.35,1.55-1.59,3.56-5.26,5.88s-6.59,3.81-6.59,3.81"/><polygon class="cls-22" points="278.05 99.73 276.68 105.19 272.34 111.17 273.87 105.7 274.11 102.58 278.05 99.73"/><path class="cls-16" d="M209.94,87.36s29,9.18,35.46,50.74C228.66,129.55,213.22,119.74,209.94,87.36Z"/><path class="cls-16" d="M273,110.07s-12,16.44-27.61,28c-6.57-6.73-5.45-10.17-5.45-10.17s19.3-16.76,31.38-21.11Z"/><path class="cls-16" d="M277.65,97.69c-1.73-1.24-2.36,1.27-3.82,2.91-.71.8-3.15.69-3.95,1.44a5.91,5.91,0,0,0-1.58,5.2c.25,1.76-1.13,3.49.2,4.39,1.93,1.32,2.95,1.18,3.84-.46.54-1,2.22-5,1.57-6.22C276.18,104.56,279.13,98.76,277.65,97.69Z"/><polygon class="cls-22" points="242.57 125.73 243.79 130.11 246.62 122.46 242.57 125.73"/><path class="cls-16" d="M272.09,106.06a1,1,0,0,0-1.27-.72,2.17,2.17,0,0,0-1.51,2,1.09,1.09,0,0,0,1.07,1.08h.13a1,1,0,0,0,.85-.46A1.57,1.57,0,0,0,272.09,106.06Z"/></g><g id="Layer_10" data-name="Layer 10"><path class="cls-23" d="M317,313.57c2.21-1.09,11.14-4.49,14.76,7.67-3.74-3.42-6.82-3.85-11.72-.88C317.35,321.7,313.56,315.28,317,313.57Z"/><path class="cls-24" d="M285.33,314.1s6.45,2.34,11.4-.43,11.95-4.21,17.15-2.52c4.81,1.56,10.52,13.73,10.52,13.73l-13.1,6.63Z"/><path class="cls-23" d="M246.2,325.53l14.05,32.29s14.34-1.69,32-11.07c22.42-11.89,26.39-19,26.39-19s-6.92-14.79-16.9-13.66-14.05,4-20-7.26Z"/><path class="cls-25" d="M308.17,317.94c2.21-1.09,11.14-4.49,14.76,7.66-3.73-3.41-6.81-3.84-11.71-.87C308.5,326.07,304.7,319.65,308.17,317.94Z"/><path class="cls-25" d="M246.2,325.53l35.53-18.73s-7.15,9.78-15.4,14.06S246.2,325.53,246.2,325.53Z"/><path class="cls-24" d="M185.59,333.08s4.94,5.15,10.83,4.85,13.09,1.56,17.18,5.54c3.76,3.67,3.49,17.65,3.49,17.65l-15.28.15Z"/><path class="cls-23" d="M215.41,347.18c2.57,0,12.46.94,10.25,13.94-1.91-4.9-4.59-6.72-10.53-6.21C212,354.91,211.39,347.18,215.41,347.18Z"/><path class="cls-23" d="M143.82,325.73l-1.75,36.6s13.89,6.57,34,6.57c22.36,0,34.31-7.78,34.31-7.78s.36-17-9.48-20.53-14.93-2.76-15.33-16Z"/><path class="cls-25" d="M205.14,347.18c2.57,0,12.46.94,10.25,13.94-1.91-4.9-4.59-6.72-10.53-6.21C201.7,354.91,201.11,347.18,205.14,347.18Z"/><path class="cls-25" d="M143.82,325.73s14.87,11.56,41.77-1.12Z"/><path class="cls-2" d="M214.49,124.08c41.1,45.33,51.14,112.86,60.1,186.36-2.15,1.67-20,10.42-20,10.42L171.26,128.62Z"/><path class="cls-3" d="M240.55,288.21l29.28-13.55,4.9,36.92s-2.6,4.76-10.44,8.38c-5.82,2.69-9.67,2.44-9.67,2.44Z"/><path class="cls-26" d="M269.83,274.66c.77,5-2.74,5.29-3.8,1.76.83,6.05-2.51,5.16-4.17,1.93.12,6.23-1.58,6-4.63,2.14,3,4.05-1.42,5.3-3.73,1.73-.19,6.47-2.38,6.6-5.12,2.37,1.72,5.57-1.95,5.4-4.25,2,.71,6.95-3.58,1.65-3.58,1.65Z"/><path class="cls-3" d="M200.44,76.23s36.65,6.64,14.05,47.85c-1.5.1-43.23,4.54-43.23,4.54S180.5,85.73,200.44,76.23Z"/><path class="cls-2" d="M202.77,76.89c7.88,17.65,3.17,27.67,19,25.54C223.71,85.41,208.66,78.83,202.77,76.89Z"/><path class="cls-2" d="M171.26,128.62C155,150.19,131.25,223,152.39,327c3.07.64,23.21-.45,23.21-.45l38.89-202.42Z"/><path class="cls-3" d="M145.23,276.49c1,16.46,6.82,50.3,6.82,50.3A52.33,52.33,0,0,0,162.94,328a54.68,54.68,0,0,0,12.66-1.45l9-47.28Z"/><path class="cls-26" d="M184.57,279.22c-1,4.7-3.61,4.15-4.55-.37-1.57,5.57-4.11,2.81-4.93-.39.06,6.28-3.94,6.91-4.7-.38-1.78,6.84-4.22,4.19-4.64,0-.4,3.84-3.34,5.62-4.64-.79-.82,4.07-4,4.45-5.67-.46-.9,5.32-4.22,4.21-5.38,0-3.66,6.81-4.76-.81-4.76-.81Z"/><polygon class="cls-25" points="163.8 141.55 160.22 149.02 207.4 160.93 207.82 158.71 163.8 141.55"/><polygon class="cls-25" points="224.25 136.49 208.09 157.2 207.82 158.71 227.56 140.65 224.25 136.49"/><path class="cls-23" d="M171.26,128.62l43.23-4.54,9.75,12.41L208.09,157.2l-.27,1.51-44-17.16C165.82,136.49,169,131.13,171.26,128.62Z"/><polygon class="cls-22" points="214.49 124.08 200.67 195.84 207.95 213.93 214.49 124.08"/></g><g id="Layer_4" data-name="Layer 4"><polygon class="cls-27" points="231.01 111.4 173.28 120.34 171.26 128.62 228.32 116.08 231.01 111.4"/><path class="cls-2" d="M195.38,84.27c4.31-.85,22.73,5.66-11.46,71.07C173.27,143.25,175,88.28,195.38,84.27Z"/><path class="cls-2" d="M233.67,104.56c1.5,2.15-16.95,35.77-49.75,50.78C181,137.5,229.81,99,233.67,104.56Z"/><path class="cls-2" d="M232.17,99.4c2.81-1.16,2.83-1,2.83-1s4.35.31,2.72,7a10.44,10.44,0,0,1-7.75,7.88S225.2,102.3,232.17,99.4Z"/><path class="cls-22" d="M194.71,132.76l-2.67,6s3.51-3.61,9.57-13.15C198.81,128.44,194.71,132.76,194.71,132.76Z"/><path class="cls-28" d="M180.58,224.41c.56,5.22,4.52,6.41,5.16.19"/><path class="cls-28" d="M245.2,217.34s4.2,5.54,4.7-1.81"/><path class="cls-27" d="M190.32,85.51s10.61-6.19,43.78,13.13a24.47,24.47,0,0,0-3.9,2.07s-40.69-13.25-46.67-6.17a47.2,47.2,0,0,1,3.94-6.26"/><path class="cls-29" d="M190,92.48c5.17.48,13,2.6,14.18,6.29-.08-1.65-.23-8-.23-8Z"/></g><g id="Layer_9" data-name="Layer 9"><path class="cls-14" d="M228.71,47.37c.21,1.84.14,5.24,2.78,7.39s2.64,5,1.27,5.6-2.41.94-5.65-2.54C224.09,54.45,228.71,47.37,228.71,47.37Z"/><path class="cls-2" d="M225.76,13.67s3.53,10.2,4.2,15.66c.22,5.47-3.05,47.15-3.05,47.15s.4,2.07-1.57,1.8-35.88-2.51-33.94-38.84S225.76,13.67,225.76,13.67Z"/><path class="cls-3" d="M208.59,44.83c.45,5.57,12.91,10.32,17.85,3.28C225.93,42.52,215.76,36.56,208.59,44.83Z"/><path class="cls-27" d="M225.91,48.78a3.26,3.26,0,0,0-.34-1.19,3.34,3.34,0,0,0-.75-1.12,4,4,0,0,0-.63-.83c-3.05-3-7.46,1-6.51,4.57a3,3,0,0,0,.84,1.41A8.89,8.89,0,0,0,225.91,48.78Z"/><path class="cls-5" d="M228,67.9a10,10,0,0,1-3.67.14c-1.88-.29-3.09-1.26-4.73-2a.17.17,0,0,0-.26.15c-.06,2.06,2.91,3.17,4.54,3.49a10.7,10.7,0,0,0,4.11.07C228,69.13,228,68.51,228,67.9Z"/><path class="cls-5" d="M224.59,36.59c-4.36-2.17-9.63-3.41-13.06,1.14-.32.42.28.81.65.64,1.87-.83,3.46-1.92,5.6-2s3.94,1,5.82,1.89C224.72,38.85,225.72,37.15,224.59,36.59Z"/><path class="cls-27" d="M230.2,29.66s-19.64-3.88-27,6.56c-.28,5-.24,23.16.91,29.52,2.78,3,9,5.13,12.63,9.3a16.44,16.44,0,0,1,4.38,11.25c.24,5.84-.45,4.85-.83,5.46-3.33-1.43-17.94-9-33.64-3,1.09-6.8,2.12-15.55-.18-23.65s-5.18-17.41-.08-30.17,14-27.28,39.39-21.23C228,16.7,230,25.25,230.2,29.66Z"/><path class="cls-5" d="M206.35,15.81c-.49,1.67-.88,3.35-1.26,5s-.7,3.37-.94,5.07a100.22,100.22,0,0,0-1,10.31,28.51,28.51,0,0,1-.42-5.22,34,34,0,0,1,.4-5.24,36.16,36.16,0,0,1,1.18-5.12A24.62,24.62,0,0,1,206.35,15.81Z"/><path class="cls-5" d="M221.23,20.54c-1.64.43-3.25.92-4.85,1.42s-3.17,1.07-4.7,1.72a37,37,0,0,0-4.45,2.23,23.62,23.62,0,0,0-4,3.07,14.15,14.15,0,0,1,3.53-3.71,23.54,23.54,0,0,1,4.49-2.51A29,29,0,0,1,221.23,20.54Z"/><path class="cls-5" d="M196.85,46.11l1.4,5.11c.47,1.7.95,3.38,1.49,5.05s1.1,3.31,1.77,4.92a18.16,18.16,0,0,0,2.58,4.55,12.38,12.38,0,0,1-3.28-4.21,30,30,0,0,1-2-5A42.89,42.89,0,0,1,196.85,46.11Z"/><path class="cls-5" d="M186.81,66.48a32,32,0,0,0,2.74,4.39,26.46,26.46,0,0,0,3.4,3.84,19.14,19.14,0,0,0,4.14,2.92c1.53.71,3.12,1.41,4.72,2a90,90,0,0,0,9.83,3.16c1.67.46,3.36.9,5,1.51A13.85,13.85,0,0,1,221.13,87a15.33,15.33,0,0,0-4.65-2.18c-1.64-.5-3.33-.85-5-1.22a63.2,63.2,0,0,1-10-3c-1.62-.67-3.2-1.35-4.78-2.16a17.41,17.41,0,0,1-4.22-3.2A26,26,0,0,1,186.81,66.48Z"/><path class="cls-5" d="M187.32,83.83a8.55,8.55,0,0,1,5-3.3,18,18,0,0,1,6-.19,79.09,79.09,0,0,1,11.63,2.46c-2-.16-3.95-.39-5.9-.67s-3.9-.58-5.84-.8a21.45,21.45,0,0,0-5.77,0A9.84,9.84,0,0,0,187.32,83.83Z"/></g></g></svg>