<svg xmlns="http://www.w3.org/2000/svg" viewBox="0 0 350 400"><defs><style>.cls-1{opacity:0.49;}.cls-2{fill:#231f20;}.cls-3{fill:#58595b;}.cls-4,.cls-5{opacity:0.44;}.cls-5,.cls-7{fill:#393a35;}.cls-6{fill:#a0a2a5;}.cls-8{fill:#8f4299;}.cls-9{opacity:0.53;}.cls-10{fill:#af97c7;}.cls-11{fill:#9c6bad;}.cls-12{fill:#7a478b;}.cls-13{fill:#fff;}</style></defs><title>tails_3.1_relays</title><g id="Layer_2" data-name="Layer 2"><rect class="cls-2" x="105.58" y="144.55" width="69.39" height="2.32" transform="translate(-45.95 224.61) rotate(-69.05)"/><path class="cls-2" d="M118.44,177.64l-2.25-.59c.83-3.16,7.28-20.14,10-27.4l.57-1.5c1-2.53,3.19-7.62,5.77-13.52,3.55-8.09,7.57-17.26,9.09-21.66l2.19.76c-1.55,4.48-5.59,13.7-9.15,21.84-2.46,5.62-4.79,10.93-5.73,13.4l-.57,1.51C125.65,157.7,119.24,174.6,118.44,177.64Z"/><rect class="cls-2" x="125.51" y="161.12" width="2.32" height="11.02" transform="translate(-45.42 285.77) rotate(-87.45)"/><rect class="cls-2" x="129.83" y="149.74" width="2.32" height="10.96" transform="translate(-35.28 271.87) rotate(-84.89)"/><rect class="cls-2" x="129.41" y="142.01" width="12.06" height="2.32" transform="translate(-11.75 12.11) rotate(-4.91)"/><rect class="cls-2" x="139.16" y="126.67" width="2.32" height="10.35" transform="translate(2.22 266.03) rotate(-87.39)"/><rect class="cls-2" x="142.84" y="117.2" width="2.32" height="10.39" transform="translate(21.29 266.13) rotate(-89.87)"/><path class="cls-3" d="M155.66,110.66s-.24,27.39,0,41.48.16,65.44.08,69.71a49.55,49.55,0,0,0,.1,5.86l12.33-.73s-1.52-31.82-2-42.78-.35-53.06-.61-65.88.61-7.66.61-7.66Z"/><g class="cls-4"><path class="cls-5" d="M163.61,133.8l2.13-1.58c0-5.81-.08-10.74-.14-13.9-.09-4.25-.06-6.52,0-7.66h-10s-.13,15.34-.1,29C158.21,137.64,160.93,135.75,163.61,133.8Z"/></g><path class="cls-3" d="M165.63,110.66h.58S165.81,108.35,165.63,110.66Z"/><path class="cls-6" d="M162.08,3.22c-4.65,18.7-9.83,35.72-13.15,53.6S143.59,82,138.51,98.27,133.44,116,133.44,116s37.14-2.42,42.74-1.7a93.72,93.72,0,0,0,12.54.52s-3.9-19.68-8.06-36.77-9.18-32-11.93-45.82S162.08,3.22,162.08,3.22Z"/><path class="cls-7" d="M237.22,389.85h-.62a24.18,24.18,0,0,0-3.89.11,1.27,1.27,0,0,0-1,.5h-.11a61.84,61.84,0,0,1-3.54-7.28c-1.07-2.32-1.77-4.81-2.82-7.14s-2.18-4.39-3.4-6.51c-.22-.38-.43-.78-.63-1.19-.68-3.51-3.19-6.66-5.87-8.85a13.58,13.58,0,0,0-2.92-1.83,1.07,1.07,0,0,0,.07-.45,7.65,7.65,0,0,0-.74-3.4l.34,0a1.67,1.67,0,0,0,1.71-1,54.25,54.25,0,0,0,1.89-6,1.66,1.66,0,0,0,.36.5,1.33,1.33,0,0,0,.3.23,2.66,2.66,0,0,0,.7.52.76.76,0,0,0,.18.06c-.9,5.53,7.22,13.7,12.76,11.64a.45.45,0,0,0,0-.84V359c-.29-2.58-2.79-4.86-4.53-6.59s-4.22-4.08-6.84-4.71a1.74,1.74,0,0,0,.11-.18,1.92,1.92,0,0,0-.41-2.36,1.64,1.64,0,0,0-2.16.1,3.35,3.35,0,0,0,0-1.3c-.47-2.42-3.55-3.32-5.54-4-2.4-.87-5.66-1.77-8.05-.42a4.78,4.78,0,0,0-2.12,2.69c-.32.45-.65.9-1,1.33-.06.07-.13.12-.19.18a4.94,4.94,0,0,1-.88.64,11,11,0,0,1-1.28.47c-.8.25-.55,1.46.18,1.58a.86.86,0,0,0,.91.37l.24-.07a3.81,3.81,0,0,0,.84,4.23,10.52,10.52,0,0,0,5.18,2.24.79.79,0,0,0,0,.34c.08.36.16.72.24,1.06a6.36,6.36,0,0,0,.47,1.86l0,0-.17.09a5.94,5.94,0,0,0-2.4,3.46,37.63,37.63,0,0,0-4.79-.27c-1,0-2,0-3,0a36,36,0,0,0-2-9.15c-.46-1.46-.54-3.07-1-4.5,0-.08,0-.15-.07-.22s0-.43,0-.65A.59.59,0,0,0,192,345a.68.68,0,0,1,.26-.36.86.86,0,0,0,.65,0,1.92,1.92,0,0,0,1.07-.63.73.73,0,0,0-.42-1.19v0l-.26,0a8.9,8.9,0,0,0,1.13-4.5,15.84,15.84,0,0,1-2.83.11,8.3,8.3,0,0,0-1.21,2.08c-.5,1.21-1.24,3.71.17,4.59a35,35,0,0,0-1,10.17c.09,2.11-.41,4.67.4,6.67,1,2.34,3.2,2.68,5.43,3.23a33.18,33.18,0,0,0,6.41,1,9.63,9.63,0,0,0,1.05,5.08,14.57,14.57,0,0,0,2.18,4.26c0,.05,0,.1.08.14h0c-3.33-.94-7.24-3.1-10.78-2.74a4.52,4.52,0,0,0-2,.71,3.79,3.79,0,0,0-1.51,1.54,5.8,5.8,0,0,0-.85,2.87,8.63,8.63,0,0,0-3.61-.53c-2.35.22-5.3,1.72-6,4.1-.84,2.82,1.73,4.68,4.08,5.43,1.13.37,2.29.67,3.46.94a4.61,4.61,0,0,0-1.21.87,2.55,2.55,0,0,0,.8,4.18c1.54.73,3.62.55,5.27.49,2.14-.08,6.3-.67,7.29-3,3,.56,6,1.06,8.91,1.78,2.66.65,6,1.79,8.84,1.39a1.26,1.26,0,0,0,1.05,0c4.4-1.67,5.29-7,5.08-11.2,1.08,1.73,2.1,3.5,3.28,5.18s2,3.68,3.75,4.73a.8.8,0,0,0,.43.12,1.07,1.07,0,0,0,.27.07,1.51,1.51,0,0,0,.26.18c1.82.92,4,.07,5.81-.34.17-.8.34-1.6.54-2.39A1.08,1.08,0,0,0,237.22,389.85Zm-18.64-40.72v-.05l0,0Z"/></g><g id="Layer_15" data-name="Layer 15"><polygon class="cls-8" points="173.86 121.85 173.46 119.21 189.86 118.11 190.27 120.76 173.86 121.85"/><polygon class="cls-8" points="176.38 126.12 175.87 123.49 192.54 122.1 193.05 124.73 176.38 126.12"/><polygon class="cls-8" points="178.89 130.51 178.13 127.9 194.9 125.76 195.67 128.37 178.89 130.51"/><polygon class="cls-8" points="180.45 134.33 179.7 131.72 197.59 129.48 198.34 132.09 180.45 134.33"/><polygon class="cls-8" points="182.11 137.96 181.72 135.32 200.6 134.1 201 136.74 182.11 137.96"/><polygon class="cls-8" points="184.42 142.21 184.02 139.56 203.46 138.27 203.87 140.91 184.42 142.21"/><polygon class="cls-8" points="188.4 146.24 187.74 143.62 206.43 141.56 207.1 144.18 188.4 146.24"/><path class="cls-8" d="M191.46,149.7l-.2-2.65c1,0,12.18-1,19-1.62l.54,2.63C209,148.22,192.94,149.66,191.46,149.7Z"/><polygon class="cls-8" points="172.27 117.4 171.79 114.76 187.83 113.5 188.31 116.13 172.27 117.4"/><polygon class="cls-8" points="170.45 113.67 169.77 111.06 186.54 109.16 187.22 111.78 170.45 113.67"/><polygon class="cls-8" points="169.4 109.27 168.73 106.66 184.63 104.89 185.3 107.5 169.4 109.27"/><polygon class="cls-8" points="195.55 153.73 195.02 151.09 214.77 149.38 215.29 152.01 195.55 153.73"/><path class="cls-8" d="M199.47,158.07v-2.65h-.16c.88-.06,12-1.38,18.73-2.19l.72,2.61C200.19,158.07,199.68,158.07,199.47,158.07Z"/><polygon class="cls-8" points="204.35 161.72 203.86 159.08 224.65 157.39 225.14 160.02 204.35 161.72"/><polygon class="cls-8" points="209.84 166.34 209.06 163.73 229.87 161.02 230.65 163.62 209.84 166.34"/><polygon class="cls-8" points="214.8 169.76 214.04 167.15 232.92 164.76 233.68 167.37 214.8 169.76"/><polygon class="cls-8" points="220.01 174.18 218.92 171.62 238.12 168.06 239.21 170.62 220.01 174.18"/><polygon class="cls-8" points="225.04 177.57 223.91 175.02 245.3 170.87 246.43 173.41 225.04 177.57"/><polygon class="cls-8" points="231.17 181.27 230.08 178.71 251.03 174.85 252.11 177.4 231.17 181.27"/><polygon class="cls-8" points="238.66 185.27 237.59 182.71 259.43 178.71 260.5 181.27 238.66 185.27"/><polygon class="cls-8" points="246.13 188.82 244.97 186.28 266.22 182.07 267.37 184.62 246.13 188.82"/><polygon class="cls-8" points="253.26 191.49 252.09 188.95 275.85 184.18 277.02 186.72 253.26 191.49"/><polygon class="cls-8" points="262.75 195.18 261.17 192.74 283.95 186.33 285.53 188.77 262.75 195.18"/><polygon class="cls-8" points="276.27 197.01 274.26 194.71 292.7 187.69 294.71 190 276.27 197.01"/><polygon class="cls-8" points="287.18 198.13 285.29 195.78 303.07 189.58 304.95 191.93 287.18 198.13"/><path class="cls-8" d="M295.11,160.62c-44-1.42-116.63-83.32-117.36-84.15l.75-.66c.73.82,73.1,82.4,116.64,83.82Z"/><path class="cls-3" d="M153.43,370.83c-.9.9-2.11,2.54-3.61,4.48s-3.25,4.63-4.95,6.05-5,6.18-5.92,7.48-1.7,2.58-1.48,4,2.8.41,5,.83c2.73.51,2,2.76,3.06,1.77s3.82-5.22,5-6.55,4.27-4.94,4.27-4.94,8.18-9.68,8.33-10.27,1.09-2.1,1.28-2.8.28-3.18-1.64-4.25c-1.42-.79-4-.4-5.88,1.07A44,44,0,0,0,153.43,370.83Z"/><path class="cls-6" d="M137.47,392.79c.22,1.38.44,3.21,2.61,3.89a6.49,6.49,0,0,0,5.49-1.29,4.27,4.27,0,0,0-1.82-6.13,16.35,16.35,0,0,0-2.41-.47,3.16,3.16,0,0,0-3.18,1.29A4.13,4.13,0,0,0,137.47,392.79Z"/><path class="cls-3" d="M127.4,380.58c.84-.13,12.86-1.64,13.76-2.19s12-1.73,13.72-2,10.4-1.84,12.93-2.28,6.12-.33,6.78,2.62c.4,1.78-.58,5.24-2.47,5.65-2.94.65-9.14,1.2-13.89,1.94s-19.71,2.78-23.16,4a31.44,31.44,0,0,1-7.67,1.66,4.22,4.22,0,0,1-4.54-3.8C122.35,382.84,125.5,380.88,127.4,380.58Z"/><path class="cls-3" d="M132.29,369.83c1.22.36,18.68,6.83,20.31,7.63s12.84,5,13.79,5.37,5.61,2.3,6.93,2.94-.1,2-1.63,4.89-.94,4.22-2.86,3.21c-1.27-.67-14.53-6.55-15.4-6.87s-8.39-3.34-9.81-3.75-11.8-4.56-13.14-4.86a5.91,5.91,0,0,1-2.7-1.47c0-.15-2.58-2.19-1.42-5.12S130.74,369.37,132.29,369.83Z"/><path class="cls-6" d="M173.07,385.65c-1.78-.8-3.76.05-5,1.37a4.24,4.24,0,0,0-.67,5.15l.07.12a4.55,4.55,0,0,0,.25.49,3.72,3.72,0,0,0,4.46,1.28C175.73,392.78,177,387.42,173.07,385.65Z"/><g class="cls-9"><path class="cls-10" d="M149.52,334.17c.23,1.17-.14,1.17.37,2.56s.75,1.46.63,2.7a7.37,7.37,0,0,0,0,2.35,19.07,19.07,0,0,1,.76,3.11c.22,1.63-.22,1.85.37,2.8a20.49,20.49,0,0,1,1.24,2.1c.49,1.13.8,3.67,1.44,4.73.3.5,1.45,1.09,1.65,1.64.32.89-.3,2.83-.31,3.77a45,45,0,0,0,.31,6.25c.12.71.55,2.1.74,2.79a5.34,5.34,0,0,1,0,3.13A17.51,17.51,0,0,1,156,375a6.86,6.86,0,0,1-3.09,2.89c-1.75,1-3.61,1.94-4.93,2-1.56,0-4.6-1.32-5.9-2s-2-1.36-2.1-2.67a21.82,21.82,0,0,1-.22-3.59,6.08,6.08,0,0,1,.57-2.86c.53-1.37,1.22-4.59,1.75-5.61s0-.79.13-2.41.42-1.78,1.43-3.45a8.9,8.9,0,0,0,1.25-4c.27-1.53-.75-1.47.06-2.49s1.35-4.05,1.86-6.24.25-2.07,1-3.9.4-2,.55-3A20.14,20.14,0,0,1,149.52,334.17Z"/></g><g class="cls-9"><path class="cls-10" d="M156,347c.56,2.19.28,2,1,4.66s1,2.63,1.24,4a9.63,9.63,0,0,0,1,3.78c.87,1.81,1.48.82,1.26,2.85s-.55,2.85.05,4.55,1.36,1.92.68,3.24.2,1.88-1.09,2.75-3.28,3.82-4.1,3.55-2.45-.22-3.11-.66a18.58,18.58,0,0,1-2.35-3.18,2.56,2.56,0,0,1-.63-2.52,10.27,10.27,0,0,0,0-3.23,3.19,3.19,0,0,1,.63-2.36c.65-1,1.2-1.32,1.15-2.36s-.39-1.42.16-2.63,2.6-5.72,2.58-7-.23-2.2.4-3.13A12.72,12.72,0,0,0,156,347Z"/></g><g class="cls-9"><path class="cls-10" d="M139.72,360.79c.38,2.46.23,1.28.59,2.14a41.53,41.53,0,0,1,1,4.05,13.23,13.23,0,0,0,1.31,3.18c.72,1,.88.88.83,2.41s-.39,1.76-.11,2.85a4.9,4.9,0,0,1,.28,2.11c0,1.34.18,1.27-.43,2.27s-.93,1.5-1.39,1.6-1-.28-1.81-.06-1.14.57-1.86.38-.79-.51-1.24-1.4a19,19,0,0,0-1.17-2c-.6-1-.5-1.4-.06-2.83s.33-1.75.61-2.68.65-1.08.93-2a26.18,26.18,0,0,0,1-4.25,8,8,0,0,1,.76-2.94A17,17,0,0,0,139.72,360.79Z"/></g><g class="cls-9"><path class="cls-10" d="M148,359.84c-.68,2-1.39,5.17-2.38,7.42s-1.37,1.91-1.7,4-1.84,5-1.76,7.47-.57,2.67.07,4.08,1.2,1.42,2.68,2.1a4.8,4.8,0,0,0,4.65,0c1.43-.9,2.4-.05,2.66-2.1s-.14-1.42,0-3,.75-1.27.42-2.33a31.63,31.63,0,0,1-1.37-4.6c-.17-1.33.27-2.81-.11-3.71s-1.76-4.31-2.14-5.68a24.71,24.71,0,0,1-.64-2.68A3.21,3.21,0,0,0,148,359.84Z"/></g><g class="cls-9"><path class="cls-10" d="M164.05,369.28c.79,2.61.54,2.84,1.12,5.53s2.23,3.26,1.35,6-.37,4.9-1.14,5.18-3.9.61-4.67-.44-.29-3.68.46-5.74,1.29-3.23,1.28-5.25S164.05,369.28,164.05,369.28Z"/></g><path class="cls-6" d="M125.36,381.1c-3,1.43-4.43,6.26-1.21,8.34a3.58,3.58,0,0,0,2,.55c2.31.4,4.94-.9,5.33-3.43C132,383.17,128.82,379.49,125.36,381.1Z"/><path class="cls-3" d="M170.84,393.59a2.85,2.85,0,0,1-1.23-.28,3.48,3.48,0,0,1-1.77-3,3.76,3.76,0,0,1,.42-2.17,3.83,3.83,0,0,1,4-1.89,3.46,3.46,0,0,1,2.21,1.73,3.73,3.73,0,0,1-.15,3.23,3.82,3.82,0,0,1-1.43,1.74A4.2,4.2,0,0,1,170.84,393.59Zm.67-7.23a3.69,3.69,0,0,0-2.23.85,3.63,3.63,0,0,0-.88,1h0a3.59,3.59,0,0,0-.39,2.07,3,3,0,0,0,4.77,2.51,3.63,3.63,0,0,0,1.37-1.66,3.52,3.52,0,0,0,.15-3.09,3.22,3.22,0,0,0-2.1-1.63A2.84,2.84,0,0,0,171.51,386.36Z"/><path class="cls-3" d="M170.81,392.65a2.18,2.18,0,0,1-1.33-.41,2.63,2.63,0,0,1-.91-1.9,3,3,0,0,1,.68-2.26,3.13,3.13,0,0,1,1.78-1h0a3.37,3.37,0,0,1,1,0,2.21,2.21,0,0,1,1.3.47,2.34,2.34,0,0,1,.67,1.68,3.24,3.24,0,0,1-.13,1.2,2.89,2.89,0,0,1-.7,1.34,2.78,2.78,0,0,1-1.44.75A4,4,0,0,1,170.81,392.65Zm.24-5.45,0,.09a2.69,2.69,0,0,0-2.33,3,2.44,2.44,0,0,0,.84,1.79,2.56,2.56,0,0,0,2.11.26,2.7,2.7,0,0,0,1.37-.71,2.76,2.76,0,0,0,.65-1.26,3.22,3.22,0,0,0,.13-1.14,2.22,2.22,0,0,0-.62-1.57,2.07,2.07,0,0,0-1.21-.44,3,3,0,0,0-.94,0Z"/><path class="cls-3" d="M171,391.84a1.55,1.55,0,0,1-1.72-1.67,2,2,0,0,1,.34-1.33,2,2,0,0,1,1-.74,2.6,2.6,0,0,1,.76-.16,1.83,1.83,0,0,1,1.38.36,1.54,1.54,0,0,1,.37.82,2.49,2.49,0,0,1,0,1.1,2,2,0,0,1-.42,1,1.86,1.86,0,0,1-1,.55A2.79,2.79,0,0,1,171,391.84Zm.71-3.74h-.28a2.78,2.78,0,0,0-.71.14h0a2,2,0,0,0-1,.68,1.9,1.9,0,0,0-.31,1.23,1.65,1.65,0,0,0,.33,1c.6.72,1.81.43,1.94.39a1.66,1.66,0,0,0,.89-.5,2,2,0,0,0,.39-.9,2.35,2.35,0,0,0,0-1,1.1,1.1,0,0,0-1.29-1.06Z"/><path class="cls-3" d="M171.05,391a.83.83,0,0,1-.66-.27,1.07,1.07,0,0,1-.07-1.09A1.13,1.13,0,0,1,171,389a1.06,1.06,0,0,1,.81,0,1,1,0,0,1,.52.52,1.1,1.1,0,0,1-.24,1,1.16,1.16,0,0,1-.6.37A1.48,1.48,0,0,1,171.05,391Zm.31-1.89a.9.9,0,0,0-.34.06h0a1,1,0,0,0-.55.54.73.73,0,0,0,.94,1.07,1,1,0,0,0,.53-.32.92.92,0,0,0,.2-.85.77.77,0,0,0-.43-.43A1,1,0,0,0,171.36,389.09Z"/><path class="cls-3" d="M171.26,390.28l-.1,0a.28.28,0,0,1-.2-.15.33.33,0,0,1,0-.26.38.38,0,0,1,.21-.22h0a.39.39,0,0,1,.28,0,.33.33,0,0,1,0,.59A.47.47,0,0,1,171.26,390.28Zm0-.51h-.07a.24.24,0,0,0-.11.13.16.16,0,0,0,0,.12.14.14,0,0,0,.1.07.2.2,0,0,0,.17,0,.2.2,0,0,0,.08-.21.14.14,0,0,0-.09-.08Z"/><path class="cls-3" d="M141.35,396.15a2.74,2.74,0,0,1-.68-.08,3.22,3.22,0,0,1-1.89-1.16,3.61,3.61,0,0,1-.7-2.15,3.49,3.49,0,0,1,.12-1.18,3.22,3.22,0,0,1,.65-1.2h0a3.3,3.3,0,0,1,.94-.73,3.49,3.49,0,0,1,2.1-.19,4.26,4.26,0,0,1,2.45.92,3.4,3.4,0,0,1,1.1,3.35,3,3,0,0,1-1.08,1.52,4,4,0,0,1-1.75.71A5.66,5.66,0,0,1,141.35,396.15ZM139,390.49a3,3,0,0,0-.62,1.14,3.08,3.08,0,0,0-.11,1.12,3.45,3.45,0,0,0,.66,2.06,3.09,3.09,0,0,0,1.8,1.1,3.88,3.88,0,0,0,1.86-.11,3.76,3.76,0,0,0,1.68-.68,2.83,2.83,0,0,0,1-1.43,3.25,3.25,0,0,0-1.05-3.19,4,4,0,0,0-2.37-.87,3.3,3.3,0,0,0-2,.17,3,3,0,0,0-.88.69Z"/><path class="cls-3" d="M141.34,395.26a2.22,2.22,0,0,1-1.47-.46,2.92,2.92,0,0,1-.8-2.24,2.46,2.46,0,0,1,.29-1.53,2.18,2.18,0,0,1,1-.79,3.12,3.12,0,0,1,2.39.05,2.81,2.81,0,0,1,1.54,1,2.55,2.55,0,0,1,.37,1.93,2.42,2.42,0,0,1-.89,1.38,2.91,2.91,0,0,1-1.68.57C141.83,395.24,141.59,395.26,141.34,395.26Zm0-5.08a2.25,2.25,0,0,0-1,.21h0a2,2,0,0,0-.89.73,2.22,2.22,0,0,0-.26,1.43,2.76,2.76,0,0,0,.73,2.12,3.8,3.8,0,0,0,3.66-.15,2.24,2.24,0,0,0,.83-1.29,2.37,2.37,0,0,0-.35-1.79,2.72,2.72,0,0,0-1.46-1A3.72,3.72,0,0,0,141.37,390.18Z"/><path class="cls-3" d="M141.29,394.56a1.2,1.2,0,0,1-.61-.14,1.84,1.84,0,0,1-.75-1.28,1.93,1.93,0,0,1,.14-1.37,1.76,1.76,0,0,1,1.18-.86h0a2.13,2.13,0,0,1,2.13.66,2,2,0,0,1,.48,1.32,1.62,1.62,0,0,1-.49,1.25c-.29.26-.64.29-1.32.36A6.14,6.14,0,0,1,141.29,394.56Zm0-3.57,0,.08a1.64,1.64,0,0,0-1.08.78,1.81,1.81,0,0,0-.12,1.26,1.65,1.65,0,0,0,.68,1.17c.28.16.61.13,1.26.06s1-.1,1.23-.33a1.44,1.44,0,0,0,.43-1.12,1.82,1.82,0,0,0-.44-1.21,2,2,0,0,0-2-.61Z"/><path class="cls-3" d="M141.86,394a1.16,1.16,0,0,1-.54-.13,1.28,1.28,0,0,1,0-2.14h0a1.1,1.1,0,0,1,.89,0,1.29,1.29,0,0,1,.73.94,1.06,1.06,0,0,1-1,1.37Zm-.1-2.22a.73.73,0,0,0-.39.1h0a1.07,1.07,0,0,0-.47,1,1.06,1.06,0,0,0,.5.88,1,1,0,0,0,1.2-.22.94.94,0,0,0,.14-.84,1.1,1.1,0,0,0-.62-.82A1.13,1.13,0,0,0,141.76,391.75Z"/><path class="cls-3" d="M141.88,393.21a.47.47,0,0,1-.3-.13.42.42,0,0,1-.12-.34.4.4,0,0,1,.35-.26h0a.4.4,0,0,1,.44.26.36.36,0,0,1-.05.28.39.39,0,0,1-.25.19Zm0-.57h0c-.09,0-.19.06-.2.14a.19.19,0,0,0,.07.18.24.24,0,0,0,.21.08.21.21,0,0,0,.15-.11.17.17,0,0,0,0-.15A.25.25,0,0,0,141.85,392.64Z"/><path class="cls-3" d="M126.52,389.33a3,3,0,0,1-1.21-.24,3.5,3.5,0,0,1-2-2.38,3.63,3.63,0,0,1,0-1.43,4.17,4.17,0,0,1,.56-1.7,4.06,4.06,0,0,1,1.15-1.23,3.56,3.56,0,0,1,1.67-.76h0a3.44,3.44,0,0,1,2.58.82,4,4,0,0,1,1.29,3.46,3.32,3.32,0,0,1-.75,2.21,3.28,3.28,0,0,1-1.46.87A5.35,5.35,0,0,1,126.52,389.33Zm.15-7.58a3.37,3.37,0,0,0-1.59.74,4,4,0,0,0-1.11,1.18,4.06,4.06,0,0,0-.54,1.63,3.73,3.73,0,0,0,0,1.37,3.34,3.34,0,0,0,1.92,2.27,3.83,3.83,0,0,0,2.88-.15,3,3,0,0,0,1.4-.82,3.3,3.3,0,0,0,.71-2.1,3.87,3.87,0,0,0-1.24-3.33,3.27,3.27,0,0,0-2.45-.79Z"/><path class="cls-3" d="M126.86,388.41h-.17a2.59,2.59,0,0,1-1.89-.83,2.73,2.73,0,0,1-.55-1.68,3,3,0,0,1,.38-1.82,2.83,2.83,0,0,1,1.49-1.2h0a2.83,2.83,0,0,1,2.53.38,3.13,3.13,0,0,1,.9,2.1,2.5,2.5,0,0,1-.08,1.52,2.33,2.33,0,0,1-1,1.08A3,3,0,0,1,126.86,388.41Zm-.69-5.38a2.66,2.66,0,0,0-1.4,1.13,2.87,2.87,0,0,0-.35,1.72,2.5,2.5,0,0,0,.51,1.58,2.44,2.44,0,0,0,1.77.78,2.85,2.85,0,0,0,1.67-.43,2.19,2.19,0,0,0,.95-1,2.46,2.46,0,0,0,.07-1.44,3,3,0,0,0-.85-2,2.65,2.65,0,0,0-2.37-.35Z"/><path class="cls-3" d="M126.9,387.63a2,2,0,0,1-1.07-.3,2,2,0,0,1-.77-.88,2,2,0,0,1,0-1.37,2.13,2.13,0,0,1,.83-1.19,1.81,1.81,0,0,1,1.18-.4h0a1.83,1.83,0,0,1,1.32.67,3,3,0,0,1,.33,1.62,2,2,0,0,1-.07,1,1.6,1.6,0,0,1-1.22.85A2.64,2.64,0,0,1,126.9,387.63Zm.06-4a1.71,1.71,0,0,0-1,.37,2,2,0,0,0-.77,1.11,1.81,1.81,0,0,0,0,1.26,1.76,1.76,0,0,0,.7.8,1.93,1.93,0,0,0,1.43.23,1.48,1.48,0,0,0,1.11-.76,1.8,1.8,0,0,0,0-.88,2.94,2.94,0,0,0-.29-1.52,1.71,1.71,0,0,0-1.2-.61Z"/><path class="cls-3" d="M127,386.89a2.17,2.17,0,0,1-.26,0,1.33,1.33,0,0,1-1-.83,1.29,1.29,0,0,1,.39-1.21,1.17,1.17,0,0,1,1-.43h0a1.33,1.33,0,0,1,.85,2.05A1.22,1.22,0,0,1,127,386.89Zm0-2.33a1.12,1.12,0,0,0-.79.38,1.08,1.08,0,1,0,1.73.36,1.15,1.15,0,0,0-.84-.73H127Z"/><path class="cls-3" d="M127,386.19a.59.59,0,0,1-.59-.73.57.57,0,0,1,.64-.35h0a.62.62,0,0,1,.37.3.55.55,0,0,1,.09.49.42.42,0,0,1-.25.24A.58.58,0,0,1,127,386.19Zm-.06-.92a.39.39,0,0,0-.37.24.42.42,0,0,0,.26.49.5.5,0,0,0,.36,0,.26.26,0,0,0,.17-.15.43.43,0,0,0-.08-.34.42.42,0,0,0-.26-.22h-.08Z"/><path class="cls-11" d="M51.54,136.89S38.76,163.5,35.83,169.18s-4.1,8.67-4.1,8.67,26.87-.37,32.51-.51a73.76,73.76,0,0,1,9.67.33s10.34-22,13-27.6S93,136.31,93,136.31s-15.37.19-23,0S51.54,136.89,51.54,136.89Z"/><path class="cls-12" d="M111.44,176.76,93,136.31,73.91,177.67s13.67.33,17.76,0S111.44,176.76,111.44,176.76Z"/><path class="cls-7" d="M93.3,177.56s-.64-22.08-.63-26.86.33-14.39.33-14.39l-1.23,22.61.45,16.2-.55,2.55Z"/><path class="cls-3" d="M293.79,213.11s-1.21,29.68-.33,48.57.28,69.32,0,73.06a56.46,56.46,0,0,0,.32,8.75l11.16,0s0-32.05-1.28-50.52.63-58.24,0-67.23,0-12.59,0-12.59Z"/><path class="cls-5" d="M303.77,236.05c.05-4.64,0-8.3-.1-10.35-.64-9,0-12.59,0-12.59h-9.88s-.59,14.55-.64,29.77C296.69,240.61,300.22,238.32,303.77,236.05Z"/><path class="cls-6" d="M299.68,103.4c-3.27,10.85-10.89,32.49-15.47,44.28S271.5,180.25,270.13,188s-7.26,24.68-9.14,27.71c4.84-.25,59.29,2.19,70.47.53,7.46-.13,5.9,0,5.9,0S323.57,179.35,319,164.31,299.68,103.4,299.68,103.4Z"/><polygon class="cls-12" points="298.07 203.7 277.58 202.44 277.98 199.8 298.47 201.06 298.07 203.7"/><polygon class="cls-12" points="295.12 207.92 274.21 205.94 274.82 203.32 295.73 205.29 295.12 207.92"/><polygon class="cls-12" points="290.58 211.66 269.58 210.46 269.96 207.81 290.96 209.02 290.58 211.66"/><polygon class="cls-12" points="286.63 215.71 263.88 214.43 264.24 211.78 286.99 213.06 286.63 215.71"/><polygon class="cls-12" points="280.85 220.49 256.78 219.1 257.16 216.45 281.22 217.84 280.85 220.49"/><polygon class="cls-12" points="275.62 223.59 251.31 222.65 251.56 220 275.88 220.94 275.62 223.59"/><polygon class="cls-12" points="268.96 228.2 244.22 226.77 244.6 224.13 269.34 225.56 268.96 228.2"/><polygon class="cls-12" points="261.69 232.36 238.42 230.22 239.01 227.6 262.29 229.73 261.69 232.36"/><polygon class="cls-12" points="256.29 235.61 230.21 234.84 230.4 232.19 256.49 232.95 256.29 235.61"/><polygon class="cls-12" points="248.53 240.3 224.46 237.67 225.17 235.05 249.23 237.69 248.53 240.3"/><polygon class="cls-12" points="243.54 243 217.5 241.47 217.89 238.82 243.93 240.36 243.54 243"/><polygon class="cls-12" points="232.57 248.12 209.39 244.8 210.31 242.21 233.48 245.53 232.57 248.12"/><polygon class="cls-12" points="226 251.29 201.51 248.25 202.31 245.65 226.8 248.69 226 251.29"/><polygon class="cls-12" points="219.56 254.87 194.27 251.17 195.21 248.58 220.49 252.28 219.56 254.87"/><polygon class="cls-12" points="211.43 257.99 187.03 254.17 188.02 251.59 212.42 255.41 211.43 257.99"/><polygon class="cls-12" points="203.99 261.6 180.09 256.46 181.42 253.95 205.32 259.08 203.99 261.6"/><polygon class="cls-12" points="197.47 264.71 170.86 259.8 172.02 257.25 198.63 262.16 197.47 264.71"/><polygon class="cls-12" points="187.3 268.62 163.8 262.05 165.48 259.62 188.98 266.19 187.3 268.62"/><polygon class="cls-12" points="179.65 270.95 152.89 265.38 154.19 262.86 180.95 268.42 179.65 270.95"/><polygon class="cls-12" points="172.8 273.7 144.83 268.04 146.1 265.51 174.07 271.17 172.8 273.7"/><polygon class="cls-12" points="161.94 276.05 133.67 270.58 134.89 268.04 163.15 273.51 161.94 276.05"/><polygon class="cls-12" points="154.66 278.99 124.99 272.59 126.33 270.07 156 276.47 154.66 278.99"/><polygon class="cls-12" points="143.5 281.63 114.48 275.39 115.82 272.88 144.83 279.12 143.5 281.63"/><polygon class="cls-12" points="132.39 282.98 105.89 277.71 107.13 275.18 133.63 280.44 132.39 282.98"/><polygon class="cls-12" points="119.97 285.92 91.83 279.96 93.15 277.44 121.28 283.4 119.97 285.92"/><polygon class="cls-12" points="107.21 288.16 83.07 281.86 84.66 279.4 108.79 285.7 107.21 288.16"/><polygon class="cls-12" points="95.59 290.17 71.67 283.31 73.39 280.88 97.31 287.75 95.59 290.17"/><polygon class="cls-12" points="82.98 291.77 60.33 284.98 62.11 282.58 84.76 289.37 82.98 291.77"/><polygon class="cls-12" points="74.83 293.68 50.23 287.08 51.85 284.63 76.46 291.23 74.83 293.68"/><path class="cls-3" d="M37.3,306.68s.79,53.53,0,65.57a235.81,235.81,0,0,0,0,25.3l12-.28s-1.43-44.92-1.75-55.59,0-35,0-35Z"/><polygon class="cls-5" points="37.3 306.68 37.58 332.99 47.42 326.63 47.57 306.68 37.3 306.68"/><path class="cls-6" d="M43.07,196.93c-6.21,20.75-10.72,32-14,48.18S19.56,288,16,298.29s-3.28,13.1-3.28,13.1S32,309,43.1,310.91s29.8-.73,29.8-.73S63.2,276.65,59.82,260,43.07,196.93,43.07,196.93Z"/><rect class="cls-2" x="63.44" y="306.41" width="2.32" height="89.84" transform="translate(-105.21 37.05) rotate(-17.96)"/><rect class="cls-2" x="75.62" y="306.28" width="2.32" height="91.65" transform="translate(-106.76 41.97) rotate(-18.32)"/><rect class="cls-2" x="53.75" y="316.86" width="11.71" height="2.32" transform="translate(-5.63 1.11) rotate(-1.02)"/><rect class="cls-2" x="62.36" y="323.78" width="2.32" height="12.12" transform="translate(-270.28 367.32) rotate(-85.5)"/><rect class="cls-2" x="60.99" y="338.3" width="11.36" height="2.32" transform="translate(-58.59 16.99) rotate(-10.12)"/><rect class="cls-2" x="69.64" y="345.48" width="2.32" height="12.45" transform="translate(-284.72 399.77) rotate(-86.32)"/><rect class="cls-2" x="67.81" y="359.82" width="11.88" height="2.32" transform="translate(-15.84 3.6) rotate(-2.53)"/><rect class="cls-2" x="76.27" y="365.96" width="2.32" height="12.65" transform="translate(-301.46 404.45) rotate(-83.1)"/><rect class="cls-2" x="75.61" y="382.28" width="11.54" height="2.32"/><path class="cls-8" d="M61.13,269.7l0-1c60.83-2.38,122.86-26.37,164.19-46.08,44.8-21.36,75.59-42.43,75.9-42.64l.57.82c-.31.21-31.16,21.32-76,42.72C184.31,243.27,122.13,267.32,61.13,269.7Z"/><path class="cls-8" d="M59.37,258.27l0-1c79.89-3.13,182.49-55.11,222.89-77.32l.48.88C242.24,203.07,139.47,255.13,59.37,258.27Z"/></g><g id="Layer_11_copy" data-name="Layer 11 copy"><path class="cls-13" d="M246.47,124.22a30.62,30.62,0,0,1-7.55-8.21c-1-1.6-2-3.17-3.08-4.75-1.15-1.76-2.21-3.54-2.18-5.69,0-2,.47-3.84.07-5.82-.31-1.56-1-3-1.32-4.6,0-.16,0-1.11-.2-1.17.15-.1.38-.21.6-.34.92-.52,1.94-.9,2.84-1.46a2.79,2.79,0,0,0,1.59-3c-.42-1.53-2-1.87-3.4-2a15.44,15.44,0,0,1-2.18-.15l0,0a2.19,2.19,0,0,0-1.23-3.1c-4.43-1.37-10.14,1.93-11.46,6.32-1.1,3.62.9,6.51,3.52,8.71-3.53,2.36-6.41,5.75-9.06,9-3.81,4.65-5.58,10.42-6.17,16.35-.16,1.64,1.93,2.62,3.22,1.84,2.87-1.74,3.83-4.85,4.95-7.82a12.4,12.4,0,0,1,2.52-4c-.3,1-.61,2-.9,3a60.54,60.54,0,0,0-1.63,8.57c-.77,5.81-1.38,11.63-2.24,17.43l-.06.4c0,.65-.07,1.29-.1,1.94a28.46,28.46,0,0,1,.16,4.33c0,1.05,0,2.1-.08,3.16,0,1.74-.06,3.48-.16,5.23,0,.16,0,.32,0,.48a4.69,4.69,0,0,0,1.92,1.62l.33.3c2,1.47,4.5,1.62,6.74,2.5a1.68,1.68,0,0,0,1.77-.24c.19-.86.42-1.71.62-2.53a2,2,0,0,0-.28-.54,2.13,2.13,0,0,0-.46-.79,5.34,5.34,0,0,0-1.16-.92c-.63-1.28-.27-2.89-.08-4.45.39-3.25.86-6.45,1.54-9.66.91-4.3,1.65-8.63,2.37-13,.74,2.56,1.46,5.13,2.19,7.69,1.31,4.58,2.89,9.08,4.24,13.64.5,1.7.8,3.45,1.41,5.12a21.34,21.34,0,0,0,2,3.85c.83,1.33,2.8,1.29,4.09.73,1.81-.8,3.58-1.5,5.48-2.13a2.09,2.09,0,0,0,.91-3.46,5.82,5.82,0,0,0-3.57-1.55,29.57,29.57,0,0,0-1.14-5.18c-1.43-6.34-3.21-12.6-5.18-18.8-.28-.89-.56-1.76-.82-2.64a.31.31,0,0,1,0-.08,31.67,31.67,0,0,0-1.43-5.21c-.25-1-.47-2.09-.66-3.17-.07-.44-.15-.88-.23-1.32,1,1.58,2.05,3.1,3.09,4.58a20,20,0,0,0,3.83,4.18,12,12,0,0,0,4,2.56,3.28,3.28,0,0,0,3.9-2C248.8,126.35,247.63,125.09,246.47,124.22Zm-28.29,14.15c-.05.21-.1.42-.14.63.06-.49.13-1,.19-1.47l.1.14Zm.53-30.41c.33-.41.67-.81,1-1.22a1.85,1.85,0,0,0,.21.45C219.53,107.43,219.12,107.69,218.71,108Z"/><path class="cls-7" d="M244.15,124.39l-.31-.24-.14-.1a.8.8,0,0,0-.34-.27c-.54-.41-1.05-.84-1.53-1.28-.6-.81-1.14-1.8-1.5-2.29a15.49,15.49,0,0,0-1.88-2.29c-.41-.54-.83-1.06-1.28-1.55-.95-1.69-2-3.33-2.9-5a93.43,93.43,0,0,1-4.52-8.93,4.05,4.05,0,0,0,2.37.52c.62-.06,1.11-.94.58-1.36h0a36.51,36.51,0,0,0-.8-7.64c-.11-.62-.22-1.24-.35-1.85a8.25,8.25,0,0,0,4.51-1.81.61.61,0,0,0,.19-.64A.39.39,0,0,0,236,89c-1.39-.09-2.78,0-4.18-.15l-1.11-.11c-.25-.88-.52-1.76-.8-2.62a.38.38,0,0,0-.39-.28.39.39,0,0,0-.28-.09c-2.61.09-5-.11-6.34,2.61-.06.12-.12.25-.17.38a6.11,6.11,0,0,0-.27,7.46,10.63,10.63,0,0,0,2.26,2.43c-.17.37-.33.74-.48,1.12l-.08,0a8.36,8.36,0,0,0-1.86,2.16,17.28,17.28,0,0,0-2.65,2.75c-.18.23-.37.45-.55.67l-.72.82c-.18.21-.36.43-.55.64-.75.86-1.52,1.7-2.25,2.58a18.46,18.46,0,0,0-1.23,1.71c-.2.2-.41.39-.62.58a.76.76,0,0,0-.27.67,7.49,7.49,0,0,0-.66,1.59c-.14.34-.27.68-.4,1-.4.94-.75,1.89-1.1,2.84s-.72,1.93-1.06,2.9c-.07.19-.14.38-.22.56a1.36,1.36,0,0,0,0,.17l-.07.19a7.45,7.45,0,0,0-1.53,2.19.73.73,0,0,0,.81,1,1.68,1.68,0,0,0,.32-.09.76.76,0,0,0,.69-.19,8.65,8.65,0,0,0,.92-1h0a.83.83,0,0,0,1.17-1.18c-.05,0-.07-.22-.1-.29a.41.41,0,0,0-.05-.09,6.23,6.23,0,0,1,.15-.62.86.86,0,0,0,.13-.14l.15-.2h0l0,0a24,24,0,0,0,2.84-4.9l.45-.58a47.36,47.36,0,0,1,3.6-4.15,18.34,18.34,0,0,0-.31,2,1,1,0,0,0,.19.68l0,.36c-.37,3.46-1.41,6.81-2.07,10.23a80.75,80.75,0,0,0-1.16,8.5,1.36,1.36,0,0,0-.09.42c0,.75-.09,1.49-.11,2.23,0,.2,0,.39,0,.59-.23,3.84-.52,7.68-.8,11.52-.19,2.63-.24,5.29-.4,7.94-.14.88-.24,1.76-.31,2.66a3.4,3.4,0,0,0-1,.06.7.7,0,0,0-.52.43c0,.23,0,.46,0,.68a.81.81,0,0,0,.17.28,1.85,1.85,0,0,0,.14.14l.28.08a1.43,1.43,0,0,1,.94.81l.59.3a79.94,79.94,0,0,1,8.06,3.06h.34a26.33,26.33,0,0,1,.61-2.83,13.15,13.15,0,0,0-1.58-.67c0-.16,0-.32.07-.49s-.23-.26-.31-.37a14.72,14.72,0,0,1-1-1.24l-.22-.4a50,50,0,0,1,1.33-10c0-.29.06-.58.1-.87l0-.44c.54-2.68.86-5.43,1.3-8.13.1-.62.19-1.24.28-1.87a1.05,1.05,0,0,0,.05-.19c.06-.52.18-1,.27-1.56a1.35,1.35,0,0,0,0-.64c.08-.88.14-1.76.15-2.65,0-.11,0-.21,0-.32q.62-3.15,1.13-6.3c.18.57.35,1.14.51,1.72a15,15,0,0,0,.73,2.84c.59,2.2,1.25,4.39,1.92,6.57l.08,0a3.9,3.9,0,0,0,.17.48c0,.11,0,.21.08.32l-.09,0c.23.75.45,1.49.67,2.23q1.74,5.82,3.54,11.6c1,3.28,1.39,6.79,2.93,9.88a.75.75,0,0,0,1.29.06h.15a22.72,22.72,0,0,0,4.71-1.59,14.72,14.72,0,0,0,2.88-1.4l-.15-.88h0l0-.17c0-.23-.07-.47-.11-.7h0a4.88,4.88,0,0,0-1.19-.28,11.38,11.38,0,0,0-1.42-.14c-.2,0-.39-.06-.58-.08-.32-1.14-.53-2.31-.79-3.46-.4-1.76-1-3.47-1.5-5.21-1.07-3.81-1.92-7.68-3-11.5-.07-.29-.15-.58-.23-.86a7.86,7.86,0,0,0-.44-1.61c-.79-2.88-1.58-5.75-2.31-8.66s-1.71-5.47-2.4-8.26a1,1,0,0,0,.44-.54l.66.71a36.2,36.2,0,0,0,2.82,3.37,11,11,0,0,0,1.56,1.57,1.46,1.46,0,0,0,.49.26,1.58,1.58,0,0,0,.24.15,1.59,1.59,0,0,0,.13.13,26.64,26.64,0,0,0,2.66,2.21,6.93,6.93,0,0,0,2.37,1.16.47.47,0,0,0,.06.09.67.67,0,0,0,.39.4,18.25,18.25,0,0,0,1.71,1.8.93.93,0,0,0,1.76.09C246.9,126.17,245.52,124.86,244.15,124.39ZM232,140.82s0,0,0,0c.21.67.41,1.33.63,2l0,0C232.44,142.17,232.23,141.5,232,140.82Z"/><path class="cls-8" d="M274.18,175.34c-43.87-7.53-112.13-96-112.81-96.92l.79-.6c.68.89,68.71,89.07,112.19,96.53Z"/></g></svg>