<svg xmlns="http://www.w3.org/2000/svg" viewBox="0 0 350 400"><defs><style>.cls-1{isolation:isolate;}.cls-2{fill:#dadbdc;}.cls-3{fill:#9c6bad;}.cls-4,.cls-8{fill:#363436;}.cls-19,.cls-4{mix-blend-mode:hard-light;}.cls-5{fill:#fff;}.cls-6{fill:#af97c7;}.cls-7{mix-blend-mode:soft-light;}.cls-19,.cls-9{fill:#393a35;}.cls-10{fill:#58595b;}.cls-11{fill:#7a478b;}.cls-12,.cls-13,.cls-14,.cls-15,.cls-16,.cls-21{fill:none;stroke-miterlimit:10;}.cls-12{stroke:#8f4299;}.cls-13,.cls-14,.cls-15,.cls-16{stroke:#fff;stroke-width:2px;}.cls-14{stroke-dasharray:3.96 3.96;}.cls-15{stroke-dasharray:3.87 3.87;}.cls-16{stroke-dasharray:4;}.cls-17{fill:#a0a2a5;}.cls-18,.cls-19{opacity:0.44;}.cls-20{fill:#b5b7b9;}.cls-21{stroke:#393a35;}.cls-22{fill:#d6d7d9;}</style></defs><title>tails_2.4_tools</title><g class="cls-1"><g id="Layer_14" data-name="Layer 14"><path class="cls-2" d="M213.21,12.88c43,13.9,116,40,106,84s-18.9,84.62-12.77,114.69,61.7,82.15,18.49,130.43-199.64,83.41-255,10.94C11.06,275.78,27.15,209.26,39.12,176.29S16.25,69.43,58.5,32.76,179.07,1.82,213.21,12.88Z"/></g><g id="Layer_10" data-name="Layer 10"><path class="cls-3" d="M54.4,287s2.82-14.59,30.52-14.59c21.34,0,30.38,9.58,30.38,14.59,0,6.19-8.45,19.38-8.45,19.38L70.39,308Z"/><path class="cls-4" d="M94.47,273.14a60.1,60.1,0,0,0-9.55-.72C57.22,272.42,54.4,287,54.4,287l11.51,15.07Z"/><path class="cls-5" d="M56.14,292s5.45-13,26.9-13.3,30.42,12.61,30.42,12.61l-7.65,12.15-44.34-1.93Z"/><path class="cls-6" d="M54.53,287.48v20.28c9.17,10.11,41.9,15.94,60.77-.17,0-4.27,0-20.58,0-20.58C106.55,299.65,74.11,307.35,54.53,287.48Z"/><g class="cls-7"><path class="cls-8" d="M115.3,287c-3.22,4.66-9.67,8.65-17.51,10.83A68.63,68.63,0,0,1,86.34,317.6c10.24-.23,20.87-3.1,29-10C115.33,303.32,115.3,287,115.3,287Z"/></g><polygon class="cls-9" points="79.61 286.21 94.25 279.74 88.48 289.92 79.61 286.21"/></g><g id="Layer_12" data-name="Layer 12"><path class="cls-3" d="M198.2,76.25s11.29-11,14.92-11.49,26.13,6.89,28,10.13,1.84,65.38-.7,69.6S229,159.41,226,159.56s-26.15-7.21-28.47-10.19S197.27,80.33,198.2,76.25Z"/><path class="cls-6" d="M197.53,149.37c2.32,3,25.47,10.35,28.47,10.19a2.62,2.62,0,0,0,.89-.26c.91-15.84,2.4-69.62-.37-73.68-2.47-3.6-19.27-7.78-28.37-9.07C197.19,82.81,195.25,146.44,197.53,149.37Z"/><path class="cls-10" d="M221.21,90.57l-17.69-6a8.65,8.65,0,0,1-.92.67l-1,21.07.47.79.12.2,19,6.68c.22-.24.46-.47.69-.7V92C221.66,91.54,221.45,91,221.21,90.57Z"/><path class="cls-11" d="M201.82,126a1.71,1.71,0,0,0-.25-.53,1.63,1.63,0,0,0-.11-.17v0c-.27-.58-1-.6-1.07-.14l0,0a.71.71,0,0,0-.12.5,1,1,0,0,0,.36.64h0a.36.36,0,0,0,.12.08.33.33,0,0,0,.1.06.76.76,0,0,0,.18.09l.1,0h0l.07,0a.5.5,0,0,0,.21,0h.13A.48.48,0,0,0,201.82,126Z"/><path class="cls-11" d="M204.86,127a1.78,1.78,0,0,0-.25-.52c0-.06-.07-.12-.11-.17v0c-.28-.57-1-.59-1.08-.14l0,0a.74.74,0,0,0-.12.5,1.07,1.07,0,0,0,.36.64h0l.12.08.1.06a.64.64,0,0,0,.19.08l.09,0h0l.07,0a.42.42,0,0,0,.22,0h.13A.48.48,0,0,0,204.86,127Z"/><path class="cls-11" d="M207.61,127.87a1.71,1.71,0,0,0-.25-.53l-.11-.17v0c-.27-.58-1-.6-1.07-.14l0,0a.67.67,0,0,0-.12.49,1,1,0,0,0,.36.64h0a.36.36,0,0,0,.12.08.33.33,0,0,0,.1.06l.18.09.1,0h0l.07,0a.75.75,0,0,0,.21,0h.13A.48.48,0,0,0,207.61,127.87Z"/><path class="cls-11" d="M210.65,128.86a2,2,0,0,0-.25-.53c0-.06-.07-.12-.11-.17v0c-.28-.57-1-.59-1.08-.13l0,0a.75.75,0,0,0-.12.5,1,1,0,0,0,.36.64h0l.12.08.1.06a.46.46,0,0,0,.19.08l.09,0h0l.07,0a.42.42,0,0,0,.22,0h.13A.47.47,0,0,0,210.65,128.86Z"/><path class="cls-11" d="M213.82,129.88a1.91,1.91,0,0,0-.25-.52l-.12-.17v0c-.27-.57-1-.59-1.07-.14l0,0a.74.74,0,0,0-.12.5,1.07,1.07,0,0,0,.36.64h0l.12.08.1.06a.48.48,0,0,0,.18.08l.1,0h0l.07,0a.42.42,0,0,0,.22,0h.12A.49.49,0,0,0,213.82,129.88Z"/><path class="cls-11" d="M216.85,130.87a1.56,1.56,0,0,0-.25-.52,1.74,1.74,0,0,0-.11-.18v0c-.27-.58-1-.6-1.07-.14l0,.05a.67.67,0,0,0-.12.49,1,1,0,0,0,.36.64h0l.12.09.1.06.18.08a.29.29,0,0,0,.1,0h0l.07,0a.52.52,0,0,0,.21,0h.13A.48.48,0,0,0,216.85,130.87Z"/><path class="cls-11" d="M219.61,131.77a2,2,0,0,0-.25-.53l-.12-.17v0c-.27-.57-1-.59-1.07-.13l0,0a.76.76,0,0,0-.12.5,1,1,0,0,0,.36.64h0l.12.08.1.06.18.09.1,0h0a.11.11,0,0,0,.07,0,.42.42,0,0,0,.22,0h.12A.48.48,0,0,0,219.61,131.77Z"/><path class="cls-11" d="M222.64,132.75a1.56,1.56,0,0,0-.25-.52,1.74,1.74,0,0,0-.11-.18v0c-.27-.57-1-.6-1.07-.14l0,.05a.69.69,0,0,0-.12.5,1,1,0,0,0,.36.64h0a.38.38,0,0,0,.12.09l.1.06a.71.71,0,0,0,.18.08.29.29,0,0,0,.1,0h0l.07,0a.52.52,0,0,0,.21,0h.13A.47.47,0,0,0,222.64,132.75Z"/><path class="cls-11" d="M203.62,129.47a2,2,0,0,0-.25-.53c0-.06-.07-.12-.11-.17v0c-.28-.57-1-.59-1.08-.13l0,0a.76.76,0,0,0-.12.5,1,1,0,0,0,.36.64h0l.12.08.1.06a.66.66,0,0,0,.19.09l.09,0h0a.11.11,0,0,0,.07,0,.42.42,0,0,0,.22,0h.12A.47.47,0,0,0,203.62,129.47Z"/><path class="cls-11" d="M206.37,130.36a1.56,1.56,0,0,0-.25-.52,1.74,1.74,0,0,0-.11-.18v0c-.27-.58-1-.6-1.07-.14l0,.05a.67.67,0,0,0-.12.49,1,1,0,0,0,.35.64h0l.12.09.1.06.18.08.09,0h0l.08,0a.75.75,0,0,0,.21,0h.13A.48.48,0,0,0,206.37,130.36Z"/><path class="cls-11" d="M209.41,131.35a2,2,0,0,0-.25-.53l-.11-.17v0c-.28-.58-1-.6-1.08-.14l0,0a.76.76,0,0,0-.12.5,1,1,0,0,0,.36.64h0l.12.08.1.06a.66.66,0,0,0,.19.09l.09,0h0l.07,0a.55.55,0,0,0,.22,0,.25.25,0,0,0,.12,0A.47.47,0,0,0,209.41,131.35Z"/><path class="cls-11" d="M212.58,132.38a2,2,0,0,0-.25-.53l-.12-.17v0c-.27-.57-1-.59-1.07-.13l0,0a.76.76,0,0,0-.12.5,1,1,0,0,0,.36.64h0l.12.08.1.06.18.09.1,0h0a.11.11,0,0,0,.07,0,.4.4,0,0,0,.21,0h.13A.48.48,0,0,0,212.58,132.38Z"/><path class="cls-11" d="M215.61,133.36a1.56,1.56,0,0,0-.25-.52,1.74,1.74,0,0,0-.11-.18v0c-.27-.57-1-.6-1.07-.14l0,.05a.69.69,0,0,0-.12.5,1,1,0,0,0,.36.64h0a.38.38,0,0,0,.12.09l.1.06a.58.58,0,0,0,.18.08l.09,0v0h0l.07,0a.5.5,0,0,0,.21,0h.13A.47.47,0,0,0,215.61,133.36Z"/><path class="cls-11" d="M218.37,134.26a2,2,0,0,0-.25-.53l-.12-.17v0c-.27-.58-1-.6-1.07-.14l0,0a.76.76,0,0,0-.12.5,1,1,0,0,0,.36.64h0l.12.08.1.06a.76.76,0,0,0,.18.09l.1,0h0l.07,0a.51.51,0,0,0,.21,0,.56.56,0,0,0,.13,0A.49.49,0,0,0,218.37,134.26Z"/><path class="cls-11" d="M221.4,135.24a1.56,1.56,0,0,0-.25-.52,1,1,0,0,0-.11-.17v0c-.27-.57-1-.59-1.07-.14l0,.05a.69.69,0,0,0-.12.5,1,1,0,0,0,.36.64h0l.12.08.1.06a.42.42,0,0,0,.18.08l.09,0h0a.15.15,0,0,0,.07,0,.38.38,0,0,0,.21,0h.13A.47.47,0,0,0,221.4,135.24Z"/><path class="cls-11" d="M201.82,131.78a1.71,1.71,0,0,0-.25-.53,1.63,1.63,0,0,0-.11-.17v0c-.27-.58-1-.6-1.07-.14l0,0a.71.71,0,0,0-.12.5,1,1,0,0,0,.36.64h0a.36.36,0,0,0,.12.08.33.33,0,0,0,.1.06l.18.09.1,0h0l.07,0a.5.5,0,0,0,.21,0h.13A.48.48,0,0,0,201.82,131.78Z"/><path class="cls-11" d="M204.86,132.76a1.78,1.78,0,0,0-.25-.52c0-.06-.07-.12-.11-.17v0c-.28-.57-1-.59-1.08-.14l0,0a.74.74,0,0,0-.12.5,1.07,1.07,0,0,0,.36.64h0l.12.08.1.06a.64.64,0,0,0,.19.08l.09,0h0l.07,0a.42.42,0,0,0,.22,0h.13A.48.48,0,0,0,204.86,132.76Z"/><path class="cls-11" d="M207.61,133.66a1.71,1.71,0,0,0-.25-.53l-.11-.17v0c-.27-.58-1-.6-1.07-.14l0,0a.67.67,0,0,0-.12.49,1,1,0,0,0,.36.64h0a.36.36,0,0,0,.12.08.33.33,0,0,0,.1.06l.18.09.1,0h0l.07,0a.75.75,0,0,0,.21,0h.13A.48.48,0,0,0,207.61,133.66Z"/><path class="cls-11" d="M210.65,134.65a2,2,0,0,0-.25-.53c0-.06-.07-.12-.11-.17v0c-.28-.57-1-.59-1.08-.13l0,0a.75.75,0,0,0-.12.5,1,1,0,0,0,.36.64h0l.12.08.1.06a.46.46,0,0,0,.19.08l.09,0h0l.07,0a.42.42,0,0,0,.22,0h.13A.47.47,0,0,0,210.65,134.65Z"/><path class="cls-11" d="M213.82,135.67a1.91,1.91,0,0,0-.25-.52l-.12-.17v0c-.27-.57-1-.59-1.07-.14l0,.05a.74.74,0,0,0-.12.5,1.07,1.07,0,0,0,.36.64h0l.12.08.1.06a.48.48,0,0,0,.18.08l.1,0h0l.07,0a.42.42,0,0,0,.22,0h.12A.49.49,0,0,0,213.82,135.67Z"/><path class="cls-11" d="M216.85,136.66a1.56,1.56,0,0,0-.25-.52,1.74,1.74,0,0,0-.11-.18v0c-.27-.58-1-.6-1.07-.14l0,0a.67.67,0,0,0-.12.49,1,1,0,0,0,.36.64h0l.12.09.1.06.18.08a.29.29,0,0,0,.1,0h0l.07,0a.52.52,0,0,0,.21,0h.13A.47.47,0,0,0,216.85,136.66Z"/><path class="cls-11" d="M219.61,137.56a2,2,0,0,0-.25-.53l-.12-.17v0c-.27-.57-1-.59-1.07-.13l0,0a.76.76,0,0,0-.12.5,1,1,0,0,0,.36.64h0l.12.08.1.06.18.09.1,0h0a.11.11,0,0,0,.07,0,.42.42,0,0,0,.22,0h.12A.48.48,0,0,0,219.61,137.56Z"/><path class="cls-11" d="M222.64,138.54a1.56,1.56,0,0,0-.25-.52,1.74,1.74,0,0,0-.11-.18v0c-.27-.57-1-.6-1.07-.14l0,0a.69.69,0,0,0-.12.5,1,1,0,0,0,.36.64h0a.38.38,0,0,0,.12.09l.1.06a.71.71,0,0,0,.18.08l.1,0,0,0h0l.07,0a.52.52,0,0,0,.21,0h.13A.47.47,0,0,0,222.64,138.54Z"/><path class="cls-11" d="M203.62,135.26a2,2,0,0,0-.25-.53c0-.06-.07-.12-.11-.17v0c-.28-.57-1-.59-1.08-.13l0,0a.76.76,0,0,0-.12.5,1,1,0,0,0,.36.64h0l.12.08.1.06a.66.66,0,0,0,.19.09l.09,0h0a.11.11,0,0,0,.07,0,.42.42,0,0,0,.22,0h.12A.47.47,0,0,0,203.62,135.26Z"/><path class="cls-11" d="M206.37,136.15a1.56,1.56,0,0,0-.25-.52,1.74,1.74,0,0,0-.11-.18v0c-.27-.58-1-.6-1.07-.14l0,.05a.67.67,0,0,0-.12.49,1,1,0,0,0,.35.64h0l.12.09.1.06.18.08.09,0h0l.08,0a.75.75,0,0,0,.21,0h.13A.48.48,0,0,0,206.37,136.15Z"/><path class="cls-11" d="M209.41,137.14a2,2,0,0,0-.25-.53l-.11-.17v0c-.28-.58-1-.6-1.08-.14l0,0a.76.76,0,0,0-.12.5,1,1,0,0,0,.36.64h0l.12.08.1.06a.66.66,0,0,0,.19.09l.09,0h0l.07,0a.55.55,0,0,0,.22,0h.12A.49.49,0,0,0,209.41,137.14Z"/><path class="cls-11" d="M212.58,138.17a2,2,0,0,0-.25-.53l-.12-.17v0c-.27-.57-1-.59-1.07-.13l0,0a.76.76,0,0,0-.12.5,1,1,0,0,0,.36.64h0l.12.08.1.06a.76.76,0,0,0,.18.09l.1,0h0a.11.11,0,0,0,.07,0,.4.4,0,0,0,.21,0h.13A.48.48,0,0,0,212.58,138.17Z"/><path class="cls-11" d="M215.61,139.15a1.56,1.56,0,0,0-.25-.52,1.74,1.74,0,0,0-.11-.18v0c-.27-.57-1-.6-1.07-.14l0,.05a.69.69,0,0,0-.12.5,1,1,0,0,0,.36.64h0a.38.38,0,0,0,.12.09l.1.06a.58.58,0,0,0,.18.08l.09,0v0s0,0,0,0h0l.07,0a.5.5,0,0,0,.21,0h.13A.47.47,0,0,0,215.61,139.15Z"/><path class="cls-11" d="M218.37,140.05a2,2,0,0,0-.25-.53l-.12-.17v0c-.27-.58-1-.6-1.07-.14l0,0a.76.76,0,0,0-.12.5,1,1,0,0,0,.36.64h0l.12.08.1.06.18.09.1,0h0l.07,0a.51.51,0,0,0,.21,0h.13A.49.49,0,0,0,218.37,140.05Z"/><path class="cls-11" d="M221.4,141a1.56,1.56,0,0,0-.25-.52,1,1,0,0,0-.11-.17v0c-.27-.57-1-.59-1.07-.14l0,.05a.69.69,0,0,0-.12.5,1,1,0,0,0,.36.64h0a.62.62,0,0,0,.12.08l.1.06a.42.42,0,0,0,.18.08l.09,0h0a.15.15,0,0,0,.07,0,.38.38,0,0,0,.21,0h.13A.47.47,0,0,0,221.4,141Z"/><path class="cls-11" d="M203.62,123.68a2,2,0,0,0-.25-.53c0-.06-.07-.12-.11-.17v0c-.28-.57-1-.59-1.08-.13l0,0a.76.76,0,0,0-.12.5,1,1,0,0,0,.36.64h0l.12.08.1.06a.66.66,0,0,0,.19.09l.09,0h0a.11.11,0,0,0,.07,0,.42.42,0,0,0,.22,0h.12A.47.47,0,0,0,203.62,123.68Z"/><path class="cls-11" d="M206.37,124.57a1.56,1.56,0,0,0-.25-.52,1.74,1.74,0,0,0-.11-.18v0c-.27-.58-1-.6-1.07-.14l0,.05a.67.67,0,0,0-.12.49,1,1,0,0,0,.35.64h0l.12.09.1.06.18.08.09,0h0l.08,0a.75.75,0,0,0,.21,0h.13A.48.48,0,0,0,206.37,124.57Z"/><path class="cls-11" d="M209.41,125.56a2,2,0,0,0-.25-.53l-.11-.17v0c-.28-.58-1-.6-1.08-.14l0,0a.76.76,0,0,0-.12.5,1,1,0,0,0,.36.64h0l.12.08.1.06a.66.66,0,0,0,.19.09l.09,0h0l.07,0a.55.55,0,0,0,.22,0,.25.25,0,0,0,.12,0A.47.47,0,0,0,209.41,125.56Z"/><path class="cls-11" d="M212.58,126.59a2,2,0,0,0-.25-.53l-.12-.17v0c-.27-.57-1-.59-1.07-.13l0,0a.76.76,0,0,0-.12.5,1,1,0,0,0,.36.64h0l.12.08.1.06.18.09.1,0h0a.11.11,0,0,0,.07,0,.4.4,0,0,0,.21,0h.13A.48.48,0,0,0,212.58,126.59Z"/><path class="cls-11" d="M215.61,127.57a1.56,1.56,0,0,0-.25-.52,1.74,1.74,0,0,0-.11-.18v0c-.27-.57-1-.6-1.07-.14l0,.05a.69.69,0,0,0-.12.5,1,1,0,0,0,.36.64h0a.38.38,0,0,0,.12.09l.1.06a.58.58,0,0,0,.18.08l.09,0v0h0l.07,0a.5.5,0,0,0,.21,0h.13A.47.47,0,0,0,215.61,127.57Z"/><path class="cls-11" d="M218.37,128.47a2,2,0,0,0-.25-.53l-.12-.17v0c-.27-.58-1-.6-1.07-.14l0,0a.76.76,0,0,0-.12.5,1,1,0,0,0,.36.64h0l.12.08.1.06.18.09.1,0h0l.07,0a.51.51,0,0,0,.21,0,.56.56,0,0,0,.13,0A.49.49,0,0,0,218.37,128.47Z"/><path class="cls-11" d="M221.4,129.45a1.56,1.56,0,0,0-.25-.52,1,1,0,0,0-.11-.17v0c-.27-.57-1-.59-1.07-.14l0,0a.69.69,0,0,0-.12.5,1,1,0,0,0,.36.64h0l.12.08.1.06a.58.58,0,0,0,.18.08l.09,0h0a.15.15,0,0,0,.07,0,.38.38,0,0,0,.21,0h.13A.47.47,0,0,0,221.4,129.45Z"/><path class="cls-11" d="M201.82,137.57a1.71,1.71,0,0,0-.25-.53,1.63,1.63,0,0,0-.11-.17v0c-.27-.58-1-.6-1.07-.14l0,0a.71.71,0,0,0-.12.5,1,1,0,0,0,.36.64h0a.36.36,0,0,0,.12.08.33.33,0,0,0,.1.06.76.76,0,0,0,.18.09l.1,0h0l.07,0a.5.5,0,0,0,.21,0,.57.57,0,0,0,.13,0A.48.48,0,0,0,201.82,137.57Z"/><path class="cls-11" d="M204.86,138.55a1.78,1.78,0,0,0-.25-.52c0-.06-.07-.12-.11-.17v0c-.28-.57-1-.59-1.08-.14l0,.05a.74.74,0,0,0-.12.5,1.07,1.07,0,0,0,.36.64h0l.12.08.1.06a.64.64,0,0,0,.19.08l.09,0h0l.07,0a.42.42,0,0,0,.22,0h.13A.48.48,0,0,0,204.86,138.55Z"/><path class="cls-11" d="M207.61,139.45a1.71,1.71,0,0,0-.25-.53l-.11-.17v0c-.27-.58-1-.6-1.07-.14l0,0a.67.67,0,0,0-.12.49,1,1,0,0,0,.36.64h0a.36.36,0,0,0,.12.08.33.33,0,0,0,.1.06.76.76,0,0,0,.18.09l.1,0h0l.07,0a.75.75,0,0,0,.21,0h.13A.48.48,0,0,0,207.61,139.45Z"/><path class="cls-11" d="M210.65,140.44a2,2,0,0,0-.25-.53c0-.06-.07-.12-.11-.17v0c-.28-.57-1-.59-1.08-.13l0,0a.75.75,0,0,0-.12.5,1,1,0,0,0,.36.64h0l.12.08.1.06a.46.46,0,0,0,.19.08l.09,0h0l.07,0a.42.42,0,0,0,.22,0h.13A.47.47,0,0,0,210.65,140.44Z"/><path class="cls-11" d="M213.82,141.46a1.91,1.91,0,0,0-.25-.52l-.12-.17v0c-.27-.57-1-.59-1.07-.14l0,.05a.74.74,0,0,0-.12.5,1.07,1.07,0,0,0,.36.64h0l.12.08.1.06a.48.48,0,0,0,.18.08l.1,0h0l.07,0a.42.42,0,0,0,.22,0h.12A.49.49,0,0,0,213.82,141.46Z"/><path class="cls-11" d="M216.85,142.45a1.56,1.56,0,0,0-.25-.52,1.74,1.74,0,0,0-.11-.18v0c-.27-.58-1-.6-1.07-.14l0,0a.67.67,0,0,0-.12.49,1,1,0,0,0,.36.64h0l.12.09.1.06.18.08a.29.29,0,0,0,.1,0h0l.07,0a.52.52,0,0,0,.21,0h.13A.47.47,0,0,0,216.85,142.45Z"/><path class="cls-11" d="M219.61,143.35a2,2,0,0,0-.25-.53l-.12-.17v0c-.27-.57-1-.59-1.07-.13l0,0a.76.76,0,0,0-.12.5,1,1,0,0,0,.36.64h0l.12.08.1.06a.76.76,0,0,0,.18.09l.1,0h0a.11.11,0,0,0,.07,0,.42.42,0,0,0,.22,0h.12A.48.48,0,0,0,219.61,143.35Z"/><path class="cls-11" d="M222.64,144.33a1.56,1.56,0,0,0-.25-.52,1.74,1.74,0,0,0-.11-.18v0c-.27-.57-1-.6-1.07-.14l0,.05a.69.69,0,0,0-.12.5,1,1,0,0,0,.36.64h0a.38.38,0,0,0,.12.09l.1.06a.71.71,0,0,0,.18.08l.1,0,0,0h0l.07,0a.52.52,0,0,0,.21,0h.13A.47.47,0,0,0,222.64,144.33Z"/><path class="cls-11" d="M203.62,141.05a2,2,0,0,0-.25-.53c0-.06-.07-.12-.11-.17v0c-.28-.57-1-.59-1.08-.13l0,0a.76.76,0,0,0-.12.5,1,1,0,0,0,.36.64h0l.12.08.1.06a.66.66,0,0,0,.19.09l.09,0h0a.11.11,0,0,0,.07,0,.42.42,0,0,0,.22,0h.12A.47.47,0,0,0,203.62,141.05Z"/><path class="cls-11" d="M206.37,141.94a1.56,1.56,0,0,0-.25-.52,1.74,1.74,0,0,0-.11-.18v0c-.27-.58-1-.6-1.07-.14l0,0a.67.67,0,0,0-.12.49,1,1,0,0,0,.35.64h0l.12.09.1.06.18.08.09,0h0l.08,0a.75.75,0,0,0,.21,0h.13A.48.48,0,0,0,206.37,141.94Z"/><path class="cls-11" d="M209.41,142.93a2,2,0,0,0-.25-.53l-.11-.17v0c-.28-.58-1-.6-1.08-.14l0,0a.76.76,0,0,0-.12.5,1,1,0,0,0,.36.64h0l.12.08.1.06a.66.66,0,0,0,.19.09l.09,0h0l.07,0a.55.55,0,0,0,.22,0h.12A.49.49,0,0,0,209.41,142.93Z"/><path class="cls-11" d="M212.58,144a2,2,0,0,0-.25-.53l-.12-.17v0c-.27-.57-1-.59-1.07-.13l0,0a.76.76,0,0,0-.12.5,1,1,0,0,0,.36.64h0l.12.08.1.06.18.09.1,0h0l.07,0a.51.51,0,0,0,.21,0h.13A.48.48,0,0,0,212.58,144Z"/><path class="cls-11" d="M215.61,144.94a1.56,1.56,0,0,0-.25-.52,1.74,1.74,0,0,0-.11-.18v0c-.27-.57-1-.6-1.07-.14l0,0a.69.69,0,0,0-.12.5,1,1,0,0,0,.36.64h0a.38.38,0,0,0,.12.09l.1.06a.58.58,0,0,0,.18.08l.09,0v0h0l.07,0a.38.38,0,0,0,.21,0h.13A.47.47,0,0,0,215.61,144.94Z"/><path class="cls-11" d="M218.37,145.84a2,2,0,0,0-.25-.53l-.12-.17v0c-.27-.58-1-.6-1.07-.14l0,0a.76.76,0,0,0-.12.5,1,1,0,0,0,.36.64h0l.12.08.1.06.18.09.1,0h0l.07,0a.51.51,0,0,0,.21,0h.13A.49.49,0,0,0,218.37,145.84Z"/><path class="cls-11" d="M221.4,146.82a1.66,1.66,0,0,0-.25-.52,1,1,0,0,0-.11-.17v0c-.27-.57-1-.59-1.07-.14l0,0a.69.69,0,0,0-.12.5,1,1,0,0,0,.36.64h0l.12.08.1.06a.42.42,0,0,0,.18.08l.09,0h0a.15.15,0,0,0,.07,0,.38.38,0,0,0,.21,0h.13A.47.47,0,0,0,221.4,146.82Z"/><path class="cls-11" d="M201.82,142.94a1.56,1.56,0,0,0-.25-.52,1,1,0,0,0-.11-.17v0c-.27-.57-1-.59-1.07-.14l0,0a.69.69,0,0,0-.12.5,1,1,0,0,0,.36.64h0l.12.08.1.06a.71.71,0,0,0,.18.08l.1,0h0a.15.15,0,0,0,.07,0,.38.38,0,0,0,.21,0h.13A.47.47,0,0,0,201.82,142.94Z"/><path class="cls-11" d="M204.86,143.93a1.78,1.78,0,0,0-.25-.52l-.11-.18v0c-.28-.58-1-.6-1.08-.14l0,.05a.72.72,0,0,0-.12.49,1,1,0,0,0,.36.64h0l.12.09.1.06.19.08.09,0h0l.07,0a.86.86,0,0,0,.22,0h.13A.49.49,0,0,0,204.86,143.93Z"/><path class="cls-11" d="M207.61,144.83a1.71,1.71,0,0,0-.25-.53,1,1,0,0,0-.11-.17v0c-.27-.57-1-.59-1.07-.13l0,0a.7.7,0,0,0-.12.5,1,1,0,0,0,.36.64h0a.36.36,0,0,0,.12.08l.1.06a.48.48,0,0,0,.18.08l.1,0h0a.09.09,0,0,0,.07,0,.38.38,0,0,0,.21,0h.13A.47.47,0,0,0,207.61,144.83Z"/><path class="cls-11" d="M210.65,145.81a1.78,1.78,0,0,0-.25-.52l-.11-.18v0c-.28-.58-1-.6-1.08-.14l0,.05a.74.74,0,0,0-.12.5,1,1,0,0,0,.36.63h0l.12.09.1.06a.64.64,0,0,0,.19.08l.09,0h0l.07,0a.57.57,0,0,0,.22,0h.13A.48.48,0,0,0,210.65,145.81Z"/><path class="cls-11" d="M213.82,146.84a1.78,1.78,0,0,0-.25-.52l-.12-.18v0c-.27-.58-1-.6-1.07-.14l0,.05a.72.72,0,0,0-.12.49,1,1,0,0,0,.36.64h0l.12.09.1.06.18.08.1,0h0l.07,0a.86.86,0,0,0,.22,0h.12A.49.49,0,0,0,213.82,146.84Z"/><path class="cls-11" d="M216.85,147.83a1.71,1.71,0,0,0-.25-.53,1.63,1.63,0,0,0-.11-.17v0c-.27-.58-1-.6-1.07-.14l0,0a.71.71,0,0,0-.12.5,1,1,0,0,0,.36.64h0a.36.36,0,0,0,.12.08.33.33,0,0,0,.1.06.76.76,0,0,0,.18.09l.1,0h0l.07,0a.5.5,0,0,0,.21,0h.13A.48.48,0,0,0,216.85,147.83Z"/><path class="cls-11" d="M219.61,148.72a1.78,1.78,0,0,0-.25-.52l-.12-.18v0c-.27-.57-1-.6-1.07-.14l0,0a.74.74,0,0,0-.12.5,1.07,1.07,0,0,0,.36.64h0a.94.94,0,0,0,.12.09l.1.06a.71.71,0,0,0,.18.08l.1,0h0l.07,0a.57.57,0,0,0,.22,0h.12A.49.49,0,0,0,219.61,148.72Z"/><path class="cls-11" d="M222.64,149.71a1.71,1.71,0,0,0-.25-.53l-.11-.17v0c-.27-.58-1-.6-1.07-.14l0,.05a.67.67,0,0,0-.12.49,1,1,0,0,0,.36.64h0a.36.36,0,0,0,.12.08.21.21,0,0,0,.1.06l.18.09.1,0h0l.07,0a.78.78,0,0,0,.21,0h.13A.48.48,0,0,0,222.64,149.71Z"/><path class="cls-11" d="M203.62,146.42a1.78,1.78,0,0,0-.25-.52l-.11-.18v0c-.28-.57-1-.6-1.08-.14l0,.05a.74.74,0,0,0-.12.5,1.07,1.07,0,0,0,.36.64h0l.12.09.1.06a.64.64,0,0,0,.19.08l.09,0,0,0h0l.07,0a.57.57,0,0,0,.22,0h.12A.48.48,0,0,0,203.62,146.42Z"/><path class="cls-11" d="M206.37,147.32a1.71,1.71,0,0,0-.25-.53,1.63,1.63,0,0,0-.11-.17v0c-.27-.58-1-.6-1.07-.14l0,0a.71.71,0,0,0-.12.5,1,1,0,0,0,.35.64h0a.36.36,0,0,0,.12.08.33.33,0,0,0,.1.06.61.61,0,0,0,.18.09l.09,0h0l.08,0a.5.5,0,0,0,.21,0,.29.29,0,0,0,.13,0A.47.47,0,0,0,206.37,147.32Z"/><path class="cls-11" d="M209.41,148.3a1.78,1.78,0,0,0-.25-.52l-.11-.18v0c-.28-.57-1-.59-1.08-.14l0,.05a.74.74,0,0,0-.12.5,1.07,1.07,0,0,0,.36.64h0l.12.09.1.06a.64.64,0,0,0,.19.08l.09,0h0l.07,0a.42.42,0,0,0,.22,0h.12A.48.48,0,0,0,209.41,148.3Z"/><path class="cls-11" d="M212.58,149.33a1.78,1.78,0,0,0-.25-.52l-.12-.18v0c-.27-.57-1-.6-1.07-.14l0,.05a.74.74,0,0,0-.12.5,1.07,1.07,0,0,0,.36.64h0l.12.09.1.06a.71.71,0,0,0,.18.08l.1,0,0,0h0l.07,0a.53.53,0,0,0,.21,0h.13A.49.49,0,0,0,212.58,149.33Z"/><path class="cls-11" d="M215.61,150.32a1.56,1.56,0,0,0-.25-.52,1.74,1.74,0,0,0-.11-.18v0c-.27-.58-1-.6-1.07-.14l0,0a.67.67,0,0,0-.12.49.94.94,0,0,0,.36.64h0a.36.36,0,0,0,.12.08l.1.07.18.08.09,0h0l.07,0a.75.75,0,0,0,.21,0h.13A.48.48,0,0,0,215.61,150.32Z"/><path class="cls-11" d="M218.37,151.21a1.78,1.78,0,0,0-.25-.52l-.12-.17v0c-.27-.57-1-.59-1.07-.14l0,.05a.74.74,0,0,0-.12.5,1.07,1.07,0,0,0,.36.64h0l.12.08.1.06a.71.71,0,0,0,.18.08l.1,0h0l.07,0a.4.4,0,0,0,.21,0h.13A.49.49,0,0,0,218.37,151.21Z"/><path class="cls-11" d="M221.4,152.2a1.56,1.56,0,0,0-.25-.52,1.74,1.74,0,0,0-.11-.18v0c-.27-.58-1-.6-1.07-.14l0,0a.67.67,0,0,0-.12.49,1,1,0,0,0,.36.64h0l.12.09.1.06.18.08.09,0h0l.07,0a.75.75,0,0,0,.21,0h.13A.48.48,0,0,0,221.4,152.2Z"/><polygon class="cls-11" points="205.85 113.18 204.07 112.63 201.6 113.47 201.6 117.45 203.64 119.63 205.85 120.33 205.85 113.18"/><polygon class="cls-11" points="206.54 113.4 206.54 120.55 216.9 123.83 216.9 116.62 206.54 113.4"/><polygon class="cls-11" points="219.11 117.31 217.59 116.83 217.59 124.05 219.45 124.64 221.85 123.24 221.85 119.81 219.11 117.31"/><ellipse class="cls-9" cx="211.96" cy="71.04" rx="4.32" ry="2.65"/><ellipse class="cls-9" cx="211.96" cy="61.42" rx="3.01" ry="1.85"/><polygon class="cls-9" points="208.95 61.42 207.64 71.04 216.28 71.04 214.97 61.42 208.95 61.42"/><ellipse class="cls-9" cx="228.54" cy="75.87" rx="4.32" ry="2.65"/><ellipse class="cls-9" cx="228.54" cy="33.3" rx="3.01" ry="1.85"/><polygon class="cls-9" points="225.53 33.3 224.22 75.87 232.85 75.87 231.55 33.3 225.53 33.3"/><path class="cls-11" d="M232.86,95.85v38.07s-.19,5.79,2.82,4.9a3.18,3.18,0,0,0,2.62-2.94c.94-2.22-.05-41.14-.05-41.14s.1-3.73-1.78-4.22-2.71,1.51-3.11,2.15A11,11,0,0,0,232.86,95.85Z"/><ellipse class="cls-9" cx="282.7" cy="138.88" rx="2.65" ry="4.32" transform="translate(-20.68 223.55) rotate(-41.76)"/><ellipse class="cls-9" cx="289.87" cy="132.48" rx="1.85" ry="3.01" transform="translate(-14.59 226.7) rotate(-41.76)"/><polygon class="cls-9" points="287.86 130.23 279.82 135.66 285.57 142.1 291.87 134.72 287.86 130.23"/><ellipse class="cls-9" cx="301.34" cy="147.21" rx="2.65" ry="4.32" transform="translate(-21.49 238.08) rotate(-41.76)"/><ellipse class="cls-9" cx="333.09" cy="118.86" rx="1.85" ry="3.01" transform="translate(5.46 252.03) rotate(-41.76)"/><polygon class="cls-9" points="331.09 116.62 298.46 143.99 304.21 150.43 335.1 121.11 331.09 116.62"/><path class="cls-3" d="M238.34,165.63s-10.56,5.9-11.19,8.49-2.61,14.42,0,17.72,30.45,12.64,33.42,10.72,45.31-40.49,46.24-43.83.87-19.55.87-19.55L251.23,162.1Z"/><path class="cls-6" d="M275.26,132.66c-2.08.56-48.22,38.84-48.11,41.46.16,3.56,27.43,10.67,34.3,9s47.38-41.61,46.23-44S278.28,131.86,275.26,132.66Z"/><path class="cls-10" d="M297.65,141.59l-20.82-4.08a6.59,6.59,0,0,1-1.06.27L263.19,148a6,6,0,0,1,.2.69l22.66,5.09.82-.28.31-.09,10.63-11C297.75,142.14,297.7,141.85,297.65,141.59Z"/><path class="cls-11" d="M296.3,156.91l-27.39,26.44s-4.3,3.88-1.57,5.42a3.17,3.17,0,0,0,3.94-.14c2.25-.87,29.57-28.61,29.57-28.61s2.75-2.51,1.81-4.21-3-.9-3.72-.75A11.46,11.46,0,0,0,296.3,156.91Z"/><polygon class="cls-11" points="277.14 155.22 278.91 155.72 279.98 157.82 277.04 160.5 274.41 161.38 271.53 160.57 277.14 155.22"/><polygon class="cls-11" points="276.46 155.02 270.77 160.33 259.89 157.72 266.16 152.51 276.46 155.02"/><polygon class="cls-11" points="262.52 151.66 265.09 152.25 259.2 157.52 257.42 156.89 256.99 154.91 260.36 151.94 262.52 151.66"/><path class="cls-11" d="M270.78,167.62l.11.08a.47.47,0,0,0,.2.1l.08,0h0l.1,0,.22,0h.31a1.33,1.33,0,0,0,.77-.25.56.56,0,0,0,.25-.4.07.07,0,0,1,0-.05c.27-.35-.39-.74-1-.49h0l-.22.06a2.07,2.07,0,0,0-.59.23C270.68,167.2,270.61,167.44,270.78,167.62Z"/><path class="cls-11" d="M267.44,166.66l.1.07a1,1,0,0,0,.2.11h.09l.11,0a.78.78,0,0,0,.22,0l.13,0a.86.86,0,0,0,.16,0h0a1.43,1.43,0,0,0,.77-.24.65.65,0,0,0,.25-.41v-.05c.28-.35-.38-.74-1-.49h0l-.22.06a2.27,2.27,0,0,0-.6.23C267.34,166.23,267.27,166.48,267.44,166.66Z"/><path class="cls-11" d="M264.41,165.78l.1.08.2.1.09,0h0l.11,0,.22,0h.31a1.44,1.44,0,0,0,.77-.25.65.65,0,0,0,.25-.41v0c.28-.34-.38-.73-1-.48h0l-.23.06a2.58,2.58,0,0,0-.59.22C264.31,165.35,264.24,165.6,264.41,165.78Z"/><path class="cls-11" d="M261.07,164.81a.39.39,0,0,0,.1.08.54.54,0,0,0,.2.1l.08,0h0l.11,0,.22,0h.31a1.3,1.3,0,0,0,.76-.25.56.56,0,0,0,.25-.4.11.11,0,0,0,0-.05c.28-.35-.38-.74-1-.49h0l-.22.06a2.2,2.2,0,0,0-.59.23C261,164.39,260.89,164.63,261.07,164.81Z"/><path class="cls-11" d="M257.58,163.81l.1.07a.82.82,0,0,0,.21.11H258l.11,0a.78.78,0,0,0,.22,0h.31a1.43,1.43,0,0,0,.77-.24.65.65,0,0,0,.25-.41v0c.28-.35-.38-.74-1-.49h0l-.22.06a2.27,2.27,0,0,0-.6.23C257.48,163.38,257.41,163.63,257.58,163.81Z"/><path class="cls-11" d="M254.24,162.84l.1.08a.93.93,0,0,0,.2.1l.09,0h0l.11,0a.79.79,0,0,0,.22.05h.31a1.44,1.44,0,0,0,.77-.25.65.65,0,0,0,.25-.41v0c.28-.35-.38-.73-1-.48h0a2,2,0,0,0-.23.06,2.58,2.58,0,0,0-.59.22C254.14,162.41,254.07,162.66,254.24,162.84Z"/><path class="cls-11" d="M251.21,162a.39.39,0,0,0,.1.08.63.63,0,0,0,.2.1l.09,0h0l.11,0,.22,0h.31A1.36,1.36,0,0,0,253,162a.63.63,0,0,0,.25-.4v-.05c.28-.35-.38-.74-1-.49h0l-.23.06a2.2,2.2,0,0,0-.59.23C251.11,161.54,251,161.78,251.21,162Z"/><path class="cls-11" d="M247.87,161a.26.26,0,0,0,.1.07.75.75,0,0,0,.2.11h.09l.11,0a.71.71,0,0,0,.21,0h.13a.49.49,0,0,0,.17,0h0a1.41,1.41,0,0,0,.77-.24.58.58,0,0,0,.25-.41.09.09,0,0,0,0,0c.28-.35-.38-.74-1-.49h0l-.22.06a2.07,2.07,0,0,0-.59.23C247.77,160.57,247.69,160.82,247.87,161Z"/><path class="cls-11" d="M266.74,169.05l.1.07a.64.64,0,0,0,.2.11l.09,0h0a.2.2,0,0,0,.11,0,.79.79,0,0,0,.22.05h.31a1.44,1.44,0,0,0,.77-.25.65.65,0,0,0,.25-.41v-.05c.28-.35-.38-.73-1-.48h0a1,1,0,0,0-.23.06,2.58,2.58,0,0,0-.59.22C266.64,168.62,266.57,168.87,266.74,169.05Z"/><path class="cls-11" d="M263.71,168.17l.1.08a.54.54,0,0,0,.2.1l.09,0h0l.11,0,.22,0h.31a1.3,1.3,0,0,0,.76-.25.63.63,0,0,0,.26-.4v0c.28-.35-.38-.74-1-.49h0l-.23.06a2.58,2.58,0,0,0-.59.22C263.61,167.75,263.54,168,263.71,168.17Z"/><path class="cls-11" d="M260.37,167.21a.26.26,0,0,0,.1.07.75.75,0,0,0,.2.11h.09l.11,0a.71.71,0,0,0,.21,0h.31a1.41,1.41,0,0,0,.77-.24.58.58,0,0,0,.25-.41.09.09,0,0,0,0,0c.28-.35-.38-.74-1-.49h0l-.22.06a2.07,2.07,0,0,0-.59.23C260.27,166.78,260.19,167,260.37,167.21Z"/><path class="cls-11" d="M256.88,166.2l.1.07a1,1,0,0,0,.2.11h.09l.11,0a.78.78,0,0,0,.22,0l.13,0h.18a1.35,1.35,0,0,0,.77-.24.65.65,0,0,0,.25-.41v-.05c.28-.35-.38-.73-1-.49h0l-.22.06a2.67,2.67,0,0,0-.6.23C256.78,165.77,256.71,166,256.88,166.2Z"/><path class="cls-11" d="M253.54,165.23l.1.08a.54.54,0,0,0,.2.1l.09,0h0l.11,0,.22,0h.31a1.38,1.38,0,0,0,.76-.25.58.58,0,0,0,.25-.41.07.07,0,0,0,0-.05c.28-.34-.38-.73-1-.48h0l-.23.06a2.58,2.58,0,0,0-.59.22C253.44,164.8,253.37,165.05,253.54,165.23Z"/><path class="cls-11" d="M250.51,164.36a.26.26,0,0,0,.1.07.75.75,0,0,0,.2.11h.09l.11,0a.72.72,0,0,0,.22,0h.3a1.38,1.38,0,0,0,.77-.24.58.58,0,0,0,.25-.41.09.09,0,0,0,0-.05c.28-.35-.38-.74-1-.49h0l-.22.06a2.2,2.2,0,0,0-.59.23C250.41,163.93,250.33,164.18,250.51,164.36Z"/><path class="cls-11" d="M247.16,163.39a.41.41,0,0,0,.11.07.48.48,0,0,0,.2.11l.08,0h0a.19.19,0,0,0,.1,0,.79.79,0,0,0,.22,0h.31a1.41,1.41,0,0,0,.77-.25.58.58,0,0,0,.25-.41.43.43,0,0,0,0-.05c.27-.35-.38-.73-1-.48h0a.9.9,0,0,0-.22.06,2.41,2.41,0,0,0-.59.22C247.06,163,247,163.21,247.16,163.39Z"/><path class="cls-11" d="M266.65,171.62l.1.07a.75.75,0,0,0,.2.11H267l.11,0a.78.78,0,0,0,.22,0l.13,0h.18a1.3,1.3,0,0,0,.76-.24.63.63,0,0,0,.26-.41v0c.28-.35-.38-.73-1-.49h0l-.23.06a2.2,2.2,0,0,0-.59.23C266.55,171.19,266.48,171.44,266.65,171.62Z"/><path class="cls-11" d="M263.31,170.65a.44.44,0,0,0,.1.08.54.54,0,0,0,.2.1l.08,0h0l.11,0,.21,0h.31a1.41,1.41,0,0,0,.77-.25.58.58,0,0,0,.25-.41.07.07,0,0,0,0,0c.28-.34-.38-.73-1-.48h0l-.22.06a2.41,2.41,0,0,0-.59.22C263.21,170.22,263.13,170.47,263.31,170.65Z"/><path class="cls-11" d="M260.27,169.78l.11.07a.75.75,0,0,0,.2.11h.09l.1,0a.85.85,0,0,0,.22,0h.31a1.33,1.33,0,0,0,.77-.25.54.54,0,0,0,.25-.4.11.11,0,0,0,0,0c.27-.35-.38-.74-1-.49h0l-.22.06a2.07,2.07,0,0,0-.59.23C260.17,169.35,260.1,169.6,260.27,169.78Z"/><path class="cls-11" d="M256.93,168.81a.41.41,0,0,0,.11.07.48.48,0,0,0,.2.11h.09a.38.38,0,0,0,.1,0l.22.05h.13a.85.85,0,0,0,.16,0h0a1.33,1.33,0,0,0,.77-.24.58.58,0,0,0,.25-.41.09.09,0,0,1,0,0c.27-.35-.39-.73-1-.49l0,0-.22,0a2.42,2.42,0,0,0-.59.23C256.83,168.38,256.76,168.63,256.93,168.81Z"/><path class="cls-11" d="M253.45,167.8l.1.08a.75.75,0,0,0,.2.1l.08,0h0l.11,0,.22,0h.3a1.38,1.38,0,0,0,.77-.25.58.58,0,0,0,.25-.41.07.07,0,0,0,0-.05c.28-.34-.38-.73-1-.48h0l-.22.06a2.58,2.58,0,0,0-.59.22C253.35,167.37,253.27,167.62,253.45,167.8Z"/><path class="cls-11" d="M250.1,166.83l.11.08a.47.47,0,0,0,.2.1l.08,0h0l.1,0,.22,0h.31a1.33,1.33,0,0,0,.77-.25.56.56,0,0,0,.25-.4.43.43,0,0,1,0,0c.27-.35-.38-.74-1-.49h0l-.22.06a2.07,2.07,0,0,0-.59.23C250,166.41,249.93,166.65,250.1,166.83Z"/><path class="cls-11" d="M247.07,166a.41.41,0,0,0,.11.07.62.62,0,0,0,.2.11h.09l.1,0a.78.78,0,0,0,.22,0l.13,0h.18a1.33,1.33,0,0,0,.77-.24.58.58,0,0,0,.25-.41.09.09,0,0,1,0,0c.27-.35-.38-.73-1-.49h0l-.22.06a2.07,2.07,0,0,0-.59.23C247,165.53,246.9,165.78,247.07,166Z"/><path class="cls-11" d="M243.73,165l.1.08a.59.59,0,0,0,.21.1l.08,0h0l.11,0,.22,0h.31a1.41,1.41,0,0,0,.77-.25.65.65,0,0,0,.25-.41v0c.28-.34-.38-.73-1-.48h0l-.22.06a2.66,2.66,0,0,0-.6.22C243.63,164.56,243.56,164.81,243.73,165Z"/><path class="cls-11" d="M262.6,173l.11.08a.47.47,0,0,0,.2.1l.08,0h0l.1,0,.22,0h.31a1.33,1.33,0,0,0,.77-.25.56.56,0,0,0,.25-.4.07.07,0,0,1,0-.05c.27-.35-.38-.74-1-.49h0l-.22.06a2.07,2.07,0,0,0-.59.23C262.5,172.62,262.43,172.86,262.6,173Z"/><path class="cls-11" d="M259.57,172.17a.41.41,0,0,0,.11.07.62.62,0,0,0,.2.11H260l.1,0a.78.78,0,0,0,.22,0l.13,0h.18a1.33,1.33,0,0,0,.77-.24.58.58,0,0,0,.25-.41.09.09,0,0,1,0-.05c.27-.35-.39-.74-1-.49h0l-.22.06a2.07,2.07,0,0,0-.59.23C259.47,171.74,259.4,172,259.57,172.17Z"/><path class="cls-11" d="M256.23,171.2l.1.08a.82.82,0,0,0,.21.1l.08,0h0l.11,0,.22,0h.31a1.44,1.44,0,0,0,.77-.25.65.65,0,0,0,.25-.41v-.05c.28-.34-.38-.73-1-.48h0l-.22.06a2.66,2.66,0,0,0-.6.22C256.13,170.77,256.06,171,256.23,171.2Z"/><path class="cls-11" d="M252.75,170.19a.44.44,0,0,0,.1.08.54.54,0,0,0,.2.1l.08,0h0l.11,0,.21,0h.31a1.33,1.33,0,0,0,.77-.25.58.58,0,0,0,.25-.4.11.11,0,0,0,0-.05c.27-.35-.38-.74-1-.49h0l-.22.06a2.41,2.41,0,0,0-.59.22C252.65,169.77,252.57,170,252.75,170.19Z"/><path class="cls-11" d="M249.4,169.23a.41.41,0,0,0,.11.07.62.62,0,0,0,.2.11h.09l.1,0a.78.78,0,0,0,.22,0h.31a1.41,1.41,0,0,0,.77-.24.58.58,0,0,0,.25-.41.09.09,0,0,1,0-.05c.27-.35-.39-.74-1-.49h0l-.22.06a2.07,2.07,0,0,0-.59.23C249.3,168.8,249.23,169.05,249.4,169.23Z"/><path class="cls-11" d="M246.37,168.35l.11.08a.62.62,0,0,0,.2.1l.08,0h0l.1,0a.79.79,0,0,0,.22,0h.31a1.41,1.41,0,0,0,.77-.25.58.58,0,0,0,.25-.41.11.11,0,0,1,0-.05c.27-.35-.39-.73-1-.48h0l-.22.06a2.41,2.41,0,0,0-.59.22C246.27,167.92,246.2,168.17,246.37,168.35Z"/><path class="cls-11" d="M243,167.38l.1.08a.63.63,0,0,0,.2.1l.09,0h0l.11,0,.22,0h.31a1.36,1.36,0,0,0,.77-.25.63.63,0,0,0,.25-.4V167c.28-.35-.38-.74-1-.49h0l-.22.06a2.27,2.27,0,0,0-.6.23C242.93,167,242.86,167.2,243,167.38Z"/><path class="cls-11" d="M270.87,165.05l.11.08a.47.47,0,0,0,.2.1l.08,0h0l.1,0a.78.78,0,0,0,.22,0h.31a1.33,1.33,0,0,0,.77-.25.56.56,0,0,0,.25-.4.07.07,0,0,1,0,0c.27-.35-.39-.74-1-.49h0l-.22.06a2.07,2.07,0,0,0-.59.23C270.77,164.63,270.7,164.87,270.87,165.05Z"/><path class="cls-11" d="M267.84,164.18a.41.41,0,0,0,.11.07.62.62,0,0,0,.2.11h.09a.38.38,0,0,0,.1,0,.78.78,0,0,0,.22,0l.13,0h.18a1.33,1.33,0,0,0,.77-.24.58.58,0,0,0,.25-.41.09.09,0,0,1,0,0c.27-.35-.39-.73-1-.49h0l-.22.06a2.42,2.42,0,0,0-.59.23C267.74,163.75,267.67,164,267.84,164.18Z"/><path class="cls-11" d="M264.5,163.21l.1.08a.63.63,0,0,0,.2.1l.09,0h0l.11,0,.22,0h.31a1.44,1.44,0,0,0,.77-.25.65.65,0,0,0,.25-.41v0c.28-.34-.38-.73-1-.48h0l-.22.06a2.66,2.66,0,0,0-.6.22C264.4,162.78,264.33,163,264.5,163.21Z"/><path class="cls-11" d="M261,162.2l.11.08a.47.47,0,0,0,.2.1l.08,0h0l.1,0,.22,0H262a1.33,1.33,0,0,0,.77-.25.56.56,0,0,0,.25-.4.43.43,0,0,1,0,0c.27-.35-.38-.74-1-.49h0l-.22.06a2.07,2.07,0,0,0-.59.23C260.91,161.78,260.84,162,261,162.2Z"/><path class="cls-11" d="M257.67,161.24a.41.41,0,0,0,.11.07.62.62,0,0,0,.2.11h.08l.11,0a.78.78,0,0,0,.22,0l.13,0h.18a1.33,1.33,0,0,0,.77-.24.61.61,0,0,0,.25-.41v0c.28-.35-.38-.73-1-.49h0l-.22.06a2.27,2.27,0,0,0-.6.23C257.57,160.81,257.5,161.06,257.67,161.24Z"/><path class="cls-11" d="M254.64,160.36l.1.08a.82.82,0,0,0,.21.1l.08,0h0l.11,0,.22,0h.31a1.44,1.44,0,0,0,.77-.25.65.65,0,0,0,.25-.41V160c.28-.34-.38-.73-1-.48h0l-.22.06a2.66,2.66,0,0,0-.6.22C254.54,159.93,254.47,160.18,254.64,160.36Z"/><path class="cls-11" d="M251.3,159.39l.1.08a.63.63,0,0,0,.2.1l.09,0h0l.11,0a.78.78,0,0,0,.22,0h.31a1.36,1.36,0,0,0,.77-.25.63.63,0,0,0,.25-.4v0c.28-.35-.38-.74-1-.49h0l-.23.06a2.2,2.2,0,0,0-.59.23C251.2,159,251.13,159.21,251.3,159.39Z"/><path class="cls-11" d="M262.51,175.61l.11.08a.47.47,0,0,0,.2.1l.08,0h0l.1,0,.22,0h.31a1.41,1.41,0,0,0,.77-.25.58.58,0,0,0,.25-.41.06.06,0,0,1,0,0c.27-.35-.39-.74-1-.49h0l-.22.06a2.41,2.41,0,0,0-.59.22C262.41,175.19,262.34,175.43,262.51,175.61Z"/><path class="cls-11" d="M259.17,174.65l.1.07a.82.82,0,0,0,.21.11h.08l.11,0a.78.78,0,0,0,.22,0h.31a1.43,1.43,0,0,0,.77-.24.65.65,0,0,0,.25-.41v0c.28-.35-.38-.74-1-.49h0l-.22.06a2.27,2.27,0,0,0-.6.23C259.07,174.22,259,174.47,259.17,174.65Z"/><path class="cls-11" d="M256.14,173.77l.1.07a.64.64,0,0,0,.2.11l.09,0h0l.11,0a.79.79,0,0,0,.22.05h.31a1.44,1.44,0,0,0,.77-.25.65.65,0,0,0,.25-.41v0c.28-.35-.38-.73-1-.48h0a1.41,1.41,0,0,0-.22.06,2.66,2.66,0,0,0-.6.22C256,173.34,256,173.59,256.14,173.77Z"/><path class="cls-11" d="M252.8,172.8a.39.39,0,0,0,.1.08.54.54,0,0,0,.2.1l.09,0h0l.11,0,.22,0h.31a1.3,1.3,0,0,0,.76-.25.61.61,0,0,0,.26-.4v0c.28-.35-.38-.74-1-.49h0l-.23.06a2.58,2.58,0,0,0-.59.22C252.7,172.38,252.63,172.62,252.8,172.8Z"/><path class="cls-11" d="M249.31,171.8l.11.07a.62.62,0,0,0,.2.11h.09l.1,0a.78.78,0,0,0,.22,0h.31a1.33,1.33,0,0,0,.77-.25.54.54,0,0,0,.25-.4.07.07,0,0,1,0-.05c.27-.35-.39-.74-1-.49h0l-.22.06a2.07,2.07,0,0,0-.59.23C249.21,171.37,249.14,171.62,249.31,171.8Z"/><path class="cls-11" d="M246,170.83l.1.07a.64.64,0,0,0,.2.11h.09l.11,0,.22.05H247a1.35,1.35,0,0,0,.77-.24.65.65,0,0,0,.25-.41v-.05c.28-.35-.38-.73-1-.49l0,0-.22.05a2.67,2.67,0,0,0-.6.23C245.87,170.4,245.8,170.65,246,170.83Z"/><path class="cls-11" d="M242.94,170l.1.08a.63.63,0,0,0,.2.1l.09,0h0l.11,0,.22,0H244a1.44,1.44,0,0,0,.77-.25.65.65,0,0,0,.25-.41v0c.28-.35-.38-.74-1-.49h0l-.23.06a2.58,2.58,0,0,0-.59.22C242.84,169.53,242.77,169.77,242.94,170Z"/><path class="cls-11" d="M239.6,169l.1.07a.75.75,0,0,0,.2.11H240l.11,0a.72.72,0,0,0,.22,0h.31a1.37,1.37,0,0,0,.76-.24.58.58,0,0,0,.25-.41.09.09,0,0,0,0,0c.28-.35-.38-.74-1-.49h0l-.22.06a2.2,2.2,0,0,0-.59.23C239.5,168.56,239.42,168.81,239.6,169Z"/><path class="cls-11" d="M258.47,177l.1.07a1,1,0,0,0,.2.11h.09l.11,0a.78.78,0,0,0,.22,0l.13,0h.18a1.35,1.35,0,0,0,.77-.24.65.65,0,0,0,.25-.41v-.05c.28-.35-.38-.73-1-.49h0l-.23.06a2.2,2.2,0,0,0-.59.23C258.37,176.61,258.3,176.86,258.47,177Z"/><path class="cls-11" d="M255.44,176.16l.1.08a.63.63,0,0,0,.2.1l.09,0h0l.11,0,.22,0h.31a1.44,1.44,0,0,0,.77-.25.65.65,0,0,0,.25-.41v-.05c.28-.34-.38-.73-1-.48h0l-.23.06a2.58,2.58,0,0,0-.59.22C255.34,175.73,255.27,176,255.44,176.16Z"/><path class="cls-11" d="M252.1,175.2l.1.07a.75.75,0,0,0,.2.11h.09l.11,0a.72.72,0,0,0,.22,0h.3a1.33,1.33,0,0,0,.77-.25.54.54,0,0,0,.25-.4.11.11,0,0,0,0-.05c.28-.35-.38-.74-1-.49h0l-.22.06a2.07,2.07,0,0,0-.59.23C252,174.77,251.92,175,252.1,175.2Z"/><path class="cls-11" d="M248.61,174.19l.1.07a.82.82,0,0,0,.21.11H249l.11,0a.78.78,0,0,0,.22,0l.13,0a.86.86,0,0,0,.16,0h0a1.35,1.35,0,0,0,.77-.24.65.65,0,0,0,.25-.41v-.05c.28-.35-.38-.74-1-.49h0l-.22.06a2.27,2.27,0,0,0-.6.23C248.51,173.76,248.44,174,248.61,174.19Z"/><path class="cls-11" d="M245.27,173.22l.1.08.2.1.09,0h0l.11,0,.22,0h.31a1.44,1.44,0,0,0,.77-.25.65.65,0,0,0,.25-.41v-.05c.28-.34-.38-.73-1-.48h0l-.23.06a2.58,2.58,0,0,0-.59.22C245.17,172.79,245.1,173,245.27,173.22Z"/><path class="cls-11" d="M242.24,172.34a.39.39,0,0,0,.1.08.54.54,0,0,0,.2.1l.09,0h0l.11,0,.22,0h.31a1.3,1.3,0,0,0,.76-.25.61.61,0,0,0,.26-.4v-.05c.28-.35-.38-.74-1-.49h0l-.23.06a2.2,2.2,0,0,0-.59.23C242.14,171.92,242.07,172.16,242.24,172.34Z"/><path class="cls-11" d="M238.9,171.38a.26.26,0,0,0,.1.07.75.75,0,0,0,.2.11h.09l.11,0a.71.71,0,0,0,.21,0l.13,0a1,1,0,0,0,.17,0h0a1.33,1.33,0,0,0,.77-.24.58.58,0,0,0,.25-.41.09.09,0,0,0,0-.05c.28-.35-.38-.73-1-.49h0l-.22.06a2.07,2.07,0,0,0-.59.23C238.8,171,238.72,171.2,238.9,171.38Z"/><path class="cls-11" d="M258.67,179.32l.11.08a.47.47,0,0,0,.2.1l.08,0h0l.1,0,.22,0h.31a1.41,1.41,0,0,0,.77-.25.58.58,0,0,0,.25-.41.43.43,0,0,0,0-.05c.27-.34-.38-.73-1-.48h0l-.22.06a2.41,2.41,0,0,0-.59.22C258.57,178.89,258.5,179.14,258.67,179.32Z"/><path class="cls-11" d="M255.33,178.36l.11.07a.47.47,0,0,0,.2.1l.08,0h0l.11,0a.78.78,0,0,0,.22,0h.31a1.33,1.33,0,0,0,.77-.25.59.59,0,0,0,.25-.4V178c.28-.35-.38-.74-1-.49h0l-.22.06a2.27,2.27,0,0,0-.6.23C255.23,177.93,255.16,178.18,255.33,178.36Z"/><path class="cls-11" d="M252.3,177.48l.1.07a.6.6,0,0,0,.21.11h.08l.11,0,.22,0h.31a1.35,1.35,0,0,0,.77-.24.65.65,0,0,0,.25-.41v-.05c.28-.35-.38-.73-1-.49l0,0-.22.05a2.67,2.67,0,0,0-.6.23C252.2,177.05,252.13,177.3,252.3,177.48Z"/><path class="cls-11" d="M249,176.51l.1.08a.63.63,0,0,0,.2.1l.09,0h0l.11,0,.22,0H250a1.44,1.44,0,0,0,.77-.25.65.65,0,0,0,.25-.41v0c.28-.35-.38-.74-1-.49h0l-.23.06a2.58,2.58,0,0,0-.59.22C248.86,176.08,248.79,176.33,249,176.51Z"/><path class="cls-11" d="M245.47,175.5l.11.08a.47.47,0,0,0,.2.1l.08,0h0l.1,0,.22,0h.31a1.33,1.33,0,0,0,.77-.25.56.56,0,0,0,.25-.4.07.07,0,0,1,0-.05c.27-.35-.39-.74-1-.49h0l-.22.06a2.07,2.07,0,0,0-.59.23C245.37,175.08,245.3,175.32,245.47,175.5Z"/><path class="cls-11" d="M242.13,174.54l.1.07a.82.82,0,0,0,.21.11h.08l.11,0a.78.78,0,0,0,.22,0l.13,0h.18a1.35,1.35,0,0,0,.77-.24.65.65,0,0,0,.25-.41v-.05c.28-.35-.38-.73-1-.49h0l-.22.06a2.27,2.27,0,0,0-.6.23C242,174.11,242,174.36,242.13,174.54Z"/><path class="cls-11" d="M239.1,173.66l.1.08a.63.63,0,0,0,.2.1l.09,0h0l.11,0,.22,0h.31a1.44,1.44,0,0,0,.77-.25.65.65,0,0,0,.25-.41v-.05c.28-.34-.38-.73-1-.48h0l-.22.06a2.66,2.66,0,0,0-.6.22C239,173.23,238.93,173.48,239.1,173.66Z"/><path class="cls-11" d="M235.76,172.7l.1.07a.54.54,0,0,0,.2.1l.09,0h0l.11,0a.78.78,0,0,0,.22,0h.31a1.3,1.3,0,0,0,.76-.25.61.61,0,0,0,.26-.4v-.05c.28-.35-.38-.74-1-.49h0l-.23.06a2.2,2.2,0,0,0-.59.23C235.66,172.27,235.59,172.52,235.76,172.7Z"/><path class="cls-11" d="M254.63,180.75l.1.07a1,1,0,0,0,.2.11H255l.11,0a.78.78,0,0,0,.22,0l.13,0a.86.86,0,0,0,.16,0h0a1.43,1.43,0,0,0,.77-.24.65.65,0,0,0,.25-.41v0c.28-.35-.38-.74-1-.49h0l-.22.06a2.27,2.27,0,0,0-.6.23C254.53,180.32,254.46,180.57,254.63,180.75Z"/><path class="cls-11" d="M251.6,179.87l.1.08a.93.93,0,0,0,.2.1l.09,0h0l.11,0,.22,0h.31a1.44,1.44,0,0,0,.77-.25.65.65,0,0,0,.25-.41v0c.28-.34-.38-.73-1-.48h0l-.23.06a2.58,2.58,0,0,0-.59.22C251.5,179.44,251.43,179.69,251.6,179.87Z"/><path class="cls-11" d="M248.26,178.9a.39.39,0,0,0,.1.08.54.54,0,0,0,.2.1l.09,0h0l.11,0,.22,0h.31a1.3,1.3,0,0,0,.76-.25.56.56,0,0,0,.25-.4.11.11,0,0,0,0-.05c.28-.35-.38-.74-1-.49h0l-.23.06a2.2,2.2,0,0,0-.59.23C248.16,178.48,248.08,178.72,248.26,178.9Z"/><path class="cls-11" d="M244.77,177.9l.1.07a.82.82,0,0,0,.21.11h.08l.11,0a.78.78,0,0,0,.22,0h.31a1.41,1.41,0,0,0,.77-.24.65.65,0,0,0,.25-.41v0c.28-.35-.38-.74-1-.49h0l-.22.06a2.27,2.27,0,0,0-.6.23C244.67,177.47,244.6,177.72,244.77,177.9Z"/><path class="cls-11" d="M241.43,176.93l.1.08a.93.93,0,0,0,.2.1l.09,0h0l.11,0a.79.79,0,0,0,.22.05h.31a1.44,1.44,0,0,0,.77-.25.65.65,0,0,0,.25-.41v0c.28-.35-.38-.73-1-.48h0a2,2,0,0,0-.23.06,2.58,2.58,0,0,0-.59.22C241.33,176.5,241.26,176.75,241.43,176.93Z"/><path class="cls-11" d="M238.4,176.05l.1.08a.63.63,0,0,0,.2.1l.09,0h0l.11,0,.22,0h.31a1.36,1.36,0,0,0,.77-.25.63.63,0,0,0,.25-.4v0c.28-.35-.38-.74-1-.49h0l-.23.06a2.2,2.2,0,0,0-.59.23C238.3,175.63,238.23,175.87,238.4,176.05Z"/><path class="cls-11" d="M235.06,175.09a.26.26,0,0,0,.1.07.75.75,0,0,0,.2.11h.09l.11,0a.71.71,0,0,0,.21,0l.13,0h.18a1.41,1.41,0,0,0,.77-.24.58.58,0,0,0,.25-.41.09.09,0,0,0,0,0c.28-.35-.38-.74-1-.49h0l-.22.06a2.07,2.07,0,0,0-.59.23C235,174.66,234.88,174.91,235.06,175.09Z"/></g><g id="Layer_13" data-name="Layer 13"><path class="cls-5" d="M253.07,69.34h13.35c.17-2.27.82-6.61,3.35-9.3a2.29,2.29,0,0,0-3.33-3.13c-2.72,2.9-3.85,6.88-4.32,9.87a87.33,87.33,0,0,0-.22-9.54,2.28,2.28,0,0,0-4.53.58,93.71,93.71,0,0,1,.18,9.78c-.23-3-1-7.27-3.21-10.23a2.28,2.28,0,0,0-3.63,2.77C252.52,62.51,253,66.78,253.07,69.34Z"/><path class="cls-5" d="M83.18,347.08H96.53c.17-2.26.82-6.6,3.35-9.3a2.28,2.28,0,0,0-3.33-3.12c-2.72,2.9-3.85,6.88-4.32,9.86A87.33,87.33,0,0,0,92,335a2.28,2.28,0,0,0-4.53.58,91.59,91.59,0,0,1,.17,9.79c-.22-3-1-7.28-3.2-10.23a2.28,2.28,0,1,0-3.63,2.76C82.63,340.25,83.11,344.52,83.18,347.08Z"/><path class="cls-5" d="M295,103.32a2.28,2.28,0,0,0-3.22.1,17.84,17.84,0,0,0-4.13,8.81c0,.22-.05.44-.07.66-.32-2.85-1.13-6.44-3.08-9a2.28,2.28,0,1,0-3.63,2.76c1.8,2.37,2.29,6.64,2.35,9.2h8.54c.16-2.26.81-6.6,3.34-9.29A2.28,2.28,0,0,0,295,103.32Z"/><path class="cls-5" d="M167.64,110.88a2.29,2.29,0,0,0-3.23.1,18,18,0,0,0-4.13,8.81l-.06.66c-.33-2.85-1.13-6.44-3.09-9a2.28,2.28,0,1,0-3.63,2.76c1.8,2.37,2.29,6.64,2.36,9.21h8.53c.16-2.27.82-6.61,3.35-9.3A2.3,2.3,0,0,0,167.64,110.88Z"/><path class="cls-5" d="M90.11,127.06a2.29,2.29,0,0,0-3.22.1A18,18,0,0,0,82.75,136l-.06.66c-.32-2.85-1.13-6.44-3.08-9A2.28,2.28,0,0,0,76,130.38c1.81,2.38,2.3,6.65,2.36,9.21h8.54c.16-2.27.81-6.61,3.34-9.3A2.29,2.29,0,0,0,90.11,127.06Z"/><path class="cls-3" d="M126.62,353.92s-4.33,4.85-1.77,8.2,30.81,11.95,45.55,16.19S200,387,206.13,389.9s9,4.46,11.92,2.39,8.28-15.78,8.28-15.78l-84.05-26.28Z"/><path class="cls-4" d="M128.84,354.63s-4.11,4.35,0,6.73,37.27,14.12,43.81,15.91,38.35,10.11,41.18,11.89,4.36,1.78,4.36,1.78l17.64-23.19L150.05,341Z"/><path class="cls-3" d="M322.76,261.92a145.91,145.91,0,0,1-8.47,17c-5.64,9.88-18.6,25.27-26.38,36.45s-12.1,17.14-12.1,17.14-17,15.39-21.18,20.1-25.11,26.59-29.46,31a66.41,66.41,0,0,0-7.12,8.62s1.48-3-4.31-6.26-20.37-4.2-30.26-7.3-27.6-8.21-33.19-10.58-20.39-7.67-20.39-7.67l69.86-57.8L238.17,243l59,14.53S316.77,259.48,322.76,261.92Z"/><path class="cls-4" d="M316.21,260.2S301,286.43,294.85,296.1s-17.38,27.69-17.38,27.69-13.39,13.23-25,23.63-21.85,22-29.1,28.21c-3.66,3.15-8.79,8.1-8.79,8.1s-17.86-6.2-26.79-7.14c-6.82-.71-22.71-6.7-30.27-9.46-3.14-1.14-25.47-8.4-25.47-8.4L194,301.46,237.17,243s45.19,11.65,52.92,13.43S312.56,259.38,316.21,260.2Z"/><path class="cls-3" d="M228.78,224.45c-6.39,14-12.46,27.8-17.2,36.22s-18.54,30.61-22,37.62c-6,6.21-23.89,22.94-35.14,32.64s-24.62,19.41-27.84,23c5.32,1.68,31.12,10.1,42.92,14.23s42,12.8,44,14c4.57-5.16,22.12-21.68,31-29.92s29.86-28.5,31.28-30.41c1.43-3.26,12.07-19.91,15.89-28.53s9.17-23.65,12.52-30.74,8.64-18,8.64-18-30.29-7.06-33.41-7.56S239.86,224.68,228.78,224.45Z"/><path class="cls-6" d="M126.62,353.92c5.32,1.68,31.12,10.1,42.92,14.23s42,12.8,44,14c4.57-5.16,22.12-21.68,31-29.92,7.9-7.36,25.51-24.31,30.19-29.21-4.66-1.33-9.53-2.74-12.73-3.7-7.88-2.37-27.35-7.22-43.75-11.29-9.64-2.4-21.76-5.82-30.11-8.23-7.08,7.07-23.22,22.15-33.67,31.15C143.21,340.62,129.84,350.34,126.62,353.92Z"/><path class="cls-12" d="M182.82,305s-.14,3.77,3.38,9c4.2,6.19-.43,11.67-7.09,16.79-8.69,6.69-14,2.67-18.06,8.14-5.89,8-14.83,16-21.49,4.27"/><path class="cls-12" d="M176,311.42s3.23,6.35,1.39,9.76c-4.15,7.74-10.89,5.24-14.22,7.62-4.8,3.45-9.26,8.7-13.36,6"/><path class="cls-12" d="M170.8,316.26s2.45,7.41-7.08,6.47"/><path class="cls-12" d="M292.47,291.5s-6.56-4.15-12.89-2.5-12,5.57-14.15,8.37c-4.15,5.31-8.52,3.82-15.18,7.59-6.47,3.66-4.64,4.31-9.19,8.76-5,5-9.71,7.18-14.73,7.39s-9-.25-14.73,6.11-1.75,11.37-8.81,16-10.63,2.53-19.61,7.07c-9.32,4.7-11.62,7.91-9.17,19.37"/><path class="cls-12" d="M284.51,306.72s-9.38-3.14-16.06,1.61c-4.23,3-8.61,10.34-8.61,10.34a18.05,18.05,0,0,1-8.92,5.45c-5.61,1.39-11.27-3.22-27.32,8.13-8,5.69-3.71,13.19-13.63,18.92-5.71,3.29-10.41,3.32-14.47,8.52s-3,10.37-2.44,15.9"/><path class="cls-12" d="M265.19,332.45c-.52.52-.78-5.54-7.91-2.64-6.08,2.46-19.85,2.34-23.86,9.81-5.37,10-6.68,11.78-10.37,16.83s-11.6,3.66-12.49,13.72,5.18,9.65,5.18,9.65"/><path class="cls-12" d="M255.2,342.1s-12.43-5.3-14.58,2.2c-2.49,8.7-5,13.38-9.88,15.61-6.06,2.75-5.27,7.69-4.41,9.48"/><path class="cls-12" d="M283.33,237.78a8.7,8.7,0,0,0-4.66,7.93c-.1,5.93,9.57,10.34,2.33,19.31s-15.81,5.9-24.73,10.06-11.28,9.79-17.35,14.25-25.24,10.93-30.37,3.12-3.77-11.36-8.24-12.37"/><path class="cls-12" d="M207.27,269.23s4.47,2.11,5.81,6.38,3.94,8.46,10.19,7.86,12.93-9.56,22.39-14.81,20.94-9.49,21.39-15.9,2.32-15.16-4.76-17.52-18.35-4.2-24.85-.4-15,9.07-16.28,6.36"/><path class="cls-12" d="M248.47,241.43c-3.57-.71-11.43-1.91-15.61,1.54s-11,5.9-12.16,11.4-3.15,8.8-1,13.07,2.72,7.31,8.88,2.61,7.74-8.56,13-13.37,8.12-3.48,9.59-7.94S248.47,241.43,248.47,241.43Z"/><path class="cls-12" d="M237.44,250c-.92-3.88-7.14.5-7.91,3.37s-1.13,6.53,1.77,4.77S238.45,254.23,237.44,250Z"/><circle class="cls-5" cx="264.99" cy="282.12" r="4.47"/><circle class="cls-5" cx="195.84" cy="313.35" r="4.47"/><path class="cls-13" d="M211.58,260.67l1.9.64"/><path class="cls-14" d="M217.21,262.65c4.16,1.51,6.3,2.15,10.54,1.16,5.82-1.35,19.92-15.62,31.47-6.31s4.9,28.19-2.6,32.1S248.33,297,241.69,299s-16.21,1.11-18.68,9.93c-1.53,4.47-1.3,7.57-14,7.38a38.93,38.93,0,0,1-8.6-1.08"/><path class="cls-13" d="M198.49,314.65a19.82,19.82,0,0,1-1.88-.66s-.17.73-.49,1.93"/><path class="cls-15" d="M195.06,319.64c-1.34,4.42-3.47,10.41-6.07,14.19-4.52,6.57-7.75,6.77-16.58,10.39s-12.21,2.72-15.08,9.15a37.13,37.13,0,0,0-2.09,5.85"/><path class="cls-13" d="M154.84,361.12a10.24,10.24,0,0,0-.17,2"/><path class="cls-16" d="M299,275.09c-9.06-.25-7.39,6.1-18,7.21s-18.69,1.17-18.69,1.17"/><path class="cls-5" d="M315.34,336.29a3,3,0,0,0-4.3.14c-3.21,3.42-4.76,8-5.5,11.73,0,.29-.06.58-.08.88-.43-3.8-1.51-8.58-4.11-12a3,3,0,0,0-4.84,3.68c2.41,3.16,3.05,8.85,3.14,12.26H311c.21-3,1.08-8.8,4.45-12.38A3,3,0,0,0,315.34,336.29Z"/><path class="cls-17" d="M167.55,48.05a18.26,18.26,0,0,0-29.76-14.17c-.29.24-.57.48-.84.73L133,38l.6.69a18.25,18.25,0,0,0,22.8,26.14l.57.65,3.22-2.63A18.47,18.47,0,0,0,167.55,48.05Z"/><circle class="cls-10" cx="145.7" cy="51.16" r="18.26"/><path class="cls-3" d="M156.92,61.55a15.17,15.17,0,0,0-20.06-22.36h0C135.6,40,123.2,51.59,123.2,51.59L143.26,74s12.79-11.44,13.65-12.47Z"/><path class="cls-17" d="M115.07,48.05A18.26,18.26,0,0,0,85.31,33.88c-.29.24-.57.48-.84.73l-4,3.43.61.69a18.25,18.25,0,0,0,22.8,26.14l.56.65,3.22-2.63A18.47,18.47,0,0,0,115.07,48.05Z"/><circle class="cls-10" cx="93.22" cy="51.16" r="18.26"/><path class="cls-3" d="M104.44,61.55A15.17,15.17,0,0,0,84.38,39.19h0C83.12,40,70.72,51.59,70.72,51.59L90.78,74s12.79-11.44,13.65-12.47Z"/><g class="cls-18"><polygon class="cls-9" points="104.53 36.83 104.05 36.46 107.73 33.42 108.22 33.79 104.53 36.83"/><polygon class="cls-9" points="106.53 38.67 106.13 38.23 109.77 35.19 110.17 35.63 106.53 38.67"/><polygon class="cls-9" points="102.72 35.57 102.16 35.23 106.32 32.46 106.87 32.81 102.72 35.57"/><polygon class="cls-9" points="100.68 34.49 100.05 34.22 103.98 31.25 104.59 31.53 100.68 34.49"/><polygon class="cls-9" points="97.68 33.45 96.93 33.28 100.92 30.26 101.66 30.45 97.68 33.45"/><polygon class="cls-9" points="95.23 33.01 94.38 32.94 98.21 29.85 99.05 29.93 95.23 33.01"/><polygon class="cls-9" points="92.41 32.92 91.37 32.99 95.3 29.84 96.29 29.8 92.41 32.92"/><polygon class="cls-9" points="89.88 33.21 88.8 33.44 91.77 30.5 92.9 30.22 89.88 33.21"/><polygon class="cls-9" points="86.86 34.04 85.17 34.77 88.43 31.83 90.21 31.03 86.86 34.04"/></g><g class="cls-18"><polygon class="cls-9" points="157.01 36.83 156.53 36.46 160.21 33.42 160.69 33.79 157.01 36.83"/><polygon class="cls-9" points="159.01 38.67 158.6 38.24 162.25 35.19 162.66 35.62 159.01 38.67"/><polygon class="cls-9" points="155.2 35.57 154.63 35.23 158.8 32.46 159.35 32.81 155.2 35.57"/><polygon class="cls-9" points="153.16 34.49 152.53 34.22 156.46 31.25 157.07 31.53 153.16 34.49"/><polygon class="cls-9" points="150.16 33.45 149.41 33.28 153.4 30.26 154.14 30.45 150.16 33.45"/><polygon class="cls-9" points="147.71 33.01 146.86 32.94 150.69 29.85 151.53 29.93 147.71 33.01"/><polygon class="cls-9" points="144.89 32.92 143.83 33.01 147.76 29.86 148.77 29.8 144.89 32.92"/><polygon class="cls-9" points="142.36 33.21 141.28 33.44 144.25 30.5 145.38 30.22 142.36 33.21"/><polygon class="cls-9" points="139.34 34.04 137.65 34.77 140.91 31.83 142.69 31.03 139.34 34.04"/><polygon class="cls-9" points="160.63 40.65 160.28 40.17 163.96 37.18 164.31 37.66 160.63 40.65"/><polygon class="cls-9" points="161.95 42.83 161.66 42.29 165.15 38.99 165.44 39.52 161.95 42.83"/><polygon class="cls-9" points="162.79 44.73 162.56 44.16 166.22 41.2 166.45 41.78 162.79 44.73"/><polygon class="cls-9" points="163.47 46.95 163.31 46.32 166.95 43.37 167.1 44.01 163.47 46.95"/><polygon class="cls-9" points="163.91 49.87 163.85 49.16 167.47 46.27 167.52 46.99 163.91 49.87"/><polygon class="cls-9" points="163.94 51.94 163.96 51.2 167.54 48.66 167.5 49.41 163.94 51.94"/><polygon class="cls-9" points="163.68 54.34 163.81 53.49 167.36 50.73 167.22 51.59 163.68 54.34"/><polygon class="cls-9" points="163.11 56.65 163.37 55.76 166.76 53.46 166.46 54.38 163.11 56.65"/><polygon class="cls-9" points="160.48 61.87 161.63 60.07 165.43 56.73 164.46 58.37 160.48 61.87"/><polygon class="cls-9" points="162.19 58.99 162.69 57.85 166.18 55.12 165.66 56.28 162.19 58.99"/></g><polygon class="cls-3" points="92.8 36.64 146.52 36.69 146.52 56.2 124.7 68.47 76.83 59.2 92.8 36.64"/><polygon class="cls-11" points="77.95 53.91 126.84 53.91 127.44 71.98 77.95 68.47 77.95 53.91"/><path class="cls-10" d="M86.75,85.35A21.83,21.83,0,0,0,57.89,53.18h0L37.78,70.94,67.1,103.31Z"/><circle class="cls-17" cx="52.53" cy="87.05" r="21.84"/><circle class="cls-9" cx="52.53" cy="87.05" r="17.63"/><path class="cls-10" d="M53.34,102.13A17.63,17.63,0,0,1,43.33,72a17.63,17.63,0,1,0,21.4,27.74A17.57,17.57,0,0,1,53.34,102.13Z"/><path class="cls-19" d="M91.55,67.37l-17.1,16.8a23,23,0,0,1-7.27,19.14l19.65-18A22.47,22.47,0,0,0,91.55,67.37Z"/><path class="cls-5" d="M111,72.08c-4.14-1.52-13.11-2.51-16.64,5.9s25.09,17.09,25.24,8.15C119.73,78.78,116.92,74.23,111,72.08Z"/><path class="cls-5" d="M58.58,72.08c-4.15-1.52-13.12-2.51-16.65,5.9S67,95.07,67.18,86.13C67.3,78.78,64.5,74.23,58.58,72.08Z"/><path class="cls-4" d="M160.2,49.05,142.64,63l-2.44,4.72v8.74l6.32-5.31,10.62-9.75S161.59,55.69,160.2,49.05Z"/><path class="cls-10" d="M139.23,85.35a21.84,21.84,0,0,0-28.87-32.17h0L90.26,70.94l29.32,32.37Z"/><circle class="cls-17" cx="105.01" cy="87.05" r="21.84"/><circle class="cls-9" cx="105.01" cy="87.05" r="17.63"/><path class="cls-10" d="M105.82,102.13A17.63,17.63,0,0,1,95.81,72a17.63,17.63,0,1,0,21.4,27.74A17.57,17.57,0,0,1,105.82,102.13Z"/><path class="cls-5" d="M111.69,72.08c-4.15-1.52-13.12-2.51-16.64,5.9s25.09,17.09,25.24,8.15C120.41,78.78,117.61,74.23,111.69,72.08Z"/><path class="cls-19" d="M144,67.37l-17.11,16.8a23,23,0,0,1-7.26,19.14l19.65-18A22.47,22.47,0,0,0,144,67.37Z"/></g><g id="Layer_11" data-name="Layer 11"><path class="cls-9" d="M74.29,200.9c-1.9-1.5-4.35-.18-6.06.95-2,1.37-4.4,3-5.49,5.26-.06.13.12.24.19.11.94-1.87,2.8-3.23,4.48-4.42s4.29-3.13,6.43-1.83c3.34,2.05-1,6.73-2.68,8.39-.07.07,0,.16.1.1C73.18,207.9,77.22,203.21,74.29,200.9Z"/><path class="cls-17" d="M71.48,240.43c15.79,4.62,49,14.72,49,14.72L125,239.39l-3.25-17L48.06,207l-8.75,2.64a27.93,27.93,0,0,1,1.79,8.3c0,3.69.44,12.92.44,12.92"/><path class="cls-20" d="M172.12,175.53a81,81,0,0,0,.1,11.36,42.72,42.72,0,0,1-.53,11.44s-6.69,9.11-22.94,26.53-28.66,29.39-28.66,29.39.79-16,.42-21.47a49.17,49.17,0,0,1,.93-11.52l43.43-42.95Z"/><path class="cls-5" d="M96.24,158.19c12.13,3.27,22.63,4.8,34,8.12s35.43,11,41.84,10.72c-3.08,3.09-10.19,12.85-15.37,17.5s-18,20.18-21.92,24.8-11,13.79-13.93,14.51c-5.4-.77-19.18-3.88-36-9.2S55.55,214.69,50,212.92s-10.66-3.32-10.66-3.32,13.13-11.19,24.15-22S90.36,162.28,96.24,158.19Z"/><path class="cls-21" d="M172,178.31s-7.27,9.39-12.21,14.87-18.52,21.26-22.91,26.06-16.25,16.6-16.25,16.6-24.07-5-39.93-10.5-27.8-9.5-33.05-11.43a43,43,0,0,0-8.28-2.34"/><path class="cls-21" d="M172,182s-5.35,5.67-15.64,18.23S130,230.46,130,230.46l-9.37,8.62a134.79,134.79,0,0,1-17.36-3.84c-10.21-2.9-29.59-9.15-37.75-11.73l-25.32-8"/><path class="cls-21" d="M172.22,190.51l-11.1,12.55c-7.78,8.77-20.8,24.05-28.42,31.23S120.39,247,120.39,247s-15.85-3.15-25.11-6.26-14.65-5.33-29.8-10.08-25.18-7.94-25.18-7.94"/><path class="cls-21" d="M40.2,219.27l13,3.4c5.1,1.34,16.6,5.14,26.45,8.91s25.44,7,33,9.11,8,2.39,8,2.39,18.86-17.92,24.76-24.93,19.11-23.7,21.83-27a70.18,70.18,0,0,1,4.93-5.44"/><path class="cls-21" d="M172.17,196a69.06,69.06,0,0,0-5,5c-4.2,4.42-13.37,16.13-27.8,31.24s-19,19.37-19,19.37,1.57,1.29-16.73-4.23-23.92-7.1-39.85-12.59-22.45-7.11-22.45-7.11"/><path class="cls-8" d="M97.22,202.24a14.43,14.43,0,0,0-1.78,2.43c0,.08.06.17.12.1.66-.74,1.29-1.51,1.91-2.28C97.61,202.32,97.36,202.07,97.22,202.24Z"/><path class="cls-8" d="M77.16,194.46c-.51,1.13-1.33,2.12-1.76,3.29,0,.1.13.17.18.07a34.36,34.36,0,0,0,1.73-3.29C77.35,194.44,77.2,194.37,77.16,194.46Z"/><path class="cls-8" d="M104.22,215.27a17.09,17.09,0,0,0-2.94,4.43.05.05,0,1,0,.09.05,32.26,32.26,0,0,1,3-4.35C104.44,215.31,104.3,215.17,104.22,215.27Z"/><path class="cls-8" d="M128.84,213.54a13,13,0,0,0-1.65,1.75c0,.08.06.16.13.1.58-.53,1.08-1.17,1.63-1.74A.08.08,0,0,0,128.84,213.54Z"/><path class="cls-8" d="M124.81,209.41c-.39.4-.79.8-1.16,1.21a6.9,6.9,0,0,0-1,1.18.12.12,0,0,0,.18.15c.38-.36.7-.81,1.06-1.19s.73-.77,1.11-1.14C125.15,209.48,124.94,209.28,124.81,209.41Z"/><path class="cls-8" d="M109.73,216.21c-.63,1.37-1.83,2.33-2.63,3.59,0,0,.05.11.08.06a17.87,17.87,0,0,0,2.7-3.56C109.92,216.2,109.77,216.11,109.73,216.21Z"/><path class="cls-8" d="M120.23,208.67c-.51-2.12-2,.09-2.09,1.36a1.92,1.92,0,0,0-2,.42c-.71,1,.7,1.81,1.4,2.19a.08.08,0,0,0,.11-.1c-.35-.58-1.3-.73-1.4-1.45-.12-.92,1-1,1.91-.77,0,.41.29.62.89.34a.14.14,0,0,0,0-.21,2.42,2.42,0,0,0-.7-.36,3.71,3.71,0,0,1,.33-1.09,2,2,0,0,1,.6-.81c.45-.28.61.14.71.54A.12.12,0,0,0,120.23,208.67Z"/><path class="cls-8" d="M96.16,196c-.73-.9-2.28-.81-3.29-1.1-1.78-.51-2.34-2.15-4.46-1.8a6.14,6.14,0,0,0-4,2.39,2,2,0,0,0-.31,1,4.45,4.45,0,0,0-1.68.29,3,3,0,0,0-1.56,4.12c.06.14.27,0,.2-.12a2.74,2.74,0,0,1,2-3.91c.35-.08.76,0,1.1-.11a1.07,1.07,0,0,0,1.24.91s.11,0,.1-.1a1,1,0,0,0-.61-.92,1.84,1.84,0,0,0-.2-1,3.8,3.8,0,0,1,.77-.83,5.9,5.9,0,0,1,3.89-1.52c1.34.11,1.75,1.06,2.8,1.57s3.31.22,4,1.42c1.28,2.37-3.38,3.29-4.64,3.9a.11.11,0,0,0,0,.2c1.56.38.6.94-.37,1.24a7,7,0,0,1-2,.37.12.12,0,0,0,0,.24,5.33,5.33,0,0,0,3.26-.94c.58-.59,0-.45-.19-.92l-.31-.11a1.88,1.88,0,0,1,.56-.25,13.12,13.12,0,0,1,1.37-.49,5.73,5.73,0,0,0,1.62-.86C96.21,198,96.85,196.81,96.16,196Z"/><path class="cls-8" d="M66.51,200.43a.1.1,0,0,0,0,.2A.1.1,0,0,0,66.51,200.43Z"/><path class="cls-8" d="M79.16,202.12a3.84,3.84,0,0,0-3.23.21c-.17.11,0,.38.15.27a3.61,3.61,0,0,1,2.52-.34,1.38,1.38,0,0,1,1,.49c.28.44-.16,1-.43,1.3a.07.07,0,0,0,.1.1C80,203.52,80.22,202.56,79.16,202.12Z"/><path class="cls-8" d="M124.45,215.1c-1.61-.54-3.53,1.22-4.61,2.18-1.7,1.51-3.63,3.48-4,5.8,0,.22.31.32.35.1.32-1.94,1.76-3.52,3.11-4.86,1.13-1.11,2.62-2.59,4.24-2.87,3.45-.6-.11,5.66-.72,6.78a.16.16,0,0,0,.25.2C124.19,221.34,127,216,124.45,215.1Z"/><path class="cls-8" d="M116.16,216c-3.15-.87-7.69,1.77-9,4.6-.09.18.18.34.27.16,1.21-2.58,4.83-4.61,7.65-4.56,3.71.05,3.18,3.84,2,6.18a.13.13,0,0,0,.22.13C118.73,220.51,119.06,216.81,116.16,216Z"/><path class="cls-8" d="M93.17,206.87c-1.21,2.36-2.88,4.57-3.7,7.1,0,.13.16.23.22.1,1.09-2.44,2.53-4.67,3.66-7.09C93.41,206.86,93.23,206.75,93.17,206.87Z"/><path class="cls-8" d="M86.21,216c-5.34-1.91-10.74-3.26-15.75-6a.15.15,0,0,0-.15.26,61.86,61.86,0,0,0,15.84,6A.1.1,0,0,0,86.21,216Z"/><path class="cls-8" d="M88.42,218.8c-1.66-1.05-3.78-1-5.56-1.8-.18-.08-.34.19-.16.27,1.8.8,3.79.95,5.6,1.75A.13.13,0,0,0,88.42,218.8Z"/><path class="cls-8" d="M93.72,206.16c-3.29,3.13-6.58,6.33-9.63,9.7a.07.07,0,0,0,.1.1c3.37-3.06,6.41-6.49,9.7-9.63C94,206.22,93.83,206.05,93.72,206.16Z"/><path class="cls-8" d="M93.69,205.91a29.8,29.8,0,0,0-1.68,6c-.54,2.42-1.44,4.77-1.75,7.24,0,.16.24.19.28,0,.58-2.4,1.3-4.77,1.83-7.18a44.48,44.48,0,0,1,1.56-6C94,205.87,93.75,205.77,93.69,205.91Z"/><path class="cls-8" d="M93.34,206.26a20.17,20.17,0,0,0-6.08-2.12c-2.08-.44-4.26-.72-6.05-2-.14-.1-.27.13-.13.23a13.1,13.1,0,0,0,5.44,2,40.23,40.23,0,0,1,6.7,2.15C93.38,206.59,93.48,206.34,93.34,206.26Z"/><path class="cls-8" d="M83.4,202.07c-2.06,1.48-4.19,2.85-6.28,4.31-2.33,1.63-4.86,3.75-7.57,4.69-.09,0,0,.18,0,.15,2.7-.73,5.18-2.84,7.45-4.41,2.09-1.44,4.81-2.66,6.5-4.57C83.62,202.15,83.51,202,83.4,202.07Z"/><path class="cls-8" d="M115,204.49A2,2,0,0,0,113.7,203a1.05,1.05,0,0,0,.2-.27c.53-.89-.07-2.14-.49-3-.6-1.17-2.08-3.27-3.31-2.14-.46-1.19-3.76-2-4.61-1.71s-.89,1.08-.61,1.85c.23.62.61,1.17.89,1.76.17.36.67,1.18.19,1.44-.32.18-1.65-.92-1.87-1.14-.85-.88-1.47-2.65-2.91-2.68a2,2,0,0,0-1.85,1.48,3.68,3.68,0,0,0,.37,2.93c-1,.7-1.49,2.29-.24,3a3.71,3.71,0,0,0,1.61.32c.22,0,1.15-.09,1.29.12s-.23.73-.26.85c-.26,1.09,0,1.55,1.17,1.74.29,0,.41-.38.13-.43-1.39-.28-.65-1.45-.52-2.32a.25.25,0,0,0-.17-.3,10,10,0,0,0-1.64-.16c-2.27-.15-1.93-1.92-1-2.49a1.28,1.28,0,0,0,1.33,0,.25.25,0,0,0,0-.43,1.44,1.44,0,0,0-1.14-.12c-.86-.82-.75-3.67.94-3.57,1.13.07,1.74,1.66,2.41,2.39a5.18,5.18,0,0,0,2.69,1.42.23.23,0,0,0,.28-.17c.36-1.48-1-2.41-1.25-3.74-.67-3.1,4.69-.14,4.44.43a.19.19,0,0,0,.33.19c1-1.59,2.33.49,2.81,1.29a6.63,6.63,0,0,1,.52,1c.07.2.13.4.19.59.35.78,0,1.3-1.06,1.56a2.44,2.44,0,0,0-1,.11.24.24,0,0,0-.06.43,1.87,1.87,0,0,0,1.69.09l.21.09a2,2,0,0,1,.78.51c.49,1.43.08,2.1-1.24,2a.19.19,0,0,0-.19.32,3.39,3.39,0,0,1,1,1.09c.14.47.35.29-.43.54a14.66,14.66,0,0,1-4.07.45.23.23,0,0,0-.14.4,6.72,6.72,0,0,1-3.67-.07c-.21-.07-.3.26-.09.33a6.56,6.56,0,0,0,4.5-.13l.07-.07a12,12,0,0,0,4.46-.94c.09,0,.16-.17.06-.25a7.34,7.34,0,0,1-.93-1.21A1.85,1.85,0,0,0,115,204.49Z"/><path class="cls-8" d="M107.85,205.23a9.26,9.26,0,0,1-1.06,1.65c-.06.08.08.19.15.11a6.38,6.38,0,0,0,1.14-1.63C108.15,205.21,107.92,205.07,107.85,205.23Z"/><path class="cls-8" d="M108.26,202.37a8.55,8.55,0,0,0-1.49,2.87.12.12,0,0,0,.12.16,1.13,1.13,0,0,0,.41-.05.06.06,0,0,0,0-.11l-.23-.06a12.94,12.94,0,0,1,1.41-2.68C108.57,202.36,108.36,202.24,108.26,202.37Z"/><path class="cls-8" d="M106.79,202.85c-.32.68-.63,1.36-1,2-.16.33-.6.9-.41,1.27a.14.14,0,0,0,.13.08h0a.14.14,0,0,0,.11-.07l.12-.13c.06,0,0-.15,0-.14s-.1,0,0-.14l.48-1a10.56,10.56,0,0,0,.76-1.8C107.05,202.81,106.84,202.72,106.79,202.85Z"/><path class="cls-8" d="M105.92,205.07s-.52.46-.42.53a6.31,6.31,0,0,1,0-.87,4.14,4.14,0,0,1,.42-2.08c.09-.15-.13-.34-.25-.19-.76.94-.45,2.3-.43,3.4a.14.14,0,0,0,.08.12,8.6,8.6,0,0,1-1.76,2c-.11.08,0,.25.1.17a10.51,10.51,0,0,0,2.48-2.87C106.22,205.1,106,205,105.92,205.07Z"/><path class="cls-8" d="M98.19,221c0-.19-.34-.14-.33.05a3.3,3.3,0,0,1-.07.77c-.34-.47-.46-1.09-1-1.32-1-.39-2,.2-3,.36a4.7,4.7,0,0,1,1.08-.34c.2,0,.11-.34-.08-.31a5,5,0,0,0-1.93.7.2.2,0,0,0,0,.37c1.1.16,2-.39,3.07-.5.83-.09.92.11,1.18.74a2.08,2.08,0,0,0,.67.86.2.2,0,0,0,.33-.09A2.58,2.58,0,0,0,98.19,221Z"/><path class="cls-8" d="M94.87,218.68c-1.13.35-2.32.46-3.46.79a.16.16,0,0,0,0,.29,3.54,3.54,0,0,0,2.18.21c.11,0,.12-.21,0-.22-.53-.07-1,0-1.56-.12,1-.26,2-.42,2.92-.77C95,218.82,95,218.64,94.87,218.68Z"/><path class="cls-8" d="M74.79,200.68c-1.76-1.38-4.46,0-6.08.92-1.84,1.09-4.46,2.67-4.92,4.91,0,.21.29.3.33.09.43-2.09,2.89-3.56,4.6-4.6,1.35-.82,6.07-3,6.43,0,.18,1.58-1.7,3.37-2.61,4.48-.63.78-1.71,1.78-1.77,2.84a.13.13,0,0,0,.24.06c.89-1.83,2.42-3.21,3.54-4.89C75.31,203.35,76.12,201.72,74.79,200.68Z"/><path class="cls-8" d="M106.91,206.05c-1.78,2.4-3.51,4.84-5.27,7.25s-3.72,4.53-4.85,7.15c-.09.2.2.38.29.18,2.58-5.28,7.25-9.31,10-14.46C107.18,206,107,205.94,106.91,206.05Z"/><path class="cls-8" d="M105.61,205.91a6.09,6.09,0,0,0-1.2,1.63A36.55,36.55,0,0,1,101,211.3c-2.2,2.35-4.21,4.87-6.24,7.37-.12.14.09.36.21.21,2-2.5,4-5,6.24-7.37,1-1,2-2,2.9-3.17.59-.74,1-1.57,1.57-2.33C105.75,206,105.67,205.88,105.61,205.91Z"/><path class="cls-8" d="M117.09,198.19a.3.3,0,0,0,0,.59A.3.3,0,0,0,117.09,198.19Z"/><path class="cls-8" d="M117.12,192.05c-.2.2-.45.42-.7.65a24.21,24.21,0,0,1-2.6,2c-.84.17-2.86.54-2.47-.54a.29.29,0,0,0-.27-.35A4.86,4.86,0,0,0,110,194c-.53.11-.63.35-.82-.27a1.62,1.62,0,0,1,0-.19,10,10,0,0,0,3.44-3.11.26.26,0,0,0-.35-.35c-1.13.67-3.26,1.73-3.73,3.15a4.88,4.88,0,0,1-.64.23c-.23,0-1.09.24-1.22,0s0-.25.15-.31l.64-.16h.06a.22.22,0,0,0-.12-.43c-.41.11-3.41.72-2.39-.4a.2.2,0,0,0-.14-.33,5.79,5.79,0,0,0-2.18.66c-.2.08-.12.39.09.32a16.65,16.65,0,0,1,1.59-.55l-.24.25a.2.2,0,0,0,0,.31,2.53,2.53,0,0,0,1.72.46s0,0,0,0a1.89,1.89,0,0,0,2.53.61c0,1.22,1.45.67,2.38.52-.12,1,.91,1.1,1.93,1l0,0c-.29.21,0,.67.28.49s.7-.41,1-.63l.29-.12a.28.28,0,0,0,.18-.19l.18-.12a2.64,2.64,0,0,0-.19.51c-.2.93.5,1,1.19.88-.2.54,0,1,.81,1.07.27,0,.29-.36.06-.44-.43-.33-.42-.63,0-.9a.3.3,0,0,0-.29-.49,2.11,2.11,0,0,1-.73.21c-.51-.07-.4-.12-.34-.47s.63-.9.86-1.17a19.94,19.94,0,0,1,1.56-1.63C117.81,192.2,117.4,191.79,117.12,192.05Zm-7.53.58a9,9,0,0,1,1.68-1.33A9.53,9.53,0,0,1,109.59,192.63Z"/><path class="cls-8" d="M100.1,190.88a11.43,11.43,0,0,1-1.94-.24,1.72,1.72,0,0,1-1.08-.65l-.1-.2h.11c.73-.14,1-.56.67-1.26a.3.3,0,0,0-.35-.19,1.39,1.39,0,0,0-1,.92,9.1,9.1,0,0,1-.93-.18,2.59,2.59,0,0,0-2.72.11.22.22,0,0,0,.22.37c1.3-.78,2.23.12,3.42.25a1.85,1.85,0,0,0,.28.61c.76,1.07,2.32,1,3.44.71C100.21,191.09,100.22,190.9,100.1,190.88Z"/><path class="cls-8" d="M90.63,186.2l-1.07.32a2.07,2.07,0,0,0-.29-.52.23.23,0,0,0-.36-.05c.15-.16.09,0-.15-.13a2,2,0,0,0-.35-.11c-.27-.09-.49-.21-.74-.31-.49-.21-.67-.13-1,.33-.12.18.16.4.31.24.44-.49,1.4.48,2,.43a1.51,1.51,0,0,1,.12.26A8.13,8.13,0,0,0,86,188.21c-.44.4-1.77,1.91-.81,2.41.77.41,2.11-.48,2.69-.91a3.88,3.88,0,0,0,1.77-2.63,4.89,4.89,0,0,0,1.12-.56C90.92,186.41,90.83,186.13,90.63,186.2Zm-3.43,3.4c-.37.24-1.94,1.08-1.75.22.25-1.13,1.75-1.86,2.71-2.22l1-.34A4,4,0,0,1,87.2,189.6Z"/><path class="cls-8" d="M147.85,198.81a3.73,3.73,0,0,0-1.16-.29.23.23,0,0,0-.17-.27,1.31,1.31,0,0,0-.52,0,1.86,1.86,0,0,1-.57-.31l.28-.13a.25.25,0,0,0-.06-.48,7.52,7.52,0,0,1-2.5-.29c-.29-.11-.41.35-.13.46a5.17,5.17,0,0,0,1.77.29.25.25,0,0,0,.09.34c.2.15.39.3.58.42a.29.29,0,0,0,.18.35,13.72,13.72,0,0,1,2,.39C147.92,199.39,148.12,198.93,147.85,198.81Z"/><path class="cls-8" d="M143.34,195.56a4.22,4.22,0,0,0-2.09-1.12c-.3-.11-.43.36-.13.47.7.26,1.38.57,2.07.84A.13.13,0,0,0,143.34,195.56Z"/><path class="cls-8" d="M142.82,197.39a10.4,10.4,0,0,0-3.94-2l.06,0a.23.23,0,0,0-.11-.43,7.56,7.56,0,0,1-2.64-.15c-.71-.19-1.29-.65-2-.86a2,2,0,0,0-2,.49c-.21.16,0,.51.21.36,1.24-.94,2.2-.05,3.36.34a6.42,6.42,0,0,0,2.2.32.25.25,0,0,0,.17.24c.89.27,1.93.69,2.81,1,.65.27,1,.81,1.65,1.07C142.82,197.81,143,197.52,142.82,197.39Z"/><path class="cls-8" d="M130.22,188.64c-1,.52-3,1.26-3.55,2.41a12.81,12.81,0,0,0-1.38.86c-.21.16,0,.5.2.35a9.49,9.49,0,0,1,1-.63c-.08.84.71,1,1.5.85h0a1.78,1.78,0,0,0,1.6,1,.22.22,0,0,0,.11-.41c-.23-.12-1.16-.52-1.1-.78a3.63,3.63,0,0,0,.66-.26c.23-.13.14-.56-.14-.53a1.66,1.66,0,0,0-1.06.42,1.13,1.13,0,0,1-.77,0c-.35-.19-.27-.47-.07-.74a10.66,10.66,0,0,0,3.3-2.18A.27.27,0,0,0,130.22,188.64Z"/><path class="cls-8" d="M119.62,188.61h-.13c-.25,0-.31.39-.06.43h.06l.11.63-.24,0a3.78,3.78,0,0,1-.49,0,6.71,6.71,0,0,0-1.66.23l-.53.17a32.54,32.54,0,0,0,3.73-3.09.19.19,0,0,0-.22-.29c-1,.49-1.94,1-2.93,1.48-.22.11,0,.44.19.33.59-.29,1.17-.6,1.75-.91-1.6,1.38-3.4,2.53-5,4-.19.18.09.45.29.29a6.55,6.55,0,0,1,4.57-1.81c.44,0,1.13.32,1.5-.08a.57.57,0,0,0,.18-.62c1.09.25,2.23.69,1.21,1.38-.24.17,0,.57.24.4C124.56,189.49,120.94,188.78,119.62,188.61Z"/><path class="cls-8" d="M113.72,185.87a4,4,0,0,0-2-.68,2.4,2.4,0,0,0-.93-.16.24.24,0,0,0-.18.4c-.37-.11-.5-.29,0-.51.23-.09.13-.46-.1-.37-.46.18-1.06.61-.49,1.06a2.15,2.15,0,0,0,2,.18,8,8,0,0,1,1,.25c1.06.37.22,1.07-.1,1.73-.08.16.09.39.27.27C113.71,187.62,114.44,186.52,113.72,185.87Z"/><path class="cls-8" d="M112.63,183a7.65,7.65,0,0,0-2.08.05c-.31,0-.31.49,0,.48a13.1,13.1,0,0,0,2.08-.22A.16.16,0,0,0,112.63,183Z"/><path class="cls-8" d="M112.09,183.08a11.89,11.89,0,0,1-2.1,1.66c-.91.4-2.67-.07-3.6-.35-.49-.16-.77-.58-1.26-.69h0a.21.21,0,0,0-.12-.4l-1.14.3-.78.13c-.82.14-.69-.25.39-1.15.19,0,.27-.25.08-.29a2.19,2.19,0,0,0-2.43,1,.21.21,0,0,0,0,.25,2.6,2.6,0,0,0,2.36.59.22.22,0,0,0,.24.3c1.68-.24,3.33.81,5,1.08,1.47.25,2.77-1,3.61-2.09C112.44,183.22,112.28,182.93,112.09,183.08Z"/><path class="cls-8" d="M98.36,180.76a.23.23,0,0,0,0-.27c-.89-.74-1.76-.16-2.78-.2-.55,0-.79-.49-1.3-.54a1.58,1.58,0,0,0-.77.23,3.18,3.18,0,0,0,.68-1.14c.06-.17-.12-.3-.27-.27-.43.09-1.88.36-1.88,1,0,.19.3.24.33.05s.74-.41,1.24-.52a4.56,4.56,0,0,1-.81,1,.24.24,0,0,0,.1.39c.5.11.53-.06,1-.15.61-.12.72.28,1.18.42a3.9,3.9,0,0,0,1.55-.17c.61-.08,1.18.24.63.7a9,9,0,0,1-1.13.52c-.29.15-.07.51.2.48.5-.07,1-.13,1.49-.15.32,0,.33-.51,0-.5h-.26A2.23,2.23,0,0,0,98.36,180.76Z"/><path class="cls-8" d="M153.31,187.57a17.57,17.57,0,0,0-3.54,2.41,5.67,5.67,0,0,1-1.63.58l.15-.11c.22-.15.09-.57-.19-.46-.95.35-1.78-.14-2.66-.37a3.32,3.32,0,0,1-.81-.16c-.31-.23.09-.56.45-.83.2-.14.09-.54-.19-.44a11.26,11.26,0,0,1-2.17.65l.26-.26a.23.23,0,0,0-.16-.38,3.78,3.78,0,0,1-1.06-.1l0-.28a5.47,5.47,0,0,0,1.09-1c.1-.12.05-.37-.15-.35-.64,0-1.83.41-1.85,1.23a.93.93,0,0,0,.09.39l-.87.64c-.12.09,0,.28.11.2.3-.22.62-.43.93-.64a2.08,2.08,0,0,0,1.21.34,2.4,2.4,0,0,1-.51.31c-.22.1-.09.42.12.43a5.78,5.78,0,0,0,1.94-.29,1.42,1.42,0,0,0-.19.45.24.24,0,0,0,.17.3c1.14.17,2.38.81,3.55.8l-.07.08a.25.25,0,0,0,.18.43,4.62,4.62,0,0,0,1.66-.32l-.15.3a.28.28,0,0,0,.24.42,2.47,2.47,0,0,1,2.08,1c.19.23.51,0,.46-.26s-.07-.33-.11-.49c.43,0,.87.09,1.3.16a.26.26,0,0,0,.13-.5,11.25,11.25,0,0,0-1.83-.29c-.19,0-.28.15-.28.32a2.63,2.63,0,0,0-1.31-.45,3.89,3.89,0,0,1,.56-.71c1.16-.67,2.23-1.6,3.35-2.27A.27.27,0,0,0,153.31,187.57Zm-11.63-.35a2.11,2.11,0,0,1,.46-.21c-.14.15-.29.3-.44.44Z"/><path class="cls-8" d="M136.83,187a.3.3,0,0,0,0,.6A.3.3,0,0,0,136.83,187Z"/><path class="cls-8" d="M135.15,184.64c-.57.1-4,1.43-3.18.06a.22.22,0,0,0-.13-.31,4.92,4.92,0,0,0-2.06.26A10.68,10.68,0,0,0,131,183.5a.19.19,0,0,0-.13-.33c-.94-.08-1.59.63-2.4,1-.22.1,0,.41.18.32a9.78,9.78,0,0,1,1.76-.91c-.4.41-.86.77-1.28,1.17a.2.2,0,0,0,.14.33,3.89,3.89,0,0,0,1.12-.16c.58-.13,1.41-.61.89.23a.21.21,0,0,0,0,.26c1.14.9,2.33.13,3.56-.19a5.08,5.08,0,0,1-1.2,1.25.24.24,0,0,0,0,.3l.08.12a.25.25,0,0,0,.27.11h.16a.21.21,0,0,0,.13-.37h0c.19-.21.44-.37.64-.58a2.16,2.16,0,0,0,.58-1.08A.26.26,0,0,0,135.15,184.64Z"/><path class="cls-8" d="M126.72,179.33a7.2,7.2,0,0,0-3.33,3.32c-.72.21-1.66.35-1-.4.16-.18,0-.52-.28-.36s-.74.62-1,.63c-.81,0-.63-.44-.31-.85a23.48,23.48,0,0,0,3.07-2.32c.2-.16-.06-.42-.26-.33a8.28,8.28,0,0,0-3.3,2.45,5.65,5.65,0,0,1-1.07.42l.55-.28c.19-.09,0-.38-.17-.29a11.25,11.25,0,0,0-1.32.72.18.18,0,0,0,.09.32A4.09,4.09,0,0,0,120,182a1.21,1.21,0,0,0-.05.42c0,1,.94.69,1.66.28,0,.43.5.63,1.28.51l.39-.07a1.05,1.05,0,0,0,.73.94c.26.11.48-.24.23-.38a.74.74,0,0,1-.42-.74,5.15,5.15,0,0,0,3.16-3.36A.25.25,0,0,0,126.72,179.33ZM124,182.42a7.17,7.17,0,0,1,2.34-2.37A5.21,5.21,0,0,1,124,182.42Z"/><path class="cls-8" d="M119,177a.27.27,0,0,0-.12-.44c-1.31-.46-3,1-3.76,2.51a4,4,0,0,1-2.19.33h0a.24.24,0,0,0,0-.42c-.54-.34-.75-.27-1.21.14a.19.19,0,0,0-.07.17c-.59,0-1.11-.18-.91-.86a.85.85,0,0,1,.12-.23,8.47,8.47,0,0,0,3.64-2.5c.19-.19-.06-.48-.29-.36a11.53,11.53,0,0,0-3.68,2.43c-.63.17-1.17.21-1.09-.18a.18.18,0,0,0-.13-.23,4,4,0,0,0-2.5.56c-.23.08-.13.44.09.35s2.19-.83,2.09-.35a.19.19,0,0,0,.13.23,3.06,3.06,0,0,0,1.1.14.78.78,0,0,0,0,.14c-.38,1.25,1,1.49,2,1.27a3.7,3.7,0,0,0,2.68,0c-.4,1.17-.17,2.23,1.27,2.33a.26.26,0,0,0,.07-.51c-1.08-.2-1.08-1.15-.59-2.12A16,16,0,0,0,119,177Zm-.88.08a14.1,14.1,0,0,1-2,1.46A4.11,4.11,0,0,1,118.13,177.06Z"/><path class="cls-8" d="M109.36,174.68a2.22,2.22,0,0,0-.91.19.21.21,0,1,0,.16.38,3.21,3.21,0,0,0,.8-.36A.12.12,0,0,0,109.36,174.68Z"/><path class="cls-8" d="M107.42,178.08a1.77,1.77,0,0,1-.78-.2,6,6,0,0,1-.52-.36,1.4,1.4,0,0,0-.46-.2,2.72,2.72,0,0,1,.84-.35c.17,0,.1-.29-.07-.26a3.18,3.18,0,0,0-1.39.68c-.11.09,0,.29.15.25.85-.29,1.35,1,2.26.68A.12.12,0,0,0,107.42,178.08Z"/><path class="cls-8" d="M102.41,172.47a4.39,4.39,0,0,0-2.82,2.58,2.64,2.64,0,0,1-.6.2c-.19,0-.94,0-1-.26s.63-.68.77-.77,0-.55-.23-.39l-1.19.78c-.23.15,0,.53.22.38l0,0c-.1.42.11.77.92.8a2.73,2.73,0,0,0,.94-.12,1.11,1.11,0,0,0,1,1.1c.18.06.35-.19.19-.32a1.16,1.16,0,0,1-.5-1.05,7.24,7.24,0,0,0,2.53-2.51A.27.27,0,0,0,102.41,172.47Zm-2,2.05a.38.38,0,0,1,.09-.13,4,4,0,0,1,1.21-1.17A6.67,6.67,0,0,1,100.46,174.52Z"/><path class="cls-8" d="M152.75,182c.19-.22,0-.6-.31-.42a2.35,2.35,0,0,0-1,1.23c-.12.31.38.45.51.14a1.44,1.44,0,0,1,.28-.5c1.12.25,4.38.63,4.21,2.2,0,.37.55.37.58,0C157.15,182.76,154.31,182.25,152.75,182Z"/><path class="cls-8" d="M149.69,180.67a6.94,6.94,0,0,0-2.63-.45.29.29,0,0,0-.14.53l.35.44L147,181a4.71,4.71,0,0,0-.59-.32,2.57,2.57,0,0,0-1.26,0,1.7,1.7,0,0,0-.12-1.17.24.24,0,0,0-.24-.12.23.23,0,0,0-.2,0,12.94,12.94,0,0,1-1.76.3l-.81,0c-.66.1-.91-.17-.75-.82a2.26,2.26,0,0,0,.29-.26.24.24,0,0,0-.11-.39c-.6-.15-1.23.06-1.31.57-1.16-.08-2.37-1.67-3.72-.67-.23.17,0,.57.23.39,1.25-.94,2.34.61,3.55.72l.07.16c.44.85,1.58.92,2.66.79-.22.18.07.51.3.38.76-.41,1.66-.87,1.28.31a7.61,7.61,0,0,0-3.67,2.74.27.27,0,0,0,.23.4,6.08,6.08,0,0,0,3.88-2.77,2.19,2.19,0,0,1,1.41,0c.9.36,1.05,1.43,1.9.36a.27.27,0,0,0,0-.33,4.13,4.13,0,0,0-.42-.49,7.94,7.94,0,0,1,1.65.34C149.88,181.29,150,180.78,149.69,180.67Zm-6.07,1.38a6.1,6.1,0,0,1-1.71,1.22,9.06,9.06,0,0,1,2.15-1.64Z"/><path class="cls-8" d="M128.33,172.47a1.69,1.69,0,0,0-1.11,0c-.39.08-.2.72.16.57a4,4,0,0,1,.49-.15,2.39,2.39,0,0,0,.46-.12A.17.17,0,0,0,128.33,172.47Z"/><path class="cls-8" d="M134.46,176.67a9.87,9.87,0,0,1-2.19.28c.17-.26.42-.61.24-.67a.24.24,0,0,0,.27-.36c-.49-1.07-2-.6-3-.24a.19.19,0,0,0-.23,0l-.18.08a.18.18,0,0,0-.16-.05,7.9,7.9,0,0,1-2.31-.24l.12-.09c.21-.16.09-.59-.2-.47-.5.2-1.26.36-2,.57a5.53,5.53,0,0,1,1-1.43c.18-.18,0-.43-.26-.34a7.76,7.76,0,0,1-2.58.93c-.26,0-.26.41,0,.4a5.27,5.27,0,0,0,1.93-.57c-.23.35-.43.72-.63,1.08l0,.09c-1.25.38-2.4,1-2.47,2.11a.26.26,0,0,0,.25.25c1.31-.06,1.92-1,2.48-2,.52-.14,1.07-.25,1.54-.37a.31.31,0,0,0,.26.22c.85.08,1.67.37,2.52.37l0,.08c-.13.21.13.51.36.36s.32-.23.46-.35c.67-.26,2.13-.87,2.67-.32a3,3,0,0,0-.58.92l-.29,0a.29.29,0,0,0-.15.55l.23.1c-.22.82-.06,1.45,1.08.47a.25.25,0,0,0,0-.37l0,0a5.72,5.72,0,0,0,2.12-.57C134.8,176.91,134.65,176.62,134.46,176.67Zm-10.73-.29c-.09.13-1.73,1.56-1.26.72a2.52,2.52,0,0,1,1.38-.91Z"/><path class="cls-8" d="M125.71,171.78a1.07,1.07,0,0,0-.57.16,2.81,2.81,0,0,0-.55.34.23.23,0,1,0,.28.37,4.73,4.73,0,0,1,.46-.32c.14-.09.35-.15.45-.28S125.84,171.81,125.71,171.78Z"/><path class="cls-8" d="M123.47,174.81a2,2,0,0,0-1.77-.51,7.24,7.24,0,0,1,.73-.38c.23-.08.45-.17.67-.27h0l.05,0c.21-.1.06-.45-.16-.37s-.45.17-.68.27c-.93.35-1.87.6-2.77,1a15.42,15.42,0,0,0,2.17-3.28c.08-.16-.09-.38-.26-.26a26.78,26.78,0,0,0-4.07,3.53.16.16,0,0,0,.23.23,27.7,27.7,0,0,1,3.37-2.95,16.75,16.75,0,0,1-2.75,3.54,26.82,26.82,0,0,0-2.64,2.25c-.16.16.06.47.26.33a22,22,0,0,0,2.66-2.28q.43-.3.9-.57a7.16,7.16,0,0,1,1.23-.56c-.07.13,0,.33.16.31a3,3,0,0,1,2.46.24C123.42,175.19,123.63,174.94,123.47,174.81Z"/><path class="cls-8" d="M116.35,172.21a11,11,0,0,0-2.62-.6c-.24-.05-.35.32-.1.38a18.39,18.39,0,0,0,2.64.52C116.43,172.53,116.49,172.28,116.35,172.21Z"/><path class="cls-8" d="M111.66,170a1,1,0,0,0-1.66-.5.22.22,0,0,0,0,.11h0a2,2,0,0,0-.85,1.94c.21.86,1.13.8,1.75.42A2,2,0,0,0,111.66,170Zm-1.06,1.55c-.38.29-1,.47-1.15-.16a1.54,1.54,0,0,1,.65-1.45.36.36,0,0,0,.07-.1c.43,0,.84-.21.94.37A1.5,1.5,0,0,1,110.6,171.53Z"/><path class="cls-8" d="M109.21,168c-.16-.65-1.31-.62-1.79-.63a.18.18,0,0,0,0,.36c.35,0,1.17,0,1.32.34s-.73.67-1,.77a.25.25,0,0,0-.06.45c.3.16.6.32.39.69a1.85,1.85,0,0,1-.58.49,9.4,9.4,0,0,1-1.1.55c-.26.13-.08.5.18.44,1-.23,2.81-1.55,1.77-2.37C108.77,168.89,109.33,168.52,109.21,168Z"/><path class="cls-8" d="M106.36,168.06c-.11-.11-.3-.24-.46-.18a.34.34,0,0,0-.24.31.45.45,0,0,0,.24.34.27.27,0,0,0,.32,0A.28.28,0,0,0,106.36,168.06Z"/><path class="cls-8" d="M105.1,169.77a.3.3,0,0,0,0-.1.18.18,0,0,0-.08-.2.28.28,0,0,0-.12,0,.5.5,0,0,0-.49.12.41.41,0,0,0,0,.58c.21.25.55,0,.56-.23a0,0,0,0,0,0,0A.24.24,0,0,0,105.1,169.77Z"/><path class="cls-8" d="M105.59,165.86a7.86,7.86,0,0,0-2.18,1.74l-.25.13c-1,.46-.68-.34-.22-.9s.79-.79,1.18-1.19c.13-.13-.07-.33-.21-.2-.8.76-1.87,1.48-1.87,2.7a.2.2,0,0,0,.19.19,2,2,0,0,0,.55,0c-.61.72-1.18,1.47-1.77,2.13a.31.31,0,0,0,.22.53,1.34,1.34,0,0,0,.4,0c.21,0,.22-.23.13-.37,1.2-1.17,2.11-2.57,3.38-3.67l.54-.42.2-.14A.29.29,0,0,0,105.59,165.86Z"/><ellipse class="cls-9" cx="74.07" cy="183.75" rx="2.99" ry="1.9"/><ellipse class="cls-9" cx="65.93" cy="191.06" rx="2.99" ry="1.9"/><ellipse class="cls-9" cx="58.35" cy="198.28" rx="2.99" ry="1.9"/><ellipse class="cls-9" cx="49.68" cy="206.89" rx="2.99" ry="1.9"/><ellipse class="cls-9" cx="81.85" cy="176.4" rx="2.99" ry="1.9"/><ellipse class="cls-9" cx="89.64" cy="169.59" rx="2.99" ry="1.9"/><ellipse class="cls-9" cx="96.67" cy="163.14" rx="2.99" ry="1.9"/><path class="cls-9" d="M44.16,231.63a9.48,9.48,0,0,1-7-.76c-4.35-2.3-7.29-7.91-7.17-13.65A12.22,12.22,0,0,1,37.09,206c5.6-2.65,11.9,1.76,12,1.8L50.31,206c-.29-.21-7.39-5.2-14.15-2a14.36,14.36,0,0,0-8.31,13.16c-.15,6.52,3.28,12.94,8.32,15.61a11.46,11.46,0,0,0,5.39,1.35,13.49,13.49,0,0,0,5.76-1.37A22.45,22.45,0,0,1,44.16,231.63Z"/><path class="cls-9" d="M45.08,195.14a14.36,14.36,0,0,0-8.31,13.16,18.64,18.64,0,0,0,4.3,12.32c0-1.15.11-2.32.18-3.43a16.76,16.76,0,0,1-2.32-8.84A12.22,12.22,0,0,1,46,197.1c5.59-2.65,11.9,1.76,12,1.8l.63-.88.63-.88C58.93,196.93,51.84,191.94,45.08,195.14Z"/><path class="cls-9" d="M45.77,204.32l.46-.47a16.36,16.36,0,0,1-.16-2.72,12.19,12.19,0,0,1,7.07-11.25c5.6-2.65,11.9,1.76,12,1.8l1.26-1.76c-.3-.21-7.39-5.2-14.15-2a14.36,14.36,0,0,0-8.32,13.16,18.63,18.63,0,0,0,.47,4.54C44.83,205.18,45.3,204.75,45.77,204.32Z"/><path class="cls-9" d="M54.67,196a15.4,15.4,0,0,1-.09-2.15,12.19,12.19,0,0,1,7.07-11.25c5.6-2.65,11.9,1.76,12,1.8l1.26-1.76c-.3-.21-7.39-5.2-14.15-2a14.38,14.38,0,0,0-8.32,13.16,18.19,18.19,0,0,0,.38,4.11C53.42,197.27,54.06,196.65,54.67,196Z"/><path class="cls-9" d="M61,190.2l.56-.56c.11-.12.23-.23.35-.34a16,16,0,0,1-.16-2.68,12.2,12.2,0,0,1,7.07-11.26c5.6-2.64,11.91,1.77,12,1.81l1.26-1.76c-.3-.21-7.39-5.2-14.15-2a14.38,14.38,0,0,0-8.32,13.16,19.07,19.07,0,0,0,.48,4.6C60.41,190.85,60.72,190.52,61,190.2Z"/><path class="cls-9" d="M69.88,181.64a.53.53,0,0,1,.12-.1,17.63,17.63,0,0,1-.12-2.3A12.23,12.23,0,0,1,77,168c5.6-2.64,11.9,1.77,12,1.81L90.18,168c-.29-.21-7.38-5.2-14.15-2a14.35,14.35,0,0,0-8.31,13.16,18.94,18.94,0,0,0,.4,4.26C68.7,182.84,69.28,182.23,69.88,181.64Z"/><path class="cls-9" d="M77,174.71c0-.51-.05-1,0-1.53a12.23,12.23,0,0,1,7.08-11.26c5.6-2.65,11.9,1.76,12,1.81L97.3,162c-.29-.22-7.38-5.2-14.15-2a14.38,14.38,0,0,0-8.31,13.17,18.18,18.18,0,0,0,.27,3.54A25.47,25.47,0,0,1,77,174.71Z"/><path class="cls-17" d="M115.9,191.05c-.1.74,4.27,11.44,4.27,11.44L170,241.58s8.45,6.55,11.37,2.49,2.53-7.9-2.88-12S127.62,195,127.62,195Z"/><polygon class="cls-9" points="123.28 194.76 174.79 233.74 177.05 231.06 127.32 194.76 123.28 194.76"/><polygon class="cls-9" points="121.83 197.42 169.84 234.43 168.46 238.09 119.91 200 121.83 197.42"/><path class="cls-5" d="M120.09,202.31a24.77,24.77,0,0,1,2.85-4.41,10.43,10.43,0,0,1,4-3.14l-11.07-3.71C115.8,191.73,119.52,200.91,120.09,202.31Z"/><path class="cls-22" d="M173.11,228.1s-3.37.3-4.9,3-2.58,4.1-2.21,7.36c1.68,1.31,6.55,4.84,6.55,4.84l7.2-10.17Z"/><path class="cls-3" d="M181.41,244.07c2.69-3.73,2.57-7.27-1.66-11a7.34,7.34,0,0,0-4.53,3.19,19.5,19.5,0,0,0-2.67,7C175.28,244.87,179.51,246.71,181.41,244.07Z"/><polygon class="cls-9" points="115.9 191.05 117.59 196 119.91 192.4 115.9 191.05"/></g></g></svg>