<svg xmlns="http://www.w3.org/2000/svg" viewBox="0 0 350 400"><defs><style>.cls-1{fill:#dadbdc;}.cls-2{fill:#fff;}.cls-3{fill:#af97c7;}.cls-4{fill:#9c6bad;}.cls-5,.cls-9{fill:#393a35;}.cls-10,.cls-6{fill:#7a478b;}.cls-13,.cls-6,.cls-9{opacity:0.44;}.cls-7{fill:#b5b7b9;}.cls-8{fill:#58595b;}.cls-11{fill:#a0a2a5;}.cls-12{fill:none;}</style></defs><title>tails_3.2_walkietalkies</title><g id="Layer_10" data-name="Layer 10"><path class="cls-1" d="M194.55,27.22c37.56.4,72.14,8.81,103.59,36.35,33.39,29.24,65.54,99.1,27.66,129.93-49.33,40.15-127.13-45.8-272.07-39.2-38.24,1.75-57.07-45.46-37.94-67.84C40,58.11,151.92,26.76,194.55,27.22Z"/><path class="cls-1" d="M160.31,238.91c-8-2.26-59.92-21.13-87.79-13.64s-49.69,23.5-58.94,51S3.64,367.76,36.11,384.94C58.94,397,253.24,397.83,289.19,397S341,384,341.66,365.07c.68-18.75-8.81-46.08-32.59-63C257,265,160.31,238.91,160.31,238.91Z"/></g><g id="Layer_4" data-name="Layer 4"><path class="cls-2" d="M299,180.52h12.5c.15-2.12.76-6.19,3.13-8.7a2.14,2.14,0,0,0-3.11-2.93c-2.55,2.71-3.61,6.44-4.05,9.23a81.86,81.86,0,0,0-.2-8.93,2.14,2.14,0,0,0-4.24.55,88,88,0,0,1,.16,9.15c-.21-2.79-.89-6.81-3-9.57a2.13,2.13,0,1,0-3.4,2.58C298.43,174.12,298.89,178.12,299,180.52Z"/><path class="cls-2" d="M257,158.3a2.13,2.13,0,0,0-3,.09,16.83,16.83,0,0,0-3.87,8.25l-.06.62c-.3-2.67-1-6-2.88-8.44a2.14,2.14,0,0,0-3.4,2.59c1.69,2.22,2.14,6.21,2.2,8.61h8c.15-2.12.76-6.18,3.13-8.7A2.13,2.13,0,0,0,257,158.3Z"/><path class="cls-2" d="M138.5,387.75H151c.15-2.12.76-6.18,3.13-8.7a2.14,2.14,0,0,0-3.11-2.93,17.49,17.49,0,0,0-4,9.23,83.9,83.9,0,0,0-.21-8.92,2.14,2.14,0,0,0-4.24.54,88.07,88.07,0,0,1,.16,9.15c-.21-2.78-.89-6.8-3-9.57a2.14,2.14,0,1,0-3.4,2.59C138,381.36,138.44,385.35,138.5,387.75Z"/><path class="cls-2" d="M295.68,77.18a2.12,2.12,0,0,0-3,.09,16.66,16.66,0,0,0-3.87,8.25l-.06.61c-.3-2.67-1.06-6-2.89-8.43a2.13,2.13,0,1,0-3.4,2.58c1.69,2.22,2.15,6.22,2.21,8.62h8c.15-2.12.76-6.19,3.13-8.7A2.13,2.13,0,0,0,295.68,77.18Z"/><path class="cls-2" d="M37.63,324.42a2.13,2.13,0,0,0-3,.09,16.92,16.92,0,0,0-3.87,8.25c0,.2,0,.41,0,.62-.31-2.67-1.06-6-2.89-8.44a2.14,2.14,0,1,0-3.4,2.59c1.69,2.22,2.14,6.21,2.2,8.61h8c.16-2.12.77-6.18,3.13-8.7A2.13,2.13,0,0,0,37.63,324.42Z"/><path class="cls-2" d="M82.54,301.94a2.13,2.13,0,0,0-3,.09,16.74,16.74,0,0,0-3.86,8.24l-.06.62c-.3-2.67-1.06-6-2.89-8.43a2.13,2.13,0,0,0-3.4,2.58c1.69,2.22,2.15,6.22,2.21,8.62h8c.16-2.12.77-6.19,3.14-8.71A2.13,2.13,0,0,0,82.54,301.94Z"/><path class="cls-2" d="M37.52,276.81H50c.15-2.12.76-6.18,3.13-8.7A2.14,2.14,0,0,0,50,265.18a17.59,17.59,0,0,0-4,9.23,81.6,81.6,0,0,0-.2-8.92,2.14,2.14,0,0,0-4.24.54,88.21,88.21,0,0,1,.16,9.16c-.21-2.79-.89-6.81-3-9.58a2.13,2.13,0,0,0-3.39,2.59C37,270.42,37.46,274.41,37.52,276.81Z"/><path class="cls-2" d="M298.64,375.59a2.12,2.12,0,0,0-3,.09,16.67,16.67,0,0,0-3.87,8.24l-.06.62c-.3-2.67-1.06-6-2.89-8.43a2.13,2.13,0,1,0-3.4,2.58c1.69,2.22,2.15,6.22,2.21,8.62h8c.15-2.13.76-6.19,3.13-8.71A2.12,2.12,0,0,0,298.64,375.59Z"/><path class="cls-2" d="M37.63,93.64a2.14,2.14,0,0,0-3,.09A16.92,16.92,0,0,0,30.74,102c0,.21,0,.41,0,.62-.31-2.67-1.06-6-2.89-8.44a2.14,2.14,0,0,0-3.4,2.59c1.69,2.22,2.14,6.21,2.2,8.61h8c.16-2.12.77-6.18,3.13-8.7A2.13,2.13,0,0,0,37.63,93.64Z"/></g><g id="Layer_13" data-name="Layer 13"><path class="cls-3" d="M223.7,10s19.51,42.7,28.64,63.35,25.17,57.3,25.17,57.3-17.46-1.09-50-.59c-32.86.51-51.86,1.81-51.86,1.81s38.32-93.45,41-101.68S223.7,10,223.7,10"/><path class="cls-4" d="M223.7,10s-48.65-.79-72.77-1.06-59.78-1-59.78-1S64,69.76,58.13,85.83s-22,44.93-22,44.93S173.68,132,177.2,131.87,223.7,10,223.7,10Z"/><path class="cls-5" d="M223.4,11.07s.29,46.85,0,57.81,1.47,45.62,1.37,51.08.27,8.5-.68,10.25l3.44-.15s-.19-8.9,0-13.62-1-51.16-2-64.68S223.4,11.07,223.4,11.07Z"/><path class="cls-6" d="M207.68,130.22s.86-101.36-66-102.8c-78.2-1.68-87.93,103.2-87.93,103.2l123.47,1.25Z"/><path class="cls-7" d="M126.34,246.08s-19.51,42.71-28.65,63.35-25.17,57.31-25.17,57.31,17.46-1.1,50-.6c32.85.51,51.85,1.81,51.85,1.81s-38.31-93.45-41-101.67-7.06-20.2-7.06-20.2"/><path class="cls-8" d="M126.34,246.08S175,245.29,199.1,245s59.78-1,59.78-1,27.16,61.84,33,77.91,22,44.93,22,44.93S176.36,368,172.83,368,126.34,246.08,126.34,246.08Z"/><path class="cls-5" d="M126.63,247.16s-.28,46.84,0,57.8-1.46,45.63-1.36,51.09-.27,8.5.67,10.24l-3.43-.15s.19-8.9,0-13.62,1-51.15,2-64.68S126.63,247.16,126.63,247.16Z"/><path class="cls-9" d="M142.36,366.3s-.86-101.35,66-102.79c78.2-1.69,87.93,103.19,87.93,103.19L172.83,368Z"/></g><g id="Layer_9" data-name="Layer 9"><path class="cls-8" d="M220.81,291.33l1.43,12.34-12.74,5.06,5.14,22.66s-2.56,9.26-1.9,15.65c4.18,2,33,5.86,33,5.86s-4-32.75-2.92-38.41c0-.2,8-9.69,8-9.69l-17.36-4.89-2.78-11.64Z"/><path class="cls-4" d="M230.65,288.27l-9.84,3.06,1.43,12.34-7.15,2.84c4.69,3.12,14.43,6.81,26.25-4.37l-7.91-2.23Z"/><polygon class="cls-8" points="209.5 308.73 215.34 320.31 210.62 325.6 201.43 320.31 209.5 308.73"/><polygon class="cls-9" points="231.89 293.47 221.9 300.79 220.81 291.33 230.65 288.27 231.89 293.47"/><polygon class="cls-9" points="211.03 315.48 212.72 323.25 211.15 325.12 211.03 315.48"/><path class="cls-3" d="M210.62,325.6l-12.09,15.9s-12.07-14.61-13.23-31.29c1-.16,3-.8,3-.8s7.71,10.21,9.72,17.12a62.49,62.49,0,0,1,3.38-6.22"/><path class="cls-9" d="M198.05,326.53l-.61,1.29L196.21,322A26.91,26.91,0,0,1,198.05,326.53Z"/><path class="cls-10" d="M163,343.23c-2.23,5.48-1.74,11,2.36,12.62s72.44,10.82,72.44,10.82,21.33,1.45,23,1.29,5.32-3.25-.92-2.4c1.39-.44,5-2.53.22-1.88,4-1,3.21-3,.52-2.4,2.26-.59,1-2.7-.77-1.81s-18.46-7-18.46-7-63.69-16-67.59-15.94S165.36,337.34,163,343.23Z"/><path class="cls-5" d="M208,344.23c-16.1-3.91-32.38-7.74-34.29-7.7-3.89.09-8.39.81-10.79,6.7-2.23,5.48-1.74,11,2.36,12.62,2,.79,18.87,3.34,35.85,5.76C201.77,360.16,208,344.23,208,344.23Z"/><path class="cls-4" d="M213,359.27s49.57-24.4,57.61-28.28,14.42-1.58,17.28,5,.57,12.21-4.24,14.78S240.19,366,240.19,366l-1.58-5.15s-23.32,8.11-24.93,8.11H193.27s-6.81-.49-.06-1.68c-5.08.26-5.69-1.57-.84-1.76-5.45.27-4.25-2.38-.75-2.33-4.31-.06-3.19-4.82.54-3.48s9.92-1.39,9.92-1.39S209.49,355.66,213,359.27Z"/><path class="cls-5" d="M240.19,366s38.69-12.61,43.5-15.18,7.1-8.17,4.24-14.78-9.25-8.91-17.28-5c-4.73,2.28-20.54,10.05-35.48,17.39l3.44,12.45h0Z"/><ellipse class="cls-5" cx="181.57" cy="292.81" rx="1.15" ry="0.7" transform="translate(-104.31 100.52) rotate(-24.27)"/><ellipse class="cls-5" cx="180.52" cy="290.48" rx="0.8" ry="0.49" transform="translate(-103.45 99.88) rotate(-24.27)"/><polygon class="cls-5" points="181.25 290.15 182.62 292.33 180.53 293.28 179.79 290.81 181.25 290.15"/><ellipse class="cls-5" cx="188.01" cy="293.38" rx="1.15" ry="0.7" transform="translate(-103.98 103.22) rotate(-24.27)"/><ellipse class="cls-5" cx="183.36" cy="283.07" rx="0.8" ry="0.49" transform="translate(-100.15 100.4) rotate(-24.27)"/><polygon class="cls-5" points="184.09 282.75 189.06 292.91 186.97 293.86 182.63 283.4 184.09 282.75"/><path class="cls-4" d="M195.15,304.43s1.92,2.57,1.8,3.27S196,311.48,195,312s-8.75-.22-9.27-1-6.63-14.73-6.49-15.64a41.94,41.94,0,0,1,1.9-4.84l11.23,11.66Z"/><path class="cls-3" d="M189.74,292.44c.45.36,7.52,14.63,7.21,15.26-.42.84-7.82-.37-9.31-1.51s-7-15.22-6.47-15.67S189.09,291.92,189.74,292.44Z"/><path class="cls-8" d="M183.34,292.19l5.5,1.26.23.18,1.94,3.84-.12.15-6-1.21-.17-.16-.06-.06-1.4-3.81Z"/><path class="cls-10" d="M182,296.06l3.8,9.37s.63,1.41-.2,1.49a.84.84,0,0,1-.94-.46c-.46-.46-4.09-10.14-4.09-10.14s-.4-.91,0-1.22.82.11,1,.22A2.85,2.85,0,0,1,182,296.06Z"/><polygon class="cls-10" points="186.85 297.71 186.37 297.64 185.88 298.04 186.3 299.01 186.85 299.5 187.63 299.62 186.85 297.71"/><polygon class="cls-10" points="187.04 297.74 187.84 299.64 190.77 300.18 189.81 298.24 187.04 297.74"/><polygon class="cls-10" points="190.78 298.43 190.09 298.29 190.96 300.21 191.46 300.25 191.78 299.81 191.28 298.73 190.78 298.43"/><path class="cls-10" d="M187.05,301.41h-.23l0,0h0a.32.32,0,0,1-.16-.14.2.2,0,0,1,0-.13h0c0-.11.17-.14.3,0h0l.05,0,.12.12C187.13,301.32,187.12,301.39,187.05,301.41Z"/><path class="cls-10" d="M188,301.54h-.24l0,0h0a.45.45,0,0,1-.16-.14.16.16,0,0,1,0-.13h0c0-.12.17-.14.3,0h0l.05,0a.68.68,0,0,1,.12.12C188,301.44,188,301.51,188,301.54Z"/><path class="cls-10" d="M188.8,301.65h-.24l0,0h0a.32.32,0,0,1-.16-.14.16.16,0,0,1,0-.13h0c0-.11.17-.14.3,0h0l0,0a.46.46,0,0,1,.12.12C188.87,301.56,188.86,301.63,188.8,301.65Z"/><path class="cls-10" d="M189.72,301.78h-.24l0,0h0a.38.38,0,0,1-.16-.14.16.16,0,0,1,0-.13h0c0-.12.17-.14.3,0h0l.05,0a1.36,1.36,0,0,1,.12.12C189.79,301.69,189.78,301.75,189.72,301.78Z"/><path class="cls-10" d="M190.67,301.91h-.24l0,0h0a.45.45,0,0,1-.16-.14.16.16,0,0,1,0-.13h0c0-.12.17-.14.3,0h0a.1.1,0,0,1,0,0,.43.43,0,0,1,.12.11C190.74,301.82,190.73,301.88,190.67,301.91Z"/><path class="cls-10" d="M191.59,302h-.21l0,0h0a.34.34,0,0,1-.16-.15.14.14,0,0,1,0-.12h0c0-.12.18-.14.31,0h0l.05,0a.68.68,0,0,1,.12.12C191.66,301.94,191.65,302,191.59,302Z"/><path class="cls-10" d="M192.42,302.15h-.24l0,0h0A.32.32,0,0,1,192,302a.16.16,0,0,1,0-.13h0c0-.11.18-.14.31,0h0l0,0a.34.34,0,0,1,.12.12C192.49,302.06,192.48,302.12,192.42,302.15Z"/><path class="cls-10" d="M193.33,302.28h-.2l0,0h0a.39.39,0,0,1-.16-.15.17.17,0,0,1,0-.12h0c0-.12.17-.14.3,0h0s0,0,0,0a.68.68,0,0,1,.12.12C193.4,302.18,193.39,302.25,193.33,302.28Z"/><path class="cls-10" d="M187.88,302.19h-.14l-.06,0h-.08a.32.32,0,0,1-.16-.14.14.14,0,0,1,0-.12v0c0-.11.17-.13.3,0h0l0,0a.46.46,0,0,1,.12.12C188,302.1,187.94,302.17,187.88,302.19Z"/><path class="cls-10" d="M188.71,302.31h-.23l0,0h0a.45.45,0,0,1-.16-.14.16.16,0,0,1,0-.13h0c0-.12.17-.14.3,0h0l0,0,.12.12C188.78,302.22,188.77,302.28,188.71,302.31Z"/><path class="cls-10" d="M189.63,302.43h-.15l-.06,0h-.07a.39.39,0,0,1-.16-.15.14.14,0,0,1,0-.12v0c0-.11.18-.13.31,0h0l.05,0a.46.46,0,0,1,.12.12C189.7,302.34,189.69,302.41,189.63,302.43Z"/><path class="cls-10" d="M190.58,302.57h-.2l0,0h0a.39.39,0,0,1-.16-.15.17.17,0,0,1,0-.12h0c0-.12.17-.14.3,0h0l0,0,.12.12C190.65,302.47,190.65,302.54,190.58,302.57Z"/><path class="cls-10" d="M191.5,302.69h-.15l0,0h0l0,0h0a.32.32,0,0,1-.16-.14.16.16,0,0,1,0-.13h0c0-.11.17-.14.3,0h0l.05,0a.46.46,0,0,1,.12.12C191.57,302.6,191.56,302.67,191.5,302.69Z"/><path class="cls-10" d="M192.33,302.81h-.2l0,0h0a.39.39,0,0,1-.16-.15.13.13,0,0,1,0-.12h0c0-.12.17-.14.3,0h0l0,0,.12.12C192.4,302.71,192.39,302.78,192.33,302.81Z"/><path class="cls-10" d="M193.25,302.93h-.15l-.06,0H193a.36.36,0,0,1-.16-.14.2.2,0,0,1,0-.13h0c0-.11.17-.14.3,0h0l.05,0,.12.12C193.32,302.84,193.31,302.91,193.25,302.93Z"/><path class="cls-10" d="M187.63,302.83h-.24l0,0h0a.38.38,0,0,1-.16-.14.16.16,0,0,1,0-.13h0c0-.12.18-.14.31,0h0l.05,0a.68.68,0,0,1,.12.12C187.7,302.73,187.69,302.8,187.63,302.83Z"/><path class="cls-10" d="M188.54,303h0s0,0-.06,0h0l-.06,0h-.08a.32.32,0,0,1-.16-.14.19.19,0,0,1,0-.12v0c0-.11.17-.13.3,0h0l0,0a.46.46,0,0,1,.12.12C188.61,302.86,188.6,302.93,188.54,303Z"/><path class="cls-10" d="M189.37,303.07h-.23l0,0h0a.45.45,0,0,1-.16-.14.2.2,0,0,1,0-.13h0c0-.12.17-.14.3,0h0l0,0,.12.12C189.44,303,189.43,303,189.37,303.07Z"/><path class="cls-10" d="M190.29,303.19h-.15l0,0H190a.32.32,0,0,1-.16-.14.14.14,0,0,1,0-.12v0c0-.11.18-.13.31,0h0l.05,0a.46.46,0,0,1,.12.12C190.36,303.1,190.35,303.17,190.29,303.19Z"/><path class="cls-10" d="M191.24,303.33H191l0,0h0a.39.39,0,0,1-.16-.15.17.17,0,0,1,0-.12h0c0-.12.17-.14.3,0h0a.1.1,0,0,0,.05,0l.11.12C191.31,303.23,191.31,303.3,191.24,303.33Z"/><path class="cls-10" d="M192.16,303.45h0s0,0-.06,0h-.15l0,0h0a.32.32,0,0,1-.16-.14.16.16,0,0,1,0-.13h0c0-.11.17-.14.3,0h0l.05,0a.46.46,0,0,1,.12.12C192.23,303.36,192.22,303.43,192.16,303.45Z"/><path class="cls-10" d="M193,303.57h-.2l0,0h0a.39.39,0,0,1-.16-.15.13.13,0,0,1,0-.12h0c0-.12.17-.14.3,0h0l0,0,.12.12C193.06,303.47,193.05,303.54,193,303.57Z"/><path class="cls-10" d="M193.91,303.69h-.15l-.06,0h0l0,0h0a.36.36,0,0,1-.16-.14.2.2,0,0,1,0-.13h0c0-.11.17-.14.3,0h0l.05,0a.68.68,0,0,1,.12.12C194,303.6,194,303.67,193.91,303.69Z"/><path class="cls-10" d="M188.46,303.61h-.24l0,0h0a.37.37,0,0,1-.16-.14.2.2,0,0,1,0-.13h0c0-.11.17-.14.3,0h0l.05,0,.12.11C188.53,303.52,188.52,303.58,188.46,303.61Z"/><path class="cls-10" d="M189.29,303.72h-.15l-.06,0H189a.46.46,0,0,1-.16-.15.17.17,0,0,1,0-.12v0c0-.11.17-.13.3,0h0l.05,0,.12.12C189.36,303.63,189.35,303.7,189.29,303.72Z"/><path class="cls-10" d="M190.2,303.85H190l0,0h0a.32.32,0,0,1-.16-.14.16.16,0,0,1,0-.13h0c0-.11.17-.14.3,0h0a.1.1,0,0,1,0,0,.46.46,0,0,1,.12.12C190.27,303.76,190.26,303.83,190.2,303.85Z"/><path class="cls-10" d="M191.16,304H191l-.06,0h0l0,0h0a.34.34,0,0,1-.17-.14.2.2,0,0,1,0-.13h0c0-.11.17-.14.3,0h0l.05,0a.68.68,0,0,1,.12.12C191.23,303.89,191.22,304,191.16,304Z"/><path class="cls-10" d="M192.07,304.11h-.23l-.05,0h0a.45.45,0,0,1-.16-.14.16.16,0,0,1,0-.13h0c0-.12.17-.14.3,0h0l0,0,.12.12C192.14,304,192.13,304.08,192.07,304.11Z"/><path class="cls-10" d="M192.9,304.22h-.14l-.06,0h0l0,0h0a.32.32,0,0,1-.16-.14.16.16,0,0,1,0-.13h0c0-.11.17-.14.3,0h0l0,0a.46.46,0,0,1,.12.12C193,304.13,193,304.2,192.9,304.22Z"/><path class="cls-10" d="M193.82,304.35h-.24l0,0h0a.45.45,0,0,1-.16-.14.16.16,0,0,1,0-.13h0c0-.12.18-.14.31,0h0l.05,0,.12.12C193.89,304.26,193.88,304.32,193.82,304.35Z"/><path class="cls-10" d="M187.31,300.78h-.24l0,0h0a.45.45,0,0,1-.16-.14.16.16,0,0,1,0-.13h0c0-.12.17-.14.3,0h0l.05,0a.68.68,0,0,1,.12.12C187.38,300.68,187.37,300.75,187.31,300.78Z"/><path class="cls-10" d="M188.14,300.89h0s0,0-.06,0H188l-.05,0h0l0,0h0a.32.32,0,0,1-.16-.14.16.16,0,0,1,0-.13h0c0-.11.17-.14.3,0h0l0,0a.46.46,0,0,1,.12.12C188.21,300.8,188.2,300.87,188.14,300.89Z"/><path class="cls-10" d="M189.06,301h-.24l0,0h0a.56.56,0,0,1-.16-.14.2.2,0,0,1,0-.13h0c0-.12.17-.14.3,0h0l.05,0a1.36,1.36,0,0,1,.12.12C189.13,300.93,189.12,301,189.06,301Z"/><path class="cls-10" d="M190,301.15h-.24l0,0h0a.37.37,0,0,1-.16-.14.16.16,0,0,1,0-.13h0c0-.11.17-.14.3,0h0a.1.1,0,0,1,0,0,.43.43,0,0,1,.12.11C190.08,301.06,190.07,301.12,190,301.15Z"/><path class="cls-10" d="M190.93,301.28h-.21l0,0h0a.34.34,0,0,1-.16-.15.13.13,0,0,1,0-.12h0c0-.12.17-.14.31,0h0l.05,0,.12.12C191,301.18,191,301.25,190.93,301.28Z"/><path class="cls-10" d="M191.76,301.39h-.24l0,0h0a.28.28,0,0,1-.16-.14.16.16,0,0,1,0-.13h0c0-.11.18-.14.31,0h0l0,0a.68.68,0,0,1,.12.12C191.83,301.3,191.82,301.37,191.76,301.39Z"/><path class="cls-10" d="M192.67,301.52h-.23l0,0h0a.39.39,0,0,1-.16-.15.13.13,0,0,1,0-.12h0c0-.12.17-.14.3,0h0l0,0a.68.68,0,0,1,.12.12C192.74,301.42,192.73,301.49,192.67,301.52Z"/><path class="cls-10" d="M188.2,304.24h-.15l-.05,0h-.08a.32.32,0,0,1-.16-.14.14.14,0,0,1,0-.12v0c0-.11.17-.13.3,0h0l0,0a.46.46,0,0,1,.12.12C188.27,304.15,188.26,304.22,188.2,304.24Z"/><path class="cls-10" d="M189.12,304.37h-.24l0,0h0a.56.56,0,0,1-.16-.14.2.2,0,0,1,0-.13h0c0-.12.17-.14.3,0h0l.05,0,.12.11C189.19,304.28,189.18,304.34,189.12,304.37Z"/><path class="cls-10" d="M190,304.48h-.15l-.06,0h-.08a.36.36,0,0,1-.16-.14.17.17,0,0,1,0-.12v0c0-.11.17-.13.3,0h0l0,0a.68.68,0,0,1,.12.12C190,304.39,190,304.46,190,304.48Z"/><path class="cls-10" d="M190.86,304.61h-.23l0,0h0a.37.37,0,0,1-.16-.14.16.16,0,0,1,0-.13h0c0-.11.17-.14.3,0h0l0,0a.34.34,0,0,1,.12.12C190.93,304.52,190.92,304.58,190.86,304.61Z"/><path class="cls-10" d="M191.82,304.74h-.24l0,0h0a.28.28,0,0,1-.16-.14.16.16,0,0,1,0-.13h0c0-.11.17-.14.31,0h0l.05,0a.68.68,0,0,1,.12.12C191.89,304.65,191.88,304.72,191.82,304.74Z"/><path class="cls-10" d="M192.73,304.87h-.23l0,0h0a.45.45,0,0,1-.16-.14.16.16,0,0,1,0-.13h0c0-.12.17-.14.3,0h0l0,0,.12.12C192.8,304.77,192.79,304.84,192.73,304.87Z"/><path class="cls-10" d="M193.56,305h-.14l-.06,0h0l0,0h0a.32.32,0,0,1-.16-.14.16.16,0,0,1,0-.13h0c0-.11.17-.14.3,0h0l0,0a.46.46,0,0,1,.12.12C193.63,304.89,193.62,305,193.56,305Z"/><path class="cls-10" d="M194.48,305.11h-.24l0,0h0a.45.45,0,0,1-.16-.14.16.16,0,0,1,0-.13h0c0-.12.18-.14.31,0h0l0,0,.12.12C194.55,305,194.54,305.08,194.48,305.11Z"/><path class="cls-10" d="M189,305h-.21l0,0h0a.39.39,0,0,1-.16-.15.13.13,0,0,1,0-.12h0c0-.12.18-.14.31,0h0l.05,0a.68.68,0,0,1,.12.12C189.1,304.93,189.09,305,189,305Z"/><path class="cls-10" d="M189.86,305.14h-.24l0,0h0a.32.32,0,0,1-.16-.14.16.16,0,0,1,0-.13h0c0-.11.18-.14.31,0h0l0,0a.46.46,0,0,1,.12.12C189.93,305.05,189.92,305.12,189.86,305.14Z"/><path class="cls-10" d="M190.77,305.27h-.2l0,0h0a.39.39,0,0,1-.16-.15.17.17,0,0,1,0-.12h0c0-.12.17-.14.3,0h0l0,0a.68.68,0,0,1,.12.12C190.84,305.17,190.84,305.24,190.77,305.27Z"/><path class="cls-10" d="M191.73,305.4h-.24l0,0h0a.45.45,0,0,1-.16-.14.16.16,0,0,1,0-.13h0c0-.12.18-.14.31,0h0l0,0a.68.68,0,0,1,.12.12C191.8,305.31,191.79,305.37,191.73,305.4Z"/><path class="cls-10" d="M192.64,305.52h0a.06.06,0,0,1-.06,0h-.05l-.06,0h-.08a.39.39,0,0,1-.16-.15.17.17,0,0,1,0-.12v0c0-.11.17-.13.3,0h0l.05,0,.12.12C192.72,305.43,192.71,305.5,192.64,305.52Z"/><path class="cls-10" d="M193.48,305.64h-.24l0,0h0a.45.45,0,0,1-.16-.14.2.2,0,0,1,0-.13h0c0-.12.17-.14.3,0h0l0,0,.12.12C193.55,305.55,193.54,305.61,193.48,305.64Z"/><path class="cls-10" d="M194.39,305.76h-.15l-.05,0h-.08a.39.39,0,0,1-.16-.15.14.14,0,0,1,0-.12v0c0-.11.17-.13.3,0h0l0,0a.68.68,0,0,1,.12.12C194.46,305.67,194.45,305.74,194.39,305.76Z"/><path class="cls-10" d="M188.73,305.56h-.24l0,0h0a.45.45,0,0,1-.16-.14.16.16,0,0,1,0-.13h0c0-.12.17-.14.3,0h0l0,0,.12.12C188.8,305.47,188.79,305.53,188.73,305.56Z"/><path class="cls-10" d="M189.65,305.68h-.15l-.06,0h-.07a.34.34,0,0,1-.16-.15.14.14,0,0,1,0-.12v0c0-.11.18-.13.31,0h0l.05,0a.46.46,0,0,1,.12.12C189.72,305.59,189.71,305.66,189.65,305.68Z"/><path class="cls-10" d="M190.48,305.8h-.24l0,0h0a.38.38,0,0,1-.16-.14.16.16,0,0,1,0-.13h0c0-.12.18-.14.31,0h0l0,0a.43.43,0,0,1,.12.11C190.55,305.71,190.54,305.77,190.48,305.8Z"/><path class="cls-10" d="M191.39,305.92h-.14l-.06,0h-.08a.39.39,0,0,1-.16-.15.17.17,0,0,1,0-.12v0c0-.11.17-.13.3,0h0l0,0,.12.12C191.46,305.83,191.45,305.9,191.39,305.92Z"/><path class="cls-10" d="M192.35,306.06h-.21l0,0h0a.39.39,0,0,1-.16-.15.13.13,0,0,1,0-.12h0c0-.12.18-.14.31,0h0l.05,0,.12.12C192.42,306,192.41,306,192.35,306.06Z"/><path class="cls-10" d="M193.26,306.18h-.14l-.06,0H193a.32.32,0,0,1-.16-.14.2.2,0,0,1,0-.13h0c0-.11.17-.14.3,0h0l0,0a.63.63,0,0,1,.11.12C193.33,306.09,193.33,306.16,193.26,306.18Z"/><path class="cls-10" d="M194.09,306.3h-.23l0,0h0a.45.45,0,0,1-.16-.14.2.2,0,0,1,0-.13h0c0-.12.17-.14.3,0h0a.1.1,0,0,0,.05,0l.11.12C194.17,306.2,194.16,306.27,194.09,306.3Z"/><path class="cls-10" d="M195,306.42h-.15l-.05,0h-.08a.32.32,0,0,1-.16-.14.14.14,0,0,1,0-.12v0c0-.11.17-.13.3,0h0l0,0a.46.46,0,0,1,.12.12C195.08,306.33,195.07,306.4,195,306.42Z"/><path class="cls-10" d="M189.56,306.34h-.24l0,0h0a.32.32,0,0,1-.16-.14.16.16,0,0,1,0-.13h0c0-.11.17-.14.3,0h0l.05,0a.46.46,0,0,1,.12.12C189.63,306.25,189.62,306.32,189.56,306.34Z"/><path class="cls-10" d="M190.39,306.46h-.15l-.05,0h-.08a.39.39,0,0,1-.16-.15.14.14,0,0,1,0-.12v0c0-.11.17-.13.3,0h0l0,0a.68.68,0,0,1,.12.12C190.46,306.36,190.45,306.43,190.39,306.46Z"/><path class="cls-10" d="M191.31,306.58h-.24l0,0h0a.36.36,0,0,1-.16-.14.2.2,0,0,1,0-.13h0c0-.11.17-.14.3,0h0l.05,0,.12.12C191.38,306.49,191.37,306.56,191.31,306.58Z"/><path class="cls-10" d="M192.26,306.71h-.15l-.05,0H192a.32.32,0,0,1-.16-.14.14.14,0,0,1,0-.12v0c0-.11.17-.13.3,0h0l0,0a.46.46,0,0,1,.12.12C192.33,306.62,192.32,306.69,192.26,306.71Z"/><path class="cls-10" d="M193.18,306.84h-.24l0,0h0a.49.49,0,0,1-.17-.14.2.2,0,0,1,0-.13h0c0-.12.17-.14.3,0h0l.05,0a.63.63,0,0,1,.12.11C193.25,306.75,193.24,306.81,193.18,306.84Z"/><path class="cls-10" d="M194,307h0a.11.11,0,0,1-.06,0h0l-.06,0h-.07a.28.28,0,0,1-.16-.14.14.14,0,0,1,0-.12v0c0-.11.17-.13.31,0h0l0,0a.68.68,0,0,1,.12.12C194.08,306.86,194.07,306.93,194,307Z"/><path class="cls-10" d="M194.92,307.08h-.23l0,0h0a.45.45,0,0,1-.16-.14.16.16,0,0,1,0-.13h0c0-.12.17-.14.3,0h0s0,0,0,0a.43.43,0,0,1,.12.11C195,307,195,307.05,194.92,307.08Z"/><path class="cls-3" d="M180.22,298.82c1-1.1,2.52-1.08,3,.06s2.62,5.24,2.62,5.24.88.2-1.8,2.85c.57,1.25,1.72,4,1.72,4l-.13,2.25s-6.64-6.61-6.75-10.61A9.79,9.79,0,0,1,180.22,298.82Z"/></g><g id="Layer_12" data-name="Layer 12"><path class="cls-3" d="M215.77,268l-10.41,15.6,5,.44,3,11.84a2.24,2.24,0,0,0,2.14.41l22.22-7.54-11.1-24.56Z"/><path class="cls-1" d="M222.13,265.84s3.05,2.84,3.79,5.65-1.41,8.91-.59,12.68c1.09,5,4.61,5.54,6.25,12,1.75,6.93-3.87,12.25-4.56,18.84s.73,12.3,2.45,15c.11-.08,9.83-3.27,9.83-3.27s-2.54-3.76-2.79-7.37,2.93-12.93,4.92-16.77c2.49,1.11,5.11,2.11,5.11,2.11s3.67-5.47,2-10.62-6.7-6.07-7.78-10.65,1.32-9.25.44-13.65c-.81-4-3.57-5.43-8-6.2S222.13,265.84,222.13,265.84Z"/><path class="cls-2" d="M213.12,276.3c.39,3.2,7.85,2.53,8.44-1.79C220.14,271.54,213.8,272.21,213.12,276.3Z"/><path class="cls-5" d="M213.12,276.3c.17,1.37,1.64,2,3.31,2a2,2,0,0,0,.4-.73,2.51,2.51,0,0,0-.11-1.69,2.27,2.27,0,0,0-2.24-1.95A3.9,3.9,0,0,0,213.12,276.3Z"/><path class="cls-5" d="M219.89,270.78c-.72-.9-2.89-.51-3.85-.26s-3.2,1.14-3.3,2.42a.5.5,0,0,0,.84.35,7.58,7.58,0,0,1,6.21-2.26C219.93,271,220,270.86,219.89,270.78Z"/><path class="cls-5" d="M216.88,286.08a6.56,6.56,0,0,1-2.8,2,7.69,7.69,0,0,1-2.64.12c0,.13.17.69.21.83a7.45,7.45,0,0,0,2.24,0c1.35-.24,3.18-1.17,3.18-2.76C217.07,286.13,217,286,216.88,286.08Z"/></g><g id="Layer_11" data-name="Layer 11"><path class="cls-11" d="M115.93,131.47s-13-.11-15.74,0-4.45-1.82-.75-1.9c-2.34.28-3.62-2.48,0-2.48-2.3.31-4.82-2.58-.69-2.12-2.15,0-3.65-3.73-.5-3.74s17.68-2.64,17.68-2.64Z"/><path class="cls-1" d="M149.18,70.22s11.87,18.31,13.61,22.36a113.15,113.15,0,0,1-3.64,13.18S143.59,88.11,142.52,79C145.24,75.72,149.18,70.22,149.18,70.22Z"/><path class="cls-8" d="M156.88,82.37a44.77,44.77,0,0,1-9.78,7.28c-6.4-4.18-3-19.43-3-19.43h5.07Z"/><path class="cls-1" d="M167.74,74.08S158,90,158.58,94.3a99.63,99.63,0,0,1,.57,11.46S171.57,93,173.74,75.1A15.08,15.08,0,0,0,167.74,74.08Z"/><polygon class="cls-9" points="158.96 85.76 158.84 92.03 160.31 87.99 158.96 85.76"/><ellipse class="cls-5" cx="168.54" cy="58.51" rx="0.7" ry="1.15" transform="translate(45.92 188.1) rotate(-65.73)"/><ellipse class="cls-5" cx="169.59" cy="56.18" rx="0.49" ry="0.8" transform="matrix(0.41, -0.91, 0.91, 0.41, 48.66, 187.69)"/><polygon class="cls-5" points="168.87 55.85 167.5 58.04 169.59 58.98 170.32 56.51 168.87 55.85"/><ellipse class="cls-5" cx="173.97" cy="58.52" rx="0.7" ry="1.15" transform="translate(49.11 193.06) rotate(-65.73)"/><ellipse class="cls-5" cx="178.62" cy="48.21" rx="0.49" ry="0.8" transform="translate(61.25 191.22) rotate(-65.73)"/><polygon class="cls-5" points="177.89 47.88 172.93 58.05 175.02 58.99 179.35 48.54 177.89 47.88"/><path class="cls-4" d="M160.66,69.79s-1.92,2.58-1.8,3.27.93,3.78,1.92,4.3,8.75-.22,9.27-1,6.63-14.72,6.49-15.63a41.94,41.94,0,0,0-1.9-4.84L163.41,67.54Z"/><path class="cls-3" d="M166.07,57.8c-.45.36-7.52,14.64-7.21,15.26.42.85,7.82-.37,9.31-1.51s7-15.22,6.47-15.66S166.72,57.28,166.07,57.8Z"/><path class="cls-8" d="M172.47,57.55,167,58.81a1.3,1.3,0,0,1-.23.18l-1.94,3.84.12.15L171,61.77l.17-.15.06-.06,1.4-3.82A2.14,2.14,0,0,1,172.47,57.55Z"/><path class="cls-10" d="M173.79,61.42,170,70.79s-.63,1.41.2,1.49a.84.84,0,0,0,.94-.46c.46-.45,4.09-10.14,4.09-10.14s.4-.9,0-1.21-.82.1-1,.21A3,3,0,0,0,173.79,61.42Z"/><polygon class="cls-10" points="168.96 63.08 169.44 63.01 169.93 63.4 169.51 64.37 168.96 64.87 168.18 64.98 168.96 63.08"/><polygon class="cls-10" points="168.77 63.1 167.97 65 165.04 65.55 166 63.6 168.77 63.1"/><polygon class="cls-10" points="165.03 63.79 165.72 63.66 164.85 65.57 164.35 65.61 164.03 65.18 164.53 64.09 165.03 63.79"/><path class="cls-10" d="M168.76,66.77h.14l.06,0H169a.39.39,0,0,0,.16-.15.17.17,0,0,0,0-.12v0c0-.11-.17-.13-.3,0h0l-.05,0-.12.12C168.68,66.68,168.69,66.75,168.76,66.77Z"/><path class="cls-10" d="M167.84,66.9h.24l0,0h0a.32.32,0,0,0,.16-.14.16.16,0,0,0,0-.13h0c0-.11-.17-.14-.3,0h0a.1.1,0,0,0-.05,0,.46.46,0,0,0-.12.12C167.77,66.81,167.78,66.88,167.84,66.9Z"/><path class="cls-10" d="M167,67h.15l.05,0h.08a.39.39,0,0,0,.16-.15.14.14,0,0,0,0-.12v0c0-.11-.17-.13-.3,0h0l0,0a.68.68,0,0,0-.12.12C166.94,66.92,167,67,167,67Z"/><path class="cls-10" d="M166.09,67.14h.24l0,0h0a.28.28,0,0,0,.16-.14.16.16,0,0,0,0-.13h0c0-.11-.17-.14-.3,0h0l-.05,0a.68.68,0,0,0-.12.12C166,67.05,166,67.12,166.09,67.14Z"/><path class="cls-10" d="M165.14,67.27h0s0,0,.06,0h.05l.06,0h.08a.32.32,0,0,0,.16-.14.16.16,0,0,0,0-.13h0c0-.11-.17-.13-.3,0h0l0,0a.46.46,0,0,0-.12.12C165.07,67.18,165.08,67.25,165.14,67.27Z"/><path class="cls-10" d="M164.22,67.4h.24l0,0h0a.38.38,0,0,0,.16-.14.16.16,0,0,0,0-.13h0c0-.12-.18-.14-.31,0h0l-.05,0a.43.43,0,0,0-.12.11C164.15,67.31,164.16,67.37,164.22,67.4Z"/><path class="cls-10" d="M163.39,67.51h0a.11.11,0,0,0,.06,0h0l.06,0h.07a.28.28,0,0,0,.16-.14.14.14,0,0,0,0-.12v0c0-.11-.18-.13-.31,0h0l0,0a.46.46,0,0,0-.12.12C163.32,67.42,163.33,67.49,163.39,67.51Z"/><path class="cls-10" d="M162.48,67.64h.23l0,0h0a.45.45,0,0,0,.16-.14.2.2,0,0,0,0-.13h0c0-.12-.17-.14-.3,0h0s0,0,0,0a.43.43,0,0,0-.12.11C162.41,67.55,162.42,67.61,162.48,67.64Z"/><path class="cls-10" d="M167.93,67.56h.23l0,0h0a.45.45,0,0,0,.16-.14.16.16,0,0,0,0-.13h0c0-.12-.17-.14-.3,0h0s0,0,0,0a.68.68,0,0,0-.12.12C167.86,67.46,167.87,67.53,167.93,67.56Z"/><path class="cls-10" d="M167.1,67.67h.23l0,0h0a.32.32,0,0,0,.16-.14.16.16,0,0,0,0-.13h0c0-.11-.17-.14-.3,0h0l0,0a.46.46,0,0,0-.12.12C167,67.58,167,67.65,167.1,67.67Z"/><path class="cls-10" d="M166.18,67.8h.24l0,0h0a.45.45,0,0,0,.16-.14.16.16,0,0,0,0-.13h0c0-.12-.18-.14-.31,0h0l-.05,0a.68.68,0,0,0-.12.12C166.11,67.7,166.12,67.77,166.18,67.8Z"/><path class="cls-10" d="M165.23,67.93h.23l0,0h0a.45.45,0,0,0,.16-.14.2.2,0,0,0,0-.13h0c0-.12-.17-.14-.3,0h0s0,0,0,0a.43.43,0,0,0-.12.11C165.16,67.84,165.16,67.9,165.23,67.93Z"/><path class="cls-10" d="M164.31,68.06h.15l0,0h.08a.39.39,0,0,0,.16-.15.14.14,0,0,0,0-.12v0c0-.11-.17-.13-.3,0h0l-.05,0a.68.68,0,0,0-.12.12C164.24,68,164.25,68,164.31,68.06Z"/><path class="cls-10" d="M163.48,68.17h.24l0,0h0a.45.45,0,0,0,.16-.14.16.16,0,0,0,0-.13h0c0-.12-.17-.14-.3,0h0a.1.1,0,0,0,0,0,.43.43,0,0,0-.12.11C163.41,68.08,163.42,68.14,163.48,68.17Z"/><path class="cls-10" d="M162.56,68.3h.21l0,0h0a.46.46,0,0,0,.16-.15.17.17,0,0,0,0-.12h0c0-.12-.17-.14-.3,0h0l-.05,0-.12.12C162.49,68.2,162.5,68.27,162.56,68.3Z"/><path class="cls-10" d="M168.18,68.19h.24l0,0h0a.28.28,0,0,0,.16-.14.16.16,0,0,0,0-.13h0c0-.11-.18-.14-.31,0h0l-.05,0a.46.46,0,0,0-.12.12C168.11,68.1,168.12,68.17,168.18,68.19Z"/><path class="cls-10" d="M167.27,68.32h.23l0,0h0a.39.39,0,0,0,.16-.15.17.17,0,0,0,0-.12h0c0-.12-.17-.14-.3,0h0s0,0,0,0a.68.68,0,0,0-.12.12C167.2,68.22,167.21,68.29,167.27,68.32Z"/><path class="cls-10" d="M166.44,68.43h.23l0,0h0a.32.32,0,0,0,.16-.14.2.2,0,0,0,0-.13h0c0-.11-.17-.14-.3,0h0l0,0a.46.46,0,0,0-.12.12C166.37,68.34,166.38,68.41,166.44,68.43Z"/><path class="cls-10" d="M165.52,68.56h.24l0,0h0a.45.45,0,0,0,.16-.14.16.16,0,0,0,0-.13h0c0-.12-.18-.14-.31,0h0l0,0a.68.68,0,0,0-.12.12C165.45,68.46,165.46,68.53,165.52,68.56Z"/><path class="cls-10" d="M164.57,68.69h.23l0,0h0a.45.45,0,0,0,.16-.14.2.2,0,0,0,0-.13h0c0-.12-.17-.14-.3,0h0l-.05,0-.11.11C164.5,68.6,164.5,68.66,164.57,68.69Z"/><path class="cls-10" d="M163.65,68.81h.15l0,0h.08a.39.39,0,0,0,.16-.15.14.14,0,0,0,0-.12v0c0-.11-.17-.13-.3,0h0l-.05,0a.68.68,0,0,0-.12.12C163.58,68.72,163.59,68.79,163.65,68.81Z"/><path class="cls-10" d="M162.82,68.93h.24l0,0h0a.45.45,0,0,0,.16-.14.16.16,0,0,0,0-.13h0c0-.12-.17-.14-.3,0h0a.1.1,0,0,0-.05,0,.43.43,0,0,0-.12.11C162.75,68.84,162.76,68.9,162.82,68.93Z"/><path class="cls-10" d="M161.9,69.06h.15l.06,0h.08a.46.46,0,0,0,.16-.15.17.17,0,0,0,0-.12h0c0-.12-.17-.14-.3,0h0l-.05,0a1.36,1.36,0,0,0-.12.12C161.83,69,161.84,69,161.9,69.06Z"/><path class="cls-10" d="M167.35,69h.15l.06,0h.08a.32.32,0,0,0,.16-.14.17.17,0,0,0,0-.12v0c0-.11-.17-.13-.3,0h0l-.05,0-.12.12C167.28,68.88,167.29,69,167.35,69Z"/><path class="cls-10" d="M166.52,69.09h.24l0,0h0a.56.56,0,0,0,.16-.14.2.2,0,0,0,0-.13h0c0-.12-.17-.14-.3,0h0l0,0-.12.12C166.45,69,166.46,69.06,166.52,69.09Z"/><path class="cls-10" d="M165.61,69.21h0a.06.06,0,0,0,.06,0h.06l.05,0h.08a.32.32,0,0,0,.16-.14.14.14,0,0,0,0-.12v0c0-.11-.17-.13-.3,0h0l0,0a.46.46,0,0,0-.12.12C165.54,69.12,165.55,69.19,165.61,69.21Z"/><path class="cls-10" d="M164.65,69.35h.15l.06,0h.07a.42.42,0,0,0,.17-.15.17.17,0,0,0,0-.12v0c0-.11-.17-.13-.3,0h0l-.05,0a1.36,1.36,0,0,0-.12.12C164.58,69.25,164.59,69.32,164.65,69.35Z"/><path class="cls-10" d="M163.74,69.47H164l.05,0h0a.32.32,0,0,0,.16-.14.16.16,0,0,0,0-.13h0c0-.11-.17-.14-.3,0h0s0,0,0,0a.46.46,0,0,0-.12.12C163.67,69.38,163.68,69.45,163.74,69.47Z"/><path class="cls-10" d="M162.91,69.59h.2l0,0h.05a.39.39,0,0,0,.16-.15.14.14,0,0,0,0-.12h0c0-.12-.17-.14-.3,0h0l0,0a.68.68,0,0,0-.12.12C162.84,69.49,162.85,69.56,162.91,69.59Z"/><path class="cls-10" d="M162,69.71h0s0,0,.06,0h.15l0,0h0a.32.32,0,0,0,.16-.14.16.16,0,0,0,0-.13h0c0-.11-.18-.14-.31,0h0l0,0a.46.46,0,0,0-.12.12C161.92,69.62,161.93,69.69,162,69.71Z"/><path class="cls-10" d="M168.5,66.14h.24l0,0h0a.32.32,0,0,0,.16-.14.16.16,0,0,0,0-.13h0c0-.11-.17-.14-.3,0h0a.1.1,0,0,0-.05,0,.46.46,0,0,0-.12.12C168.43,66.05,168.44,66.12,168.5,66.14Z"/><path class="cls-10" d="M167.67,66.26h.2l0,0h0a.39.39,0,0,0,.16-.15.14.14,0,0,0,0-.12h0c0-.12-.17-.14-.3,0h0l0,0a.68.68,0,0,0-.12.12C167.6,66.16,167.61,66.23,167.67,66.26Z"/><path class="cls-10" d="M166.75,66.38h0a.11.11,0,0,0,.06,0H167l0,0h0a.36.36,0,0,0,.16-.14.2.2,0,0,0,0-.13h0c0-.11-.17-.14-.3,0h0l-.05,0a.68.68,0,0,0-.12.12C166.68,66.29,166.69,66.36,166.75,66.38Z"/><path class="cls-10" d="M165.8,66.51h0s0,0,.06,0H166l.05,0h.08a.32.32,0,0,0,.16-.14.14.14,0,0,0,0-.12v0c0-.11-.17-.13-.3,0h0l0,0a.46.46,0,0,0-.12.12C165.73,66.42,165.74,66.49,165.8,66.51Z"/><path class="cls-10" d="M164.88,66.64h.24l0,0h0a.38.38,0,0,0,.16-.14.16.16,0,0,0,0-.13h0c0-.12-.17-.14-.31,0h0l-.05,0a.63.63,0,0,0-.12.11C164.81,66.55,164.82,66.61,164.88,66.64Z"/><path class="cls-10" d="M164.05,66.75h.15l.06,0h.07a.28.28,0,0,0,.16-.14.14.14,0,0,0,0-.12v0c0-.11-.18-.13-.31,0h0l0,0a.46.46,0,0,0-.12.12C164,66.66,164,66.73,164.05,66.75Z"/><path class="cls-10" d="M163.14,66.88h.23l0,0h0a.37.37,0,0,0,.16-.14.16.16,0,0,0,0-.13h0c0-.12-.17-.14-.3,0h0s0,0,0,0a.43.43,0,0,0-.12.11C163.07,66.79,163.08,66.85,163.14,66.88Z"/><path class="cls-10" d="M167.61,69.61h.24l0,0h0a.39.39,0,0,0,.16-.15.13.13,0,0,0,0-.12h0c0-.12-.17-.14-.3,0h0l0,0a.68.68,0,0,0-.12.12C167.54,69.51,167.55,69.58,167.61,69.61Z"/><path class="cls-10" d="M166.69,69.73h0a.11.11,0,0,0,.06,0h.05l.06,0H167a.36.36,0,0,0,.16-.14.2.2,0,0,0,0-.13h0c0-.11-.17-.13-.3,0h0l-.05,0-.12.12C166.62,69.64,166.63,69.71,166.69,69.73Z"/><path class="cls-10" d="M165.86,69.85h.24l0,0h0a.56.56,0,0,0,.16-.14.2.2,0,0,0,0-.13h0c0-.12-.17-.14-.3,0h0l0,0a1.36,1.36,0,0,0-.12.12C165.79,69.75,165.8,69.82,165.86,69.85Z"/><path class="cls-10" d="M165,70h.14l.06,0h.08a.32.32,0,0,0,.16-.14.14.14,0,0,0,0-.12v0c0-.11-.17-.13-.3,0h0l0,0a.46.46,0,0,0-.12.12C164.88,69.88,164.89,70,165,70Z"/><path class="cls-10" d="M164,70.1h.15l.06,0h.07a.34.34,0,0,0,.16-.15.14.14,0,0,0,0-.12v0c0-.11-.17-.13-.31,0h0l0,0-.12.12C163.92,70,163.93,70.08,164,70.1Z"/><path class="cls-10" d="M163.08,70.23h.23l0,0h0a.32.32,0,0,0,.16-.14.16.16,0,0,0,0-.13h0c0-.11-.17-.14-.3,0h0s0,0,0,0a.46.46,0,0,0-.12.12C163,70.14,163,70.21,163.08,70.23Z"/><path class="cls-10" d="M162.25,70.35h.14l.06,0h.08a.39.39,0,0,0,.16-.15.14.14,0,0,0,0-.12v0c0-.11-.17-.13-.3,0h0s0,0,0,0a.68.68,0,0,0-.12.12C162.18,70.25,162.19,70.32,162.25,70.35Z"/><path class="cls-10" d="M161.33,70.47h.24l0,0h0a.32.32,0,0,0,.16-.14.16.16,0,0,0,0-.13h0c0-.11-.18-.14-.31,0h0l0,0a.46.46,0,0,0-.12.12C161.26,70.38,161.27,70.45,161.33,70.47Z"/><path class="cls-10" d="M166.78,70.39H167l0,0h0a.45.45,0,0,0,.16-.14.16.16,0,0,0,0-.13h0c0-.12-.18-.14-.31,0h0l-.05,0a.43.43,0,0,0-.12.11C166.71,70.3,166.72,70.36,166.78,70.39Z"/><path class="cls-10" d="M166,70.5h.15l.06,0h.07a.32.32,0,0,0,.16-.14.14.14,0,0,0,0-.12v0c0-.11-.18-.13-.31,0h0l0,0a.46.46,0,0,0-.12.12C165.88,70.41,165.89,70.48,166,70.5Z"/><path class="cls-10" d="M165,70.63h.23l0,0h0a.45.45,0,0,0,.16-.14.2.2,0,0,0,0-.13h0c0-.12-.17-.14-.3,0h0l0,0a.43.43,0,0,0-.12.11C165,70.54,165,70.6,165,70.63Z"/><path class="cls-10" d="M164.08,70.76h.24l0,0h0a.32.32,0,0,0,.16-.14.16.16,0,0,0,0-.13h0c0-.11-.18-.14-.31,0h0l0,0a.46.46,0,0,0-.12.12C164,70.67,164,70.74,164.08,70.76Z"/><path class="cls-10" d="M163.17,70.89h.23l0,0h0a.45.45,0,0,0,.16-.14.2.2,0,0,0,0-.13h0c0-.12-.17-.14-.3,0h0l-.05,0-.12.12C163.09,70.79,163.1,70.86,163.17,70.89Z"/><path class="cls-10" d="M162.33,71h.24a.05.05,0,0,0,0,0h0a.32.32,0,0,0,.16-.14.2.2,0,0,0,0-.13h0c0-.11-.17-.14-.3,0h0l0,0a1.36,1.36,0,0,0-.12.12C162.26,70.91,162.27,71,162.33,71Z"/><path class="cls-10" d="M161.42,71.13h.24l0,0h0a.45.45,0,0,0,.16-.14.16.16,0,0,0,0-.13h0c0-.12-.17-.14-.3,0h0l0,0a.68.68,0,0,0-.12.12C161.35,71,161.36,71.1,161.42,71.13Z"/><path class="cls-10" d="M167.08,70.92h.23l.05,0h0a.32.32,0,0,0,.16-.14.16.16,0,0,0,0-.13h0c0-.11-.17-.14-.3,0h0a.1.1,0,0,0,0,0,.46.46,0,0,0-.12.12C167,70.83,167,70.9,167.08,70.92Z"/><path class="cls-10" d="M166.16,71.05h.24l0,0h0a.38.38,0,0,0,.16-.14.16.16,0,0,0,0-.13h0c0-.12-.18-.14-.31,0h0l-.05,0-.12.12C166.09,71,166.1,71,166.16,71.05Z"/><path class="cls-10" d="M165.33,71.16h0a.11.11,0,0,0,.06,0h0l.06,0h0l0,0h0a.28.28,0,0,0,.16-.14.16.16,0,0,0,0-.13h0c0-.11-.18-.14-.31,0h0l0,0a.46.46,0,0,0-.12.12C165.26,71.07,165.27,71.14,165.33,71.16Z"/><path class="cls-10" d="M164.42,71.29h.23l0,0h0a.45.45,0,0,0,.16-.14.2.2,0,0,0,0-.13h0c0-.12-.17-.14-.3,0h0l0,0a.68.68,0,0,0-.12.12C164.35,71.2,164.36,71.26,164.42,71.29Z"/><path class="cls-10" d="M163.46,71.42h.24l0,0h0a.45.45,0,0,0,.16-.14.16.16,0,0,0,0-.13h0c0-.12-.18-.14-.31,0h0l-.05,0a.43.43,0,0,0-.12.11C163.39,71.33,163.4,71.39,163.46,71.42Z"/><path class="cls-10" d="M162.55,71.55h.2l0,0h.05a.39.39,0,0,0,.16-.15.17.17,0,0,0,0-.12h0c0-.12-.17-.14-.3,0h0a.1.1,0,0,1-.05,0l-.11.12C162.48,71.45,162.48,71.52,162.55,71.55Z"/><path class="cls-10" d="M161.72,71.66H162l0,0h0a.32.32,0,0,0,.16-.14.2.2,0,0,0,0-.13h0c0-.11-.17-.14-.3,0h0l-.05,0a.63.63,0,0,0-.11.12C161.64,71.57,161.65,71.64,161.72,71.66Z"/><path class="cls-10" d="M160.8,71.79h.2l0,0h0a.39.39,0,0,0,.16-.15.13.13,0,0,0,0-.12h0c0-.12-.17-.14-.3,0h0l0,0a.68.68,0,0,0-.12.12C160.73,71.69,160.74,71.76,160.8,71.79Z"/><path class="cls-10" d="M166.25,71.7h0a.06.06,0,0,0,.06,0h.06l0,0h.08a.39.39,0,0,0,.16-.15.14.14,0,0,0,0-.12v0c0-.11-.17-.13-.3,0h0l-.05,0a.46.46,0,0,0-.12.12C166.18,71.61,166.19,71.68,166.25,71.7Z"/><path class="cls-10" d="M165.42,71.82h.24l0,0h0a.45.45,0,0,0,.16-.14.16.16,0,0,0,0-.13h0c0-.12-.17-.14-.3,0h0l0,0a.68.68,0,0,0-.12.12C165.35,71.73,165.36,71.79,165.42,71.82Z"/><path class="cls-10" d="M164.5,71.94h.15l.06,0h.08a.46.46,0,0,0,.16-.15.17.17,0,0,0,0-.12v0c0-.11-.17-.13-.3,0h0l-.05,0-.12.12C164.43,71.85,164.44,71.92,164.5,71.94Z"/><path class="cls-10" d="M163.55,72.08h.2l0,0h0a.39.39,0,0,0,.16-.15.13.13,0,0,0,0-.12h0c0-.12-.17-.14-.3,0h0l0,0a.68.68,0,0,0-.12.12C163.48,72,163.49,72.05,163.55,72.08Z"/><path class="cls-10" d="M162.63,72.2h0a.11.11,0,0,0,.06,0h.05l.06,0h0l0,0h0a.28.28,0,0,0,.16-.14.16.16,0,0,0,0-.13h0c0-.11-.17-.14-.3,0h0l-.05,0a.68.68,0,0,0-.12.12C162.56,72.11,162.57,72.18,162.63,72.2Z"/><path class="cls-10" d="M161.8,72.32H162l0,0h0a.34.34,0,0,0,.16-.15.13.13,0,0,0,0-.12h0c0-.12-.17-.14-.31,0h0l0,0a1.36,1.36,0,0,0-.12.12C161.73,72.22,161.74,72.29,161.8,72.32Z"/><path class="cls-10" d="M160.89,72.44H161l.06,0h.08a.32.32,0,0,0,.16-.14.16.16,0,0,0,0-.13h0c0-.11-.17-.13-.3,0h0l0,0a.46.46,0,0,0-.12.12C160.82,72.35,160.83,72.42,160.89,72.44Z"/><path class="cls-1" d="M173.74,75.1s4.22-5.17,1.34-8.88c-.73-1-1.08-3.29-3.87-2.56-.66,1-2.59,5-2,5.48s2.33,1.39,2.56,3.62l-1.29,2.81Z"/><path class="cls-1" d="M163.34,63s-.68-.58-1.23.67a5.75,5.75,0,0,0-.36,2.7Z"/><path class="cls-7" d="M125.14,63.44l-16.07,4.81L108.71,115l39.54-2.81s.28-13.62-1.49-19.24c.79-5.35,2.42-22.76,2.42-22.76l-10.59-4.17Z"/><path class="cls-1" d="M128.76,51.78s-1.68,9.27-3.62,11.66,12.84,9.72,13.41,3,.57-10.11.57-10.11Z"/><path class="cls-11" d="M145.29,38.75s2.76,7.38,5.57,10A19.1,19.1,0,0,1,145.7,50Z"/><path class="cls-1" d="M144,33s6.46,20.67,3.49,33c-6.78-.82-20-3.21-27.57-28.34C122.62,34.28,133.15,26.21,144,33Z"/><path class="cls-12" d="M123.64,34.31a22.79,22.79,0,0,1,2-1.25A1.17,1.17,0,0,0,123.64,34.31Z"/><path class="cls-5" d="M119.9,37.69c7.58,25.13,20.79,27.52,27.57,28.34,1.19-5,1-10.44.16-16.21-3-.38-10.68,0-14.51,1.91-.16-.35-.33-.69-.48-1-2.46-5.72-3.36-12.36-6.94-17.5l-.1-.12C124.18,32.9,120.57,35.92,119.9,37.69Z"/><path class="cls-8" d="M142.2,20,144,33s-18.37,1.9-24.08,4.68c.94-3.89,5.37-12.6,5.37-12.6A34.54,34.54,0,0,1,142.2,20Z"/><path class="cls-2" d="M142.2,20a32.72,32.72,0,0,0-7,.95,67.15,67.15,0,0,0-1.73,13.43C139,33.52,144,33,144,33Z"/><path class="cls-8" d="M142.73,33.12l16.52-1.45S152.45,44.15,142.73,33.12Z"/><path class="cls-2" d="M130.15,39.62c1.88,3.37,8.36,7.63,13.69.75C143.57,37.23,134,32.21,130.15,39.62Z"/><path class="cls-5" d="M143.84,40.37c-.1-1.1-1.34-2.44-3.09-3.39a4.6,4.6,0,0,0-1.57,6.83A9.11,9.11,0,0,0,143.84,40.37Z"/><path class="cls-5" d="M141.45,34.06c-3.7.16-8.1.51-11.46,2.17-.42.21-.19.81.23.83,1.48.07,3-.57,4.46-.84a37.55,37.55,0,0,1,6.77-.69C142.39,35.53,142.39,34,141.45,34.06Z"/><path class="cls-2" d="M146.66,52.55c-1.44,1.05-4.86.3-5.34-1.54a.25.25,0,0,0-.49.14c.52,2.24,4.39,3.2,6.14,1.93C147.28,52.85,147,52.32,146.66,52.55Z"/><path class="cls-11" d="M194.34,106.05c1.5,3.76,2.26,10.6-3.19,11.85s-75.22,13.57-75.22,13.57L115.11,115S178.54,99.68,183,99.26A11.41,11.41,0,0,1,194.34,106.05Z"/><path class="cls-2" d="M194.34,106.05A11.41,11.41,0,0,0,183,99.26c-2.43.23-39.65,9-39.65,9l5.83,17.26c18.79-3.09,39.13-7,42-7.67C196.6,116.65,195.84,109.81,194.34,106.05Z"/><path class="cls-1" d="M72.54,100.24c3-6.9,5.74-8.2,10-8.21,6.94,0,64,30.42,64,30.42s4.15,7.14-2.3,9.33c-3.72-.62-67.88-12.75-71.46-19.27C69.8,107,72.49,100.4,72.54,100.24Z"/><path class="cls-2" d="M72.54,100.24c-.05.16-2.74,6.75.3,12.27,2.32,4.23,30.1,10.81,50.37,15.09l5.73-14.38C111.55,104.27,87,92,82.57,92S75.55,93.34,72.54,100.24Z"/><path class="cls-1" d="M144.3,131.78s19.34.14,21.41.12,2.45-1.58-.22-1.52c2.14.17,5.87-1.59,1.41-2.42,1.63.11,3.17-2-.34-2,2.16-.71,4.4-3.66-1.07-3a27.47,27.47,0,0,1-12.9-1.32,4.66,4.66,0,0,0-4.27,0l-2.94,1.44Z"/><path class="cls-8" d="M109.07,68.25S102,76,101,83.89c1.47.75,12.09,4.55,12.09,4.55Z"/><path class="cls-1" d="M101,83.89s-1.81,12.48,0,17.93c3.21,1.81,34.06,14.85,34.06,14.85l8.66,4.18s1.36-3.68-6.85-9.79-22.51-14.54-22.51-14.54l-1.27-8.08Z"/><path class="cls-1" d="M143.81,120.51l-.73,3.33s-2.07,1.88-2.32-.72c-.55.91-2,.79-1.89-.81-.31.91-1.88,1.55-1.86-1-.31,1.41-2.46,1.77-2.44-1s.21-4.49.21-4.49Z"/><path class="cls-11" d="M140.71,123.3l-.41.26.75-3.9a.37.37,0,0,1,.43-.3.37.37,0,0,1,.3.44L141,124Z"/><path class="cls-11" d="M138.75,122.67l-.38.28.78-4.2a.37.37,0,1,1,.73.14l-.81,4.39Z"/><path class="cls-11" d="M137,121.66l-.48.45.78-4.27a.37.37,0,0,1,.44-.3.37.37,0,0,1,.3.43l-.82,4.49Z"/><polygon class="cls-9" points="114.36 96.52 113.09 95.87 113.09 88.44 114.36 96.52"/><polygon class="cls-9" points="122.52 111.3 134.72 116.53 134.6 119.14 122.52 111.3"/><polygon class="cls-9" points="148.3 80.1 149.14 92.81 147.1 89.65 148.3 80.1"/><path class="cls-9" d="M130.33,57.4s3.63,8.16,8.15,9.54c.12-1.55.37-4.28.37-4.28Z"/><path class="cls-8" d="M231.89,329.17c-3.38-5.87-3.58-10.89-1.68-16.92.45-1.44,1-2.87,1.67-4.39,1.54-3.72,3.13-7.56,2.71-11.73-.28-2.69-1.74-4.76-3.3-6.95A19.61,19.61,0,0,1,228,283.1a15.11,15.11,0,0,1,.2-7.31,13.14,13.14,0,0,0,.38-4.89c-.52-2.72-4.23-5.9-4.27-5.94l.81-.27c.18.15,3.63,3.09,4.19,6.07a13.34,13.34,0,0,1-.38,5.18,14.38,14.38,0,0,0-.21,7,19,19,0,0,0,3.18,5.85c1.55,2.17,3.14,4.42,3.43,7.3.44,4.36-1.18,8.29-2.76,12.1-.62,1.5-1.21,2.92-1.65,4.32-1.83,5.83-1.58,10.78,1.7,16.46Z"/><path class="cls-8" d="M235.29,328c-3.68-6.38-3-10.62-1.26-16.25.46-1.47,1.07-2.9,1.71-4.43,1.51-3.57,3.07-7.27,2.65-11.4-.28-2.72-2.1-5.28-3.86-7.75-1.47-2.07-2.85-4-3.22-5.92a18.42,18.42,0,0,1,.08-7.44,12.11,12.11,0,0,0,.23-4.29c-.63-3.82-3.92-6.56-4-6.6l.88-.19a11.6,11.6,0,0,1,3.82,6.66,12.94,12.94,0,0,1-.23,4.55,17.81,17.81,0,0,0-.09,7.17c.34,1.74,1.68,3.63,3.1,5.62,1.82,2.56,3.7,5.2,4,8.12.43,4.32-1.16,8.1-2.71,11.76-.64,1.51-1.24,2.93-1.69,4.37-1.7,5.43-2.27,9.64,1.28,15.78Z"/><path class="cls-8" d="M239,288.76c-1.58-2.33-3.22-4.74-3.85-7.45a18.08,18.08,0,0,1,0-6.48c.46-3.63,1.11-7.15-2.72-11.39h-1c4.11,4.2,3.45,7.53,3,11.3a18.61,18.61,0,0,0,0,6.74c.66,2.84,2.34,5.31,4,7.7,2.87,4.22,5.83,7.63,3,13.4l.71.31C245.11,296.72,241.88,293,239,288.76Z"/><path class="cls-8" d="M245.07,292.1a32.77,32.77,0,0,0-2.65-3.44c-1.7-2-3.63-4.32-4.12-6.28a16.4,16.4,0,0,1,.21-6.25,21.15,21.15,0,0,0,.38-5.39,14.43,14.43,0,0,0-2.25-6.29,11,11,0,0,1-1.23-.4,14.65,14.65,0,0,1,2.73,6.78,20.62,20.62,0,0,1-.37,5.18,17.1,17.1,0,0,0-.2,6.55c.53,2.13,2.43,4.4,4.27,6.59a30.65,30.65,0,0,1,2.59,3.34c2.48,4,1.34,7-.11,10.86-.15.41,0,0-.15.41l.7.26c.15-.42,0,0,.15-.4C246.48,299.76,247.74,296.44,245.07,292.1Z"/><polygon class="cls-8" points="250.79 304.8 257.65 318.85 245.98 325.12 241.48 312.52 250.79 304.8"/><path class="cls-3" d="M246,325.12l1.5,6.35s-34.76,17.95-32.73,26.41c1.31,1.74,9.08-3.65,9.08-3.65L257,337.67s2-5.48-.94-17.9Z"/><path class="cls-3" d="M214.75,357.88l.73,3.34s2.07,1.88,2.32-.72c.55.91,2,.79,1.89-.81.31.91,1.88,1.55,1.86-1.05.31,1.4,2.46,1.77,2.44-1s-.21-4.49-.21-4.49Z"/><path class="cls-4" d="M217.58,361.38l-.8-4.2a.37.37,0,0,1,.3-.44.37.37,0,0,1,.43.3l.75,3.9-.4-.26Z"/><path class="cls-4" d="M219.49,360.66l-.81-4.4a.36.36,0,0,1,.3-.43.36.36,0,0,1,.43.3l.79,4.2-.4-.25Z"/><path class="cls-4" d="M221.39,359.85l-.82-4.5a.39.39,0,0,1,.31-.44.38.38,0,0,1,.43.31l.78,4.26-.49-.41Z"/></g><g id="Layer_6" data-name="Layer 6"><g class="cls-13"><path class="cls-5" d="M188.84,72.47l-3-.35.33-3,3,.35Z"/><path class="cls-5" d="M135,301.43c-2,0-4.07-.06-6.06-.14l.12-3c1.95.07,3.95.11,6,.13Zm6.06-.06-.07-3c2-.05,4-.12,6-.22l.15,3C145.09,301.25,143.06,301.32,141.06,301.37ZM122.89,301c-2-.16-4.07-.35-6-.58l.34-3c1.93.23,3.93.41,5.92.56Zm30.25-.19-.22-3c2-.15,3.93-.32,6-.51l.29,3C157.13,300.45,155.1,300.62,153.14,300.77Zm-42.31-1.22c-2-.33-4-.71-6-1.13l.64-2.93c1.87.4,3.83.77,5.82,1.1ZM98.93,297c-2-.56-4-1.18-5.82-1.84l1-2.83c1.8.64,3.69,1.24,5.62,1.79Zm-11.51-4.12c-1.9-.86-3.75-1.79-5.48-2.77l1.48-2.61c1.65.93,3.41,1.82,5.23,2.64Zm-10.68-6.08a49.78,49.78,0,0,1-4.81-3.89l2-2.21a48.09,48.09,0,0,0,4.52,3.66Zm-9.09-8.38A42.08,42.08,0,0,1,64,273.32l2.56-1.56A41.11,41.11,0,0,0,70,276.45Zm-6.47-10.59a40.65,40.65,0,0,1-2-5.92l2.91-.73A38.81,38.81,0,0,0,64,266.62Zm-3-12c-.14-1.41-.21-2.84-.21-4.26,0-.66,0-1.31,0-2l3,.13c0,.61,0,1.22,0,1.83,0,1.32.06,2.66.19,4Zm3.48-11.85-3-.54a46.12,46.12,0,0,1,1.52-6l2.86.93A43.8,43.8,0,0,0,61.64,243.88Zm3.6-11-2.7-1.31a42,42,0,0,1,3.15-5.39l2.46,1.71A38.78,38.78,0,0,0,65.24,232.87Zm6.57-9.41-2.12-2.12c.42-.42.85-.83,1.29-1.22a34,34,0,0,1,3.57-2.76l1.68,2.48A30.66,30.66,0,0,0,73,222.36C72.58,222.71,72.19,223.08,71.81,223.46Zm9.44-6.5-1.33-2.69c1.73-.85,3.63-1.66,5.66-2.42l1,2.8C84.7,215.38,82.89,216.16,81.25,217Zm11-4.18-.85-2.87c1.85-.55,3.82-1.08,5.88-1.58l.71,2.92C96,211.73,94,212.25,92.23,212.78ZM103.79,210,103.2,207c1.87-.38,3.88-.75,6-1.11l.5,3C107.61,209.22,105.64,209.59,103.79,210Zm11.78-2-.43-3q2.94-.43,6-.82l.38,3Q118.5,207.51,115.57,207.94Zm11.9-1.54-.35-3q3-.34,6-.66l.32,3Q130.41,206.05,127.47,206.4Zm11.94-1.26-.29-3,6-.57.28,3Zm12-1.12-.27-3,6-.54.27,3Zm12-1.09-.27-3,6-.56.29,3Zm12-1.16-.31-3c2-.2,4-.41,6-.63l.33,3Zm12-1.34-.36-3,5.95-.76.4,3C191.36,199.94,189.37,200.19,187.36,200.43Zm12-1.6-.44-3q3-.45,5.92-.94l.49,3Q202.35,198.38,199.33,198.83Zm11.93-2-.56-2.94c2-.38,4-.79,5.86-1.2l.64,2.94C215.28,196,213.28,196.43,211.26,196.81Zm11.84-2.58-.72-2.91c2-.49,3.9-1,5.76-1.54l.83,2.89C227.08,193.21,225.1,193.74,223.1,194.23Zm11.67-3.36-1-2.84c1.93-.65,3.81-1.33,5.59-2l1.09,2.79C238.68,189.52,236.75,190.21,234.77,190.87Zm11.35-4.46-1.26-2.72c1.83-.85,3.61-1.74,5.26-2.66l1.46,2.62C249.86,184.61,248,185.54,246.12,186.41Zm10.69-5.95L255.14,178c1.65-1.12,3.22-2.3,4.67-3.51l1.92,2.3A59.57,59.57,0,0,1,256.81,180.46Zm9.43-7.87-2.12-2.12c1.4-1.41,2.75-2.86,4-4.32l2.27,2C269.1,169.63,267.69,171.13,266.24,172.59Zm8-9.27-2.42-1.78c1.18-1.6,2.28-3.24,3.28-4.88l2.56,1.56C276.61,159.93,275.46,161.65,274.23,163.32Zm6.37-10.5-2.7-1.31a52.86,52.86,0,0,0,2.27-5.39l2.82,1A56.43,56.43,0,0,1,280.6,152.82Zm4.12-11.64-2.93-.65a42.94,42.94,0,0,0,.89-5.74l3,.25A47,47,0,0,1,284.72,141.18Zm-2-12.17a37.68,37.68,0,0,0-.8-5.72l2.93-.64a40.92,40.92,0,0,1,.87,6.17Zm-2.47-11.24a40.77,40.77,0,0,0-2.49-5.22l2.61-1.48a43.49,43.49,0,0,1,2.67,5.61Zm-5.69-10.06a50,50,0,0,0-3.79-4.43L273,101.2a54.43,54.43,0,0,1,4,4.7Zm-8.06-8.43c-1.45-1.24-3-2.45-4.64-3.61l1.74-2.44c1.7,1.21,3.33,2.47,4.84,3.76ZM257,92.43c-1.63-1-3.37-2-5.15-2.89l1.39-2.66c1.84,1,3.63,2,5.31,3ZM246.47,87c-1.75-.8-3.59-1.58-5.47-2.32l1.11-2.79c1.92.76,3.8,1.56,5.6,2.38Zm-11-4.39c-1.83-.64-3.73-1.26-5.66-1.85l.88-2.87c2,.6,3.91,1.24,5.77,1.89Zm-11.38-3.5c-1.88-.51-3.82-1-5.79-1.47l.7-2.92c2,.48,4,1,5.87,1.49Zm-11.61-2.77c-1.91-.4-3.88-.79-5.86-1.15l.54-3c2,.37,4,.76,5.94,1.16Zm-11.75-2.17q-2.9-.47-5.92-.88l.42-3q3,.43,6,.9Z"/><path class="cls-5" d="M165.33,299.59l-.35-3,3-.36.38,3Z"/></g></g></svg>