<?xml version="1.0" encoding="UTF-8" standalone="no"?>
<svg
   xmlns:dc="http://purl.org/dc/elements/1.1/"
   xmlns:cc="http://creativecommons.org/ns#"
   xmlns:rdf="http://www.w3.org/1999/02/22-rdf-syntax-ns#"
   xmlns:svg="http://www.w3.org/2000/svg"
   xmlns="http://www.w3.org/2000/svg"
   xmlns:sodipodi="http://sodipodi.sourceforge.net/DTD/sodipodi-0.dtd"
   xmlns:inkscape="http://www.inkscape.org/namespaces/inkscape"
   viewBox="0 0 198.21321 215.7631"
   version="1.1"
   id="svg32465"
   sodipodi:docname="mexico.svg"
   inkscape:version="0.92.4 (5da689c313, 2019-01-14)"
   width="198.21321"
   height="215.76311">
  <metadata
     id="metadata32469">
    <rdf:RDF>
      <cc:Work
         rdf:about="">
        <dc:format>image/svg+xml</dc:format>
        <dc:type
           rdf:resource="http://purl.org/dc/dcmitype/StillImage" />
        <dc:title>tails_2.1_anywhere</dc:title>
      </cc:Work>
    </rdf:RDF>
  </metadata>
  <sodipodi:namedview
     pagecolor="#ffffff"
     bordercolor="#666666"
     borderopacity="1"
     objecttolerance="10"
     gridtolerance="10"
     guidetolerance="10"
     inkscape:pageopacity="0"
     inkscape:pageshadow="2"
     inkscape:window-width="1366"
     inkscape:window-height="671"
     id="namedview32467"
     showgrid="false"
     inkscape:zoom="2.2246622"
     inkscape:cx="99.106608"
     inkscape:cy="107.88156"
     inkscape:window-x="0"
     inkscape:window-y="27"
     inkscape:window-maximized="1"
     inkscape:current-layer="svg32465"
     fit-margin-top="0"
     fit-margin-left="0"
     fit-margin-right="0"
     fit-margin-bottom="0" />
  <defs
     id="defs32331">
    <style
       id="style32326">.cls-1{fill:none;}.cls-2{fill:#dadbdc;}.cls-3{fill:#af97c7;}.cls-4{fill:#9c6bad;}.cls-10,.cls-5{fill:#393a35;}.cls-12,.cls-6{fill:#7a478b;}.cls-10,.cls-6{opacity:0.44;}.cls-7{fill:#a0a2a5;}.cls-8{clip-path:url(#clip-path);}.cls-9{fill:#58595b;}.cls-11{fill:#fff;}</style>
    <clipPath
       id="clip-path">
      <path
         class="cls-1"
         d="m 147.29,297.05 c -0.58,6.3 4.73,9.52 19.55,9.62 14.82,0.1 22.73,-1.28 23.06,-6.57 0.41,-6.6 -10.64,-9.21 -21.44,-9.74 -10.8,-0.53 -20.59,0.31 -21.17,6.69 z"
         id="path32328"
         inkscape:connector-curvature="0"
         style="fill:none" />
    </clipPath>
  </defs>
  <title
     id="title32333">tails_2.1_anywhere</title>
  <path
     style="fill:#af97c7;fill-opacity:1;stroke-width:0.62536573"
     inkscape:connector-curvature="0"
     id="path32477"
     d="M 73.316422,0.01667446 C 30.534188,1.1920045 32.308764,54.428482 23.927302,92.918252 17.752781,121.27319 -13.43188,172.79338 6.6611742,195.52369 32.827779,225.12545 186.51256,225.91784 196.69977,173.15469 205.77803,126.1352 171.77672,124.8052 154.26119,75.865134 145.99484,52.768168 113.44602,-1.0857825 73.316422,0.01667446 Z"
     class="cls-1"
     sodipodi:nodetypes="sscsss" />
  <g
     id="g35001"
     transform="matrix(0.9,0,0,0.9,-5.8699959,23.515156)">
    <g
       transform="matrix(-0.6600408,0,0,0.6600408,212.37674,-7.2774165)"
       data-name="Layer 6"
       id="Layer_6">
      <path
         style="fill:#393a35"
         inkscape:connector-curvature="0"
         id="path32372"
         d="m 174.81,294.36 c -0.57,6.29 4.74,9.51 19.56,9.61 14.82,0.1 22.73,-1.28 23.06,-6.57 0.41,-6.6 -10.64,-9.21 -21.44,-9.74 -10.8,-0.53 -20.59,0.34 -21.18,6.7 z"
         class="cls-5" />
      <polygon
         style="fill:#a0a2a5"
         id="polygon32374"
         points="191.14,289.46 179.71,293.65 183.88,305.47 203.73,297.9 "
         class="cls-7" />
      <path
         style="fill:#dadbdc"
         inkscape:connector-curvature="0"
         id="path32376"
         d="m 147.29,297.05 c -0.58,6.3 4.73,9.52 19.55,9.62 14.82,0.1 22.73,-1.28 23.06,-6.57 0.41,-6.6 -10.64,-9.21 -21.44,-9.74 -10.8,-0.53 -20.59,0.31 -21.17,6.69 z"
         class="cls-2" />
      <g
         id="g32396"
         clip-path="url(#clip-path)"
         class="cls-8">
        <polygon
           style="fill:#a0a2a5"
           id="polygon32378"
           points="150.13,286.73 151.13,286.76 150.48,310.56 149.48,310.53 "
           class="cls-7" />
        <rect
           style="fill:#a0a2a5"
           id="rect32380"
           transform="rotate(-88.17,154.0954,298.85692)"
           height="1"
           width="24.129999"
           y="298.37"
           x="142.03999"
           class="cls-7" />
        <rect
           style="fill:#a0a2a5"
           id="rect32382"
           transform="rotate(-89.51,158.65691,298.42099)"
           height="1"
           width="22.799999"
           y="297.92001"
           x="147.27"
           class="cls-7" />
        <rect
           style="fill:#a0a2a5"
           id="rect32384"
           transform="rotate(-88.61,163.08378,298.9357)"
           height="1"
           width="25.08"
           y="298.42999"
           x="150.53"
           class="cls-7" />
        <rect
           style="fill:#a0a2a5"
           id="rect32386"
           transform="rotate(-89.62,167.28288,298.41999)"
           height="1"
           width="24.440001"
           y="297.92001"
           x="155.07001"
           class="cls-7" />
        <rect
           style="fill:#a0a2a5"
           id="rect32388"
           transform="rotate(-87.71,172.23722,297.88296)"
           height="1"
           width="22.85"
           y="297.38"
           x="160.8"
           class="cls-7" />
        <rect
           style="fill:#a0a2a5"
           id="rect32390"
           transform="rotate(-88.28,177.21543,298.73087)"
           height="1"
           width="24.129999"
           y="298.23001"
           x="165.16"
           class="cls-7" />
        <rect
           style="fill:#a0a2a5"
           id="rect32392"
           transform="rotate(-89.28,182.0603,300.18623)"
           height="1"
           width="24.620001"
           y="299.67999"
           x="169.74001"
           class="cls-7" />
        <rect
           style="fill:#a0a2a5"
           id="rect32394"
           transform="rotate(-87.04,186.58175,299.96711)"
           height="1"
           width="23.77"
           y="299.45999"
           x="174.67999"
           class="cls-7" />
      </g>
      <polygon
         style="fill:#58595b"
         id="polygon32398"
         points="214.5,269.98 191.03,269.54 192.43,273.5 215.75,273.6 "
         class="cls-9" />
      <path
         style="fill:#dadbdc"
         inkscape:connector-curvature="0"
         id="path32400"
         d="m 257.63,233.27 c -1.28,-1 -2.53,-2.06 -3.77,-3.13 a 1.58,1.58 0 0 0 -0.3,-1.75 44.67,44.67 0 0 0 -9,-7.39 47.11,47.11 0 0 0 -4.26,-2.3 64.2,64.2 0 0 0 -5.76,-4 2.44,2.44 0 0 0 -2.06,3.76 l 0.81,0.72 a 2.35,2.35 0 0 0 -0.19,0.25 l -0.12,-0.1 -0.07,-0.07 v 0 l -0.32,-0.25 c -1.43,-1.07 -3.17,1.31 -1.87,2.49 l 0.29,0.28 a 1.78,1.78 0 0 0 -0.73,1.51 l -0.1,-0.14 c -0.44,-0.73 -1.48,-0.07 -1.12,0.68 v 0 a 1.6,1.6 0 0 0 -0.93,0.69 1.55,1.55 0 0 0 -0.74,1.3 1.32,1.32 0 0 0 -0.27,1.81 62.07,62.07 0 0 0 5.34,6.62 25.46,25.46 0 0 0 3.72,3.61 l 0.21,0.18 v 0 a 3.5,3.5 0 0 0 0.3,0.24 v 0 l -0.1,0.27 a 1.63,1.63 0 0 0 0.44,1.59 l 0.81,0.84 a 1.67,1.67 0 0 0 2.29,0 l 0.78,0.27 a 1.66,1.66 0 0 0 2.2,-0.58 1.59,1.59 0 0 0 1.8,-0.68 9.34,9.34 0 0 1 1.08,0.79 1.64,1.64 0 0 0 2.69,-1.62 c -0.08,-0.32 -0.16,-0.65 -0.23,-1 a 1.74,1.74 0 0 0 1.9,-2.18 l 1.9,1.41 c 1.19,0.88 2.63,-0.57 2.4,-1.78 a 15,15 0 0 0 1.91,0.34 1.6,1.6 0 0 0 1.07,-2.68 z"
         class="cls-2" />
      <path
         style="opacity:0.43999999;fill:#393a35"
         inkscape:connector-curvature="0"
         id="path32402"
         d="m 236.15,215.74 -1,2.76 -1.75,16.85 c 0,0 -2.12,-2.33 -2.79,-3.13 -0.67,-0.8 -2.78,-3.49 -2.78,-3.49 l 6.69,-14 z"
         class="cls-10" />
      <path
         style="fill:#a0a2a5"
         inkscape:connector-curvature="0"
         id="path32404"
         d="m 199.14,232.13 c -0.5,-3.16 -2.2,-6.41 -3.62,-9.25 -0.19,-0.38 0.33,-0.65 0.62,-0.44 a 22.35,22.35 0 0 1 4.54,3.63 l 0.36,0.48 a 2.05,2.05 0 0 1 2.67,0.91 16.74,16.74 0 0 1 2.58,8.2 c 0,2.57 -2.17,4.92 -4.78,3.36 -2.28,-1.36 -2.01,-4.63 -2.37,-6.89 z"
         class="cls-7" />
      <path
         style="fill:#dadbdc"
         inkscape:connector-curvature="0"
         id="path32406"
         d="m 190.57,220.43 a 9.12,9.12 0 0 1 0.33,-2.24 c 0.22,-0.75 9.57,-12.77 12.35,-15.63 a 32.37,32.37 0 0 1 4.36,-4.05 9.52,9.52 0 0 1 2.11,-1.49 1.83,1.83 0 0 1 1.15,-0.21 c 4.19,-1.54 9.1,2.32 12.6,4.87 a 67.67,67.67 0 0 1 8.2,6.6 c 2,2 5,4.94 5,8 a 5,5 0 0 1 -0.22,1.43 7.25,7.25 0 0 1 -0.68,2.26 19.51,19.51 0 0 1 -4.47,5.95 c -1.57,2 -3.32,3.77 -4.92,5.66 a 46.59,46.59 0 0 1 -8,7.54 c -2.61,1.92 -5.69,2.67 -8.73,1.31 -1.76,-0.79 -11.22,-8.58 -13.88,-11.33 -1.99,-2.1 -5.56,-5.5 -5.2,-8.67 z"
         class="cls-2" />
      <path
         style="fill:#393a35"
         inkscape:connector-curvature="0"
         id="path32408"
         d="m 222.3,200.82 c -1.13,1 -2.4,1.88 -3.55,2.74 a 54.87,54.87 0 0 1 -9.37,5.67 c -5,2.33 -10.83,5.77 -16.62,6.4 a 26.91,26.91 0 0 1 2.55,-4.08 91.46,91.46 0 0 1 7.94,-9 32.37,32.37 0 0 1 4.36,-4.05 9.52,9.52 0 0 1 2.11,-1.49 1.83,1.83 0 0 1 1.15,-0.21 c 3.74,-1.36 8.06,1.56 11.43,4.02 z"
         class="cls-5" />
      <path
         style="fill:#393a35"
         inkscape:connector-curvature="0"
         id="path32410"
         d="m 218.53,197.93 a 3.59,3.59 0 0 1 2.93,-4.48 5.28,5.28 0 0 1 4,1 3.8,3.8 0 0 1 1.77,2.18 3.39,3.39 0 0 1 -2,4.2 4.93,4.93 0 0 1 -2.58,0.2 3.47,3.47 0 0 1 -1.66,-0.51 4.4,4.4 0 0 1 -2.46,-2.59 z"
         class="cls-5" />
      <path
         style="fill:#393a35"
         inkscape:connector-curvature="0"
         id="path32412"
         d="m 225.12,194.34 a 4,4 0 0 1 0.71,-0.43 c 5.53,-4.32 14.12,-2.88 20.6,-2.27 a 75.1,75.1 0 0 1 12.36,2.18 c 3.41,0.9 7.45,2.07 10.26,4.29 a 0.36,0.36 0 0 1 0.11,0.14 1.68,1.68 0 0 1 0.32,0.09 0.6,0.6 0 0 1 0.29,1 c -2.44,2.35 -6.82,3 -10,3.74 a 51.2,51.2 0 0 1 -13.05,1.42 c -4.13,-0.12 -8.78,-0.15 -12.73,-1.49 a 23.62,23.62 0 0 1 -7.75,-4.49 6.73,6.73 0 0 1 -1,-0.5 2.15,2.15 0 0 1 -0.12,-3.68 z"
         class="cls-5" />
      <path
         style="fill:#393a35"
         inkscape:connector-curvature="0"
         id="path32414"
         d="m 216.25,213.78 a 10.78,10.78 0 0 0 1.55,1.3 c 0.43,0.31 1,0.6 1.31,1.07 a 0.39,0.39 0 0 1 -0.47,0.57 5.82,5.82 0 0 1 -1.58,-1.27 4.77,4.77 0 0 1 -1.15,-1.49 c -0.11,-0.22 0.21,-0.33 0.34,-0.18 z"
         class="cls-5" />
      <path
         style="fill:#393a35"
         inkscape:connector-curvature="0"
         id="path32416"
         d="m 215.47,216.92 a 12.45,12.45 0 0 0 1.66,1.42 c 0.3,0.21 1,0.69 0.56,1.12 -0.44,0.43 -1.17,-0.3 -1.49,-0.57 a 3.49,3.49 0 0 1 -1.18,-1.65 c -0.02,-0.24 0.24,-0.53 0.45,-0.32 z"
         class="cls-5" />
      <path
         style="fill:#393a35"
         inkscape:connector-curvature="0"
         id="path32418"
         d="m 213.53,220.32 a 0.28,0.28 0 0 1 0.52,-0.19 4.22,4.22 0 0 0 1.07,1.12 c 0.32,0.29 0.69,0.5 0.74,1 a 0.39,0.39 0 0 1 -0.35,0.41 c -0.54,0 -0.89,-0.45 -1.22,-0.82 a 3.54,3.54 0 0 1 -0.76,-1.52 z"
         class="cls-5" />
      <path
         style="fill:#393a35"
         inkscape:connector-curvature="0"
         id="path32420"
         d="m 211.49,223.13 c 0,-0.22 0.32,-0.3 0.38,-0.09 a 4.91,4.91 0 0 0 0.32,0.83 5.86,5.86 0 0 0 0.54,0.67 c 0.14,0.19 0,0.54 -0.29,0.46 a 1.07,1.07 0 0 1 -0.73,-0.73 4.43,4.43 0 0 1 -0.22,-1.14 z"
         class="cls-5" />
      <path
         style="fill:#393a35"
         inkscape:connector-curvature="0"
         id="path32422"
         d="m 208.55,225.59 a 8.69,8.69 0 0 1 -0.11,-1.53 c 0,-0.11 0.14,-0.15 0.21,-0.07 a 4.35,4.35 0 0 1 0.58,1 c 0.15,0.41 0.5,0.62 0.66,1 a 0.39,0.39 0 0 1 -0.33,0.51 c -0.56,0.06 -0.87,-0.44 -1.01,-0.91 z"
         class="cls-5" />
      <path
         style="fill:#393a35"
         inkscape:connector-curvature="0"
         id="path32424"
         d="m 205.47,225.84 a 2.49,2.49 0 0 1 0,-1.12 0.27,0.27 0 0 1 0.51,0 7.75,7.75 0 0 0 0.46,0.79 c 0.17,0.3 0.39,0.5 0.32,0.87 a 0.5,0.5 0 0 1 -0.57,0.4 c -0.4,-0.1 -0.61,-0.55 -0.72,-0.94 z"
         class="cls-5" />
      <path
         style="fill:#393a35"
         inkscape:connector-curvature="0"
         id="path32426"
         d="m 207.85,239.43 -0.38,-0.29 c -0.25,-0.19 -0.51,-0.38 -0.78,-0.56 a 1.34,1.34 0 0 1 0.11,-0.14 c 1.2,-1.09 2.89,-1.14 3.64,-2.82 a 6.21,6.21 0 0 0 0.4,-2.49 c 0,-0.5 -0.1,-0.76 0.19,-1.17 a 0.17,0.17 0 0 1 0.22,0 c 0.56,0.42 0.58,1.33 0.67,2 a 4.51,4.51 0 0 1 -0.41,2.63 5.8,5.8 0 0 1 -3.66,2.84 z"
         class="cls-5" />
      <path
         style="fill:#393a35"
         inkscape:connector-curvature="0"
         id="path32428"
         d="m 200.68,212.8 c 2.6,-2.44 5.64,-5.4 9.35,-5.74 a 0.51,0.51 0 0 1 0.33,0.92 c -2.51,2 -5.29,3.49 -7.75,5.57 A 23.4,23.4 0 0 0 200,216 c -0.58,0.66 -0.86,1.58 -1.49,2.14 a 0.45,0.45 0 0 1 -0.56,0 c -1.57,-1.6 1.72,-4.39 2.73,-5.34 z"
         class="cls-5" />
      <path
         style="fill:#ffffff"
         inkscape:connector-curvature="0"
         id="path32430"
         d="m 210.49,220.27 a 3.73,3.73 0 0 0 -1.64,-1.82 4.3,4.3 0 0 0 -0.74,-0.45 4.35,4.35 0 0 0 -2.36,-0.39 5.92,5.92 0 0 0 -3.76,0.71 4.54,4.54 0 0 1 0.5,-1.39 10.46,10.46 0 0 1 2.95,-3.92 c 2.53,-2.11 6.91,-3.92 10.1,-2.44 a 0.45,0.45 0 0 1 0.26,0.45 c 1.77,4.17 0.6,7.7 -2.62,10.82 a 15.24,15.24 0 0 1 -1.49,1.26 6.08,6.08 0 0 0 -1.2,-2.83 z"
         class="cls-11" />
      <path
         style="fill:#393a35"
         inkscape:connector-curvature="0"
         id="path32432"
         d="m 208,224.91 c -1.3,0.32 -3.33,0.56 -4.59,-0.11 a 1.11,1.11 0 0 1 -0.73,-0.59 8.4,8.4 0 0 1 -0.78,-5.45 c 0,-0.15 0,-0.29 0.07,-0.44 a 5.92,5.92 0 0 1 3.76,-0.71 4.35,4.35 0 0 1 2.36,0.39 4.3,4.3 0 0 1 0.74,0.45 3.73,3.73 0 0 1 1.64,1.82 6.08,6.08 0 0 1 1.2,2.83 10.25,10.25 0 0 1 -3.67,1.81 z"
         class="cls-5" />
      <path
         style="fill:#58595b"
         inkscape:connector-curvature="0"
         id="path32434"
         d="m 253.92,228.58 c 0,0 32.18,16.54 35.19,42 3.01,25.46 -12.11,41.81 -32.89,33.85 -20.78,-7.96 -15.56,-28.25 -15.56,-28.25 0,0 -15.26,-14.26 -5.89,-39.09 3.54,-1.97 19.15,-8.51 19.15,-8.51 z"
         class="cls-9" />
      <path
         style="fill:#dadbdc"
         inkscape:connector-curvature="0"
         id="path32436"
         d="m 234.93,236.64 c -0.46,1.24 -0.85,2.44 -1.2,3.62 5.1,0.37 14.26,-0.7 21.06,-11.2 l -1.23,-0.67 c 0,0 -15.08,6.28 -18.63,8.25 z"
         class="cls-2" />
      <path
         style="fill:#dadbdc"
         inkscape:connector-curvature="0"
         id="path32438"
         d="m 207.66,257.13 c 0,0 -12.9,-1.41 -14,9.5 0,1.1 1.2,3 2.16,0.69 0.35,1.22 1.67,1.74 2.2,0 0.3,1.76 2,1.68 2.42,0.08 0.52,1.81 2.15,1.08 2.31,0 0.16,-1.08 -0.06,-5.28 1.57,-4.76 1.63,0.52 3.31,-5.56 3.31,-5.56"
         class="cls-2" />
      <path
         style="fill:#7a478b"
         inkscape:connector-curvature="0"
         id="path32440"
         d="m 195.85,267.69 -0.35,0.29 a 16.87,16.87 0 0 1 1.47,-6.29 0.37396524,0.37396524 0 0 1 0.65,0.37 16.94,16.94 0 0 0 -1.4,6 l -0.37,-0.33 z"
         class="cls-12" />
      <path
         style="fill:#7a478b"
         inkscape:connector-curvature="0"
         id="path32442"
         d="m 198.05,267.72 -0.4,0.4 a 19.94,19.94 0 0 1 1.31,-6.43 0.37,0.37 0 0 1 0.5,-0.18 0.39,0.39 0 0 1 0.17,0.51 20.79,20.79 0 0 0 -1.24,6.18 z"
         class="cls-12" />
      <path
         style="fill:#7a478b"
         inkscape:connector-curvature="0"
         id="path32444"
         d="m 200.47,267.8 -0.38,0.4 a 30.39,30.39 0 0 1 0.84,-6.49 0.38,0.38 0 0 1 0.72,0.23 27.58,27.58 0 0 0 -0.86,6.16 l -0.31,-0.3 z"
         class="cls-12" />
      <path
         style="fill:#dadbdc"
         inkscape:connector-curvature="0"
         id="path32446"
         d="m 160,284.29 c 1,-6.57 6.44,-11 19.43,-10.85 12.99,0.15 52.71,2.1 52.71,2.1 l -3.25,26.95 c 0,0 -71.07,-4.42 -68.89,-18.2 z"
         class="cls-2" />
      <path
         style="fill:#393a35"
         inkscape:connector-curvature="0"
         id="path32448"
         d="m 232.16,275.54 28.66,-0.37 27.81,-7.68 c 0,0 6.53,42.47 -24.34,39 -30.87,-3.47 -35.38,-4 -35.38,-4 z"
         class="cls-5" />
      <polygon
         style="fill:#393a35"
         id="polygon32450"
         points="177.5,231.18 143.22,232.26 159.28,273.35 192.43,273.5 "
         class="cls-5" />
      <path
         style="opacity:0.43999999;fill:#393a35"
         inkscape:connector-curvature="0"
         id="path32452"
         d="m 260.86,245.25 c 0,0 8.69,8.46 9.46,27.3 l -8.48,2.39 -3.84,-34.4"
         class="cls-10" />
    </g>
    <g
       transform="matrix(-0.6600408,0,0,0.6600408,212.37674,-7.2774165)"
       data-name="Layer 2"
       id="Layer_2">
      <path
         style="fill:#dadbdc"
         inkscape:connector-curvature="0"
         id="path32455"
         d="m 203.91,260.33 a 3.84,3.84 0 0 1 3.75,-3.2 c 2.42,-0.18 54.76,-1.41 54.71,20.23 -24,-0.48 -31.28,-0.26 -58,-14.67 -0.28,-1.09 -0.46,-2.36 -0.46,-2.36 z"
         class="cls-2" />
      <path
         style="fill:#dadbdc"
         inkscape:connector-curvature="0"
         id="path32457"
         d="m 252.57,249.58 c 2.77,0.78 8.39,-6.44 11.2,2.78 a 34.51,34.51 0 0 1 -1.4,25 c -28.48,-2.53 -18.71,-17 -18.71,-17 a 58.17,58.17 0 0 1 -0.4,-6.18 c -0.09,-7.31 1.07,-4.6 9.31,-4.6 z"
         class="cls-2" />
      <path
         style="fill:#58595b"
         inkscape:connector-curvature="0"
         id="path32459"
         d="m 243.34,256.53 21.27,-0.93 c -2.35,-10.85 -8.92,-19.11 -12,-20 a 7.32,7.32 0 0 0 -3.23,0.71 l -0.84,0.48 c -5.23,3.55 -5.49,14 -5.2,19.74 z"
         class="cls-9" />
    </g>
    <g
       transform="matrix(-0.6600408,0,0,0.6600408,212.37674,-7.2774165)"
       data-name="Layer 8"
       id="Layer_8">
      <path
         style="fill:#ffffff"
         inkscape:connector-curvature="0"
         id="path32462"
         d="m 177.5,231.18 q 1.94,4.74 3.77,9.5 c 1.21,3.18 2.47,6.34 3.65,9.53 l 3.56,9.58 c 1.18,3.19 2.31,6.4 3.47,9.6 l -0.42,-0.3 c 3.83,0.08 7.66,0.21 11.49,0.36 3.83,0.15 7.65,0.32 11.48,0.53 -3.83,0.07 -7.66,0.11 -11.5,0.09 -3.84,-0.02 -7.66,0 -11.49,-0.07 h -0.31 l -0.1,-0.29 c -1.18,-3.19 -2.39,-6.37 -3.54,-9.58 l -3.46,-9.61 c -1.15,-3.2 -2.24,-6.43 -3.36,-9.64 -1.12,-3.21 -2.19,-6.46 -3.24,-9.7 z"
         class="cls-11" />
    </g>
  </g>
</svg>
