<?xml version="1.0" encoding="UTF-8" standalone="no"?>
<!-- Created with Inkscape (http://www.inkscape.org/) -->

<svg
   xmlns:dc="http://purl.org/dc/elements/1.1/"
   xmlns:cc="http://creativecommons.org/ns#"
   xmlns:rdf="http://www.w3.org/1999/02/22-rdf-syntax-ns#"
   xmlns:svg="http://www.w3.org/2000/svg"
   xmlns="http://www.w3.org/2000/svg"
   xmlns:sodipodi="http://sodipodi.sourceforge.net/DTD/sodipodi-0.dtd"
   xmlns:inkscape="http://www.inkscape.org/namespaces/inkscape"
   width="63.929237mm"
   height="47.830612mm"
   viewBox="0 0 63.929237 47.830613"
   version="1.1"
   id="svg33236"
   inkscape:version="0.92.4 (5da689c313, 2019-01-14)"
   sodipodi:docname="pakistan.svg">
  <defs
     id="defs33230" />
  <sodipodi:namedview
     id="base"
     pagecolor="#ffffff"
     bordercolor="#666666"
     borderopacity="1.0"
     inkscape:pageopacity="0.0"
     inkscape:pageshadow="2"
     inkscape:zoom="1.4"
     inkscape:cx="82.75051"
     inkscape:cy="82.276774"
     inkscape:document-units="mm"
     inkscape:current-layer="layer1"
     showgrid="false"
     fit-margin-top="0"
     fit-margin-left="0"
     fit-margin-right="0"
     fit-margin-bottom="0"
     inkscape:window-width="1366"
     inkscape:window-height="671"
     inkscape:window-x="0"
     inkscape:window-y="27"
     inkscape:window-maximized="1" />
  <metadata
     id="metadata33233">
    <rdf:RDF>
      <cc:Work
         rdf:about="">
        <dc:format>image/svg+xml</dc:format>
        <dc:type
           rdf:resource="http://purl.org/dc/dcmitype/StillImage" />
        <dc:title />
      </cc:Work>
    </rdf:RDF>
  </metadata>
  <g
     inkscape:label="Layer 1"
     inkscape:groupmode="layer"
     id="layer1"
     transform="translate(-31.396815,-194.46385)">
    <path
       style="fill:#af97c7;fill-opacity:1;stroke-width:0.25068352"
       inkscape:connector-curvature="0"
       id="path32477"
       d="m 63.744076,194.46817 c 7.986433,0.11905 15.339245,2.60375 22.026513,10.74306 7.099773,8.64174 15.353731,31.95086 3.802527,35.75434 -17.670732,5.81846 -27.831715,-9.14026 -48.590275,-12.71929 -14.391184,-2.48122 -9.802409,-18.93874 -4.098492,-24.20753 7.228243,-6.67684 17.795235,-9.70569 26.859727,-9.57058 z"
       class="cls-1"
       sodipodi:nodetypes="scssss" />
    <g
       id="g34147"
       transform="matrix(-0.9,0,0,0.9,130.4237,27.438409)">
      <path
         class="cls-11"
         d="m 52.828097,234.58227 c 0,0 -3.439583,-0.0291 -4.164541,0 -0.724958,0.0291 -1.177396,-0.48155 -0.198437,-0.50271 -0.619125,0.0741 -0.957792,-0.65617 0,-0.65617 -0.608542,0.082 -1.275292,-0.68262 -0.182563,-0.56092 -0.568854,0 -0.965729,-0.98689 -0.132292,-0.98954 0.833438,-0.003 4.677833,-0.6985 4.677833,-0.6985 z"
         id="path32716"
         inkscape:connector-curvature="0"
         style="fill:#a0a2a5;stroke-width:0.26458332" />
      <path
         class="cls-1"
         d="m 61.625493,218.37654 c 0,0 3.140604,4.84452 3.600979,5.91608 a 29.937604,29.937604 0 0 1 -0.963083,3.48721 c 0,0 -4.116917,-4.6699 -4.400021,-7.08025 0.719667,-0.86784 1.762125,-2.32304 1.762125,-2.32304 z"
         id="path32718"
         inkscape:connector-curvature="0"
         style="fill:#dadbdc;stroke-width:0.26458332" />
      <path
         class="cls-8"
         d="m 63.662785,221.59122 a 11.845396,11.845396 0 0 1 -2.587625,1.92617 c -1.693333,-1.10596 -0.79375,-5.14085 -0.79375,-5.14085 h 1.341437 z"
         id="path32720"
         inkscape:connector-curvature="0"
         style="fill:#58595b;stroke-width:0.26458332" />
      <path
         class="cls-1"
         d="m 66.53616,219.39783 c 0,0 -2.577042,4.21216 -2.423583,5.34987 a 26.360437,26.360437 0 0 1 0.150812,3.03213 c 0,0 3.286126,-3.37609 3.860272,-8.11213 a 3.9899167,3.9899167 0 0 0 -1.587501,-0.26987 z"
         id="path32722"
         inkscape:connector-curvature="0"
         style="fill:#dadbdc;stroke-width:0.26458332" />
      <polygon
         class="cls-9"
         points="160.31,87.99 158.96,85.76 158.84,92.03 "
         id="polygon32724"
         style="opacity:0.43999999;fill:#393a35"
         transform="matrix(0.26458333,0,0,0.26458333,22.154952,199.79749)" />
      <ellipse
         class="cls-5"
         cx="-168.81532"
         cy="149.33423"
         rx="0.18520834"
         ry="0.30427083"
         transform="rotate(-65.73)"
         id="ellipse32726"
         style="fill:#393a35;stroke-width:0.26458332" />
      <ellipse
         class="cls-5"
         cx="-168.2637"
         cy="149.24599"
         rx="0.12939927"
         ry="0.21126412"
         transform="rotate(-65.74608)"
         id="ellipse32728"
         style="fill:#393a35;stroke-width:0.26408014" />
      <polygon
         class="cls-5"
         points="169.59,58.98 170.32,56.51 168.87,55.85 167.5,58.04 "
         id="polygon32730"
         style="fill:#393a35"
         transform="matrix(0.26458333,0,0,0.26458333,22.154952,199.79749)" />
      <ellipse
         class="cls-5"
         cx="-168.22806"
         cy="150.64572"
         rx="0.18520834"
         ry="0.30427083"
         transform="rotate(-65.73)"
         id="ellipse32732"
         style="fill:#393a35;stroke-width:0.26458332" />
      <ellipse
         class="cls-5"
         cx="-165.23367"
         cy="150.64592"
         rx="0.12964584"
         ry="0.21166667"
         transform="rotate(-65.73)"
         id="ellipse32734"
         style="fill:#393a35;stroke-width:0.26458332" />
      <polygon
         class="cls-5"
         points="175.02,58.99 179.35,48.54 177.89,47.88 172.93,58.05 "
         id="polygon32736"
         style="fill:#393a35"
         transform="matrix(0.26458333,0,0,0.26458333,22.154952,199.79749)" />
      <path
         class="cls-4"
         d="m 64.66291,218.26277 c 0,0 -0.508,0.68262 -0.47625,0.86518 0.03175,0.18257 0.246062,1.00013 0.508,1.13771 0.261937,0.13758 2.315104,-0.0582 2.452687,-0.26458 0.137584,-0.20638 1.754189,-3.89467 1.717148,-4.13544 a 11.096625,11.096625 0 0 0 -0.502709,-1.28058 l -2.971272,3.08239 z"
         id="path32738"
         inkscape:connector-curvature="0"
         style="fill:#9c6bad;stroke-width:0.26458332" />
      <path
         class="cls-3"
         d="m 66.094306,215.09041 c -0.119063,0.0953 -1.989667,3.8735 -1.907646,4.03754 0.111125,0.2249 2.069042,-0.0979 2.463271,-0.39952 0.394229,-0.30162 1.852084,-4.02696 1.711855,-4.14337 -0.140229,-0.11642 -2.095501,0.36777 -2.26748,0.50535 z"
         id="path32740"
         inkscape:connector-curvature="0"
         style="fill:#af97c7;stroke-width:0.26458332" />
      <path
         class="cls-8"
         d="m 67.78764,215.02427 -1.447272,0.33337 a 0.34395833,0.34395833 0 0 1 -0.06085,0.0476 l -0.513292,1.016 0.03175,0.0397 1.60073,-0.32015 0.04498,-0.0397 0.01588,-0.0159 0.370418,-1.0107 a 0.56620833,0.56620833 0 0 1 -0.04233,-0.0503 z"
         id="path32742"
         inkscape:connector-curvature="0"
         style="fill:#58595b;stroke-width:0.26458332" />
      <path
         class="cls-10"
         d="m 68.13689,216.0482 -1.002772,2.47915 c 0,0 -0.166687,0.37306 0.05292,0.39423 a 0.22225,0.22225 0 0 0 0.248708,-0.12171 c 0.12171,-0.11906 1.082147,-2.68288 1.082147,-2.68288 0,0 0.105834,-0.23812 0,-0.32014 -0.105833,-0.082 -0.216958,0.0265 -0.264583,0.0556 a 0.79375,0.79375 0 0 0 -0.116417,0.19579 z"
         id="path32744"
         inkscape:connector-curvature="0"
         style="fill:#7a478b;stroke-width:0.26458332" />
      <polygon
         class="cls-10"
         points="169.93,63.4 169.51,64.37 168.96,64.87 168.18,64.98 168.96,63.08 169.44,63.01 "
         id="polygon32746"
         style="fill:#7a478b"
         transform="matrix(0.26458333,0,0,0.26458333,22.154952,199.79749)" />
      <polygon
         class="cls-10"
         points="165.04,65.55 166,63.6 168.77,63.1 167.97,65 "
         id="polygon32748"
         style="fill:#7a478b"
         transform="matrix(0.26458333,0,0,0.26458333,22.154952,199.79749)" />
      <polygon
         class="cls-10"
         points="164.85,65.57 164.35,65.61 164.03,65.18 164.53,64.09 165.03,63.79 165.72,63.66 "
         id="polygon32750"
         style="fill:#7a478b"
         transform="matrix(0.26458333,0,0,0.26458333,22.154952,199.79749)" />
      <path
         class="cls-10"
         d="m 66.806035,217.46372 h 0.03704 0.01588 0.01058 a 0.1031875,0.1031875 0 0 0 0.04233,-0.0397 0.04497917,0.04497917 0 0 0 0,-0.0317 v 0 c 0,-0.0291 -0.04498,-0.0344 -0.07937,0 v 0 h -0.01323 l -0.03175,0.0317 c -0.0026,0.0159 0,0.0344 0.01852,0.0397 z"
         id="path32752"
         inkscape:connector-curvature="0"
         style="fill:#7a478b;stroke-width:0.26458332" />
      <path
         class="cls-10"
         d="m 66.562618,217.49812 h 0.0635 v 0 0 a 0.08466667,0.08466667 0 0 0 0.04233,-0.037 0.04233333,0.04233333 0 0 0 0,-0.0344 v 0 c 0,-0.0291 -0.04498,-0.037 -0.07937,0 v 0 a 0.02645833,0.02645833 0 0 0 -0.01323,0 0.12170833,0.12170833 0 0 0 -0.03175,0.0317 c 0,0.0159 0.0026,0.0344 0.01852,0.0397 z"
         id="path32754"
         inkscape:connector-curvature="0"
         style="fill:#7a478b;stroke-width:0.26458332" />
      <path
         class="cls-10"
         d="m 66.340368,217.52458 h 0.03969 0.01323 0.02117 a 0.1031875,0.1031875 0 0 0 0.04233,-0.0397 0.03704167,0.03704167 0 0 0 0,-0.0318 v 0 c 0,-0.0291 -0.04498,-0.0344 -0.07938,0 v 0 0 a 0.17991667,0.17991667 0 0 0 -0.03175,0.0318 c -0.02117,0.0185 -0.0053,0.0397 -0.0053,0.0397 z"
         id="path32756"
         inkscape:connector-curvature="0"
         style="fill:#7a478b;stroke-width:0.26458332" />
      <path
         class="cls-10"
         d="m 66.099597,217.56162 h 0.0635 v 0 0 a 0.07408333,0.07408333 0 0 0 0.04233,-0.037 0.04233333,0.04233333 0 0 0 0,-0.0344 v 0 c 0,-0.0291 -0.04498,-0.037 -0.07937,0 v 0 h -0.01323 a 0.17991667,0.17991667 0 0 0 -0.03175,0.0317 c -0.0053,0.0159 -0.0053,0.0344 0.01852,0.0397 z"
         id="path32758"
         inkscape:connector-curvature="0"
         style="fill:#7a478b;stroke-width:0.26458332" />
      <path
         class="cls-10"
         d="m 65.848243,217.59602 v 0 c 0,0 0,0 0.01587,0 h 0.01323 0.01587 0.02117 a 0.08466667,0.08466667 0 0 0 0.04233,-0.037 0.04233333,0.04233333 0 0 0 0,-0.0344 v 0 c 0,-0.0291 -0.04498,-0.0344 -0.07937,0 v 0 0 a 0.12170833,0.12170833 0 0 0 -0.03175,0.0318 c -0.01587,0.0159 -0.01323,0.0344 0.0026,0.0397 z"
         id="path32760"
         inkscape:connector-curvature="0"
         style="fill:#7a478b;stroke-width:0.26458332" />
      <path
         class="cls-10"
         d="m 65.604827,217.63041 h 0.0635 v 0 0 a 0.10054167,0.10054167 0 0 0 0.04233,-0.037 0.04233333,0.04233333 0 0 0 0,-0.0344 v 0 c 0,-0.0317 -0.04763,-0.037 -0.08202,0 v 0 h -0.01323 a 0.11377083,0.11377083 0 0 0 -0.03175,0.0291 c 0.0026,0.0185 0.0053,0.0344 0.02117,0.0423 z"
         id="path32762"
         inkscape:connector-curvature="0"
         style="fill:#7a478b;stroke-width:0.26458332" />
      <path
         class="cls-10"
         d="m 65.385222,217.65952 v 0 a 0.02910417,0.02910417 0 0 0 0.01588,0 v 0 h 0.01587 0.01852 a 0.07408333,0.07408333 0 0 0 0.04233,-0.037 0.03704167,0.03704167 0 0 0 0,-0.0317 v 0 c 0,-0.0291 -0.04763,-0.0344 -0.08202,0 v 0 0 a 0.12170833,0.12170833 0 0 0 -0.03175,0.0317 c 0.0026,0.0132 0.0053,0.0318 0.02117,0.037 z"
         id="path32764"
         inkscape:connector-curvature="0"
         style="fill:#7a478b;stroke-width:0.26458332" />
      <path
         class="cls-10"
         d="m 65.144452,217.69391 h 0.06085 v 0 0 a 0.1190625,0.1190625 0 0 0 0.04233,-0.037 0.05291667,0.05291667 0 0 0 0,-0.0344 v 0 c 0,-0.0317 -0.04498,-0.037 -0.07938,0 v 0 c 0,0 0,0 0,0 a 0.11377083,0.11377083 0 0 0 -0.03175,0.0291 c -0.01058,0.0185 -0.0079,0.0344 0.0079,0.0423 z"
         id="path32766"
         inkscape:connector-curvature="0"
         style="fill:#7a478b;stroke-width:0.26458332" />
      <path
         class="cls-10"
         d="m 66.586431,217.67274 h 0.06085 v 0 0 a 0.1190625,0.1190625 0 0 0 0.04233,-0.037 0.04233333,0.04233333 0 0 0 0,-0.0344 v 0 c 0,-0.0318 -0.04498,-0.037 -0.07938,0 v 0 c 0,0 0,0 0,0 a 0.17991667,0.17991667 0 0 0 -0.03175,0.0317 c -0.01058,0.0132 -0.0079,0.0318 0.0079,0.0397 z"
         id="path32768"
         inkscape:connector-curvature="0"
         style="fill:#7a478b;stroke-width:0.26458332" />
      <path
         class="cls-10"
         d="m 66.366827,217.70185 h 0.06085 v 0 0 a 0.08466667,0.08466667 0 0 0 0.04233,-0.037 0.04233333,0.04233333 0 0 0 0,-0.0344 v 0 c 0,-0.0291 -0.04498,-0.037 -0.07937,0 v 0 0 a 0.12170833,0.12170833 0 0 0 -0.03175,0.0317 c -0.01852,0.0159 -0.01852,0.0344 0.0079,0.0397 z"
         id="path32770"
         inkscape:connector-curvature="0"
         style="fill:#7a478b;stroke-width:0.26458332" />
      <path
         class="cls-10"
         d="m 66.12341,217.73624 h 0.0635 v 0 0 a 0.1190625,0.1190625 0 0 0 0.04233,-0.037 0.04233333,0.04233333 0 0 0 0,-0.0344 v 0 c 0,-0.0318 -0.04763,-0.037 -0.08202,0 v 0 h -0.01323 a 0.17991667,0.17991667 0 0 0 -0.03175,0.0317 c 0.0026,0.0132 0.0053,0.0317 0.02117,0.0397 z"
         id="path32772"
         inkscape:connector-curvature="0"
         style="fill:#7a478b;stroke-width:0.26458332" />
      <path
         class="cls-10"
         d="m 65.872056,217.77064 h 0.06085 v 0 0 a 0.1190625,0.1190625 0 0 0 0.04233,-0.037 0.05291667,0.05291667 0 0 0 0,-0.0344 v 0 c 0,-0.0317 -0.04498,-0.037 -0.07937,0 v 0 c 0,0 0,0 0,0 a 0.11377083,0.11377083 0 0 0 -0.03175,0.0291 c -0.01058,0.0185 -0.01058,0.0344 0.0079,0.0423 z"
         id="path32774"
         inkscape:connector-curvature="0"
         style="fill:#7a478b;stroke-width:0.26458332" />
      <path
         class="cls-10"
         d="m 65.628639,217.80504 h 0.03969 v 0 h 0.02117 a 0.1031875,0.1031875 0 0 0 0.04233,-0.0397 0.03704167,0.03704167 0 0 0 0,-0.0318 v 0 c 0,-0.0291 -0.04498,-0.0344 -0.07937,0 v 0 h -0.01323 a 0.17991667,0.17991667 0 0 0 -0.03175,0.0318 c 0.0026,0.0238 0.0053,0.0238 0.02117,0.0397 z"
         id="path32776"
         inkscape:connector-curvature="0"
         style="fill:#7a478b;stroke-width:0.26458332" />
      <path
         class="cls-10"
         d="m 65.409035,217.83414 h 0.0635 v 0 0 a 0.1190625,0.1190625 0 0 0 0.04233,-0.037 0.04233333,0.04233333 0 0 0 0,-0.0344 v 0 c 0,-0.0317 -0.04498,-0.037 -0.07938,0 v 0 a 0.11377083,0.11377083 0 0 0 -0.03175,0.0291 c -0.01323,0.0185 -0.01058,0.0344 0.0053,0.0423 z"
         id="path32778"
         inkscape:connector-curvature="0"
         style="fill:#7a478b;stroke-width:0.26458332" />
      <path
         class="cls-10"
         d="m 65.165618,217.86854 h 0.05556 v 0 0 a 0.12170833,0.12170833 0 0 0 0.04233,-0.0397 0.04497917,0.04497917 0 0 0 0,-0.0317 v 0 c 0,-0.0317 -0.04498,-0.037 -0.07937,0 v 0 h -0.01323 l -0.03175,0.0317 c 0.0079,0.0132 0.01058,0.0318 0.02646,0.0397 z"
         id="path32780"
         inkscape:connector-curvature="0"
         style="fill:#7a478b;stroke-width:0.26458332" />
      <path
         class="cls-10"
         d="m 66.652577,217.83943 h 0.0635 v 0 0 a 0.07408333,0.07408333 0 0 0 0.04233,-0.037 0.04233333,0.04233333 0 0 0 0,-0.0344 v 0 c 0,-0.0291 -0.04763,-0.037 -0.08202,0 v 0 h -0.01323 a 0.12170833,0.12170833 0 0 0 -0.03175,0.0318 c 0.0026,0.0159 0.0053,0.0344 0.02117,0.0397 z"
         id="path32782"
         inkscape:connector-curvature="0"
         style="fill:#7a478b;stroke-width:0.26458332" />
      <path
         class="cls-10"
         d="m 66.411806,217.87383 h 0.06085 v 0 0 a 0.1031875,0.1031875 0 0 0 0.04233,-0.0397 0.04497917,0.04497917 0 0 0 0,-0.0317 v 0 c 0,-0.0318 -0.04498,-0.037 -0.07937,0 v 0 c 0,0 0,0 0,0 a 0.17991667,0.17991667 0 0 0 -0.03175,0.0317 c -0.01058,0.0132 -0.0079,0.0318 0.0079,0.0397 z"
         id="path32784"
         inkscape:connector-curvature="0"
         style="fill:#7a478b;stroke-width:0.26458332" />
      <path
         class="cls-10"
         d="m 66.192202,217.90293 h 0.06085 v 0 0 a 0.08466667,0.08466667 0 0 0 0.04233,-0.037 0.05291667,0.05291667 0 0 0 0,-0.0344 v 0 c 0,-0.0291 -0.04498,-0.037 -0.07938,0 v 0 0 a 0.12170833,0.12170833 0 0 0 -0.03175,0.0317 c -0.01058,0.0159 -0.0079,0.0344 0.0079,0.0397 z"
         id="path32786"
         inkscape:connector-curvature="0"
         style="fill:#7a478b;stroke-width:0.26458332" />
      <path
         class="cls-10"
         d="m 65.948785,217.93733 h 0.0635 v 0 0 a 0.1190625,0.1190625 0 0 0 0.04233,-0.037 0.04233333,0.04233333 0 0 0 0,-0.0344 v 0 c 0,-0.0318 -0.04763,-0.037 -0.08202,0 v 0 0 a 0.17991667,0.17991667 0 0 0 -0.03175,0.0317 c -0.01058,0.0132 -0.0079,0.0318 0.0079,0.0397 z"
         id="path32788"
         inkscape:connector-curvature="0"
         style="fill:#7a478b;stroke-width:0.26458332" />
      <path
         class="cls-10"
         d="m 65.697431,217.97172 h 0.06085 v 0 0 a 0.1190625,0.1190625 0 0 0 0.04233,-0.037 0.05291667,0.05291667 0 0 0 0,-0.0344 v 0 c 0,-0.0318 -0.04498,-0.037 -0.07938,0 v 0 h -0.01323 l -0.0291,0.0291 c 0,0.0185 0,0.0344 0.01852,0.0423 z"
         id="path32790"
         inkscape:connector-curvature="0"
         style="fill:#7a478b;stroke-width:0.26458332" />
      <path
         class="cls-10"
         d="m 65.454014,218.00347 h 0.03969 v 0 h 0.02117 a 0.1031875,0.1031875 0 0 0 0.04233,-0.0397 0.03704167,0.03704167 0 0 0 0,-0.0318 v 0 c 0,-0.0291 -0.04498,-0.0344 -0.07938,0 v 0 h -0.01323 a 0.17991667,0.17991667 0 0 0 -0.03175,0.0318 c 0.0026,0.0159 0.0053,0.0344 0.02117,0.0397 z"
         id="path32792"
         inkscape:connector-curvature="0"
         style="fill:#7a478b;stroke-width:0.26458332" />
      <path
         class="cls-10"
         d="m 65.23441,218.03522 h 0.0635 v 0 0 a 0.1190625,0.1190625 0 0 0 0.04233,-0.037 0.04233333,0.04233333 0 0 0 0,-0.0344 v 0 c 0,-0.0318 -0.04498,-0.037 -0.07937,0 v 0 a 0.02645833,0.02645833 0 0 0 -0.01323,0 0.11377083,0.11377083 0 0 0 -0.03175,0.0291 c 0,0.0185 0.0026,0.0344 0.01852,0.0423 z"
         id="path32794"
         inkscape:connector-curvature="0"
         style="fill:#7a478b;stroke-width:0.26458332" />
      <path
         class="cls-10"
         d="m 64.990993,218.06962 h 0.03969 0.01588 0.02117 a 0.12170833,0.12170833 0 0 0 0.04233,-0.0397 0.04497917,0.04497917 0 0 0 0,-0.0318 v 0 c 0,-0.0317 -0.04498,-0.037 -0.07938,0 v 0 h -0.01323 a 0.35983333,0.35983333 0 0 0 -0.03175,0.0318 c -0.01323,0.0238 -0.01058,0.0238 0.0053,0.0397 z"
         id="path32796"
         inkscape:connector-curvature="0"
         style="fill:#7a478b;stroke-width:0.26458332" />
      <path
         class="cls-10"
         d="m 66.432972,218.05374 h 0.03969 0.01588 0.02117 a 0.08466667,0.08466667 0 0 0 0.04233,-0.037 0.04497917,0.04497917 0 0 0 0,-0.0317 v 0 c 0,-0.0291 -0.04498,-0.0344 -0.07938,0 v 0 h -0.01323 l -0.03175,0.0317 c -0.01323,0.005 -0.01058,0.037 0.0053,0.037 z"
         id="path32798"
         inkscape:connector-curvature="0"
         style="fill:#7a478b;stroke-width:0.26458332" />
      <path
         class="cls-10"
         d="m 66.213368,218.07756 h 0.0635 v 0 0 a 0.14816667,0.14816667 0 0 0 0.04233,-0.037 0.05291667,0.05291667 0 0 0 0,-0.0344 v 0 c 0,-0.0318 -0.04498,-0.037 -0.07937,0 v 0 0 l -0.03175,0.0317 c -0.01323,0.0159 -0.01058,0.0317 0.0053,0.0397 z"
         id="path32800"
         inkscape:connector-curvature="0"
         style="fill:#7a478b;stroke-width:0.26458332" />
      <path
         class="cls-10"
         d="m 65.972597,218.10931 v 0 a 0.015875,0.015875 0 0 0 0.01587,0 h 0.01588 0.01323 0.02117 a 0.08466667,0.08466667 0 0 0 0.04233,-0.037 0.03704167,0.03704167 0 0 0 0,-0.0318 v 0 c 0,-0.0291 -0.04498,-0.0344 -0.07937,0 v 0 0 a 0.12170833,0.12170833 0 0 0 -0.03175,0.0318 c -0.01588,0.0132 -0.01323,0.0317 0.0026,0.037 z"
         id="path32802"
         inkscape:connector-curvature="0"
         style="fill:#7a478b;stroke-width:0.26458332" />
      <path
         class="cls-10"
         d="m 65.718597,218.14635 h 0.03969 0.01588 0.01852 a 0.111125,0.111125 0 0 0 0.04498,-0.0397 0.04497917,0.04497917 0 0 0 0,-0.0318 v 0 c 0,-0.0291 -0.04498,-0.0344 -0.07938,0 v 0 h -0.01323 a 0.35983333,0.35983333 0 0 0 -0.03175,0.0318 c -0.01323,0.0132 -0.01058,0.0317 0.0053,0.0397 z"
         id="path32804"
         inkscape:connector-curvature="0"
         style="fill:#7a478b;stroke-width:0.26458332" />
      <path
         class="cls-10"
         d="m 65.477827,218.1781 h 0.06879 0.01323 v 0 a 0.08466667,0.08466667 0 0 0 0.04233,-0.037 0.04233333,0.04233333 0 0 0 0,-0.0344 v 0 c 0,-0.0291 -0.04498,-0.037 -0.07937,0 v 0 c 0,0 0,0 0,0 a 0.12170833,0.12170833 0 0 0 -0.03175,0.0317 c -0.03175,0.0159 -0.0291,0.0344 -0.01323,0.0397 z"
         id="path32806"
         inkscape:connector-curvature="0"
         style="fill:#7a478b;stroke-width:0.26458332" />
      <path
         class="cls-10"
         d="m 65.258222,218.20985 h 0.05292 v 0 h 0.01323 a 0.1031875,0.1031875 0 0 0 0.04233,-0.0397 0.03704167,0.03704167 0 0 0 0,-0.0318 v 0 c 0,-0.0317 -0.04498,-0.037 -0.07938,0 v 0 0 a 0.17991667,0.17991667 0 0 0 -0.03175,0.0318 c -0.01588,0.0132 -0.01323,0.0317 0.0026,0.0397 z"
         id="path32808"
         inkscape:connector-curvature="0"
         style="fill:#7a478b;stroke-width:0.26458332" />
      <path
         class="cls-10"
         d="m 65.017452,218.2416 v 0 c 0,0 0,0 0.01588,0 h 0.03969 v 0 0 a 0.08466667,0.08466667 0 0 0 0.04233,-0.037 0.04233333,0.04233333 0 0 0 0,-0.0344 v 0 c 0,-0.0291 -0.04763,-0.037 -0.08202,0 v 0 0 a 0.12170833,0.12170833 0 0 0 -0.03175,0.0317 c -0.0053,0.0159 -0.0026,0.0344 0.01588,0.0397 z"
         id="path32810"
         inkscape:connector-curvature="0"
         style="fill:#7a478b;stroke-width:0.26458332" />
      <path
         class="cls-10"
         d="m 66.737243,217.29704 h 0.0635 v 0 0 a 0.08466667,0.08466667 0 0 0 0.04233,-0.037 0.04233333,0.04233333 0 0 0 0,-0.0344 v 0 c 0,-0.0291 -0.04498,-0.037 -0.07937,0 v 0 a 0.02645833,0.02645833 0 0 0 -0.01323,0 0.12170833,0.12170833 0 0 0 -0.03175,0.0318 c 0,0.0159 0.0026,0.0344 0.01852,0.0397 z"
         id="path32812"
         inkscape:connector-curvature="0"
         style="fill:#7a478b;stroke-width:0.26458332" />
      <path
         class="cls-10"
         d="m 66.517639,217.32879 h 0.05292 v 0 0 a 0.1031875,0.1031875 0 0 0 0.04233,-0.0397 0.03704167,0.03704167 0 0 0 0,-0.0317 v 0 c 0,-0.0318 -0.04498,-0.037 -0.07937,0 v 0 0 a 0.17991667,0.17991667 0 0 0 -0.03175,0.0317 c -0.0026,0.0132 0,0.0318 0.01588,0.0397 z"
         id="path32814"
         inkscape:connector-curvature="0"
         style="fill:#7a478b;stroke-width:0.26458332" />
      <path
         class="cls-10"
         d="m 66.274222,217.36054 v 0 a 0.02910417,0.02910417 0 0 0 0.01588,0 h 0.05027 v 0 0 a 0.09525,0.09525 0 0 0 0.04233,-0.037 0.05291667,0.05291667 0 0 0 0,-0.0344 v 0 c 0,-0.0291 -0.04498,-0.037 -0.07937,0 v 0 h -0.01323 a 0.17991667,0.17991667 0 0 0 -0.03175,0.0318 c -0.0026,0.0159 0,0.0344 0.01588,0.0397 z"
         id="path32816"
         inkscape:connector-curvature="0"
         style="fill:#7a478b;stroke-width:0.26458332" />
      <path
         class="cls-10"
         d="m 66.022868,217.39493 v 0 c 0,0 0,0 0.01588,0 h 0.03704 0.01323 0.02117 a 0.08466667,0.08466667 0 0 0 0.04233,-0.037 0.03704167,0.03704167 0 0 0 0,-0.0317 v 0 c 0,-0.0291 -0.04498,-0.0344 -0.07938,0 v 0 0 a 0.12170833,0.12170833 0 0 0 -0.03175,0.0317 c -0.03704,0.0132 -0.0344,0.0318 -0.01852,0.037 z"
         id="path32818"
         inkscape:connector-curvature="0"
         style="fill:#7a478b;stroke-width:0.26458332" />
      <path
         class="cls-10"
         d="m 65.779452,217.42933 h 0.0635 v 0 0 a 0.10054167,0.10054167 0 0 0 0.04233,-0.037 0.04233333,0.04233333 0 0 0 0,-0.0344 v 0 c 0,-0.0317 -0.04498,-0.037 -0.08202,0 v 0 h -0.01323 a 0.1666875,0.1666875 0 0 0 -0.03175,0.0291 c 0.0026,0.0185 0.0053,0.0344 0.02117,0.0423 z"
         id="path32820"
         inkscape:connector-curvature="0"
         style="fill:#7a478b;stroke-width:0.26458332" />
      <path
         class="cls-10"
         d="m 65.559847,217.45843 h 0.03969 0.01587 0.01852 a 0.07408333,0.07408333 0 0 0 0.04233,-0.037 0.03704167,0.03704167 0 0 0 0,-0.0317 v 0 c 0,-0.0291 -0.04763,-0.0344 -0.08202,0 v 0 0 a 0.12170833,0.12170833 0 0 0 -0.03175,0.0317 c -0.01588,0.0132 -0.01588,0.0317 -0.0026,0.037 z"
         id="path32822"
         inkscape:connector-curvature="0"
         style="fill:#7a478b;stroke-width:0.26458332" />
      <path
         class="cls-10"
         d="m 65.319077,217.49283 h 0.06085 v 0 0 a 0.09789583,0.09789583 0 0 0 0.04233,-0.037 0.04233333,0.04233333 0 0 0 0,-0.0344 v 0 c 0,-0.0317 -0.04498,-0.037 -0.07937,0 v 0 c 0,0 0,0 0,0 a 0.11377083,0.11377083 0 0 0 -0.03175,0.0291 c -0.01058,0.0185 -0.0079,0.0344 0.0079,0.0423 z"
         id="path32824"
         inkscape:connector-curvature="0"
         style="fill:#7a478b;stroke-width:0.26458332" />
      <path
         class="cls-10"
         d="m 66.501764,218.21514 h 0.0635 v 0 0 a 0.1031875,0.1031875 0 0 0 0.04233,-0.0397 0.03439583,0.03439583 0 0 0 0,-0.0318 v 0 c 0,-0.0317 -0.04498,-0.037 -0.07937,0 v 0 0 a 0.17991667,0.17991667 0 0 0 -0.03175,0.0318 c -0.01323,0.0132 -0.01058,0.0317 0.0053,0.0397 z"
         id="path32826"
         inkscape:connector-curvature="0"
         style="fill:#7a478b;stroke-width:0.26458332" />
      <path
         class="cls-10"
         d="m 66.258347,218.24689 v 0 a 0.02910417,0.02910417 0 0 0 0.01588,0 h 0.01323 0.01588 0.03704 a 0.09525,0.09525 0 0 0 0.04233,-0.037 0.05291667,0.05291667 0 0 0 0,-0.0344 v 0 c 0,-0.0291 -0.04498,-0.0344 -0.07937,0 v 0 h -0.01323 l -0.03175,0.0318 c -0.01852,0.0159 -0.01587,0.0344 0,0.0397 z"
         id="path32828"
         inkscape:connector-curvature="0"
         style="fill:#7a478b;stroke-width:0.26458332" />
      <path
         class="cls-10"
         d="m 66.038743,218.27864 h 0.0635 v 0 0 a 0.14816667,0.14816667 0 0 0 0.04233,-0.037 0.05291667,0.05291667 0 0 0 0,-0.0344 v 0 c 0,-0.0318 -0.04498,-0.037 -0.07937,0 v 0 0 a 0.35983333,0.35983333 0 0 0 -0.03175,0.0317 c -0.01323,0.0132 -0.01058,0.0318 0.0053,0.0397 z"
         id="path32830"
         inkscape:connector-curvature="0"
         style="fill:#7a478b;stroke-width:0.26458332" />
      <path
         class="cls-10"
         d="m 65.811202,218.31833 h 0.03704 0.01587 0.02117 a 0.08466667,0.08466667 0 0 0 0.04233,-0.037 0.03704167,0.03704167 0 0 0 0,-0.0318 v 0 c 0,-0.0291 -0.04498,-0.0344 -0.07937,0 v 0 0 a 0.12170833,0.12170833 0 0 0 -0.03175,0.0318 c -0.03704,0.005 -0.0344,0.037 -0.0053,0.037 z"
         id="path32832"
         inkscape:connector-curvature="0"
         style="fill:#7a478b;stroke-width:0.26458332" />
      <path
         class="cls-10"
         d="m 65.546618,218.34479 h 0.03969 0.01587 0.01852 a 0.08995833,0.08995833 0 0 0 0.04233,-0.0397 0.03704167,0.03704167 0 0 0 0,-0.0318 v 0 c 0,-0.0291 -0.04498,-0.0344 -0.08202,0 v 0 0 l -0.03175,0.0318 c -0.02381,0.0132 -0.02117,0.0344 -0.0026,0.0397 z"
         id="path32834"
         inkscape:connector-curvature="0"
         style="fill:#7a478b;stroke-width:0.26458332" />
      <path
         class="cls-10"
         d="m 65.303202,218.37918 h 0.06085 v 0 0 a 0.08466667,0.08466667 0 0 0 0.04233,-0.037 0.04233333,0.04233333 0 0 0 0,-0.0344 v 0 c 0,-0.0291 -0.04498,-0.037 -0.07937,0 v 0 c 0,0 0,0 0,0 a 0.12170833,0.12170833 0 0 0 -0.03175,0.0318 c -0.01323,0.0159 -0.01323,0.0344 0.0079,0.0397 z"
         id="path32836"
         inkscape:connector-curvature="0"
         style="fill:#7a478b;stroke-width:0.26458332" />
      <path
         class="cls-10"
         d="m 65.083597,218.41093 h 0.03704 0.01588 0.02117 a 0.1031875,0.1031875 0 0 0 0.04233,-0.0397 0.03704167,0.03704167 0 0 0 0,-0.0317 v 0 c 0,-0.0291 -0.04498,-0.0344 -0.07938,0 v 0 c 0,0 0,0 0,0 a 0.17991667,0.17991667 0 0 0 -0.03175,0.0317 c -0.02381,0.0132 -0.02117,0.0317 -0.0053,0.0397 z"
         id="path32838"
         inkscape:connector-curvature="0"
         style="fill:#7a478b;stroke-width:0.26458332" />
      <path
         class="cls-10"
         d="m 64.840181,218.44268 h 0.0635 v 0 0 a 0.08466667,0.08466667 0 0 0 0.04233,-0.037 0.04233333,0.04233333 0 0 0 0,-0.0344 v 0 c 0,-0.0291 -0.04763,-0.037 -0.08202,0 v 0 0 a 0.12170833,0.12170833 0 0 0 -0.03175,0.0317 c -0.01058,0.0159 -0.0079,0.0344 0.0079,0.0397 z"
         id="path32840"
         inkscape:connector-curvature="0"
         style="fill:#7a478b;stroke-width:0.26458332" />
      <path
         class="cls-10"
         d="m 66.28216,218.42152 h 0.05821 v 0 0 a 0.1190625,0.1190625 0 0 0 0.04233,-0.037 0.04233333,0.04233333 0 0 0 0,-0.0344 v 0 c 0,-0.0317 -0.04763,-0.037 -0.08202,0 v 0 h -0.01323 a 0.11377083,0.11377083 0 0 0 -0.03175,0.0291 c 0.0079,0.0185 0.01058,0.0344 0.02646,0.0423 z"
         id="path32842"
         inkscape:connector-curvature="0"
         style="fill:#7a478b;stroke-width:0.26458332" />
      <path
         class="cls-10"
         d="m 66.075785,218.45062 h 0.03969 0.01588 0.01852 a 0.08466667,0.08466667 0 0 0 0.04233,-0.037 0.03704167,0.03704167 0 0 0 0,-0.0317 v 0 c 0,-0.0291 -0.04763,-0.0344 -0.08202,0 v 0 0 a 0.12170833,0.12170833 0 0 0 -0.03175,0.0317 c -0.0344,0.0132 -0.03175,0.0318 -0.0026,0.037 z"
         id="path32844"
         inkscape:connector-curvature="0"
         style="fill:#7a478b;stroke-width:0.26458332" />
      <path
         class="cls-10"
         d="m 65.811202,218.48502 h 0.06085 v 0 0 a 0.1190625,0.1190625 0 0 0 0.04233,-0.037 0.05291667,0.05291667 0 0 0 0,-0.0344 v 0 c 0,-0.0317 -0.04498,-0.037 -0.07938,0 v 0 0 a 0.11377083,0.11377083 0 0 0 -0.03175,0.0291 c 0.0079,0.0185 0.0079,0.0344 0.0079,0.0423 z"
         id="path32846"
         inkscape:connector-curvature="0"
         style="fill:#7a478b;stroke-width:0.26458332" />
      <path
         class="cls-10"
         d="m 65.567785,218.51941 h 0.0635 v 0 0 a 0.08466667,0.08466667 0 0 0 0.04233,-0.037 0.04233333,0.04233333 0 0 0 0,-0.0344 v 0 c 0,-0.0291 -0.04763,-0.037 -0.08202,0 v 0 0 a 0.12170833,0.12170833 0 0 0 -0.03175,0.0317 c -0.01323,0.0159 -0.01323,0.0344 0.0079,0.0397 z"
         id="path32848"
         inkscape:connector-curvature="0"
         style="fill:#7a478b;stroke-width:0.26458332" />
      <path
         class="cls-10"
         d="m 65.327014,218.55381 h 0.06085 v 0 0 a 0.1190625,0.1190625 0 0 0 0.04233,-0.037 0.05291667,0.05291667 0 0 0 0,-0.0344 v 0 c 0,-0.0318 -0.04498,-0.037 -0.07937,0 v 0 h -0.01323 l -0.03175,0.0317 c 0,0.0132 0.0026,0.0318 0.02117,0.0397 z"
         id="path32850"
         inkscape:connector-curvature="0"
         style="fill:#7a478b;stroke-width:0.26458332" />
      <path
         class="cls-10"
         d="m 65.104764,218.58291 h 0.0635 v 0 a 0.08466667,0.08466667 0 0 0 0.04233,-0.037 0.05291667,0.05291667 0 0 0 0,-0.0344 v 0 c 0,-0.0291 -0.04498,-0.037 -0.07938,0 v 0 0 a 0.35983333,0.35983333 0 0 0 -0.03175,0.0317 c -0.01323,0.0159 -0.01058,0.0397 0.0053,0.0397 z"
         id="path32852"
         inkscape:connector-curvature="0"
         style="fill:#7a478b;stroke-width:0.26458332" />
      <path
         class="cls-10"
         d="m 64.863993,218.61731 h 0.0635 v 0 0 a 0.1190625,0.1190625 0 0 0 0.04233,-0.037 0.04233333,0.04233333 0 0 0 0,-0.0344 v 0 c 0,-0.0318 -0.04498,-0.037 -0.07937,0 v 0 0 a 0.17991667,0.17991667 0 0 0 -0.03175,0.0317 c -0.01323,0.005 -0.01058,0.0318 0.0053,0.0397 z"
         id="path32854"
         inkscape:connector-curvature="0"
         style="fill:#7a478b;stroke-width:0.26458332" />
      <path
         class="cls-10"
         d="m 66.361535,218.56174 h 0.06085 0.01323 v 0 a 0.08466667,0.08466667 0 0 0 0.04233,-0.037 0.04233333,0.04233333 0 0 0 0,-0.0344 v 0 c 0,-0.0291 -0.04498,-0.037 -0.07937,0 v 0 a 0.12170833,0.12170833 0 0 0 -0.03175,0.0318 c -0.02646,0.0159 -0.02646,0.0344 -0.0053,0.0397 z"
         id="path32856"
         inkscape:connector-curvature="0"
         style="fill:#7a478b;stroke-width:0.26458332" />
      <path
         class="cls-10"
         d="m 66.118118,218.59614 h 0.0635 v 0 0 a 0.10054167,0.10054167 0 0 0 0.04233,-0.037 0.04233333,0.04233333 0 0 0 0,-0.0344 v 0 c 0,-0.0317 -0.04763,-0.037 -0.08202,0 v 0 h -0.01323 l -0.03175,0.0317 c 0.0026,0.0265 0.0053,0.0265 0.02117,0.0397 z"
         id="path32858"
         inkscape:connector-curvature="0"
         style="fill:#7a478b;stroke-width:0.26458332" />
      <path
         class="cls-10"
         d="m 65.898514,218.62524 v 0 a 0.02910417,0.02910417 0 0 0 0.01588,0 v 0 h 0.01587 v 0 0 0 a 0.07408333,0.07408333 0 0 0 0.04233,-0.037 0.04233333,0.04233333 0 0 0 0,-0.0344 v 0 c 0,-0.0291 -0.04763,-0.037 -0.08202,0 v 0 0 a 0.12170833,0.12170833 0 0 0 -0.03175,0.0318 c 0.02117,0.0159 0.02381,0.0344 0.03969,0.0397 z"
         id="path32860"
         inkscape:connector-curvature="0"
         style="fill:#7a478b;stroke-width:0.26458332" />
      <path
         class="cls-10"
         d="m 65.657743,218.65964 h 0.06085 v 0 0 a 0.1190625,0.1190625 0 0 0 0.04233,-0.037 0.05291667,0.05291667 0 0 0 0,-0.0344 v 0 c 0,-0.0318 -0.04498,-0.037 -0.07938,0 v 0 0 a 0.17991667,0.17991667 0 0 0 -0.03175,0.0317 c -0.01058,0.0159 -0.0079,0.0318 0.0079,0.0397 z"
         id="path32862"
         inkscape:connector-curvature="0"
         style="fill:#7a478b;stroke-width:0.26458332" />
      <path
         class="cls-10"
         d="m 65.403743,218.69404 h 0.0635 v 0 0 a 0.1190625,0.1190625 0 0 0 0.04233,-0.037 0.04233333,0.04233333 0 0 0 0,-0.0344 v 0 c 0,-0.0318 -0.04763,-0.037 -0.08202,0 v 0 h -0.01323 a 0.11377083,0.11377083 0 0 0 -0.03175,0.0291 c 0.0026,0.0185 0.0053,0.0344 0.02117,0.0423 z"
         id="path32864"
         inkscape:connector-curvature="0"
         style="fill:#7a478b;stroke-width:0.26458332" />
      <path
         class="cls-10"
         d="m 65.162972,218.72843 h 0.05292 v 0 h 0.01323 a 0.1031875,0.1031875 0 0 0 0.04233,-0.0397 0.04497917,0.04497917 0 0 0 0,-0.0317 v 0 c 0,-0.0318 -0.04498,-0.037 -0.07938,0 v 0 a 0.02645833,0.02645833 0 0 1 -0.01323,0 l -0.0291,0.0317 c -0.0053,0.0132 -0.0053,0.0318 0.01323,0.0397 z"
         id="path32866"
         inkscape:connector-curvature="0"
         style="fill:#7a478b;stroke-width:0.26458332" />
      <path
         class="cls-10"
         d="m 64.943368,218.75754 h 0.07408 v 0 0 a 0.08466667,0.08466667 0 0 0 0.04233,-0.037 0.05291667,0.05291667 0 0 0 0,-0.0344 v 0 c 0,-0.0291 -0.04498,-0.037 -0.07937,0 v 0 h -0.01323 a 0.1666875,0.1666875 0 0 0 -0.0291,0.0317 c -0.01588,0.0159 -0.01323,0.0344 0.0053,0.0397 z"
         id="path32868"
         inkscape:connector-curvature="0"
         style="fill:#7a478b;stroke-width:0.26458332" />
      <path
         class="cls-10"
         d="m 64.699952,218.79193 h 0.05292 v 0 0 a 0.1031875,0.1031875 0 0 0 0.04233,-0.0397 0.03439583,0.03439583 0 0 0 0,-0.0317 v 0 c 0,-0.0318 -0.04498,-0.037 -0.07938,0 v 0 0 a 0.17991667,0.17991667 0 0 0 -0.03175,0.0317 c -0.0026,0.0132 0,0.0317 0.01588,0.0397 z"
         id="path32870"
         inkscape:connector-curvature="0"
         style="fill:#7a478b;stroke-width:0.26458332" />
      <path
         class="cls-10"
         d="m 66.141931,218.76812 v 0 a 0.015875,0.015875 0 0 0 0.01587,0 h 0.01588 v 0 h 0.02117 a 0.1031875,0.1031875 0 0 0 0.04233,-0.0397 0.03704167,0.03704167 0 0 0 0,-0.0318 v 0 c 0,-0.0291 -0.04498,-0.0344 -0.07938,0 v 0 h -0.01323 a 0.12170833,0.12170833 0 0 0 -0.03175,0.0318 c 0.01058,0.0159 0.01323,0.0344 0.0291,0.0397 z"
         id="path32872"
         inkscape:connector-curvature="0"
         style="fill:#7a478b;stroke-width:0.26458332" />
      <path
         class="cls-10"
         d="m 65.922327,218.79987 h 0.0635 v 0 0 a 0.1190625,0.1190625 0 0 0 0.04233,-0.037 0.04233333,0.04233333 0 0 0 0,-0.0344 v 0 c 0,-0.0318 -0.04498,-0.037 -0.07938,0 v 0 0 a 0.17991667,0.17991667 0 0 0 -0.03175,0.0317 c -0.01323,0.0159 -0.01058,0.0318 0.0053,0.0397 z"
         id="path32874"
         inkscape:connector-curvature="0"
         style="fill:#7a478b;stroke-width:0.26458332" />
      <path
         class="cls-10"
         d="m 65.67891,218.83162 h 0.03969 0.01588 0.02117 a 0.12170833,0.12170833 0 0 0 0.04233,-0.0397 0.04497917,0.04497917 0 0 0 0,-0.0318 v 0 c 0,-0.0291 -0.04498,-0.0344 -0.07937,0 v 0 h -0.01323 l -0.03175,0.0318 c -0.01323,0.0159 -0.01058,0.0344 0.0053,0.0397 z"
         id="path32876"
         inkscape:connector-curvature="0"
         style="fill:#7a478b;stroke-width:0.26458332" />
      <path
         class="cls-10"
         d="m 65.427556,218.86866 h 0.05292 v 0 0 a 0.1031875,0.1031875 0 0 0 0.04233,-0.0397 0.03439583,0.03439583 0 0 0 0,-0.0317 v 0 c 0,-0.0318 -0.04498,-0.037 -0.07937,0 v 0 0 a 0.17991667,0.17991667 0 0 0 -0.03175,0.0317 c -0.0026,0.0185 0,0.0317 0.01588,0.0397 z"
         id="path32878"
         inkscape:connector-curvature="0"
         style="fill:#7a478b;stroke-width:0.26458332" />
      <path
         class="cls-10"
         d="m 65.184139,218.90041 v 0 a 0.02910417,0.02910417 0 0 0 0.01588,0 h 0.01323 0.01588 v 0 0 0 a 0.07408333,0.07408333 0 0 0 0.04233,-0.037 0.04233333,0.04233333 0 0 0 0,-0.0344 v 0 c 0,-0.0291 -0.04498,-0.037 -0.07938,0 v 0 h -0.01323 a 0.17991667,0.17991667 0 0 0 -0.03175,0.0317 c 0.01852,0.0159 0.02117,0.0344 0.03704,0.0397 z"
         id="path32880"
         inkscape:connector-curvature="0"
         style="fill:#7a478b;stroke-width:0.26458332" />
      <path
         class="cls-10"
         d="m 64.964535,218.93216 h 0.05292 v 0 0 a 0.08995833,0.08995833 0 0 0 0.04233,-0.0397 0.03439583,0.03439583 0 0 0 0,-0.0318 v 0 c 0,-0.0317 -0.04498,-0.037 -0.08202,0 v 0 0 a 0.35983333,0.35983333 0 0 0 -0.03175,0.0318 c 0,0.0132 0.0026,0.0317 0.01852,0.0397 z"
         id="path32882"
         inkscape:connector-curvature="0"
         style="fill:#7a478b;stroke-width:0.26458332" />
      <path
         class="cls-10"
         d="m 64.723764,218.96391 h 0.0291 0.01587 0.02117 a 0.08466667,0.08466667 0 0 0 0.04233,-0.037 0.04233333,0.04233333 0 0 0 0,-0.0344 v 0 c 0,-0.0291 -0.04498,-0.0344 -0.07937,0 v 0 0 a 0.12170833,0.12170833 0 0 0 -0.03175,0.0317 c -0.01587,0.0159 -0.01323,0.0344 0.0026,0.0397 z"
         id="path32884"
         inkscape:connector-curvature="0"
         style="fill:#7a478b;stroke-width:0.26458332" />
      <path
         class="cls-1"
         d="m 68.123661,219.6677 c 0,0 1.116542,-1.36789 0.354542,-2.3495 -0.193146,-0.26458 -0.28575,-0.87048 -1.023939,-0.67733 -0.174625,0.26458 -0.685271,1.32292 -0.529167,1.44992 0.156105,0.127 0.616481,0.36777 0.677335,0.95779 l -0.341314,0.74348 z"
         id="path32886"
         inkscape:connector-curvature="0"
         style="fill:#dadbdc;stroke-width:0.26458332" />
      <path
         class="cls-1"
         d="m 65.371993,216.46624 c 0,0 -0.179916,-0.15345 -0.325437,0.17728 a 1.5213542,1.5213542 0 0 0 -0.09525,0.71437 z"
         id="path32888"
         inkscape:connector-curvature="0"
         style="fill:#dadbdc;stroke-width:0.26458332" />
      <path
         class="cls-7"
         d="m 55.26491,216.58266 -4.251854,1.27265 -0.09525,12.36927 10.461625,-0.74348 c 0,0 0.07408,-3.60363 -0.394229,-5.09058 0.20902,-1.41553 0.640291,-6.02192 0.640291,-6.02192 l -2.801937,-1.10331 z"
         id="path32890"
         inkscape:connector-curvature="0"
         style="fill:#b5b7b9;stroke-width:0.26458332" />
      <path
         class="cls-1"
         d="m 56.222702,213.49762 c 0,0 -0.4445,2.45269 -0.957792,3.08504 -0.513292,0.63236 3.39725,2.57175 3.548062,0.79375 0.150813,-1.778 0.150813,-2.67494 0.150813,-2.67494 z"
         id="path32892"
         inkscape:connector-curvature="0"
         style="fill:#dadbdc;stroke-width:0.26458332" />
      <path
         class="cls-11"
         d="m 60.596264,210.0501 c 0,0 0.73025,1.95262 1.473729,2.64583 a 5.0535417,5.0535417 0 0 1 -1.36525,0.33073 z"
         id="path32894"
         inkscape:connector-curvature="0"
         style="fill:#a0a2a5;stroke-width:0.26458332" />
      <path
         class="cls-1"
         d="m 60.254952,208.52874 c 0,0 1.709208,5.46894 0.923395,8.73125 -1.793875,-0.21695 -5.291666,-0.84931 -7.294562,-7.49829 0.714375,-0.89429 3.500437,-3.02948 6.371167,-1.23296 z"
         id="path32896"
         inkscape:connector-curvature="0"
         style="fill:#dadbdc;stroke-width:0.26458332" />
      <path
         class="cls-12"
         d="m 54.868035,208.87535 a 6.0298542,6.0298542 0 0 1 0.529167,-0.33073 0.31200963,0.31200963 0 0 0 -0.529167,0.33073 z"
         id="path32898"
         inkscape:connector-curvature="0"
         style="fill:none;stroke-width:0.26458332" />
      <path
         class="cls-5"
         d="m 53.878493,209.76964 c 2.005542,6.64898 5.500688,7.28133 7.294563,7.49829 0.314854,-1.32291 0.264583,-2.76225 0.04233,-4.28889 -0.79375,-0.10055 -2.82575,0 -3.839104,0.50535 -0.04233,-0.0926 -0.08731,-0.18256 -0.127,-0.26458 -0.650875,-1.51342 -0.889,-3.27025 -1.836208,-4.63021 l -0.02646,-0.0317 c -0.375704,-0.0556 -1.33085,0.74348 -1.508121,1.21179 z"
         id="path32900"
         inkscape:connector-curvature="0"
         style="fill:#393a35;stroke-width:0.26458332" />
      <path
         class="cls-8"
         d="m 59.778702,205.08916 0.47625,3.43958 c 0,0 -4.860396,0.50271 -6.371167,1.23825 0.248708,-1.02922 1.420812,-3.33375 1.420812,-3.33375 a 9.1387083,9.1387083 0 0 1 4.474105,-1.34408 z"
         id="path32902"
         inkscape:connector-curvature="0"
         style="fill:#58595b;stroke-width:0.26458332" />
      <path
         class="cls-2"
         d="m 59.778702,205.08916 a 8.6571667,8.6571667 0 0 0 -1.852084,0.25136 17.766771,17.766771 0 0 0 -0.457729,3.55335 c 1.463146,-0.22754 2.786063,-0.36513 2.786063,-0.36513 z"
         id="path32904"
         inkscape:connector-curvature="0"
         style="fill:#ffffff;stroke-width:0.26458332" />
      <path
         class="cls-8"
         d="m 59.918931,208.56049 4.370916,-0.38364 c 0,0 -1.799166,3.302 -4.370916,0.38364 z"
         id="path32906"
         inkscape:connector-curvature="0"
         style="fill:#58595b;stroke-width:0.26458332" />
      <path
         class="cls-2"
         d="m 56.590472,210.28029 c 0.497417,0.89164 2.211917,2.01877 3.622146,0.19843 -0.07144,-0.83079 -2.6035,-2.159 -3.622146,-0.19843 z"
         id="path32908"
         inkscape:connector-curvature="0"
         style="fill:#ffffff;stroke-width:0.26458332" />
      <path
         class="cls-5"
         d="m 60.212618,210.47872 c -0.02646,-0.29104 -0.354541,-0.64558 -0.817562,-0.89693 a 1.2170833,1.2170833 0 0 0 -0.415396,1.8071 2.4103542,2.4103542 0 0 0 1.232958,-0.91017 z"
         id="path32910"
         inkscape:connector-curvature="0"
         style="fill:#393a35;stroke-width:0.26458332" />
      <path
         class="cls-5"
         d="m 59.580264,208.8092 c -0.978958,0.0423 -2.143125,0.13494 -3.032125,0.57415 -0.111125,0.0556 -0.05027,0.21431 0.06085,0.2196 0.391584,0.0185 0.79375,-0.15081 1.180042,-0.22225 a 9.9351042,9.9351042 0 0 1 1.791229,-0.18256 c 0.248708,0 0.248708,-0.40481 0,-0.38894 z"
         id="path32912"
         inkscape:connector-curvature="0"
         style="fill:#393a35;stroke-width:0.26458332" />
      <path
         class="cls-2"
         d="m 60.958743,213.70135 c -0.381,0.27781 -1.285875,0.0794 -1.412875,-0.40746 a 0.06741698,0.06741698 0 0 0 -0.129646,0.037 c 0.137584,0.59267 1.161521,0.84667 1.624542,0.51065 0.08202,-0.0609 0.0079,-0.20109 -0.08202,-0.14023 z"
         id="path32914"
         inkscape:connector-curvature="0"
         style="fill:#ffffff;stroke-width:0.26458332" />
      <path
         class="cls-11"
         d="m 73.574078,227.85656 c 0.396875,0.99483 0.597958,2.80458 -0.844021,3.13531 -1.441979,0.33073 -19.90196,3.5904 -19.90196,3.5904 l -0.216958,-4.35769 c 0,0 16.782522,-4.05342 17.962564,-4.16454 a 3.0188958,3.0188958 0 0 1 3.000375,1.79652 z"
         id="path32916"
         inkscape:connector-curvature="0"
         style="fill:#a0a2a5;stroke-width:0.26458332" />
      <path
         class="cls-2"
         d="m 73.574078,227.85656 a 3.0188958,3.0188958 0 0 0 -3.000375,-1.79652 c -0.642938,0.0609 -10.490731,2.38125 -10.490731,2.38125 l 1.542521,4.5667 c 4.971521,-0.81756 10.353147,-1.85208 11.112502,-2.02935 1.434041,-0.3175 1.232958,-2.12725 0.836083,-3.12208 z"
         id="path32918"
         inkscape:connector-curvature="0"
         style="fill:#ffffff;stroke-width:0.26458332" />
      <path
         class="cls-1"
         d="m 41.347827,226.31933 c 0.79375,-1.82563 1.518708,-2.16959 2.645833,-2.17223 1.836209,0 16.933333,8.04862 16.933333,8.04862 0,0 1.098021,1.88913 -0.608541,2.46857 -0.98425,-0.16405 -17.959917,-3.37344 -18.907125,-5.09852 -0.788458,-1.45786 -0.07673,-3.20411 -0.0635,-3.24644 z"
         id="path32920"
         inkscape:connector-curvature="0"
         style="fill:#dadbdc;stroke-width:0.26458332" />
      <path
         class="cls-2"
         d="m 41.347827,226.31933 c -0.01323,0.0423 -0.724958,1.78594 0.07937,3.24644 0.613833,1.11918 7.963958,2.86014 13.327062,3.99256 l 1.516063,-3.80471 c -4.601105,-2.36802 -11.096625,-5.61446 -12.268729,-5.61446 -1.172104,0 -1.857375,0.35454 -2.653771,2.18017 z"
         id="path32922"
         inkscape:connector-curvature="0"
         style="fill:#ffffff;stroke-width:0.26458332" />
      <path
         class="cls-1"
         d="m 60.334327,234.66429 c 0,0 5.117041,0.037 5.664729,0.0318 0.547687,-0.005 0.648229,-0.41805 -0.05821,-0.40217 0.566209,0.045 1.553105,-0.42069 0.373063,-0.64029 0.431271,0.0291 0.838729,-0.52917 -0.08996,-0.52917 0.5715,-0.18785 1.164166,-0.96837 -0.283105,-0.79375 a 7.2681042,7.2681042 0 0 1 -3.413125,-0.34925 1.2329583,1.2329583 0 0 0 -1.12977,0 l -0.777875,0.381 z"
         id="path32924"
         inkscape:connector-curvature="0"
         style="fill:#dadbdc;stroke-width:0.26458332" />
      <path
         class="cls-8"
         d="m 51.013056,217.85531 c 0,0 -1.870604,2.05052 -2.135187,4.13808 0.388937,0.19844 3.198812,1.20385 3.198812,1.20385 z"
         id="path32926"
         inkscape:connector-curvature="0"
         style="fill:#58595b;stroke-width:0.26458332" />
      <path
         class="cls-1"
         d="m 48.877869,221.99339 c 0,0 -0.478896,3.302 0,4.74398 0.849312,0.4789 9.011708,3.92906 9.011708,3.92906 l 2.291291,1.10596 c 0,0 0.359834,-0.97367 -1.812396,-2.59027 -2.172229,-1.6166 -5.95577,-3.84704 -5.95577,-3.84704 l -0.336021,-2.13784 z"
         id="path32928"
         inkscape:connector-curvature="0"
         style="fill:#dadbdc;stroke-width:0.26458332" />
      <path
         class="cls-1"
         d="m 60.204681,231.68243 -0.193146,0.88106 c 0,0 -0.547688,0.49742 -0.613833,-0.1905 -0.145521,0.24078 -0.529167,0.20903 -0.500063,-0.21431 -0.08202,0.24077 -0.497417,0.41011 -0.492125,-0.26458 -0.08202,0.37306 -0.650875,0.46831 -0.645583,-0.26458 0.0053,-0.7329 0.05556,-1.18798 0.05556,-1.18798 z"
         id="path32930"
         inkscape:connector-curvature="0"
         style="fill:#dadbdc;stroke-width:0.26458332" />
      <path
         class="cls-11"
         d="m 59.384472,232.42062 -0.108479,0.0688 0.198438,-1.03188 a 0.09789583,0.09789583 0 0 1 0.113771,-0.0794 0.09789583,0.09789583 0 0 1 0.07937,0.11642 l -0.206375,1.11125 z"
         id="path32932"
         inkscape:connector-curvature="0"
         style="fill:#a0a2a5;stroke-width:0.26458332" />
      <path
         class="cls-11"
         d="m 58.865889,232.25393 -0.100542,0.0741 0.206375,-1.11125 a 0.09833285,0.09833285 0 1 1 0.193146,0.037 l -0.214312,1.16152 z"
         id="path32934"
         inkscape:connector-curvature="0"
         style="fill:#a0a2a5;stroke-width:0.26458332" />
      <path
         class="cls-11"
         d="m 58.402868,231.9867 -0.127,0.11907 0.206375,-1.12978 a 0.09789583,0.09789583 0 0 1 0.116417,-0.0794 0.09789583,0.09789583 0 0 1 0.07937,0.11378 l -0.216958,1.18797 z"
         id="path32936"
         inkscape:connector-curvature="0"
         style="fill:#a0a2a5;stroke-width:0.26458332" />
      <polygon
         class="cls-9"
         points="113.09,88.44 114.36,96.52 113.09,95.87 "
         id="polygon32938"
         style="opacity:0.43999999;fill:#393a35"
         transform="matrix(0.26458333,0,0,0.26458333,22.154952,199.79749)" />
      <polygon
         class="cls-9"
         points="134.6,119.14 122.52,111.3 134.72,116.53 "
         id="polygon32940"
         style="opacity:0.43999999;fill:#393a35"
         transform="matrix(0.26458333,0,0,0.26458333,22.154952,199.79749)" />
      <polygon
         class="cls-9"
         points="147.1,89.65 148.3,80.1 149.14,92.81 "
         id="polygon32942"
         style="opacity:0.43999999;fill:#393a35"
         transform="matrix(0.26458333,0,0,0.26458333,22.154952,199.79749)" />
      <path
         class="cls-9"
         d="m 56.638097,214.98458 c 0,0 0.960438,2.159 2.156355,2.52412 0.03175,-0.4101 0.09789,-1.13241 0.09789,-1.13241 z"
         id="path32944"
         inkscape:connector-curvature="0"
         style="opacity:0.43999999;fill:#393a35;stroke-width:0.26458332" />
    </g>
  </g>
</svg>
