<svg xmlns="http://www.w3.org/2000/svg" xmlns:xlink="http://www.w3.org/1999/xlink" viewBox="0 0 300 450"><defs><style>.cls-1{fill:url(#linear-gradient);}.cls-13,.cls-19,.cls-2,.cls-6{opacity:0.44;}.cls-3{fill:url(#linear-gradient-2);}.cls-4{fill:url(#linear-gradient-3);}.cls-5{fill:#dadbdc;}.cls-10,.cls-6{fill:#363436;}.cls-19,.cls-7{fill:#58595b;}.cls-25,.cls-8{fill:#a0a2a5;}.cls-15,.cls-9{fill:#fff;}.cls-11{fill:url(#linear-gradient-4);}.cls-12,.cls-13,.cls-21{fill:#393a35;}.cls-14{fill:#b5b7b9;}.cls-15,.cls-25{opacity:0.77;}.cls-16{fill:url(#linear-gradient-5);}.cls-17{fill:#d6d7d9;}.cls-18{fill:url(#linear-gradient-6);}.cls-20,.cls-22,.cls-23{fill:none;stroke-linecap:round;}.cls-20{stroke:#58595b;stroke-width:7px;}.cls-20,.cls-21,.cls-22{stroke-miterlimit:10;}.cls-21{stroke:#393a35;}.cls-22,.cls-23{stroke:#a0a2a5;}.cls-23{stroke-linejoin:round;}.cls-24{fill:url(#linear-gradient-7);}</style><linearGradient id="linear-gradient" x1="151.05" y1="85.09" x2="149.76" y2="375.34" gradientUnits="userSpaceOnUse"><stop offset="0" stop-color="#af97c7"/><stop offset="0.5" stop-color="#a57fb9"/><stop offset="1" stop-color="#9c6bad"/></linearGradient><linearGradient id="linear-gradient-2" x1="256.97" y1="219.84" x2="257.7" y2="42.82" gradientUnits="userSpaceOnUse"><stop offset="0" stop-color="#af97c7" stop-opacity="0"/><stop offset="0.48" stop-color="#a580b9" stop-opacity="0.47"/><stop offset="0.83" stop-color="#9e71b0" stop-opacity="0.76"/><stop offset="1" stop-color="#9c6bad" stop-opacity="0.88"/></linearGradient><linearGradient id="linear-gradient-3" x1="64.24" y1="161.02" x2="62.43" y2="77.75" gradientUnits="userSpaceOnUse"><stop offset="0" stop-color="#af97c7" stop-opacity="0"/><stop offset="0.64" stop-color="#a27ab6" stop-opacity="0.59"/><stop offset="0.99" stop-color="#9c6bad" stop-opacity="0.88"/></linearGradient><linearGradient id="linear-gradient-4" x1="128.75" y1="35.94" x2="127.73" y2="177.56" xlink:href="#linear-gradient-2"/><linearGradient id="linear-gradient-5" x1="210.24" y1="114.59" x2="208.37" y2="237.1" xlink:href="#linear-gradient-2"/><linearGradient id="linear-gradient-6" x1="87.97" y1="164.67" x2="85.49" y2="330.29" xlink:href="#linear-gradient-2"/><linearGradient id="linear-gradient-7" x1="194.74" y1="327.98" x2="195.64" y2="529.33" gradientUnits="userSpaceOnUse"><stop offset="0" stop-color="#af97c7" stop-opacity="0"/><stop offset="0.11" stop-color="#ac90c3" stop-opacity="0.14"/><stop offset="0.44" stop-color="#a37cb7" stop-opacity="0.54"/><stop offset="0.68" stop-color="#9e70b0" stop-opacity="0.79"/><stop offset="0.8" stop-color="#9c6bad" stop-opacity="0.88"/></linearGradient></defs><title>thankyou</title><g id="Layer_11" data-name="Layer 11"><path class="cls-1" d="M193.77,5.39c69.25,5.26,90.84,65.8,89.52,123.24-1.05,45.49-14.2,46.06-1.65,129,7.79,51.39,17.64,60.25,11.37,85.47-14.57,58.65-86.43,85.65-98.29,89.87-60.61,21.58-152.09,17.24-181.88-31.1-30.66-49.77,36.64-93.33,22.74-204.35-8.92-71.22,5.67-111.63,36-141.93C104.45,22.72,145.66,1.74,193.77,5.39Z"/></g><g id="Layer_10" data-name="Layer 10" class="cls-2"><path class="cls-3" d="M243,41.34a6.54,6.54,0,0,0,2.88,3.82,29.39,29.39,0,0,0-3.76,11.59C241,68.94,249,83.12,259.7,85.47l-1.5,10.44a40.68,40.68,0,0,0-9.46,4,25.64,25.64,0,0,0-9.24,9.82,1.17,1.17,0,0,0-.47.71c0,.11-.06.22-.08.33a46.84,46.84,0,0,0-4.37,16.55c-.21.89-.4,1.79-.55,2.7-1.24,7.58-2.44,15.11-3.92,22.65-2.77,14.2-4.87,29.47-3.35,43.93.92,0,1.85,0,2.78,0,0,.45-.08.9-.11,1.35l0,0a22,22,0,0,0-1.17,2.33c-2.67,5.2-5.33,14.32-1.14,18a1.69,1.69,0,0,0,.91.38s0,.08.07.13a1.3,1.3,0,0,0,.32.37l.46.25,0,0h0l1.25.66.46.23a.61.61,0,0,0,.18,0s0,.1,0,.15c.83.4,1.65.82,2.47,1.25.09-1,.19-1.94.26-2.92a1.14,1.14,0,0,0,.18-.3,1.12,1.12,0,0,0,.44-.73,77.36,77.36,0,0,0,.82-7.7,12,12,0,0,0,.44-1.36c.21-.69.4-1.38.55-2.09.15.29.31.58.49.86a1.28,1.28,0,0,0,.68.53q.25.31.54.63a1.42,1.42,0,0,0,2.35-1.37,26.89,26.89,0,0,0-2.89-6.08,1.35,1.35,0,0,0-.55-.54c0-.23-.06-.46-.07-.7a1.38,1.38,0,0,0-.75-1.16c-.07-.19-.14-.37-.22-.55a1.61,1.61,0,0,0-.24-.36c.1-.51.16-1,.24-1.54l.8,0c-.22-.28-.45-.55-.67-.81a.36.36,0,0,1,0-.11v0a1.37,1.37,0,0,0,1.06.44c0,.17,0,.33,0,.49l1.44,0a5.17,5.17,0,0,1,1.47.2c.19-7.26.66-14.51.52-21.77v0c2.15,8.12,4.58,15.47,6.71,21.2.24,29.18-.27,102.3-.32,109.87l-7.37,4.07c-.92.85-1.8,1.73-2.63,2.66-.53.74-1.07,1.48-1.58,2.24a4.59,4.59,0,0,0-.17.48l.43,1.94c8.14-.17,16.29.11,24.43-.14,2.37-.08,4.82-.26,7.32-.48a9.32,9.32,0,0,1,0-1.06l-1.07-9.06h1.3L265.68,210a35.55,35.55,0,0,0,10.16-1.78c2.13,29.12,5.16,78.4,6.08,93.59l-9.82,6.73a17.41,17.41,0,0,0-1.26,7.62c5.52-.57,11.18-1.19,16.74-1.27.28-2.37.53-4.74.77-7.11.07-4.55.23-9.1.42-13.65-2.23-9.39-4.77-21-7.13-36.57-12.55-82.89.6-83.46,1.65-128.95a195.5,195.5,0,0,0-1.89-32.56,29.66,29.66,0,0,0-9.14-1.91c-.48-3.59-1-7.39-1.55-10.57.49-.28,1-.58,1.45-.9q.94-2.31,1.91-4.61,1.08-2.65,2.12-5.32c-5.12-16.44-13.21-31.33-25-42.94C246.15,32.54,242.11,37.33,243,41.34ZM229.11,189.71a131.44,131.44,0,0,1,1.12-20.27C229.79,176.16,229.19,183,229.11,189.71Z"/><path class="cls-4" d="M36.34,121.93a33.92,33.92,0,0,0,3.16,4.42c-1.26,13.87-3.54,39-5.31,58.2q.56,6.28,1.39,12.92c.85,6.82,1.39,13.38,1.68,19.71l.34.07c6.31-.57,13,.16,19.42.79a12.83,12.83,0,0,0-1-5.88L48,207c.75-11.72,3.21-49.77,4.93-72.25a30.76,30.76,0,0,0,8.25,1.37l-1.27,74.44H61l-.87,7q0,.4,0,.81c2,.18,4,.32,5.94.37,6.6.2,13.21,0,19.82.12l.35-1.5c0-.13-.09-.25-.14-.37-.42-.59-.85-1.16-1.29-1.74-.67-.71-1.38-1.39-2.13-2.05l-6-3.14c0-5.85-.46-62.3-.26-84.83,1.73-4.42,3.7-10.1,5.45-16.37v0c-.12,5.6.26,11.2.42,16.8a4.4,4.4,0,0,1,1.19-.15l1.17,0c0-.12,0-.25,0-.37a1.15,1.15,0,0,0,.86-.35v0s0,.05,0,.08l-.55.63.65,0c.07.4.12.79.2,1.19a.77.77,0,0,0-.19.27c-.07.14-.13.28-.19.42a1.09,1.09,0,0,0-.6.91c0,.18,0,.36-.06.53a1.12,1.12,0,0,0-.45.42A20.23,20.23,0,0,0,82,134a1.14,1.14,0,0,0,1.9,1c.16-.16.3-.32.45-.48a1,1,0,0,0,.54-.41c.15-.22.28-.44.4-.66.13.54.28,1.08.45,1.61a9.27,9.27,0,0,0,.36,1.05,54.49,54.49,0,0,0,.66,5.94.88.88,0,0,0,.36.57,1.09,1.09,0,0,0,.14.23c.06.75.14,1.5.22,2.25l2-1a.45.45,0,0,1,0-.11l.14,0,.38-.18,1-.51h0l.38-.19a1.48,1.48,0,0,0,.26-.29.93.93,0,0,1,.05-.1,1.4,1.4,0,0,0,.74-.29c3.4-2.84,1.24-9.88-.92-13.89-.29-.62-.6-1.22-1-1.81l0,0c0-.35-.06-.7-.1-1,.76,0,1.51,0,2.26,0,1.23-11.17-.47-23-2.72-33.92C88.87,86,87.9,80.16,86.89,74.31c-.12-.7-.27-1.39-.44-2.09A35.08,35.08,0,0,0,82.9,59.44l-.06-.25a1,1,0,0,0-.39-.55,20.24,20.24,0,0,0-6.73-7.1q-2.09,2-4.13,4C54.12,73,41.88,93.81,36.34,121.93Zm54.54-1.53c-.06-5.21-.55-10.46-.9-15.65A96.81,96.81,0,0,1,90.88,120.4Z"/></g><g id="Layer_9" data-name="Layer 9"><path class="cls-5" d="M89.73,324.77c0,.79.6,54.06.06,74.54S111.66,407,111.66,407l-.45-89.21Z"/><path class="cls-5" d="M146.55,315.87c1.33,2.46,10,91.16,10,91.16l21.87-9.69-10.5-83.69Z"/><path class="cls-6" d="M103.85,346.5a66.4,66.4,0,0,0,7.5-1.09l-.14-27.59-21.48,6.95c0,.33.08,9.76.17,22.13C94.55,346.94,99.21,346.88,103.85,346.5Z"/><path class="cls-6" d="M151.26,340.45c4.52-.83,9.13-2.6,13.57-3.83,1.95-.54,3.87-1.06,5.76-1.66l-2.67-21.31-21.37,2.22c.44.82,1.71,11.27,3.2,24.81C150.25,340.61,150.75,340.54,151.26,340.45Z"/><path class="cls-7" d="M85.83,228.74,79.74,330A155.69,155.69,0,0,0,122.65,333c22.53-1.76,29.88-7.75,38.75-6.29s16.8-.31,20.33-2.51S158,220.36,158,220.36Z"/><path class="cls-8" d="M92.24,122.86l71.85-6L162.42,40,150.24,14.7,115,22.62A175.4,175.4,0,0,0,90.45,38.8L89,41.88Z"/><path class="cls-5" d="M113.17,70.61s.91,29.76-.81,39.45c9.55,1.08,27.28.19,27.28.19S135,74.67,135.11,70.13C128.85,71.76,113.17,70.61,113.17,70.61Z"/><path class="cls-6" d="M116.6,94.2c6.75-1.89,13.53-3.82,20.35-5.55-1-8.41-1.89-16.51-1.84-18.52-6.26,1.63-21.94.48-21.94.48s.39,12.88.17,24.45C114.43,94.78,115.51,94.5,116.6,94.2Z"/><path class="cls-5" d="M128.2,85.47c8.39.1,27.21-25.32,29.55-29.79s2.19-18.42,2.08-23.79c0,0,.1-13.16-6.44-23.69-22.75,5-43.53,15.58-62.15,30,.08,6.22,1,16.23,4.32,21.63C99.77,66.78,119.82,85.36,128.2,85.47Z"/><path class="cls-9" d="M99.52,42.79l24.29-4.08s-5.83-6.82-13.22-5.87C104,33.69,99.52,42.79,99.52,42.79Z"/><path class="cls-9" d="M133.11,38.94l23.5-1.64s-2.86-6.87-12-6.66C137.94,30.79,133.11,38.94,133.11,38.94Z"/><path class="cls-10" d="M108.44,41.29l5.68-.95A3.5,3.5,0,0,0,114.7,38a3.8,3.8,0,0,0-3.65-3.18,3.88,3.88,0,0,0-4,3.89A3.51,3.51,0,0,0,108.44,41.29Z"/><path class="cls-10" d="M141.05,38.39l6.2-.44A3.6,3.6,0,0,0,147.7,36a3.69,3.69,0,1,0-7.34.74A3.6,3.6,0,0,0,141.05,38.39Z"/><path class="cls-7" d="M129.92,36.22s3.25,15.26,6,22.06c-1.1.45-9.69.87-9.69.87l.66-22.48Z"/><path class="cls-8" d="M136.93,65.22a24,24,0,0,1-10.46,2.14,9.92,9.92,0,0,1-6.63-2.19,15.22,15.22,0,0,0-2.69-2.12.54.54,0,0,0-.73.73c1.87,4,6,5.12,10,5.1,3.49,0,8.64-.17,10.72-3.4C137.3,65.31,137.09,65.15,136.93,65.22Z"/><path class="cls-10" d="M119.39,27c0-.37,0-.75,0-1.13,0-.11,0-.2,0-.31a28.62,28.62,0,0,0-9.93.17q-3.33,2-6.59,4.11a31.77,31.77,0,0,1,5-1.93A42.23,42.23,0,0,1,119.39,27Z"/><path class="cls-10" d="M156.19,26.09c-5.4-3.18-13.69-2.49-19.48-.91,0,.34,0,.68,0,1,3.61-.1,7.2-.48,10.82-.51,3.16,0,5.7,1.19,8.58,1.87A14.43,14.43,0,0,1,156.19,26.09Z"/><path class="cls-8" d="M88.85,45.75c14.41-9.24,24-17.88,30.44-25.36A174,174,0,0,0,88.84,40.08,56.1,56.1,0,0,0,88.85,45.75Z"/><path class="cls-8" d="M162.42,40c-1.26-11.5-1.78-23.55-6.23-32.43A141.79,141.79,0,0,0,136.52,13C141.07,22.66,148.94,33.65,162.42,40Z"/><path class="cls-5" d="M84.83,117.68s18.26-21.51,75.64-11.07A72,72,0,0,1,153.54,134l-58.26,1.76Z"/><path class="cls-10" d="M90.22,113.38s36.07,27.53,67.53-7.08c2.72.31,5.52,2.37,8.75,7.08s8,50.38,8,50.38l-101.9,9s-1.7-38.82,6.21-49.86C82.46,117.82,87.32,115,90.22,113.38Z"/><path class="cls-10" d="M84.18,157.8c-.66,1.41.65,59.61,0,74.77,18.17,3.26,55.5,3,78.45-7.29-2.91-12.85-1.49-89.52-1.49-89.52Z"/><path class="cls-5" d="M73.75,172.62l.55,13.68a4.62,4.62,0,0,0,5.48,4.33c13-2.5,61.38-21.57,78.5-24.15-1.37-8.19-16.3-8.15-16.3-8.15Z"/><path class="cls-5" d="M172.84,163.91l1.69,12.66a6.09,6.09,0,0,1-5.75,6.51L99.57,179l7.82-8.7Z"/><path class="cls-11" d="M88.85,45.75l.27-.18,2.7,66.85c-.57.33-1.1.65-1.6,1-2.9,1.66-7.76,4.44-11.37,9.48-7.91,11-6.21,49.86-6.21,49.86l1.11-.1.55,13.68a4.62,4.62,0,0,0,5.48,4.33c1.18-.23,2.67-.59,4.39-1.07.17,16.74.34,35.36,0,43l1.41.23L79.73,330s3.85.92,10,1.81v.53c0,.28,0,.57,0,.86,0,1,0,2,0,3.13v.1c0,.6,0,1.21,0,1.84v0c0,2.63,0,5.53.07,8.62.12,17.34.21,40.46-.11,52.41-.54,20.49,21.87,7.72,21.87,7.72l-.31-61.62-.06-12c3.66,0,7.48-.07,11.36-.38a128,128,0,0,0,25.7-4.67c0,.16,0,.3.05.46s0,.28,0,.42c.15,1.28.31,2.62.47,4,0,.14,0,.27,0,.41.08.65.15,1.31.23,2a1,1,0,0,0,0,.16c.17,1.52.34,3.11.52,4.73,3,27,6.82,66.48,6.82,66.48l21.87-9.69-8.8-70.1c5.33-.23,9.73-1.52,12.11-3,3-1.88-16.27-75.69-22.09-97.72,1-.4,2-.81,3-1.24-1.29-5.72-1.73-24.06-1.82-42.67l8,.47a6.09,6.09,0,0,0,5.75-6.51l-1.69-12.66,1.7-.15s-4.81-45.67-8-50.38a30.59,30.59,0,0,0-2.56-3.28L162.42,40c-1.26-11.51-1.79-23.55-6.24-32.42-24.83,4.91-47.36,16.49-67.34,32.46A56.1,56.1,0,0,0,88.85,45.75Zm72,119.22,12-1.06-12,1.18Z"/></g><g id="Layer_5" data-name="Layer 5"><path class="cls-5" d="M252.24,235.83l-22.61,43.36,5.3,14.53s30.28-41,30.88-52.18C266.07,236.71,252.24,235.83,252.24,235.83Z"/><path class="cls-5" d="M151,243.27c0,11.32,36.73,47.81,36.73,47.81l2-16.84-21.51-31S151,239,151,243.27Z"/><path class="cls-12" d="M247.1,354.67c-.46-46.48-4.44-72.64-4.44-72.64l-63.48,5.58s-.52,58,1,78,.76,2.85.29,42.23c-.17,14.61-.28,23.8-.35,29.58q7.52-2,14.55-4.53c2.25-.8,6.65-2.42,12.4-4.91.1-8.82.29-21.84.62-40.42.79-43.25,2.1-72.3,2.1-72.3l6.65-.65s3.88-6.18,4,44.81c.07,26.17.06,47.56.05,62.2A202.41,202.41,0,0,0,247,405.43C247.2,390.58,247.28,372.85,247.1,354.67Z"/><path class="cls-5" d="M191.87,102.85l5,48.6L206.17,175l12.89-6.87,3.31-14.77s-6.82-27.88-6.09-35.84C212.89,111.27,191.87,102.85,191.87,102.85Z"/><path class="cls-13" d="M192.15,107.67l1.23,9.7s9.93,18.15,13.74,22.27c3,3.21,13.59,6.56,13.59,6.56s-5.08-21.87-4.43-26.56C213,116.84,192.15,107.67,192.15,107.67Z"/><path class="cls-5" d="M225.61,36.34c7.11,4.61,21.83,21,22.46,34.53s-.63,46.83-.63,46.83a65.46,65.46,0,0,0-8.64,19.06c-3.94,2-15.9,1.55-15.9,1.55s-20.17-17.28-28.8-23-19.83-22.47-20.87-44.68C179.4,53.31,225.61,36.34,225.61,36.34Z"/><path class="cls-14" d="M220.71,116.37s2,1.12,3.07.27.77-1.26,2.46-1.32,2.43,1,3.88.91,2.85-1.61,4.39-1.67,4.42,2.91,4.42,2.91a9.14,9.14,0,0,1-8.81,7.13c-7.62.46-7.73-4-8.27-5A20.16,20.16,0,0,1,220.71,116.37Z"/><path class="cls-8" d="M230.26,87.34s.21,6.93,1.66,9.77,5.42,5.91,6.14,9.65c-2.12.78-7.27,2.45-9.46.78-.52-3.61-.49-20.2-.49-20.2Z"/><path class="cls-9" d="M199.53,83.1c-1.41,5.49,10.78,16.84,22.24,1.9C221.66,74.73,202.2,72.63,199.53,83.1Z"/><path class="cls-9" d="M228.83,83.1c1.81,6.59,13.46,11.12,19.24-2.25C244.7,72.12,233.6,69.48,228.83,83.1Z"/><path class="cls-12" d="M210.38,89.84a25,25,0,0,0,2.25-1.53,3.69,3.69,0,0,0,.34-.69,9.35,9.35,0,0,0,.5-3.09c.31-2.92-.64-7.3-4.53-6s-4.13,8.1-1.16,10.43A3.82,3.82,0,0,0,210.38,89.84Z"/><path class="cls-12" d="M240.77,85.12A6.33,6.33,0,0,0,242,80.69a4.14,4.14,0,0,0-1.69-3.36l-.18-.09a2.81,2.81,0,0,0-3.55.21,3.7,3.7,0,0,0-.92,1.47,6.88,6.88,0,0,0-.26,5.6,3.28,3.28,0,0,0,2.13,2.21,2.11,2.11,0,0,0,1.84-.33A18.71,18.71,0,0,0,240.77,85.12Z"/><path class="cls-8" d="M204.66,52.53a30.17,30.17,0,0,0,15.11,6.93c9.22,1.42,11.61.6,16.59,2.36a77.84,77.84,0,0,1,8.27,3.62c1.75.87,2.94,1.52,2.94,1.52s-3.89-15.39-8.38-20.09a136.37,136.37,0,0,0-12.48-10.82l-16.58,7.69-7.46,5.59s7.19,7.36,10.55,8.41a39,39,0,0,0,8.55,2c3.46.41,10.14.75,12.37,1.41"/><path class="cls-8" d="M190.8,55.25l2.9,6.86s1.5,15.38-6.4,25.7a80.3,80.3,0,0,1-8.84,6.32l-9-23.54,3.33-17.77,19.06-6.42Z"/><path class="cls-7" d="M184.64,83.84l-.65-.25c3.44-8.85,3-24.87,3-25l.69,0C187.73,58.7,188.12,74.86,184.64,83.84Z"/><path class="cls-7" d="M180.54,84.33a109.65,109.65,0,0,1,.8-20.57c.09-.79.17-1.47.17-1.59l.66-.18c.05.15,0,.28-.14,1.85a108.32,108.32,0,0,0-.8,20.44Z"/><path class="cls-7" d="M178.44,87.52c-3.76-6.31-2.57-19-2.52-19.51l.69.06c0,.13-1.22,13,2.43,19.1Z"/><path class="cls-7" d="M247.37,66.18c-2.78-2.62-5.56-4.19-10.15-6.15a33.13,33.13,0,0,0-9.1-2.38c-1.36-.22-2.89-.46-4.74-.82-8.75-1.68-12.74-6.42-12.9-6.62l.53-.44s4,4.75,12.51,6.38c1.83.35,3.36.6,4.71.81a34.24,34.24,0,0,1,9.26,2.43c4.67,2,6.66,3.1,9.53,5.54Z"/><path class="cls-7" d="M246.75,64c-1.17-1.4-5.8-4.42-7.8-5.91a34.81,34.81,0,0,0-11.71-5.44c-4.87-1.08-10.92-5.75-11.17-5.95l.42-.54c.06,0,6.18,4.77,10.9,5.81a35.43,35.43,0,0,1,12,5.56c1.9,1.42,5.63,3.88,7,5.11Z"/><path class="cls-7" d="M245.57,60.16a36.71,36.71,0,0,0-4.81-4.53c-.63-.54-1.28-1.09-2.06-1.8a30.57,30.57,0,0,0-8.61-5.31,35,35,0,0,1-7.88-5.35l.56-.41a35.78,35.78,0,0,0,7.6,5.13,31.33,31.33,0,0,1,8.79,5.42c.77.71,1.43,1.27,2.05,1.79a23.26,23.26,0,0,1,3.89,3.66Z"/><path class="cls-7" d="M243.92,55.54a81.58,81.58,0,0,0-5.81-6.11c-2.25-2-10.24-8.1-10.32-8.16l.42-.55c.08.06,8.09,6.2,10.35,8.19a50.15,50.15,0,0,1,4.62,4.77Z"/><path class="cls-12" d="M173.59,81.36s1.61-5.69,5.69-7.77,19.2-8.34,24.34-11.48S218.14,54.69,222.9,54s15.15-4.72,17.34-5.88c.22-2.37-6.12-14-14.25-15.93-6-1.41-5.68-2.29-5.68-2.29s-1.13-2.2-5.68-4.47-7.7-2.11-10.64-4.19S191,8,185.33,8.37s-17,2.63-20.72,7.12-8.9,10.28-5.67,15.32S164.35,36.57,165,41s-1.25,9,.29,15.06.73,4.88.73,4.88-1.58,1.85-.65,5.47,1.72,7.1,3.74,9.8S170.84,81.26,173.59,81.36Z"/><path class="cls-5" d="M189.7,88.86s-3.07-9-8.91-6.1-4,28.51,8.91,19.11"/><polygon class="cls-5" points="192.15 156.72 200.69 148.02 217.69 149.53 222.4 153.57 230.91 187.69 214.98 219.46 192.15 213.62 184.31 167.94 184.31 162.62 192.15 156.72"/><path class="cls-5" d="M199.42,149.53s-9.16,10-15.11,13.09-19.41,10.87-23.22,17.93-9.81,26.36-10,41.31-.09,21.41-.09,21.41h17.18a111.54,111.54,0,0,0,1.29-15c.39-10.31,1-24.22,1.83-26.54s6.09-9.21,6.09-9.21,0,.47,0,1.31a23.58,23.58,0,0,1,6-9.57A19.46,19.46,0,0,1,201,178.66C203.24,179.06,199.42,149.53,199.42,149.53Z"/><path class="cls-5" d="M263.47,213.08c-1.92-13.06-2.13-24-6.78-32.49s-22.15-21.81-36.45-28c-1.07-.47-2.09-.87-3.08-1.24-.63,3.42-1.75,6.81-2.15,10.24-.7,6,9.63,23.49,13.1,25,1.11-.91,3.23,4.28,4.78,4.54a14.34,14.34,0,0,1,4.15,1.5v-.05s6.12,1.1,8.05,10.59S249.87,222,250.17,234s.73,3.06.62,7.51h15A283.71,283.71,0,0,0,263.47,213.08Z"/><path class="cls-7" d="M185.75,161.78s8.69,34.76,15.73,39.34,8.24,4.57,10.69,4.06,12.24-11.14,13.6-16.29,3.89-27.06,4.78-31c1.95,1.19,6.49,4.16,6.49,4.16s1,38.52,1.94,46,5.45,73,5.45,76.34l-67,5.12s-.36-66.52.2-76.14.71-19.58,1.58-31.94.85-16.56.85-16.56Z"/><path class="cls-8" d="M239,208.59s-56.35-6.82-56.62,42.47c.23.27,6.8,0,6.8,0s2.73-35.41,50.22-37.3C239.19,212.17,239,208.59,239,208.59Z"/><path class="cls-12" d="M239.31,212.75l.37,6.08s-42.63-.53-45.59,32.35a52.6,52.6,0,0,1-7.37,0S187.92,215.47,239.31,212.75Z"/><path class="cls-15" d="M239.63,218.08l.31,5.42s-40.51.06-42.07,27.56a32.17,32.17,0,0,1-4.77.12S193.58,220.05,239.63,218.08Z"/><path class="cls-10" d="M239.87,222.22l.32,6.16s-35.25-3.5-37.71,22.8c-1.48.14-5,0-5,0S198.17,222.71,239.87,222.22Z"/><path class="cls-12" d="M220.16,67.76c-1.91-2.84-7.67-1.17-10.43-.69-3.73.65-8.69,2-11.14,5.06a.67.67,0,0,0,.81,1.05,33.77,33.77,0,0,1,11.86-2.83c2.65-.14,6.15.29,8.5-1.09A1.11,1.11,0,0,0,220.16,67.76Z"/><path class="cls-12" d="M248.39,71.26c-2.71-4.28-11.45-6.15-16-4.5a.76.76,0,0,0,0,1.45c2.47,1,5.25.84,7.82,1.5s4.83,2.14,7.38,2.58C248.16,72.39,248.74,71.82,248.39,71.26Z"/><path class="cls-7" d="M238.76,117.56c-2.13-.4-4.61.89-6.75,1.16-3.93.49-7.54.5-10.77-2.23a.53.53,0,0,0-.75.75c3.86,4.91,13.91,5,18.36.68A.22.22,0,0,0,238.76,117.56Z"/><path class="cls-16" d="M247.1,354.67c-.38-38.06-3.11-62.48-4.09-70.09l1.42-.11c0-.41-.07-1.78-.19-3.86,9-13,21.19-32,21.57-39.07a283.71,283.71,0,0,0-2.34-28.46c-1.92-13.06-2.13-24-6.78-32.49-2.88-5.23-10.71-12.36-19.65-18.5h0c-2.1-1.44-4.26-2.83-6.44-4.12l0,0h0c-2.73-1.62-5.48-3.1-8.15-4.36h0l-.07-.06,0-.17s-2.32-9.47-4.11-19c2.8,2.35,4.64,3.92,4.64,3.92s12,.4,15.9-1.55a65.46,65.46,0,0,1,8.64-19.06s1.18-31.27.68-45.51a.64.64,0,0,0,.27-.93c-.1-.15-.21-.29-.32-.43a22.32,22.32,0,0,0-.55-3.9l0,0s-.07-.29-.2-.78h0l-.13-.48L247,65v0h0c-.08-.3-.17-.62-.28-1h0l-.16-.55c-.07-.24-.15-.48-.22-.73l0-.08h0c-.23-.76-.49-1.58-.77-2.45h0l0-.09c-.14-.4-.27-.82-.42-1.24l0-.07h0c-.36-1.06-.75-2.14-1.18-3.22h0l-.07-.18-.06-.14-.61-1.54-.05,0a30.18,30.18,0,0,0-2.92-5.5h0c.22-2.37-6.12-14-14.25-15.93-6-1.41-5.68-2.29-5.68-2.29s-1.13-2.2-5.68-4.47-7.7-2.11-10.64-4.19S191,8,185.33,8.37s-17,2.63-20.72,7.12-8.9,10.28-5.67,15.32S164.35,36.57,165,41s-1.25,9,.29,15.06.73,4.88.73,4.88-1.58,1.85-.65,5.47,1.72,7.1,3.74,9.8,1.7,5.06,4.45,5.16l3.47,9.09c.18.54.38,1.07.58,1.6.07,5.28,1.93,10.94,5.88,11.77a41.55,41.55,0,0,0,9.5,10.74l.36,2.81,3.54,34.08.11.3-4.88,5-7.64,5.75-1.73,1c-.82.44-1.71.94-2.67,1.49l-.05,0h0c-6.62,3.8-15.91,9.93-19,15.6-3.81,7.06-9.81,26.36-10,41.31s-.09,21.41-.09,21.41c0,7.36,15.51,25.35,26.38,37,0,5.67,0,9.28,0,9.28l1.74-.13c-.08,10-.34,58.29,1.06,76.18,1.57,20,.76,2.85.29,42.23-.17,14.61-.28,23.8-.35,29.58q7.52-2,14.55-4.53c2.25-.8,6.65-2.42,12.4-4.91.1-8.82.29-21.84.62-40.42.79-43.25,2.1-72.3,2.1-72.3l6.65-.65s3.88-6.18,4,44.81c.07,26.17.06,47.56.05,62.2A202.41,202.41,0,0,0,247,405.43C247.2,390.58,247.28,372.85,247.1,354.67ZM177.63,213.45c-.29,4.92-.33,24.77-.31,43l-9.13-13.14a111.54,111.54,0,0,0,1.29-15c.39-10.31,1-24.22,1.83-26.54s6.09-9.21,6.09-9.21,0,.47,0,1.31a24,24,0,0,1,1.27-3.1C178.24,199.07,178.05,206.36,177.63,213.45ZM239,208.13c-.32-2.5-.64-8.44-.92-15.24,1.82.77,5.59,3.17,7,10.26,1.92,9.5,4.78,18.89,5.08,30.88.06,2.76.14,4.4.21,5.36l-7.86,15.08C241.17,234.93,239.51,212.36,239,208.13Z"/></g><g id="Layer_4" data-name="Layer 4"><path class="cls-5" d="M161.73,396.57c-.36-3.2-.89-6.39-1.5-9.46a24.88,24.88,0,0,0-1-3.59,3.49,3.49,0,0,0,0-1.21,17.3,17.3,0,0,0-1.23-4.35,27.25,27.25,0,0,0-1.84-4.91c-1.83-3.62-7.3-.43-5.45,3.18A18.7,18.7,0,0,1,152,379.4a6.75,6.75,0,0,0-1-1,2.94,2.94,0,0,0-2.28-.73,3.1,3.1,0,0,0-2.21-1.19,1.4,1.4,0,0,0-2.16.31c-1.72,2.67-2.58,5.82-3.77,8.83-.54,1.19-1.09,2.38-1.69,3.55-1.54,3.05,2.86,5.73,4.57,3a94.94,94.94,0,0,1-1.61,10.68c-.74,3.41,4.49,4.87,5.24,1.45.62-2.83,1.27-5.67,1.83-8.53.14,2.73.29,5.45.3,8.19,0,3.54,5.41,3.53,5.49,0,.07-3.33.44-6.63.6-10q0-.91,0-1.83c.12.55.23,1.09.34,1.64a88.32,88.32,0,0,1,1,9.59c.07,3.56,5.47,3.57,5.53,0A44.86,44.86,0,0,0,161.73,396.57Z"/><path class="cls-12" d="M142.53,228.38,135.1,266.9s5.09,1.56,7.43,11.72c3.55,15.4,2.09,45,1.82,49.82h0l-3.53,52.61,20.5.85,4.26-52.77h.06C167.21,238.53,142.53,228.38,142.53,228.38Z"/><path class="cls-7" d="M31.15,374.73l-7.72,40.18C34.3,425.43,48.84,433,65.35,438l6.24-29h5.72L74.94,440.5a201.34,201.34,0,0,0,45.77,4.81l2.36-65.81Z"/><path class="cls-9" d="M39.71,379.53c-2.46,13.88-5.14,27.83-8.23,42.86.59.43,1.18.86,1.78,1.27,3.17-15.38,5.9-29.61,8.42-43.78Z"/><path class="cls-9" d="M34.71,379.53C32.43,392.36,30,405.25,27.17,419l1.75,1.44c2.89-14.16,5.42-27.39,7.76-40.56Z"/><path class="cls-8" d="M15.65,329.13H74.51L68.36,217.61H52.7A46.68,46.68,0,0,0,37.18,219C39.06,266.87,25.81,301.08,15.65,329.13Z"/><path class="cls-13" d="M69.29,225.6c-9.13,1.51-21.91,4.64-32.24,14.37-2,37.18-12.79,65.39-21.4,89.16H74.51Z"/><polygon class="cls-12" points="71.26 172.41 88.15 244.92 130.02 239.39 135.91 179.13 71.26 172.41"/><polygon class="cls-17" points="87.9 186.62 85.73 214.72 65.45 228.5 142.53 228.38 121.5 212.43 122.88 188.5 87.9 186.62"/><polygon class="cls-13" points="87.9 186.62 86.86 200.07 95.43 209.09 121.55 211.58 122.88 188.5 87.9 186.62"/><path class="cls-5" d="M90.61,87.42c11.81-2.07,47.07-6.6,50.34,39.36,2.89,40.48-2.56,71.51-2.56,71.51s-11.55,1.34-19.33,1.7-21,.7-21,.7-26.3-19.76-35.81-60.07S56,105.07,56,105.07,67.58,91.45,90.61,87.42Z"/><polygon class="cls-8" points="113.56 130.05 123.33 160.73 106.12 161.92 113.56 130.05"/><path class="cls-9" d="M74.67,131.17s13.65-3.37,21.55-2.38,8.89,6.41,8.89,6.41a16.53,16.53,0,0,0-4.77-.43c-2.57.17-13.76,3-17.91,2.68S74.67,131.17,74.67,131.17Z"/><path class="cls-12" d="M94,131.4a4.94,4.94,0,0,0-1.57-2.74,34.17,34.17,0,0,0-6.72.29c-1.78,2-2.14,6-.29,8.07l.1.09c2.42-.35,5.2-.88,7.63-1.35A6.11,6.11,0,0,0,94,131.4Z"/><path class="cls-9" d="M140.57,120.81c-3.11.65-6.66,2.13-9.72,3-8,2.18-8.91,9-8.91,9a7.13,7.13,0,0,1,4.2-1.76c2.48-.21,11-2,15.54-2.86A68.35,68.35,0,0,0,140.57,120.81Z"/><path class="cls-12" d="M126.9,125.15a6.28,6.28,0,0,0-.26,4.53,4.49,4.49,0,0,0,.84,1.59c2.13-.25,5-.93,7.42-1.29a3.65,3.65,0,0,0,.77-2.61,4.87,4.87,0,0,0-.06-.55,5.57,5.57,0,0,0-1.07-3,9.74,9.74,0,0,0-.92-.9c-1.83.42-3.33,1.15-5,1.61A17.36,17.36,0,0,0,126.9,125.15Z"/><path class="cls-12" d="M98,82c-6.49-3.77-14.85.26-19.8,5a24.83,24.83,0,0,0-6.34,10.87c-.75,2.47-1,5.11-1.84,7.54-.94,2.68-2.82,4.83-3.52,7.6a1.39,1.39,0,0,0,2.3,1.34c6.19-5.42,5.15-13.79,9-20.44a19.78,19.78,0,0,1,7.83-7.38c3.08-1.7,8.08-4,11.69-3A.87.87,0,0,0,98,82Z"/><path class="cls-12" d="M88.76,82.3C80.66,79.64,70.35,87,65.68,93a29.16,29.16,0,0,0-5.58,13.6c-.57,3.76-1.65,10,2.27,12.22a1,1,0,0,0,1.51-.61c.61-3.51-.39-7.18.12-10.81a25.28,25.28,0,0,1,4.81-12A29.62,29.62,0,0,1,78,87.72c2.39-1.29,7.33-4.07,10.17-3.39A1.05,1.05,0,0,0,88.76,82.3Z"/><path class="cls-12" d="M87,82C75.2,81.17,64,85.79,57.58,96A32,32,0,0,0,53,111.55c-.25,4.17-.71,10.65,3.41,13.12a1.27,1.27,0,0,0,1.84-1.42c-.63-4.38-1.53-8.26-1.17-12.75a27.08,27.08,0,0,1,4.25-13C66.94,89.1,77.19,85,87,83.9A1,1,0,0,0,87,82Z"/><path class="cls-12" d="M21.49,329.13S31.59,298.84,48,278.31C43,301,36,329.13,36,329.13h.12L26,381.1s25.32,4.11,48.5,4.11c34.28,0,48.91-3,48.91-3l7.32-53.06,11.79-100.75L72.08,224a141.09,141.09,0,0,0-35.73,25.44c-5.54,58-32,93.22-31.73,125.38a39.47,39.47,0,0,0,4.25-.36C9.75,361.67,21.49,329.13,21.49,329.13Z"/><path class="cls-9" d="M65.09,227.7s-.9,38.6-21,67.52c3.36-17.37,9.39-60.09,9.39-60.09Z"/><path class="cls-7" d="M98.36,90.24c.17.55,1.25,16.2,3,19.3C96.75,111.15,67,119.38,67,119.38l4.64-18.21Z"/><path class="cls-7" d="M99.71,90.24l5.34,18.31,32.79-3.74L129,92a15.1,15.1,0,0,0-10.57-5.78C111.37,85.6,99.71,90.24,99.71,90.24Z"/><path class="cls-12" d="M35.76,137.66c7,13.48,21,37.18,27.56,55.67a59.84,59.84,0,0,1,1.77,34.37l46.8,38.83,25.16-41.11-2-26.87-6.39.73s-.15,4.84-2.77,13.45-13.06,23.4-13.06,23.4-6.15-15.07-13.77-23C79.83,190.91,70,160.63,67.05,140.42c-4.31-29.07,17.47-48.08,38.52-50s28.35,8.9,28.35,8.9-.4-21.42-23.07-24.52-42,0-64,15.62l-.44.32c-6,12.68-10.12,27.14-12.09,44Q35,136.26,35.76,137.66Z"/><path class="cls-9" d="M142.53,228.38s-1.69,27.29-7,59.79c-10-38.31,1.52-64.88,1.52-64.88Z"/><path class="cls-8" d="M110.08,277.36a.8.8,0,0,1-.79-.64c-1.62-7.94,1-17.8,3.73-26.4,2-6.22-2.8-16.11-2.85-16.21a.8.8,0,0,1,1.44-.71c.21.43,5.12,10.57,2.93,17.41-2.69,8.4-5.23,18-3.68,25.59a.8.8,0,0,1-.62,1Z"/><path class="cls-8" d="M124.79,270.21a.76.76,0,0,1-.53-.2,21.13,21.13,0,0,1-6.19-19,26.09,26.09,0,0,0-2.86-16.86.8.8,0,0,1,1.36-.85,27.36,27.36,0,0,1,3.08,18,19.84,19.84,0,0,0,5.66,17.49.8.8,0,0,1-.52,1.4Z"/><path class="cls-12" d="M120.57,168.19c-1.89,3.44-11.87,5.55-14.42,1.87a.59.59,0,0,0-1.07.46c2,7.28,15.36,4.7,18.41-.63C124.57,168,121.62,166.28,120.57,168.19Z"/><path class="cls-12" d="M98.42,118.93c-3.32-2.66-9.13-.55-12.82.21-5.22,1.08-10.54,3.11-12.91,8.25a.84.84,0,0,0,1.14,1.15c4.28-1.93,7.76-4.52,12.35-5.84,3.92-1.14,7.7-2.44,11.8-2.73C98.45,119.94,98.87,119.29,98.42,118.93Z"/><path class="cls-12" d="M140.25,114.25c-5.22-3.09-13.74-1.83-19.26,0a.93.93,0,0,0,.25,1.82c3.1.22,6.16-.35,9.26-.45s6.15.6,9.23.55A1,1,0,0,0,140.25,114.25Z"/><path class="cls-5" d="M5.79,385.49c0-.15,0-.3,0-.44,1.7,2.71,6.1,0,4.56-3-.59-1.17-1.14-2.36-1.68-3.55-1.2-3-2.06-6.17-3.78-8.84l0,0A55.33,55.33,0,0,0,5.79,385.49Z"/><path class="cls-18" d="M4.77,375.13c0,.28,0,.57,0,.85s0,.81.06,1.21l.06.91c0,.4.07.8.11,1.2s.07.61.1.91.1.8.16,1.2.09.6.14.91c.17,1,.36,2.06.59,3.09,1.85,2.07,5.75-.49,4.28-3.38-.59-1.17-1.14-2.36-1.68-3.55s-.95-2.56-1.43-3.83c.65-.06,1.22-.13,1.68-.2.88-12.78,12.62-45.32,12.62-45.32H36.11L26,381.1s1.4.23,3.81.57l-6.38,33.25q1,1,2.07,1.92l0,0c.7.62,1.4,1.23,2.12,1.82l.06.06c.71.59,1.44,1.17,2.18,1.74l.07.06c.74.57,1.49,1.13,2.26,1.69l0,0q1.17.84,2.37,1.65h0A114.2,114.2,0,0,0,65.4,438l6.19-29h5.72L74.94,440.5a183.42,183.42,0,0,0,22.33,3.67h0a219,219,0,0,0,23.29,1.13h0l2.37-63,.46-.09,7.32-53.06,4.79-41h0c1.07-6.54,2-12.86,2.78-18.79a21.15,21.15,0,0,1,4.22,9.24c3.55,15.4,2.09,45,1.82,49.82h0l-3.53,52.61,1.46.06c-.57,1.49-1.08,3-1.67,4.51-.54,1.19-1.09,2.38-1.69,3.55-1.54,3.05,2.86,5.73,4.57,3a94.94,94.94,0,0,1-1.61,10.68c-.74,3.41,4.49,4.87,5.24,1.45.62-2.83,1.27-5.67,1.83-8.53.14,2.73.29,5.45.3,8.19,0,3.54,5.41,3.53,5.49,0,.07-3.33.44-6.63.6-10,0-.61,0-1.22,0-1.83l.33,1.64a88.32,88.32,0,0,1,1,9.59c.07,3.56,5.47,3.57,5.53,0a44.86,44.86,0,0,0-.48-6.86c-.36-3.2-.89-6.39-1.5-9.46a24.88,24.88,0,0,0-1-3.59,3.49,3.49,0,0,0,0-1.21c0-.17-.06-.33-.09-.49l2.08.08,4.26-52.77h.06c1.61-90.6-23.07-100.75-23.07-100.75h0l-5.48-5.1s-.05.11-.13.32l-1.81-24.95,3.28-.36s5.3-30.26,2.66-70l.63-.12a68.35,68.35,0,0,0-1.11-7.35l-.25.06c-.24-1.65-.53-3.21-.86-4.71h.27a1,1,0,0,0,.52-1.91,11,11,0,0,0-1.42-.69,46.64,46.64,0,0,0-3.14-8.51l2.15-.24-3.93-5.67c-.11-2.25-1.73-21.38-23.06-24.3-22.7-3.1-42,0-64,15.62l-.44.32h0c-.23.48-.45,1-.67,1.47S45.21,93.41,45,94s-.45,1-.67,1.53c-.38.91-.75,1.83-1.12,2.75-.21.53-.41,1.07-.61,1.61s-.45,1.2-.67,1.81l-.75,2.12c-.26.78-.52,1.56-.78,2.36l-.54,1.76c-.2.63-.38,1.27-.57,1.91q-.37,1.34-.75,2.7l-.51,2c-.16.63-.31,1.28-.47,1.92s-.32,1.4-.47,2.11c-.22,1-.42,1.92-.62,2.9l-.36,1.87c-.13.69-.26,1.38-.38,2.07-.18,1-.35,2.08-.51,3.13-.11.73-.22,1.47-.32,2.21s-.18,1.29-.26,1.94-.19,1.43-.28,2.16h0q.72,1.45,1.44,2.85c7,13.48,21,37.18,27.56,55.67a60.73,60.73,0,0,1,3.34,24.28h-14A46.59,46.59,0,0,0,37.32,219h0c.2,5.24.21,10.32.06,15.25v0c-1.39,47-17.15,80-26.25,107.52-.07.2-.13.4-.2.61-.19.59-.39,1.18-.57,1.76-.1.3-.19.6-.29.91l-.45,1.45c-.1.34-.21.67-.31,1s-.27.92-.41,1.39-.19.66-.28,1c-.21.73-.41,1.45-.6,2.17-.1.35-.19.7-.28,1.05s-.21.82-.31,1.22-.19.78-.29,1.18-.16.71-.25,1.06l-.27,1.22-.21,1c-.08.41-.17.82-.25,1.23s-.11.64-.17,1c-.15.82-.29,1.63-.41,2.45,0,.26-.09.52-.12.78-.06.42-.11.83-.17,1.25s-.07.61-.11.92-.09.83-.13,1.24,0,.61-.08.92l-.09,1.24c0,.3,0,.59,0,.89s0,.84,0,1.26c0,.25,0,.5,0,.75C4.75,373.52,4.75,374.32,4.77,375.13Z"/></g><g id="Layer_3" data-name="Layer 3"><path class="cls-8" d="M125.18,416.24s3.83,16.54,7.32,28.86c7.12-.39,14.22-1.1,21.2-2.11l-18-36Z"/><polygon class="cls-19" points="127.56 426.18 145.3 426.18 146.95 429.48 130.62 437.63 127.56 426.18"/><path class="cls-17" d="M169.09,433.68c.52-3.14-1.34-6.72-4.87-7.21-1.51-.2-2.47.7-3.8.89-.74.11-.56.37-1.35.24-.47-.07-1.25-.84-1.77-1a3.92,3.92,0,0,0-3.83.29,3.51,3.51,0,0,0-4.55,1c-1.34,1.48-1.49,1.12-1.29,3,.24,2.31,4.19,8.57,3.56,12.51,6.14-.82,12.2-1.88,18.11-3.15a4.91,4.91,0,0,0,.65-1.83A11.69,11.69,0,0,0,169.09,433.68Z"/><path class="cls-8" d="M101.41,376.49c4.54-4.34,14.44-15.39,20.13-14.81s8.81,3.09,10,7.13,2.93,13.48,2.93,13.48l-30.88,3.28-2.13-5.43Z"/><line class="cls-20" x1="114.2" y1="335.15" x2="131.63" y2="378.1"/><path class="cls-8" d="M120.13,365.55c1.43.19,6.94.79,10,5.6s1.52,12.36,1.52,12.36l-10.9,1.24-5.81-5.82Z"/><path class="cls-12" d="M188.19,325.71,180.57,376l-7.86,63.44a200.89,200.89,0,0,0,21.88-6.36,216.29,216.29,0,0,0,50.87-26.44l-.85-82.94Z"/><path class="cls-17" d="M253.39,389.91c.57-10.65,11-57.6,10.17-61.52s-8.53-8.52-8.53-8.52l-22.45,13.67s-8.48,31.08-8.74,49.73c-.18,12.33-1.5,27-2,37.79a192.73,192.73,0,0,0,31.69-20.58C253.35,395.88,253.27,392.1,253.39,389.91Z"/><path class="cls-21" d="M247.25,308.23a7.51,7.51,0,0,0-.65-.71,2.16,2.16,0,0,0,.14-.57c1.18-1.3,1.19-3.82-1-4.12-5-.68-11.07.55-15.65,2.46-2.72,1.13-5.28,2.64-8.14,3.39A59.37,59.37,0,0,1,211.6,310a73.38,73.38,0,0,0-18.85,3.73c-4.07,1.44-8.59,2.88-11.48,6.26-1,1.13-1.16,3.43.54,4.15,2.55,1.08,4.58.4,7-.77h0a2.13,2.13,0,0,0,1.69.57l.69-.09a3.36,3.36,0,0,0,1.74,1.63,7.56,7.56,0,0,0,4.22.15l0,0c5.38,3.36,14.13,2.2,20.09,1.53,7.3-.81,14.31-2.28,20.22-6.87,2.19-1.7.11-4.48-2.18-4.36a12.72,12.72,0,0,0,3.4-3.38,2.47,2.47,0,0,0,.41-1.25,19.42,19.42,0,0,0,4.42-1,2.37,2.37,0,0,1,1.31.36C246.24,311.59,248.32,309.62,247.25,308.23Z"/><polygon class="cls-8" points="186.84 307.69 189.03 319.87 195.67 329.7 231.19 319.24 238.78 313.71 231.19 300.88 186.84 307.69"/><path class="cls-13" d="M189,319.87s19.71-1.62,28.26-4.05c8.84-2.51,17.48-8.88,17.48-8.88l-3.58-6.06-44.53,5.47Z"/><path class="cls-8" d="M168.6,228.3c-9.31,6.3-39.09,28.65-34.95,51.06s21.84,27.7,34.38,27.49c4,4.21,13.31,8.73,25.28,1.12a52.19,52.19,0,0,0,37.88-2.22c17.86-8.26,36.61-20.51,37.69-40.76-1.62-10.05-27.32-44.61-27.32-44.61l-26.11.21Z"/><path class="cls-9" d="M185.83,259.73c3.07,6.09,19.33,15.83,28.1-1.42C210.52,243.71,190.38,246.57,185.83,259.73Z"/><path class="cls-9" d="M143.58,262.07c3.44,8.17,15.51,12.45,26-1.1C167.08,245.73,146.83,248.56,143.58,262.07Z"/><path class="cls-7" d="M172,261s2.08,17.47-1.05,21.44c-2,.54-4.08.09-4.46,1.71s-1.9,4.59,7.32,3.42c-.57,2.37-1.22,5.31,2,5.32s5.57-1.71,5.39-5.8c1.21-.38,5.83-.76,5.39-3.7s-7.2-2.64-7.2-2.64a35.37,35.37,0,0,1-.46-19.41C178.41,261.32,172,261,172,261Z"/><path class="cls-12" d="M161.89,255.24a3.31,3.31,0,0,0-4.4-.64,3.69,3.69,0,0,0-.66.65,5.51,5.51,0,0,0-.83.9,5.77,5.77,0,0,0-1,1.41c-1.16,2.35-1.66,5.55-.14,7.86a3.89,3.89,0,0,0,6.52.35,10.67,10.67,0,0,0,1.93-6.4A5.81,5.81,0,0,0,161.89,255.24Z"/><path class="cls-12" d="M205.59,259.24c.41-2.26.16-4.6-1-5.91-2.64-3.09-6.79-1-8.37,2a9.71,9.71,0,0,0-1,4.55,4,4,0,0,0,2.18,3.92,5.34,5.34,0,0,0,1,.82c3.13,1.9,5.58-.43,6.7-3.56A8.07,8.07,0,0,0,205.59,259.24Z"/><path class="cls-12" d="M167.72,243c-6.72.88-16.8,1.4-20.38,8.36-.12.23.12.43.33.42,7-.36,13.87-2.26,20.87-3.12C172.19,248.2,171.37,242.51,167.72,243Z"/><path class="cls-12" d="M214.9,249.25c-2.53-2.82-7.63-4.25-11.2-5.15-3.9-1-9.4-1.76-13.34-.71-2,.54-2.41,4.13.11,4.09a67,67,0,0,1,12.17.87c3.81.64,7.36,2.35,11.16,2.92A1.26,1.26,0,0,0,214.9,249.25Z"/><path class="cls-5" d="M214.89,258.28a.4.4,0,0,1,0-.79c.06,0,5.83,0,9-1.81a.39.39,0,0,1,.38.69c-3.38,1.87-9.17,1.91-9.41,1.91Z"/><path class="cls-5" d="M214.89,256.42a.39.39,0,0,1-.08-.78c.07,0,6.94-1.37,9.68-4.25a.39.39,0,0,1,.55,0,.38.38,0,0,1,0,.55c-2.91,3.06-9.79,4.42-10.09,4.48Z"/><path class="cls-5" d="M224.11,261.36a.33.33,0,0,1-.17,0c-3.16-1.56-9-1.24-9-1.24a.39.39,0,0,1,0-.78c.24,0,6.07-.34,9.41,1.32a.38.38,0,0,1,.18.52A.39.39,0,0,1,224.11,261.36Z"/><path class="cls-5" d="M143.69,258.32h0a4.71,4.71,0,0,1-3.68-2.15.39.39,0,0,1,.15-.53.39.39,0,0,1,.53.16,4,4,0,0,0,3,1.73.4.4,0,0,1,0,.79Z"/><path class="cls-5" d="M143.05,260.15c-1.08,0-3.48-.13-4.66-1.18a.39.39,0,0,1,0-.55.4.4,0,0,1,.56,0c1.27,1.15,4.61,1,4.64,1a.39.39,0,1,1,0,.78Z"/><path class="cls-5" d="M137.56,263.87a.35.35,0,0,1-.27-.11.38.38,0,0,1,0-.55c1.64-1.7,5.6-2.26,5.77-2.28a.39.39,0,1,1,.11.77s-3.87.55-5.32,2.05A.39.39,0,0,1,137.56,263.87Z"/><path class="cls-5" d="M198.22,295.86a.39.39,0,0,1-.43-.1,59.35,59.35,0,0,0-11.86-9.42.38.38,0,0,1-.14-.53.39.39,0,0,1,.53-.15,60.22,60.22,0,0,1,12,9.57.38.38,0,0,1,0,.55A.42.42,0,0,1,198.22,295.86Z"/><path class="cls-5" d="M167.66,300.35h0a.39.39,0,0,1-.35-.43,110.17,110.17,0,0,1,1.9-11.32.39.39,0,0,1,.47-.29.39.39,0,0,1,.29.47A110.63,110.63,0,0,0,168.05,300,.39.39,0,0,1,167.66,300.35Z"/><path class="cls-5" d="M197.64,273.56a10.58,10.58,0,0,1-2.45-.28,9.69,9.69,0,0,1-6.92-6.22.4.4,0,0,1,.24-.5.4.4,0,0,1,.5.24,8.9,8.9,0,0,0,6.36,5.72c4.39,1,9.57-1,14.59-5.87a.39.39,0,0,1,.54.56C206.18,271.37,201.7,273.56,197.64,273.56Z"/><path class="cls-5" d="M150.32,274.51a8.58,8.58,0,0,1-2.81-.46,7.92,7.92,0,0,1-4.79-5.11.4.4,0,0,1,.28-.48.39.39,0,0,1,.48.28,7.22,7.22,0,0,0,4.3,4.58c3.76,1.3,9.24-.64,15.83-5.6a.39.39,0,1,1,.47.62C158.64,272.44,154,274.51,150.32,274.51Z"/><path class="cls-12" d="M221.35,221.44s-16.58,7.47-16.41,19.2c-5.54.75-62.86,4-73.13,7.29-.53-8.81,12.08-36.87,52.19-33.37,24.68,2.16,26.18,5.48,40.11,5.17Z"/><path class="cls-12" d="M221.35,221.44s2.09,20.25,9.84,31.53,18.32,17.32,21.83,8,9.87-10.59,15.31-10.91c.67-3.35,10-23.86-7.5-33.35S228.67,215.32,221.35,221.44Z"/><path class="cls-12" d="M272.08,261.06s-6.34,21.25-6.38,33.26S272,315,277.46,321.84c4.33,5.46,10,22.55,11.51,33.16a86.11,86.11,0,0,0,3.91-11.95C299,318.3,289.66,309.3,282,260.36A47.5,47.5,0,0,0,272.08,261.06Z"/><path class="cls-9" d="M153.51,278.4c-6,0-12.87-.11-13.3-.11l-.16,0c-.16,0-3.83-.92-3.76-6.71h0c.07-5.55,2-6.63,6.23-6.95,3.76-.28,19.42-.49,20.08-.49a4.7,4.7,0,0,1,4.48,4.65,16.32,16.32,0,0,1-.14,4.89c-.21,1.46-1.74,4.41-5.92,4.63C159.45,278.37,156.6,278.4,153.51,278.4Zm-13.18-1.68c1.39,0,16.24.23,20.61,0,3.92-.2,4.44-3.23,4.46-3.36a15.29,15.29,0,0,0,.12-4.45c-.29-3.15-2.82-3.23-2.92-3.23s-16.25.21-20,.49c-3.35.25-4.72.55-4.77,5.41C137.81,275.69,139.92,276.59,140.33,276.72Z"/><path class="cls-9" d="M200.32,278.39c-6.92,0-15-.1-15.1-.1l-.14,0s-4.27-.9-4.2-6.71c.08-6,2.81-6.67,7-6.95s22-.49,22.74-.49a5,5,0,0,1,5,4.64,14.83,14.83,0,0,1-.16,4.91c-.11.52-1.15,4.36-6.61,4.62C207,278.37,203.82,278.39,200.32,278.39Zm-15-1.67c1.38,0,18.4.23,23.39,0,4.52-.21,5.13-3.24,5.15-3.37a13.45,13.45,0,0,0,.13-4.43,3.47,3.47,0,0,0-3.41-3.24c-.16,0-18.42.21-22.64.49s-5.44.76-5.5,5.41h0C182.39,275.74,184.89,276.6,185.33,276.72Z"/><path class="cls-9" d="M181,270.48c-.72-3-3.16-4.89-6.52-5s-6.64,1.75-7.38,4.28l-1.5-.44c1.07-3.67,5.32-5.5,8.92-5.41a8,8,0,0,1,8,6.18Z"/><polygon class="cls-9" points="214.69 267.68 214.23 266.18 260.29 251.96 256.92 254.67 214.69 267.68"/><path class="cls-8" d="M262.36,251.08s14.74-5.44,15.1,4.91c.34,9.78-6.58,15.3-15.52,14.06"/><path class="cls-13" d="M243.81,346.76s3,30.14,3.38,36.48c.45,6.78,2.07,12.11-.95,18s-8.52,4.93-8.52,4.93l2.29,4.17a171.44,171.44,0,0,0,16.16-12.06l-2-45Z"/><path class="cls-17" d="M250.33,326c-7.49,3.48-9,11-5.75,25.95,3.26,11.52,5.23,31.7,6.42,50.45a138.27,138.27,0,0,0,23.55-23c-3-38.25-8.49-44.43-9.76-48.34C263,325.41,257.83,322.47,250.33,326Z"/><path class="cls-17" d="M182.79,336.39c6.13.12,7.83,13.07,6.09,21s-3,25.62-17.4,70.48c-4.26-1.18-21.08-4.26-21.08-4.26s8.26-18.26,12.8-33.57,8.09-37.74,9.69-45.11S177.59,336.29,182.79,336.39Z"/><path class="cls-13" d="M160.31,398.67l11.37,29.18s9.1-33.66,10.36-42.24-13.83-16.46-13.83-16.46S164.53,387.82,160.31,398.67Z"/><path class="cls-17" d="M182.79,394.85c.13-9.32,4.44-36.88,6.09-43.68s-.69-16.12-.69-16.12,0-3.88-4.56-4.59-8,6.9-8,6.9-3.21,9.95-10.23,34.51,6.45,29.07,9.36,29.91c.58,5.71-1.15,26.05-2.23,37.69,3.41-.79,6.77-1.64,10.07-2.58.69-4.5,1.39-9.28,1.68-12.15C184.9,418.31,182.67,404.17,182.79,394.85Z"/><path class="cls-7" d="M192.2,393.89l-4.3,41.41q3.4-1.07,6.69-2.23a213,213,0,0,0,22-9.36l1.52-30.26S193.05,393.75,192.2,393.89Z"/><path class="cls-7" d="M225.08,322.62s-17.69,46.3-23.41,75.94c2.53.07,5.69,0,5.69,0s8-35.49,12.59-47.68c5.4-14.3,12.73-30.06,12.73-30.06Z"/><path class="cls-7" d="M197.94,329.13s4.68,54.74,9.42,69.43c-2.85,0-5.69,0-5.69,0S196,359.14,194.57,343s-.52-17.4-.52-17.4Z"/><path class="cls-9" d="M207.36,402.29l-10.43,0-2,27.05,5,.39.82-10.72,4.94-.14s6.25.08,6.69-7.67S207.36,402.29,207.36,402.29Zm-5.69,11,.73-5.79s5-1.54,4.43,3.56C206.5,414.21,201.67,413.28,201.67,413.28Z"/><path class="cls-7" d="M255.78,312.94h0a1.33,1.33,0,0,0,.05-.19,3.84,3.84,0,0,0-2.44-4.25,4.34,4.34,0,0,0-2.76-.05c.71-3.07-1.55-5.78-4.93-5.84-4.68-.09-7.47,3.1-9.71,6.81-1.65,2.73-2.82,5.35-5.53,7.21a25.6,25.6,0,0,1-8.82,3.46c-7.5,1.75-15.89,3.36-23.59,2.27a47.82,47.82,0,0,1-10-2.73c-2-.75-3.89-1.13-5.81-.12a7.93,7.93,0,0,0-1.27.43,2.84,2.84,0,0,0-1,3.85,3.53,3.53,0,0,0,.32.46,2.91,2.91,0,0,0-.14,1.84,7.7,7.7,0,0,0,.4,1.23c-3.14-.34-5.42,2.75-4.34,6.37,3.43,11.6,23.44,12,31.72,10.47,7.36-1.35,14-5.12,21.28-6.79,6.59-1.5,13.38-5.46,18.47-9.52,3.15-2.52,9.91-5.88,10.49-10.45A4.09,4.09,0,0,0,255.78,312.94Z"/><path class="cls-22" d="M171.55,361.91s-2.1,14.41-3.24,17.83a54.6,54.6,0,0,0,10.2,1.05c.35-2.86,3.37-13.6,3.53-18.16C179.34,362.15,171.55,361.91,171.55,361.91Z"/><polyline class="cls-23" points="171.55 361.91 174.29 371.26 182.03 362.63"/><path class="cls-22" d="M229.21,364.08s.13,16.51-1,19.94c1.9.47,11.43.29,13.21.1.35-2.85.39-14.85.55-19.41C239.26,364.24,229.21,364.08,229.21,364.08Z"/><polyline class="cls-23" points="229.21 364.08 234.84 373.44 241.96 364.71"/><path class="cls-22" d="M255,336.39l6.91-2s3.61,12,4.75,19.59c-2.28.73-7.55,1.89-7.55,1.89A136.81,136.81,0,0,0,255,336.39Z"/><polygon class="cls-9" points="94.79 371.1 100.28 368.59 141.68 370.02 156.94 425.44 152.42 427.66 137.05 372.22 94.79 371.1"/><polygon class="cls-7" points="137.05 372.22 152.42 427.66 108.69 425.05 94.79 371.1 137.05 372.22"/><path class="cls-8" d="M156.83,414c-.12-.18-.26-.33-.39-.5a7,7,0,0,0-1.68-3,17.59,17.59,0,0,1-1.45-5.37c-.33-4,1.1-7.9,2.87-11.4s-3.89-5-6.1-2c-1.51,2.09-5.29,9.67-4.22,14.72-1.83-.57-7.83-.94-9.43-1.36-8.18-2.14-11-4.41-17.65-8-3.65-2-11.71-9.24-14.32-2.89-1.08,2.62-1,6.15-1.38,8.95-.41,3.07-.73,6.29.81,9.1,2.75,5.06,10.3,9.14,15.2,11.34,7.24,3.25,17.55,6.73,22.81,5.68,7.95-1.59,14.3.25,14.46-.15C158.21,424.41,159.85,418.61,156.83,414Z"/><path class="cls-8" d="M210.6,426.56c-30.94-7.87-66.39-16.65-66.39-16.65l-2.57,13.92s16.8,6.08,38.26,13.8c5.06-1.35,10-2.88,14.69-4.56C197.29,432.11,203.08,430,210.6,426.56Z"/><path class="cls-12" d="M194.34,331.68a26.66,26.66,0,0,1-4.91-.3,91,91,0,0,1-9-3.72.38.38,0,0,1-.19-.52.39.39,0,0,1,.51-.19,95.7,95.7,0,0,0,8.91,3.67c2.14.55,14.65.34,19-1.29,2.7-1,6.41-1.18,10-1.33a44.62,44.62,0,0,0,6.13-.51c4-.76,8.78-3.72,14.77-7.94,5.4-3.8,10.76-11.26,10.81-11.34a.41.41,0,0,1,.55-.09.39.39,0,0,1,.09.55c0,.07-5.49,7.65-11,11.52-6.07,4.28-11,7.29-15.08,8.07a44.91,44.91,0,0,1-6.23.52c-3.53.15-7.18.31-9.76,1.28C205.81,331.22,199.1,331.68,194.34,331.68Z"/><path class="cls-12" d="M219.49,334.13a35.14,35.14,0,0,1-8.45-1.59,53,53,0,0,0-6.72-1.49.39.39,0,0,1-.34-.44.39.39,0,0,1,.44-.34,53.46,53.46,0,0,1,6.82,1.52c3.88,1,7.55,2,10.33,1.33,3.37-.84,5.75-1.29,8.05-1.73.85-.15,1.67-.31,2.53-.48a3.67,3.67,0,0,0,2.93-1.94,11,11,0,0,1,1.69-2,6.92,6.92,0,0,1,3-2,18.19,18.19,0,0,0,2-.84c.58-.28,1.17-.54,1.76-.81,2.24-1,4.36-2,5.88-3.68,2-2.19,6-6.88,6-6.92a.39.39,0,0,1,.55-.05.41.41,0,0,1,0,.56s-4.06,4.73-6,6.94c-1.64,1.82-3.93,2.86-6.15,3.86-.58.27-1.17.53-1.74.81a19,19,0,0,1-2.06.86,6.43,6.43,0,0,0-2.77,1.85,9.94,9.94,0,0,0-1.57,1.9,4.44,4.44,0,0,1-3.43,2.27l-2.53.48c-2.29.44-4.66.89-8,1.72A9.75,9.75,0,0,1,219.49,334.13Z"/><path class="cls-12" d="M203.83,337.08c-1.21,0-2.64-.16-4.33-.34-2-.21-4.19-.45-6.87-.56-8.15-.33-11.3-8.14-11.33-8.22a.39.39,0,0,1,.22-.51.4.4,0,0,1,.51.22c0,.08,3,7.41,10.63,7.72,2.71.11,5.05.37,6.92.57,3.61.39,6,.65,7.25-.47,2.14-1.9,6.29-3.06,6.46-3.11a.4.4,0,0,1,.49.27.39.39,0,0,1-.28.48s-4.15,1.17-6.15,2.95A5.05,5.05,0,0,1,203.83,337.08Z"/><path class="cls-12" d="M224.38,320.82a26.08,26.08,0,0,1-3.45-.21.39.39,0,0,1-.32-.45.38.38,0,0,1,.45-.32c.1,0,10,1.55,17.49-4,5.11-3.77,5.88-4.13,10.44-5.85a.41.41,0,0,1,.51.23.39.39,0,0,1-.23.5c-4.47,1.69-5.23,2-10.26,5.75S228.07,320.82,224.38,320.82Z"/><path class="cls-10" d="M190.86,291.38c-1.57.74-2.52,2.13-3.93,3.12a14.2,14.2,0,0,1-5.5,2.14c-4.11.79-7.8,0-11.69-1.25-.76-.25-1.12.81-.52,1.23,3.7,2.53,9.07,3.23,13.41,2.37,3.44-.69,9-3,9.06-7.14A.56.56,0,0,0,190.86,291.38Z"/><path class="cls-24" d="M277,260.45a16.74,16.74,0,0,0,.42-4.46c-.21-5.81-4.94-6.65-9-6.26,1.11-4.19,9.44-23.8-7.58-33-15.94-8.63-29.48-2.72-37.31,3-13.38.2-15.2-3.06-39.52-5.18-40.11-3.5-52.72,24.56-52.19,33.37,2.76-.88,8.9-1.76,16.52-2.59-9.1,9.59-16.94,21.8-14.68,34,4.14,22.4,21.84,27.7,34.38,27.49,3.29,3.49,10.27,7.18,19.38,4l.81,4.48a18,18,0,0,0-6.76,4.39l-.48.19a2.84,2.84,0,0,0-1,3.85,4.88,4.88,0,0,0,.32.46,2.91,2.91,0,0,0-.14,1.84,7.22,7.22,0,0,0,.28.86.35.35,0,0,0-.23.2.28.28,0,0,0,0,.15c-2.94-.05-5,2.92-3.95,6.39a10.9,10.9,0,0,0,.59,1.54,19,19,0,0,0-1.19,2.14s-.23.71-.7,2.2a15.54,15.54,0,0,0-2,5.35c-.22,1-.48,2.31-.76,3.83-1.64,5.47-3.88,13.08-6.75,23.13-2,7-2.34,12.35-1.73,16.47-1,3.67-2.16,7.31-3.34,10.33l0,.09c-1.59,4.5-3.29,8.91-4.83,12.73a8,8,0,0,0-.76-1,17.59,17.59,0,0,1-1.45-5.37c-.33-4,1.1-7.9,2.87-11.4s-3.89-5-6.1-2a21.82,21.82,0,0,0-1.63,2.84L141.68,370l-10-.34-.23-.87c-1.14-4-4.25-6.54-10-7.13-3.32-.34-8.07,3.28-12.35,7.22l-8.91-.31-5.49,2.51,8.28,32.13c-.4,3-.71,6.24.82,9a13.89,13.89,0,0,0,2.29,3l2.51,9.75,16.3,1c.91.34,1.84.67,2.77,1,1.35,5.47,3.06,12.16,4.7,17.95A236.22,236.22,0,0,0,169.38,440a4.27,4.27,0,0,0,.57-1.66,11.87,11.87,0,0,0-.83-4.61l3.79,1.36c-.13,1.5-.26,2.9-.38,4.21a199.75,199.75,0,0,0,22.06-6.4c9.06-3.22,53.16-19.75,80-53.53-3-38.24-8.49-44.43-9.76-48.34a11.43,11.43,0,0,0-1.23-2.64v0c-.62-2.82-4.76-6-7-7.55a6.92,6.92,0,0,0,1.65-3.45,4.07,4.07,0,0,0-2.08-4.28.38.38,0,0,0-.08-.48.39.39,0,0,0-.2-.08,3.81,3.81,0,0,0-2.45-4.06,4.18,4.18,0,0,0-2.38-.13.41.41,0,0,0-.15-.24.52.52,0,0,0-.16-.06c.45-2.92-1.76-5.4-5-5.46a9.1,9.1,0,0,0-1.5.09,30.64,30.64,0,0,0-8.23.77c14.85-7.48,29.17-18,32.33-33.74a12.38,12.38,0,0,0,1.62-.56c-1.84,7.28-4.16,17.9-4.19,25.16,0,12,6.32,20.66,11.76,27.52,4.33,5.46,10,22.55,11.51,33.16a87.46,87.46,0,0,0,3.91-11.95C299,318.3,289.66,309.3,282,260.37A45.76,45.76,0,0,0,277,260.45ZM147.63,430.83l-1.07-2.13,1.58-.06C147.53,429.26,147.48,429.4,147.63,430.83Z"/></g><g id="Layer_8" data-name="Layer 8"><polygon class="cls-8" points="59.75 401.45 109.09 400.53 111.41 421 57.34 421.48 59.75 401.45"/><path class="cls-7" d="M108.36,392.4l-42.59,1.81L64,437.54a183.09,183.09,0,0,0,47.28,7.61h.09Z"/><path class="cls-6" d="M84.87,421.66c7.9-2.2,15.9-4,23.95-5.5l.83-.15-1.34-23.61-42.59,1.81-1.38,33.31C71.2,425.59,78,423.56,84.87,421.66Z"/><path class="cls-9" d="M108.37,416.69,94.48,444.34a179.87,179.87,0,0,0,62.2-1.55l-2.58-15Z"/><path class="cls-9" d="M34.64,424.29c14,9.68,32.14,16.2,51.42,18.72L62.29,415.08Z"/><path class="cls-8" d="M62.29,415.08l-8.43,4.74L54,434l2.08.82,18.54-5.22Z"/><polygon class="cls-6" points="100.94 431.39 108.37 416.69 116.39 420.84 116.08 437.01 100.94 431.39"/><polygon class="cls-17" points="116.08 437.01 108.37 416.69 109.42 402.4 117.61 418.94 116.08 437.01"/><path class="cls-7" d="M116.66,265.63s30.93,49.56,32,52a19.25,19.25,0,0,1,.71,9.63c-.62,2.21-12.28,40.67-13.42,58.38-10.78,11.77-18.49,20.84-18.49,20.84s-11.81,10.72-43.86-1.58c-19.84-14.17-38.06-30.23-38.06-30.23s-6-20.81-8-27.47c-4.38-14.53,3.14-59.08,3.14-59.08S82.6,265.53,116.66,265.63Z"/><path class="cls-6" d="M75.52,369.61s7.13-4.71,11.46-3.17,3.44,3.66,6.8,3.76,7.21-4,10.32-3.7,7.1,6.18,7.1,6.18-7.71,12.78-18.76,11.2S78.36,378,75.52,369.61Z"/><path class="cls-9" d="M105.81,328.66c7,7.49,23.18,13.64,36.18-1.44C134.23,316,111.42,316.7,105.81,328.66Z"/><path class="cls-9" d="M39.46,329.69c9.49,9.92,26.35,10,37,1.4C69.8,320.23,49,314.41,39.46,329.69Z"/><polygon class="cls-10" points="79.84 307.5 76.24 314.68 56.11 312.54 30.99 323.12 53.3 306.99 79.84 307.5"/><polygon class="cls-10" points="104.77 308.46 106.63 315.12 120.53 310.04 143.41 313.66 121.64 303.4 104.77 308.46"/><path class="cls-25" d="M84.32,331.85s-3,16.36,3.12,24.92c6.65.26,16.78-.36,16.78-.36s-5-5.18-3.8-26.28C96.23,330.38,84.32,331.85,84.32,331.85Z"/><path class="cls-7" d="M23.32,333.4c4.35-.81,4.91,5.82,5.55,12.29s1.05,10.17-4.22,11-5.26-7.56-5.63-13.91S19.46,334.11,23.32,333.4Z"/><path class="cls-10" d="M29.84,289.11C27.5,294.69,26,334.93,26,334.93s15-49.44,53-55.09,55.68,14.76,55.68,14.76-11.41-23.38-18-29C110.64,260.51,33.83,279.58,29.84,289.11Z"/><path class="cls-10" d="M48.77,328.94c.58-4.18,4.74-6.9,8.64-6.85,4.35.05,8.64,3.57,8.64,8,0,4.77-4.89,8.53-9.65,8C52,337.61,48.14,333.49,48.77,328.94Z"/><path class="cls-10" d="M119.57,336.71c5.82,1,12-5,11-10.47-.7-3.9-4.89-7-9.21-6.87-4.68.12-9.18,4-9.13,8.88A9,9,0,0,0,119.57,336.71Z"/><path class="cls-10" d="M27.72,351.51l36.74,16s14.15-9,26.3-7.67a21,21,0,0,0,.44,3.46s-16.5,1.52-20.87,7c.81,7.87,1.38,33.31,1.38,33.31L35.35,375.76Z"/><path class="cls-10" d="M96.31,359.67l.88,2.67s18,1.86,20.84,9.15c-.18,5.8-.6,35-.6,35l18.49-20.84,6.7-34.21L121.5,369S109.19,357.37,96.31,359.67Z"/><path class="cls-10" d="M95.14,389.66c-8.43-.43-25.09,7.74-25.09,7.74l.11,4.34s8.58,10.42,28.72,9.77,21.28-5.76,22-10.37S107.5,390.29,95.14,389.66Z"/><path class="cls-12" d="M109.78,372.24c-9.14,5.87-24.71,5.7-32.29-2.46-.86-.92-2.43.26-1.57,1.17,8.21,8.67,24.85,9,34.32,1.92A.39.39,0,0,0,109.78,372.24Z"/><path class="cls-17" d="M59.75,401.45l-8.39,17.27,2.46,15.21.73.29,7.74-19.14Z"/></g></svg>