<svg xmlns="http://www.w3.org/2000/svg" xmlns:xlink="http://www.w3.org/1999/xlink" viewBox="0 0 300 450"><defs><style>.cls-1{fill:url(#linear-gradient);}.cls-2{clip-path:url(#clip-path);}.cls-3{fill:#dadbdc;}.cls-16,.cls-4,.cls-8{fill:#393a35;}.cls-14,.cls-4{opacity:0.44;}.cls-5{fill:#b5b7b9;}.cls-6{fill:#a0a2a5;}.cls-10,.cls-7{fill:#fff;}.cls-14,.cls-9{fill:#58595b;}.cls-10{opacity:0.77;}.cls-11{fill:#363436;}.cls-12,.cls-15,.cls-17,.cls-18{fill:none;}.cls-12{stroke:#fff;stroke-width:2px;}.cls-12,.cls-15,.cls-16,.cls-17{stroke-miterlimit:10;}.cls-13{fill:#d6d7d9;}.cls-15{stroke:#58595b;stroke-width:7px;}.cls-15,.cls-17,.cls-18{stroke-linecap:round;}.cls-16{stroke:#393a35;}.cls-17,.cls-18{stroke:#a0a2a5;}.cls-18{stroke-linejoin:round;}</style><linearGradient id="linear-gradient" x1="151.05" y1="85.09" x2="149.76" y2="375.34" gradientUnits="userSpaceOnUse"><stop offset="0" stop-color="#af97c7"/><stop offset="0.5" stop-color="#a57fb9"/><stop offset="1" stop-color="#9c6bad"/></linearGradient><clipPath id="clip-path"><path class="cls-1" d="M193.77,5.39c69.25,5.26,90.84,65.8,89.52,123.24-1.05,45.49-14.2,46.06-1.65,129,7.79,51.39,17.64,60.25,11.37,85.47-14.57,58.65-86.43,85.65-98.29,89.87-60.61,21.58-152.09,17.24-181.88-31.1-30.66-49.77,36.64-93.33,22.74-204.35-8.92-71.22,5.67-111.63,36-141.93C104.45,22.72,145.66,1.74,193.77,5.39Z"/></clipPath></defs><title>thankyou</title><g id="Layer_4" data-name="Layer 4"><path class="cls-1" d="M193.77,5.39c69.25,5.26,90.84,65.8,89.52,123.24-1.05,45.49-14.2,46.06-1.65,129,7.79,51.39,17.64,60.25,11.37,85.47-14.57,58.65-86.43,85.65-98.29,89.87-60.61,21.58-152.09,17.24-181.88-31.1-30.66-49.77,36.64-93.33,22.74-204.35-8.92-71.22,5.67-111.63,36-141.93C104.45,22.72,145.66,1.74,193.77,5.39Z"/><g class="cls-2"><path class="cls-3" d="M191.87,102.85l5,48.6L206.17,175l12.89-6.87,3.31-14.77s-6.82-27.88-6.09-35.84C212.89,111.27,191.87,102.85,191.87,102.85Z"/><path class="cls-4" d="M192.15,107.67l1.23,9.7s9.93,18.15,13.74,22.27c3,3.21,13.59,6.56,13.59,6.56s-5.08-21.87-4.43-26.56C213,116.84,192.15,107.67,192.15,107.67Z"/><path class="cls-3" d="M225.61,36.34c7.11,4.61,21.83,21,22.46,34.53s-.63,46.83-.63,46.83a65.46,65.46,0,0,0-8.64,19.06c-3.94,2-15.9,1.55-15.9,1.55s-20.17-17.28-28.8-23-19.83-22.47-20.87-44.68C179.4,53.31,225.61,36.34,225.61,36.34Z"/><path class="cls-5" d="M220.71,116.37s2,1.12,3.07.27.77-1.26,2.46-1.32,2.43,1,3.88.91,2.85-1.61,4.39-1.67,4.42,2.91,4.42,2.91a9.14,9.14,0,0,1-8.81,7.13c-7.62.46-7.73-4-8.27-5A20.16,20.16,0,0,1,220.71,116.37Z"/><path class="cls-6" d="M230.26,87.34s.21,6.93,1.66,9.77,5.42,5.91,6.14,9.65c-2.12.78-7.27,2.45-9.46.78-.52-3.61-.49-20.2-.49-20.2Z"/><path class="cls-7" d="M199.53,83.1c-1.41,5.49,10.78,16.84,22.24,1.9C221.66,74.73,202.2,72.63,199.53,83.1Z"/><path class="cls-7" d="M228.83,83.1c1.81,6.59,13.46,11.12,19.24-2.25C244.7,72.12,233.6,69.48,228.83,83.1Z"/><path class="cls-8" d="M210.38,89.84a25,25,0,0,0,2.25-1.53,3.69,3.69,0,0,0,.34-.69,9.35,9.35,0,0,0,.5-3.09c.31-2.92-.64-7.3-4.53-6s-4.13,8.1-1.16,10.43A3.82,3.82,0,0,0,210.38,89.84Z"/><path class="cls-8" d="M240.77,85.12A6.33,6.33,0,0,0,242,80.69a4.14,4.14,0,0,0-1.69-3.36l-.18-.09a2.81,2.81,0,0,0-3.55.21,3.7,3.7,0,0,0-.92,1.47,6.88,6.88,0,0,0-.26,5.6,3.28,3.28,0,0,0,2.13,2.21,2.11,2.11,0,0,0,1.84-.33A18.71,18.71,0,0,0,240.77,85.12Z"/><path class="cls-6" d="M204.66,52.53a30.17,30.17,0,0,0,15.11,6.93c9.22,1.42,11.61.6,16.59,2.36a77.84,77.84,0,0,1,8.27,3.62c1.75.87,2.94,1.52,2.94,1.52s-3.89-15.39-8.38-20.09a136.37,136.37,0,0,0-12.48-10.82l-16.58,7.69-7.46,5.59s7.19,7.36,10.55,8.41a39,39,0,0,0,8.55,2c3.46.41,10.14.75,12.37,1.41"/><path class="cls-6" d="M190.8,55.25l2.9,6.86s1.5,15.38-6.4,25.7a80.3,80.3,0,0,1-8.84,6.32l-9-23.54,3.33-17.77,19.06-6.42Z"/><path class="cls-9" d="M184.64,83.84l-.65-.25c3.44-8.85,3-24.87,3-25l.69,0C187.73,58.7,188.12,74.86,184.64,83.84Z"/><path class="cls-9" d="M180.54,84.33a109.65,109.65,0,0,1,.8-20.57c.09-.79.17-1.47.17-1.59l.66-.18c.05.15,0,.28-.14,1.85a108.32,108.32,0,0,0-.8,20.44Z"/><path class="cls-9" d="M178.44,87.52c-3.76-6.31-2.57-19-2.52-19.51l.69.06c0,.13-1.22,13,2.43,19.1Z"/><path class="cls-9" d="M247.37,66.18c-2.78-2.62-5.56-4.19-10.15-6.15a33.13,33.13,0,0,0-9.1-2.38c-1.36-.22-2.89-.46-4.74-.82-8.75-1.68-12.74-6.42-12.9-6.62l.53-.44s4,4.75,12.51,6.38c1.83.35,3.36.6,4.71.81a34.24,34.24,0,0,1,9.26,2.43c4.67,2,6.66,3.1,9.53,5.54Z"/><path class="cls-9" d="M246.75,64c-1.17-1.4-5.8-4.42-7.8-5.91a34.81,34.81,0,0,0-11.71-5.44c-4.87-1.08-10.92-5.75-11.17-5.95l.42-.54c.06,0,6.18,4.77,10.9,5.81a35.43,35.43,0,0,1,12,5.56c1.9,1.42,5.63,3.88,7,5.11Z"/><path class="cls-9" d="M245.57,60.16a36.71,36.71,0,0,0-4.81-4.53c-.63-.54-1.28-1.09-2.06-1.8a30.57,30.57,0,0,0-8.61-5.31,35,35,0,0,1-7.88-5.35l.56-.41a35.78,35.78,0,0,0,7.6,5.13,31.33,31.33,0,0,1,8.79,5.42c.77.71,1.43,1.27,2.05,1.79a23.26,23.26,0,0,1,3.89,3.66Z"/><path class="cls-9" d="M243.92,55.54a81.58,81.58,0,0,0-5.81-6.11c-2.25-2-10.24-8.1-10.32-8.16l.42-.55c.08.06,8.09,6.2,10.35,8.19a50.15,50.15,0,0,1,4.62,4.77Z"/><path class="cls-8" d="M173.59,81.36s1.61-5.69,5.69-7.77,19.2-8.34,24.34-11.48S218.14,54.69,222.9,54s15.15-4.72,17.34-5.88c.22-2.37-6.12-14-14.25-15.93-6-1.41-5.68-2.29-5.68-2.29s-1.13-2.2-5.68-4.47-7.7-2.11-10.64-4.19S191,8,185.33,8.37s-17,2.63-20.72,7.12-8.9,10.28-5.67,15.32S164.35,36.57,165,41s-1.25,9,.29,15.06.73,4.88.73,4.88-1.58,1.85-.65,5.47,1.72,7.1,3.74,9.8S170.84,81.26,173.59,81.36Z"/><path class="cls-3" d="M189.7,88.86s-3.07-9-8.91-6.1-4,28.51,8.91,19.11"/><polygon class="cls-3" points="192.15 156.72 200.69 148.02 217.69 149.53 222.4 153.57 230.91 187.69 214.98 219.46 192.15 213.62 184.31 167.94 184.31 162.62 192.15 156.72"/><path class="cls-3" d="M199.42,149.53s-9.16,10-15.11,13.09-19.41,10.87-23.22,17.93-9.81,26.36-10,41.31,0,25.39,0,25.39h17.19s.84-8.64,1.23-18.94,1-24.22,1.83-26.54,6.09-9.21,6.09-9.21,0,.47,0,1.31a23.58,23.58,0,0,1,6-9.57A19.46,19.46,0,0,1,201,178.66C203.24,179.06,199.42,149.53,199.42,149.53Z"/><path class="cls-3" d="M263.47,213.08c-1.92-13.06-2.13-24-6.78-32.49s-22.15-21.81-36.45-28c-1.07-.47-2.09-.87-3.08-1.24-.63,3.42-1.75,6.81-2.15,10.24-.7,6,9.63,23.49,13.1,25,1.11-.91,3.23,4.28,4.78,4.54a14.34,14.34,0,0,1,4.15,1.5v-.05s6.12,1.1,8.05,10.59S249.87,222,250.17,234s.73,8.77.62,13.22h15S265.39,226.13,263.47,213.08Z"/><path class="cls-9" d="M185.75,161.78s8.69,34.76,15.73,39.34,8.24,4.57,10.69,4.06,12.24-11.14,13.6-16.29,3.89-27.06,4.78-31c1.95,1.19,6.49,4.16,6.49,4.16s1,38.52,1.94,46,3.65,35.75,3.65,39.12H178.22s-1.15-24.18-.59-33.8.71-19.58,1.58-31.94.85-16.56.85-16.56Z"/><path class="cls-6" d="M238.82,206.62s-53.59-6.56-53.85,40.5c.21.26,6.49,0,6.49,0s2.57-33.77,47.91-35.57Z"/><path class="cls-8" d="M239.27,210.61l.61,5.74s-40.88-.51-43.71,30.89a51,51,0,0,1-7,0S190.2,213.2,239.27,210.61Z"/><path class="cls-10" d="M239.81,215.63l.5,5.18s-39,.06-40.52,26.31a30.77,30.77,0,0,1-4.56.12S195.84,217.51,239.81,215.63Z"/><path class="cls-11" d="M240.2,220l.56,5.56s-34.22-3.39-36.58,21.73c-1.41.13-4.79,0-4.79,0S200.39,220.42,240.2,220Z"/><path class="cls-8" d="M220.16,67.76c-1.91-2.84-7.67-1.17-10.43-.69-3.73.65-8.69,2-11.14,5.06a.67.67,0,0,0,.81,1.05,33.77,33.77,0,0,1,11.86-2.83c2.65-.14,6.15.29,8.5-1.09A1.11,1.11,0,0,0,220.16,67.76Z"/><path class="cls-8" d="M248.39,71.26c-2.71-4.28-11.45-6.15-16-4.5a.76.76,0,0,0,0,1.45c2.47,1,5.25.84,7.82,1.5s4.83,2.14,7.38,2.58C248.16,72.39,248.74,71.82,248.39,71.26Z"/><path class="cls-9" d="M238.76,117.56c-2.13-.4-4.61.89-6.75,1.16-3.93.49-7.54.5-10.77-2.23a.53.53,0,0,0-.75.75c3.86,4.91,13.91,5,18.36.68A.22.22,0,0,0,238.76,117.56Z"/><path class="cls-3" d="M160.73,396.57c-.36-3.2-.89-6.39-1.5-9.46a24.88,24.88,0,0,0-1-3.59,3.49,3.49,0,0,0,0-1.21,17.3,17.3,0,0,0-1.23-4.35,27.25,27.25,0,0,0-1.84-4.91c-1.83-3.62-7.3-.43-5.45,3.18A18.7,18.7,0,0,1,151,379.4a6.75,6.75,0,0,0-1-1,2.94,2.94,0,0,0-2.28-.73,3.1,3.1,0,0,0-2.21-1.19,1.4,1.4,0,0,0-2.16.31c-1.72,2.67-2.58,5.82-3.77,8.83-.54,1.19-1.09,2.38-1.69,3.55-1.54,3.05,2.86,5.73,4.57,3a94.94,94.94,0,0,1-1.61,10.68c-.74,3.41,4.49,4.87,5.24,1.45.62-2.83,1.27-5.67,1.83-8.53.14,2.73.29,5.45.3,8.19,0,3.54,5.41,3.53,5.49,0,.07-3.33.44-6.63.6-10q0-.91,0-1.83c.12.55.23,1.09.34,1.64a88.32,88.32,0,0,1,1,9.59c.07,3.56,5.47,3.57,5.53,0A44.86,44.86,0,0,0,160.73,396.57Z"/><path class="cls-8" d="M141.53,228.38,134.1,266.9s5.09,1.56,7.43,11.72c3.55,15.4,2.09,45,1.82,49.82h0l-3.53,52.61,20.5.85,4.26-52.77h.06C166.21,238.53,141.53,228.38,141.53,228.38Z"/><path class="cls-3" d="M-13.54,389.43c.36-3.2.88-6.39,1.49-9.46a23.77,23.77,0,0,1,1-3.59,3.74,3.74,0,0,1,0-1.21,17.73,17.73,0,0,1,1.23-4.35A28,28,0,0,1-8,365.91c1.84-3.62,7.31-.43,5.45,3.18a17.86,17.86,0,0,0-1.21,3.17,7.19,7.19,0,0,1,1-1,2.91,2.91,0,0,1,2.28-.73,3.12,3.12,0,0,1,2.21-1.19,1.4,1.4,0,0,1,2.16.3c1.72,2.67,2.58,5.83,3.78,8.84.54,1.19,1.09,2.38,1.68,3.55,1.54,3-2.86,5.73-4.56,3a92.71,92.71,0,0,0,1.61,10.68c.74,3.41-4.49,4.87-5.25,1.45-.62-2.83-1.27-5.67-1.83-8.53-.14,2.73-.29,5.45-.3,8.19,0,3.54-5.41,3.53-5.49,0-.07-3.33-.43-6.63-.6-9.95,0-.61,0-1.22,0-1.83-.12.55-.23,1.09-.33,1.64a88.32,88.32,0,0,0-1,9.59c-.08,3.55-5.47,3.56-5.53,0A43.62,43.62,0,0,1-13.54,389.43Z"/><polygon class="cls-9" points="30.16 374.73 16.61 445.31 62.67 446.06 70.59 408.99 76.31 408.99 73.51 446.23 119.53 446.97 122.07 379.5 30.16 374.73"/><line class="cls-12" x1="34.7" y1="379.71" x2="21.71" y2="445.4"/><line class="cls-12" x1="39.7" y1="379.71" x2="26.71" y2="445.4"/><path class="cls-6" d="M51.7,217.61s-37.69-4.55-48,36.33A476.44,476.44,0,0,0-8.85,329.13H73.51L67.36,217.61Z"/><path class="cls-4" d="M68.29,225.6c-16.37,2.72-44.45,10.56-49.19,52.46S14,329.13,14,329.13H73.51Z"/><polygon class="cls-8" points="70.26 172.41 87.15 244.92 129.02 239.39 134.91 179.13 70.26 172.41"/><polygon class="cls-13" points="86.9 186.62 84.73 214.72 64.45 228.5 141.53 228.38 120.5 212.43 121.88 188.5 86.9 186.62"/><polygon class="cls-4" points="86.9 186.62 85.86 200.07 94.43 209.09 120.55 211.58 121.88 188.5 86.9 186.62"/><path class="cls-3" d="M89.61,87.42c11.81-2.07,47.07-6.6,50.34,39.36,2.89,40.48-2.56,71.51-2.56,71.51s-11.55,1.34-19.33,1.7-21,.7-21,.7-26.3-19.76-35.81-60.07S55,105.07,55,105.07,66.58,91.45,89.61,87.42Z"/><polygon class="cls-6" points="112.56 130.05 122.33 160.73 105.12 161.92 112.56 130.05"/><path class="cls-7" d="M73.67,131.17s13.65-3.37,21.55-2.38,8.89,6.41,8.89,6.41a16.53,16.53,0,0,0-4.77-.43c-2.57.17-13.76,3-17.91,2.68S73.67,131.17,73.67,131.17Z"/><path class="cls-8" d="M93,131.4a4.94,4.94,0,0,0-1.57-2.74,34.17,34.17,0,0,0-6.72.29c-1.78,2-2.14,6-.29,8.07l.1.09c2.42-.35,5.2-.88,7.63-1.35A6.11,6.11,0,0,0,93,131.4Z"/><path class="cls-7" d="M139.57,120.81c-3.11.65-6.66,2.13-9.72,3-8,2.18-8.91,9-8.91,9a7.13,7.13,0,0,1,4.2-1.76c2.48-.21,11-2,15.54-2.86A68.35,68.35,0,0,0,139.57,120.81Z"/><path class="cls-8" d="M125.9,125.15a6.28,6.28,0,0,0-.26,4.53,4.49,4.49,0,0,0,.84,1.59c2.13-.25,5-.93,7.42-1.29a3.65,3.65,0,0,0,.77-2.61,4.87,4.87,0,0,0-.06-.55,5.57,5.57,0,0,0-1.07-3,9.74,9.74,0,0,0-.92-.9c-1.83.42-3.33,1.15-5,1.61A17.36,17.36,0,0,0,125.9,125.15Z"/><path class="cls-8" d="M97,82c-6.49-3.77-14.85.26-19.8,5a24.83,24.83,0,0,0-6.34,10.87c-.75,2.47-1,5.11-1.84,7.54-.94,2.68-2.82,4.83-3.52,7.6a1.39,1.39,0,0,0,2.3,1.34c6.19-5.42,5.15-13.79,9-20.44a19.78,19.78,0,0,1,7.83-7.38c3.08-1.7,8.08-4,11.69-3A.87.87,0,0,0,97,82Z"/><path class="cls-8" d="M87.76,82.3C79.66,79.64,69.35,87,64.68,93a29.16,29.16,0,0,0-5.58,13.6c-.57,3.76-1.65,10,2.27,12.22a1,1,0,0,0,1.51-.61c.61-3.51-.39-7.18.12-10.81a25.28,25.28,0,0,1,4.81-12A29.62,29.62,0,0,1,77,87.72c2.39-1.29,7.33-4.07,10.17-3.39A1.05,1.05,0,0,0,87.76,82.3Z"/><path class="cls-8" d="M86,82C74.2,81.17,63,85.79,56.58,96A32,32,0,0,0,52,111.55c-.25,4.17-.71,10.65,3.41,13.12a1.27,1.27,0,0,0,1.84-1.42c-.63-4.38-1.53-8.26-1.17-12.75a27.08,27.08,0,0,1,4.25-13C65.94,89.1,76.19,85,86,83.9A1,1,0,0,0,86,82Z"/><path class="cls-8" d="M71.08,224a141.05,141.05,0,0,0-38.77,28.53c-18.05,19-35.16,76.61-35.16,76.61l-12.43,45.6s17.89.61,23.15-.28c.88-12.78,12.62-45.32,12.62-45.32S30.59,298.84,47,278.31C42,301,35,329.13,35,329.13h.12L25,381.1s25.32,4.11,48.5,4.11c34.28,0,48.91-3,48.91-3l7.32-53.06,11.79-100.75Z"/><path class="cls-7" d="M64.09,227.7s-.9,38.6-21,67.52c3.36-17.37,9.39-60.09,9.39-60.09Z"/><path class="cls-9" d="M97.36,90.24c.17.55,1.25,16.2,3,19.3C95.75,111.15,66,119.38,66,119.38l4.64-18.21Z"/><path class="cls-9" d="M98.71,90.24l5.34,18.31,32.79-3.74L128,92a15.1,15.1,0,0,0-10.57-5.78C110.37,85.6,98.71,90.24,98.71,90.24Z"/><path class="cls-8" d="M66.05,140.42c3,20.21,12.78,50.49,32.06,72.71,7.62,7.93,13.77,23,13.77,23s10.45-14.79,13.06-23.4,2.77-13.45,2.77-13.45l6.39-.73,2,26.87-25.16,41.11L64.09,227.7a59.84,59.84,0,0,0-1.77-34.37c-6.6-18.49-20.57-42.19-27.56-55.67C28.12,124.85,21,108,45.85,90.46c22-15.59,41.3-18.72,64-15.62s23.07,24.52,23.07,24.52-7.3-10.79-28.35-8.9S61.74,111.35,66.05,140.42Z"/><path class="cls-7" d="M141.53,228.38s-1.69,27.29-7,59.79c-10-38.31,1.52-64.88,1.52-64.88Z"/><path class="cls-6" d="M109.08,277.36a.8.8,0,0,1-.79-.64c-1.62-7.94,1-17.8,3.73-26.4,2-6.22-2.8-16.11-2.85-16.21a.8.8,0,0,1,1.44-.71c.21.43,5.12,10.57,2.93,17.41-2.69,8.4-5.23,18-3.68,25.59a.8.8,0,0,1-.62,1Z"/><path class="cls-6" d="M123.79,270.21a.76.76,0,0,1-.53-.2,21.13,21.13,0,0,1-6.19-19,26.09,26.09,0,0,0-2.86-16.86.8.8,0,0,1,1.36-.85,27.36,27.36,0,0,1,3.08,18,19.84,19.84,0,0,0,5.66,17.49.8.8,0,0,1-.52,1.4Z"/><path class="cls-8" d="M119.57,168.19c-1.89,3.44-11.87,5.55-14.42,1.87a.59.59,0,0,0-1.07.46c2,7.28,15.36,4.7,18.41-.63C123.57,168,120.62,166.28,119.57,168.19Z"/><path class="cls-8" d="M97.42,118.93c-3.32-2.66-9.13-.55-12.82.21-5.22,1.08-10.54,3.11-12.91,8.25a.84.84,0,0,0,1.14,1.15c4.28-1.93,7.76-4.52,12.35-5.84,3.92-1.14,7.7-2.44,11.8-2.73C97.45,119.94,97.87,119.29,97.42,118.93Z"/><path class="cls-8" d="M139.25,114.25c-5.22-3.09-13.74-1.83-19.26,0a.93.93,0,0,0,.25,1.82c3.1.22,6.16-.35,9.26-.45s6.15.6,9.23.55A1,1,0,0,0,139.25,114.25Z"/><path class="cls-13" d="M136.4,446.39l19,.09c.28-.66,2.53-2,1.55-4.43-.47-1.17.91-2.37,1-3.69a11.69,11.69,0,0,0-.86-4.68c.52-3.14-1.34-6.72-4.87-7.21-1.51-.2-2.47.7-3.8.89-.74.11-.56.37-1.35.24-.47-.07-1.25-.84-1.77-1a3.92,3.92,0,0,0-3.83.29,3.51,3.51,0,0,0-4.55,1c-1.34,1.48-1.49,1.11-1.29,3C136,434,143.12,444.38,136.4,446.39Z"/><path class="cls-6" d="M143.44,446.48,123.73,407l-10.55,9.23s4.12,17.82,7.71,30.24Z"/><polygon class="cls-14" points="115.56 426.18 133.3 426.18 134.95 429.48 118.62 437.63 115.56 426.18"/><path class="cls-6" d="M89.41,376.49c4.54-4.34,14.44-15.39,20.13-14.81s8.81,3.09,9.95,7.13,2.93,13.48,2.93,13.48l-30.88,3.28-2.13-5.43Z"/><line class="cls-15" x1="102.2" y1="335.15" x2="119.63" y2="378.1"/><path class="cls-6" d="M108.13,365.55c1.43.19,6.94.79,10,5.6s1.52,12.36,1.52,12.36l-10.9,1.24-5.81-5.82Z"/><path class="cls-8" d="M233.86,446.4l-1.25-122.71-56.42,2L168.57,376l-8.72,70.41S226.18,446.6,233.86,446.4Z"/><path class="cls-13" d="M210.21,446.31c.34,0,23.11.2,34.44,0-.87-10.75-3.75-47.26-3.26-56.4.57-10.65,11-57.6,10.17-61.52s-8.53-8.52-8.53-8.52l-22.45,13.67s-8.48,31.08-8.74,49.73-3.15,42.56-1.82,50.64A34.81,34.81,0,0,1,210.21,446.31Z"/><path class="cls-16" d="M235.25,308.23a7.51,7.51,0,0,0-.65-.71,2.16,2.16,0,0,0,.14-.57c1.18-1.3,1.19-3.82-1-4.12-5-.68-11.07.55-15.65,2.46-2.72,1.13-5.28,2.64-8.14,3.39A59.37,59.37,0,0,1,199.6,310a73.38,73.38,0,0,0-18.85,3.73c-4.07,1.44-8.59,2.88-11.48,6.26-1,1.13-1.16,3.43.54,4.15,2.55,1.08,4.58.4,7-.77h0a2.13,2.13,0,0,0,1.69.57l.69-.09a3.36,3.36,0,0,0,1.74,1.63,7.56,7.56,0,0,0,4.22.15l0,0c5.38,3.36,14.13,2.2,20.09,1.53,7.3-.81,14.31-2.28,20.22-6.87,2.19-1.7.11-4.48-2.18-4.36a12.72,12.72,0,0,0,3.4-3.38,2.47,2.47,0,0,0,.41-1.25,19.42,19.42,0,0,0,4.42-1,2.37,2.37,0,0,1,1.31.36C234.24,311.59,236.32,309.62,235.25,308.23Z"/><polygon class="cls-6" points="174.84 307.69 177.03 319.87 183.67 329.7 219.19 319.24 226.78 313.71 219.19 300.88 174.84 307.69"/><path class="cls-4" d="M177,319.87s19.71-1.62,28.26-4.05c8.84-2.51,17.48-8.88,17.48-8.88l-3.58-6.06-44.53,5.47Z"/><path class="cls-6" d="M156.6,228.3c-9.31,6.3-39.09,28.65-34.95,51.06s21.84,27.7,34.38,27.49c4,4.21,13.31,8.73,25.28,1.12a52.19,52.19,0,0,0,37.88-2.22c17.86-8.26,36.61-20.51,37.69-40.76-1.62-10.05-27.32-44.61-27.32-44.61l-26.11.21Z"/><path class="cls-7" d="M173.83,259.73c3.07,6.09,19.33,15.83,28.1-1.42C198.52,243.71,178.38,246.57,173.83,259.73Z"/><path class="cls-7" d="M131.58,262.07c3.44,8.17,15.51,12.45,26-1.1C155.08,245.73,134.83,248.56,131.58,262.07Z"/><path class="cls-9" d="M160,261s2.08,17.47-1.05,21.44c-2,.54-4.08.09-4.46,1.71s-1.9,4.59,7.32,3.42c-.57,2.37-1.22,5.31,2,5.32s5.57-1.71,5.39-5.8c1.21-.38,5.83-.76,5.39-3.7s-7.2-2.64-7.2-2.64a35.37,35.37,0,0,1-.46-19.41C166.41,261.32,160,261,160,261Z"/><path class="cls-8" d="M149.89,255.24a3.31,3.31,0,0,0-4.4-.64,3.69,3.69,0,0,0-.66.65,5.51,5.51,0,0,0-.83.9,5.77,5.77,0,0,0-1,1.41c-1.16,2.35-1.66,5.55-.14,7.86a3.89,3.89,0,0,0,6.52.35,10.67,10.67,0,0,0,1.93-6.4A5.81,5.81,0,0,0,149.89,255.24Z"/><path class="cls-8" d="M193.59,259.24c.41-2.26.16-4.6-1-5.91-2.64-3.09-6.79-1-8.37,2a9.71,9.71,0,0,0-1,4.55,4,4,0,0,0,2.18,3.92,5.34,5.34,0,0,0,1,.82c3.13,1.9,5.58-.43,6.7-3.56A8.07,8.07,0,0,0,193.59,259.24Z"/><path class="cls-8" d="M155.72,243c-6.72.88-16.8,1.4-20.38,8.36-.12.23.12.43.33.42,7-.36,13.87-2.26,20.87-3.12C160.19,248.2,159.37,242.51,155.72,243Z"/><path class="cls-8" d="M202.9,249.25c-2.53-2.82-7.63-4.25-11.2-5.15-3.9-1-9.4-1.76-13.34-.71-2,.54-2.41,4.13.11,4.09a67,67,0,0,1,12.17.87c3.81.64,7.36,2.35,11.16,2.92A1.26,1.26,0,0,0,202.9,249.25Z"/><path class="cls-3" d="M202.89,258.28a.4.4,0,0,1,0-.79c.06,0,5.83,0,9-1.81a.39.39,0,0,1,.38.69c-3.38,1.87-9.17,1.91-9.41,1.91Z"/><path class="cls-3" d="M202.89,256.42a.39.39,0,0,1-.08-.78c.07,0,6.94-1.37,9.68-4.25a.39.39,0,0,1,.55,0,.38.38,0,0,1,0,.55c-2.91,3.06-9.79,4.42-10.09,4.48Z"/><path class="cls-3" d="M212.11,261.36a.33.33,0,0,1-.17,0c-3.16-1.56-9-1.24-9-1.24a.39.39,0,0,1,0-.78c.24,0,6.07-.34,9.41,1.32a.38.38,0,0,1,.18.52A.39.39,0,0,1,212.11,261.36Z"/><path class="cls-3" d="M131.69,258.32h0a4.71,4.71,0,0,1-3.68-2.15.39.39,0,0,1,.15-.53.39.39,0,0,1,.53.16,4,4,0,0,0,3,1.73.4.4,0,0,1,0,.79Z"/><path class="cls-3" d="M131.05,260.15c-1.08,0-3.48-.13-4.66-1.18a.39.39,0,0,1,0-.55.4.4,0,0,1,.56,0c1.27,1.15,4.61,1,4.64,1a.39.39,0,1,1,0,.78Z"/><path class="cls-3" d="M125.56,263.87a.35.35,0,0,1-.27-.11.38.38,0,0,1,0-.55c1.64-1.7,5.6-2.26,5.77-2.28a.39.39,0,1,1,.11.77s-3.87.55-5.32,2.05A.39.39,0,0,1,125.56,263.87Z"/><path class="cls-3" d="M186.22,295.86a.39.39,0,0,1-.43-.1,59.35,59.35,0,0,0-11.86-9.42.38.38,0,0,1-.14-.53.39.39,0,0,1,.53-.15,60.22,60.22,0,0,1,12,9.57.38.38,0,0,1,0,.55A.42.42,0,0,1,186.22,295.86Z"/><path class="cls-3" d="M155.66,300.35h0a.39.39,0,0,1-.35-.43,110.17,110.17,0,0,1,1.9-11.32.39.39,0,0,1,.47-.29.39.39,0,0,1,.29.47A110.63,110.63,0,0,0,156.05,300,.39.39,0,0,1,155.66,300.35Z"/><path class="cls-3" d="M185.64,273.56a10.58,10.58,0,0,1-2.45-.28,9.69,9.69,0,0,1-6.92-6.22.4.4,0,0,1,.24-.5.4.4,0,0,1,.5.24,8.9,8.9,0,0,0,6.36,5.72c4.39,1,9.57-1,14.59-5.87a.39.39,0,0,1,.54.56C194.18,271.37,189.7,273.56,185.64,273.56Z"/><path class="cls-3" d="M138.32,274.51a8.58,8.58,0,0,1-2.81-.46,7.92,7.92,0,0,1-4.79-5.11.4.4,0,0,1,.28-.48.39.39,0,0,1,.48.28,7.22,7.22,0,0,0,4.3,4.58c3.76,1.3,9.24-.64,15.83-5.6a.39.39,0,1,1,.47.62C146.64,272.44,142,274.51,138.32,274.51Z"/><path class="cls-8" d="M209.35,221.44s-16.58,7.47-16.41,19.2c-5.54.75-62.86,4-73.13,7.29-.53-8.81,12.08-36.87,52.19-33.37,24.68,2.16,26.18,5.48,40.11,5.17Z"/><path class="cls-8" d="M209.35,221.44s2.09,20.25,9.84,31.53,18.32,17.32,21.83,8,9.87-10.59,15.31-10.91c.67-3.35,10-23.86-7.5-33.35S216.67,215.32,209.35,221.44Z"/><path class="cls-8" d="M260.08,261.06s20.07-4.08,27.11,7,9.63,29.65,4.59,49.49-6.2,18.9-7,27.39.08,19.57-2.16,27a122.76,122.76,0,0,0-3.33,13.86s-3.25-16.49-2-24.12-6.34-32.91-11.78-39.77-11.8-15.52-11.76-27.52S260.08,261.06,260.08,261.06Z"/><path class="cls-7" d="M141.51,278.4c-6,0-12.87-.11-13.3-.11l-.16,0c-.16,0-3.83-.92-3.76-6.71h0c.07-5.55,2-6.63,6.23-6.95,3.76-.28,19.42-.49,20.08-.49a4.7,4.7,0,0,1,4.48,4.65,16.32,16.32,0,0,1-.14,4.89c-.21,1.46-1.74,4.41-5.92,4.63C147.45,278.37,144.6,278.4,141.51,278.4Zm-13.18-1.68c1.39,0,16.24.23,20.61,0,3.92-.2,4.44-3.23,4.46-3.36a15.29,15.29,0,0,0,.12-4.45c-.29-3.15-2.82-3.23-2.92-3.23s-16.25.21-20,.49c-3.35.25-4.72.55-4.77,5.41C125.81,275.69,127.92,276.59,128.33,276.72Z"/><path class="cls-7" d="M188.32,278.39c-6.92,0-15-.1-15.1-.1l-.14,0s-4.27-.9-4.2-6.71c.08-6,2.81-6.67,7-6.95s22-.49,22.74-.49a5,5,0,0,1,5,4.64,14.83,14.83,0,0,1-.16,4.91c-.11.52-1.15,4.36-6.61,4.62C195,278.37,191.82,278.39,188.32,278.39Zm-15-1.67c1.38,0,18.4.23,23.39,0,4.52-.21,5.13-3.24,5.15-3.37a13.45,13.45,0,0,0,.13-4.43,3.47,3.47,0,0,0-3.41-3.24c-.16,0-18.42.21-22.64.49s-5.44.76-5.5,5.41h0C170.39,275.74,172.89,276.6,173.33,276.72Z"/><path class="cls-7" d="M169,270.48c-.72-3-3.16-4.89-6.52-5s-6.64,1.75-7.38,4.28l-1.5-.44c1.07-3.67,5.32-5.5,8.92-5.41a8,8,0,0,1,8,6.18Z"/><polygon class="cls-7" points="202.69 267.68 202.23 266.18 248.29 251.96 244.92 254.67 202.69 267.68"/><path class="cls-6" d="M250.36,251.08s14.74-5.44,15.1,4.91c.34,9.78-6.58,15.3-15.52,14.06"/><path class="cls-4" d="M231.81,346.76s3,30.14,3.38,36.48c.45,6.78,2.07,12.11-.95,18s-8.52,4.93-8.52,4.93l7.86,14.32s2,17.75,1.45,22.16,11.24,3.57,11.24,3.57l-4.06-92.94Z"/><path class="cls-13" d="M240.72,446.31s17.57-.21,23.81,0c.34-99.62-9.94-109.71-11.74-115.26s-7-8.59-14.46-5.1-9,11-5.75,25.95C239.84,377.58,240.72,446.31,240.72,446.31Z"/><path class="cls-13" d="M170.79,336.39c6.13.12,7.83,13.07,6.09,21s-3,25.62-17.4,70.48c-4.26-1.18-21.08-4.26-21.08-4.26s8.26-18.26,12.8-33.57,8.09-37.74,9.69-45.11S165.59,336.29,170.79,336.39Z"/><path class="cls-4" d="M148.31,398.67l11.37,29.18s9.1-33.66,10.36-42.24-13.83-16.46-13.83-16.46S152.53,387.82,148.31,398.67Z"/><path class="cls-13" d="M162.74,401.79c.73,7.18-2.2,37.66-2.89,44.61,0,0,9.51,0,9.21-.09.76-4.58,2.67-16.29,3.2-21.57.64-6.43-1.59-20.57-1.47-29.89s4.44-36.88,6.09-43.68-.69-16.12-.69-16.12,0-3.88-4.56-4.59-8,6.9-8,6.9-3.21,9.95-10.23,34.51S159.83,400.94,162.74,401.79Z"/><path class="cls-9" d="M180.2,393.89c.85-.14,26-.44,26-.44L204,436.13l-28.2.18Z"/><path class="cls-9" d="M213.08,322.62s-17.69,46.3-23.41,75.94c2.53.07,5.69,0,5.69,0s8-35.49,12.59-47.68c5.4-14.3,12.73-30.06,12.73-30.06Z"/><path class="cls-9" d="M185.94,329.13s4.68,54.74,9.42,69.43c-2.85,0-5.69,0-5.69,0S184,359.14,182.57,343s-.52-17.4-.52-17.4Z"/><path class="cls-7" d="M195.36,402.29l-10.43,0-2,27.05,5,.39.82-10.72,4.94-.14s6.25.08,6.69-7.67S195.36,402.29,195.36,402.29Zm-5.69,11,.73-5.79s5-1.54,4.43,3.56C194.5,414.21,189.67,413.28,189.67,413.28Z"/><path class="cls-9" d="M243.78,312.94h0a1.33,1.33,0,0,0,.05-.19,3.84,3.84,0,0,0-2.44-4.25,4.34,4.34,0,0,0-2.76-.05c.71-3.07-1.55-5.78-4.93-5.84-4.68-.09-7.47,3.1-9.71,6.81-1.65,2.73-2.82,5.35-5.53,7.21a25.6,25.6,0,0,1-8.82,3.46c-7.5,1.75-15.89,3.36-23.59,2.27a47.82,47.82,0,0,1-10-2.73c-2-.75-3.89-1.13-5.81-.12a7.93,7.93,0,0,0-1.27.43,2.84,2.84,0,0,0-1,3.85,3.53,3.53,0,0,0,.32.46,2.91,2.91,0,0,0-.14,1.84,7.7,7.7,0,0,0,.4,1.23c-3.14-.34-5.42,2.75-4.34,6.37,3.43,11.6,23.44,12,31.72,10.47,7.36-1.35,14-5.12,21.28-6.79,6.59-1.5,13.38-5.46,18.47-9.52,3.15-2.52,9.91-5.88,10.49-10.45A4.09,4.09,0,0,0,243.78,312.94Z"/><path class="cls-17" d="M159.55,361.91s-2.1,14.41-3.24,17.83a54.6,54.6,0,0,0,10.2,1.05c.35-2.86,3.37-13.6,3.53-18.16C167.34,362.15,159.55,361.91,159.55,361.91Z"/><polyline class="cls-18" points="159.55 361.91 162.29 371.26 170.03 362.63"/><path class="cls-17" d="M217.21,364.08s.13,16.51-1,19.94c1.9.47,11.43.29,13.21.1.35-2.85.39-14.85.55-19.41C227.26,364.24,217.21,364.08,217.21,364.08Z"/><polyline class="cls-18" points="217.21 364.08 222.84 373.44 229.96 364.71"/><path class="cls-17" d="M243,336.39l6.91-2s3.61,12,4.75,19.59c-2.28.73-7.55,1.89-7.55,1.89A136.81,136.81,0,0,0,243,336.39Z"/><path class="cls-13" d="M234.94,441.63a2,2,0,0,0,.15,1.17c1.5,3.33,4.61,2.23,8,3.51,6.95-.14,22.43,0,22.43,0,.1-.55-.08-1.27-.8-3.12,0-.06-.05-.1-.07-.15a4.35,4.35,0,0,0,.36-3,4,4,0,0,0,1.72-2.62c1-4.93-5.24-5.49-8.48-6.24-6.35-1.49-12.65-5.27-19.3-4.64a3.16,3.16,0,0,0-2.76,3.46,7.49,7.49,0,0,0,.14.74c-1.29,1.56-1.35,4.07.49,6.18a4,4,0,0,0-.84.59A3.52,3.52,0,0,0,234.94,441.63Z"/><polygon class="cls-7" points="82.79 371.1 88.28 368.59 129.68 370.02 144.94 425.44 140.42 427.66 125.05 372.22 82.79 371.1"/><polygon class="cls-9" points="125.05 372.22 140.42 427.66 96.69 425.05 82.79 371.1 125.05 372.22"/><path class="cls-6" d="M255.35,446.31c-3.47-3.89-7.35-6.08-14.64-8.68-17.9-5.29-108.5-27.72-108.5-27.72l-2.57,13.92S160.51,435,192,446.31C195.6,446.23,240.05,446.2,255.35,446.31Z"/><path class="cls-6" d="M144.83,414c-.12-.18-.26-.33-.39-.5a7,7,0,0,0-1.68-3,17.59,17.59,0,0,1-1.45-5.37c-.33-4,1.1-7.9,2.87-11.4s-3.89-5-6.1-2c-1.51,2.09-5.29,9.67-4.22,14.72-1.83-.57-7.83-.94-9.43-1.36-8.18-2.14-11-4.41-17.65-8-3.65-2-11.71-9.24-14.32-2.89-1.08,2.62-1,6.15-1.38,8.95-.41,3.07-.73,6.29.81,9.1,2.75,5.06,10.3,9.14,15.2,11.34,7.24,3.25,17.55,6.73,22.81,5.68,7.95-1.59,14.3.25,14.46-.15C146.21,424.41,147.85,418.61,144.83,414Z"/><path class="cls-8" d="M182.34,331.68a26.66,26.66,0,0,1-4.91-.3,91,91,0,0,1-9-3.72.38.38,0,0,1-.19-.52.39.39,0,0,1,.51-.19,95.7,95.7,0,0,0,8.91,3.67c2.14.55,14.65.34,19-1.29,2.7-1,6.41-1.18,10-1.33a44.62,44.62,0,0,0,6.13-.51c4-.76,8.78-3.72,14.77-7.94,5.4-3.8,10.76-11.26,10.81-11.34a.41.41,0,0,1,.55-.09.39.39,0,0,1,.09.55c0,.07-5.49,7.65-11,11.52-6.07,4.28-11,7.29-15.08,8.07a44.91,44.91,0,0,1-6.23.52c-3.53.15-7.18.31-9.76,1.28C193.81,331.22,187.1,331.68,182.34,331.68Z"/><path class="cls-8" d="M207.49,334.13a35.14,35.14,0,0,1-8.45-1.59,53,53,0,0,0-6.72-1.49.39.39,0,0,1-.34-.44.39.39,0,0,1,.44-.34,53.46,53.46,0,0,1,6.82,1.52c3.88,1,7.55,2,10.33,1.33,3.37-.84,5.75-1.29,8.05-1.73.85-.15,1.67-.31,2.53-.48a3.67,3.67,0,0,0,2.93-1.94,11,11,0,0,1,1.69-2,6.92,6.92,0,0,1,3-2,18.19,18.19,0,0,0,2-.84c.58-.28,1.17-.54,1.76-.81,2.24-1,4.36-2,5.88-3.68,2-2.19,6-6.88,6-6.92a.39.39,0,0,1,.55-.05.41.41,0,0,1,0,.56s-4.06,4.73-6,6.94c-1.64,1.82-3.93,2.86-6.15,3.86-.58.27-1.17.53-1.74.81a19,19,0,0,1-2.06.86,6.43,6.43,0,0,0-2.77,1.85,9.94,9.94,0,0,0-1.57,1.9,4.44,4.44,0,0,1-3.43,2.27l-2.53.48c-2.29.44-4.66.89-8,1.72A9.75,9.75,0,0,1,207.49,334.13Z"/><path class="cls-8" d="M191.83,337.08c-1.21,0-2.64-.16-4.33-.34-2-.21-4.19-.45-6.87-.56-8.15-.33-11.3-8.14-11.33-8.22a.39.39,0,0,1,.22-.51.4.4,0,0,1,.51.22c0,.08,3,7.41,10.63,7.72,2.71.11,5.05.37,6.92.57,3.61.39,6,.65,7.25-.47,2.14-1.9,6.29-3.06,6.46-3.11a.4.4,0,0,1,.49.27.39.39,0,0,1-.28.48s-4.15,1.17-6.15,2.95A5.05,5.05,0,0,1,191.83,337.08Z"/><path class="cls-8" d="M212.38,320.82a26.08,26.08,0,0,1-3.45-.21.39.39,0,0,1-.32-.45.38.38,0,0,1,.45-.32c.1,0,10,1.55,17.49-4,5.11-3.77,5.88-4.13,10.44-5.85a.41.41,0,0,1,.51.23.39.39,0,0,1-.23.5c-4.47,1.69-5.23,2-10.26,5.75S216.07,320.82,212.38,320.82Z"/><path class="cls-4" d="M250.56,446.23c1.14,0,4.79.08,4.79.08s-.37-1-4.62-4.11c-2.63-1.9-8.94-4.17-8.94-4.17A42,42,0,0,1,250.56,446.23Z"/><path class="cls-11" d="M178.86,291.38c-1.57.74-2.52,2.13-3.93,3.12a14.2,14.2,0,0,1-5.5,2.14c-4.11.79-7.8,0-11.69-1.25-.76-.25-1.12.81-.52,1.23,3.7,2.53,9.07,3.23,13.41,2.37,3.44-.69,9-3,9.06-7.14A.56.56,0,0,0,178.86,291.38Z"/></g></g></svg>