<svg id="Layer_11" data-name="Layer 11" xmlns="http://www.w3.org/2000/svg" xmlns:xlink="http://www.w3.org/1999/xlink" viewBox="0 0 300 450"><defs><style>.cls-1{fill:url(#linear-gradient);}.cls-2{clip-path:url(#clip-path);}.cls-3{fill:url(#linear-gradient-3);}.cls-4{fill:url(#linear-gradient-4);}.cls-5{fill:#dadbdc;}.cls-10,.cls-6{fill:#363436;}.cls-13,.cls-20,.cls-26,.cls-6{opacity:0.44;}.cls-20,.cls-7{fill:#58595b;}.cls-25,.cls-8{fill:#a0a2a5;}.cls-15,.cls-9{fill:#fff;}.cls-11{fill:url(#linear-gradient-5);}.cls-12,.cls-13,.cls-22{fill:#393a35;}.cls-14{fill:#b5b7b9;}.cls-15,.cls-25{opacity:0.77;}.cls-16{fill:url(#linear-gradient-6);}.cls-17,.cls-21,.cls-23,.cls-24{fill:none;}.cls-17{stroke:#fff;stroke-width:2px;}.cls-17,.cls-21,.cls-22,.cls-23{stroke-miterlimit:10;}.cls-18{fill:#d6d7d9;}.cls-19{fill:url(#linear-gradient-7);}.cls-21{stroke:#58595b;stroke-width:7px;}.cls-21,.cls-23,.cls-24{stroke-linecap:round;}.cls-22{stroke:#393a35;}.cls-23,.cls-24{stroke:#a0a2a5;}.cls-24{stroke-linejoin:round;}</style><linearGradient id="linear-gradient" x1="151.05" y1="85.09" x2="149.76" y2="375.34" gradientUnits="userSpaceOnUse"><stop offset="0" stop-color="#af97c7"/><stop offset="0.5" stop-color="#a57fb9"/><stop offset="1" stop-color="#9c6bad"/></linearGradient><clipPath id="clip-path"><path class="cls-1" d="M193.77,5.39c69.25,5.26,90.84,65.8,89.52,123.24-1.05,45.49-14.2,46.06-1.65,129,7.79,51.39,17.64,60.25,11.37,85.47-14.57,58.65-86.43,85.65-98.29,89.87-60.61,21.58-152.09,17.24-181.88-31.1-30.66-49.77,36.64-93.33,22.74-204.35-8.92-71.22,5.67-111.63,36-141.93C104.45,22.72,145.66,1.74,193.77,5.39Z"/></clipPath><linearGradient id="linear-gradient-3" x1="258.32" y1="219.08" x2="259.05" y2="40.68" gradientUnits="userSpaceOnUse"><stop offset="0" stop-color="#af97c7" stop-opacity="0"/><stop offset="0.48" stop-color="#a580b9" stop-opacity="0.47"/><stop offset="0.83" stop-color="#9e71b0" stop-opacity="0.76"/><stop offset="1" stop-color="#9c6bad" stop-opacity="0.88"/></linearGradient><linearGradient id="linear-gradient-4" x1="62.37" y1="144.9" x2="60.05" y2="38.52" gradientUnits="userSpaceOnUse"><stop offset="0" stop-color="#af97c7" stop-opacity="0"/><stop offset="0.64" stop-color="#a27ab6" stop-opacity="0.59"/><stop offset="0.99" stop-color="#9c6bad" stop-opacity="0.88"/></linearGradient><linearGradient id="linear-gradient-5" x1="135.75" y1="31.85" x2="134.73" y2="173.5" xlink:href="#linear-gradient-3"/><linearGradient id="linear-gradient-6" x1="210.2" y1="117.01" x2="208.29" y2="242.31" xlink:href="#linear-gradient-3"/><linearGradient id="linear-gradient-7" x1="86.37" y1="165.04" x2="83.87" y2="331.39" xlink:href="#linear-gradient-3"/></defs><title>thankyou</title><path class="cls-1" d="M193.77,5.39c69.25,5.26,90.84,65.8,89.52,123.24-1.05,45.49-14.2,46.06-1.65,129,7.79,51.39,17.64,60.25,11.37,85.47-14.57,58.65-86.43,85.65-98.29,89.87-60.61,21.58-152.09,17.24-181.88-31.1-30.66-49.77,36.64-93.33,22.74-204.35-8.92-71.22,5.67-111.63,36-141.93C104.45,22.72,145.66,1.74,193.77,5.39Z"/><g class="cls-2"><path class="cls-3" d="M289.94,270.16c1.72-34.09,2.75-68.16.88-102.26-.92-16.72-2.62-33.46-2.71-50.22,0-6,.2-11.94.39-17.9-1.33-.9-2.65-1.51-3.65-2.07a28.18,28.18,0,0,0-12.59-3.55c-.48-3.59-1-7.39-1.55-10.57.49-.28,1-.58,1.45-.9q.94-2.31,1.91-4.61,4.37-10.67,7.93-21.61c.25-.77.49-1.54.73-2.31-.17-.65-.36-1.29-.58-1.93h0c.69-3.42-6.78-17.29-8.76-18.82-2.76-2.13-9.7-7.48-18-5.28-6.66,1.75-13.49,8.12-12.33,13.21a6.54,6.54,0,0,0,2.88,3.82,29.39,29.39,0,0,0-3.76,11.59C241,68.94,249,83.12,259.7,85.47l-1.5,10.44a40.68,40.68,0,0,0-9.46,4,25.64,25.64,0,0,0-9.24,9.82,1.17,1.17,0,0,0-.47.71c0,.11-.06.22-.08.33a46.84,46.84,0,0,0-4.37,16.55c-.21.89-.4,1.79-.55,2.7-1.24,7.58-2.44,15.11-3.92,22.65-2.77,14.2-4.87,29.47-3.35,43.93.92,0,1.85,0,2.78,0,0,.45-.08.9-.11,1.35l0,0a22,22,0,0,0-1.17,2.33c-2.67,5.2-5.33,14.32-1.14,18a1.69,1.69,0,0,0,.91.38s0,.08.07.13a1.3,1.3,0,0,0,.32.37l.46.25,0,0h0l1.25.66.46.23a.61.61,0,0,0,.18,0s0,.1,0,.15c.83.4,1.65.82,2.47,1.25.09-1,.19-1.94.26-2.92a1.14,1.14,0,0,0,.18-.3,1.12,1.12,0,0,0,.44-.73,77.36,77.36,0,0,0,.82-7.7c.16-.44.32-.89.44-1.36.21-.69.4-1.38.55-2.09.15.29.31.58.49.86a1.28,1.28,0,0,0,.68.53q.25.31.54.63a1.42,1.42,0,0,0,2.35-1.37,26.89,26.89,0,0,0-2.89-6.08,1.35,1.35,0,0,0-.55-.54c0-.23-.06-.46-.07-.7a1.38,1.38,0,0,0-.75-1.16c-.07-.19-.14-.37-.22-.55a1.61,1.61,0,0,0-.24-.36c.1-.51.16-1,.24-1.54l.8,0c-.22-.28-.45-.55-.67-.81a.36.36,0,0,1,0-.11v0a1.37,1.37,0,0,0,1.06.44c0,.17,0,.33,0,.49.48,0,1,0,1.45,0a5.15,5.15,0,0,1,1.46.2c.19-7.26.66-14.51.52-21.77v0c2.15,8.12,4.58,15.47,6.71,21.2.24,29.18-.27,102.3-.32,109.87l-7.37,4.07c-.92.85-1.8,1.73-2.63,2.66-.53.74-1.07,1.48-1.58,2.24a4.59,4.59,0,0,0-.17.48l.43,1.94c8.14-.17,16.29.11,24.43-.14,2.37-.08,4.82-.26,7.32-.48a9.32,9.32,0,0,1,0-1.06l-1.07-9.06h1.3L265.68,210a35.55,35.55,0,0,0,10.16-1.78c2.13,29.12,5.16,78.4,6.08,93.59l-9.82,6.73a17.41,17.41,0,0,0-1.26,7.62c5.52-.57,11.18-1.19,16.74-1.27.28-2.37.53-4.74.77-7.11C288.55,295.25,289.31,282.7,289.94,270.16Zm-60.83-80.45a131.44,131.44,0,0,1,1.12-20.27C229.79,176.16,229.19,183,229.11,189.71Z"/><path class="cls-4" d="M90.66,126.82l0,0c0-.35-.06-.7-.1-1,.76,0,1.51,0,2.26,0,1.23-11.17-.47-23-2.72-33.92C88.87,86,87.9,80.16,86.89,74.31c-.12-.7-.27-1.39-.44-2.09A35.08,35.08,0,0,0,82.9,59.44l-.06-.25a1,1,0,0,0-.39-.55A20.28,20.28,0,0,0,75,51.06,34.55,34.55,0,0,0,67.28,48l-1.22-8c8.7-1.82,15.19-12.77,14.25-22.18a22,22,0,0,0-3-8.95A5.14,5.14,0,0,0,79.6,5.84a4.08,4.08,0,0,0,.09-.69l-5-.06c-2.27.1-4.54.23-6.81.41-5.27.79-10.54,1.6-15.83,2.11l-2.2.25c-1.3,2.68-2.26,5.27-2,6.39h0c-.18.49-.33,1-.47,1.49.19.6.39,1.19.59,1.78Q50.87,26,54.4,34.21c.52,1.18,1,2.37,1.55,3.56.38.25.78.47,1.17.69-.42,2.46-.86,5.39-1.25,8.16a23.89,23.89,0,0,0-10.22,2.74c-1.77,1-4.82,2.06-6.43,5.44-6.11,12.78-17,51.27.28,71.55-2.19,24.19-7.51,82.55-7.79,84.17-.09.52.92.78,2.46.87l-1,4.91,4.46.95c6.31-.57,13,.16,19.42.79a12.83,12.83,0,0,0-1-5.88L48,207c.75-11.72,3.21-49.77,4.94-72.25a30.62,30.62,0,0,0,8.24,1.37l-1.27,74.44H61l-.87,7q0,.4,0,.81c2,.18,4,.32,5.94.37,6.6.2,13.21,0,19.82.12l.35-1.5c0-.13-.09-.25-.14-.37-.42-.59-.86-1.16-1.29-1.74-.67-.71-1.38-1.39-2.13-2.05l-6-3.14c0-5.85-.46-62.3-.26-84.83,1.73-4.42,3.7-10.1,5.45-16.37v0c-.12,5.6.26,11.2.42,16.8a4.4,4.4,0,0,1,1.19-.15l1.17,0c0-.12,0-.25,0-.37a1.15,1.15,0,0,0,.86-.35v0s0,.05,0,.08l-.55.63.65,0c.07.4.12.79.2,1.19a.77.77,0,0,0-.19.27c-.07.14-.13.28-.19.42a1.09,1.09,0,0,0-.6.91c0,.18,0,.36-.06.53a1.12,1.12,0,0,0-.45.42A20.23,20.23,0,0,0,82,134a1.14,1.14,0,0,0,1.9,1c.16-.16.3-.32.45-.48a1,1,0,0,0,.54-.41c.15-.22.28-.44.4-.66.13.54.28,1.08.45,1.61a9.27,9.27,0,0,0,.36,1.05,54.49,54.49,0,0,0,.66,5.94.88.88,0,0,0,.36.57,1.09,1.09,0,0,0,.14.23c.06.75.14,1.5.22,2.25l2-1v-.11l.15,0,.38-.18,1-.51h0l.38-.19a1.48,1.48,0,0,0,.26-.29.93.93,0,0,1,.05-.1,1.4,1.4,0,0,0,.74-.29c3.4-2.84,1.24-9.88-.92-13.89C91.32,128,91,127.41,90.66,126.82ZM90,104.75a96.81,96.81,0,0,1,.9,15.65C90.82,115.19,90.33,109.94,90,104.75Z"/><path class="cls-5" d="M96.73,320.77c0,.79.6,54.06.06,74.54S118.66,403,118.66,403l-.45-89.21Z"/><path class="cls-5" d="M153.55,311.87c1.33,2.46,10,91.16,10,91.16l21.87-9.69-10.5-83.69Z"/><path class="cls-6" d="M110.85,342.5a66.4,66.4,0,0,0,7.5-1.09l-.14-27.59-21.48,6.95c0,.33.08,9.76.17,22.13C101.55,342.94,106.21,342.88,110.85,342.5Z"/><path class="cls-6" d="M158.26,336.45c4.52-.83,9.13-2.6,13.57-3.83,1.95-.54,3.87-1.06,5.76-1.66l-2.67-21.31-21.37,2.22c.44.82,1.71,11.27,3.2,24.81C157.25,336.61,157.75,336.54,158.26,336.45Z"/><path class="cls-7" d="M92.83,224.74,86.74,326A155.69,155.69,0,0,0,129.65,329c22.53-1.76,29.88-7.75,38.75-6.29s16.8-.31,20.33-2.51S165,216.36,165,216.36Z"/><polygon class="cls-8" points="95.97 37.88 99.24 118.86 171.09 112.81 169.43 36.04 157.24 10.7 103.21 22.85 95.97 37.88"/><path class="cls-5" d="M120.17,66.61s.91,29.76-.81,39.45c9.55,1.08,27.28.19,27.28.19S142,70.67,142.11,66.13C135.85,67.76,120.17,66.61,120.17,66.61Z"/><path class="cls-6" d="M123.6,90.2c6.75-1.89,13.53-3.82,20.35-5.55-1-8.41-1.89-16.51-1.84-18.52-6.26,1.63-21.94.48-21.94.48s.39,12.88.17,24.45C121.43,90.78,122.51,90.5,123.6,90.2Z"/><path class="cls-5" d="M160.13,3.79c-19,2.64-37.95,5.75-56.65,10A55.51,55.51,0,0,0,98.35,30c-.39,4.3,0,18.91,4.21,25.87s24.26,25.54,32.64,25.65,27.21-25.32,29.55-29.79,2.19-18.42,2.08-23.79C166.83,27.89,166.94,14.39,160.13,3.79Z"/><path class="cls-9" d="M106.52,38.79l24.29-4.08s-5.83-6.82-13.22-5.87C111,29.69,106.52,38.79,106.52,38.79Z"/><path class="cls-9" d="M140.11,34.94l23.5-1.64s-2.86-6.87-12-6.66C144.94,26.79,140.11,34.94,140.11,34.94Z"/><path class="cls-10" d="M115.44,37.29l5.68-.95A3.5,3.5,0,0,0,121.7,34a3.8,3.8,0,0,0-3.65-3.18,3.88,3.88,0,0,0-4,3.89A3.51,3.51,0,0,0,115.44,37.29Z"/><path class="cls-10" d="M148.05,34.39l6.2-.44A3.6,3.6,0,0,0,154.7,32a3.69,3.69,0,1,0-7.34.74A3.6,3.6,0,0,0,148.05,34.39Z"/><path class="cls-7" d="M136.92,32.22s3.25,15.26,6,22.06c-1.1.45-9.69.87-9.69.87l.66-22.48Z"/><path class="cls-8" d="M143.93,61.22a24,24,0,0,1-10.46,2.14,9.92,9.92,0,0,1-6.63-2.19,15.22,15.22,0,0,0-2.69-2.12.54.54,0,0,0-.73.73c1.87,4,6,5.12,10,5.1,3.49,0,8.64-.17,10.72-3.4C144.3,61.31,144.09,61.15,143.93,61.22Z"/><path class="cls-10" d="M113.83,22.38c-2.4.72-4.65,2.23-6.93,3.23l-1.26.58c.09.54.16,1.09.21,1.64a55.92,55.92,0,0,1,9.07-3.91A42.23,42.23,0,0,1,126.39,23c0-.37,0-.75,0-1.13,0-.11,0-.2,0-.31A29.3,29.3,0,0,0,113.83,22.38Z"/><path class="cls-10" d="M163.19,22.09c-5.4-3.18-13.69-2.49-19.48-.91,0,.34,0,.68,0,1,3.61-.1,7.2-.48,10.82-.51,3.16,0,5.7,1.19,8.58,1.87A14.43,14.43,0,0,1,163.19,22.09Z"/><path class="cls-8" d="M100.79,14.37a62.66,62.66,0,0,0-4.94,27.38C116,28.82,126.8,17.06,132.57,8,121.92,9.86,111.32,11.93,100.79,14.37Z"/><path class="cls-8" d="M142.34,6.42C146.66,16.6,154.71,29.06,169.42,36c-1.27-11.6-1.79-23.76-6.34-32.66C156.15,4.33,149.23,5.33,142.34,6.42Z"/><path class="cls-5" d="M91.83,113.68s18.26-21.51,75.64-11.07A72,72,0,0,1,160.54,130l-58.26,1.76Z"/><path class="cls-10" d="M97.22,109.38s36.07,27.53,67.53-7.08c2.72.31,5.52,2.37,8.75,7.08s8,50.38,8,50.38l-101.9,9s-1.7-38.82,6.21-49.86C89.46,113.82,94.32,111,97.22,109.38Z"/><path class="cls-10" d="M91.18,153.8c-.66,1.41.65,59.61,0,74.77,18.17,3.26,55.5,3,78.45-7.29-2.91-12.85-1.49-89.52-1.49-89.52Z"/><path class="cls-5" d="M80.75,168.62l.55,13.68a4.62,4.62,0,0,0,5.48,4.33c13-2.5,61.38-21.57,78.5-24.15-1.37-8.19-16.3-8.15-16.3-8.15Z"/><path class="cls-5" d="M179.84,159.91l1.69,12.66a6.09,6.09,0,0,1-5.75,6.51L106.57,175l7.82-8.7Z"/><path class="cls-11" d="M166.64,222.52c1-.4,2-.81,3-1.24-1.3-5.72-1.73-24.06-1.82-42.67l8,.47a6.09,6.09,0,0,0,5.75-6.51l-1.69-12.66,1.7-.15s-4.81-45.67-8-50.38a30.59,30.59,0,0,0-2.56-3.28L169.42,36c-1.27-11.55-1.79-23.64-6.28-32.52-21.25,1-42,5.69-62.48,11.16a62.76,62.76,0,0,0-4.81,27.07l.27-.18,2.7,66.85c-.57.33-1.1.65-1.6,1-2.9,1.66-7.76,4.44-11.37,9.48-7.91,11-6.21,49.86-6.21,49.86l1.11-.1.55,13.68a4.62,4.62,0,0,0,5.48,4.33c1.18-.23,2.67-.59,4.39-1.07.17,16.74.34,35.36,0,43l1.41.23L86.74,326s3.84.92,10,1.81v.53c0,.28,0,.57,0,.86,0,1,0,2,0,3.13v.1c0,.6,0,1.21,0,1.84v0c0,2.63,0,5.53.07,8.62.12,17.34.21,40.46-.11,52.41-.54,20.49,21.87,7.72,21.87,7.72l-.31-61.62-.06-12c3.66,0,7.48-.07,11.36-.38a128,128,0,0,0,25.7-4.67c0,.16,0,.3.05.46s0,.28,0,.42c.15,1.28.31,2.62.47,4,0,.14,0,.27,0,.41.08.65.15,1.31.23,2l0,.16c.17,1.52.34,3.11.52,4.73,3,27,6.82,66.48,6.82,66.48l21.87-9.69-8.8-70.1c5.33-.23,9.73-1.52,12.11-3C191.72,318.36,172.46,244.55,166.64,222.52ZM167.82,161l12-1.06-12,1.18Z"/><path class="cls-5" d="M252.24,235.83l-22.61,43.36,5.3,14.53s30.28-41,30.88-52.18C266.07,236.71,252.24,235.83,252.24,235.83Z"/><path class="cls-5" d="M151,243.27c0,11.32,36.73,47.81,36.73,47.81l2-16.84-21.51-31S151,239,151,243.27Z"/><path class="cls-12" d="M179.18,287.61s-.52,58,1,78,.76,2.85.29,42.23l-.47,39.37L207,444s0-13.17.75-56.42,2.1-72.3,2.1-72.3l6.65-.65s3.88-6.18,4,44.81,0,83.92,0,83.92l25.84,1.29s1.21-43.52.75-90S242.66,282,242.66,282Z"/><path class="cls-5" d="M191.87,102.85l5,48.6L206.17,175l12.89-6.87,3.31-14.77s-6.82-27.88-6.09-35.84C212.89,111.27,191.87,102.85,191.87,102.85Z"/><path class="cls-13" d="M192.15,107.67l1.23,9.7s9.93,18.15,13.74,22.27c3,3.21,13.59,6.56,13.59,6.56s-5.08-21.87-4.43-26.56C213,116.84,192.15,107.67,192.15,107.67Z"/><path class="cls-5" d="M225.61,36.34c7.11,4.61,21.83,21,22.46,34.53s-.63,46.83-.63,46.83a65.46,65.46,0,0,0-8.64,19.06c-3.94,2-15.9,1.55-15.9,1.55s-20.17-17.28-28.8-23-19.83-22.47-20.87-44.68C179.4,53.31,225.61,36.34,225.61,36.34Z"/><path class="cls-14" d="M220.71,116.37s2,1.12,3.07.27.77-1.26,2.46-1.32,2.43,1,3.88.91,2.85-1.61,4.39-1.67,4.42,2.91,4.42,2.91a9.14,9.14,0,0,1-8.81,7.13c-7.62.46-7.73-4-8.27-5A20.16,20.16,0,0,1,220.71,116.37Z"/><path class="cls-8" d="M230.26,87.34s.21,6.93,1.66,9.77,5.42,5.91,6.14,9.65c-2.12.78-7.27,2.45-9.46.78-.52-3.61-.49-20.2-.49-20.2Z"/><path class="cls-9" d="M199.53,83.1c-1.41,5.49,10.78,16.84,22.24,1.9C221.66,74.73,202.2,72.63,199.53,83.1Z"/><path class="cls-9" d="M228.83,83.1c1.81,6.59,13.46,11.12,19.24-2.25C244.7,72.12,233.6,69.48,228.83,83.1Z"/><path class="cls-12" d="M210.38,89.84a25,25,0,0,0,2.25-1.53,3.69,3.69,0,0,0,.34-.69,9.35,9.35,0,0,0,.5-3.09c.31-2.92-.64-7.3-4.53-6s-4.13,8.1-1.16,10.43A3.82,3.82,0,0,0,210.38,89.84Z"/><path class="cls-12" d="M240.77,85.12A6.33,6.33,0,0,0,242,80.69a4.14,4.14,0,0,0-1.69-3.36l-.18-.09a2.81,2.81,0,0,0-3.55.21,3.7,3.7,0,0,0-.92,1.47,6.88,6.88,0,0,0-.26,5.6,3.28,3.28,0,0,0,2.13,2.21,2.11,2.11,0,0,0,1.84-.33A18.71,18.71,0,0,0,240.77,85.12Z"/><path class="cls-8" d="M204.66,52.53a30.17,30.17,0,0,0,15.11,6.93c9.22,1.42,11.61.6,16.59,2.36a77.84,77.84,0,0,1,8.27,3.62c1.75.87,2.94,1.52,2.94,1.52s-3.89-15.39-8.38-20.09a136.37,136.37,0,0,0-12.48-10.82l-16.58,7.69-7.46,5.59s7.19,7.36,10.55,8.41a39,39,0,0,0,8.55,2c3.46.41,10.14.75,12.37,1.41"/><path class="cls-8" d="M190.8,55.25l2.9,6.86s1.5,15.38-6.4,25.7a80.3,80.3,0,0,1-8.84,6.32l-9-23.54,3.33-17.77,19.06-6.42Z"/><path class="cls-7" d="M184.64,83.84l-.65-.25c3.44-8.85,3-24.87,3-25l.69,0C187.73,58.7,188.12,74.86,184.64,83.84Z"/><path class="cls-7" d="M180.54,84.33a109.65,109.65,0,0,1,.8-20.57c.09-.79.17-1.47.17-1.59l.66-.18c.05.15,0,.28-.14,1.85a108.32,108.32,0,0,0-.8,20.44Z"/><path class="cls-7" d="M178.44,87.52c-3.76-6.31-2.57-19-2.52-19.51l.69.06c0,.13-1.22,13,2.43,19.1Z"/><path class="cls-7" d="M247.37,66.18c-2.78-2.62-5.56-4.19-10.15-6.15a33.13,33.13,0,0,0-9.1-2.38c-1.36-.22-2.89-.46-4.74-.82-8.75-1.68-12.74-6.42-12.9-6.62l.53-.44s4,4.75,12.51,6.38c1.83.35,3.36.6,4.71.81a34.24,34.24,0,0,1,9.26,2.43c4.67,2,6.66,3.1,9.53,5.54Z"/><path class="cls-7" d="M246.75,64c-1.17-1.4-5.8-4.42-7.8-5.91a34.81,34.81,0,0,0-11.71-5.44c-4.87-1.08-10.92-5.75-11.17-5.95l.42-.54c.06,0,6.18,4.77,10.9,5.81a35.43,35.43,0,0,1,12,5.56c1.9,1.42,5.63,3.88,7,5.11Z"/><path class="cls-7" d="M245.57,60.16a36.71,36.71,0,0,0-4.81-4.53c-.63-.54-1.28-1.09-2.06-1.8a30.57,30.57,0,0,0-8.61-5.31,35,35,0,0,1-7.88-5.35l.56-.41a35.78,35.78,0,0,0,7.6,5.13,31.33,31.33,0,0,1,8.79,5.42c.77.71,1.43,1.27,2.05,1.79a23.26,23.26,0,0,1,3.89,3.66Z"/><path class="cls-7" d="M243.92,55.54a81.58,81.58,0,0,0-5.81-6.11c-2.25-2-10.24-8.1-10.32-8.16l.42-.55c.08.06,8.09,6.2,10.35,8.19a50.15,50.15,0,0,1,4.62,4.77Z"/><path class="cls-12" d="M173.59,81.36s1.61-5.69,5.69-7.77,19.2-8.34,24.34-11.48S218.14,54.69,222.9,54s15.15-4.72,17.34-5.88c.22-2.37-6.12-14-14.25-15.93-6-1.41-5.68-2.29-5.68-2.29s-1.13-2.2-5.68-4.47-7.7-2.11-10.64-4.19S191,8,185.33,8.37s-17,2.63-20.72,7.12-8.9,10.28-5.67,15.32S164.35,36.57,165,41s-1.25,9,.29,15.06.73,4.88.73,4.88-1.58,1.85-.65,5.47,1.72,7.1,3.74,9.8S170.84,81.26,173.59,81.36Z"/><path class="cls-5" d="M189.7,88.86s-3.07-9-8.91-6.1-4,28.51,8.91,19.11"/><polygon class="cls-5" points="192.15 156.72 200.69 148.02 217.69 149.53 222.4 153.57 230.91 187.69 214.98 219.46 192.15 213.62 184.31 167.94 184.31 162.62 192.15 156.72"/><path class="cls-5" d="M199.42,149.53s-9.16,10-15.11,13.09-19.41,10.87-23.22,17.93-9.81,26.36-10,41.31-.09,21.41-.09,21.41h17.18a111.54,111.54,0,0,0,1.29-15c.39-10.31,1-24.22,1.83-26.54s6.09-9.21,6.09-9.21,0,.47,0,1.31a23.58,23.58,0,0,1,6-9.57A19.46,19.46,0,0,1,201,178.66C203.24,179.06,199.42,149.53,199.42,149.53Z"/><path class="cls-5" d="M263.47,213.08c-1.92-13.06-2.13-24-6.78-32.49s-22.15-21.81-36.45-28c-1.07-.47-2.09-.87-3.08-1.24-.63,3.42-1.75,6.81-2.15,10.24-.7,6,9.63,23.49,13.1,25,1.11-.91,3.23,4.28,4.78,4.54a14.34,14.34,0,0,1,4.15,1.5v-.05s6.12,1.1,8.05,10.59S249.87,222,250.17,234s.73,3.06.62,7.51h15A283.71,283.71,0,0,0,263.47,213.08Z"/><path class="cls-7" d="M185.75,161.78s8.69,34.76,15.73,39.34,8.24,4.57,10.69,4.06,12.24-11.14,13.6-16.29,3.89-27.06,4.78-31c1.95,1.19,6.49,4.16,6.49,4.16s1,38.52,1.94,46,5.45,73,5.45,76.34l-67,5.12s-.36-66.52.2-76.14.71-19.58,1.58-31.94.85-16.56.85-16.56Z"/><path class="cls-8" d="M239,208.59s-56.35-6.82-56.62,42.47c.23.27,6.8,0,6.8,0s2.73-35.41,50.22-37.3C239.19,212.17,239,208.59,239,208.59Z"/><path class="cls-12" d="M239.31,212.75l.37,6.08s-42.63-.53-45.59,32.35a52.6,52.6,0,0,1-7.37,0S187.92,215.47,239.31,212.75Z"/><path class="cls-15" d="M239.63,218.08l.31,5.42s-40.51.06-42.07,27.56a32.17,32.17,0,0,1-4.77.12S193.58,220.05,239.63,218.08Z"/><path class="cls-10" d="M239.87,222.22l.32,6.16s-35.25-3.5-37.71,22.8c-1.48.14-5,0-5,0S198.17,222.71,239.87,222.22Z"/><path class="cls-12" d="M220.16,67.76c-1.91-2.84-7.67-1.17-10.43-.69-3.73.65-8.69,2-11.14,5.06a.67.67,0,0,0,.81,1.05,33.77,33.77,0,0,1,11.86-2.83c2.65-.14,6.15.29,8.5-1.09A1.11,1.11,0,0,0,220.16,67.76Z"/><path class="cls-12" d="M248.39,71.26c-2.71-4.28-11.45-6.15-16-4.5a.76.76,0,0,0,0,1.45c2.47,1,5.25.84,7.82,1.5s4.83,2.14,7.38,2.58C248.16,72.39,248.74,71.82,248.39,71.26Z"/><path class="cls-7" d="M238.76,117.56c-2.13-.4-4.61.89-6.75,1.16-3.93.49-7.54.5-10.77-2.23a.53.53,0,0,0-.75.75c3.86,4.91,13.91,5,18.36.68A.22.22,0,0,0,238.76,117.56Z"/><path class="cls-16" d="M243,284.58l1.42-.11c0-.41-.07-1.78-.19-3.86,9-13,21.19-32,21.57-39.07a283.71,283.71,0,0,0-2.34-28.46c-1.92-13.06-2.13-24-6.78-32.49-2.88-5.23-10.71-12.36-19.65-18.5h0c-2.1-1.44-4.26-2.83-6.44-4.12l0,0h0c-2.73-1.62-5.48-3.1-8.15-4.36h0l-.07-.06,0-.17s-2.32-9.47-4.11-19c2.8,2.35,4.64,3.92,4.64,3.92s12,.4,15.9-1.55a65.46,65.46,0,0,1,8.64-19.06s1.18-31.27.68-45.51a.64.64,0,0,0,.27-.93c-.1-.15-.21-.29-.32-.43a22.32,22.32,0,0,0-.55-3.9l0,0s-.07-.29-.2-.78h0l-.13-.48L247,65v0h0c-.08-.3-.17-.62-.28-1h0l-.16-.55c-.07-.24-.15-.48-.22-.73l0-.08h0c-.23-.76-.49-1.58-.77-2.45h0l0-.09c-.14-.4-.27-.82-.42-1.24l0-.07h0c-.36-1.06-.76-2.14-1.18-3.22h0l-.06-.18-.06-.14-.61-1.54-.05,0a30.18,30.18,0,0,0-2.92-5.5h0c.22-2.37-6.12-14-14.25-15.93-6-1.41-5.68-2.29-5.68-2.29s-1.13-2.2-5.68-4.47-7.7-2.11-10.64-4.19S191,8,185.33,8.37s-17,2.63-20.72,7.12-8.9,10.28-5.67,15.32S164.35,36.57,165,41s-1.25,9,.29,15.06.73,4.88.73,4.88-1.58,1.85-.65,5.47,1.72,7.1,3.74,9.8,1.7,5.06,4.45,5.16l3.47,9.09c.18.54.38,1.07.58,1.6.07,5.28,1.93,10.94,5.88,11.77a41.55,41.55,0,0,0,9.5,10.74l.36,2.81,3.53,34.08.12.3-4.88,5-7.64,5.75-1.73,1c-.82.44-1.71.94-2.67,1.49l-.05,0h0c-6.62,3.8-15.91,9.93-19,15.6-3.82,7.06-9.81,26.36-10,41.31s-.09,21.41-.09,21.41c0,7.36,15.51,25.35,26.38,37,0,5.67,0,9.28,0,9.28l1.74-.13c-.08,10-.34,58.29,1.06,76.18,1.57,20,.76,2.85.29,42.23l-.47,39.37L207,444s0-13.17.75-56.42,2.1-72.3,2.1-72.3l6.65-.65s3.88-6.18,4,44.81,0,83.92,0,83.92l25.84,1.29s1.21-43.52.75-90C246.72,316.61,244,292.19,243,284.58Zm2.08-81.43c1.92,9.5,4.78,18.89,5.08,30.88.06,2.76.14,4.4.21,5.36l-7.86,15.08c-1.35-19.54-3-42.11-3.54-46.34-.32-2.5-.64-8.44-.92-15.24C239.88,193.66,243.65,196.06,245.09,203.15Zm-76.9,40.12a111.54,111.54,0,0,0,1.29-15c.39-10.31,1-24.22,1.83-26.54s6.09-9.21,6.09-9.21,0,.47,0,1.31a24,24,0,0,1,1.27-3.1c-.42,8.3-.61,15.59-1,22.68-.29,4.92-.33,24.77-.31,43Z"/><path class="cls-5" d="M161.73,396.57c-.36-3.2-.89-6.39-1.5-9.46a24.88,24.88,0,0,0-1-3.59,3.49,3.49,0,0,0,0-1.21,17.3,17.3,0,0,0-1.23-4.35,27.25,27.25,0,0,0-1.84-4.91c-1.83-3.62-7.3-.43-5.45,3.18A18.7,18.7,0,0,1,152,379.4a6.75,6.75,0,0,0-1-1,2.94,2.94,0,0,0-2.28-.73,3.1,3.1,0,0,0-2.21-1.19,1.4,1.4,0,0,0-2.16.31c-1.72,2.67-2.58,5.82-3.77,8.83-.54,1.19-1.09,2.38-1.69,3.55-1.54,3.05,2.86,5.73,4.57,3a94.94,94.94,0,0,1-1.61,10.68c-.74,3.41,4.49,4.87,5.24,1.45.62-2.83,1.27-5.67,1.83-8.53.14,2.73.29,5.45.3,8.19,0,3.54,5.41,3.53,5.49,0,.07-3.33.44-6.63.6-10q0-.91,0-1.83c.12.55.23,1.09.34,1.64a88.32,88.32,0,0,1,1,9.59c.07,3.56,5.47,3.57,5.53,0A44.86,44.86,0,0,0,161.73,396.57Z"/><path class="cls-12" d="M142.53,228.38,135.1,266.9s5.09,1.56,7.43,11.72c3.55,15.4,2.09,45,1.82,49.82h0l-3.53,52.61,20.5.85,4.26-52.77h.06C167.21,238.53,142.53,228.38,142.53,228.38Z"/><path class="cls-5" d="M10.3,382c-.59-1.17-1.14-2.36-1.68-3.55-1.2-3-2.06-6.17-3.78-8.84a1.4,1.4,0,0,0-2.16-.3,3.13,3.13,0,0,0-1.12.32c.06,3.8.11,7.6.13,11.4,0,5.09.08,10.17.22,15.25.07.29.13.58.19.87.76,3.42,6,2,5.25-1.45a94.94,94.94,0,0,1-1.61-10.68C7.44,387.76,11.84,385.07,10.3,382Z"/><path class="cls-7" d="M39.94,443.36c8.1.08,16.18.11,24.28.17L71.59,409h5.72L74.7,443.63c3.29,0,6.58.09,9.88.17q10.94.24,21.87.12c4.71-.06,9.47-.46,14.22-.59l2.4-63.83-91.92-4.77-12.93,67.4C25.44,442.72,32.66,443.29,39.94,443.36Z"/><path class="cls-17" d="M35.7,379.71C32,400.4,28,420.4,23.43,441.76"/><path class="cls-17" d="M40.7,379.71C37,400.4,33,420.4,28.43,441.76"/><path class="cls-8" d="M1.86,298.85c0,10.11-.13,20.22-.23,30.28H74.51L68.36,217.61H52.7s-36.23-4.37-47.33,34C4.44,267.36,2.91,283.1,1.86,298.85Z"/><path class="cls-13" d="M69.29,225.6c-16.37,2.72-44.45,10.56-49.19,52.46S15,329.13,15,329.13H74.51Z"/><polygon class="cls-12" points="71.26 172.41 88.15 244.92 130.02 239.39 135.91 179.13 71.26 172.41"/><polygon class="cls-18" points="87.9 186.62 85.73 214.72 65.45 228.5 142.53 228.38 121.5 212.43 122.88 188.5 87.9 186.62"/><polygon class="cls-13" points="87.9 186.62 86.86 200.07 95.43 209.09 121.55 211.58 122.88 188.5 87.9 186.62"/><path class="cls-5" d="M90.61,87.42c11.81-2.07,47.07-6.6,50.34,39.36,2.89,40.48-2.56,71.51-2.56,71.51s-11.55,1.34-19.33,1.7-21,.7-21,.7-26.3-19.76-35.81-60.07S56,105.07,56,105.07,67.58,91.45,90.61,87.42Z"/><polygon class="cls-8" points="113.56 130.05 123.33 160.73 106.12 161.92 113.56 130.05"/><path class="cls-9" d="M74.67,131.17s13.65-3.37,21.55-2.38,8.89,6.41,8.89,6.41a16.53,16.53,0,0,0-4.77-.43c-2.57.17-13.76,3-17.91,2.68S74.67,131.17,74.67,131.17Z"/><path class="cls-12" d="M94,131.4a4.94,4.94,0,0,0-1.57-2.74,34.17,34.17,0,0,0-6.72.29c-1.78,2-2.14,6-.29,8.07l.1.09c2.42-.35,5.2-.88,7.63-1.35A6.11,6.11,0,0,0,94,131.4Z"/><path class="cls-9" d="M140.57,120.81c-3.11.65-6.66,2.13-9.72,3-8,2.18-8.91,9-8.91,9a7.13,7.13,0,0,1,4.2-1.76c2.48-.21,11-2,15.54-2.86A68.35,68.35,0,0,0,140.57,120.81Z"/><path class="cls-12" d="M126.9,125.15a6.28,6.28,0,0,0-.26,4.53,4.49,4.49,0,0,0,.84,1.59c2.13-.25,5-.93,7.42-1.29a3.65,3.65,0,0,0,.77-2.61,4.87,4.87,0,0,0-.06-.55,5.57,5.57,0,0,0-1.07-3,9.74,9.74,0,0,0-.92-.9c-1.83.42-3.33,1.15-5,1.61A17.36,17.36,0,0,0,126.9,125.15Z"/><path class="cls-12" d="M98,82c-6.49-3.77-14.85.26-19.8,5a24.83,24.83,0,0,0-6.34,10.87c-.75,2.47-1,5.11-1.84,7.54-.94,2.68-2.82,4.83-3.52,7.6a1.39,1.39,0,0,0,2.3,1.34c6.19-5.42,5.15-13.79,9-20.44a19.78,19.78,0,0,1,7.83-7.38c3.08-1.7,8.08-4,11.69-3A.87.87,0,0,0,98,82Z"/><path class="cls-12" d="M88.76,82.3C80.66,79.64,70.35,87,65.68,93a29.16,29.16,0,0,0-5.58,13.6c-.57,3.76-1.65,10,2.27,12.22a1,1,0,0,0,1.51-.61c.61-3.51-.39-7.18.12-10.81a25.28,25.28,0,0,1,4.81-12A29.62,29.62,0,0,1,78,87.72c2.39-1.29,7.33-4.07,10.17-3.39A1.05,1.05,0,0,0,88.76,82.3Z"/><path class="cls-12" d="M87,82C75.2,81.17,64,85.79,57.58,96A32,32,0,0,0,53,111.55c-.25,4.17-.71,10.65,3.41,13.12a1.27,1.27,0,0,0,1.84-1.42c-.63-4.38-1.53-8.26-1.17-12.75a27.08,27.08,0,0,1,4.25-13C66.94,89.1,77.19,85,87,83.9A1,1,0,0,0,87,82Z"/><path class="cls-12" d="M72.08,224a141.05,141.05,0,0,0-38.77,28.53c-13,13.76-25.6,47.65-31.56,65.38-.08,7-.17,14-.2,20.94q0,9.36-.23,18.71.19,8.67.3,17.35a59.64,59.64,0,0,0,7.25-.45c.88-12.78,12.62-45.32,12.62-45.32S31.59,298.84,48,278.31C43,301,36,329.13,36,329.13h.12L26,381.1s25.32,4.11,48.5,4.11c34.28,0,48.91-3,48.91-3l7.32-53.06,11.79-100.75Z"/><path class="cls-9" d="M65.09,227.7s-.9,38.6-21,67.52c3.36-17.37,9.39-60.09,9.39-60.09Z"/><path class="cls-7" d="M98.36,90.24c.17.55,1.25,16.2,3,19.3C96.75,111.15,67,119.38,67,119.38l4.64-18.21Z"/><path class="cls-7" d="M99.71,90.24l5.34,18.31,32.79-3.74L129,92a15.1,15.1,0,0,0-10.57-5.78C111.37,85.6,99.71,90.24,99.71,90.24Z"/><path class="cls-12" d="M67.05,140.42c3,20.21,12.78,50.49,32.06,72.71,7.62,7.93,13.77,23,13.77,23s10.45-14.79,13.06-23.4,2.77-13.45,2.77-13.45l6.39-.73,2,26.87-25.16,41.11L65.09,227.7a59.84,59.84,0,0,0-1.77-34.37c-6.6-18.49-20.57-42.19-27.56-55.67C29.12,124.85,22,108,46.85,90.46c22-15.59,41.3-18.72,64-15.62s23.07,24.52,23.07,24.52-7.3-10.79-28.35-8.9S62.74,111.35,67.05,140.42Z"/><path class="cls-9" d="M142.53,228.38s-1.69,27.29-7,59.79c-10-38.31,1.52-64.88,1.52-64.88Z"/><path class="cls-8" d="M110.08,277.36a.8.8,0,0,1-.79-.64c-1.62-7.94,1-17.8,3.73-26.4,2-6.22-2.8-16.11-2.85-16.21a.8.8,0,0,1,1.44-.71c.21.43,5.12,10.57,2.93,17.41-2.69,8.4-5.23,18-3.68,25.59a.8.8,0,0,1-.62,1Z"/><path class="cls-8" d="M124.79,270.21a.76.76,0,0,1-.53-.2,21.13,21.13,0,0,1-6.19-19,26.09,26.09,0,0,0-2.86-16.86.8.8,0,0,1,1.36-.85,27.36,27.36,0,0,1,3.08,18,19.84,19.84,0,0,0,5.66,17.49.8.8,0,0,1-.52,1.4Z"/><path class="cls-12" d="M120.57,168.19c-1.89,3.44-11.87,5.55-14.42,1.87a.59.59,0,0,0-1.07.46c2,7.28,15.36,4.7,18.41-.63C124.57,168,121.62,166.28,120.57,168.19Z"/><path class="cls-12" d="M98.42,118.93c-3.32-2.66-9.13-.55-12.82.21-5.22,1.08-10.54,3.11-12.91,8.25a.84.84,0,0,0,1.14,1.15c4.28-1.93,7.76-4.52,12.35-5.84,3.92-1.14,7.7-2.44,11.8-2.73C98.45,119.94,98.87,119.29,98.42,118.93Z"/><path class="cls-12" d="M140.25,114.25c-5.22-3.09-13.74-1.83-19.26,0a.93.93,0,0,0,.25,1.82c3.1.22,6.16-.35,9.26-.45s6.15.6,9.23.55A1,1,0,0,0,140.25,114.25Z"/><path class="cls-19" d="M142.53,228.38h0l-5.48-5.1s-.05.11-.13.32l-1.81-24.95,3.28-.36s5.3-30.26,2.66-70l.63-.12a68.35,68.35,0,0,0-1.11-7.35l-.25.06c-.24-1.65-.53-3.21-.86-4.71h.27a1,1,0,0,0,.52-1.91,11,11,0,0,0-1.42-.69,46.64,46.64,0,0,0-3.14-8.51l2.15-.24-3.93-5.67c-.11-2.25-1.73-21.38-23.06-24.3-22.7-3.1-42,0-64,15.62C22,108,29.12,124.85,35.76,137.66c7,13.48,21,37.18,27.56,55.67a60.73,60.73,0,0,1,3.34,24.28h-14s-24.47-3-39.35,17.29a2.1,2.1,0,0,1,0,2.19c-3.47,5.62-5.08,12.3-6.38,19,.27,12.22-1.51,24.3-3.37,36.35-.22,1.43-.43,2.86-.64,4.28.68,9.29,0,18.64-.69,28,.48,7.42.92,14.84,1.09,22.28.24,10.78-.06,21.56-.08,32.33,0,3.12.09,6.25.17,9.38.45,3.49.9,7,1.21,10.47a2.8,2.8,0,0,0,2.68-3.38,94.94,94.94,0,0,1-1.61-10.68c1.7,2.71,6.1,0,4.56-3-.59-1.17-1.14-2.36-1.68-3.55s-.95-2.56-1.43-3.83c.65-.06,1.22-.13,1.68-.2.88-12.78,12.62-45.32,12.62-45.32H36.11L26,381.1s1.4.23,3.81.57L17.61,445.31l46.07.75L71.59,409h5.72l-2.8,37.24,46,.74L123,382.28l.46-.09,7.32-53.06,4.79-41h0c1.07-6.54,2-12.86,2.78-18.79a21.15,21.15,0,0,1,4.22,9.24c3.55,15.4,2.09,45,1.82,49.82h0l-3.53,52.61,1.46.06c-.57,1.49-1.08,3-1.67,4.51-.54,1.19-1.09,2.38-1.69,3.55-1.54,3.05,2.86,5.73,4.57,3a94.94,94.94,0,0,1-1.61,10.68c-.74,3.41,4.49,4.87,5.24,1.45.62-2.83,1.27-5.67,1.83-8.53.14,2.73.29,5.45.3,8.19,0,3.54,5.41,3.53,5.49,0,.07-3.33.44-6.63.6-10q0-.91,0-1.83c.12.55.23,1.09.34,1.64a88.32,88.32,0,0,1,1,9.59c.07,3.56,5.47,3.57,5.53,0a44.86,44.86,0,0,0-.48-6.86c-.36-3.2-.89-6.39-1.5-9.46a24.88,24.88,0,0,0-1-3.59,3.49,3.49,0,0,0,0-1.21c0-.17-.06-.33-.09-.49l2.08.08,4.26-52.77h.06C167.21,238.53,142.53,228.38,142.53,228.38Z"/><path class="cls-18" d="M148.4,446.39l19,.09c.28-.66,2.53-2,1.55-4.43-.47-1.17.91-2.37,1-3.69a11.69,11.69,0,0,0-.86-4.68c.52-3.14-1.34-6.72-4.87-7.21-1.51-.2-2.47.7-3.8.89-.74.11-.56.37-1.35.24-.47-.07-1.25-.84-1.77-1a3.92,3.92,0,0,0-3.83.29,3.51,3.51,0,0,0-4.55,1c-1.34,1.48-1.49,1.11-1.29,3C148,434,155.12,444.38,148.4,446.39Z"/><path class="cls-8" d="M155.44,446.48,135.73,407l-10.55,9.23s4.12,17.82,7.71,30.24Z"/><polygon class="cls-20" points="127.56 426.18 145.3 426.18 146.95 429.48 130.62 437.63 127.56 426.18"/><path class="cls-8" d="M101.41,376.49c4.54-4.34,14.44-15.39,20.13-14.81s8.81,3.09,10,7.13,2.93,13.48,2.93,13.48l-30.88,3.28-2.13-5.43Z"/><line class="cls-21" x1="114.2" y1="335.15" x2="131.63" y2="378.1"/><path class="cls-8" d="M120.13,365.55c1.43.19,6.94.79,10,5.6s1.52,12.36,1.52,12.36l-10.9,1.24-5.81-5.82Z"/><path class="cls-12" d="M245.86,446.4l-1.25-122.71-56.42,2L180.57,376l-8.72,70.41S238.18,446.6,245.86,446.4Z"/><path class="cls-18" d="M222.21,446.31c.34,0,23.11.2,34.44,0-.87-10.75-3.75-47.26-3.26-56.4.57-10.65,11-57.6,10.17-61.52s-8.53-8.52-8.53-8.52l-22.45,13.67s-8.48,31.08-8.74,49.73-3.15,42.56-1.82,50.64A34.81,34.81,0,0,1,222.21,446.31Z"/><path class="cls-22" d="M247.25,308.23a7.51,7.51,0,0,0-.65-.71,2.16,2.16,0,0,0,.14-.57c1.18-1.3,1.19-3.82-1-4.12-5-.68-11.07.55-15.65,2.46-2.72,1.13-5.28,2.64-8.14,3.39A59.37,59.37,0,0,1,211.6,310a73.38,73.38,0,0,0-18.85,3.73c-4.07,1.44-8.59,2.88-11.48,6.26-1,1.13-1.16,3.43.54,4.15,2.55,1.08,4.58.4,7-.77h0a2.13,2.13,0,0,0,1.69.57l.69-.09a3.36,3.36,0,0,0,1.74,1.63,7.56,7.56,0,0,0,4.22.15l0,0c5.38,3.36,14.13,2.2,20.09,1.53,7.3-.81,14.31-2.28,20.22-6.87,2.19-1.7.11-4.48-2.18-4.36a12.72,12.72,0,0,0,3.4-3.38,2.47,2.47,0,0,0,.41-1.25,19.42,19.42,0,0,0,4.42-1,2.37,2.37,0,0,1,1.31.36C246.24,311.59,248.32,309.62,247.25,308.23Z"/><polygon class="cls-8" points="186.84 307.69 189.03 319.87 195.67 329.7 231.19 319.24 238.78 313.71 231.19 300.88 186.84 307.69"/><path class="cls-13" d="M189,319.87s19.71-1.62,28.26-4.05c8.84-2.51,17.48-8.88,17.48-8.88l-3.58-6.06-44.53,5.47Z"/><path class="cls-8" d="M168.6,228.3c-9.31,6.3-39.09,28.65-34.95,51.06s21.84,27.7,34.38,27.49c4,4.21,13.31,8.73,25.28,1.12a52.19,52.19,0,0,0,37.88-2.22c17.86-8.26,36.61-20.51,37.69-40.76-1.62-10.05-27.32-44.61-27.32-44.61l-26.11.21Z"/><path class="cls-9" d="M185.83,259.73c3.07,6.09,19.33,15.83,28.1-1.42C210.52,243.71,190.38,246.57,185.83,259.73Z"/><path class="cls-9" d="M143.58,262.07c3.44,8.17,15.51,12.45,26-1.1C167.08,245.73,146.83,248.56,143.58,262.07Z"/><path class="cls-7" d="M172,261s2.08,17.47-1.05,21.44c-2,.54-4.08.09-4.46,1.71s-1.9,4.59,7.32,3.42c-.57,2.37-1.22,5.31,2,5.32s5.57-1.71,5.39-5.8c1.21-.38,5.83-.76,5.39-3.7s-7.2-2.64-7.2-2.64a35.37,35.37,0,0,1-.46-19.41C178.41,261.32,172,261,172,261Z"/><path class="cls-12" d="M161.89,255.24a3.31,3.31,0,0,0-4.4-.64,3.69,3.69,0,0,0-.66.65,5.51,5.51,0,0,0-.83.9,5.77,5.77,0,0,0-1,1.41c-1.16,2.35-1.66,5.55-.14,7.86a3.89,3.89,0,0,0,6.52.35,10.67,10.67,0,0,0,1.93-6.4A5.81,5.81,0,0,0,161.89,255.24Z"/><path class="cls-12" d="M205.59,259.24c.41-2.26.16-4.6-1-5.91-2.64-3.09-6.79-1-8.37,2a9.71,9.71,0,0,0-1,4.55,4,4,0,0,0,2.18,3.92,5.34,5.34,0,0,0,1,.82c3.13,1.9,5.58-.43,6.7-3.56A8.07,8.07,0,0,0,205.59,259.24Z"/><path class="cls-12" d="M167.72,243c-6.72.88-16.8,1.4-20.38,8.36-.12.23.12.43.33.42,7-.36,13.87-2.26,20.87-3.12C172.19,248.2,171.37,242.51,167.72,243Z"/><path class="cls-12" d="M214.9,249.25c-2.53-2.82-7.63-4.25-11.2-5.15-3.9-1-9.4-1.76-13.34-.71-2,.54-2.41,4.13.11,4.09a67,67,0,0,1,12.17.87c3.81.64,7.36,2.35,11.16,2.92A1.26,1.26,0,0,0,214.9,249.25Z"/><path class="cls-5" d="M214.89,258.28a.4.4,0,0,1,0-.79c.06,0,5.83,0,9-1.81a.39.39,0,0,1,.38.69c-3.38,1.87-9.17,1.91-9.41,1.91Z"/><path class="cls-5" d="M214.89,256.42a.39.39,0,0,1-.08-.78c.07,0,6.94-1.37,9.68-4.25a.39.39,0,0,1,.55,0,.38.38,0,0,1,0,.55c-2.91,3.06-9.79,4.42-10.09,4.48Z"/><path class="cls-5" d="M224.11,261.36a.33.33,0,0,1-.17,0c-3.16-1.56-9-1.24-9-1.24a.39.39,0,0,1,0-.78c.24,0,6.07-.34,9.41,1.32a.38.38,0,0,1,.18.52A.39.39,0,0,1,224.11,261.36Z"/><path class="cls-5" d="M143.69,258.32h0a4.71,4.71,0,0,1-3.68-2.15.39.39,0,0,1,.15-.53.39.39,0,0,1,.53.16,4,4,0,0,0,3,1.73.4.4,0,0,1,0,.79Z"/><path class="cls-5" d="M143.05,260.15c-1.08,0-3.48-.13-4.66-1.18a.39.39,0,0,1,0-.55.4.4,0,0,1,.56,0c1.27,1.15,4.61,1,4.64,1a.39.39,0,1,1,0,.78Z"/><path class="cls-5" d="M137.56,263.87a.35.35,0,0,1-.27-.11.38.38,0,0,1,0-.55c1.64-1.7,5.6-2.26,5.77-2.28a.39.39,0,1,1,.11.77s-3.87.55-5.32,2.05A.39.39,0,0,1,137.56,263.87Z"/><path class="cls-5" d="M198.22,295.86a.39.39,0,0,1-.43-.1,59.35,59.35,0,0,0-11.86-9.42.38.38,0,0,1-.14-.53.39.39,0,0,1,.53-.15,60.22,60.22,0,0,1,12,9.57.38.38,0,0,1,0,.55A.42.42,0,0,1,198.22,295.86Z"/><path class="cls-5" d="M167.66,300.35h0a.39.39,0,0,1-.35-.43,110.17,110.17,0,0,1,1.9-11.32.39.39,0,0,1,.47-.29.39.39,0,0,1,.29.47A110.63,110.63,0,0,0,168.05,300,.39.39,0,0,1,167.66,300.35Z"/><path class="cls-5" d="M197.64,273.56a10.58,10.58,0,0,1-2.45-.28,9.69,9.69,0,0,1-6.92-6.22.4.4,0,0,1,.24-.5.4.4,0,0,1,.5.24,8.9,8.9,0,0,0,6.36,5.72c4.39,1,9.57-1,14.59-5.87a.39.39,0,0,1,.54.56C206.18,271.37,201.7,273.56,197.64,273.56Z"/><path class="cls-5" d="M150.32,274.51a8.58,8.58,0,0,1-2.81-.46,7.92,7.92,0,0,1-4.79-5.11.4.4,0,0,1,.28-.48.39.39,0,0,1,.48.28,7.22,7.22,0,0,0,4.3,4.58c3.76,1.3,9.24-.64,15.83-5.6a.39.39,0,1,1,.47.62C158.64,272.44,154,274.51,150.32,274.51Z"/><path class="cls-12" d="M221.35,221.44s-16.58,7.47-16.41,19.2c-5.54.75-62.86,4-73.13,7.29-.53-8.81,12.08-36.87,52.19-33.37,24.68,2.16,26.18,5.48,40.11,5.17Z"/><path class="cls-12" d="M221.35,221.44s2.09,20.25,9.84,31.53,18.32,17.32,21.83,8,9.87-10.59,15.31-10.91c.67-3.35,10-23.86-7.5-33.35S228.67,215.32,221.35,221.44Z"/><path class="cls-12" d="M289.24,361.61c-.67,4.27,0,11.3.81,16.67a4.88,4.88,0,0,1,.19-1.1,48.9,48.9,0,0,1,3.85-9.52c.61-1.68,1.24-3.34,1.93-5l0-.06c.38-5.87.21-12.3.72-17.7.1-1,.19-1.83.3-2.61,0-5.52.42-11.1.81-16.6-.12-4.35-.22-8.7-.38-13-.6-16.06-1.22-32.12-1.62-48.18-8.58-6.51-23.8-3.43-23.8-3.43s-6.34,21.25-6.38,33.26S272,315,277.46,321.84,290.46,354,289.24,361.61Z"/><path class="cls-9" d="M153.51,278.4c-6,0-12.87-.11-13.3-.11l-.16,0c-.16,0-3.83-.92-3.76-6.71h0c.07-5.55,2-6.63,6.23-6.95,3.76-.28,19.42-.49,20.08-.49a4.7,4.7,0,0,1,4.48,4.65,16.32,16.32,0,0,1-.14,4.89c-.21,1.46-1.74,4.41-5.92,4.63C159.45,278.37,156.6,278.4,153.51,278.4Zm-13.18-1.68c1.39,0,16.24.23,20.61,0,3.92-.2,4.44-3.23,4.46-3.36a15.29,15.29,0,0,0,.12-4.45c-.29-3.15-2.82-3.23-2.92-3.23s-16.25.21-20,.49c-3.35.25-4.72.55-4.77,5.41C137.81,275.69,139.92,276.59,140.33,276.72Z"/><path class="cls-9" d="M200.32,278.39c-6.92,0-15-.1-15.1-.1l-.14,0s-4.27-.9-4.2-6.71c.08-6,2.81-6.67,7-6.95s22-.49,22.74-.49a5,5,0,0,1,5,4.64,14.83,14.83,0,0,1-.16,4.91c-.11.52-1.15,4.36-6.61,4.62C207,278.37,203.82,278.39,200.32,278.39Zm-15-1.67c1.38,0,18.4.23,23.39,0,4.52-.21,5.13-3.24,5.15-3.37a13.45,13.45,0,0,0,.13-4.43,3.47,3.47,0,0,0-3.41-3.24c-.16,0-18.42.21-22.64.49s-5.44.76-5.5,5.41h0C182.39,275.74,184.89,276.6,185.33,276.72Z"/><path class="cls-9" d="M181,270.48c-.72-3-3.16-4.89-6.52-5s-6.64,1.75-7.38,4.28l-1.5-.44c1.07-3.67,5.32-5.5,8.92-5.41a8,8,0,0,1,8,6.18Z"/><polygon class="cls-9" points="214.69 267.68 214.23 266.18 260.29 251.96 256.92 254.67 214.69 267.68"/><path class="cls-8" d="M262.36,251.08s14.74-5.44,15.1,4.91c.34,9.78-6.58,15.3-15.52,14.06"/><path class="cls-13" d="M243.81,346.76s3,30.14,3.38,36.48c.45,6.78,2.07,12.11-.95,18s-8.52,4.93-8.52,4.93l7.86,14.32s2,17.75,1.45,22.16,11.24,3.57,11.24,3.57l-4.06-92.94Z"/><path class="cls-18" d="M252.72,446.31s17.57-.21,23.81,0c.34-99.62-9.94-109.71-11.74-115.26s-7-8.59-14.46-5.1-9,11-5.75,25.95C251.84,377.58,252.72,446.31,252.72,446.31Z"/><path class="cls-18" d="M182.79,336.39c6.13.12,7.83,13.07,6.09,21s-3,25.62-17.4,70.48c-4.26-1.18-21.08-4.26-21.08-4.26s8.26-18.26,12.8-33.57,8.09-37.74,9.69-45.11S177.59,336.29,182.79,336.39Z"/><path class="cls-13" d="M160.31,398.67l11.37,29.18s9.1-33.66,10.36-42.24-13.83-16.46-13.83-16.46S164.53,387.82,160.31,398.67Z"/><path class="cls-18" d="M174.74,401.79c.73,7.18-2.2,37.66-2.89,44.61,0,0,9.51,0,9.21-.09.76-4.58,2.67-16.29,3.2-21.57.64-6.43-1.59-20.57-1.47-29.89s4.44-36.88,6.09-43.68-.69-16.12-.69-16.12,0-3.88-4.56-4.59-8,6.9-8,6.9-3.21,9.95-10.23,34.51S171.83,400.94,174.74,401.79Z"/><path class="cls-7" d="M192.2,393.89c.85-.14,26-.44,26-.44L216,436.13l-28.2.18Z"/><path class="cls-7" d="M225.08,322.62s-17.69,46.3-23.41,75.94c2.53.07,5.69,0,5.69,0s8-35.49,12.59-47.68c5.4-14.3,12.73-30.06,12.73-30.06Z"/><path class="cls-7" d="M197.94,329.13s4.68,54.74,9.42,69.43c-2.85,0-5.69,0-5.69,0S196,359.14,194.57,343s-.52-17.4-.52-17.4Z"/><path class="cls-9" d="M207.36,402.29l-10.43,0-2,27.05,5,.39.82-10.72,4.94-.14s6.25.08,6.69-7.67S207.36,402.29,207.36,402.29Zm-5.69,11,.73-5.79s5-1.54,4.43,3.56C206.5,414.21,201.67,413.28,201.67,413.28Z"/><path class="cls-7" d="M255.78,312.94h0a1.33,1.33,0,0,0,.05-.19,3.84,3.84,0,0,0-2.44-4.25,4.34,4.34,0,0,0-2.76-.05c.71-3.07-1.55-5.78-4.93-5.84-4.68-.09-7.47,3.1-9.71,6.81-1.65,2.73-2.82,5.35-5.53,7.21a25.6,25.6,0,0,1-8.82,3.46c-7.5,1.75-15.89,3.36-23.59,2.27a47.82,47.82,0,0,1-10-2.73c-2-.75-3.89-1.13-5.81-.12a7.93,7.93,0,0,0-1.27.43,2.84,2.84,0,0,0-1,3.85,3.53,3.53,0,0,0,.32.46,2.91,2.91,0,0,0-.14,1.84,7.7,7.7,0,0,0,.4,1.23c-3.14-.34-5.42,2.75-4.34,6.37,3.43,11.6,23.44,12,31.72,10.47,7.36-1.35,14-5.12,21.28-6.79,6.59-1.5,13.38-5.46,18.47-9.52,3.15-2.52,9.91-5.88,10.49-10.45A4.09,4.09,0,0,0,255.78,312.94Z"/><path class="cls-23" d="M171.55,361.91s-2.1,14.41-3.24,17.83a54.6,54.6,0,0,0,10.2,1.05c.35-2.86,3.37-13.6,3.53-18.16C179.34,362.15,171.55,361.91,171.55,361.91Z"/><polyline class="cls-24" points="171.55 361.91 174.29 371.26 182.03 362.63"/><path class="cls-23" d="M229.21,364.08s.13,16.51-1,19.94c1.9.47,11.43.29,13.21.1.35-2.85.39-14.85.55-19.41C239.26,364.24,229.21,364.08,229.21,364.08Z"/><polyline class="cls-24" points="229.21 364.08 234.84 373.44 241.96 364.71"/><path class="cls-23" d="M255,336.39l6.91-2s3.61,12,4.75,19.59c-2.28.73-7.55,1.89-7.55,1.89A136.81,136.81,0,0,0,255,336.39Z"/><path class="cls-18" d="M246.94,441.63a2,2,0,0,0,.15,1.17c1.5,3.33,4.61,2.23,8,3.51,6.95-.14,22.43,0,22.43,0,.1-.55-.08-1.27-.8-3.12,0-.06-.05-.1-.07-.15a4.35,4.35,0,0,0,.36-3,4,4,0,0,0,1.72-2.62c1-4.93-5.24-5.49-8.48-6.24-6.35-1.49-12.65-5.27-19.3-4.64a3.16,3.16,0,0,0-2.76,3.46,7.49,7.49,0,0,0,.14.74c-1.29,1.56-1.35,4.07.49,6.18a4,4,0,0,0-.84.59A3.52,3.52,0,0,0,246.94,441.63Z"/><polygon class="cls-9" points="94.79 371.1 100.28 368.59 141.68 370.02 156.94 425.44 152.42 427.66 137.05 372.22 94.79 371.1"/><polygon class="cls-7" points="137.05 372.22 152.42 427.66 108.69 425.05 94.79 371.1 137.05 372.22"/><path class="cls-8" d="M267.35,446.31c-3.47-3.89-7.35-6.08-14.64-8.68-17.9-5.29-108.5-27.72-108.5-27.72l-2.57,13.92S172.51,435,204,446.31C207.6,446.23,252.05,446.2,267.35,446.31Z"/><path class="cls-8" d="M156.83,414c-.12-.18-.26-.33-.39-.5a7,7,0,0,0-1.68-3,17.59,17.59,0,0,1-1.45-5.37c-.33-4,1.1-7.9,2.87-11.4s-3.89-5-6.1-2c-1.51,2.09-5.29,9.67-4.22,14.72-1.83-.57-7.83-.94-9.43-1.36-8.18-2.14-11-4.41-17.65-8-3.65-2-11.71-9.24-14.32-2.89-1.08,2.62-1,6.15-1.38,8.95-.41,3.07-.73,6.29.81,9.1,2.75,5.06,10.3,9.14,15.2,11.34,7.24,3.25,17.55,6.73,22.81,5.68,7.95-1.59,14.3.25,14.46-.15C158.21,424.41,159.85,418.61,156.83,414Z"/><path class="cls-12" d="M194.34,331.68a26.66,26.66,0,0,1-4.91-.3,91,91,0,0,1-9-3.72.38.38,0,0,1-.19-.52.39.39,0,0,1,.51-.19,95.7,95.7,0,0,0,8.91,3.67c2.14.55,14.65.34,19-1.29,2.7-1,6.41-1.18,10-1.33a44.62,44.62,0,0,0,6.13-.51c4-.76,8.78-3.72,14.77-7.94,5.4-3.8,10.76-11.26,10.81-11.34a.41.41,0,0,1,.55-.09.39.39,0,0,1,.09.55c0,.07-5.49,7.65-11,11.52-6.07,4.28-11,7.29-15.08,8.07a44.91,44.91,0,0,1-6.23.52c-3.53.15-7.18.31-9.76,1.28C205.81,331.22,199.1,331.68,194.34,331.68Z"/><path class="cls-12" d="M219.49,334.13a35.14,35.14,0,0,1-8.45-1.59,53,53,0,0,0-6.72-1.49.39.39,0,0,1-.34-.44.39.39,0,0,1,.44-.34,53.46,53.46,0,0,1,6.82,1.52c3.88,1,7.55,2,10.33,1.33,3.37-.84,5.75-1.29,8.05-1.73.85-.15,1.67-.31,2.53-.48a3.67,3.67,0,0,0,2.93-1.94,11,11,0,0,1,1.69-2,6.92,6.92,0,0,1,3-2,18.19,18.19,0,0,0,2-.84c.58-.28,1.17-.54,1.76-.81,2.24-1,4.36-2,5.88-3.68,2-2.19,6-6.88,6-6.92a.39.39,0,0,1,.55-.05.41.41,0,0,1,0,.56s-4.06,4.73-6,6.94c-1.64,1.82-3.93,2.86-6.15,3.86-.58.27-1.17.53-1.74.81a19,19,0,0,1-2.06.86,6.43,6.43,0,0,0-2.77,1.85,9.94,9.94,0,0,0-1.57,1.9,4.44,4.44,0,0,1-3.43,2.27l-2.53.48c-2.29.44-4.66.89-8,1.72A9.75,9.75,0,0,1,219.49,334.13Z"/><path class="cls-12" d="M203.83,337.08c-1.21,0-2.64-.16-4.33-.34-2-.21-4.19-.45-6.87-.56-8.15-.33-11.3-8.14-11.33-8.22a.39.39,0,0,1,.22-.51.4.4,0,0,1,.51.22c0,.08,3,7.41,10.63,7.72,2.71.11,5.05.37,6.92.57,3.61.39,6,.65,7.25-.47,2.14-1.9,6.29-3.06,6.46-3.11a.4.4,0,0,1,.49.27.39.39,0,0,1-.28.48s-4.15,1.17-6.15,2.95A5.05,5.05,0,0,1,203.83,337.08Z"/><path class="cls-12" d="M224.38,320.82a26.08,26.08,0,0,1-3.45-.21.39.39,0,0,1-.32-.45.38.38,0,0,1,.45-.32c.1,0,10,1.55,17.49-4,5.11-3.77,5.88-4.13,10.44-5.85a.41.41,0,0,1,.51.23.39.39,0,0,1-.23.5c-4.47,1.69-5.23,2-10.26,5.75S228.07,320.82,224.38,320.82Z"/><path class="cls-13" d="M262.56,446.23c1.14,0,4.79.08,4.79.08s-.37-1-4.62-4.11c-2.63-1.9-8.94-4.17-8.94-4.17A42,42,0,0,1,262.56,446.23Z"/><path class="cls-10" d="M190.86,291.38c-1.57.74-2.52,2.13-3.93,3.12a14.2,14.2,0,0,1-5.5,2.14c-4.11.79-7.8,0-11.69-1.25-.76-.25-1.12.81-.52,1.23,3.7,2.53,9.07,3.23,13.41,2.37,3.44-.69,9-3,9.06-7.14A.56.56,0,0,0,190.86,291.38Z"/><polygon class="cls-8" points="59.75 401.45 109.09 400.53 111.41 421 57.34 421.48 59.75 401.45"/><path class="cls-7" d="M69.68,445.89c13.91-.1,27.79-.43,41.67-.74l-3-52.75-42.59,1.81-2.13,51.7Z"/><path class="cls-7" d="M69.68,445.89c13.91-.1,27.79-.43,41.67-.74l-3-52.75-42.59,1.81-2.13,51.7Z"/><path class="cls-7" d="M69.68,445.89c13.91-.1,27.79-.43,41.67-.74l-3-52.75-42.59,1.81-2.13,51.7Z"/><path class="cls-6" d="M84.87,421.66c7.9-2.2,15.9-4,23.95-5.5l.83-.15-1.34-23.61-42.59,1.81-1.38,33.31C71.2,425.59,78,423.56,84.87,421.66Z"/><path class="cls-9" d="M157.07,444.5l-3-16.7-45.73-11.11L93.79,445.53C114.89,445.11,136,444.49,157.07,444.5Z"/><path class="cls-9" d="M13.57,445a30.19,30.19,0,0,0,3.57,2.36c.48-.07.94-.12,1.37-.17,16.94-1.68,34.17-1.17,51.17-1.29q9.24-.08,18.45-.25L62.29,415.08l-57.09,19C7.63,438.06,9.93,442.16,13.57,445Z"/><polygon class="cls-8" points="54.06 435.43 74.49 429.5 62.29 415.08 53.87 419.82 54.06 435.43"/><polygon class="cls-6" points="100.94 431.39 108.37 416.69 116.39 420.84 116.08 437.01 100.94 431.39"/><polygon class="cls-18" points="116.08 437.01 108.37 416.69 109.42 402.4 117.61 418.94 116.08 437.01"/><path class="cls-7" d="M114.1,264.94s32,48.89,33.08,51.28a19.18,19.18,0,0,1,.92,9.61c-.57,2.23-11.41,40.92-12.16,58.65-10.53,12-18,21.24-18,21.24s-11.58,11-43.89-.63c-20.13-13.75-38.7-29.42-38.7-29.42S28.85,355,26.7,348.38C22,334,28.57,289.26,28.57,289.26S80.05,265.58,114.1,264.94Z"/><path class="cls-6" d="M75.21,369.79s7-4.86,11.38-3.42S90.12,370,93.48,370s7.11-4.19,10.23-3.92,7.23,6,7.23,6S103.52,385,92.43,383.7,78.23,378.06,75.21,369.79Z"/><path class="cls-9" d="M104.61,328.19c7.2,7.34,23.47,13.14,36.14-2.21C132.75,314.93,110,316.12,104.61,328.19Z"/><path class="cls-9" d="M38.3,330.66c9.7,9.7,26.56,9.43,37,.6C68.43,320.55,47.53,315.17,38.3,330.66Z"/><polygon class="cls-10" points="78.19 307.6 74.75 314.85 54.57 313.15 29.69 324.26 51.64 307.66 78.19 307.6"/><polygon class="cls-10" points="103.13 308.02 105.14 314.64 118.92 309.26 141.88 312.4 119.9 302.61 103.13 308.02"/><path class="cls-25" d="M83.19,331.85s-2.68,16.42,3.66,24.84c6.65.12,16.76-.71,16.76-.71s-5.08-5.07-4.35-26.2C95.07,330.12,83.19,331.85,83.19,331.85Z"/><path class="cls-7" d="M22.24,334.7c4.33-.9,5,5.72,5.82,12.18s1.26,10.15-4,11.09-5.42-7.44-5.92-13.78S18.4,335.5,22.24,334.7Z"/><path class="cls-10" d="M27.8,290.28c-2.22,5.64-2.9,45.9-2.9,45.9s14-49.75,51.84-56.22,56,13.56,56,13.56-11.91-23.12-18.62-28.58C108,260,31.59,280.68,27.8,290.28Z"/><path class="cls-10" d="M47.59,329.71c.49-4.2,4.59-7,8.49-7,4.35,0,8.71,3.38,8.81,7.85.1,4.77-4.71,8.63-9.47,8.19C51,338.3,47.05,334.26,47.59,329.71Z"/><path class="cls-10" d="M118.54,336c5.84.85,11.86-5.24,10.75-10.71-.78-3.88-5-6.87-9.35-6.66-4.68.22-9.1,4.18-8.94,9.07A9,9,0,0,0,118.54,336Z"/><path class="cls-10" d="M27,352.72,64.1,367.9s14-9.28,26.13-8.23a21,21,0,0,0,.52,3.44S74.29,365,70,370.51c1,7.85,2.09,33.28,2.09,33.28l-36.95-27Z"/><path class="cls-10" d="M95.78,359.4l.94,2.66s18.08,1.47,21,8.69c-.06,5.8.15,35,.15,35l18-21.24,6-34.34L121.17,368.2S108.61,356.83,95.78,359.4Z"/><path class="cls-10" d="M95.25,389.41c-8.43-.24-24.92,8.28-24.92,8.28l.21,4.33s8.8,10.24,28.93,9.16,21.15-6.22,21.71-10.84S107.62,389.77,95.25,389.41Z"/><path class="cls-8" d="M109.51,371.69c-9,6.06-24.57,6.22-32.33-1.77-.87-.9-2.43.31-1.54,1.2,8.39,8.49,25,8.46,34.35,1.18C110.39,372,109.92,371.41,109.51,371.69Z"/><polygon class="cls-18" points="54.06 435.43 62.29 415.08 59.75 401.45 51.36 418.72 54.06 435.43"/></g></svg>