<svg xmlns="http://www.w3.org/2000/svg" viewBox="0 0 350 400"><defs><style>.cls-1{fill:#d6d7d9;}.cls-2{fill:#fff;}.cls-3,.cls-5{fill:#393a35;}.cls-4{fill:#58595b;}.cls-5{opacity:0.44;}.cls-6{fill:#a0a2a5;}.cls-7{fill:#b5b7b9;}.cls-8{fill:#9c6bad;}.cls-9{fill:#7a478b;}</style></defs><title>tails_2.2_amnesia</title><g id="Layer_5" data-name="Layer 5"><path class="cls-1" d="M168.28,14.24C255.08,7,250.09,90.45,279.16,141.63s65.21,66,66,115.62c1.61,94.54-57.47,115.57-173.3,115C55.87,371.7-20.81,332.73,12,240.89,27.71,197,65.84,187,81.88,125.9,90.41,93.4,96.85,20.19,168.28,14.24Z"/></g><g id="Layer_6" data-name="Layer 6"><path class="cls-2" d="M175.92,350.68h14c.17-2.38.85-6.94,3.51-9.76a2.4,2.4,0,0,0-3.49-3.29c-2.86,3.05-4.05,7.23-4.54,10.36a93.36,93.36,0,0,0-.23-10,2.4,2.4,0,0,0-4.76.61,97.75,97.75,0,0,1,.18,10.28c-.23-3.13-1-7.64-3.36-10.75a2.4,2.4,0,1,0-3.81,2.91C175.34,343.51,175.85,348,175.92,350.68Z"/><path class="cls-2" d="M291.28,310.42a2.39,2.39,0,0,0-3.38.1,18.78,18.78,0,0,0-4.34,9.25c0,.23-.05.47-.07.7-.34-3-1.18-6.77-3.24-9.47a2.4,2.4,0,1,0-3.82,2.9c1.9,2.49,2.41,7,2.48,9.67h9c.18-2.38.86-6.94,3.52-9.77A2.38,2.38,0,0,0,291.28,310.42Z"/><path class="cls-2" d="M90.88,303.51a2.4,2.4,0,0,0-3.39.11,18.87,18.87,0,0,0-4.34,9.25l-.06.69c-.34-3-1.19-6.76-3.25-9.46A2.39,2.39,0,1,0,76,307c1.9,2.49,2.41,7,2.48,9.67h9c.17-2.38.86-6.94,3.51-9.77A2.4,2.4,0,0,0,90.88,303.51Z"/><path class="cls-2" d="M294.67,219.32a2.39,2.39,0,0,0-3.38.1,18.77,18.77,0,0,0-4.34,9.26c0,.23-.05.46-.07.69-.34-3-1.18-6.77-3.24-9.47a2.4,2.4,0,0,0-3.82,2.91c1.9,2.49,2.41,7,2.48,9.66h9c.18-2.38.86-6.94,3.52-9.76A2.39,2.39,0,0,0,294.67,219.32Z"/><path class="cls-2" d="M42.9,220.68h14c.17-2.38.86-6.94,3.52-9.77a2.4,2.4,0,0,0-3.5-3.28c-2.86,3.05-4,7.23-4.53,10.36a90.54,90.54,0,0,0-.24-10,2.39,2.39,0,1,0-4.75.61,100.57,100.57,0,0,1,.18,10.28c-.24-3.13-1-7.64-3.36-10.75a2.4,2.4,0,0,0-3.82,2.9C42.32,213.51,42.83,218,42.9,220.68Z"/></g><g id="Layer_3" data-name="Layer 3"><path class="cls-3" d="M207,263.22c1.05.77.37,4-1.41,6.07s-7,7.5-7,7.5L194.63,274l1.83-2.55s1.38,1.43,3.37-.83S205.89,262.43,207,263.22Z"/><path class="cls-4" d="M192.62,281.33s7.47,6.76,10.47-.4,6.44-13.39,6.91-14.75-1-3.29-2.82-1.41-6,9.87-7.63,9a16.62,16.62,0,0,1-3.45-2.61Z"/><path class="cls-4" d="M151.85,191.24s25.55,61.91,44.61,80.22l-3.84,9.87C187,276.38,139.56,222,134,196.25,138.51,194.05,151.85,191.24,151.85,191.24Z"/><polygon class="cls-3" points="163.24 216.71 147.54 224.23 130.33 197.22 151.04 188.14 163.24 216.71"/><path class="cls-4" d="M162.08,191.24s39.69,45,56.7,54.42c-2.75,5.68-6.29,7-6.29,7s-55.21-43.69-69.3-61C148.78,190,162.08,191.24,162.08,191.24Z"/><path class="cls-3" d="M174.45,204.82l-9.2,8.46s-26.59-22.84-26.31-22.57,20.52-2.87,20.52-2.87Z"/><path class="cls-4" d="M63.8,260.21l-29.57,13s-11,5-.08,7.48c11.09-.3,37.55-2.91,37.55-2.91Z"/><polygon class="cls-5" points="59.44 262.13 62.35 278.65 70.4 277.89 62.59 260.86 59.44 262.13"/><path class="cls-4" d="M136.24,256.32l-20,25.38s-2.6,6,3.94,4.2c6.08-3.76,31.66-18.86,31.66-18.86Z"/><polygon class="cls-5" points="132.77 260.73 140.71 273.63 150.77 267.48 135.27 257.55 132.77 260.73"/><path class="cls-2" d="M96.88,226.81,79.77,251.66l-20.71,8,11.73,28.66s17.94-10.78,26.09-19.05,27.33-39.35,27.33-39.35Z"/><polygon class="cls-5" points="92.67 232.92 114.81 244.62 124.21 229.89 96.88 226.81 92.67 232.92"/><path class="cls-2" d="M89.2,193.77s-20.78,28.23,5,36.37,55.95,5.94,55.95,5.94L131,257l22.51,19.58,25-34.59c4.2-5.69,10.08-20.71-8.5-25.33-17.56-4.37-41.31-7.87-41.31-7.87S102.34,201.39,89.2,193.77Z"/><path class="cls-3" d="M176.47,195.92s-28.19-12.57-47.71,12.86c-10.84-2.06-38.85-11.43-39.56-15,7.62-7.46,23.5-22.8,49-19.65s37.56,10.57,37.56,10.57Z"/><path class="cls-4" d="M175.75,184.69s-4.83-3-14.81-5.94c-4.56,4.48-7.82,9.76-4.82,14.25,9.14.11,20.35,2.92,20.35,2.92Z"/><polyline class="cls-5" points="166.59 193.98 166.86 187.34 168.77 186.39 172.45 195.03"/><path class="cls-4" d="M211.24,176l-14.71,25.19-4.69-3.57-12.7,9.62L172.45,195l-3.19-5.8s13.17-31.78,25.33-29.89C197.25,159.75,204.11,162.1,211.24,176Z"/><path class="cls-3" d="M185.12,193c0-.13-.19-.2-.25-.07-1.33,2.85-.17,6.21,1.74,8.58l1.38-1A10.43,10.43,0,0,1,185.12,193Z"/><path class="cls-6" d="M107,168.89s10.22-10.91,19.18-7.19,9,6,12,5.49,6.91-3.49,10.07-3.64c4.93-.23,8.65,7,12.19,8.72,3.81,1.82,9.56.22,11.14-4.62,2-6.19.08-13.37,7.42-16,6.15-2.18,12,1.12,18.81,6.2a33,33,0,0,1,9.85,12s-7.82-3.31-16.94,2.46c-5.42,3.44-6.94,10.28-14.26,14.9-7.79,4.92-16.58-.4-23.69-.4-5,0-7.68,4.27-12.55,4.19s-7.25-3-12-2.59a14.41,14.41,0,0,0-7.43,3.24A93,93,0,0,1,107,168.89Z"/><path class="cls-2" d="M117.26,187.08c.15-.21,3.56-5.15,9.52-4.58a17.76,17.76,0,0,1,5.61,1.49,10,10,0,0,0,5.75,1,13.4,13.4,0,0,0,5.73-2.18,11.74,11.74,0,0,1,6.33-2.14h0a32.57,32.57,0,0,1,7.9,1.64c3.89,1.11,7.91,2.26,11.07,1.76,4.8-.75,7.14-3.49,9.85-6.65l.28-.33c.74-.87,1.55-1.94,2.41-3.07,2.41-3.2,5.15-6.83,8.29-8.54s8.8-2.38,13.85-1.65l.87,1.15-.51-.08c-5-.82-10.63-.22-13.73,1.46s-5.62,5.14-8,8.26c-.86,1.15-1.68,2.23-2.44,3.12l-.28.33c-2.72,3.18-5.29,6.18-10.45,7-3.37.53-7.51-.65-11.5-1.79a32.18,32.18,0,0,0-7.63-1.6h0a10.74,10.74,0,0,0-5.82,2,14.24,14.24,0,0,1-6.14,2.32,11.13,11.13,0,0,1-6.23-1,16.26,16.26,0,0,0-5.33-1.42c-5.37-.54-8.76,4.39-8.79,4.43Z"/><path class="cls-2" d="M166.24,181.28c-3.06,0-6.38-1.48-9.61-2.93-2.87-1.28-5.58-2.49-7.9-2.6a10,10,0,0,0-6.69,2,18.6,18.6,0,0,1-4,2.06c-2.69.95-5.12-.09-7.7-1.2a20.28,20.28,0,0,0-6.54-1.92c-4.25-.36-10.41,4.39-10.47,4.43l-.53-.87c.26-.2,6.39-4.93,11.07-4.56a21.25,21.25,0,0,1,6.86,2c2.5,1.07,4.66,2,7,1.18a17.9,17.9,0,0,0,3.8-2,11,11,0,0,1,7.28-2.18c2.5.12,5.3,1.37,8.25,2.69,3.51,1.57,7.14,3.19,10.22,2.78,3.6-.49,6.57-2.88,9.33-7.54l.62-1.08c1.72-3,4.91-8.6,8.77-10.59,2.31-1.19,6.91-1.87,13.19-2.07l1.1,1c-6.64.16-11.53.81-13.84,2-3.59,1.85-6.68,7.28-8.35,10.19l-.63,1.1c-1.85,3.11-4.89,7.32-10.06,8A8.72,8.72,0,0,1,166.24,181.28Z"/><path class="cls-2" d="M165.32,177.06c-3.56,0-6.74-2-9.83-3.9-2.42-1.5-4.7-2.92-6.86-3.14-2.68-.26-4.88.63-7.22,1.59a18.25,18.25,0,0,1-6.43,1.72c-2.76.07-4.77-1-6.71-2.13a13.5,13.5,0,0,0-6.56-2.22c-5.45-.18-11.36,6.81-11.42,6.88l-.5-1c.25-.29,5.91-6.93,11.74-6.93h.21a14.24,14.24,0,0,1,7,2.35c1.9,1.07,3.7,2.09,6.18,2a17.4,17.4,0,0,0,6.09-1.65c2.35-1,4.78-2,7.7-1.65,2.39.24,4.77,1.72,7.29,3.28,3.25,2,6.61,4.11,10.27,3.69,5.24-.6,7.17-4.59,9.72-11.07,3-7.71,8.56-11.35,15.39-11.32l1.82,1.08c-7.17-.68-13.18,2.69-16.28,10.61-2.22,5.64-4.32,11-10.54,11.69A7.94,7.94,0,0,1,165.32,177.06Z"/><path class="cls-2" d="M190.73,176.44c-3,4.34-2.65,12.89,8.31,11.56C201.43,183.23,198.63,175,190.73,176.44Z"/><path class="cls-3" d="M199,188a8.41,8.41,0,0,0,.82-4.13,3.79,3.79,0,0,0-3-1.38,4.38,4.38,0,0,0-4,5A12.21,12.21,0,0,0,199,188Z"/><path class="cls-3" d="M202.25,178.17a14.56,14.56,0,0,0-3-3.78.12.12,0,0,0-.19.15,32.29,32.29,0,0,1,2.24,4.48c.28.82.34,2.2,1.1,2.72a.59.59,0,0,0,.86-.35C203.54,180.47,202.66,179,202.25,178.17Z"/><path class="cls-7" d="M113.1,204.53A68.91,68.91,0,0,1,107,216.16s29.42,8.31,35.72,8.07c1.29-3.15,4.71-12.45,4.71-12.45"/><path class="cls-3" d="M118.68,207.34l-1-.31c.2-.59.51-1.43.52-1.43l.93.18Z"/><path class="cls-3" d="M115.46,215.4l-.89-.45c.31-.63.61-1.28.89-1.93l.92.4C116.09,214.08,115.78,214.75,115.46,215.4Zm1.75-4-.93-.37c.28-.71.53-1.39.75-2l.94.34C117.75,210,117.49,210.7,117.21,211.42Z"/><path class="cls-3" d="M114,218.07l-1-.27c.17-.27.42-.68.59-1l.87.51C114.25,217.64,114.16,217.79,114,218.07Z"/><path class="cls-3" d="M116.32,281.62s-6.43-.6-11.54,6.67c1.43,2.75,7,8.36,11.77,10.77,3.78,0,28.12-1.22,28.12-1.22s1.66-12.11-11.68-11c-4.1.35-10,2.76-12.27,1.69-2.87-1.33.53-3.32.53-3.32Z"/><path class="cls-4" d="M116.32,281.62l-3.2,2.53s.76,12,14.44,5.62c-4.92,0-10.67-1.89-6.31-4.52Z"/><path class="cls-3" d="M33.67,273.47s-3.67-4.85-8.76-5.42c-4.08,6.24-11.29,20.57-11.29,20.57s-3.28,9.41,5.33,9,25.14-.44,25.14-.44.58-8.12-15.55-9.49c1.47-2.1,5.61-7,5.61-7Z"/><path class="cls-4" d="M33.67,273.47l-3.53-.38s-12.63,12.07-4.09,18.09c.23-4.91,2.66-10.78,8.1-10.5Z"/><path class="cls-8" d="M332.86,286.54c-4.12-2.8-8.52-.26-12.85.37s-8.71-2.33-12.86-3c-3.44-.56-6.21-.05-9.54.27-4.08.39-7.16-2.76-11-3.69a34.51,34.51,0,0,0-10.24-.64c-7.4.5-14.56,4.45-22,3.82-2.55-.22-4.9-1.26-7.34-1.83,1.1-1.19,3.1-1.6,4.14-2.91,1.72-2.17,1-5.14,2.21-7.56,2.14-4.31.8-6.05-1.63-9.73s-3.1-8.47-7.38-10.75a21.37,21.37,0,0,0-14.86-1.16c-2.44.85-5.17,1.37-7.53,2.38s-2.69,2.37-4.2,4.15-3.87,2.13-5.49,3.73c-2,2-1.85,3.93-2.63,6.48-1.41,4.59-5.42,7.33-3.61,12.68.57,1.71,1,3.56,1.51,5.25a5.82,5.82,0,0,0,.87,1.92c1.18,1.57,3.16,1.62,4.6,2.71s2.3,2.68,4.2,3.34c2.73.95,5.88-.17,8.64-.31a62,62,0,0,1,10.17.8,55,55,0,0,0,11-.1c7.67-.61,15.39.35,23.09-.06,7.15-.38,14,.67,21.1-.45,4.08-.64,7.53-.09,11.59.34a102,102,0,0,0,12.11.12c3.93-.05,7.75.49,11.66.65,2,.09,9.42-.21,9.42-.21C336,291.66,334.93,287.94,332.86,286.54Z"/><path class="cls-9" d="M227.35,287.65a31,31,0,0,1-4.11-.31,10.87,10.87,0,0,1-5.38-2.27,19.65,19.65,0,0,0-2.4-1.5l-1-.5c-2.45-1.22-4.56-2.28-4-5.36a11.54,11.54,0,0,1,1.74-4,9.72,9.72,0,0,0,1.49-3.32c.11-.56.18-1,.23-1.32.25-1.53.32-1.75,2.27-4.53,2.5-3.56,2.84-3.93,6.6-5.41l2.43-.92a15.88,15.88,0,0,0,3.47-1.62c2.33-1.38,4.19-1.36,8.18-1.2.77,0,1.42,0,2,0,2.38,0,3.47,0,4.91,2.91a25.53,25.53,0,0,0,1.81,3c1.29,1.93,2.5,3.76,1.9,5.6l-.26.83a7.66,7.66,0,0,1-.82,1.92c-.2.37-.48.9-.89,1.7a19.49,19.49,0,0,0-.89,2c-.69,1.78-1.1,2.56-4.18,4a22.81,22.81,0,0,0-3.92,2.08c-.35.24-.79.55-1.57,1-2.59,1.62-6.74,1.41-9.77.95a6,6,0,0,0-1.77,0c-1.49.2-2.45.11-3.25-2.71-.26-.93-.53-1.68-.76-2.34-.72-2-1.15-3.21-.11-5.74.25-.61.41-1.05.53-1.38.42-1.19.54-1.27,2-2.27.42-.3,1-.69,1.73-1.24l1.47-1.09a9.93,9.93,0,0,1,4.46-2.33l.67-.2a7.65,7.65,0,0,0,2.48-1.28c1-.74,1.61-.93,2.94.34l1.17,1.16a6,6,0,0,0,2.22,1.69,2.52,2.52,0,0,1,1.7,1.81c.18,1-.39,2.1-1.71,3.31-.91.84-1.44,1.36-1.84,1.75a18.49,18.49,0,0,1-2.85,2.37,14.55,14.55,0,0,0-1.85,1.66c-.72.74-1.31,1.34-2,1.27-.52,0-1-.36-1.53-1.08a10.22,10.22,0,0,0-1.33-1.43c-.9-.84-1.36-1.38-.53-2.86a6.9,6.9,0,0,0,.56-1.34c.34-1.07.69-1.7,2.4-1.5a3.36,3.36,0,0,0,2.09-.3,2.15,2.15,0,0,1,1.11-.27l-.06,1a1.24,1.24,0,0,0-.63.18,4.34,4.34,0,0,1-2.62.38c-1-.12-1.07,0-1.34.82a7.53,7.53,0,0,1-.64,1.53c-.48.86-.42.91.34,1.62a11.87,11.87,0,0,1,1.45,1.57c.41.55.66.68.79.68h0c.28,0,.72-.46,1.24-1a15.21,15.21,0,0,1,2-1.76,18.55,18.55,0,0,0,2.74-2.28c.41-.4.94-.93,1.86-1.77s1.52-1.78,1.41-2.4-.73-.91-1.1-1.06a6.91,6.91,0,0,1-2.54-1.91L234.82,262c-.86-.83-.91-.8-1.65-.26a8.78,8.78,0,0,1-2.77,1.42l-.67.21a9.2,9.2,0,0,0-4.16,2.17l-1.48,1.1c-.75.55-1.32,1-1.75,1.25-1.26.89-1.26.89-1.58,1.78-.12.35-.28.8-.55,1.43-.89,2.17-.55,3.13.13,5,.24.67.52,1.44.79,2.4.61,2.19,1,2.13,2.15,2a6.84,6.84,0,0,1,2.05,0c2.35.36,6.64.73,9.09-.8.76-.48,1.2-.78,1.54-1a22.56,22.56,0,0,1,4-2.17c2.85-1.35,3.09-2,3.68-3.47a21.77,21.77,0,0,1,.93-2.1c.42-.81.7-1.34.9-1.71a7.12,7.12,0,0,0,.75-1.76l.26-.82c.45-1.39-.58-3-1.78-4.75a25,25,0,0,1-1.88-3.12c-1.16-2.38-1.71-2.37-4-2.35-.58,0-1.24,0-2,0-3.79-.16-5.55-.17-7.63,1.06a17.81,17.81,0,0,1-3.63,1.7c-.6.22-1.36.5-2.41.91-3.59,1.41-3.79,1.69-6.15,5.06-1.87,2.67-1.89,2.77-2.1,4.1,0,.36-.12.79-.24,1.37a11,11,0,0,1-1.61,3.64,10.3,10.3,0,0,0-1.61,3.69c-.42,2.24.83,3,3.45,4.28l1,.51a25,25,0,0,1,2.51,1.56,9.69,9.69,0,0,0,4.94,2.1,31.74,31.74,0,0,0,8.27.07l.91-.07c4.15-.31,5-.59,7.38-2.31s6.8-2.66,7-2.7l.19,1s-4.31.85-6.58,2.53c-2.48,1.82-3.59,2.17-7.9,2.5l-.9.07C229.86,287.55,228.6,287.65,227.35,287.65Z"/><path class="cls-4" d="M212.49,252.7s5.09,4.82,7.83,2.08,10.52-5.1,17.67-4.45c1.89.16,2.64-2.1,0-2.91a29.57,29.57,0,0,0-12.13-.24,9.5,9.5,0,0,1-7.08-1.52Z"/></g></svg>