<svg xmlns="http://www.w3.org/2000/svg" viewBox="0 0 350 400"><defs><style>.cls-1{fill:#a0a2a5;}.cls-2{fill:#dadbdc;}.cls-3{fill:#fff;}.cls-4,.cls-5,.cls-6{fill:#393a35;}.cls-4{opacity:0.44;}.cls-10,.cls-5{opacity:0.22;}.cls-7{fill:#c2c4c6;}.cls-8{fill:#58595b;}.cls-10,.cls-9{fill:#363436;}.cls-11{fill:none;}.cls-12{fill:#7a478b;}.cls-13{fill:#af97c7;}.cls-14{opacity:0.53;}.cls-15{opacity:0.78;}</style></defs><title>tails_4.2_bonfire</title><g id="Layer_10" data-name="Layer 10"><path class="cls-1" d="M3.71,269.26c0-1.73,6.84-266,174.58-265.13S346.66,260.51,346.66,260.51Z"/></g><g id="Layer_9" data-name="Layer 9"><path class="cls-2" d="M160.53,144.41c34.41-2.42,169.91,1.63,183,85.91,7,45,3.5,93.5-22.28,123-49,56.18-208.32,50.44-259.88,30C10.52,363.28-6.2,315.66,6.67,250.23,26.87,147.48,93.45,149.13,160.53,144.41Z"/><path class="cls-3" d="M162.38,362.25a1.87,1.87,0,0,0-2.65.08,14.72,14.72,0,0,0-3.39,7.22c0,.18,0,.36-.05.54a15.29,15.29,0,0,0-2.53-7.39,1.87,1.87,0,0,0-3,2.27c1.48,1.94,1.88,5.45,1.93,7.55h7c.14-1.86.67-5.42,2.75-7.63A1.87,1.87,0,0,0,162.38,362.25Z"/><path class="cls-3" d="M182.56,319.56h10.95c.14-1.86.67-5.42,2.75-7.63a1.87,1.87,0,1,0-2.73-2.56,15.33,15.33,0,0,0-3.54,8.08,72.19,72.19,0,0,0-.18-7.82,1.88,1.88,0,1,0-3.72.48,75.57,75.57,0,0,1,.14,8c-.18-2.44-.78-6-2.62-8.39a1.87,1.87,0,1,0-3,2.27C182.11,314,182.51,317.45,182.56,319.56Z"/><path class="cls-3" d="M331.78,278.79a1.89,1.89,0,0,0-2.65.08,14.79,14.79,0,0,0-3.39,7.23c0,.18,0,.36-.05.54a15.5,15.5,0,0,0-2.53-7.39,1.87,1.87,0,1,0-3,2.27c1.48,1.94,1.88,5.44,1.93,7.55h7c.14-1.86.67-5.42,2.75-7.63A1.88,1.88,0,0,0,331.78,278.79Z"/><path class="cls-3" d="M16.55,251.66h11c.14-1.86.67-5.42,2.75-7.63a1.87,1.87,0,0,0-2.73-2.56A15.28,15.28,0,0,0,24,249.56a74.55,74.55,0,0,0-.19-7.82,1.87,1.87,0,1,0-3.71.47,78.57,78.57,0,0,1,.14,8c-.18-2.45-.78-6-2.62-8.39a1.87,1.87,0,1,0-3,2.26C16.1,246.06,16.5,249.56,16.55,251.66Z"/></g><g id="Layer_4" data-name="Layer 4"><path class="cls-4" d="M250.75,233.55l32.6-17.88-1.4,7.05,38.95-23.78,7.71,2.64,3.18-1.61s-3.9-6.59-14.39-16.22c-2-1.82-13.92-10.5-16.57-12-18.54-10.6-43.53-18.52-43.53-18.52L217,191.14l48.15,18.69Z"/><path class="cls-4" d="M59.08,225.31l-39-17.5s7.56-16.11,17.54-26.48c24.08-25,59.61-30.78,59.61-30.78l21.09,33.2-24.05,25.4L79.82,196.27,59.08,210Z"/><path class="cls-4" d="M212.08,356.81l13,37s78.14-9.06,101.67-47.56C319.53,343.86,295,333.8,295,333.8Z"/><path class="cls-4" d="M129.42,355.46l-15.06,39.46s-66-3.35-91.87-39.46C27.61,352.4,41,344.13,41,344.13Z"/><polygon class="cls-4" points="122.05 265.32 152.85 259.38 154.48 278.08 162.78 276.63 178.29 259.38 216.77 274.07 209.85 253.34 224.92 247.28 188.51 233.55 148.87 239.42 120.2 235.47 133.84 245.88 122.05 265.32"/><polygon class="cls-5" points="322.11 289.07 344.44 299.02 345.51 291.08 329.32 287.3 329.11 289.07 322.11 289.07"/><polygon class="cls-5" points="152.72 372.52 146.55 397.43 159.06 397.83 159.72 372.52 152.72 372.52"/><polygon class="cls-5" points="27.5 251.66 5.86 254.53 7.62 245.6 16.06 247.55 16.59 251.33 27.5 251.66 27.5 251.66"/><path class="cls-5" d="M182.51,319.56l11.14-.4c.45,4.54,2.28,21.19,4.72,26.44a9.91,9.91,0,0,1,.37,6.48c-.64,1.78-1.82,1.77-2.66,0-2.63-5.66-4.1-13.57-4.9-19.53.49,6.43,1.07,14.89,1.14,19.13,0,2.52-.77,4.36-1.82,4.1s-1.92-2.49-2-5c-.07-3.89-.7-12.88-1.22-19.63.23,6,.23,14.64-1.2,20.7-.49,2.05-1.63,2.52-2.56,1.05a9.66,9.66,0,0,1-.79-6.39C183.91,341.63,182.81,324.7,182.51,319.56Z"/></g><g id="Layer_13" data-name="Layer 13"><path class="cls-6" d="M239.82,91.78a9.42,9.42,0,0,0-.33,2.64c0,.68-.33,1.62.16,2.17a.23.23,0,0,0,.29,0c.68-.35.55-1.23.52-1.88,0-1-.14-1.94-.21-2.9C240.23,91.63,239.9,91.53,239.82,91.78Z"/><path class="cls-2" d="M239.13,94.64a3,3,0,0,0-2.57,3c-.3,1.4-.08,3.26.86,4.13a3.21,3.21,0,0,0,1.52.72,1.84,1.84,0,0,0,.87.08,3.94,3.94,0,0,0,2.07-.54c1.45-.91,1.24-3,1-4.46C242.53,95.56,241.22,94.34,239.13,94.64Z"/><path class="cls-6" d="M240.18,116.67c.08-2.5.35-11.35-.12-14.8l-.4,0-.3,0h0c-.77,3.41-.22,12.93-.37,15.41-.17,3-.83,6.48-.24,9.39a.64.64,0,0,0,1.25-.11C240.23,123.23,240.07,120,240.18,116.67Z"/><path class="cls-7" d="M266.7,132c1.76-.83-2.84.12-5,3.82s-15.28,29.42-15.28,29.42l2.42,10.21s14.21-13.13,18.73-28C269.47,142.43,266.7,132,266.7,132Z"/><path class="cls-7" d="M235.28,134.3s.86,23.68,13.52,41.18a51.57,51.57,0,0,0,3.73-12.79s-9.87-26.51-11.19-28.69C240.54,134.05,235.28,134.3,235.28,134.3Z"/><path class="cls-7" d="M240.74,125.05c-.45-.86-.82-1.27-1.19-1.87-.91-1.47-2-3.46-3.87-3.69-.54-.08-1.38.61-1.66,1-.53.8,0,2,.44,2.85a3.37,3.37,0,0,0-1.61,1.08c-.65,1.16,0,2.66.57,3.83-1.15.22-2.84,1.17-2.49,2.58.18.77,1.19,1.42,1.83,1.88-.23.32-.75.56-.74,1a1.67,1.67,0,0,0,1,1.58,8.85,8.85,0,0,0,2.39.55c.19.08.65.84.93.94a2.88,2.88,0,0,0,1.74.13,1.7,1.7,0,0,0,.9-.61c1,.37,1.62,1.05,1.8.06a15.06,15.06,0,0,0,2.78-6.92C243.93,126.65,242.5,125.53,240.74,125.05Z"/><path class="cls-8" d="M237,127.11a.9.9,0,0,1,.09-1c.45-.66,1.59-1.38,3.66-1l-.49-.79c-2.16,0-3.2.5-3.81,1.39a.64.64,0,0,0-.08.14,7.31,7.31,0,0,1-1.94-2.44l-.69.3a8.1,8.1,0,0,0,2.37,2.91,1.64,1.64,0,0,0,.21.92,2.54,2.54,0,0,0,1.7,1.05c.13.23.39.83.15,1.22a1.23,1.23,0,0,1-1.06.67,4.07,4.07,0,0,1-3.72-2.16l-.81.25a5.27,5.27,0,0,0,4.45,2.69h.12A2,2,0,0,0,238,131a1.38,1.38,0,0,1,.27,1.53c-.41.61-3.36,1.4-5.53.22,0,0-.58.57-.59.6a7.3,7.3,0,0,0,3.53.73,5.09,5.09,0,0,0,3.24-1.11,2.1,2.1,0,0,0-.31-2.47,2.34,2.34,0,0,0,.24-.31,1.76,1.76,0,0,0,.07-1.5c.14,0,.27,0,.41,0a6.68,6.68,0,0,0,.76,0l-.07-.78C238.52,128,237.4,127.73,237,127.11Z"/><path class="cls-7" d="M297.06,127.88l-8.31-2.7s-3.83-10.68-3.91-11.5c-.66-7-3.89-31.53-3.95-31.89l-12.74,28.33s3.38,18.77,3.46,19.82l-4.9,1.9,9.7,22.34,14.89-4.08,5.83-21.79C297.15,128.1,297.13,127.94,297.06,127.88Z"/><path class="cls-8" d="M257.9,105.68s-1.11,8.09-2.48,11c1.65-.31,5-1.2,5-1.2Z"/><path class="cls-7" d="M281.81,81.4,256.07,97.76l5.49,25.47s.37,1.48,1.71,1.18S274,122.19,274,122.19Z"/><polygon class="cls-4" points="270.55 123.02 281.63 121.02 271.27 128.21 270.55 123.02"/><path class="cls-3" d="M261.17,179.72l39-3.14-3.1-48.7h0l-3.64-1.18c-11.09,7.84-19.23,5.52-23.71,4l-3,1.09Z"/><path class="cls-8" d="M273.55,86.6l9.86,31.06s1.86-.36,1.33-5.08-2.93-31.18-2.93-31.18Z"/><path class="cls-3" d="M269,101.74c-1.14,2.27-4,3.61-7.73,2.27C261.46,100.33,266.72,98,269,101.74Z"/><path class="cls-6" d="M261.3,104a7.93,7.93,0,0,0,3.69.48,2.64,2.64,0,0,0,.24-.57,2.19,2.19,0,0,0,0-1.08h0a2,2,0,0,0-2.54-1.72A4.27,4.27,0,0,0,261.3,104Z"/><path class="cls-8" d="M261.61,109.74c-1.36,0-2.6-2.1-3.21-4.2s-.68-4.35.83-4.88h0a1.45,1.45,0,0,1,1.49.44c1.48,1.37,2.74,5.54,2.24,7.44a1.44,1.44,0,0,1-1,1.17A1.55,1.55,0,0,1,261.61,109.74Zm-2.05-8.13c-.66.23-.74,1.8-.2,3.65.63,2.16,1.75,3.61,2.33,3.48q.19-.06.3-.45c.41-1.54-.74-5.34-1.95-6.46-.11-.1-.33-.27-.48-.22Z"/><path class="cls-8" d="M259.07,106.6h-2.21a.51.51,0,0,1-.5-.51.5.5,0,0,1,.5-.49h2.22a.51.51,0,0,1,.49.51A.49.49,0,0,1,259.07,106.6Z"/><path class="cls-8" d="M262.48,106.57a.5.5,0,0,1-.16-1l18.86-6.49a.5.5,0,1,1,.33,1l-18.86,6.49A.51.51,0,0,1,262.48,106.57Z"/><path class="cls-6" d="M266.36,95.79a4.56,4.56,0,0,0-2.78.45,5.89,5.89,0,0,0-3.23,2.17.19.19,0,0,0,.23.28c1-.44,2-1,3-1.37a4.67,4.67,0,0,1,2.38-.5C266.66,97,267,96,266.36,95.79Z"/><path class="cls-6" d="M265.17,116c-1.16,1.77-2.76,2.27-4.53,3l.14.64c2-.17,4.68-1.34,4.81-3.48A.24.24,0,0,0,265.17,116Z"/><path class="cls-1" d="M277.89,102.72s2.63-7.82,5.35-2.77-3.78,8.19-3.78,8.19"/><path class="cls-8" d="M280.55,74.52a6,6,0,0,0-3.5-3.38c-3.1-1-4.58,1.77-4.58,4.4a4.82,4.82,0,0,0-2.69-1.6,4.46,4.46,0,0,0-3.63.85,4.18,4.18,0,0,0-1.6,3.46c0,.2,0,.43,0,.67A3.37,3.37,0,0,0,263,78a3,3,0,0,0-3.07,1,5.15,5.15,0,0,0-1,3.76,2.51,2.51,0,0,0-3-.44,2.46,2.46,0,0,0-.91.8,2.38,2.38,0,0,0-.79-1,1.91,1.91,0,0,0-2.72.35,4.37,4.37,0,0,0-.58,4.89,2,2,0,0,0-1.78.36c-1.44,1-1.95,3-2.32,4.57-.79,3.37-1.22,9.51,2.63,9.08,2.22-.24,3.7-1.44,6.11-3,0,0,25.95-16.76,26.23-16.9C281.76,81.08,281.09,75.75,280.55,74.52Z"/><path class="cls-7" d="M297.06,127.88l7.59,3.33a3,3,0,0,1,1.77,1.94c.31,1.4,11.19,63.64,11.19,63.64l-4.37,4.91s-2,.17-2.68-4.3-7.95-29.08-7.95-29.08l-5.11-18.6Z"/><path class="cls-7" d="M313.24,201.7H320c.47,0,1.66-1,3.32-.87s3.16,1,4.26,1,2.52-.75,1.68-1.83c1.18-.45,1.32-2-1.68-3.13-.15-1.36-2.34-2.4-4.64-2s-5.93,1.23-5.93,1.23Z"/><path class="cls-8" d="M322,200c-.86-2.37-5.4-.91-5.91-.74a.39.39,0,0,0-.24.5.39.39,0,0,0,.49.24c1.12-.38,4.41-1.13,4.92.27a.92.92,0,0,1,0,.69,1.47,1.47,0,0,1-.16.29,5.89,5.89,0,0,1,1-.34A1.82,1.82,0,0,0,322,200Z"/><path class="cls-8" d="M329.86,199.46c-4.08-2.46-7-1.34-7.6-1.07a.37.37,0,0,0-.19.47.43.43,0,0,0,.53.24c.5-.24,2.89-1.34,6.61.87A1.18,1.18,0,0,0,329.86,199.46Z"/><path class="cls-8" d="M327.1,195.93a8.78,8.78,0,0,0-5.66.56.39.39,0,0,0-.17.53.4.4,0,0,0,.53.17,8.85,8.85,0,0,1,5.73-.35A1.86,1.86,0,0,0,327.1,195.93Z"/><polygon class="cls-6" points="272.19 201.58 279.85 202.41 278.1 213.84 271.03 211.72 272.19 201.58"/><path class="cls-1" d="M269,217.21l1.08,5.64s-10.85,10.94-20.33,13c-2.71-.39-6.09-3.61-6.09-3.61s3.26-10.85,11.36-16.13C260.31,216.18,269,217.21,269,217.21Z"/><path class="cls-2" d="M256.41,229.21c-.32-.19-.64-.36-1-.53l.49-.92,1,.54Zm-1.93-1c-.34-.17-.67-.32-1-.47l.43-.95q.51.22,1,.48Zm-2-.89-1-.4.36-1,1.05.41Zm-2.06-.75-1-.33.29-1c.34.1.7.21,1.08.34Zm-2.1-.61-1.06-.24.21-1,1.1.25Z"/><path class="cls-2" d="M249.79,235.86c9.48-2.07,20.33-13,20.33-13l-.45-2.36A90.79,90.79,0,0,1,249.9,234c-.37-.21-3.62-2.61-5.42-4l-.78,2.21S247.08,235.47,249.79,235.86Z"/><path class="cls-6" d="M256,216.94c2.22-.69,8.86-.37,9.64.54s-1.25,4.38-5.68,5.2-6.29-1-6.63-2.58S255.16,217.2,256,216.94Z"/><path class="cls-8" d="M268.6,213.48s3.71,1.07,4-1.73.16-4.13.37-6.64,1-5.11.69-6.38-6.19-1.81-6.19-1.81Z"/><path class="cls-1" d="M278.45,201.79a24.26,24.26,0,0,1,7.33.17c-.93,6.42-5.13,27.81-5.13,27.81l-5.34-.15-.8-15.52S280.14,211.21,278.45,201.79Z"/><polygon class="cls-2" points="283.83 201.66 278.35 229.72 280.65 229.77 285.78 201.96 283.83 201.66"/><path class="cls-2" d="M282.71,208.08a3.44,3.44,0,0,1-.27-.27l.75-.67a1.8,1.8,0,0,0,.19.2Zm-.9-1.19a6.4,6.4,0,0,1-.42-1l.94-.32a6.62,6.62,0,0,0,.36.84Zm-.7-2a10.14,10.14,0,0,1-.18-1l1-.13c0,.3.09.62.16.94Zm-.28-2.06c0-.34,0-.62,0-.8v-.25l1,0V202c0,.17,0,.42,0,.74Z"/><path class="cls-2" d="M275.65,222.48l-.69-.72.71-.69.7.71Zm1.44-1.39-.7-.72.72-.7.69.72Zm1.43-1.4-.69-.72.71-.69.7.72ZM280,218.3l-.7-.72.72-.7.69.72Zm1.43-1.4-.7-.71.72-.7.7.72Z"/><polygon class="cls-8" points="287.68 201.08 275.5 181.59 259.31 174.43 259.49 172.57 243.91 178.19 223.26 186.62 219.76 194.03 245.27 195.75 257.42 192.3 267.02 201.14 287.68 201.08"/><path class="cls-4" d="M219.76,188.72a23.41,23.41,0,0,0,8.37.16c2.67-.6,6.46-3.17,9.86-1.54s5.89-1.66,8.39-2.27,8.43-2.46,10.92-.31.18,6.9,1.55,6.54-8.79,3.09-8.79,3.09l-10,2.94L217,198.53Z"/><path class="cls-8" d="M272.19,189.15a18.26,18.26,0,0,1,3.31,2.41c.78.93.15,3.18,2.29,4.56s3.1,1.15,4.5,2,1.8,2.85,3,2.93,10.89-.11,10.89-.11l2-7.55-17.49-44.8-6.33,3.51Z"/><path class="cls-8" d="M259.49,172.57c-2,.39-4.74.45-6.45.74s-3.17,2.05-4.76,2.28-3.61-1.26-5.24-.54-3.3,3.45-6.06,3.9-6.19-1-8.53-.35-6.3,4.62-8.47,5.23-14.68.2-14.38,13.09,9.86,10.7,13,11.54,3.78,1.7,6.2,1.93,5.37-1.79,8.28-1.74,3.7,2.92,6.19,2.95,4.64-1.88,7.15-1.21,4.22,2.69,7.36,2,4.32-15.47,4.32-15.47-4.79.29-6.76-.3-2.32-2.4-4.73-2.87-5.23.52-7.7,0-4.51-2.13-6.33-2.48-4.28.4-6.35,0,8.15-6.37,8.15-6.37Z"/><path class="cls-4" d="M279.47,153.61s.33,3.28,1.53,9c1.12,5.27-1.63,3.53-1.2,11s2.51,5,1.51,11.53,1.13,8.87,2.93,11.4c2.06,2.88,10.77,4.46,10.77,4.46l-25.75.34,7.41-46.21Z"/><path class="cls-8" d="M296.16,201s3.93.17,4.48-4.74.45-21.81.45-21.81-.38-3.9-2.46-6-16.14-22.36-16.14-22.36-1.69-2.39-3.63-2.81-14.79,1.2-14.79,1.2-4.07,1.77-4.85,4.84.86,3.25.27,4.88-3.39,3.41-3.94,6.42,2.3,3.86,1.31,6-2.7,2.19-3.19,4.71,2.2,3.89,1.66,6.35-2.28,2.51-2.8,6.19,2.12,4.07,2,6.5-3.08,4-2.76,6.45,2.62,2.91,1.73,5.65-3.37,5.28-3.53,8-.24,6.6,2.57,7.75,7.77,3.66,11.14,2.85,3.56-1.12,4.55-1.86,1.85-2.4,1.15-6.06a59.38,59.38,0,0,0,1.41-6.74c.41-3.11-.71-5.23.25-7.38s3.14-3.31,3.31-6.29-1.11-5.81-.35-8.82,2.73-5.1,3-8.35-.88-3.45-.42-6.23,2.5-3.35,2.81-6.33-1.47-4.48-.93-6.54a14.43,14.43,0,0,1,1.4-3.49Z"/><path class="cls-9" d="M301,189.9l-21-42.48a.51.51,0,0,0-.13-.16c-.32-.28-.8-.24-1.55.13-2,1-5.78,4.13-5.67,7.36a22.62,22.62,0,0,0,.46,3.72,13,13,0,0,1,.29,4.18,6.9,6.9,0,0,1-1.19,2.89,10.15,10.15,0,0,0-1.68,4.34,7.4,7.4,0,0,0,.53,4.24,7.31,7.31,0,0,1,.63,2.9,6.4,6.4,0,0,1-1.53,3.68,9.09,9.09,0,0,0-2,5.28,11.05,11.05,0,0,0,.61,4,4.9,4.9,0,0,1,.27,2.52,8.71,8.71,0,0,1-1.67,3.62,11,11,0,0,0-1.71,3.42,14.9,14.9,0,0,0-.15,4.91c.07.81.14,1.65.14,2.51a5.93,5.93,0,0,1-1,3,10.5,10.5,0,0,0-1.42,3.66c-.48,2.85.95,6.1,1.45,7.13a7.74,7.74,0,0,0,1-.28c-.43-.88-1.88-4.1-1.44-6.68a9.55,9.55,0,0,1,1.3-3.32,6.82,6.82,0,0,0,1.13-3.49c0-.92-.07-1.78-.14-2.61a13.62,13.62,0,0,1,.13-4.58,9.89,9.89,0,0,1,1.56-3.09,9.64,9.64,0,0,0,1.83-4.06,5.85,5.85,0,0,0-.31-3,10.29,10.29,0,0,1-.56-3.67,8.14,8.14,0,0,1,1.84-4.7,7.37,7.37,0,0,0,1.7-4.28,8.25,8.25,0,0,0-.7-3.26,6.36,6.36,0,0,1-.46-3.72,9.06,9.06,0,0,1,1.53-3.94,7.93,7.93,0,0,0,1.34-3.3,13.81,13.81,0,0,0-.31-4.49,23.84,23.84,0,0,1-.44-3.57c-.06-1.71,1.35-3.39,2.19-4.24a9.85,9.85,0,0,1,3.31-2.33l21.73,44S301,190,301,189.9Z"/><path class="cls-9" d="M300.83,193.67,279,150.4a.48.48,0,0,0-.3-.26.5.5,0,0,0-.4,0,6.78,6.78,0,0,0-3.33,4.89,11.37,11.37,0,0,0,.23,4.35,9.78,9.78,0,0,1,.25,3.24,8.58,8.58,0,0,1-1.13,3.08,12.64,12.64,0,0,0-1.55,4.5,6.31,6.31,0,0,0,.56,4A6.07,6.07,0,0,1,274,177a6.47,6.47,0,0,1-1.5,3.7,9.26,9.26,0,0,0-2,5.3,14.6,14.6,0,0,0,.52,4.12,6.35,6.35,0,0,1,.23,2.78,7.05,7.05,0,0,1-1.72,3.34,8.78,8.78,0,0,0-1.82,3.3,11.37,11.37,0,0,0,.08,4.66,17.15,17.15,0,0,1,.28,2.81,5.51,5.51,0,0,1-1,2.94,10.41,10.41,0,0,0-1.44,3.66A11.4,11.4,0,0,0,266.8,220a3,3,0,0,0,.91-.53,9.92,9.92,0,0,1-1.06-5.74,9.3,9.3,0,0,1,1.32-3.31,6.55,6.55,0,0,0,1.16-3.46,18.67,18.67,0,0,0-.3-3,10.53,10.53,0,0,1-.1-4.26,8.2,8.2,0,0,1,1.64-2.91,7.86,7.86,0,0,0,1.92-3.84,7.29,7.29,0,0,0-.25-3.17,13.37,13.37,0,0,1-.49-3.86,8.28,8.28,0,0,1,1.81-4.72A7.54,7.54,0,0,0,275,177a7.08,7.08,0,0,0-.73-3.15,5.24,5.24,0,0,1-.47-3.46,11.55,11.55,0,0,1,1.44-4.16,9.65,9.65,0,0,0,1.23-3.42,10.5,10.5,0,0,0-.26-3.58,10.54,10.54,0,0,1-.22-4,5.79,5.79,0,0,1,2.33-3.84l22.34,44.33Z"/></g><g id="Layer_11" data-name="Layer 11"><path class="cls-7" d="M113.26,174.45c4.58-.81,17.13,3.13,11.63,12.33L113.1,199.06l-19.54-2.44,16-20A6.39,6.39,0,0,1,113.26,174.45Z"/><path class="cls-3" d="M112.91,199.24l10.49-10.91a15.83,15.83,0,0,0-3.8-2.19,22.74,22.74,0,0,0-17.21-.56l-8.83,11Z"/><path class="cls-6" d="M99.48,187.83c0,.08-.06.17-.11.26l-.27.47a36.59,36.59,0,0,1,11.16-1c4.86.45,7,.88,10.78,3.22l1-1.07C114.78,186,107.41,185.85,99.48,187.83Z"/><path class="cls-6" d="M111.09,189.13a35.45,35.45,0,0,0-13,1.08c-.3.49-.61,1-.94,1.43,4-.88,8-1.87,12.3-1.66,4.76.22,6.13.5,9.59,2.84,0,0,.79-.79.79-.83C116.75,189.8,115.26,189.45,111.09,189.13Z"/><path class="cls-8" d="M105.79,194.2c5.09.2,16.93-.06,15.13,8.2s-7.59,8.89-16.87,8.26-13.92-1.26-13-8.26S97.14,193.86,105.79,194.2Z"/><path class="cls-6" d="M96.48,195.13l-3.2,13.54c.31.11.6.36,1,.48l3.37-14.37C97.48,194.81,96.48,195.13,96.48,195.13Z"/><path class="cls-6" d="M99.16,194.46l-2.7,15.35c.34.09.68.12,1,.2l2.74-15.69Z"/><path class="cls-6" d="M103,194.16l-3.34,16.13c.34.06.69.07,1,.11L104,194.16Z"/><path class="cls-6" d="M105.73,194.2l-2.19,16.42,1,.07,2.17-16.46Z"/><path class="cls-6" d="M109.7,194.35l-3,16.49c.35,0,.71,0,1.06,0l3-16.41C110.39,194.41,110.05,194.35,109.7,194.35Z"/><path class="cls-6" d="M113.76,194.78l-3,16c.36,0,.72-.05,1.08-.1l3-15.69S114.1,194.83,113.76,194.78Z"/><path class="cls-6" d="M117.3,195.76l-1.75,14.07c.37-.12.77-.49,1.13-.65l1.61-12.94Z"/><path class="cls-10" d="M113.1,181.88l-12.55,12.45s-4.82.15-7.27,2.78c3.18-4.11,11.87-15,11.87-15Z"/><path class="cls-6" d="M74.29,160.58,73.35,169l32.56.79L59.82,198.06H49.75c-7.68.75-21.37-16.08-5.19-37.48C45,160.57,74.29,160.58,74.29,160.58Z"/><path class="cls-7" d="M74,135.8s15.59,13.53,21.06,22.8c5-5.57,15.32-14.45,21.21-16.36A55.34,55.34,0,0,1,120.2,147s-16.1,20-23,25.15c-5.62-1-22.09-10.84-26.77-19.76C70.39,151.77,74,135.8,74,135.8Z"/><path class="cls-8" d="M85.6,147l-12.12,8.58L72.87,135A66.84,66.84,0,0,1,85.6,147Z"/><path class="cls-10" d="M77.08,143s1,11.23.72,17.93c-.75-.52-4.09-3.91-4.09-3.91Z"/><polygon class="cls-7" points="55.84 120.25 54.23 130.79 57.56 141.52 69.75 140.73 70.99 118.64 55.84 120.25"/><polygon class="cls-10" points="70.7 123.78 54.74 127.47 56 119.42 71 117.49 70.7 123.78"/><path class="cls-8" d="M73.14,130.92c1.35,2.25,8.36,14.21,1.15,29.66-6.17.08-29.73,0-29.73,0s-.4-21.75,9.67-29.79C55.84,130.66,73.14,130.92,73.14,130.92Z"/><path class="cls-7" d="M70.41,127.69s-14.57,3-16.18,3.1c0,0,5.72,6.57,18.91.13h0A13.47,13.47,0,0,0,70.41,127.69Z"/><path class="cls-7" d="M64.49,148.75l-19,2s-4.35,21.59,1.83,33.49c6.21.39,28.93-1.32,35.71-4.07l.1-5c-8-2.14-13.87-3.73-25.35-2.83C58.91,169,62.91,156.85,64.49,148.75Z"/><path class="cls-7" d="M83.05,180.15l-.41-5s9.23.16,9.77,3.49S88.87,183,88.87,183"/><polygon class="cls-10" points="64.14 150.55 63.69 160.61 61.35 161.02 64.14 150.55"/><path class="cls-7" d="M45.64,201.85s51.21-29.59,55-32,10.07-1.32,13.23,2.95,1.42,7.86-1.51,9.89-47.6,30.74-47.6,30.74a8.69,8.69,0,0,0-.4,3.66c.26,1.88,1.66,5.1-2.45,7.44a3.94,3.94,0,0,1-5.9-1.67L44.56,205.09A2.38,2.38,0,0,1,45.64,201.85Z"/><path class="cls-3" d="M77,195.61A40.92,40.92,0,0,0,72.76,189c-.66-1-1.11-1.44-1.46-2l-17,9.87a49.61,49.61,0,0,0,5,9.48c1,1.37,5.12,5.08,5.82,6.86l15.75-10.13C79.43,200.17,78.41,198.45,77,195.61Z"/><path class="cls-6" d="M67.55,189.17c-.1.07-.31.17-.41.24,1.55,2.84,3.36,5.11,4.88,7.93s3,5.52,4.83,8.29c.37-.23.73-.5,1.11-.71C74.55,199.3,70.89,194.79,67.55,189.17Z"/><path class="cls-6" d="M71.49,199a94,94,0,0,1-6.13-8.55c-.14.09-.19.08-.33.17l-.18.12a33.31,33.31,0,0,0,4.44,6.87,93.74,93.74,0,0,1,6.08,9c.14-.13.35-.18.5-.3A60.13,60.13,0,0,0,71.49,199Z"/><path class="cls-6" d="M44.56,205.09,56,222.84a3.94,3.94,0,0,0,5.9,1.67c4.11-2.34,2.71-5.56,2.45-7.44a8.69,8.69,0,0,1,.4-3.66l1.78-1.14-10.9-16.2-10,5.78A2.38,2.38,0,0,0,44.56,205.09Z"/><path class="cls-8" d="M44.56,205.09,56,222.84a3.92,3.92,0,0,0,5.57,1.84c2.4-2.21.66-3.82-5.76-14.7-4.17-7.08-6-9.47-8.35-9.19l-1.82,1.06A2.38,2.38,0,0,0,44.56,205.09Z"/><path class="cls-6" d="M49.85,201l-5.5,3.42a2.61,2.61,0,0,0,.43,1l5.79-3.61A5.24,5.24,0,0,0,49.85,201Z"/><path class="cls-6" d="M51.46,203.17l-.12-.19-5.71,3.75.57.88L52,203.82C51.79,203.6,51.61,203.4,51.46,203.17Z"/><path class="cls-6" d="M53.29,205.39l-.14-.16-5.8,4.19c.17.3.4.57.56.87l5.89-4.24A8.27,8.27,0,0,0,53.29,205.39Z"/><path class="cls-6" d="M55.21,208.57a1.58,1.58,0,0,1-.21-.38L49,212c.09.17.48.74.56.88l6-3.8Z"/><path class="cls-6" d="M56.39,210.43l-5.31,4.77c.19.29.37.6.57.89l5.21-4.68Z"/><path class="cls-6" d="M58.05,213.61l-5.6,3.73c.2.28.36.59.57.87l5.55-3.69C58.39,214.22,58.22,213.92,58.05,213.61Z"/><path class="cls-6" d="M59.91,216.65l-5.49,3.74c.2.28.36.59.56.87l5.56-3.78C60.32,217.22,60.11,216.94,59.91,216.65Z"/><path class="cls-6" d="M61.66,219.54l-5.61,3.38a3.64,3.64,0,0,0,.57.87l5.49-3.3A7.53,7.53,0,0,1,61.66,219.54Z"/><path class="cls-3" d="M64.32,215.6a21.76,21.76,0,0,0-3-1.88.1.1,0,0,0-.15.11c.31.78,1.33,1.16,2,1.64.42.33.76.6,1.14.95A4.21,4.21,0,0,0,64.32,215.6Z"/><path class="cls-3" d="M64.57,214a10.66,10.66,0,0,0-1-.81A3.92,3.92,0,0,0,61.53,212a.11.11,0,0,0-.14.14c.09.3.21.32.51.47a5.33,5.33,0,0,1,1.19.92c.32.29.67.55,1,.86l.34.37C64.47,214.61,64.55,214.05,64.57,214Z"/><path class="cls-3" d="M64.88,213.33a5.62,5.62,0,0,0,.65-.42,1.16,1.16,0,0,0-.3-.39,6.54,6.54,0,0,0-2.63-2.1.14.14,0,0,0-.14.24c.71.77,1.41,1.55,2.15,2.3C64.81,213.17,64.71,213,64.88,213.33Z"/><path class="cls-10" d="M89.71,176.29l-6.66,3.86-3.78,1.18S86.15,175.16,89.71,176.29Z"/><path class="cls-7" d="M115.76,142.66a4.44,4.44,0,0,1,3.62-3.85c3.27-.52,5.83-.11,7.36,1s3.5,2.64,3,3.74-2.31,4.6-3.37,5.29a4,4,0,0,1-3.47.89c-1.62-.32-3.6-.56-4-2.54S115.76,142.66,115.76,142.66Z"/><path class="cls-11" d="M127.53,140.35a3.49,3.49,0,0,0,.16-1.45.52.52,0,0,0-1,.11,2.45,2.45,0,0,1,0,.69l.12.08C127,140,127.26,140.15,127.53,140.35Z"/><path class="cls-8" d="M123.92,143.2c-.25-.08-.48-.14-.65-.18-.39-.11-.53-.24-.55-.3s0,0,0,0q.38,0,.78,0a5.17,5.17,0,0,0,2-.34,3.4,3.4,0,0,0,2-2c-.27-.2-.54-.4-.79-.57l-.12-.08a2.3,2.3,0,0,1-1.5,1.73c-1.54.64-4.27-.1-4.3-.11a.52.52,0,0,0-.27,1s.49.13,1.13.24a1.15,1.15,0,0,0,0,.48,1,1,0,0,0,.08.14l-.14.09a1.74,1.74,0,0,0-.67,1.66,1.64,1.64,0,0,0,.14.32,1.47,1.47,0,0,0-.17,2.33c.57.52,3.08,1.13,4.94,1.53l.48-.31a2.77,2.77,0,0,0,.57-.54,24.43,24.43,0,0,1-5.28-1.45.43.43,0,0,1-.13-.51c.09-.19.37-.36.89-.31a19.78,19.78,0,0,0,5.25,1.28c.21-.32.43-.66.63-1a16.81,16.81,0,0,1-5.56-1.25l-.25-.09c-.28,0-.47-.14-.5-.24a.78.78,0,0,1,.33-.6c.17-.15.33-.18.38-.15h0a2.65,2.65,0,0,0,.3.11l.62.17a19.26,19.26,0,0,0,4.83.92l.51,0c.23-.44.44-.84.59-1.17C128.22,144.42,125.2,143.56,123.92,143.2Z"/><path class="cls-9" d="M169.24,128.48c-1,.14-2,.3-3,.53-.56.13-.32,1,.25.87,1-.22,1.92-.59,2.87-.89A.26.26,0,0,0,169.24,128.48Z"/><path class="cls-2" d="M167.07,128.71a3,3,0,0,0-3.44-1.92c-1.43,0-3.21.56-3.87,1.66a3.19,3.19,0,0,0-.41,1.63,1.83,1.83,0,0,0,.09.87,4,4,0,0,0,.94,1.92c1.19,1.24,3.18.62,4.57.08C166.84,132.22,167.78,130.7,167.07,128.71Z"/><path class="cls-9" d="M160.4,130.63c0-.06,0-.12,0-.17a61.72,61.72,0,0,0-7.49,1.65c-1.95.43-3.89.91-5.8,1.4l-.19.05c-.64.16-1.27.33-1.9.53-.88.25-1.75.51-2.62.79-.66.21-1.31.39-1.92.64-1.41.39-2.82.77-4.19,1.27a77.7,77.7,0,0,0-8.74,3.56,3.8,3.8,0,0,1-2,2.06c.85.08,8.22-2.52,11.49-3.93,1.85-.79,3.79-1.3,5.65-2,.72-.29,1.43-.61,2.13-.93,1.25-.43,2.5-.85,3.77-1.15,3-.73,9.34-1.77,12-3.42A2.71,2.71,0,0,1,160.4,130.63Z"/></g><g id="Layer_11_copy" data-name="Layer 11 copy"><path class="cls-8" d="M83,104.17a27.4,27.4,0,0,1-4.59-6.47c-.17-.3-.58-.06-.57.22a18.39,18.39,0,0,0,.44,4.62l.16.46a1.64,1.64,0,0,0-.56,2.18,13.36,13.36,0,0,0,4.35,5.3c1.71,1.14,4.24.71,4.34-1.71C86.6,106.65,84.3,105.39,83,104.17Z"/><path class="cls-7" d="M77.9,93.38a1.54,1.54,0,0,0-.77-.33,16.87,16.87,0,0,0-1.88-.2,17.24,17.24,0,0,0-5.32-.35,72.38,72.38,0,0,0-9.48,1.36A26.31,26.31,0,0,0,55.84,95a8.13,8.13,0,0,0-1.92.75,1.56,1.56,0,0,0-.65.68c-2.85,2.13-2.43,7.1-2.26,10.55a53.34,53.34,0,0,0,.83,8.37c.47,2.24,1.12,5.47,3.16,6.82a4.15,4.15,0,0,0,1,.48,5.75,5.75,0,0,0,1.81.53,15.5,15.5,0,0,0,5.93-.38c2-.2,4-.57,5.94-.81a37.15,37.15,0,0,0,8.51-2,6.77,6.77,0,0,0,4.7-5.26,12.52,12.52,0,0,0-.27-4.52c.32-3.21-.55-6.73-1.22-9.7C80.94,98.25,80.17,94.53,77.9,93.38Z"/><path class="cls-6" d="M51,105.83c1.17-.32,2.31-.79,3.38-1.18a43.33,43.33,0,0,0,7.89-3.78c3.73-2.29,8.6-4.71,11.55-8.29a19.65,19.65,0,0,0-3.84-.08,72.38,72.38,0,0,0-9.48,1.36A26.31,26.31,0,0,0,55.84,95a8.13,8.13,0,0,0-1.92.75,1.56,1.56,0,0,0-.65.68C50.72,98.33,50.79,102.5,51,105.83Z"/><path class="cls-6" d="M50.67,102a2.86,2.86,0,0,0-4.27,0,4.21,4.21,0,0,0-1.1,3.07,3,3,0,0,0,.68,2.13,2.72,2.72,0,0,0,3.67.54,4,4,0,0,0,1.26-1.64,2.89,2.89,0,0,0,.39-1.33A3.53,3.53,0,0,0,50.67,102Z"/><path class="cls-6" d="M47,106a2.84,2.84,0,0,0-.66.08c-5.61,0-10.3,5.13-14.08,8.7a60.05,60.05,0,0,0-6.71,7.45c-1.7,2.24-3.66,5-4.34,7.74a.38.38,0,0,0,0,.15,1.16,1.16,0,0,0-.16.21.48.48,0,0,0,.3.76c2.69.27,5.77-1.46,8.12-2.56A41.11,41.11,0,0,0,38.33,123c2.54-2.11,5.45-4.42,7.27-7.2a18.71,18.71,0,0,0,2.67-6.64,4.31,4.31,0,0,0,.42-.83A1.72,1.72,0,0,0,47,106Z"/><path class="cls-6" d="M62.25,107.45a8,8,0,0,1,.19,1.61,3.34,3.34,0,0,0,.15,1.34.3.3,0,0,0,.58-.06,4.7,4.7,0,0,0-.15-1.62,4.28,4.28,0,0,0-.49-1.42C62.43,107.14,62.21,107.3,62.25,107.45Z"/><path class="cls-6" d="M64.7,108.31a10,10,0,0,1,.22,1.73c0,.29,0,1,.5.86s.31-.91.27-1.25a2.67,2.67,0,0,0-.59-1.5C65,108,64.64,108.07,64.7,108.31Z"/><path class="cls-6" d="M67.82,108.5a.22.22,0,0,0-.36.26,3.56,3.56,0,0,1,.28,1.21c.05.34,0,.68.32.91a.3.3,0,0,0,.42,0c.25-.35.09-.79,0-1.18A2.75,2.75,0,0,0,67.82,108.5Z"/><path class="cls-6" d="M70.58,108.37c-.13-.11-.34.07-.22.21a3.81,3.81,0,0,1,.41.58,5.45,5.45,0,0,1,.21.65c.07.18.38.22.44,0a.84.84,0,0,0-.17-.8A3.17,3.17,0,0,0,70.58,108.37Z"/><path class="cls-6" d="M73.52,107.48a5.86,5.86,0,0,0-1-.74.09.09,0,0,0-.14.1,3.24,3.24,0,0,0,.42.83c.2.28.19.61.38.88a.31.31,0,0,0,.48,0A.84.84,0,0,0,73.52,107.48Z"/><path class="cls-6" d="M75,105.53a2,2,0,0,0-.76-.47.21.21,0,0,0-.25.32c.14.21.21.44.33.66s.16.48.43.59a.4.4,0,0,0,.52-.2A.87.87,0,0,0,75,105.53Z"/><path class="cls-6" d="M83.06,113.06c0-.12,0-.24,0-.37s0-.51,0-.77l-.14,0c-1.25.31-2,1.43-3.47,1.19a4.93,4.93,0,0,1-1.84-.82c-.33-.23-.47-.41-.87-.39a.13.13,0,0,0-.11.14c0,.56.63,1,1,1.32a3.59,3.59,0,0,0,1.94.87A4.61,4.61,0,0,0,83.06,113.06Z"/><path class="cls-6" d="M68.42,96.62c-2.77.67-6.07,1.41-7.93,3.74A.41.41,0,0,0,61,101c2.42-.81,4.64-2,7.11-2.74a19.17,19.17,0,0,1,2.78-.7,17.79,17.79,0,0,0,2.08-.05.38.38,0,0,0,.24-.39C72.79,95.39,69.49,96.37,68.42,96.62Z"/><path class="cls-3" d="M69.11,106.45a3,3,0,0,1-.5-1.89,4.1,4.1,0,0,1,0-.7,3.43,3.43,0,0,1,.77-1.74,4.63,4.63,0,0,1,2.12-2.2,3.8,3.8,0,0,0-1.15-.28,8.42,8.42,0,0,0-3.91.26c-2.51.76-5.64,2.9-6,5.68a.39.39,0,0,0,.19.37c2,3,4.88,3.76,8.37,3a12.14,12.14,0,0,0,1.5-.44A4.89,4.89,0,0,1,69.11,106.45Z"/><path class="cls-6" d="M73.29,106.83a5.89,5.89,0,0,0,1.94-3.11.88.88,0,0,0-.08-.75,6.65,6.65,0,0,0-3.3-2.9,1.87,1.87,0,0,0-.32-.15,4.63,4.63,0,0,0-2.12,2.2,3.43,3.43,0,0,0-.77,1.74,4.1,4.1,0,0,0,0,.7,3,3,0,0,0,.5,1.89,4.89,4.89,0,0,0,1.37,2A8.3,8.3,0,0,0,73.29,106.83Z"/></g><g id="Layer_3" data-name="Layer 3"><path class="cls-12" d="M180.06,219.45c-2.17,2.17-5.07,6.11-8.67,10.76s-7.79,11.12-11.87,14.51-12.05,14.83-14.21,18-4.08,6.19-3.56,9.49,6.72,1,12.11,2c6.53,1.22,4.69,6.63,7.32,4.25s9.17-12.54,12.06-15.72,10.26-11.86,10.26-11.86,3.05-3.67,6.77-8.18c5.74-7,13.09-15.94,13.22-16.46.35-1.41,2.6-5,3.06-6.73s.67-7.62-3.93-10.2c-3.41-1.9-9.52-1-14.11,2.58A103.26,103.26,0,0,0,180.06,219.45Z"/><path class="cls-13" d="M141.75,272.17c.53,3.29,1.05,7.7,6.27,9.33,5,1.58,10.44-1,13.16-3.1,3.49-5.23.93-12.36-4.36-14.71a38.19,38.19,0,0,0-5.79-1.12c-2.49-.23-4.44-.36-7.63,3.09A10,10,0,0,0,141.75,272.17Z"/><path class="cls-12" d="M117.58,242.86c2-.32,30.86-4,33-5.27s28.71-4.15,32.94-4.71,25-4.41,31-5.46,14.68-.79,16.28,6.3c.95,4.27-1.41,12.56-5.94,13.56-7.06,1.55-21.95,2.86-33.35,4.65s-47.29,6.68-55.59,9.67a74.39,74.39,0,0,1-18.4,4,10.13,10.13,0,0,1-10.9-9.1C105.45,248.28,113,243.57,117.58,242.86Z"/><path class="cls-4" d="M143.9,244.62s6.08,1.44,3.26,14.34l.87-.16,7.45-9.62Z"/><path class="cls-12" d="M129.31,217.06c2.93.86,44.83,16.39,48.75,18.31s30.83,12,33.1,12.9,13.47,5.5,16.63,7-.23,4.87-3.92,11.72-2.24,10.13-6.86,7.71c-3-1.6-34.88-15.72-36.95-16.48s-20.14-8-23.55-9S128.19,238.31,125,237.59s-6.41-3.17-6.48-3.52-6.21-5.26-3.41-12.28S125.59,216,129.31,217.06Z"/><path class="cls-13" d="M227.2,255c-4.28-1.93-9,.1-12.13,3.28a10.17,10.17,0,0,0-1.61,12.35c0,.1.11.19.17.29a7.71,7.71,0,0,0,.6,1.18c2.29,3.62,6.87,4.45,10.7,3.08C233.58,272.13,236.61,259.27,227.2,255Z"/><g class="cls-14"><path class="cls-13" d="M170.68,131.46c.54,2.81-.34,2.81.89,6.14s1.8,3.51,1.51,6.49-.32,4.26,0,5.63a47.15,47.15,0,0,1,1.82,7.47c.53,3.91-.52,4.44.88,6.72a49.05,49.05,0,0,1,3,5c1.18,2.73,1.93,8.81,3.45,11.35.72,1.2,3.5,2.63,4,3.95.76,2.14-.72,6.78-.75,9a110.2,110.2,0,0,0,.75,15c.28,1.71,1.31,5,1.77,6.72a12.72,12.72,0,0,1,0,7.51c-.94,3.84-1,5.23-1.77,6.82-1.09,2.3-3.21,4.59-7.42,6.95s-8.66,4.64-11.84,4.67c-3.73,0-11-3.17-14.15-4.67s-4.88-3.26-5.05-6.42-.7-4-.53-8.6.74-5.23,1.37-6.86c1.27-3.3,2.94-11,4.21-13.48s-.1-1.88.32-5.79,1-4.26,3.42-8.27,2.35-5.93,3-9.62-1.8-3.53.12-6,3.27-9.74,4.47-15,.6-5,2.45-9.35,1-4.73,1.33-7.31S170.68,131.46,170.68,131.46Z"/></g><g class="cls-14"><path class="cls-13" d="M186.18,162.33c1.35,5.26.67,4.87,2.33,11.18s2.44,6.32,3,9.61.26,4.73,2.37,9.07,3.55,2,3,6.84-1.31,6.84.13,10.92,3.26,4.61,1.63,7.76.47,4.54-2.62,6.61-7.88,9.17-9.83,8.52-5.88-.53-7.46-1.58-4.43-5.92-5.64-7.63-2.09-2.37-1.51-6a25.08,25.08,0,0,0,0-7.76c-.22-1.84,0-3.16,1.51-5.66s2.88-3.15,2.74-5.65-.92-3.42.4-6.32,6.25-13.72,6.18-16.7-.55-5.28,1-7.51A32.14,32.14,0,0,0,186.18,162.33Z"/></g><g class="cls-14"><path class="cls-13" d="M147.16,195.35c.91,5.92.55,3.08,1.4,5.13s2.41,9.74,2.41,9.74,1.44,5.26,3.15,7.62,2.1,2.11,2,5.79-.92,4.21-.26,6.84.69,1.82.68,5.05.44,3.06-1,5.45-2.24,3.61-3.32,3.84-2.37-.66-4.34-.13-2.75,1.37-4.48.92-1.9-1.23-3-3.36a49.5,49.5,0,0,0-2.82-4.72c-1.43-2.37-1.18-3.36-.13-6.78s.79-4.21,1.45-6.45,1.58-2.58,2.24-4.84a63.55,63.55,0,0,0,2.38-10.2,19.15,19.15,0,0,1,1.83-7.06A42.55,42.55,0,0,0,147.16,195.35Z"/></g><g class="cls-14"><path class="cls-13" d="M166.92,193.08c-1.62,4.77-3.33,12.4-5.7,17.79s-3.29,4.6-4.07,9.67-4.42,12.07-4.24,17.92-1.38,6.42.18,9.81,2.88,3.4,6.43,5,7.73,2.18,11.16,0,5.74-.14,6.37-5-.32-3.43,0-7.32,1.8-3,1-5.58-2.89-7.86-3.29-11.05.66-6.74-.26-8.91-4.21-10.33-5.13-13.61a63.27,63.27,0,0,1-1.55-6.45A7.46,7.46,0,0,0,166.92,193.08Z"/></g><g class="cls-14"><path class="cls-13" d="M205.54,215.74c1.91,6.26,1.31,6.81,2.7,13.27s5.34,7.83,3.23,14.35-.88,11.76-2.74,12.43-9.36,1.48-11.2-1-.69-8.84,1.1-13.79,3.09-7.74,3.07-12.58S205.54,215.74,205.54,215.74Z"/></g><path class="cls-13" d="M112.68,244.11c-7.33,3.42-10.63,15-2.89,20a8.58,8.58,0,0,0,4.85,1.32c5.52,1,11.84-2.15,12.79-8.22C128.7,249.07,121,240.23,112.68,244.11Z"/><path class="cls-8" d="M221.84,274.08a6.73,6.73,0,0,1-3-.68c-2.39-1.16-3.9-3.7-4.23-7.13a8.57,8.57,0,0,1,3.19-7.8,8.57,8.57,0,0,1,7.36-1.93,8.29,8.29,0,0,1,5.31,4.14c1.66,3.34.15,6.67-.35,7.76a9.25,9.25,0,0,1-3.45,4.16A9.59,9.59,0,0,1,221.84,274.08Zm1.61-17.34a8.76,8.76,0,0,0-5.36,2,8.45,8.45,0,0,0-2.1,2.48h0a8.48,8.48,0,0,0-.94,5c.32,3.29,1.74,5.71,4,6.82,3.34,1.63,6.78-.37,7.44-.78a8.94,8.94,0,0,0,3.3-4c.53-1.16,1.93-4.25.35-7.42a7.86,7.86,0,0,0-5-3.93A7.49,7.49,0,0,0,223.45,256.74Z"/><path class="cls-8" d="M221.77,271.83a5.19,5.19,0,0,1-3.18-1,6.17,6.17,0,0,1-2.18-4.57,7.18,7.18,0,0,1,1.62-5.41,7.4,7.4,0,0,1,4.28-2.3h0a8,8,0,0,1,2.39-.09,5.54,5.54,0,0,1,3.13,1.14,5.72,5.72,0,0,1,1.6,4,8.13,8.13,0,0,1-.31,2.88,6.93,6.93,0,0,1-1.67,3.19,6.84,6.84,0,0,1-3.48,1.82A10.49,10.49,0,0,1,221.77,271.83Zm.58-13.07,0,.19a6.94,6.94,0,0,0-4.06,2.17,6.83,6.83,0,0,0-1.53,5.12,5.82,5.82,0,0,0,2,4.28c1.82,1.36,4.08.85,5,.63a6.35,6.35,0,0,0,3.28-1.7,6.62,6.62,0,0,0,1.57-3,7.46,7.46,0,0,0,.3-2.74,5.23,5.23,0,0,0-1.46-3.77,5.18,5.18,0,0,0-2.92-1,7.47,7.47,0,0,0-2.26.08Z"/><path class="cls-8" d="M222.31,269.87a4.11,4.11,0,0,1-3.27-1.3,4.26,4.26,0,0,1-.88-2.7,4.93,4.93,0,0,1,.83-3.2,5.1,5.1,0,0,1,2.5-1.78,6.44,6.44,0,0,1,1.81-.36,4.23,4.23,0,0,1,3.31.85,3.65,3.65,0,0,1,.89,2,5.91,5.91,0,0,1-.05,2.63,4.67,4.67,0,0,1-1,2.32,4.44,4.44,0,0,1-2.34,1.34A7.72,7.72,0,0,1,222.31,269.87Zm1.7-9-.69,0a5.7,5.7,0,0,0-1.69.34h0a4.63,4.63,0,0,0-2.32,1.63,4.53,4.53,0,0,0-.75,3,4,4,0,0,0,.78,2.47c1.46,1.73,4.34,1,4.67.94a4,4,0,0,0,2.13-1.21,4.29,4.29,0,0,0,.92-2.14,5.53,5.53,0,0,0,.05-2.46,3.25,3.25,0,0,0-.78-1.79A3.16,3.16,0,0,0,224,260.91Z"/><path class="cls-8" d="M222.34,267.81a2.07,2.07,0,0,1-1.59-.63,2.62,2.62,0,0,1-.16-2.63,2.75,2.75,0,0,1,1.56-1.51,2.64,2.64,0,0,1,1.95,0,2.23,2.23,0,0,1,1.24,1.25,2.59,2.59,0,0,1-.56,2.44,2.85,2.85,0,0,1-1.46.89A3.8,3.8,0,0,1,222.34,267.81Zm.74-4.54a2.19,2.19,0,0,0-.79.15h0a2.37,2.37,0,0,0-1.34,1.29,1.76,1.76,0,0,0,2.27,2.58,2.47,2.47,0,0,0,1.26-.77,2.21,2.21,0,0,0,.49-2,1.86,1.86,0,0,0-1-1A2.1,2.1,0,0,0,223.08,263.27Z"/><path class="cls-8" d="M222.84,266.13a.83.83,0,0,1-.22,0,.73.73,0,0,1-.49-.36.77.77,0,0,1,0-.63.89.89,0,0,1,.49-.53h0a.87.87,0,0,1,.67,0,.77.77,0,0,1,.42.41.87.87,0,0,1-.83,1.14Zm.07-1.22a.58.58,0,0,0-.18,0h0a.51.51,0,0,0-.27.29.36.36,0,0,0,0,.3.34.34,0,0,0,.24.17.51.51,0,0,0,.4-.06.43.43,0,0,0,.18-.5.35.35,0,0,0-.2-.2A.65.65,0,0,0,222.91,264.91Z"/><path class="cls-8" d="M151.05,280.22a7.24,7.24,0,0,1-1.62-.18,7.82,7.82,0,0,1-4.54-2.79,8.57,8.57,0,0,1-1.67-5.15,8,8,0,0,1,.27-2.83,7.51,7.51,0,0,1,1.58-2.88h0a7.47,7.47,0,0,1,2.25-1.76,8.21,8.21,0,0,1,5-.46c2,.28,4.06.57,5.89,2.2s3.57,5,2.65,8.05a7.34,7.34,0,0,1-2.61,3.66,9.68,9.68,0,0,1-4.2,1.7A13.94,13.94,0,0,1,151.05,280.22Zm-5.68-13.57a7.16,7.16,0,0,0-1.5,2.73,7.64,7.64,0,0,0-.25,2.7A8.21,8.21,0,0,0,145.2,277a7.49,7.49,0,0,0,4.32,2.64,9.47,9.47,0,0,0,4.47-.26,9.12,9.12,0,0,0,4-1.63,7,7,0,0,0,2.48-3.45c.87-2.93-.7-6-2.53-7.64s-3.66-1.82-5.68-2.1a7.79,7.79,0,0,0-4.8.42,7,7,0,0,0-2.13,1.66Z"/><path class="cls-8" d="M151.05,278.08A5.3,5.3,0,0,1,147.5,277c-1.71-1.42-1.82-3.69-1.91-5.36a5.79,5.79,0,0,1,.69-3.66A5.14,5.14,0,0,1,148.6,266a7.59,7.59,0,0,1,5.72.12,6.85,6.85,0,0,1,3.69,2.53,6.08,6.08,0,0,1,.91,4.63,6,6,0,0,1-2.13,3.32,7,7,0,0,1-4,1.35C152.2,278,151.63,278.08,151.05,278.08Zm.07-12.18a5.78,5.78,0,0,0-2.36.49h0a4.8,4.8,0,0,0-2.15,1.77,5.4,5.4,0,0,0-.62,3.43c.08,1.68.19,3.77,1.77,5.08s3.39,1.05,4.94.92a6.64,6.64,0,0,0,3.84-1.28,5.48,5.48,0,0,0,2-3.08,5.65,5.65,0,0,0-.85-4.32,6.45,6.45,0,0,0-3.5-2.38A8.92,8.92,0,0,0,151.12,265.9Z"/><path class="cls-8" d="M150.93,276.41a2.76,2.76,0,0,1-1.47-.34,4.35,4.35,0,0,1-1.81-3.07,4.64,4.64,0,0,1,.33-3.29,4.38,4.38,0,0,1,2.84-2.07h0a5.13,5.13,0,0,1,5.12,1.6,4.89,4.89,0,0,1,1.14,3.16,3.91,3.91,0,0,1-1.16,3c-.71.63-1.54.72-3.18.88C152,276.35,151.41,276.41,150.93,276.41Zm-.05-8.58,0,.2a4,4,0,0,0-2.59,1.87,4.23,4.23,0,0,0-.29,3,4,4,0,0,0,1.62,2.81c.68.39,1.47.31,3,.15s2.34-.24,3-.79a3.47,3.47,0,0,0,1-2.7,4.42,4.42,0,0,0-1.05-2.89,4.68,4.68,0,0,0-4.7-1.47Z"/><path class="cls-8" d="M152.29,275a2.68,2.68,0,0,1-1.29-.32,3.08,3.08,0,0,1-.09-5.13h0a2.65,2.65,0,0,1,2.14-.1,3.11,3.11,0,0,1,1.75,2.25,2.71,2.71,0,0,1-.44,2.36A2.65,2.65,0,0,1,152.29,275Zm-.23-5.33a2.08,2.08,0,0,0-1,.23h0a2.68,2.68,0,0,0,.09,4.43,2.19,2.19,0,0,0,3.22-2.54,2.67,2.67,0,0,0-1.5-2A2.47,2.47,0,0,0,152.06,269.66Z"/><path class="cls-8" d="M152.34,273.17a1,1,0,0,1-.72-.32.81.81,0,0,1,.55-1.44h0a1,1,0,0,1,1.05.62.87.87,0,0,1-.11.68,1,1,0,0,1-.62.45Zm-.07-1.37h-.06a.55.55,0,0,0-.48.33.51.51,0,0,0,.18.44.59.59,0,0,0,.5.2.59.59,0,0,0,.36-.27.45.45,0,0,0,.06-.36A.56.56,0,0,0,152.27,271.8Z"/><path class="cls-8" d="M115.48,263.86a7.59,7.59,0,0,1-2.92-.58,8.42,8.42,0,0,1-4.85-5.71,9.29,9.29,0,0,1,0-3.44,10.22,10.22,0,0,1,1.34-4.07,9.79,9.79,0,0,1,2.78-2.95,8.68,8.68,0,0,1,4-1.84h0a8.29,8.29,0,0,1,6.21,2c1.52,1.28,3.29,3.77,3.09,8.31a8,8,0,0,1-1.8,5.3,7.79,7.79,0,0,1-3.5,2.07A12.57,12.57,0,0,1,115.48,263.86Zm.34-18.19a8.25,8.25,0,0,0-3.81,1.76,9.49,9.49,0,0,0-2.66,2.83,9.59,9.59,0,0,0-1.29,3.92,8.72,8.72,0,0,0,0,3.3,8,8,0,0,0,4.62,5.43c2.73,1.14,5.25.24,6.91-.35a7.5,7.5,0,0,0,3.34-2,7.66,7.66,0,0,0,1.7-5.05c.16-3.52-.84-6.21-3-8a7.89,7.89,0,0,0-5.9-1.88Z"/><path class="cls-8" d="M116.29,261.64h-.42a6.24,6.24,0,0,1-4.52-2,6.39,6.39,0,0,1-1.32-4,7.14,7.14,0,0,1,.9-4.37,6.84,6.84,0,0,1,3.57-2.89h0c.15,0,3.57-1.17,6.07.91,1.58,1.32,1.87,3.12,2.18,5a6.28,6.28,0,0,1-.19,3.67,5.86,5.86,0,0,1-2.45,2.59A7.36,7.36,0,0,1,116.29,261.64Zm-1.66-12.91a6.41,6.41,0,0,0-3.36,2.72,6.79,6.79,0,0,0-.84,4.14,6,6,0,0,0,1.22,3.78,5.86,5.86,0,0,0,4.25,1.86,6.82,6.82,0,0,0,4-1,5.35,5.35,0,0,0,2.29-2.41,5.73,5.73,0,0,0,.16-3.44c-.29-1.84-.57-3.57-2-4.79-2.34-1.95-5.55-.89-5.69-.84Z"/><path class="cls-8" d="M116.39,259.78a4.66,4.66,0,0,1-4.56-6.12,5.3,5.3,0,0,1,2-2.87,4.5,4.5,0,0,1,2.84-1h0a4.45,4.45,0,0,1,3.18,1.61c.61.82.67,1.84.78,3.88a4.84,4.84,0,0,1-.15,2.29,3.88,3.88,0,0,1-2.94,2A5.08,5.08,0,0,1,116.39,259.78Zm.14-9.55a4.17,4.17,0,0,0-2.46.88,4.86,4.86,0,0,0-1.85,2.66,4.21,4.21,0,0,0,1.8,5,4.63,4.63,0,0,0,3.44.54,3.5,3.5,0,0,0,2.67-1.81,4.62,4.62,0,0,0,.11-2.1c-.11-2-.16-2.95-.7-3.67a4,4,0,0,0-2.87-1.45Z"/><path class="cls-8" d="M116.53,258a2.85,2.85,0,0,1-.64-.06,3.15,3.15,0,0,1-2.39-2,3.09,3.09,0,0,1,.93-2.91,2.87,2.87,0,0,1,2.44-1h0a3.21,3.21,0,0,1,2,4.93A2.93,2.93,0,0,1,116.53,258Zm.07-5.59a2.6,2.6,0,0,0-1.89.92,2.36,2.36,0,0,0,1.26,4.22,2.76,2.76,0,0,0,2.61-.85,2.69,2.69,0,0,0,.27-2.52,2.77,2.77,0,0,0-2-1.76h-.23Z"/><path class="cls-8" d="M116.51,256.33a1.56,1.56,0,0,1-.57-.11,1.4,1.4,0,0,1-.86-1.65,1.35,1.35,0,0,1,1.55-.83h0a1.41,1.41,0,0,1,.87.7,1.37,1.37,0,0,1,.23,1.19,1.09,1.09,0,0,1-.61.58A1.58,1.58,0,0,1,116.51,256.33Zm-.16-2.22a.94.94,0,0,0-.89.59,1,1,0,0,0,.63,1.15,1.14,1.14,0,0,0,.87,0,.74.74,0,0,0,.41-.36,1.35,1.35,0,0,0-.83-1.35h0A.58.58,0,0,0,116.35,254.11Z"/><path class="cls-4" d="M186,260.85l-8.18-3.43,11.59-13.78S181.84,251.09,186,260.85Z"/><g class="cls-15"><path class="cls-13" d="M165.87,230.32c-.54,1.59-1.11,4.13-1.9,5.93s-1.1,1.53-1.36,3.22-1.47,4-1.41,6-.46,2.14.06,3.27,1,1.14,2.14,1.68a3.84,3.84,0,0,0,3.72,0c1.15-.72,1.92,0,2.12-1.68s-.1-1.14,0-2.44.6-1,.34-1.86a27.63,27.63,0,0,1-1.1-3.68c-.13-1.06.22-2.24-.08-3s-1.41-3.44-1.71-4.54-.46-1.79-.52-2.14A2.34,2.34,0,0,0,165.87,230.32Z"/></g><g class="cls-14"><path class="cls-13" d="M204.79,238.12a42.69,42.69,0,0,1,1,5c.53,2.41,2,2.92,1.21,5.36s-.33,4.39-1,4.64-3.5.55-4.19-.39-.25-3.3.42-5.15a12.08,12.08,0,0,0,1.14-4.7A14.42,14.42,0,0,1,204.79,238.12Z"/></g><g class="cls-14"><path class="cls-13" d="M146.39,223.1c.31,2,.19,1.06.48,1.77s.81,3.37.81,3.37a10.87,10.87,0,0,0,1.07,2.63c.58.82.71.73.67,2s-.31,1.45-.09,2.36a4.25,4.25,0,0,1,.23,1.75c0,1.12.15,1-.35,1.88s-.76,1.25-1.13,1.33-.8-.23-1.47,0-.93.48-1.51.32-.65-.42-1-1.16a16.44,16.44,0,0,0-1-1.63c-.49-.82-.4-1.17,0-2.35s.26-1.45.49-2.23.53-.89.75-1.67a22.27,22.27,0,0,0,.81-3.53,6.71,6.71,0,0,1,.62-2.44A14.85,14.85,0,0,0,146.39,223.1Z"/></g><g class="cls-14"><path class="cls-13" d="M185.56,198.68c.51,2,.26,1.83.88,4.2s.92,2.37,1.12,3.61a8.57,8.57,0,0,0,.88,3.41c.79,1.63,1.34.74,1.14,2.57s-.49,2.56,0,4.1,1.22,1.72.61,2.91.18,1.7-1,2.48-3,3.44-3.7,3.2-2.2-.2-2.8-.59a16.25,16.25,0,0,1-2.11-2.87,2.27,2.27,0,0,1-.57-2.27,9.48,9.48,0,0,0,0-2.91,2.83,2.83,0,0,1,.57-2.13c.58-.94,1.08-1.18,1-2.12s-.35-1.29.15-2.37,2.34-5.16,2.32-6.28-.21-2,.36-2.82A11.12,11.12,0,0,0,185.56,198.68Z"/></g><g class="cls-14"><path class="cls-13" d="M169.48,195.78c.18.93-.11.93.29,2s.6,1.15.5,2.14a5.77,5.77,0,0,0,0,1.85,15.78,15.78,0,0,1,.6,2.47c.18,1.29-.17,1.46.29,2.21a16.14,16.14,0,0,1,1,1.66c.39.9.64,2.91,1.14,3.75.24.39,1.16.86,1.31,1.3.25.7-.24,2.23-.25,3a37,37,0,0,0,.25,4.94c.09.57.43,1.67.58,2.22a4.08,4.08,0,0,1,0,2.47,13.65,13.65,0,0,1-.58,2.26,5.47,5.47,0,0,1-2.45,2.29,10,10,0,0,1-3.9,1.54,15.1,15.1,0,0,1-4.67-1.54,2.39,2.39,0,0,1-1.66-2.12,19,19,0,0,1-.18-2.83,5.06,5.06,0,0,1,.45-2.27c.42-1.09,1-3.63,1.39-4.44s0-.62.11-1.91a4.93,4.93,0,0,1,1.12-2.73,7.19,7.19,0,0,0,1-3.17c.21-1.22-.6-1.17,0-2s1.08-3.21,1.47-4.95a12.34,12.34,0,0,1,.81-3.08,5.21,5.21,0,0,0,.44-2.41A15.89,15.89,0,0,1,169.48,195.78Z"/></g></g><g id="Layer_5" data-name="Layer 5"><path class="cls-6" d="M168.27,297.77c-.65-2.45-1-5-1.42-7.53-.3-1-.59-2-.84-3a3,3,0,0,0-.72-.23.32.32,0,0,0-.22-.12,9.59,9.59,0,0,0-1.78,0,3.39,3.39,0,0,0-.1-.52c-.06-.25-.11-.55-.18-.83l.5-.08a.7.7,0,0,0,.05-1.34,4.83,4.83,0,0,0-2.1.15.66.66,0,0,0,.07,1.29.6.6,0,0,0,.53.14l.14,0c.05.18.12.37.18.55a5.26,5.26,0,0,1,.21.75,24.45,24.45,0,0,0-3.54.89c0-.1-.06-.21-.08-.31a11.82,11.82,0,0,0-.29-1.25l.21-.07h0l.17-.06c.61-.26.37-1.38-.31-1.31a3.06,3.06,0,0,0-1.36.43.91.91,0,0,0-.34.42.58.58,0,0,0,.19.78.7.7,0,0,0,.56.19,8.83,8.83,0,0,0,.37,1.06c0,.11.06.24.1.36-.47.14-.94.28-1.42.4-.74.19-1.53.35-2.34.52a4.28,4.28,0,0,0-.21-1.37h.05a.56.56,0,0,0,.17-.09l.17-.06a.65.65,0,0,0,.32-.72.69.69,0,0,0-.61-.49,3.27,3.27,0,0,0-1.65.37.7.7,0,0,0-.28.93.68.68,0,0,0,.92.27l.08,0h0a5.74,5.74,0,0,1,.28,1.12l0,.25a19.17,19.17,0,0,0-2,.54l0,.15h0c0,.07,0,.15,0,.22l0,.11-.06.31c0,.05,0,.09,0,.13s0,.21-.05.31a.51.51,0,0,1,0,.13c0,.14,0,.29,0,.44s0,.05,0,.07h0c0,.13,0,.26,0,.39h0v.06a.68.68,0,0,1-.24.62c0,.12,0,.23.05.35l-.22,0c-1.45.2-2.88.53-4.31.85-2.68.59-5.37,1.11-8.06,1.65a3.2,3.2,0,0,0-1.29-.64,4.94,4.94,0,0,0-1.69-.34,6.91,6.91,0,0,0-2.07-.17,3.13,3.13,0,0,0-2.77,2.9c-4,1-7.91,2.07-11.88,3.07-2.53.64-5.1,1.14-7.58,2l-.44.15c-1.21-2.89-2.47-5.76-3.66-8.66-1.45-3.52-2.77-7.13-4.56-10.51a1,1,0,0,0-.38-1.22,63,63,0,0,0-18.13-7.4c.15-1.57.16-3.17.28-4.69.15-1.91.34-3.85.41-5.78,0-.07,0-.14,0-.21l.54,0a7.17,7.17,0,0,0,2.93-.47A9.35,9.35,0,0,0,91.9,262a.6.6,0,0,0,.32-.14,3.61,3.61,0,0,0,.76-.81.92.92,0,0,0,.86-.55A15.78,15.78,0,0,0,95,253.56a2.67,2.67,0,0,0,.76-.49,3,3,0,0,0,1.21-.71,1.34,1.34,0,0,0,.34-.71,41.47,41.47,0,0,1-2.26-5.23c-.26-.6-.49-1.21-.7-1.83a1.59,1.59,0,0,0-.13-.13,17.51,17.51,0,0,0-1.71-6.93q.83-.25,1.65-.54c.65-.2,1.29-.42,1.93-.67a.86.86,0,0,0,.23-.13l.83-.34c.62-.27.26-1.31-.35-1.2a.48.48,0,0,0-.18-.07,28.65,28.65,0,0,0-5.67-.39c.06-.12-.14-.4-.35-.65a7.85,7.85,0,0,0-2-2.49c-.08-.1-.17-.2-.24-.3l-.46-.6a18.9,18.9,0,0,0-2.07-2.8l-1-1.4a11.86,11.86,0,0,0-1-1.39.75.75,0,0,0-.39-.24l0,0a1.17,1.17,0,0,0-1.19-.94c-2.88,0-5.58,1.08-8.41,1.48s-6.09.61-8.82,1.64c-2.26.84-2.68,2.71-3.12,4.85-.51,2.54-1,5.08-1.4,7.63l-.53.1a5.16,5.16,0,0,0-3.4,1.43c0,.35,0,.71,0,1.07.12,1.41.19,2.82.23,4.24,0,.76.06,1.53.1,2.3a16.14,16.14,0,0,0,4.39-1.15c0,.21-.05.42-.06.63.17.33.33.68.48,1h0c.17.39.32.79.46,1.2,0,0,0,0,0,0,.11.32.21.65.3,1,.44,3.07.72,6.17,1.18,9.24.27,1.85.73,3.64,1.13,5.45.07.58.16,1.17.22,1.77,0,.19.11.38.16.57,0,.66.09,1.31.18,2a8.55,8.55,0,0,0,.58,1.75c0,.3.07.6.12.89-1,.45-2.06,1-3.15,1.35-2.44.86-4.86,1.66-7.25,2.63-1.91.79-3.87,1.46-5.7,2.43-1.22.65-2.9,1.52-3.22,3-1.87,2.08-3.16,5.21-4.29,7.56a70.43,70.43,0,0,0-3.6,8.94,82.13,82.13,0,0,0-2.38,10c-.64,3.48-.68,7-1.28,10.47a.75.75,0,0,0,1.19.78c1.46.39,2.94.69,4.42,1a38.6,38.6,0,0,0,1.36,7.68c-1.53.64-3,1.31-4.57,1.95a29.39,29.39,0,0,0-5.21,2.43c-3,2.05-3.15,5.71-3.08,9.08.08,3.89.86,8.29,3,11.6a1.43,1.43,0,0,0,.22.26c0,.05,0,.1.08.14a.48.48,0,0,0,.24.68l0,0a.63.63,0,0,0,.41.62,73.63,73.63,0,0,0,8.79,3.41c3.67,1.15,7.25,2.73,11.08,3.33a8.55,8.55,0,0,0,.87.09l0,0c.9.68,2.67-.11,3.73-.19,1.78-.13,3.57,0,5.35-.09,4.76-.16,9.51-.47,14.27-.63s9.27-.06,13.91-.23c3.19-.11,6.34-.3,9.5-.37a32,32,0,0,0,3.25,0c.66,0,1.33,0,2,0a1.4,1.4,0,0,0,1.14-.45,56.63,56.63,0,0,0,6.51-1.7,126.19,126.19,0,0,0,13.69-2l.77,0a1,1,0,0,0,1.19-.79,1.13,1.13,0,0,0,1-.51,32.15,32.15,0,0,0,5.45-12.51c.9-2.56,1.3-5.2.15-7.49a6.18,6.18,0,0,0-3.57-3,17.48,17.48,0,0,0-2.84-.79l-.47-.14c-3.22-1-6.4-2.09-9.66-2.94l-.26-.06c1.23-1.22,2.42-2.48,3.66-3.61,2.41-2.19,4.6-4.52,6.83-6.89l.56-.53q2.28-2.22,4.43-4.57c1-1,2-2,3-3,.76-.77,1.76-1.67,2.63-2.67l.84-.22c2.33-.68,5.36-2.4,5.22-5l3.13-.67a30.62,30.62,0,0,0,3.33-.84,4.89,4.89,0,0,0,.35.73v0s.05,0,.07.06l.09.08a.91.91,0,0,1,.11.16h0a1.42,1.42,0,0,0,.08.18h0c.06.14.14.28.21.42a.87.87,0,0,1,.23.2,1.45,1.45,0,0,0,.84.09l1.25-.26c0,.18.07.35.09.52s0,.37.05.55a.72.72,0,0,0-.33.39l-.16.06h0l-.16.05a.67.67,0,0,0,.3,1.24,4.48,4.48,0,0,0,1.71-.45.72.72,0,0,0-.13-1.31l-.29-.07c0-.23-.09-.46-.13-.67s-.08-.33-.13-.49c1.19-.26,2.38-.54,3.56-.85a3.1,3.1,0,0,0,.13.74c0,.06,0,.13,0,.19a1.2,1.2,0,0,0-.93,1,.63.63,0,0,0,.44.62.93.93,0,0,0,.83-.21,4.52,4.52,0,0,0,.8-.22l.07,0a.68.68,0,0,0,.23-.14.7.7,0,0,0,.14-.16.41.41,0,0,0,0-.63.56.56,0,0,0-.34-.28,1.6,1.6,0,0,0-.39-.05c-.06-.19-.11-.38-.16-.57a3.74,3.74,0,0,0-.12-.45c1.22-.34,2.43-.71,3.63-1.14,0,.17,0,.36.05.51s0,.44,0,.67l-.08.1-.25.11A.66.66,0,0,0,165,302l.52-.16a.91.91,0,0,0,.26-.13,3,3,0,0,0,.37-.11h.06a.51.51,0,0,0,.49-.4.58.58,0,0,0,0-.48.6.6,0,0,0-.7-.37l-.4.07,0,0a2.5,2.5,0,0,1,0-.29c0-.32-.08-.64-.13-1a.31.31,0,0,0-.05-.1,8.11,8.11,0,0,0,2.25-.83A3.11,3.11,0,0,0,168.27,297.77ZM47.85,283h0a1,1,0,0,0-.11.17Zm67.27,30.81c-.37-1.18-.74-2.35-1.13-3.51,3.31-.94,6.64-1.84,10-2.73-.73.4-1.46.81-2.17,1.24A44,44,0,0,0,115.12,313.78Zm23.17-8.86.05,0h-.07Zm3.75-.83.53-.22a1.22,1.22,0,0,0,.33,0,7.28,7.28,0,0,1-.89.32Z"/><path class="cls-6" d="M314.7,343.12h0v0c0-.36-.05-.72-.08-1.08,0-.08,0-.16,0-.24l-.06-.57c0-.12,0-.24-.05-.36s0-.33-.07-.5,0-.29-.07-.44,0-.29-.07-.43-.07-.37-.1-.55-.05-.22-.07-.33c-.06-.3-.13-.6-.2-.89-.79-3.19-2.43-5.32-4.34-7.91-.44-.6-.88-1.21-1.27-1.84-.44-.4-.88-.81-1.32-1.24a29.4,29.4,0,0,1-1.47-3.68,42.23,42.23,0,0,1-1.8-17.51c.32-2.88,1.09-5.63,1.62-8.46a53.59,53.59,0,0,0,.83-8.39c0-1.86.14-3.81,0-5.72-.54-1.74-1-3.5-1.36-5.28,0-.09-.05-.19-.08-.28a44.21,44.21,0,0,0-2.77-4.7c-.77-.43-1.46-.83-2-1.1l-1.15-.58c-2.06-.73-4.13-1.42-6.18-2.17a1,1,0,0,1-.25-.12,1.29,1.29,0,0,1-.93-1l0-.11,1.8-.18.67-.06.15.14.84-.13,1.73-.32,0,0a10,10,0,0,0,2.59-.8.67.67,0,0,0,.41-.47.82.82,0,0,0,.12-.61c-1.08-5.95-.94-12-2-18-.26-1.44-.57-2.87-.86-4.3q-.24-3-.67-5.91a27.34,27.34,0,0,0-2.74-8.64c-.61-1.18-1.45-2.65-2.68-3.22a5.3,5.3,0,0,0-2.61-1.58,14.88,14.88,0,0,0-2.55-.48c-1.22-.14-2.48-.26-3.74-.33a25.43,25.43,0,0,0-5-.23c-.46,0-1,.08-1.53.16-2.73-.19-6.29,1.32-8,2.33a11.77,11.77,0,0,0-4.39,5c-.83,1.72-1.95,4.2-1.52,6.13a.51.51,0,0,0,.77.29,2.54,2.54,0,0,0,.95.17l.06,0c-.18,1-.31,2-.41,2.92-.07.71-.11,1.43-.14,2.15-.31.56-.63,1.11-.94,1.66-.7,1.24-1.83,2.3-2.38,3.61-.93,2.28,1.6,2.51,3.45,2.6.26,3.87,1.29,7.66,5.17,9.42a12,12,0,0,0,1.74.63,10.27,10.27,0,0,0,.24,3.26,51.91,51.91,0,0,1,.37,5.85.65.65,0,0,0,.64.66.4.4,0,0,0,.27.18,17.6,17.6,0,0,0,3.19.3,8.78,8.78,0,0,0,.9,2.43c-.55.09-1.1.2-1.66.31A8.76,8.76,0,0,1,272,274.4a33.38,33.38,0,0,1-3.66,2.83c-1,.71-2.16,1.53-3.35,2.3-.16.2-.32.41-.49.61-.29.36-.59.74-.9,1.11-.75,1.61-1.44,3.24-2.11,4.88l-.75,1.27c-.18.28-.35.57-.51.85l-.53.85-2.54,3.79c-2.09,3.13-4,6.35-6.1,9.5-.85,1.29-1.65,2.62-2.49,3.92s-1.88,2.38-2.56,3.69c-1,1-1.87,2.14-2.7,3.12l-.09.11c-.61.54-1.2,1.1-1.79,1.66-2,1.93-4.1,3.78-6,5.88s-3.94,4.37-5.7,6.74c-1.09,1-2.17,2-3.26,3a7.16,7.16,0,0,0-4.84,2.89,3.38,3.38,0,0,0-.59,1.35,9.66,9.66,0,0,0-1.74,1.85c-1.59,2.29-2.05,5.15-2.31,7.86,0,.17,0,.34-.05.52a10.2,10.2,0,0,0-3.49.67,14.87,14.87,0,0,0-1.82.08c-.78.09-.87,1.05-.5,1.56a2.45,2.45,0,0,0,1.63.78c-.64.32-1.3.56-2,.83-.83.32-.45,1.6.36,1.64h.24a1.11,1.11,0,0,0,.43.86s-.92.22-1.31.24c-.9.05-1.36,1.44-.32,1.7l.23,0h0a6.92,6.92,0,0,1,1.16.11c1,.29-.1.75-.71.8-1.07.09-1.61,1.66-.39,2a6.43,6.43,0,0,0,.86.19c1.88,1.05,5.28,1,7.25.77l.64-.05a3.79,3.79,0,0,0,.4.12l.18,0c1.77,1.74,4.8,2,7.42,2,2.45,0,4.9,0,7.36-.1a92.63,92.63,0,0,0,10.93.37c4.52-.12,9-.48,13.54-.84s9.52-.26,13.86-1.73l.16-.06a67.76,67.76,0,0,0,7,1.45,48.67,48.67,0,0,0,9.79.82,40.78,40.78,0,0,0,17.26-4.22,14,14,0,0,0,7.23-9.19c.11-.14.22-.29.32-.44C314.77,344.69,314.75,343.9,314.7,343.12Zm-67.5-24.61.18-.08-.24.26a.29.29,0,0,1,0-.09Zm-4.66,13.21-.13-.07-.08,0,1.15-.17ZM270.46,326A63.34,63.34,0,0,0,260,327c-4.25.64-8.53.95-12.8,1.4-3.14.32-6.29.71-9.4,1.34q2.4-1.94,4.69-4a44.74,44.74,0,0,0,8.28-9.21,52.47,52.47,0,0,0,5.91-4.9c2.72-2.43,5.36-5,7.84-7.67.82-.89,1.62-1.8,2.41-2.71.05.16.09.32.14.48,1.25,4,3,7.92,3.5,12.11S269.41,322.08,270.46,326Zm-6.74-91.21Zm8.11,33.64,0,0h0Zm-5.31-12.67.09-.05c.05.08.12.15.18.23a1.21,1.21,0,0,0,0,.18A3.73,3.73,0,0,1,266.52,255.8Zm42.66,94.45-.08.07a3.55,3.55,0,0,0,.23-.31l.06,0Z"/></g><g id="Layer_17" data-name="Layer 17"><path class="cls-4" d="M58.65,94.21S57,113,61,123.26c-1.56,0-8.8,2.32-9.68-11.34C50.55,99.46,51.1,95.62,58.65,94.21Z"/><path class="cls-4" d="M60.15,123.42l-1.29,9.88s-11.68,37.54-9.21,51l-2.31-.06c-4-2.34-6.82-41.2,6.89-53.43.47-3.12,1.37-8.31,1.37-8.31Z"/><path class="cls-4" d="M269.78,73.94l10.15,47.3,2.68-.15,3.08,5.93,3.06-1.84-3.91-11.5-3.95-37.95s-.61-4.81-4.8-4.81c-3.73,0-3.62,4.62-3.62,4.62Z"/><polygon class="cls-4" points="285.69 127.02 297.06 127.88 288.75 125.18 285.69 127.02"/><polygon class="cls-4" points="302.67 130.34 317.48 196.01 306.32 132.83 305.54 131.75 302.67 130.34"/><path class="cls-4" d="M297.61,150.11l1.27,4.63.86,15.21a7.47,7.47,0,0,1,1.23,3.64c.13,2.15-.51,23.64-.51,23.64s-1.4,3.82-2.85,3.77-4.19,0-4.19,0Z"/></g><g id="Layer_7" data-name="Layer 7"><path class="cls-3" d="M212.73,348.58c-1.22-.23-2-.68-2.21-1.35a1.75,1.75,0,0,1,.34-1.61l.13-.15,2.46-.3a29.72,29.72,0,0,1,3-.64,16.5,16.5,0,0,1,1.9-7.3l.12-.2.22,0h0s1-.27,1.91-2.42c1.3-2.93,4.87-4.23,5.62-4.48l18-18.85,16.09-24.11,3.87-7.37,9.35-7.61,1.2-.22-.59-1.6-4-.63,0-.41s-.13-3.1-.45-5.22c-.08-.54-.16-1-.22-1.39a8.38,8.38,0,0,1-.17-3.13c.2-1.22.29-8.37.3-14.5a34.15,34.15,0,0,0-.84-7.79l-7.27-.61.08-1,8,.67.1.33a32.43,32.43,0,0,1,1,8.4c0,4.76-.08,13.19-.31,14.66a7.8,7.8,0,0,0,.16,2.8c.07.4.15.86.23,1.41.26,1.73.39,4,.44,4.92l3.76.59,1.2,3.27-2.11.39-9.07,7.38-3.72,7.17L245,311.85,226.8,331l-.13,0s-3.88,1.18-5.11,4c-.91,2.07-1.92,2.72-2.38,2.92A15.56,15.56,0,0,0,217.5,345v.49l-.49,0a26.73,26.73,0,0,0-3.39.67l-2.09.26a.62.62,0,0,0-.08.48c0,.14.3.49,1.45.7Z"/><path class="cls-3" d="M236.29,332.08v-1l34.33-.14L270,326.1a31,31,0,0,1-.33-3.87,40.06,40.06,0,0,1,.14-4.09,34.93,34.93,0,0,0,.06-5.94c-.36-3-3.17-10.24-3.19-10.32l.93-.36c.12.3,2.88,7.46,3.25,10.56a35.92,35.92,0,0,1-.05,6.12,38.37,38.37,0,0,0-.14,4,28.87,28.87,0,0,0,.32,3.75l.81,6Z"/><path class="cls-3" d="M269.73,260.11c-6.54-1.15-7.25-8.19-7.32-10.09a18.81,18.81,0,0,1-2.17-.36c-1.71-.38-1.48-1.63-1.31-2.55l0-.22a6.77,6.77,0,0,1,1.44-2.55c.46-.64,1-1.43,1.67-2.43a28.44,28.44,0,0,1,1.17-5.74l.95.31a27.62,27.62,0,0,0-1.13,5.62v.13l-.06.1c-.68,1.08-1.29,1.92-1.79,2.6a6.63,6.63,0,0,0-1.25,2.13l0,.23c-.19,1.07-.17,1.24.55,1.4a20.52,20.52,0,0,0,2.49.38l.47,0v.47c0,.34-.18,8.37,6.49,9.55Z"/><path class="cls-3" d="M219.29,357.62a21.64,21.64,0,0,1-2.79-12.69l1,.11a20.94,20.94,0,0,0,2.64,12Z"/><path class="cls-3" d="M90.55,234.47c-1.37-1.95-7.39-9.8-7.45-9.88l.79-.61c.25.32,6.1,8,7.48,9.92Z"/><path class="cls-3" d="M110.74,303.09l-.17-.41c-.06-.14-6-14.49-8.56-20.29-3.66-3.51-17.69-7.17-17.83-7.21l-.4-.1.75-11.51.41,0c.07,0,6.8-.82,8.49-3.3a5.4,5.4,0,0,0,1.09-4.17c0-.7-.06-1.49,0-2.53l0-.26.22-.14a9.4,9.4,0,0,0,2-1.49c-.4-.9-1.88-4.2-3-7l0-.1v-.11a15.2,15.2,0,0,0-1.66-6.68l.89-.47a16.06,16.06,0,0,1,1.77,7.08c1.3,3.21,3,7,3,7.07.22.42-.09,1-2.28,2.4,0,.87,0,1.56,0,2.17a6.35,6.35,0,0,1-1.27,4.78c-1.69,2.49-7.2,3.45-8.78,3.67l-.64,9.86c2.41.64,14.52,4,18,7.43l.11.15c2.27,5.21,7.44,17.61,8.44,20l19.14-5a3.92,3.92,0,0,1,1.11-2.35,2.75,2.75,0,0,1,2.16-.66,20.93,20.93,0,0,1,5,1.13l12.1-2.43.42-3.09,1.76-.66.35.93-1.2.45-.43,3.21-13.09,2.63-.13-.06a20.5,20.5,0,0,0-4.91-1.11,1.76,1.76,0,0,0-1.42.41,3.25,3.25,0,0,0-.81,2v.38ZM96.86,251.83s0,0,0,0Z"/><rect class="cls-3" x="154.83" y="288.03" width="3.5" height="1" transform="translate(-65.19 46.49) rotate(-14.01)"/><rect class="cls-3" x="158.99" y="286.93" width="3.65" height="1" transform="translate(-65.36 48.01) rotate(-14.14)"/><rect class="cls-3" x="164.58" y="286.16" width="1" height="1.88" transform="translate(-140.58 414.57) rotate(-82.74)"/><rect class="cls-3" x="112.58" y="302.13" width="1" height="12" transform="translate(-98.17 56.93) rotate(-19.91)"/><path class="cls-3" d="M129.79,355.79l-.74-.67a32.9,32.9,0,0,0,3.9-5.43c1.57-2.85,2.83-8.58,3.1-12.25a4.19,4.19,0,0,0-2.32-4.36s-4.83-1.6-14.37-4.5-20.34-.34-20.45-.32l-.23-1c.12,0,11.3-2.61,21,.33s14.37,4.51,14.41,4.52a5.18,5.18,0,0,1,3,5.37c-.27,3.78-1.58,9.69-3.22,12.66A33.87,33.87,0,0,1,129.79,355.79Z"/></g></svg>