<svg xmlns="http://www.w3.org/2000/svg" viewBox="0 0 350 400"><defs><style>.cls-1{fill:#d6d7d9;}.cls-2{fill:#fff;}.cls-3,.cls-4,.cls-7,.cls-8,.cls-9{fill:#58595b;}.cls-14,.cls-3{opacity:0.44;}.cls-5{opacity:0.88;}.cls-6,.cls-7{opacity:0.66;}.cls-18,.cls-8{opacity:0.22;}.cls-9{opacity:0.11;}.cls-10{fill:#c2c4c6;}.cls-11{fill:#a0a2a5;}.cls-12,.cls-14,.cls-18{fill:#393a35;}.cls-13{fill:#b5b7b9;}.cls-15{fill:#9c6bad;}.cls-16{fill:#7a478b;}.cls-17{fill:#af97c7;}</style></defs><title>tails_3.3_footprints</title><g id="Layer_14" data-name="Layer 14"><path class="cls-1" d="M80,28.81s59.15,2.79,55.91,25.72-73.6,53.5-100,105.82c-28.93,57.26-49.33,143.51,19.81,204S319.84,385.69,330,380.7c25.86-116.06-152.52-64.44-192.82-100.23,0,0-75.84-60.43,21.31-158,24.6-25.76,29.22-84.71-14.73-98.84s-84-4.27-84-4.27Z"/></g><g id="Layer_8" data-name="Layer 8"><path class="cls-2" d="M256.32,371.28a2.36,2.36,0,0,0-3.33.11,18.45,18.45,0,0,0-4.26,9.08c0,.23,0,.46-.07.69-.33-3-1.16-6.65-3.18-9.3a2.36,2.36,0,1,0-3.75,2.85c1.87,2.45,2.37,6.85,2.44,9.49H253c.17-2.34.84-6.81,3.45-9.59A2.35,2.35,0,0,0,256.32,371.28Z"/><path class="cls-2" d="M213.93,328.57H227.7c.17-2.34.84-6.81,3.45-9.59a2.36,2.36,0,1,0-3.43-3.23c-2.81,3-4,7.1-4.45,10.18a95.3,95.3,0,0,0-.23-9.84,2.35,2.35,0,1,0-4.67.6,97.25,97.25,0,0,1,.17,10.09c-.23-3.07-1-7.51-3.3-10.55a2.36,2.36,0,1,0-3.75,2.85C213.36,321.52,213.86,325.93,213.93,328.57Z"/><path class="cls-2" d="M98.27,347.36a2.35,2.35,0,0,0-3.33.1,18.48,18.48,0,0,0-4.26,9.09c0,.23-.05.45-.07.68-.33-2.94-1.16-6.64-3.18-9.3a2.36,2.36,0,1,0-3.75,2.85c1.87,2.45,2.37,6.86,2.43,9.5h8.81c.17-2.34.84-6.82,3.45-9.59A2.35,2.35,0,0,0,98.27,347.36Z"/><path class="cls-2" d="M22.2,258.13H36c.17-2.34.84-6.82,3.46-9.59A2.36,2.36,0,0,0,36,245.31c-2.82,3-4,7.1-4.46,10.18a90.16,90.16,0,0,0-.23-9.85,2.35,2.35,0,0,0-4.67.6,97,97,0,0,1,.18,10.1c-.23-3.08-1-7.51-3.31-10.56a2.35,2.35,0,1,0-3.74,2.85C21.63,251.08,22.13,255.48,22.2,258.13Z"/><path class="cls-3" d="M265.31,366s40.14,3.56,52.61,0-46.17-9.35-52.61,0"/></g><g id="Layer_12" data-name="Layer 12"><path class="cls-4" d="M129.69,313.88c13.46-5.67,40.44-.56,53,8,.5.34-15.32,1.69-19.86,7.07-7.12,8.42-17.62,15.47-36,2.73C119,326.29,120.51,317.74,129.69,313.88Z"/><polyline class="cls-4" points="161.37 313.49 200.06 324.97 178.14 327.08 199.13 335.36 166.85 334.39 190.91 344.44 144.91 338.71"/><g class="cls-5"><path class="cls-4" d="M50.87,279.39c7-1.89,17.16,3.5,24.48,11.78,1.42,1.6,1.42,3.42-1.08,14.21A17.6,17.6,0,0,1,57.58,319C46.3,319,44.39,313.73,42,309.8c-1.15-1.86-9.54-15.89-2.24-24.65C42.67,281.63,48.26,279.92,50.87,279.39Z"/><polygon class="cls-4" points="46.1 315.61 67.29 337.4 64.62 317.31 82.01 330.47 75.41 309.47 94.26 314.04 75.36 291.17 46.1 315.61"/></g><g class="cls-5"><path class="cls-4" d="M83.41,228.94c-7.81-.94-11.93,1.28-14,4.6-2.2,3.6-1.76,7.85.13,12.6,3.23,8.14,10.2,3.31,12.48,4,5.74,1.76,16.16-.46,17.14-.77.51-.15,2.62-4.76.49-11.07C98.09,233.64,92.83,230.07,83.41,228.94Z"/><polygon class="cls-4" points="68.74 243.59 76.31 265.57 81.37 252.79 89.97 265.23 91.93 252.97 100.81 262.42 100.52 244.1 68.74 243.59"/></g><g class="cls-6"><path class="cls-4" d="M46,194c3.7.21,10.41.59,12.8,5.63,2.05,4.32.56,8.91-3.36,10.82-5.53,2.71-11.61.46-15.5-.93-5.76-2.06-9-7.56-6.35-11.94C36.05,193.4,43,193.79,46,194Z"/><polygon class="cls-4" points="32.85 202.51 37.16 219.46 42.99 211.42 45.16 220.34 50.79 212.59 52.92 219.91 58.91 207.03 32.85 202.51"/></g><g class="cls-6"><path class="cls-4" d="M93.52,179.48c6.94,1.9,7.83,2.67,8.76,4.14,1.75,2.76.17,7.28-2.19,9.87-3.53,3.87-7.39-.7-11.51-2.37-1-.4-8.17,2.31-9.21-2.91-.75-3.8.84-8.41,3.95-9.83C85,177.62,86.17,177.47,93.52,179.48Z"/><path class="cls-4" d="M79.19,185.89c0,.35,1.06,12.41,1.06,12.41l6-5.93,0,8.65,6.52-6.82-.27,8.31,8.61-10.37Z"/></g><path class="cls-7" d="M75.11,154.63c-1-2.24-3.89-2.79-7.79-3.53-4.44-.84-7.36-1.39-10,.45A9.26,9.26,0,0,0,54,156l-.25,1.13-.78,8,4.91-1,.27.11,1,3.52,4.76-2.54h.22l1.49,3.16,6.06-5.52a2.39,2.39,0,0,0,.63-.51C74.29,160.55,76.21,157.15,75.11,154.63Z"/><path class="cls-7" d="M113.66,148.26c-.51-2.84-6.24-3.76-7.37-3.94-4.8-.77-11.45.34-12,3l.25,5.13,3.86-.29.64,3.05,4.64-.89,2.21,2.47,4.15-3.15a9.88,9.88,0,0,0,1.54-1.41h0C113,151,113.89,149.55,113.66,148.26Z"/><path class="cls-3" d="M90.48,123.4c-2.92-.49-6.44.67-8,2.67a4.35,4.35,0,0,0-.46.74h0l-3.39,4.51,4.52.17.77,3.13,3.2-.54.36.12,2.82,2.74,4.77-3.17h0a4.34,4.34,0,0,0,2.55-2.36C98.49,128.72,94.88,124.14,90.48,123.4Z"/><path class="cls-3" d="M121.3,117.56c-3.14-1.27-7.63-.67-9,1.69h0l-2.49,4.32,3.87,1.57,1.24,3.16,4,.21,1.87,1.92,4.31-2.9a3.89,3.89,0,0,0,.7-.47h0a3.07,3.07,0,0,0,.71-.9C127.84,123.59,125,119.06,121.3,117.56Z"/><path class="cls-8" d="M113.32,99.6c-3.06-1.09-7.6-1-8.53,1.14-.85,1.93,1.53,5,4,6.45,4,2.32,9.91,1.32,10.67-1C120.11,104.12,116.72,100.81,113.32,99.6Z"/><path class="cls-8" d="M140.91,98c-2.25-2-6.29-1.68-7.45.38-.93,1.65.22,4,1.54,5.32,1.86,1.78,5.37,2.63,7,.89S142.8,99.66,140.91,98Z"/><path class="cls-9" d="M128,82.39c-1.86.3-4.81,1.43-4.9,3.11s2.93,3.7,5.58,4c3.47.37,7.34-2,7.28-3.88S131.56,81.83,128,82.39Z"/><path class="cls-9" d="M151.38,81.67c-.75,0-5.44,0-5.71,2.12-.23,1.76,2.64,4.89,5.58,5.19,3.26.33,6.62-2.83,6.46-4.7S153.38,81.7,151.38,81.67Z"/><path class="cls-10" d="M97.76,57.58l0-26.13S99.38,4.2,72.17,3.07c-21-.88-24.12,14.42-24.84,33S45,58.54,45,58.54Z"/><path class="cls-1" d="M11.64,98.62l63.77-.49s.25-14.81,0-31.19C75.14,46.87,68.08,24.64,45,24.57,7.73,24.44,11,59.58,11.66,68.88Z"/><path class="cls-1" d="M70.74,81.63l35-.22s.14-6.79,0-14.3c-.16-9.21-4-19.4-16.74-19.44C68.59,47.61,70.4,63.73,70.75,68Z"/></g><g id="Layer_7" data-name="Layer 7"><path class="cls-11" d="M174.75,82.29c38.74-2.86,12.09,12.42,2.66,37.74s-17.84,50.64-17.84,50.64-20.08,4.33-30-5-5.78-38,1.84-51.83S152.74,83.91,174.75,82.29Z"/><path class="cls-4" d="M127.82,173.46c7.73-7.27,15.74-10.61,25.43-3.09s3.93,19.32-1.44,23.87-19.52,11.14-26.36,2.71,4.78-20.86,4.78-20.86Z"/><path class="cls-12" d="M135.76,197.09a7.37,7.37,0,0,1-3.3-.76c-3.77-1.88-4.5-6.24-4.53-6.42-.69-4.42,2.42-8.45,5.8-10.48,2.85-1.71,8-3.27,10.44-.57,2.14,2.35,1.29,6.72-.81,9.17s-5.82,3.62-7.4,2.35-1.59-2.42-1.38-3.22A5,5,0,0,1,138.4,184l.18,1a4,4,0,0,0-3,2.42,2.14,2.14,0,0,0,1,2.19c1,.84,4.2-.11,6-2.22s2.57-5.93.83-7.84c-2-2.24-6.72-.74-9.18.74s-6,4.95-5.33,9.47c0,.17.67,4,4,5.68,2.61,1.3,5.19.42,7.47-.35a15.83,15.83,0,0,0,7.44-5.39l.37-.47c1.53-2,4.38-5.68,2.68-9.66-1.35-3.16-3.33-5.22-5.89-6.12-5.25-1.84-11.65,1.6-13.75,2.73-.77.41-.89.48-1.14.4l.15-.48-.11-.48a6.11,6.11,0,0,0,.63-.32c2.2-1.19,8.88-4.78,14.55-2.8,2.84,1,5,3.25,6.48,6.68,1.93,4.52-1.28,8.67-2.81,10.66l-.36.46a16.9,16.9,0,0,1-7.92,5.74A15.54,15.54,0,0,1,135.76,197.09Z"/><path class="cls-13" d="M136.11,128.91,161,134.14s-3.21,26.65-19.59,23.28S136.11,128.91,136.11,128.91Z"/><path class="cls-4" d="M144.58,107.56l-.31,0a29.49,29.49,0,0,1-7.55-2l.38-.93a29.68,29.68,0,0,0,7,1.88c5.63-9,17.3-12.68,26.7-15.68,2.41-.77,4.69-1.5,6.6-2.24,5.88-2.28,6.32-6.49,6.33-6.67l1,.08c0,.2-.47,5-7,7.52-1.94.75-4.24,1.49-6.67,2.26-9.33,3-20.94,6.7-26.31,15.51Z"/></g><g id="Layer_6" data-name="Layer 6"><path class="cls-11" d="M266.36,137.68s-.72,2.63.87,3.41,13.79-1.26,20.12-2.42,12.73-2.27,15.57-2.3,4.19,0,4.92-1.33.17-7.47.17-7.47l-36.45,5.81Z"/><path class="cls-14" d="M267.33,137.53s-.73,2.4,1.25,2.53,16.63-1.65,19.42-2.2,16.28-3.35,17.67-3.21a3.91,3.91,0,0,0,2-.15l2.3-12-37.2,5.93Z"/><path class="cls-11" d="M322.85,66.57a61.84,61.84,0,0,1,0,8c-.28,4.76-2.27,12.95-3.11,18.6s-1.34,8.69-1.34,8.69-3.53,9-4.21,11.5-4.47,14.66-5.27,17.14a27.51,27.51,0,0,0-1.07,4.57s0-1.42-2.78-1.55-8.43,2.22-12.72,2.9-11.9,2.06-14.44,2.22-9.08.92-9.08.92l15.45-34.72,3.28-29.58,24.86-5.54S320.14,66.77,322.85,66.57Z"/><path class="cls-14" d="M320,67.14s-.84,12.7-1.33,17.46-1.36,13.64-1.36,13.64-2.56,7.46-5,13.53-4.11,12.32-5.66,16c-.79,1.87-1.8,4.68-1.8,4.68s-7.85,1-11.38,2.32c-2.7,1-9.78,1.71-13.13,2.09-1.39.15-11.13,1.59-11.13,1.59l12.58-33,5.3-30s19.14-4,22.37-4.82S318.5,67.52,320,67.14Z"/><path class="cls-11" d="M280.58,70c.22,6.46.5,12.76.29,16.8s-1.25,15-1.23,18.22c-1.11,3.45-4.7,13.07-7.11,18.81s-5.63,11.87-6.17,13.82c2.31-.36,13.57-2,18.77-2.66s18.14-3,19.14-3c.75-2.79,4.26-12.27,6-17s5.9-16.26,6.07-17.25c-.07-1.48.83-9.72.65-13.67s-1-10.59-1-13.88-.11-8.36-.11-8.36-12.69,3-13.95,3.39S284.78,68.05,280.58,70Z"/><path class="cls-13" d="M266.36,137.68c2.31-.36,13.51-2,18.72-2.63s18.13-3,19.13-3c.75-2.78,4.26-12.26,6.05-17,1.59-4.24,5.28-14.57,6.12-17.28-2,.37-4.32,1.43-5.71,1.67-3.4.58-11.61,2.39-18.52,3.92-4.07.9-8.93,1-12.51,1.66-1.34,4-4.92,13.51-7.17,18.83C270.06,129.62,266.9,135.73,266.36,137.68Z"/><path class="cls-4" d="M272,132.75a5.52,5.52,0,0,1-3.07-1.09l.44-.93c1.35.91,2.61,1.24,3.54.84,1.78-.76,2.65-3.71,3.05-6.06a4.46,4.46,0,0,1,2.2-3,8.8,8.8,0,0,0,3.11-3.58c1.83-3.74,1.75-5.83-.27-7-2.4-1.36-2.91-2.54-2.94-2.6l.43-1.18a8.11,8.11,0,0,0,3,2.9c3.28,1.85,2.09,5.4.68,8.28a9.71,9.71,0,0,1-3.42,3.94c-1,.71-1.6,1.18-1.8,2.35-.66,3.77-1.88,6.06-3.65,6.81A3.35,3.35,0,0,1,272,132.75Z"/><path class="cls-4" d="M271.77,126.7l-.51,0,.43-1c1.16.14,1.66-1,2.56-3,.23-.5.46-1,.72-1.49a4.49,4.49,0,0,1,1.52-1.48,4.4,4.4,0,0,0,2.33-3.82c0-1.11-1.45-2.47-2.06-2.92l.37-1c.26.2,2.75,2.08,2.69,3.92a5.36,5.36,0,0,1-2.75,4.59,4,4,0,0,0-1.22,1.14c-.25.46-.47,1-.69,1.43C274.35,124.88,273.51,126.7,271.77,126.7Z"/><path class="cls-4" d="M274.15,119.75l.52-1.32c1.06-.4,1.31-.75,1.43-1.32a1.55,1.55,0,0,0-.41-1.31l.41-1.07a3.38,3.38,0,0,1,1,2.59C276.88,118.25,275.56,119.22,274.15,119.75Z"/><path class="cls-4" d="M286.53,134.85c-3.24-4.08-2.72-5.76,0-9.38a15.44,15.44,0,0,1,3.26-3.26,9.76,9.76,0,0,0,2.75-3,4,4,0,0,0,.35-3.57,6.94,6.94,0,0,1-.07-4,7,7,0,0,1,4.16-5.09l.47-.25a8.68,8.68,0,0,0,3.92-5.24,10.46,10.46,0,0,0,.48-1.92,6.49,6.49,0,0,1,1.4-3.2,13.07,13.07,0,0,1,2.2-2.45,5.15,5.15,0,0,0,2-3,12.67,12.67,0,0,1,3.91-6.06A8.09,8.09,0,0,1,317,82.82l.06,1s-3.13-.3-5,1.33a11.73,11.73,0,0,0-3.59,5.51,6.14,6.14,0,0,1-2.31,3.59,12.29,12.29,0,0,0-2.05,2.27,5.59,5.59,0,0,0-1.23,2.8,10.56,10.56,0,0,1-.53,2.08,9.55,9.55,0,0,1-4.38,5.8l-.48.26a6.08,6.08,0,0,0-3.67,4.48,5.9,5.9,0,0,0,.08,3.45,5,5,0,0,1-.45,4.31,10.56,10.56,0,0,1-3,3.28,15.25,15.25,0,0,0-3.08,3.08c-2.48,3.31-2.51,5,.38,8.61Z"/><path class="cls-4" d="M294.82,133.53l-.24-.37c-1.14-1.77-2.31-3.6-1.77-6.26a8.34,8.34,0,0,1,2.35-4.12,17.31,17.31,0,0,0,1.57-2,6.21,6.21,0,0,0,.94-4.91,6.94,6.94,0,0,1,.62-4.7c2.94-5.46,5.43-6.57,7.25-7.39a6.32,6.32,0,0,0,1.61-.9,7.18,7.18,0,0,0,2.17-3.43,17.47,17.47,0,0,1,1.35-5.62c1.72-3.21,6-3.83,6.2-3.85l-.06,1s-3.78.56-5.26,3.32a17.49,17.49,0,0,0-1.25,5.3,8,8,0,0,1-2.5,4,7.29,7.29,0,0,1-1.85,1c-1.78.8-4,1.8-6.78,7a6,6,0,0,0-.51,4.09,7.17,7.17,0,0,1-1.1,5.59,18,18,0,0,1-1.65,2.07,7.34,7.34,0,0,0-2.12,3.65c-.46,2.26.51,3.77,1.63,5.52l.47.72Z"/><path class="cls-4" d="M303.79,131.49a2.47,2.47,0,0,1-.81-.14c-1-.36-1.89-1.39-2.54-3-1.08-2.76,0-4.25,1-5.56a5.31,5.31,0,0,0,1.13-2.18,44.36,44.36,0,0,0,.75-8.19c.09-2.71,2.8-4.81,5-6.5a17.37,17.37,0,0,0,2.27-1.95c2-2.21,3.43-1,3.91-.65,0,0,0,0,0,0l-.32,1c-.13,0-.16-.07-.35-.22-.45-.36-1.2-1-2.53.54a19.27,19.27,0,0,1-2.41,2.07c-2.12,1.64-4.52,3.5-4.59,5.74a45.79,45.79,0,0,1-.76,8.32,6.09,6.09,0,0,1-1.32,2.61c-.92,1.27-1.72,2.36-.84,4.61a4,4,0,0,0,1.92,2.45,2.55,2.55,0,0,0,1.47-.09l-.35,1.1S304.43,131.49,303.79,131.49Z"/><path class="cls-4" d="M306.48,125.34a3.54,3.54,0,0,1-1.3-2.22,3.89,3.89,0,0,1,1-2.92c1.23-1.51,1.41-3.42.7-7.3a2.6,2.6,0,0,1,.5-2.15c1.38-1.75,5-2,5.19-2l-.37,1c-.89,0-3.12.42-4,1.58a1.6,1.6,0,0,0-.31,1.35c.65,3.53.73,6.11-.9,8.11a2.94,2.94,0,0,0-.79,2.17,1.85,1.85,0,0,0,.66,1.36Z"/><path class="cls-4" d="M287.18,100.22a3.39,3.39,0,0,1-1.77-.46,17.84,17.84,0,0,1-3-2.17c-.95-.85-1.5-1.06-2.32-.87l.07-1c1.36-.33,2,.28,2.92,1.12a16.3,16.3,0,0,0,2.78,2.06,3,3,0,0,0,2.42.14c3-.87,6.61-4.65,7.71-6.78a18.41,18.41,0,0,0,1.15-3A15.26,15.26,0,0,1,300,83.6a15.45,15.45,0,0,1,3.24-2.89c1.85-1.34,3.45-2.51,4.07-5.3s-.72-3.53-2.25-4.48a5.33,5.33,0,0,1-2.19-2c-1.2-2.51-.05-3.81,0-3.88l1.3-.33a4,4,0,0,0-.42,3.78,4.54,4.54,0,0,0,1.81,1.59c1.54,1,3.46,2.15,2.71,5.55-.7,3.16-2.61,4.55-4.46,5.89a15,15,0,0,0-3,2.7,14.65,14.65,0,0,0-2.59,5.3,19.21,19.21,0,0,1-1.21,3.2c-1.2,2.33-5,6.32-8.32,7.28A5,5,0,0,1,287.18,100.22Z"/><path class="cls-4" d="M287.48,94.35a5.08,5.08,0,0,1-3.62-1.84,5.11,5.11,0,0,0-3.31-1.15l.08-1a6,6,0,0,1,3.95,1.46c1.62,1.68,3.06,2,4.67,1,1.14-.71,1.93-2.48,2.85-4.54a30.72,30.72,0,0,1,2.65-5c.53-.77,1.11-1.55,1.68-2.32,2.07-2.8,4-5.44,3.33-7.16-.13-.32-.26-.66-.39-1-1.06-2.76-2-4.69-4.13-4.39-3.18.45-7.46,1.84-9.06,4.27l-.38.58c-2,3-3.33,5-4.48,5.16a1.08,1.08,0,0,1-.46,0l0-.72c.65.07,3.1-3.4,4.13-5l.38-.58c1.77-2.71,6.36-4.23,9.75-4.71,3.11-.43,4.27,2.59,5.2,5l.38,1c.93,2.24-1.2,5.1-3.45,8.14-.56.76-1.13,1.52-1.66,2.29A30.21,30.21,0,0,0,293,88.65c-1,2.2-1.83,4.11-3.23,5A4.33,4.33,0,0,1,287.48,94.35Z"/><path class="cls-4" d="M287.25,89.56a3.39,3.39,0,0,1-1.89-1l-.46-.35c-1.39-1-1.65-2.35-1.95-3.88-.09-.46-.18-1-.31-1.48-.47-1.84.58-3.58,1.5-5.12a15.54,15.54,0,0,0,1-1.76c.92-2,3.72-3.17,5.9-3.76l.1,0h.1A3.28,3.28,0,0,1,294,74.89a3.16,3.16,0,0,1-.83,2.69,9.12,9.12,0,0,0-1.32,2.33A22.68,22.68,0,0,0,291,83a19.71,19.71,0,0,1-1.49,4.38c-.66,1.33-1.23,2-1.9,2.12A1.22,1.22,0,0,1,287.25,89.56Zm3.91-16.32c-2.74.76-4.56,1.88-5.14,3.18a20,20,0,0,1-1,1.86c-.86,1.44-1.75,2.93-1.39,4.36.13.55.23,1.06.33,1.54.28,1.48.48,2.47,1.56,3.27l.47.36c.57.43,1,.81,1.37.74s.63-.38,1.23-1.6A17.61,17.61,0,0,0,290,82.79a22.8,22.8,0,0,1,1-3.24A10.15,10.15,0,0,1,292.39,77a2.21,2.21,0,0,0,.65-2A2.25,2.25,0,0,0,291.16,73.24Z"/><path class="cls-4" d="M287.24,83.14l-.15,0c-.22,0-.9-.16-1.34-2.3a3.91,3.91,0,0,1,1.67-3.53,1.22,1.22,0,0,1,1.55.38c1.31,1.58.19,3.33-.56,4.48l-.19.3C287.87,83,287.52,83.14,287.24,83.14Zm.73-5a.28.28,0,0,0-.12,0,3,3,0,0,0-1.12,2.43,3.8,3.8,0,0,0,.52,1.47l.12-.17.2-.31c.86-1.34,1.41-2.36.63-3.31h0C288.1,78.19,288,78.15,288,78.15Z"/><circle class="cls-2" cx="304.92" cy="84.92" r="1.87"/><circle class="cls-2" cx="284.79" cy="109.54" r="1.87"/><path class="cls-2" d="M280.84,87.34l.06-1,1.4-.18.12,1Z"/><path class="cls-2" d="M289.8,108.94l-.39-.92.64-.29a19.75,19.75,0,0,0,2-1.06l.53.85a19.8,19.8,0,0,1-2.07,1.11C290.25,108.74,290,108.85,289.8,108.94Zm5-3.9-1-.24a2.16,2.16,0,0,0,0-.46,6.13,6.13,0,0,0-.11-1c0-.16-.05-.33-.07-.51a5.75,5.75,0,0,1-.1-.93h1a4.21,4.21,0,0,0,.08.78c0,.2.06.36.08.51a7.49,7.49,0,0,1,.12,1.13A3.13,3.13,0,0,1,294.76,105Zm.71-5.58-.78-.63A12.52,12.52,0,0,1,297,96.74l.6.8A11.68,11.68,0,0,0,295.47,99.46ZM300,95.59l-.71-.7a7.42,7.42,0,0,0,1.52-2.38l.91.41A8.31,8.31,0,0,1,300,95.59Zm3.06-5.29-.84-.54c.16-.24.33-.5.52-.76a4.67,4.67,0,0,0,.72-1.76l1,.2a5.49,5.49,0,0,1-.89,2.15C303.4,89.84,303.24,90.07,303.09,90.3Zm-17.6-3.63-.27-1a5,5,0,0,0,2-1.1,3,3,0,0,0,.31-.31l.75.66a3.33,3.33,0,0,1-.42.42A6.22,6.22,0,0,1,285.49,86.67Zm18.11-2.28a10.28,10.28,0,0,0-.69-2.79l.92-.38a11.18,11.18,0,0,1,.77,3.06Zm-13.57-2-.84-.54a25.38,25.38,0,0,1,1.8-2.51l.77.64A25.55,25.55,0,0,0,290,82.41Zm11.38-3.22a6.23,6.23,0,0,0-2.26-1.6l.38-.93a7.27,7.27,0,0,1,2.62,1.86Zm-7.56-1.14-.55-.84a6.36,6.36,0,0,1,3.05-1.08l.08,1A5.4,5.4,0,0,0,293.85,78.05Z"/><path class="cls-2" d="M285,111.2c-.17-.88-.3-1.44-.3-1.45l-.14-.58.6,0a10.4,10.4,0,0,0,1.4-.21l.21,1c-.39.09-.72.14-1,.18.05.24.12.56.19.93Z"/><path class="cls-2" d="M277.29,131.56v-.15a4.46,4.46,0,0,1,.91-2.89l.8.6a3.41,3.41,0,0,0-.71,2.29v.13Zm3.68-4.49-.72-.7c.35-.35.72-.74,1.12-1.2l.84-.94.74.68-.83.92C281.71,126.3,281.32,126.71,281,127.07Zm3.93-4.38-.79-.61a6.37,6.37,0,0,0,1.19-2.42l1,.25A7.29,7.29,0,0,1,284.9,122.69Zm.73-5.79a25.17,25.17,0,0,0-.18-2.85l1-.12a25,25,0,0,1,.19,2.93Z"/><path class="cls-2" d="M278.09,136a5.18,5.18,0,0,1-.45-1.39l1-.22a6.26,6.26,0,0,0,.53,1.47Z"/><path class="cls-2" d="M305.46,85.81l-.47-.88c.64-.34,1.54-.84,2.6-1.46l.51.86C307,85,306.11,85.46,305.46,85.81Zm5.22-3-.53-.85.54-.34a7.08,7.08,0,0,0,1.67-1.41l.77.64a8.13,8.13,0,0,1-1.9,1.61Zm3.94-4.66-.88-.48a5.36,5.36,0,0,1,2.6-2.22l.09,1A3.32,3.32,0,0,0,314.62,78.12Z"/><polygon class="cls-14" points="283.67 99.72 282.26 105.35 277.78 111.52 279.36 105.88 279.61 102.66 283.67 99.72"/><path class="cls-11" d="M213.4,87S243.29,96.43,250,139.3C232.72,130.48,216.79,120.36,213.4,87Z"/><path class="cls-11" d="M278.47,110.39s-12.39,17-28.48,28.91c-6.78-6.94-5.62-10.48-5.62-10.48s19.9-17.3,32.37-21.79Z"/><path class="cls-11" d="M283.26,97.62c-1.78-1.28-2.44,1.31-3.93,3-.74.83-3.26.71-4.08,1.48a6.1,6.1,0,0,0-1.63,5.37c.25,1.81-1.17,3.6.2,4.53,2,1.36,3,1.22,4-.48.56-1,2.29-5.15,1.62-6.41C281.75,104.71,284.79,98.72,283.26,97.62Z"/><polygon class="cls-14" points="247.07 126.54 248.33 131.06 251.25 123.17 247.07 126.54"/><path class="cls-11" d="M277.53,106.25a1.08,1.08,0,0,0-1.32-.74,2.25,2.25,0,0,0-1.55,2.07c-.07.62.56,1.07,1.11,1.11h.12a1,1,0,0,0,.88-.48A1.62,1.62,0,0,0,277.53,106.25Z"/></g><g id="Layer_10" data-name="Layer 10"><path class="cls-15" d="M323.89,320.34c2.28-1.13,11.49-4.63,15.23,7.91-3.86-3.53-7-4-12.09-.91C324.22,328.73,320.31,322.1,323.89,320.34Z"/><path class="cls-16" d="M291.18,320.88s6.66,2.42,11.77-.43,12.32-4.36,17.69-2.61c5,1.61,10.85,14.17,10.85,14.17L318,338.84Z"/><path class="cls-15" d="M250.82,332.67,265.31,366s14.79-1.74,33-11.42c23.13-12.27,27.22-19.63,27.22-19.63s-7.13-15.26-17.44-14.1-14.49,4.1-20.64-7.49Z"/><path class="cls-17" d="M314.75,324.85c2.28-1.13,11.49-4.63,15.23,7.9-3.85-3.52-7-4-12.08-.9C315.09,333.23,311.17,326.61,314.75,324.85Z"/><path class="cls-17" d="M250.82,332.67l36.65-19.32s-7.37,10.09-15.89,14.51S250.82,332.67,250.82,332.67Z"/><path class="cls-16" d="M188.28,340.46s5.11,5.32,11.18,5,13.51,1.61,17.72,5.71c3.88,3.79,3.6,18.22,3.6,18.22l-15.76.15Z"/><path class="cls-15" d="M219.05,355c2.65,0,12.86,1,10.58,14.39-2-5.06-4.74-6.94-10.87-6.41C215.51,363,214.9,355,219.05,355Z"/><path class="cls-15" d="M145.19,332.88l-1.81,37.76s14.33,6.78,35.11,6.78c23.07,0,35.39-8,35.39-8s.37-17.53-9.78-21.18-15.41-2.85-15.82-16.5Z"/><path class="cls-17" d="M208.45,355c2.65,0,12.86,1,10.58,14.39-2-5.06-4.74-6.94-10.87-6.41C204.91,363,204.3,355,208.45,355Z"/><path class="cls-17" d="M145.19,332.88s15.34,11.92,43.09-1.16Z"/><path class="cls-1" d="M218.1,124.84c42.4,46.77,52.76,116.44,62,192.27-2.22,1.72-20.63,10.75-20.63,10.75l-86-198.33Z"/><path class="cls-2" d="M245,294.18l30.2-14,5.06,38.09s-2.68,4.91-10.77,8.64c-6,2.78-10,2.52-10,2.52Z"/><path class="cls-11" d="M247.73,296.67c-1.3,0-2.81-1.78-3.13-2.18a.51.51,0,0,1-.1-.43.53.53,0,0,1,.28-.34l17.19-8,0,0,9.05-4.19h0l3.92-1.81a.48.48,0,0,1,.45,0,.5.5,0,0,1,.25.36c.49,3.13-.6,4.53-1.69,4.78a2.27,2.27,0,0,1-2.09-.74c-.08,2-.8,2.66-1.48,2.87-.92.3-2-.25-3-1.37-.1,2.31-.56,3.51-1.45,3.82-.64.23-1.37,0-2.28-.83a2.23,2.23,0,0,1-.18.91,1.94,1.94,0,0,1-1.7,1.09,4.12,4.12,0,0,1-3.07-1.34c-.22,2.74-.88,4.23-2,4.55-.82.23-1.75-.22-2.76-1.34.14,1.84-.57,2.52-1.11,2.78-1,.48-2.4-.07-3.64-1.32,0,1.47-.35,2.31-1,2.6A1.28,1.28,0,0,1,247.73,296.67Zm-1.92-2.32c.75.8,1.65,1.46,2,1.3.06,0,.54-.29.41-2.43Zm3.63-1.68c1.13,1.44,2.41,2,3,1.73s.81-1.22.27-3.26Zm4.36-2c1.61,2.32,2.47,2.31,2.7,2.24s1.1-.59,1.31-4.1Zm5.31-2.46a3.39,3.39,0,0,0,2.67,1.46,1,1,0,0,0,.86-.5,2.68,2.68,0,0,0-.61-2.31ZM263,286.4c1.82,2.21,2.51,2.21,2.69,2.14s.78-.54.8-3.76Zm4.68-2.17c.83,1.37,1.88,2,2.45,1.85s.94-1.12.73-3.32Zm4.22-2c.49,1.24,1.31,1.77,1.88,1.64s1.16-1.13,1-3Z"/><path class="cls-2" d="M203.6,75.48s37.81,6.85,14.5,49.36c-1.54.11-44.6,4.69-44.6,4.69S183,85.28,203.6,75.48Z"/><path class="cls-1" d="M206,76.16c8.13,18.21,3.27,28.55,19.56,26.34C227.61,85,212.08,78.16,206,76.16Z"/><path class="cls-1" d="M173.5,129.53c-16.78,22.25-41.27,97.35-19.46,204.62,3.16.65,23.93-.47,23.93-.47L218.1,124.84Z"/><path class="cls-2" d="M146.64,282.08c1,17,7,51.9,7,51.9a54.37,54.37,0,0,0,11.24,1.19A56.44,56.44,0,0,0,178,333.68l9.26-48.78Z"/><path class="cls-11" d="M175.32,289.67c-1,0-2.23-1-2.87-3.8-.72,1.85-1.58,2.75-2.56,2.68s-1.69-1.16-2.13-2.55c-.49,1.1-1.23,1.79-2,1.83s-1.87-.37-2.73-3.09a3,3,0,0,1-2.39,1.94c-1.25.07-2.4-.85-3.28-2.59-.7,2.13-1.83,2.55-2.51,2.58-1.29.08-2.52-1.11-3.29-3-1,1.64-2,2.36-2.93,2.2-1.72-.31-2.26-3.52-2.36-4.16a.49.49,0,0,1,.54-.57l10.46.84h0l5.84.47h0l9.55.77h0l4.81.39h0l9.76.78a.5.5,0,0,1,.45.6c-.49,2.41-1.48,3.79-2.71,3.79h0c-1,0-1.92-1-2.52-2.6-.62,1.41-1.39,2.13-2.29,2.13h0a3.17,3.17,0,0,1-2.4-2c-.35,2-1.21,3.25-2.37,3.32Zm-2.15-5.4c.44,3.23,1.49,4.4,2.15,4.4h0c.65,0,1.54-1.33,1.6-4.1Zm10,.81c.5,1.85,1.28,2.71,1.83,2.71h0c.47,0,1.14-.65,1.61-2.44Zm-14.85-1.2c.26,2.21,1,3.63,1.64,3.67s1.26-.84,2-3.38Zm9.81.79c.52,1.52,1.36,2.64,2.05,2.65h0c.3,0,1-.25,1.69-2.35Zm-14.47-1.17c.59,2.45,1.4,3.33,2,3.33h0c.63,0,1.44-1.2,1.65-3Zm-5.74-.46c.83,2,1.86,2.67,2.59,2.64s1.5-.91,1.89-2.28Zm-5.75-.46c.63,2.08,1.78,3.14,2.57,3.09s1.46-1.05,1.84-2.74Zm-4.85-.4c.26,1.2.8,2.59,1.43,2.7.27.05,1-.1,2.29-2.4Z"/><polygon class="cls-17" points="165.8 142.87 162.12 150.57 210.78 162.86 211.22 160.57 165.8 142.87"/><polygon class="cls-17" points="228.16 137.64 211.5 159.02 211.22 160.57 231.58 141.94 228.16 137.64"/><path class="cls-15" d="M173.5,129.53l44.6-4.69,10.06,12.8L211.5,159l-.28,1.55-45.42-17.7C167.89,137.64,171.17,132.12,173.5,129.53Z"/><polygon class="cls-14" points="218.1 124.84 203.85 198.88 211.35 217.54 218.1 124.84"/></g><g id="Layer_4" data-name="Layer 4"><polygon class="cls-12" points="235.15 111.76 175.58 120.99 173.5 129.53 232.37 116.59 235.15 111.76"/><path class="cls-1" d="M198.38,83.77c4.45-.87,23.45,5.84-11.82,73.32C175.58,144.62,177.3,87.9,198.38,83.77Z"/><path class="cls-1" d="M237.88,104.71c1.55,2.21-17.48,36.9-51.32,52.38C183.56,138.69,233.91,99,237.88,104.71Z"/><path class="cls-1" d="M236.35,99.38c2.89-1.2,2.91-1,2.91-1s4.48.32,2.81,7.27a10.81,10.81,0,0,1-8,8.14S229.15,102.37,236.35,99.38Z"/><path class="cls-14" d="M197.69,133.8,194.94,140s3.62-3.72,9.87-13.57C201.92,129.34,197.69,133.8,197.69,133.8Z"/><path class="cls-4" d="M186,233.39c-1.65,0-3-2-3.34-5a.5.5,0,0,1,.44-.55.49.49,0,0,1,.55.44c.28,2.57,1.41,4.09,2.35,4.09h0c.73,0,1.69-1,2-3.89a.52.52,0,0,1,.55-.45.51.51,0,0,1,.45.55c-.31,3-1.42,4.79-3,4.79Z"/><path class="cls-4" d="M252.72,223.62c-1.56,0-3.14-2-3.33-2.26a.5.5,0,0,1,.8-.61c.53.71,1.91,2.09,2.73,1.85.64-.19,1.08-1.45,1.22-3.44a.5.5,0,0,1,.53-.47.5.5,0,0,1,.46.54c-.17,2.57-.8,4-1.92,4.32A1.66,1.66,0,0,1,252.72,223.62Z"/><path class="cls-12" d="M193.17,85.05s10.94-6.38,45.16,13.55a25.54,25.54,0,0,0-4,2.13s-42-13.66-48.15-6.36a48.57,48.57,0,0,1,4.07-6.47"/><path class="cls-18" d="M192.85,92.25c5.34.49,13.46,2.67,14.63,6.48-.08-1.71-.23-8.23-.23-8.23Z"/></g><g id="Layer_9" data-name="Layer 9"><path class="cls-13" d="M232.77,45.7c.22,1.9.14,5.41,2.87,7.63s2.72,5.12,1.31,5.78-2.49,1-5.83-2.63C228,53,232.77,45.7,232.77,45.7Z"/><path class="cls-1" d="M229.72,10.93s3.65,10.53,4.35,16.16c.22,5.65-3.16,48.65-3.16,48.65s.42,2.13-1.61,1.85-37-2.58-35-40.07S229.72,10.93,229.72,10.93Z"/><path class="cls-2" d="M212,43.08c.45,5.75,13.31,10.64,18.41,3.38C229.91,40.7,219.41,34.55,212,43.08Z"/><path class="cls-12" d="M229.88,47.15a3.77,3.77,0,0,0-.34-1.22,3.49,3.49,0,0,0-.78-1.16,4.68,4.68,0,0,0-.65-.85c-3.14-3.13-7.7,1-6.72,4.72a3.06,3.06,0,0,0,.87,1.44A9.12,9.12,0,0,0,229.88,47.15Z"/><path class="cls-4" d="M232.07,66.88a10.16,10.16,0,0,1-3.78.14c-1.94-.29-3.19-1.3-4.88-2.07a.19.19,0,0,0-.27.16c-.06,2.12,3,3.27,4.69,3.6a11.17,11.17,0,0,0,4.24.08Z"/><path class="cls-4" d="M228.52,34.58c-4.49-2.23-9.93-3.52-13.47,1.18-.33.43.28.83.67.66,1.93-.86,3.57-2,5.78-2s4.06,1,6,1.95C228.66,36.91,229.69,35.16,228.52,34.58Z"/><path class="cls-12" d="M234.31,27.43s-20.26-4-27.87,6.77c-.3,5.12-.26,23.89.93,30.45,2.87,3.07,9.31,5.29,13,9.6a16.94,16.94,0,0,1,4.52,11.61c.25,6-.47,5-.85,5.63-3.44-1.48-18.51-9.28-34.72-3.13,1.13-7,2.19-16-.18-24.4s-5.35-18-.08-31.12S203.56,4.7,229.72,10.93C232.07,14.06,234.07,22.88,234.31,27.43Z"/><path class="cls-4" d="M209.71,13.14c-.52,1.72-.93,3.46-1.32,5.19s-.72,3.48-1,5.23a98.5,98.5,0,0,0-1,10.64,29.47,29.47,0,0,1-.43-5.39,36.17,36.17,0,0,1,.42-5.4,38.09,38.09,0,0,1,1.21-5.28A25.88,25.88,0,0,1,209.71,13.14Z"/><path class="cls-4" d="M225.06,18c-1.7.44-3.36.94-5,1.46s-3.28,1.09-4.85,1.77a37.18,37.18,0,0,0-4.59,2.31,23.29,23.29,0,0,0-4.08,3.17,14.85,14.85,0,0,1,3.64-3.82,24.5,24.5,0,0,1,4.64-2.58A30.07,30.07,0,0,1,225.06,18Z"/><path class="cls-4" d="M199.9,44.41l1.44,5.27c.48,1.75,1,3.49,1.53,5.21A51.27,51.27,0,0,0,204.7,60a18.63,18.63,0,0,0,2.67,4.68A12.7,12.7,0,0,1,204,60.3a31,31,0,0,1-2.09-5.11A45.07,45.07,0,0,1,199.9,44.41Z"/><path class="cls-4" d="M189.55,65.41A33.08,33.08,0,0,0,192.37,70a27,27,0,0,0,3.5,4,19.74,19.74,0,0,0,4.27,3c1.58.74,3.23,1.46,4.87,2.11a88.81,88.81,0,0,0,10.15,3.25c1.72.48,3.46.93,5.16,1.56A14.42,14.42,0,0,1,225,86.58a15.64,15.64,0,0,0-4.8-2.26c-1.69-.52-3.43-.87-5.18-1.26A65.46,65.46,0,0,1,204.65,80c-1.67-.69-3.31-1.39-4.94-2.22a18,18,0,0,1-4.35-3.3A26.69,26.69,0,0,1,189.55,65.41Z"/><path class="cls-4" d="M190.07,83.32a8.77,8.77,0,0,1,5.11-3.39,18.4,18.4,0,0,1,6.23-.2,82.68,82.68,0,0,1,12,2.53c-2-.17-4.06-.42-6.08-.71s-4-.6-6-.82a22,22,0,0,0-6,0A10.09,10.09,0,0,0,190.07,83.32Z"/></g></svg>