<svg xmlns="http://www.w3.org/2000/svg" viewBox="0 0 350 400"><defs><style>.cls-1{fill:#d6d7d9;}.cls-2{fill:#b5b7b9;}.cls-3{fill:#fff;}.cls-4{fill:#58595b;}.cls-5,.cls-8{fill:#393a35;}.cls-13,.cls-5{opacity:0.44;}.cls-12,.cls-6{fill:none;}.cls-7{fill:#a0a2a5;}.cls-9{fill:#9c6bad;}.cls-10{fill:#7a478b;}.cls-11{fill:#af97c7;}.cls-12{stroke:#393a35;stroke-miterlimit:10;}</style></defs><title>tails_2.3_persistent</title><g id="Layer_7" data-name="Layer 7"><path class="cls-1" d="M221,20.87c78.82-8.58,118.13,66.47,117.8,163.42S316.1,370.5,249.67,385.15s-231-9.74-230.09-110.1c.35-40,31.21-49.83,34.74-94.31C58.43,128.88,85.77,35.59,221,20.87Z"/><path class="cls-2" d="M249.67,385.15c56.08-12.37,80.76-77.91,87.28-156.37-3.71-11.3-8.69-18.08-15.33-17.73-36.33,1.92-38.31,98.48-46.33,128.75-2.07-21.25,4.44-128.89-47.27-130.21s-78.14,85-88.17,115c.34-42.33-41.23-100.51-78.64-97.89C38.32,228.3,25.94,254,19.63,278.5,22.51,376,184,399.62,249.67,385.15Z"/><path class="cls-3" d="M243.17,201.87a31.56,31.56,0,0,0-5.9.57,19.88,19.88,0,0,0-5.35,1.88,17.29,17.29,0,0,0-4.53,3.38,22.61,22.61,0,0,0-1.92,2.19c-.63.76-1.13,1.62-1.79,2.43a20.92,20.92,0,0,1,.94-2.94,14.31,14.31,0,0,1,1.59-2.69,13.36,13.36,0,0,1,4.78-4.14,14.58,14.58,0,0,1,6.09-1.65A14,14,0,0,1,243.17,201.87Z"/></g><g id="Layer_9" data-name="Layer 9"><path class="cls-4" d="M77.67,359.6c1.86,1,13.45,6.54,18.11,8.52,20.24,8.62,36.36,11.56,43.47,13.4,9.05,2.34,22.44,4.1,31.68,5.32,5.4.87,16.72,1.51,17.16,1.57a79.85,79.85,0,0,1,1-12.38c1.32-11.12-1-32.2-2.66-41.11s-.71-19.75.08-30.65-5.34-38.65-5.34-38.65H82.93s-1,16.18-.76,20.79-1.32,14.2-2.11,17.86-.45,23.27.07,30c.58,7.55-1.55,13.92-2.21,21.39A27.78,27.78,0,0,0,77.67,359.6Z"/><path class="cls-5" d="M133.33,376a14.77,14.77,0,0,1-.9,3.9c.85.21,3.72.86,4.38,1l12.24-63.87-14.3,6s-3.1,8.77-1.42,15.45-1.57,12.15-2.09,18.67S134,370.85,133.33,376Z"/><path class="cls-3" d="M83.35,362.52c1.34.61,2.76,1.48,4.17,2,0-.65.14,1.68.08,1-.17-2.1-.34-4.08-.43-6a32.38,32.38,0,0,1,1.3-9.32,48.65,48.65,0,0,0,1.65-10.09c.18-4.57-.26-11.45-.7-18.11-.3-4.74-.59-9.21-.59-12.07a15.06,15.06,0,0,1,.78-5.79,32.15,32.15,0,0,0,1.44-7c.93-8,1.19-30.07,1.2-31l-4,0c0,.22-.27,22.8-1.17,30.59a28.29,28.29,0,0,1-1.28,6.23,18.89,18.89,0,0,0-1,7c0,3,.29,7.52.6,12.33.41,6.25.87,13.33.69,17.69a45.56,45.56,0,0,1-1.54,9.32,35.62,35.62,0,0,0-1.41,10.45C83.27,361.72,83.17,360.41,83.35,362.52Z"/><path class="cls-6" d="M221,20.87c78.82-8.58,118.13,66.47,117.8,163.42S316.1,370.5,249.67,385.15s-231-9.74-230.09-110.1c.35-40,31.21-49.83,34.74-94.31C58.43,128.88,85.77,35.59,221,20.87Z"/><path class="cls-7" d="M183.28,178.93c-31.94-19.51-37.39-29.47-37.39-29.47s8.85-103.27,8.88-104.27l-45.84,63.93s0,47.16-.27,49.75c-3.79,5-25.22,22.1-25.22,22.1l5.19,85.14,92.5-.49L183.25,180C183.39,179.49,183.42,179.11,183.28,178.93Z"/><path class="cls-4" d="M85.91,93.8S79.66,113,75.05,119.53c4.15,0,12.57-.73,12.57-.73Z"/><path class="cls-7" d="M154.77,45.19,84.94,73.71l2.19,64.42s.25,3.78,3.64,3.61,27.11-.7,27.11-.7Z"/><polygon class="cls-5" points="109.1 141.56 136.96 141.56 108.59 154.51 109.1 141.56"/><path class="cls-3" d="M88.63,266.11l92.5-.49L183.25,180c.14-.52.17-.9,0-1.08a246.37,246.37,0,0,1-23.53-16c-30.42,14.22-48.48,9-58.75,3.44C93.45,173,83.44,181,83.44,181Z"/><polygon class="cls-8" points="83.44 215.16 140.28 248.53 139.97 269.82 83.44 229.42 83.44 215.16"/><path class="cls-8" d="M89.72,175.88s32.28.33,50.52.77l-.2-12.41s-31.5-6.63-40.71,3.47Z"/><path class="cls-7" d="M83.44,181l-20.13,73L56.54,339.8s13.09,9.43,18.13,2.8c1.49-4.89,14-76.49,14-76.49l3.78-59S95,191.45,83.44,181Z"/><path class="cls-7" d="M56.54,339.8s-4.09,29-1.17,37.61c1.42.07,2.36-2.7,2.36-2.7s-.26,8.69.64,8.69S61,374.82,61,374.82s.35,8.61,1.47,8.58,1.67-8.8,1.67-8.8.88,7.48,2.28,7.37,2.18-20.37,2.18-20.37-.44,9.58,1.43,9.36,4.61-28.36,4.61-28.36Z"/></g><g id="Layer_6" data-name="Layer 6"><path class="cls-4" d="M132.37,54.23l10.39,79.91s4.69,0,5.47-11.76,6.54-77.19,6.54-77.19Z"/><path class="cls-3" d="M114.73,89.08c-3.78,5-11.27,7-19.8,2.16C96.93,82.35,110.79,78.85,114.73,89.08Z"/><path class="cls-8" d="M94.93,91.24A19.75,19.75,0,0,0,103.7,94a5.6,5.6,0,0,0,.82-1.28,5.31,5.31,0,0,0,.46-2.62v0a5,5,0,0,0-5.42-5.29A10.56,10.56,0,0,0,94.93,91.24Z"/><path class="cls-4" d="M93.75,105.14c-3.51,0-5.73-5.91-6.33-11.49-.53-5.05.23-10.65,4-11.23.81-.13,2,0,3.21,1.62,3,3.93,4.17,14.51,2.16,18.85a3.35,3.35,0,0,1-2.84,2.25ZM91.81,84.38h-.1c-1.86.29-2.82,4.1-2.3,9,.56,5.21,2.57,9.7,4.35,9.7h0c.43,0,.82-.39,1.14-1.09,1.68-3.62.54-13.52-1.94-16.81C92.71,84.84,92.26,84.38,91.81,84.38Zm-.25-1Z"/><path class="cls-4" d="M88.58,96.35l-.18,0-5.38-1a1,1,0,0,1,.37-2l5.38,1a1,1,0,0,1-.19,2Z"/><path class="cls-4" d="M96.9,97.76a1,1,0,0,1-1-.85,1,1,0,0,1,.84-1.14l48.76-7.53a1,1,0,0,1,.3,2L97.06,97.74Z"/><path class="cls-8" d="M110.84,73.45c-2.12-1-4.73-.55-7-.13-3.13.59-6.69,1.33-8.82,3.87a.46.46,0,0,0,.44.77c2.69-.61,5.24-1.57,8-2,1.65-.26,4.44-1,6-.17S112.4,74.21,110.84,73.45Z"/><path class="cls-8" d="M99.11,122c-3.6,3.79-7.72,4.3-12.35,5.3l0,1.63c5,.46,12-1.21,13.25-6.38A.57.57,0,0,0,99.11,122Z"/><path class="cls-7" d="M135.87,95.38S145.71,77.5,150.11,91s-12.8,18.29-12.8,18.29"/><path class="cls-4" d="M154.71,27.89a15,15,0,0,0-7-9.77c-7.09-3.84-11.93,2.31-13.07,8.7a11.93,11.93,0,0,0-5.83-5.07,11,11,0,0,0-9.23.49A10.23,10.23,0,0,0,114.15,30c-.07.5-.15,1.07-.21,1.66a8.38,8.38,0,0,0-3.59-2.91,7.44,7.44,0,0,0-7.93,1.07,12.75,12.75,0,0,0-4,8.75c-1.77-2-3.84-3.37-7.06-2.38a5.8,5.8,0,0,0-2.54,1.54,6.16,6.16,0,0,0-1.47-2.91c-1.93-2.14-4.55-2-6.78-.33C76.85,37.18,76,41.85,77,46.08a5,5,0,0,0-4.49.1c-3.93,1.75-6.06,6.42-7.65,10.11-3.4,7.85-7.15,22.6,2.43,23.26,5.51.38,9.63-1.9,16.2-4.73,0,0,70.51-29.4,71.26-29.63C154.79,44.39,155.5,31.12,154.71,27.89Z"/></g><g id="Layer_13" data-name="Layer 13"><path class="cls-9" d="M277.37,60H155.44V120H277.37a30,30,0,0,0,0-59.92Z"/><path class="cls-10" d="M301.88,107.21a1.61,1.61,0,0,1-.62-.56,3.12,3.12,0,0,0-1.59-1.35,9,9,0,0,1-1.58.91h0a.86.86,0,0,1-1.27.27,2.81,2.81,0,0,1-1.49-.44,4.45,4.45,0,0,1-2,.25c-2.31-.39-5.95-4.44-7.26-.07-.26.85-1.56,1.39-2.2.58a5,5,0,0,0-2.56-1.5c-.53.12-1,.22-1.4.29a4.55,4.55,0,0,0-1.6,2.08c-.45,1-1.7.69-2.22,0q-2.06-3.9-6.08-1.39a1.05,1.05,0,0,1-1.47,0,5.65,5.65,0,0,0-2.4-1.64,3,3,0,0,0-1.1,1.06.65.65,0,0,1-1.17-.16,4.58,4.58,0,0,0-.36-.94l-.34,0a7.19,7.19,0,0,0-3.32,2,.94.94,0,0,1-1.45-.19c-1.58-2.13-6.18-2.53-7.15.68-.31,1-2,1.18-2.26,0q-2.13-3-4,.07a1.1,1.1,0,0,1-1.88,0,3.07,3.07,0,0,0-1.81-1.72c-.78,0-1.51,0-2.2,0a14.33,14.33,0,0,0-4.63,2.49,1,1,0,0,1-1.18-.15c-1.69-2-4.94-4.39-7.56-.53a1,1,0,0,1-1.77-.23,2.87,2.87,0,0,0-1.86-2.27c-.57,0-1.16.07-1.78.09a5.43,5.43,0,0,0-2.82,2.57.63.63,0,0,1-1.07,0,6.1,6.1,0,0,0-2.83-2.3,2.48,2.48,0,0,0-1.26,1.55.86.86,0,0,1-1.65,0,10.26,10.26,0,0,0-.69-1.5,13,13,0,0,0-4.53,3,1.5,1.5,0,0,1-2.34-.3,14.77,14.77,0,0,0-2.64-3.39h-.21c-.44,0-.88,0-1.33,0a2.86,2.86,0,0,0-1,1.72,1,1,0,0,1-1.77.23c-.2-.41-.35-.91-.54-1.37-.19.09-.37.15-.56.25-.65.33-1.15.9-1.83,1.21a4.89,4.89,0,0,1-1.89.46,1.88,1.88,0,0,0-.12.18.79.79,0,0,1-1.34,0c-.07-.15-.15-.27-.22-.41-.51-.18-.94-.5-1.46-.69a9.46,9.46,0,0,0-5.7-.59,52,52,0,0,1-6.81,1.11,1,1,0,0,1-.67-.23c-4.94,1.18-9.38,2.45-11.38,3.19L159,120h118.4A29.92,29.92,0,0,0,301.88,107.21Z"/><circle class="cls-10" cx="155.44" cy="89.99" r="29.96"/><path class="cls-11" d="M292.85,158.51c.08-1,.13-2,.13-2.95a36.08,36.08,0,0,0-35.13-36.06v0H174.69v36.09H140V294.64h117.1A36.09,36.09,0,0,0,293,258.56c0-1-.05-2-.13-2.95Z"/><path class="cls-9" d="M176.05,119.47A36.09,36.09,0,0,0,140,155.56V294.64h34.83v0l1.26,0a36.07,36.07,0,0,0,36-34.82h0V155.56A36.08,36.08,0,0,0,176.05,119.47Z"/><path class="cls-11" d="M262.35,294.62H169.6v59.92h92.75a30,30,0,1,0,0-59.92Z"/><path class="cls-9" d="M169.81,294.62l-1.06,0H140V322c-.07.86-.11,1.72-.11,2.6a30,30,0,1,0,30-30Z"/><path class="cls-12" d="M154.91,92.62a4.08,4.08,0,0,0,1.16-4.79c-1-1.83-3.92-1.78-5.53-.9-2.53,1.36-2.94,5.26-2.07,7.84a8.69,8.69,0,0,0,9.83,5.37c4.9-1.27,6.56-7.9,5.78-12.39a12.57,12.57,0,0,0-11.31-10.24c-6.1-.41-10.66,4-12.47,8.26-3,7,1.64,13.55,2.64,14.86A16.58,16.58,0,0,0,159.21,107c8.73-1.8,11.84-10.28,12.13-11.15,2.64-7.6-1.24-14.15-2.39-16.1a20,20,0,0,0-10.82-9.16c-10-3.28-18.49,3.72-19.15,4.29A20.1,20.1,0,0,0,132.87,84c-1.88,6-.25,11,.66,13.87,1.05,3.27,3.41,10.62,10.9,14.78,9.21,5.12,18.72,1.23,20.06.66,9.58-4.1,12.78-13,13.46-15.11,3.65-11.23-2.15-20.53-3-21.8-6.59-10.18-17.69-11.57-19.16-11.72l-1.66-4.66"/></g><g id="Layer_11" data-name="Layer 11"><path class="cls-8" d="M233.94,358.64c1.11,1.74-2.49,7.82-6.41,1.07C230.55,361.67,233.94,358.64,233.94,358.64Z"/><polygon class="cls-8" points="139.89 204.08 140.04 210.2 136.74 204.08 137.59 203.32 139.89 204.08"/></g><g id="Layer_12" data-name="Layer 12"><path class="cls-9" d="M262.35,294.62H169.6v59.92h92.75a30,30,0,1,0,0-59.92Z"/><path class="cls-10" d="M169.81,294.62l-1.06,0H140V322c-.07.86-.11,1.72-.11,2.6a30,30,0,1,0,30-30Z"/><path class="cls-4" d="M251.46,81.72c-1.38-12-6.88-14.73-13.42-13.94-9.53,1.14-8.87,10.69-7.94,19.69s6.07,16.68,14,15.77C252.28,102.3,253,95.26,251.46,81.72Zm-8.61,14.41c-3.37.59-5-4-5.57-9.95s-1.88-10.8,2.52-11.27c3.13-.33,3.55,2.93,4.43,9.8S245.45,95.68,242.85,96.13Z"/><path class="cls-4" d="M243.9,59.42c-4-11.35-10-12.83-16.19-10.61-9,3.24-6.27,12.4-3.36,21S234,84.69,241.54,82C249.28,79.3,248.43,72.27,243.9,59.42Zm-5.19,16c-3.16,1.32-5.72-2.77-7.65-8.46s-4.23-10.12-.05-11.55c3-1,4.11,2.06,6.51,8.57S241.14,74.37,238.71,75.39Z"/><path class="cls-4" d="M218.32,62.1c11,4.95,16.17,1.64,18.85-4.38,3.9-8.77-4.63-13.09-12.84-16.9s-17.44-3.34-20.73,4C200.23,52.27,205.9,56.51,218.32,62.1Zm-8-14.77c1.22-3.2,5.95-2.23,11.4.31s10.24,3.92,8.39,7.93c-1.33,2.87-4.34,1.55-10.7-1.2S209.41,49.79,210.36,47.33Z"/><path class="cls-4" d="M198.62,60c.62-1.29,1.45-2.81,2.44-4.62,3.27-6,5.46-9.59,7.83-8.43,3.07,1.51,1.68,6.13-1.34,11.33-.3.51-.63,1.24-.91,1.74,2.57,0,7.17-.05,7.28,0,4-7.62,4.81-15.78-1.89-19.56-7.15-4-11.89,1.22-18.58,13.09A26.92,26.92,0,0,0,190.73,60C193.27,60.16,196,60,198.62,60Z"/><path class="cls-4" d="M255.14,103c-.41-12-5.67-15.24-12.26-15-9.58.38-9.7,9.94-9.49,19s4.71,17.12,12.71,16.85C254.31,123.55,255.61,116.59,255.14,103Zm-9.74,13.67c-3.41.31-4.63-4.36-4.76-10.37s-1-10.92,3.42-11c3.16-.08,3.31,3.2,3.64,10.12S248,116.4,245.4,116.65Z"/><path class="cls-4" d="M258.35,122.43c-1.66-11.92-7.22-14.56-13.75-13.62-9.49,1.36-8.61,10.89-7.46,19.87s6.46,16.53,14.39,15.43C259.66,143,260.23,135.92,258.35,122.43ZM250.09,137c-3.36.67-5.06-3.85-5.81-9.81s-2.13-10.77,2.25-11.33c3.13-.41,3.62,2.84,4.67,9.69S252.68,136.52,250.09,137Z"/><path class="cls-4" d="M258.46,145.94c1.23-12-3.55-15.86-10.11-16.51-9.55-.93-11,8.54-12,17.53s2.33,17.59,10.3,18.41C254.84,166.21,257.08,159.49,258.46,145.94ZM247,158.16c-3.42-.15-4-4.94-3.3-10.91s.49-11,4.88-10.47c3.14.35,2.84,3.62,2.23,10.53S249.59,158.28,247,158.16Z"/><path class="cls-4" d="M258.14,166.82c1-12-3.87-15.79-10.44-16.3-9.57-.75-10.79,8.74-11.64,17.75s2.69,17.55,10.68,18.21C254.92,187.16,257,180.39,258.14,166.82Zm-11.27,12.45c-3.42-.09-4.09-4.87-3.52-10.85s.28-11,4.68-10.56c3.14.29,2.91,3.56,2.43,10.48S249.51,179.33,246.87,179.27Z"/><path class="cls-4" d="M256.94,187c.37-12-4.68-15.56-11.27-15.73-9.59-.25-10.32,9.3-10.69,18.34s3.6,17.38,11.61,17.62C254.79,207.5,256.54,200.64,256.94,187Zm-10.6,13c-3.42.1-4.33-4.64-4.08-10.65s-.29-11,4.12-10.79c3.15.13,3.09,3.41,3,10.34S249,200,246.34,200Z"/><path class="cls-4" d="M256.21,209.69c2.18-11.84-2.26-16.1-8.75-17.26-9.45-1.7-11.61,7.62-13.36,16.5s.92,17.73,8.8,19.19C251,229.61,253.74,223.09,256.21,209.69ZM243.76,221c-3.4-.42-3.58-5.25-2.42-11.15s1.37-10.88,5.71-10c3.09.6,2.54,3.84,1.37,10.67S246.38,221.28,243.76,221Z"/><path class="cls-4" d="M257.29,227.34c-.66-12-6-15.12-12.57-14.73-9.57.57-9.49,10.14-9.09,19.18s5.05,17,13.05,16.58C256.88,247.92,258,240.94,257.29,227.34Zm-9.46,13.86c-3.4.39-4.71-4.26-5-10.26s-1.22-10.9,3.19-11.1c3.15-.14,3.37,3.13,3.85,10S250.46,240.91,247.83,241.2Z"/><path class="cls-4" d="M258.81,247.43c-.67-12-6-15.11-12.57-14.72-9.58.57-9.5,10.14-9.1,19.18s5.06,17,13.06,16.58C258.4,268,259.55,261,258.81,247.43Zm-9.46,13.87c-3.41.39-4.72-4.26-5-10.26s-1.23-10.9,3.19-11.1c3.15-.15,3.37,3.13,3.84,10S252,261,249.35,261.3Z"/><path class="cls-4" d="M238.59,274.68c.82,12,6.18,15,12.76,14.56,9.57-.69,9.36-10.26,8.84-19.3s-5.28-16.95-13.27-16.4C238.73,254.1,237.66,261.1,238.59,274.68Zm9.27-14c3.4-.43,4.77,4.2,5.11,10.2s1.36,10.88-3.05,11.14c-3.14.19-3.41-3.09-4-10S245.24,261,247.86,260.69Z"/><path class="cls-4" d="M242.69,295.31c1.56,11.94,7.1,14.62,13.63,13.74,9.51-1.29,8.71-10.82,7.64-19.81s-6.32-16.59-14.27-15.55C241.55,274.75,240.92,281.8,242.69,295.31Zm8.39-14.54c3.36-.64,5,3.9,5.72,9.87s2,10.77-2.35,11.3c-3.13.38-3.59-2.87-4.58-9.73S248.48,281.27,251.08,280.77Z"/><path class="cls-4" d="M264.22,312.06c2.71-11.73-1.55-16.18-8-17.64-9.36-2.11-11.94,7.1-14.07,15.9s.13,17.75,7.93,19.55C258.1,331.72,261.16,325.33,264.22,312.06Zm-12.94,10.69c-3.38-.57-3.35-5.4-1.92-11.24s1.85-10.81,6.15-9.77c3.06.73,2.36,3.94.9,10.72S253.88,323.2,251.28,322.75Z"/><path class="cls-4" d="M261.49,333.84c4.24-11.28.61-16.25-5.57-18.54-9-3.34-12.77,5.45-16,13.89s-2.22,17.61,5.27,20.43C252.83,352.51,256.7,346.58,261.49,333.84Zm-14.24,8.88c-3.27-1-2.6-5.8-.41-11.4s3.27-10.47,7.39-8.87c2.94,1.14,1.82,4.22-.53,10.74S249.77,343.5,247.25,342.72Z"/><path class="cls-4" d="M250.8,357c9-8,8.12-14.09,3.72-19-6.4-7.15-13.84-1.13-20.68,4.8s-10.18,14.54-4.86,20.53S240.61,366.07,250.8,357Zm-16.74,1.21c-2.42-2.42.4-6.34,4.95-10.27s7.78-7.74,10.68-4.4c2.07,2.37-.36,4.59-5.48,9.25S235.92,360.11,234.06,358.24Z"/><path class="cls-4" d="M232.28,354.54c1.76,3.38,2.89,6.43,0,7.95s-4.33-1.9-7.7-7.95H215.9c.86,1.86,1.85,3.78,3,6,5.73,10.59,11.86,11.12,17.65,8s5.51-8.39,3.41-13.93C238.78,354.54,233.34,354.55,232.28,354.54Z"/><polygon class="cls-8" points="211.06 50.25 208.34 56.86 206.93 55.84 211.06 50.25"/><path class="cls-8" d="M211.1,46.23a6,6,0,0,1,5.54-.53l.51,1.93-6.92.31A3,3,0,0,1,211.1,46.23Z"/><polygon class="cls-8" points="216.57 53.09 216.35 61.2 213.92 60.03 216.57 53.09"/><path class="cls-8" d="M222.46,63.67s5.37,1.92,7.65.56c.5,1.4.8,2.26.8,2.26S223.32,66.78,222.46,63.67Z"/><path class="cls-8" d="M230.31,55.19s3.18-2,5.62,4.59a10.42,10.42,0,0,1-.9,1.42A10.26,10.26,0,0,0,230.31,55.19Z"/><path class="cls-8" d="M239.59,74.67s3.26-1,4.14,6.33A73.57,73.57,0,0,1,239.59,74.67Z"/><path class="cls-8" d="M229.6,78.68s3.91,3.74,7.26,3.89c-2.23.43-7.22-1-7.22-1Z"/><path class="cls-8" d="M244.63,88s.89,6.09-.34,7.27c-.95-3.33-1.78-7.23-1.78-7.23Z"/><path class="cls-8" d="M241.66,96.18s-1.45.28-1.13,6.86c.91.17,1.62.24,1.62.24Z"/><path class="cls-8" d="M246.85,115.87s3.05-.85,3.9,6.69A61.24,61.24,0,0,1,246.85,115.87Z"/><path class="cls-8" d="M236.63,118.61s1.91,2.94,7.18,5.22c-2.23,0-7.34-2.22-7.34-2.22A14.75,14.75,0,0,1,236.63,118.61Z"/><path class="cls-8" d="M247.85,136.55s-3-.15-3.68,5.67a4.49,4.49,0,0,0,2,1.24S246.49,138.21,247.85,136.55Z"/><path class="cls-8" d="M258.4,138.88s-2.85,5.34-7.34,5.28c-.13,1.15-.15,2.52-.15,2.52S257.73,145.46,258.4,138.88Z"/><path class="cls-8" d="M246.24,158.07s-2.32-.08-2.69,6.5c1.11.4,1.85.6,1.85.6Z"/><path class="cls-8" d="M256.89,156.27s-2.06,7.67-6.1,8.74a22.51,22.51,0,0,0-.21,2.45S256.28,166,256.89,156.27Z"/><path class="cls-8" d="M245.18,178.71s-2.85,0-2.78,6.44c1.07.54,1.64.76,1.64.76S244.21,180,245.18,178.71Z"/><path class="cls-8" d="M256.2,179.27s-2.67,7-6.8,7.26c0,1.63,0,2.79,0,2.79S254.85,189.42,256.2,179.27Z"/><path class="cls-8" d="M247.47,199.77s2.73,0,1.59,7.29c-1.31-3.33-2.72-7-2.72-7Z"/><path class="cls-8" d="M236.54,199.53s2.14,5.19,5.49,6.54c-2.92-.13-6.53-3.34-6.53-3.34Z"/><path class="cls-8" d="M243.76,221s-1.52.72-.86,7.17c1.49.18,1.81.2,1.81.2Z"/><path class="cls-8" d="M254.64,217.1s-1.53,7.8-5,9.62c.09,1.23.27,2.78.27,2.78S254.55,228.82,254.64,217.1Z"/><path class="cls-8" d="M237.65,240.75s2.16,5.26,6.46,6.85c.17,1.55.21,2.31.21,2.31S237.84,248.81,237.65,240.75Z"/><path class="cls-8" d="M249.46,240.39s1.71,1.26,1.84,7.55a2.54,2.54,0,0,1-1.63.34Z"/><path class="cls-8" d="M247.35,260.82s-2.15.41-1.7,6.71a10.27,10.27,0,0,0,1.73.73A18.52,18.52,0,0,1,247.35,260.82Z"/><path class="cls-8" d="M252.78,268.09s3.88-1.06,5.34-6.31c-.68,5-2.35,8.58-5.15,9.11C252.82,269,252.78,268.09,252.78,268.09Z"/><path class="cls-8" d="M252.55,280.85s2.72.83,3.8,6.66a10.58,10.58,0,0,1-1.45.91A27.64,27.64,0,0,0,252.55,280.85Z"/><path class="cls-8" d="M242,285.71s3.36,4,7.5,3.56c.31,2.31.4,2.94.4,2.94S243.73,291.35,242,285.71Z"/><path class="cls-8" d="M264.33,300.89s-1.15,7.58-7.18,8.06c-.27,1.31-.6,2.85-.6,2.85S262.32,313.25,264.33,300.89Z"/><path class="cls-8" d="M253.05,301.94s-1.66.47-3,6.53c1.47.46,1.88.54,1.88.54Z"/><path class="cls-8" d="M242.5,323s1.58,4.26,5.21,6l-1.29,3.42S242.65,331.62,242.5,323Z"/><path class="cls-8" d="M253.16,322.08s4.5,0,1.72,7.78a18.62,18.62,0,0,1-2.27.33A13.66,13.66,0,0,0,253.16,322.08Z"/><path class="cls-8" d="M246.41,342.41s-1.41-.28-5.69,4a9.84,9.84,0,0,0,2,1.89A25.71,25.71,0,0,1,246.41,342.41Z"/><path class="cls-8" d="M257.45,343.13c-3.81,5.21-5.07,6.95-10.38,7.05L245,352.1S250.21,355.92,257.45,343.13Z"/><path class="cls-8" d="M240.6,356s2,5.42,0,8.76c2.07-1.25,3.21-2,3.21-2S242.32,357.88,240.6,356Z"/><path class="cls-8" d="M240,354.53h-6.48a9.82,9.82,0,0,0-.41,1.67c.21.48,7.19-.84,7.19-.84Z"/><polygon class="cls-8" points="226.08 357.23 220.24 362.74 215.9 354.53 224.59 354.54 226.08 357.23"/><path class="cls-4" d="M197.59,161.65c11.85-2.17,14.24-7.84,13-14.32-1.78-9.43-11.26-8.14-20.18-6.61s-16.24,7.16-14.8,15.05C177.12,163.84,184.2,164.11,197.59,161.65Zm-15-7.63c-.81-3.33,3.64-5.22,9.56-6.22s10.66-2.59,11.41,1.76c.54,3.11-2.68,3.74-9.48,5.08S183.27,156.58,182.64,154Z"/><path class="cls-4" d="M178,166.36c11.91-1.76,14.49-7.35,13.5-13.87-1.46-9.48-11-8.52-19.94-7.29s-16.48,6.61-15.3,14.54C157.48,167.86,164.54,168.37,178,166.36Zm-14.69-8.13c-.7-3.36,3.81-5.09,9.77-5.9s10.74-2.23,11.34,2.15c.44,3.12-2.81,3.65-9.65,4.76S163.87,160.81,163.33,158.23Z"/><path class="cls-4" d="M158.9,171.82c11.75-2.63,13.93-8.39,12.46-14.82-2.14-9.35-11.56-7.7-20.42-5.82S135,159,136.74,166.79C138.53,174.8,145.61,174.79,158.9,171.82Zm-15.23-7c-.94-3.29,3.42-5.35,9.31-6.59s10.55-3,11.47,1.32c.66,3.08-2.54,3.84-9.28,5.44S144.39,167.31,143.67,164.77Z"/><path class="cls-4" d="M146.72,152.11c-5.21-10.86-11.31-11.68-17.25-8.81-8.63,4.19-4.89,13-1.07,21.21s11.18,13.79,18.4,10.32C154.21,171.28,152.6,164.39,146.72,152.11Zm-3.44,16.43c-3,1.65-6-2.14-8.52-7.59s-5.3-9.6-1.3-11.48c2.86-1.33,4.32,1.61,7.4,7.82S145.59,167.26,143.28,168.54Z"/><path class="cls-4" d="M150.05,126.19c-7.39-6.12-13.86.93-19.75,7.81s-7.92,15.88-1.78,21c3.94,3.29,7.13,3.19,11.45-.16h0c.09-.59,1.82-11.65,2.94-13.59l-.88,1.08c-4.31,5.3-7.11,8.43-9.23,6.86-2.76-2-.54-6.34,3.37-10.9s6.55-8.8,9.91-5.93a2.52,2.52,0,0,1,1,1.85c.51-.63,1-1.23,1.55-1.81a45.18,45.18,0,0,1,3.77-3.81A15.29,15.29,0,0,0,150.05,126.19Z"/><path class="cls-4" d="M218.24,158.68c11.84-2.16,14.24-7.84,13-14.32-1.77-9.43-11.25-8.14-20.17-6.61s-16.24,7.17-14.8,15.05C197.77,160.87,204.84,161.14,218.24,158.68Zm-15-7.63c-.81-3.33,3.63-5.22,9.56-6.22s10.66-2.59,11.41,1.76c.54,3.11-2.69,3.74-9.48,5.08S203.92,153.61,203.29,151.05Z"/><path class="cls-4" d="M238.79,154.66c11.8-2.41,14.08-8.13,12.73-14.59-2-9.39-11.42-7.9-20.31-6.19s-16.09,7.51-14.48,15.35C218.37,157.28,225.45,157.4,238.79,154.66Zm-15.1-7.32c-.88-3.31,3.52-5.29,9.42-6.42s10.61-2.81,11.45,1.53c.6,3.09-2.61,3.79-9.37,5.27S224.37,149.89,223.69,147.34Z"/><path class="cls-4" d="M258.41,152.27c11.93-1.65,14.57-7.21,13.64-13.74-1.35-9.5-10.88-8.62-19.86-7.49s-16.54,6.44-15.45,14.38C237.86,153.55,244.92,154.13,258.41,152.27ZM243.81,144c-.66-3.36,3.86-5,9.82-5.79s10.77-2.12,11.33,2.26c.4,3.13-2.85,3.62-9.7,4.66S244.32,146.57,243.81,144Z"/><path class="cls-4" d="M279.13,148.35c11.93-1.64,14.57-7.21,13.64-13.73-1.36-9.5-10.89-8.63-19.87-7.49s-16.54,6.44-15.44,14.38C258.58,149.64,265.64,150.22,279.13,148.35Zm-14.6-8.28c-.67-3.36,3.86-5,9.82-5.8s10.76-2.12,11.33,2.27c.4,3.12-2.85,3.61-9.7,4.65S265,142.66,264.53,140.07Z"/><path class="cls-4" d="M281.84,150.81c4.54,11.15,10.58,12.34,16.68,9.83,8.87-3.65,5.68-12.67,2.36-21.1s-10.32-14.44-17.74-11.42C275.54,131.21,276.71,138.19,281.84,150.81Zm4.44-16.19c3.09-1.48,5.84,2.49,8,8.09s4.71,9.91.6,11.53c-2.93,1.16-4.21-1.87-6.9-8.25S283.89,135.75,286.28,134.62Z"/><path class="cls-4" d="M304.91,150.77c-2.56-5.08-6.64-5.81-13-3.74a52.2,52.2,0,0,1,1,7.31c2.83-1.16,4.85-1.39,5.69.08,1.68,2.9-2,5.93-5.82,8,.11,2.74.13,5.26.13,7.85,1.1-.5.85-.39,1.94-.93C303.05,165.39,308.5,157.94,304.91,150.77Z"/><polygon class="cls-8" points="278.4 140.82 280.79 148.09 277.72 148.54 276.93 141.05 278.4 140.82"/><path class="cls-8" d="M285.4,135.15s-.42-2.46-7.47-1.37a31.64,31.64,0,0,0-.21,3.33l7.35-.71A4.55,4.55,0,0,1,285.4,135.15Z"/><path class="cls-8" d="M257.63,137.65s5.42-1.51,6.83,1.23l.07,1.19-7.18-.06Z"/><path class="cls-8" d="M258.35,144.63s2.11,4.74,9.41,4.6c-2.92,1.47-3.86,2.07-6.6,2.56-1.47-1.41-4.37-6.92-4.37-6.92Z"/><path class="cls-8" d="M251.06,138.65s-4.26,0-6.77,2.85a10.8,10.8,0,0,1,.34,1.61l7.11-1.7Z"/><path class="cls-8" d="M251.52,145.91s-.89,4.38-6.86,7c2.23.19,5.52.17,5.52.17Z"/><path class="cls-8" d="M223.85,145.33s-.58-2.44-6.89-1.25a21.42,21.42,0,0,0-.45,3.33l7.07-.54A3.3,3.3,0,0,1,223.85,145.33Z"/><path class="cls-8" d="M217.29,151.18s1.72,5.16,8.52,5.07c-3.75,1.52-4.84,2-7.57,2.43-.74-1-2.91-7.12-2.91-7.12Z"/><path class="cls-8" d="M196.89,147s5.43-1.89,6.6,2.09l-.29,1.18-7-.38Z"/><path class="cls-8" d="M196.61,154.14a7.8,7.8,0,0,0,7.26,5.71,33.43,33.43,0,0,1-6,1.75c-.59-1-2.48-7.22-2.48-7.22Z"/><path class="cls-8" d="M176.71,158.92s1.93,4.92,10.94,4.09c-3.44,1.81-4,2.46-7.89,3.06-1.11-.95-4.3-6.94-4.3-6.94Z"/><path class="cls-8" d="M182.78,151.9s-.73-1.3-7,0a15.94,15.94,0,0,0-.18,3.64l6.94-2.3Z"/><path class="cls-8" d="M163.11,157.31s-2.34-1.62-6.93.15a29.06,29.06,0,0,0,.31,3.36l6.82-2.09Z"/><path class="cls-8" d="M158.08,164.24s2.73,3.55,10.53,3.11c-2.94,2.13-2.4,2-5.89,3.39a82.39,82.39,0,0,1-5.77-6.22Z"/><path class="cls-8" d="M140.36,156.28l3.18,6.85,0,1.11-5.5-5.1A15.12,15.12,0,0,1,140.36,156.28Z"/><path class="cls-8" d="M148.93,173.53s-8.28.27-10.44-2.82c.82,3.3,4.18,5.17,4.18,5.17A11.56,11.56,0,0,0,148.93,173.53Z"/><path class="cls-8" d="M135.39,149.16s2.3.57,4.35,5.88c-1.35.93-2.42,1.53-2.42,1.53l-2.61-7.08Z"/><path class="cls-8" d="M133.37,142s-4.08,5.25-.05,7.53c.78-.3,1.09-.38,1.09-.38A10,10,0,0,1,133.37,142Z"/><path class="cls-8" d="M133,157.36s-4.5-.3-7.22-5.77c1.3,4.25,5.23,6.26,7.89,7.16Z"/><path class="cls-4" d="M146.22,135.34c-.27-.38-.13-.43-.09-.94.14-1.94,1.11-2.81,3.55-3.14,2.74-2.73,5.22-5.33,8.62-7l-.67-.09c-9-1.28-17.66,1.84-18.7,9.79-.56,4.28.12,6.53,3.58,8.33A29.55,29.55,0,0,1,146.22,135.34Z"/><path class="cls-8" d="M138.8,135.18s3.95-6.81,7.74-2.33l-.41,1.55s-6.89.75-7.33,2.32C138.77,135.72,138.8,135.18,138.8,135.18Z"/><path class="cls-8" d="M296.26,153.41c.93-.19,5.39.89.93,6C297.21,156.56,297.4,154.59,296.26,153.41Z"/><polygon class="cls-8" points="294.15 161.69 295.42 169.1 292.98 170.29 292.85 162.44 294.15 161.69"/><path class="cls-8" d="M292,147s1,5.86,1,7.31c1.06-.41,1.6-.58,1.6-.58l-1.31-7.13Z"/><path class="cls-4" d="M292.78,162.07l.07,6.72c5,.43,6.58,1.63,6.53,3.84-.06,2.76-2.08,4.32-6.4,4.31.09,1.84-.05,6.67,0,7.2,7.42-.4,13.07-4.58,13.62-11.39C307.19,165.36,303.83,163.27,292.78,162.07Z"/><path class="cls-4" d="M306.48,187.54c6.25-10.3,3.6-15.86-2.06-19.25-8.22-4.94-13.56,3-18.34,10.69s-5.42,16.91,1.43,21.06C294.53,204.3,299.42,199.18,306.48,187.54Zm-15.63,6.1c-3-1.6-1.49-6.18,1.69-11.27s5.14-9.69,8.9-7.37c2.68,1.66,1,4.49-2.5,10.47S293.18,194.88,290.85,193.64Z"/><path class="cls-4" d="M289.33,205.2c10-6.76,9.87-12.92,6.14-18.36-5.42-7.91-13.58-2.91-21.13,2.09s-12,13.1-7.47,19.73C271.47,215.45,278.06,212.85,289.33,205.2Zm-16.76-1c-2.09-2.72,1.22-6.24,6.24-9.55s8.71-6.66,11.15-3c1.75,2.62-.95,4.5-6.63,8.47S274.17,206.33,272.57,204.24Z"/><path class="cls-4" d="M271.77,217.79c10.47-5.94,10.87-12.09,7.59-17.81-4.77-8.32-13.3-4-21.23.39s-13,12.11-9,19.08C253.15,226.59,259.92,224.51,271.77,217.79Zm-16.63-2.3c-1.86-2.87,1.72-6.11,7-9s9.22-5.95,11.36-2.09c1.53,2.76-1.31,4.41-7.29,7.92S256.58,217.71,255.14,215.49Z"/><path class="cls-4" d="M254.17,227.9c10.47-5.94,10.87-12.09,7.59-17.81-4.77-8.32-13.31-4-21.23.39s-13,12.11-9,19.07C235.55,236.7,242.32,234.62,254.17,227.9Zm-16.63-2.3c-1.86-2.87,1.72-6.12,7-9s9.21-6,11.36-2.08c1.53,2.76-1.31,4.41-7.29,7.91S239,227.82,237.54,225.6Z"/><path class="cls-4" d="M233,238.66c11.72-2.75,13.84-8.53,12.3-14.95-2.23-9.33-11.64-7.57-20.47-5.6s-15.87,7.95-14,15.75C212.65,241.85,219.73,241.77,233,238.66Zm-15.31-6.89c-1-3.28,3.37-5.39,9.24-6.69s10.52-3.11,11.49,1.21c.69,3.07-2.5,3.86-9.23,5.54S218.43,234.3,217.68,231.77Z"/><path class="cls-4" d="M214.67,245.43c11.29-4.19,12.67-10.19,10.35-16.36-3.38-9-12.49-6.07-21-3s-14.75,9.86-12,17.38C194.89,251.13,201.9,250.17,214.67,245.43Zm-16-4.93c-1.38-3.14,2.67-5.76,8.33-7.78s10-4.4,11.55-.24c1.07,3-2,4.15-8.46,6.64S199.69,242.92,198.63,240.5Z"/><path class="cls-4" d="M195.47,253.77c11.29-4.19,12.67-10.19,10.35-16.36-3.38-9-12.5-6.07-21-3s-14.75,9.86-12,17.38C175.69,259.47,182.7,258.51,195.47,253.77Zm-16.05-4.93c-1.37-3.13,2.68-5.76,8.34-7.78s10.05-4.4,11.54-.24c1.07,3-2,4.15-8.46,6.65S180.48,251.26,179.42,248.84Z"/><path class="cls-4" d="M179.25,262.44c10.13-6.5,10.2-12.66,6.61-18.19-5.21-8.05-13.5-3.26-21.17,1.54s-12.31,12.79-8,19.54C161.14,272.24,167.79,269.8,179.25,262.44Zm-16.73-1.39c-2-2.77,1.38-6.2,6.48-9.38s8.88-6.44,11.23-2.7c1.68,2.67-1.07,4.48-6.85,8.3S164.07,263.19,162.52,261.05Z"/><path class="cls-4" d="M161.75,274.06c10.13-6.5,10.2-12.66,6.61-18.19-5.22-8.06-13.5-3.27-21.17,1.53s-12.31,12.8-8,19.54C143.63,283.85,150.28,281.41,161.75,274.06ZM145,272.67c-2-2.77,1.38-6.21,6.48-9.39s8.88-6.44,11.23-2.7c1.68,2.67-1.07,4.48-6.85,8.3S146.57,274.8,145,272.67Z"/><path class="cls-4" d="M151,282.55c4.2-11.29.55-16.25-5.64-18.52-9-3.3-12.75,5.51-16,14s-2.15,17.62,5.35,20.41C142.43,301.26,146.28,295.32,151,282.55Zm-14.21,8.94c-3.27-1-2.62-5.79-.45-11.4s3.23-10.48,7.35-8.9c2.95,1.13,1.84,4.22-.48,10.75S139.34,292.26,136.81,291.49Z"/><path class="cls-4" d="M134.61,294.42c.38-2.12,2.14-5,5.32-4.72,0-1.4.06-5.29,0-6.34-8.55-.26-11.79,5.15-12.7,10.78-1.28,7.94,5.36,10.63,12.69,12.23.06-2.34-.07-5.13,0-7.27C136.52,298.43,134.08,297.47,134.61,294.42Z"/><path class="cls-8" d="M294.92,162.33c-.06.11-.9,6.58-.9,6.58l-1.17-.12-.07-6.72Z"/><polygon class="cls-8" points="295.66 177.33 295.66 183.82 292.98 184.14 292.99 181.64 295.66 177.33"/><path class="cls-8" d="M299,174.44s2.64-5.15-5-5.53c2.79,2.61,2.75,7,2.75,7Z"/><path class="cls-8" d="M301.07,181.77s1.06,0,4.33-5.09c-1.82,4.25-2.47,6.07-5.68,7.6C300.57,182.67,301.07,181.77,301.07,181.77Z"/><path class="cls-8" d="M291.77,183.61s-2.76,3.74-2.55,7.22l.74.88,3.38-7.24Z"/><path class="cls-8" d="M294.14,201.23a9.7,9.7,0,0,0,3.65-7.34,12.65,12.65,0,0,1-.25,5.43A12.27,12.27,0,0,1,294.14,201.23Z"/><path class="cls-8" d="M280.56,202.57s1.71,4.87-.83,8.34c2.12-1.06,4-2.12,4-2.12S281.61,203.69,280.56,202.57Z"/><path class="cls-8" d="M276.25,196.52s-4.3,2.22-4.32,6c.52.56.83.84.83.84l4.17-6.57Z"/><path class="cls-8" d="M263.49,214.88s.6,3.78-3,8.26c1.84-.64,4.32-1.74,4.32-1.74Z"/><path class="cls-8" d="M254.64,213.21s-2-2.19-6.91,1.55c.17,2.6.71,3.3.71,3.3l6.31-3.44Z"/><path class="cls-8" d="M241.83,218.2s-5.15,2.55-4.79,5.82a9.51,9.51,0,0,1,1,1.2l5.41-5.61Z"/><path class="cls-8" d="M245.73,226.2s.29,4.18-1.9,6.73c1.6-.61,4.17-1.76,4.17-1.76Z"/><path class="cls-8" d="M214.05,239.12s2.8,2.35,9.07,1.35a46.06,46.06,0,0,1-6,4Z"/><path class="cls-8" d="M217.54,230.88s-1.26-1.56-6.89.51c-.06,3.06.46,3.65.46,3.65l6.73-2.88Z"/><path class="cls-8" d="M203.75,234a5.88,5.88,0,0,0-5.39,5.1c.55.86.78,1.29.78,1.29l6.17-4.17Z"/><path class="cls-8" d="M194.86,247.57a11.85,11.85,0,0,0,9.13,1.12,46.23,46.23,0,0,1-6.68,4.35Z"/><path class="cls-8" d="M179.17,247.87s-1.24-2.44-6.91,1.71a25,25,0,0,0,1.07,3.35l6.24-3.83Z"/><path class="cls-8" d="M176.51,256.46a14,14,0,0,0,9,.64,34.66,34.66,0,0,1-6.59,5.67Z"/><path class="cls-8" d="M162,259.65s-1.4-2.52-6.69,1.33a16.33,16.33,0,0,0,1.08,3.75l5.89-4.13Z"/><path class="cls-8" d="M159.84,269a12.14,12.14,0,0,0,8.27-.37,56.64,56.64,0,0,1-5.53,4.93Z"/><path class="cls-8" d="M148.36,265.45s-4.67,2.77-4,6.08l.8.87,6-4.24Z"/><path class="cls-8" d="M152.83,273.92s0,4.21-.82,5.6c1.9-.89,4-2,4-2Z"/><path class="cls-8" d="M136.12,291.28s-3.16,4.73-.45,6.27c.38-1.6,1.87-5.9,1.87-5.9Z"/><polygon class="cls-8" points="139.97 283.36 139.93 289.7 138.39 289.83 137.86 283.42 139.97 283.36"/><polygon class="cls-8" points="138.64 298.81 138.07 305.93 139.97 306.37 139.97 299.1 138.64 298.81"/><path class="cls-4" d="M136.24,220.93c7.78,9.18,13.89,8.44,18.91,4.15,7.29-6.24,1.44-13.81-4.33-20.78s-14.3-10.52-20.42-5.34S127.43,210.54,136.24,220.93Zm-.83-16.77c2.48-2.36,6.33.55,10.15,5.19s7.56,8,4.16,10.77c-2.42,2-4.58-.46-9.13-5.69S133.5,206,135.41,204.16Z"/><path class="cls-4" d="M140,200.63a14.72,14.72,0,0,1-2.44,2.69,3.05,3.05,0,0,1-4.25,0c-2.52-1.9-.59-4.56,3.45-10.19,1.44-2,2.05-2.92,3.17-4.22-.09-3.07.06-6.71.07-9.78-3.27,1.84-6.37,5.59-10.56,11.25-7.16,9.67-5,15.45.28,19.35,3.79,2.79,7.18,2.42,10.29.47C139.89,206.9,140,204.12,140,200.63Z"/><path class="cls-4" d="M153.05,236.16c9.07,7.92,15,6.26,19.32,1.28,6.28-7.26-.63-13.88-7.38-19.91s-15.72-8.25-21-2.22C138.6,221.49,142.79,227.2,153.05,236.16Zm-3.32-16.46c2.1-2.7,6.34-.4,10.82,3.61s8.66,6.73,5.72,10c-2.1,2.36-4.6.23-9.88-4.26S148.11,221.79,149.73,219.7Z"/><path class="cls-4" d="M169.82,248.85c9.07,7.92,15,6.27,19.31,1.29,6.28-7.26-.63-13.88-7.38-19.91S166,222,160.77,228,159.56,239.89,169.82,248.85Zm-3.33-16.45c2.1-2.71,6.34-.4,10.82,3.61s8.66,6.73,5.72,10c-2.1,2.36-4.6.22-9.88-4.26S164.87,234.49,166.49,232.4Z"/><path class="cls-4" d="M185.5,260c9.37,7.56,15.24,5.68,19.35.53,6-7.5-1.17-13.84-8.15-19.61s-16-7.63-21.06-1.4C170.49,245.9,174.9,251.44,185.5,260Zm-3.34-14.9c2-2.79,6.33-.65,11,3.18s8.92,6.39,6.11,9.8c-2,2.44-4.58.4-10-3.87S180.63,247.23,182.16,245.09Z"/><path class="cls-4" d="M201.66,273.55c9.37,7.56,15.24,5.68,19.35.53,6-7.5-1.17-13.84-8.15-19.61s-16-7.63-21.06-1.4C186.65,259.46,191.06,265,201.66,273.55Zm-4-16.31c2-2.79,6.32-.65,11,3.18s8.91,6.39,6.1,9.8c-2,2.44-4.58.41-10-3.87S196.16,259.39,197.7,257.24Z"/><path class="cls-4" d="M221.6,283.67c10.62,5.66,16,2.71,19.1-3.12,4.48-8.49-3.75-13.37-11.69-17.72s-17.17-4.49-20.94,2.57C204.2,272.65,209.58,277.26,221.6,283.67Zm-7-15.28c1.43-3.11,6.09-1.83,11.35,1.07s10,4.6,7.84,8.48c-1.51,2.77-4.43,1.26-10.58-1.92S213.53,270.79,214.64,268.39Z"/><path class="cls-4" d="M244,290.79c11.75,2.64,16.18-1.64,17.59-8.08,2.07-9.37-7.16-11.89-16-14s-17.75.23-19.51,8C224.27,284.79,230.67,287.81,244,290.79ZM233.2,277.91c.55-3.38,5.38-3.37,11.23-2s10.82,1.79,9.81,6.09c-.72,3.07-3.94,2.39-10.72,1S232.77,280.52,233.2,277.91Z"/><path class="cls-4" d="M266.54,292.23c12,.67,15.69-4.27,16-10.86.49-9.58-9-10.56-18.06-11.17s-17.47,3.14-17.92,11.14C246.13,289.54,252.94,291.46,266.54,292.23Zm-12.73-10.94c0-3.43,4.75-4.22,10.75-3.8s11,0,10.68,4.4c-.21,3.15-3.49,3-10.42,2.71S253.81,283.93,253.81,281.29Z"/><path class="cls-4" d="M278.21,298.3c9.1,7.88,15,6.2,19.32,1.2,6.25-7.28-.69-13.87-7.47-19.87s-15.75-8.19-21-2.14C263.69,283.7,267.91,289.39,278.21,298.3Zm-3.4-16.44c2.09-2.71,6.34-.43,10.83,3.56s8.69,6.7,5.77,10c-2.09,2.36-4.6.24-9.9-4.22S273.2,284,274.81,281.86Z"/><path class="cls-4" d="M298.07,291.49c-6.21-7.32-13.81-1.5-20.8,4.26a17.94,17.94,0,0,0-2,1.8,32.17,32.17,0,0,1,6.3,4.06c.38-.33.31-.26.72-.59,4.64-3.82,8-7.54,10.78-4.13,2,2.43-.48,4.58-5.72,9.11-.48.42-.49.44-.94.82a26.92,26.92,0,0,1,3.72,6.57c1.18-.91,2.41-1.92,3.71-3C303.07,302.62,302.34,296.51,298.07,291.49Z"/><path class="cls-8" d="M288.2,296.36s-4.72,2.76-6.13,4.85c1.68,1,3.44,1.74,3.44,1.74l3.34-6.54Z"/><path class="cls-8" d="M291.41,295.43s3.31-2.23-2.28-7a21.68,21.68,0,0,0-2.27.72l3.3,6.27Z"/><path class="cls-8" d="M275.16,281.21s2.81-2,7.27,1.65a28.31,28.31,0,0,1-.73,2.85l-6.54-3.27Z"/><path class="cls-8" d="M279.21,289.29a13.13,13.13,0,0,1-7.55,2.85c1.31,1.35,2.29,2.31,2.29,2.31l6.32-4.29Z"/><path class="cls-8" d="M248,276.72s5.08.67,6.18,3.08l-.32,1.29-7-1.29A5.61,5.61,0,0,1,248,276.72Z"/><path class="cls-8" d="M246.67,283.63s.43,5.75,8.37,7.12a19.67,19.67,0,0,1-7.73.67c-1.61-.28-2.11-8.09-2.11-8.09Z"/><path class="cls-8" d="M241.86,275.5s-4.72-1.45-7.51.49a8.86,8.86,0,0,1-.38,1.67l7.3,1.26S242.29,276.54,241.86,275.5Z"/><path class="cls-8" d="M226,277.41s-1.57,5.83,5,9.23c-6.22-1.16-7-2-7-2l.47-7.91Z"/><path class="cls-8" d="M213.1,278.59s3.9.4,7.47-4l1.65.88-5,5.72Z"/><path class="cls-8" d="M215.65,267.13s2.56-1.95,7.61,1a19.11,19.11,0,0,1-.63,3.31l-7-2.87Z"/><path class="cls-8" d="M195.53,250s4.63,3.67,4.59,5.93a7.62,7.62,0,0,0-1.76.59l-5.75-4.38A10.43,10.43,0,0,1,195.53,250Z"/><path class="cls-8" d="M190.34,255.15a7.85,7.85,0,0,0,1.26,8.6,15.68,15.68,0,0,1-4.67-2.66l1.49-7.5Z"/><path class="cls-8" d="M184,243.88a10.12,10.12,0,0,1,7.16,2.87,22.89,22.89,0,0,1-1.71,3l-5.71-4.32Z"/><path class="cls-8" d="M186.67,252.44s-4,3.07-7.75,1.64c1.58,1.65,2.86,2.8,2.86,2.8l5.68-3.95Z"/><path class="cls-8" d="M163.41,225.81s4.16,2.84,3.79,5.79a10.26,10.26,0,0,0-.94,1.17l-5.26-5Z"/><path class="cls-8" d="M158.91,230.92s-2.2,4.55,3.26,10.47a21.47,21.47,0,0,1-7.19-3.66c-.65-.5,2.71-7.54,2.71-7.54Z"/><path class="cls-8" d="M142.76,217s-3.55,4.44,1.56,10.31c-4.6-2.44-5.64-3.75-5.64-3.75l3.07-7.79Z"/><path class="cls-8" d="M148.24,212.51s4,3.23,2.59,6.22l-.86.69-3.77-6Z"/><path class="cls-8" d="M127.78,208s5.2,5.26,10.12,3.22l.78,1-7.81,1.85S127.73,209.64,127.78,208Z"/><path class="cls-2" d="M236.08,202a17.85,17.85,0,0,0-13.4,13.06A24.76,24.76,0,0,0,222,219a33.21,33.21,0,0,1,8.35-1.48c0-.11.05-.22.08-.32a9.92,9.92,0,0,1,7.48-7.41c7.79-1.79,18.47,4,28.54,15.41l6-5.28C260.19,206.08,247,199.55,236.08,202Z"/><path class="cls-2" d="M222.32,226.32a40.28,40.28,0,0,0,1.9,7c2.11-.64,7.25-2.09,7.73-2.23a27,27,0,0,1-1.93-6.77C227.43,225.1,224.91,225.57,222.32,226.32Z"/><path class="cls-2" d="M235.46,237.71c-2.69.7-5.36,1.5-8.07,2.12A62.79,62.79,0,0,0,238,253l5.57-5.75A56.46,56.46,0,0,1,235.46,237.71Z"/><g class="cls-13"><path class="cls-4" d="M230.31,217.56c0-.11.05-.22.08-.32a11.37,11.37,0,0,1,1.68-3.56c-2.69,1-5.44,1.85-8.14,2.82l-1.75.83c-.1.56-.16,1.14-.22,1.71A33.21,33.21,0,0,1,230.31,217.56Z"/><path class="cls-4" d="M222.32,226.41a39.38,39.38,0,0,0,1.9,7c2.11-.64,7.25-2.09,7.73-2.23a25.63,25.63,0,0,1-1.87-6.66A22.21,22.21,0,0,0,222.32,226.41Z"/><path class="cls-4" d="M235.46,237.71c-2.69.7-5.36,1.5-8.07,2.12A62.79,62.79,0,0,0,238,253l5.57-5.75A56.46,56.46,0,0,1,235.46,237.71Z"/></g><path class="cls-4" d="M280.74,274.33l8.11-8.15-2-3.05c4.6-20.54-22.92-40.47-22.92-40.47l-31.05,31.58s27.32,38.53,46.43,21.46h0l.43-.43C280.12,275,280.43,274.66,280.74,274.33Z"/><path class="cls-2" d="M271.82,214.63l-30.9,31.61s29.91,42.19,49,18.72S271.82,214.63,271.82,214.63Z"/><path class="cls-4" d="M284.64,249,271,242.46a5.1,5.1,0,0,0-1.24-6.72c-4.25-3.5-7.37,0-7.37,0-1.75,1.69-2.37,4.76,0,7.57a5.14,5.14,0,0,0,6.77.93l7,14.74Z"/><path class="cls-3" d="M241.88,245.14c2.05-2.67,4.24-5.21,6.48-7.7s4.55-4.9,6.88-7.3,4.74-4.72,7.2-7,4.95-4.51,7.59-6.6c-2,2.68-4.24,5.21-6.48,7.7s-4.55,4.91-6.88,7.3-4.74,4.72-7.2,7S244.52,243.05,241.88,245.14Z"/></g><g id="Layer_10" data-name="Layer 10"><path class="cls-3" d="M271.82,214.63a65.35,65.35,0,0,1,13,10.77,56.22,56.22,0,0,1,5.34,6.64,41.67,41.67,0,0,1,4,7.57,29.67,29.67,0,0,1,2,8.43,23,23,0,0,1-1.08,8.6,25.91,25.91,0,0,1-1.68,4,29.54,29.54,0,0,1-2.38,3.57,35.24,35.24,0,0,1-6,5.94l1.41-1.57a18.67,18.67,0,0,0,1.38-1.57l1.28-1.64a17.9,17.9,0,0,0,1.15-1.73,29.38,29.38,0,0,0,2-3.59,27.82,27.82,0,0,0,1.36-3.84,23.25,23.25,0,0,0,.68-8,28.6,28.6,0,0,0-2-7.84,51.43,51.43,0,0,0-8.7-13.92c-1.78-2.12-3.67-4.16-5.65-6.13S274,216.45,271.82,214.63Z"/><path class="cls-3" d="M262.34,235.74a5.21,5.21,0,0,1,3.54-1.93,6.22,6.22,0,0,1,4.12,1.13,6.46,6.46,0,0,1,2.62,3.57,5.37,5.37,0,0,1-.86,4.54l-.38-1.49c2.27,1.1,4.53,2.23,6.75,3.46a73.64,73.64,0,0,1,6.51,3.94,72.53,72.53,0,0,1-7.17-2.55c-2.35-.94-4.65-2-6.94-3l-1.09-.51.7-1a3.53,3.53,0,0,0,.64-2.92,5.27,5.27,0,0,0-1.73-2.77,5.39,5.39,0,0,0-6.71-.45Z"/><path class="cls-3" d="M247.27,202.4a51.47,51.47,0,0,0-7.59.38,26.52,26.52,0,0,0-7.11,1.87,15.4,15.4,0,0,0-3.16,1.74,15.05,15.05,0,0,0-2.74,2.37,23.08,23.08,0,0,0-4,6.33,14.88,14.88,0,0,1,2.78-7.32,15.23,15.23,0,0,1,6.32-5,20.64,20.64,0,0,1,7.78-1.58A22,22,0,0,1,247.27,202.4Z"/></g></svg>