<svg xmlns="http://www.w3.org/2000/svg" viewBox="0 0 350 400"><defs><style>.cls-1{fill:#b5b7b9;}.cls-2{fill:#a0a2a5;}.cls-3{fill:#d6d7d9;}.cls-4{fill:#dadbdc;}.cls-5{fill:#8f4299;}.cls-6{fill:#58595b;}.cls-7{fill:#9c6bad;}.cls-8{fill:#af97c7;}.cls-10,.cls-9{fill:#393a35;}.cls-10{opacity:0.44;}</style></defs><title>tails_4.3_roots</title><g id="Layer_8" data-name="Layer 8"><rect class="cls-1" x="53.55" y="220.45" width="28.19" height="28.19" transform="translate(135.29 469.09) rotate(-180)"/><circle class="cls-1" cx="67.64" cy="221.44" r="14.09"/><rect class="cls-1" x="41.55" y="230.51" width="18.13" height="18.13" transform="translate(101.22 479.14) rotate(-180)"/><circle class="cls-1" cx="50.61" cy="231.14" r="9.07"/><rect class="cls-2" x="269" y="212.46" width="35.62" height="35.62"/><circle class="cls-2" cx="286.81" cy="213.71" r="17.81"/><path class="cls-3" d="M9.62,246.79s68.14-2,140.54-1.1,105.15,2.62,137,2,52.35-2,52.35-2C328.05,425.68,17.19,467,9.62,246.79Z"/><rect class="cls-4" x="228.13" y="159.79" width="11.2" height="86.71"/><polygon class="cls-4" points="202.48 160.08 265.34 159.79 233.91 45.35 202.48 160.08"/><rect class="cls-4" x="104.17" y="178.95" width="8.91" height="69"/><polygon class="cls-4" points="83.76 179.17 133.78 178.95 108.77 87.88 83.76 179.17"/><rect class="cls-4" x="139.76" y="150.98" width="12.37" height="95.78"/><polygon class="cls-4" points="111.42 151.29 180.86 150.98 146.14 24.57 111.42 151.29"/></g><g id="Layer_6" data-name="Layer 6"><path class="cls-5" d="M99.2,158.35a11.61,11.61,0,0,1-.33-2.1c0-.57.18-1.07.14-1.64a.38.38,0,0,0-.47-.36c-1.76.44-1.63,3-1.46,4.38.23,1.85.62,4.24-.82,5.72-1.7,1.76-5,2.09-7.31,2.27-2.71.22-5.44.15-8.16.31-1.37.08-1.86,2.26-.34,2.54a2.55,2.55,0,0,0,.78.07,1,1,0,0,0,.25-.06c5.13-.21,11.57.5,15.8-2.81a6.19,6.19,0,0,0,2.3-4.84A15.59,15.59,0,0,0,99.2,158.35Z"/><path class="cls-5" d="M74.84,172.09c-2.77-.9-6.4-.5-8.46-3-2.3-2.78-1.16-7.07-1.4-10.33h0a1.17,1.17,0,0,0-2.33,0c-.33,3.75-.69,9.21,2.17,12.15,2.15,2.22,7.29,3.88,10.18,2.37A.66.66,0,0,0,74.84,172.09Z"/><path class="cls-5" d="M265.59,154.18a.77.77,0,0,0-1.11-.45,4.84,4.84,0,0,1-1.41.8,5,5,0,0,1-2.59-.66,21,21,0,0,1-5.26-3.43c-1.89-1.66-2.56-4.05-3-6.48-.29-1.68-.4-3.4-.68-5.09-.18-1.12-.29-2.8-1.45-3.35a.39.39,0,0,0-.51.13,3,3,0,0,0-.19,2.19c.12,1.06.21,2.12.3,3.18a37.32,37.32,0,0,0,.76,5.67,11.14,11.14,0,0,0,4.35,6.53,17.32,17.32,0,0,0,6.76,3.61C263.27,157.19,266.44,156.63,265.59,154.18Z"/><path class="cls-5" d="M164.9,126.57c-2.23.52-4.76-.1-5.48-2.45a13,13,0,0,1-.28-4.13c0-1,.27-2-.3-2.82a.41.41,0,0,0-.63-.08c-1,1.21-1,3.06-1.07,4.56a8.18,8.18,0,0,0,1,4.61c1.4,2.31,4.9,3.27,7.42,2.54A1.16,1.16,0,0,0,164.9,126.57Z"/><path class="cls-5" d="M182.42,119a1,1,0,0,0-.16-1.24l0,0a1.08,1.08,0,0,0-1.79.47c-.63,4.19,0,8.6-.36,12.83-.21,2.19-1.11,3.93-3.37,4.42a38.93,38.93,0,0,1-5.49.62c-.46,0-.84.65-.42,1,1.54,1.29,3.91.84,5.75.63a5.83,5.83,0,0,0,5-3.14c1.2-2.33.95-5,1.06-7.53.06-1.5.07-3,.08-4.5,0-.73,0-1.46,0-2.19C182.7,120.21,182.79,118.3,182.42,119Z"/><path class="cls-5" d="M187.32,117.67a1.09,1.09,0,0,0-2.17,0c-.06,2.29.3,4.91-.43,7.11-.58,1.79-2.22,1.49-3.64,2.21a.65.65,0,0,0,0,1.12,4.29,4.29,0,0,0,5.15-1.35C187.94,124.39,187.42,120.41,187.32,117.67Z"/><path class="cls-5" d="M73.1,158.1c-.39,9.25-.84,24.48-.69,28.25s.93,28.6.69,34.5-.57,24.9-.57,24.9L85,245.58s-1.42-27.89-2.18-41.91,1-41.45,1-41.45v-4.54Z"/><path class="cls-5" d="M163.92,117.52c-1.37,15.82-.72,38.9,0,52s-.65,41.8-.4,54.82-.45,21.5-.45,21.5l12.34.2s-1-16.17-1.12-22.6-.73-30,0-40.48a372.87,372.87,0,0,0,0-41.49c-.8-10.89,1-24,1-24Z"/><path class="cls-6" d="M311.7,306.82a74,74,0,0,1-6.18-4.75c-1.73-1.62-3.42-3.3-5-5a77.29,77.29,0,0,1-6.74-9,22.68,22.68,0,0,0,7.3-2.54c1.5-.75,3-1.55,4.5-2.26a54.46,54.46,0,0,1,5.29-1.88.46.46,0,0,0-.13-.9c-3-.14-6.1,1.71-8.66,3.07-2.82,1.49-5.74,3.1-8.92,3.61-.4-.58-.81-1.16-1.22-1.73a41.8,41.8,0,0,0-5.39-5.95c3.29-2,6.87-3.46,10.3-5.19,4.47-2.25,8.39-5.41,13-7.33.73-.3.47-1.45-.33-1.21-4.83,1.42-8.74,4.92-13.16,7.22a119.06,119.06,0,0,0-10.69,5.74c-1.22-1.11-2.49-2.21-3.75-3.31-2.8-2.46-5.39-5.12-8.08-7.69.06-1.91.11-3.82.17-5.74a92.89,92.89,0,0,0,0-9.44.76.76,0,0,1,0-.15v-.2c.07-.53.14-1.06.18-1.59.08-.91.13-1.82.16-2.73-4,0-8,0-12.23-.06a.89.89,0,0,0-.15.84,28.9,28.9,0,0,1,1.05,6.65c-4.15,3.58-8.72,6.67-12.47,10.69-3.07,3.28-5.87,6.78-8.84,10.13-.74,0-1.54.05-2.17,0-1.65-.2-3.28-.55-4.92-.76s-3.56-.41-5.33-.6-3.56-.63-5.21-.17a.65.65,0,0,0,0,1.24c1.57.66,3.53.57,5.21.76,1.95.22,3.91.39,5.86.62a39.62,39.62,0,0,0,5,.66q-1.44,1.57-3,3.08c-2.49,2.4-5,4.73-7.65,7-3.73-1-7.72-.28-11.5-1.07-3.24-.67-6.92-1.86-10.27-1.2-3.79-4.68-7-9.83-11.17-14.2-1-1-2-2-3-3,2.64-.76,5.27-1.71,7.87-2.57,2.34-.77,5.57-1.61,7.26-3.49a.6.6,0,0,0-.58-1,26.28,26.28,0,0,0-3.62,1.58c-1.4.61-2.85,1.12-4.3,1.62a47.46,47.46,0,0,0-7.65,2.86q-1.56-1.5-3.14-3c-2-1.89-4.26-3.62-6.12-5.66-1.5-1.64-4.89-6.89-8-7.77,0-.29,0-.58,0-.87a26.44,26.44,0,0,0,.12-4.07l-12.34-.2c0,.53,0,1.06,0,1.58-.07,3.74-.07,7.48,0,11.22-2.59,2.36-5.19,4.71-7.89,7-3.95,3.33-8,6.53-11.71,10.13a.42.42,0,0,0-.18-.11c-1.45-.59-3-1-4.43-1.54s-2.72-1.65-4.17-2.3c-.59-.26-1.39.31-1,1,1.63,2.51,5.78,3.82,8.8,3.9-3.47,3.43-7.16,6.64-10.64,10.05a.68.68,0,0,0-.6-.41c-2.74-.13-5.39.68-8.12.76-2.11.07-4.17-.22-6.27-.18-1.47-1.74-2.86-3.55-4.22-5.39,2.3.33,4.67.08,7,.33,2.82.29,7.12,1.67,9.57-.25.32-.25.09-.71-.22-.83-1.39-.5-3-.21-4.47-.3s-3-.27-4.57-.4c-2.85-.23-5.72.24-8.54-.22a103.68,103.68,0,0,0-10.09-12.54c-3.93-3.92-8.65-7-12.52-10.94-1.21-1.25-2.68-3.16-4.35-4.62.1-1.25.17-2.51.23-3.76a17.62,17.62,0,0,0,.29-2.41q-6.7.06-12.46.17a28.51,28.51,0,0,0,.1,4.53,46.72,46.72,0,0,0,.19,6.94c.14,2.87,0,5.77-.1,8.65-1.13,1.12-2.29,2.2-3.47,3.26l-2.82,2.53a21.68,21.68,0,0,0-6.28-.34c-1.42.09-2.84.24-4.26.44-1.18.16-2.8.13-3.72.95a.56.56,0,0,0,.24.93c.92.32,2-.1,2.94-.26,1.51-.25,3-.44,4.54-.55a34.21,34.21,0,0,1,5.26,0c-1.94,1.78-3.85,3.59-5.7,5.51-3.42,3.55-6.56,7.39-10.07,10.85-1.79,1.76-3.62,3.5-5.41,5.28a35.43,35.43,0,0,0-4.83,5.34c-.12.19.12.38.3.29a30.28,30.28,0,0,0,5.74-4.42c1.89-1.68,3.7-3.44,5.53-5.16,3.63-3.43,7.56-6.74,11.5-9.8l.51-.4a26.41,26.41,0,0,0-.71,4.46c-.13,1.44-.21,2.89-.28,4.33a29.05,29.05,0,0,0-.2,4.36.53.53,0,0,0,1,.14,12.19,12.19,0,0,0,.37-3.52c.07-1.43.09-2.86.15-4.29a34.14,34.14,0,0,1,.66-6.27,108.07,108.07,0,0,0,8.61-7.29l.16-.15c-.08,6.14.28,12.3.8,18.44-4.24,4.1-8.89,7.75-13.45,11.47-1,.83-2.08,1.64-3.15,2.46-.74-.15-1.49-.3-2.21-.51-1-.29-1.6-1.08-2.51-1.36a.4.4,0,0,0-.51.38c.05,1.83,2.27,2.21,4.1,2.34-3.31,2.54-6.61,5.22-8.74,8.69-.2.33.25.64.53.4A52.22,52.22,0,0,1,55,309a58.63,58.63,0,0,0,7.12-5.67l.91-.78c-.16,1.35-.38,2.7-.65,4s-.54,2.51-.85,3.75a6,6,0,0,0-.44,2.87.35.35,0,0,0,.57.15c.78-.72.89-1.95,1.14-2.95.32-1.24.59-2.5.82-3.76a27.53,27.53,0,0,0,.76-5.26,87.66,87.66,0,0,0,9.15-8.82c.29,3.23.61,6.45.92,9.67.83,8.56,1.13,17.15,1.3,25.74l-.33.34c-.68.77-1.31,1.57-2,2.36a39.47,39.47,0,0,1-4,4.33,22.68,22.68,0,0,1-1.83,1.44,23.12,23.12,0,0,1-5.09-.83,22.47,22.47,0,0,1-2.89-1,9.49,9.49,0,0,0-2.11-.95c-.39-.06-.84.34-.57.74,1,1.42,3.67,2.06,5.23,2.44a18.42,18.42,0,0,0,4,.59,27.25,27.25,0,0,0-5.41,4.35c-2.59,2.94-5.15,5.9-7.78,8.81-2.46,2.73-5.63,4.55-7.72,7.66-.46.68.63,1.31,1.09.64,2.25-3.29,5.66-5.42,8.81-7.73a31.27,31.27,0,0,0,4.43-4.06c0,.68.11,1.36.19,2,.12,1.07.29,2.13.44,3.2.18,1.23.13,2.51.41,3.72.1.48.74.39.88,0,.61-1.68,0-3.87-.3-5.57a20.36,20.36,0,0,1-.3-4.74c.77-.85,1.54-1.71,2.35-2.56,1.93-2,4.37-3.4,6.56-5.09-.41,2.23-.9,4.43-1.44,6.67a41.51,41.51,0,0,0-.77,4.57,44.32,44.32,0,0,0-.63,5.24.54.54,0,0,0,1,.27,11.68,11.68,0,0,0,1-4.25c.24-1.92.44-3.83.87-5.72a51.45,51.45,0,0,0,1.6-8.2,36.84,36.84,0,0,0,3.63-4.25l.68-.9c.16,10.54.19,21.08.81,31.6.08,1.42.2,2.84.35,4.28-1.5,1.06-2.5,3.32-3.6,4.74-1.3,1.68-2.61,3.39-4,5a32.57,32.57,0,0,1-5.72-.81.66.66,0,0,0-.35,1.28,11.76,11.76,0,0,0,5,.69,42.09,42.09,0,0,0-3.14,3.53c-1,1.41-2.4,2.83-2.57,4.64,0,.47,2.12-1.17,2.78-1.92a18,18,0,0,1,2.11-1.89,27.28,27.28,0,0,0,4.21-4.18,57.71,57.71,0,0,0,3.44-5.29c.54-.91,1.37-2.07,1.93-3.25.18,3.63.63,7.26.77,10.89,0,1.17.19,2.43.33,3.7-.07,2.41.46,7.25.38,8.63.22.75.74.3,1.14-.66,1.27-3,.35-6.8.07-9.95,0-.32,0-.64-.08-1,0-1.91-.18-3.82-.35-5.73s-.16-4-.24-6a85.25,85.25,0,0,1,.22-8.89,51.08,51.08,0,0,0,4.91,5.28c1.37,1.36,2.85,2.62,4.24,3.95a38.59,38.59,0,0,0,.09,9.55.36.36,0,0,0,.69,0,36.33,36.33,0,0,0,.17-8.61l.62.66c1,1.15,2.05,2.32,3.07,3.5a14.86,14.86,0,0,0,3.36,3.4.47.47,0,0,0,.69-.53,12.18,12.18,0,0,0-2.19-3.47c-.85-1.14-1.72-2.27-2.54-3.42-1.59-2.23-2.95-4.69-4.75-6.75-.39-.44-.79-.87-1.2-1.28a25.75,25.75,0,0,0,4.66-.47,30.07,30.07,0,0,0,7.23-1.94c.68-.31.16-1.21-.47-1.11-2.21.34-4.36,1.2-6.55,1.66a41.1,41.1,0,0,1-5.87.85c-1-.94-1.93-1.87-2.83-2.86s-2-2.15-3-3.27l.06-.85c.29-5.07.6-10.12.78-15.2.12-3.36.21-6.73.27-10.09.33.5.68,1,1.06,1.48a61,61,0,0,0,4.53,5.11h0a74.33,74.33,0,0,0,0,9.44c.06,2.38-.06,6,1.52,7.92a.56.56,0,0,0,1-.4c0-1.24-.53-2.48-.7-3.73a43.94,43.94,0,0,1-.35-4.86c-.06-2.24.2-4.71-.08-7,.8.83,1.59,1.67,2.35,2.54,2.8,3.17,5.28,6.47,8.36,9.39a116.73,116.73,0,0,0,9.59,8.19c.53.4,1-.41.67-.85-1.83-2.19-3.87-4.22-5.89-6.26,2.18-.8,4.19-2.08,6.49-2.59,2.63-.58,5.48-.67,7.57-2.56.5-.46-.14-1.26-.72-.93-2.5,1.44-5.22,1.62-7.94,2.39a42.82,42.82,0,0,0-6.25,2.84c-.69-.7-1.37-1.4-2-2.11-3-3.14-5.46-6.63-8.32-9.84-2.73-3.05-5.84-5.78-8.29-9.07-.85-1.13-1.55-2.69-2.41-4.09q.06-7.47-.2-14.94-.12-3-.15-6a.71.71,0,0,0,.1.14,39.68,39.68,0,0,0,3.58,4.78c3.65,3.95,7.23,8.07,11.18,11.73,2.21,2.05,4.54,4,6.76,6.09a71.61,71.61,0,0,0-.71,7.17,26.09,26.09,0,0,0,.1,7.54.68.68,0,0,0,1.33-.18c0-2.57-.18-5.11,0-7.68a43.68,43.68,0,0,0,.17-6.05c1.2,1.16,2.37,2.36,3.46,3.63,3.13,3.68,5.45,8.25,9.91,10.57a.15.15,0,0,0,.18-.24,62.55,62.55,0,0,1-5.19-6.36c-.54-.74-1.06-1.49-1.58-2.25a19.32,19.32,0,0,0,4.73-1.27c2-.69,4-1.49,5.92-2.3a72.54,72.54,0,0,1,11.83-3.91c.85-.19.68-1.65-.21-1.55-4.09.44-8,2.19-11.77,3.76-2,.82-3.91,1.66-5.89,2.43-1.69.67-3.68,1-5.3,1.86-.57-.82-1.15-1.63-1.77-2.41-2.15-2.74-4.64-5.2-7-7.78a29.57,29.57,0,0,1,1-4.59A20.36,20.36,0,0,1,103.4,313a.12.12,0,0,0,.1,0c2.24-.83,4.18-2.67,6-4.22a.47.47,0,0,0,.39-.2l.13-.23h0c2-1.67,4.12-3.3,6.21-4.91-.08.3-.15.6-.21.85a27.19,27.19,0,0,0-.63,5.25c-.1,2-.1,3.93-.09,5.89,0,1.14-.32,2.91.08,4.06a16.24,16.24,0,0,0-4.31,4.41.16.16,0,0,0,.22.22,15.46,15.46,0,0,0,3.57-2.73c1.31-1.14,2.61-2.29,4-3.36a87.16,87.16,0,0,0,7.28-5.62c2.18-2.07,4.44-4.15,6.79-6a75.54,75.54,0,0,1,8.31-5.49l2.77-1.68a78.39,78.39,0,0,1-1.78,8.26c-.88,3.38-2.25,7.21-2,10.74a.5.5,0,0,0,1,.13c.51-1.85.69-3.79,1.12-5.67s.92-3.85,1.38-5.76a50.93,50.93,0,0,0,1.48-8.44c1.35-.86,2.67-1.75,4-2.74,2.61-2,5.12-4.16,7.56-6.37s4.57-4.24,6.73-6.48l.1-.1c.13,5.38.23,10.75.24,16.14,0,4.51,0,9,0,13.57-3.32,1.42-6.29,4.17-8.89,6.37l-1.1.93c-2-1-5-.62-7.11-.62a42.91,42.91,0,0,1-9.2-.55c-.79-.17-1.13,1-.33,1.22a36.94,36.94,0,0,0,8.66.61c1.52,0,3-.07,4.54,0,.81,0,1.64.16,2.46.19a60.11,60.11,0,0,0-10.08,10.28c-.24.34.22.76.55.56a31.48,31.48,0,0,0,4.72-3.81c-.24,2.21-.34,4.44-.5,6.66a39.8,39.8,0,0,1-.68,5.23c-.32,1.56-1.09,3.06-1.32,4.62-.08.59.6,1.15,1.09.64,2.05-2.14,2.22-6.36,2.48-9.16.28-3.06.26-6.13.26-9.2l.39-.34c1.92-1.65,3.91-3.2,5.82-4.85a57,57,0,0,1,8.25-6.46c.1,12.49.43,25,1.72,37.39.36,3.4.77,6.82,1.16,10.24-1.27,1.17-2.5,2.38-3.76,3.56-1.93-.13-3.85-.08-5.79-.17-.56,0-3-.76-3.13.23-.25,1.54,5.14,1.15,7.93.87-.55.5-1.1,1-1.66,1.49-1.38,1.18-2.69,2.44-4.05,3.64a30.81,30.81,0,0,0-4,3.77.11.11,0,0,0,.11.17,16.27,16.27,0,0,0,4.78-2.4c.6-.39,1.2-.78,1.79-1.18-.12.93-.14,1.88-.18,2.8a22,22,0,0,0,.12,5.84c0,.26.41.22.49,0a16.91,16.91,0,0,0,.43-5.22c0-1.4.2-2.81.26-4.21.6-.43,1.18-.87,1.75-1.35a44.07,44.07,0,0,0,5.26-5.08,166.48,166.48,0,0,1,1.16,17.4.73.73,0,0,0,1.46,0q0-9.58.22-19.17a.7.7,0,0,0,.53-.78c-.11-.8-.2-1.6-.29-2.4.2.28.41.55.6.8,1.09,1.42,2.13,2.86,3.22,4.27.5.67,1.06,1.33,1.62,2s1.32,1.6,2.07,2.3c.11.1.36,0,.28-.17-.63-1.52-1.43-3-2.09-4.49-.37-.84-.8-1.67-1.25-2.49a49.05,49.05,0,0,0,5,0,22.72,22.72,0,0,0,4.74-.31.45.45,0,0,0,0-.87,16,16,0,0,0-4.74,0c-1.74.11-3.49.18-5.21.4a.4.4,0,0,0-.21.08c-.22-.39-.45-.77-.67-1.15-.76-1.33-1.64-2.58-2.38-3.91-.36-.63-.67-1.29-1-1.94q.33-11.08.85-22.17a41.48,41.48,0,0,1,3.48,4,.6.6,0,0,0-.1.23,49.36,49.36,0,0,0-.68,6.43c-.08,2-.5,4.55.17,6.46a.55.55,0,0,0,1.05,0c.65-1.85.27-4.21.34-6.15s.2-3.64.41-5.46c.6.76,1.21,1.51,1.83,2.21a81.4,81.4,0,0,0,5.95,5.65c1.9,1.74,4,4.34,6.51,5.12a.17.17,0,0,0,.19-.25,16,16,0,0,0-2.91-3.3c-1.17-1.22-2.27-2.5-3.39-3.76-1.44-1.61-3-3.12-4.42-4.71a17.28,17.28,0,0,0,6-.93,49.41,49.41,0,0,0,4.89-1.67,17.09,17.09,0,0,0,3.72-1.68c1,1,2,2.07,3,3.06,2.1,2.05,4.25,4,6.36,6.09,1.83,1.78,3.84,4.34,6.25,5.31.34.14.53-.29.42-.55a12.28,12.28,0,0,0-2.58-3.22c-.91-1-1.83-1.93-2.75-2.88l-.71-.74c5.08-2.05,8.66-6.52,12.21-10.54s7.7-7.05,11.4-10.7c.86-.73,1.7-1.47,2.53-2.21a39.14,39.14,0,0,0,3.84-3.78l.24,0a.31.31,0,0,0,.19-.45c.34-.42.68-.85,1-1.29a52.18,52.18,0,0,1,4.17-5.82,23.1,23.1,0,0,1,2.67-2.36q-.5,2.52-1,5c-.51,2.54-1.52,5.39-1.41,8,0,.37.6.61.78.21,1.08-2.47,1.29-5.56,1.82-8.2q.58-3,1-5.92c1.11-.81,2.24-1.58,3.32-2.38,4-3,7.29-6.74,10.73-10.35,1.81-1.88,3.59-3.8,5.46-5.63l1.09-1.06q.38,6.09.65,12.19c.17,3.52.32,7,.45,10.55-2.87,2.5-6.22,4.43-9.14,6.89-3.76,3.17-6.74,7.18-10.29,10.56-1.45,1.38-2.94,2.71-4.44,4-1.65-.11-3.29-.3-4.93-.55-1.4-.21-3.08-.78-4.41-.14a.34.34,0,0,0-.07.55c1.16,1,3.1.92,4.59,1.1,1.15.13,2.28.23,3.42.27-2.05,1.79-4.11,3.56-6.11,5.4a77.68,77.68,0,0,0-5.48,5.56c-1.75,2-3.91,3.66-5.36,5.86-.26.39.23.75.58.59,2.49-1.14,4.66-3.2,6.85-4.82a70,70,0,0,0,5.81-4.79c4-3.65,8.25-7.12,12.14-10.89,1.65-1.59,3.2-3.27,4.75-5-.92,3.18-1.5,6.44-2.15,9.69-.43,2.11-.87,4.22-1.44,6.3s-1.59,4-1.85,6.05a.45.45,0,0,0,.75.31c1.2-1.5,1.64-3.61,2.14-5.43.6-2.18,1-4.4,1.48-6.62.75-4,1.48-8,2.53-11.91,1.28-1.41,2.57-2.81,3.91-4.16,2.22-2.24,4.65-4.21,6.82-6.46.15,4.27.29,8.54.39,12.81.22,8.32,1,16.49,1.77,24.77.26,2.77.47,5.52.58,8.28,0,.3,0,.6,0,.9-.9,2.2-3.1,3.87-5,5.46a28.33,28.33,0,0,1-3.69-1.3,32.12,32.12,0,0,0-3.6-1.84.48.48,0,0,0-.54.69c1.2,1.9,4.11,3.12,6.61,3.49l-.44.42c-1.37,1.34-2.72,2.65-4.21,3.87a16.72,16.72,0,0,0-3,2.89c-.35.49.31,1,.76.76a25.19,25.19,0,0,0,4.11-2.86c.64-.48,1.3-.94,2-1.4-.14,1.32-.12,2.67-.18,4a18.07,18.07,0,0,0,0,5,.32.32,0,0,0,.62,0,20.68,20.68,0,0,0,.37-5,27.53,27.53,0,0,0,0-4.54,27.07,27.07,0,0,0,2.31-1.81,23.56,23.56,0,0,0,4-4.31c0,1.72,0,3.45,0,5.18-.11,3.71-.18,7.43.06,11.14a.75.75,0,0,0,1.5,0c-.06-8.45.14-16.89.49-25.33a43.07,43.07,0,0,0,5,6.57q1.32,1.51,2.7,3c-.28,1.56-.41,3.15-.73,4.7s-1.06,3.47-1,5.2a.27.27,0,0,0,.49.14c1.08-1.44,1.36-3.58,1.67-5.32a34,34,0,0,0,.54-3.7,55.79,55.79,0,0,0,4.19,4,.71.71,0,0,0,1-1c-2.41-2.59-5.05-4.95-7.42-7.57l-.1-.11a25.9,25.9,0,0,0,5-2.41,38.06,38.06,0,0,0,4.9-3.18c.18-.14,0-.37-.19-.34a15.54,15.54,0,0,0-5.05,2.36,56.67,56.67,0,0,1-5.25,2.87,80,80,0,0,1-5.61-7.34q.4-9.14,1-18.24a27.25,27.25,0,0,0,1.75,2.09c1.75,1.87,3.84,3.38,5.68,5.15a26.38,26.38,0,0,1,4.15,6.06.43.43,0,0,0,.78-.33c-.36-2-1.78-3.78-2.91-5.37-.54-.77-1.07-1.55-1.59-2.32a48,48,0,0,0,5.23-1.39c1.69-.56,3.93-1.12,5.18-2.46a.31.31,0,0,0-.3-.51c-2,.28-3.85,1.44-5.72,2.1-1.6.56-3.21,1.06-4.8,1.65-.7-1-1.4-2.06-2.13-3.08-1.36-1.88-2.87-3.7-4.06-5.7-.3-.5-.61-1.05-.91-1.63q.43-7,.86-13.92.32-5.32.55-10.66c1.52,2.36,3.59,4.52,5.21,6.58.81,1,1.63,2,2.46,3a31.22,31.22,0,0,0-.74,7.76c0,1.66.05,3.32,0,5a20.84,20.84,0,0,0,.12,4.87.4.4,0,0,0,.73.09c1.26-2.58.6-6.28.52-9.06a67.38,67.38,0,0,1,0-7.78,57.88,57.88,0,0,0,5.43,5.65c3.08,2.76,6.05,5.52,8.89,8.51,1.35,1.41,2.82,2.65,4.21,4s2.54,2.94,3.92,4.29c.36.35,1.1,0,.89-.52-1.26-3.24-4.68-5.75-6.95-8.29-1.32-1.47-2.37-3.18-3.67-4.69-1.43-1.66-2.84-3.33-4.26-5l-.24-.29a62.72,62.72,0,0,0,7.43-.69,86.19,86.19,0,0,0,10.35-1.82.46.46,0,0,0-.12-.9c-3.24.16-6.42.85-9.63,1.31-3,.42-6,.6-9,.89l-7-8.4c-1.34-1.59-2.67-3.2-4-4.81a17.23,17.23,0,0,0-4.4-4.16c.3-7.17.53-14.35.75-21.53,4.08,4.59,9.5,8.17,14.14,12.18a23.47,23.47,0,0,0-.4,5.74c0,3.07,0,6-.28,9.06-.05.63.84.67,1,.14.89-2.49.51-5.56.44-8.16a33.32,33.32,0,0,1,.25-5.86c.43.39.86.78,1.28,1.19,3.45,3.36,6.45,7.14,9.86,10.55,1.83,1.82,3.68,3.64,5.65,5.31a22.62,22.62,0,0,0,5.59,3.89C311.93,308.27,312.21,307.21,311.7,306.82ZM75.41,271.27c0-.07,0-.14,0-.21v.2ZM77.74,343c0-.31,0-.61,0-.92h0Zm45.4-54.7c2.6,0,5.15-.57,7.75-.6-.2.19-.4.38-.59.58-1.93,2-3.86,4-5.84,5.91a43.91,43.91,0,0,1-6.81-6.39A53.32,53.32,0,0,0,123.14,288.31Zm-32.75,21c0,.08,0,.15,0,.23-1.37-1.4-2.76-2.79-4-4.26s-2.34-3.18-3.61-4.69a11.33,11.33,0,0,0-2.35-2.2c0-5.19.27-10.37.69-15.58a84.3,84.3,0,0,0,9.8,12.51l.33.36c-1.14,2.3-1,5.67-1,7.95C90.17,305.54,90.29,307.43,90.39,309.32Zm9.54,7.09a17.7,17.7,0,0,0-1.15,3.69c-.67-.79-1.32-1.6-1.94-2.44-.94-1.29-1.81-2.61-2.75-3.88,1.35-.3,2.72-.78,3.9-1,1.58-.36,3.19-.64,4.79-1A18,18,0,0,0,99.93,316.41Zm-2-5c-1.51.32-3.33.53-4.93,1-.24-.28-.48-.57-.73-.84l-.33-.36c0-.47-.1-.92-.12-1.33-.08-1.8-.17-3.59-.21-5.39a41.16,41.16,0,0,1,.14-5.09,19.07,19.07,0,0,1,.5-2.5c1.9,2.19,3.62,4.53,5.45,6.78,2,2.43,4.72,4.2,6.6,6.67A40,40,0,0,0,97.91,311.37Zm7.83-1.71c-.28-.24-.35-.72-.54-1.1a13.68,13.68,0,0,0-1.24-1.95,26.28,26.28,0,0,0-2.12-2.47q1.6.87,3.3,1.59a19.19,19.19,0,0,0,3.66,1.42C107.77,307.94,106.71,308.77,105.74,309.66Zm3.67-7.08c-.11.89-.39,2-.51,3.13a2,2,0,0,1-.26-.06,29.32,29.32,0,0,1-3.27-1.12c-1.81-.71-3.57-1.57-5.32-2.43-2.2-2.71-4-5.81-6.1-8.55-2.5-3.19-5.12-6.29-7.71-9.4-1.43-1.72-2.83-4.27-4.75-5.75.7-6.93,1.73-13.87,2.46-20.82.79.92,1.59,1.83,2.42,2.7,4,4.12,8.74,7.38,12.73,11.51,1.42,1.47,2.84,2.94,4.23,4.43-.1,2.19-.21,4.39-.44,6.58-.18,1.75-.39,3.49-.61,5.24-.2,1.54-.75,3.34-.26,4.85a.42.42,0,0,0,.76.1c.77-1.24.71-2.93.89-4.35.22-1.84.45-3.68.64-5.53s.37-3.52.48-5.31l.39.42c2,2.17,3.86,4.52,6,6.51l.27.26a2.86,2.86,0,0,0-.08.7c-.07,1.09-.07,2.19-.16,3.29-.2,2.38-.53,4.76-.87,7.13C110,298.26,109.7,300.42,109.41,302.58Zm1,3.28v-.05c.12-1.27.27-2.55.44-3.83.33-2.49.71-5,1-7.48a64.13,64.13,0,0,0,.59-7.19c0-.09,0-.67,0-1.28,1.61,1.62,3.15,3.32,4.91,4.81a40.67,40.67,0,0,0,6.1,4.26c-1.76,1.68-3.56,3.3-5.46,4.81C115.56,301.91,113,303.84,110.45,305.86Zm50.22-25.76c-2.34,2.06-4.65,4.15-7,6.19s-5.08,4.27-7.63,6.38-4.73,4.18-7.22,6.12c-1.43,1.11-2.9,2.19-4.34,3.29-1.35-.05-2.69-.09-4-.25s-2.84-.77-4.26-.94c-.21,0-.37.19-.38.37-.07,1.56,2.57,1.67,3.63,1.81a31.2,31.2,0,0,0,3.4.27c-.54.43-1.08.86-1.61,1.31-2.34,2-4,4.48-6.18,6.64s-4.54,4.1-6.85,6c-.44.37-.91.73-1.39,1.1,0-.83-.08-1.74-.09-2.4,0-1.79,0-3.58,0-5.37a45.83,45.83,0,0,1,.34-5.11,13.64,13.64,0,0,1,.45-2.29c.11-.36.3-.71.41-1.08,4.27-3.3,8.12-7.05,12.07-10.72,4.27-4,9.31-6.81,13.83-10.44,1.93-1.55,3.84-3.11,5.75-4.68-.12.55-.22,1.11-.33,1.66-.22,1.22-.4,2.45-.57,3.67a12,12,0,0,0-.36,3.3c.07.54.87,1,1.17.32.9-1.88.81-4.57,1.13-6.63.19-1.25.41-2.5.69-3.74,1.85-1.53,3.71-3.07,5.55-4.61,2.09-1.76,4.24-3.54,6.33-5.39.07,4.27.18,8.55.29,12.82C162.51,278.53,161.58,279.3,160.67,280.1Zm6.29,61c0,.1,0,.2,0,.3,0-.72,0-1.45-.07-2.17,0,.27.09.54.14.82S167,340.8,167,341.15Zm51.73-52.92c3.11.61,6.38.15,9.49.73a66.18,66.18,0,0,0-6.57,6c-.52.56-1,1.14-1.51,1.73-2.53-.33-4.58-2.3-6.21-4.09-1.79-2-3.63-3.91-5.35-5.94C212,286.55,215.27,287.56,218.69,288.23Zm-5.61,11.89c0-.16,0-.33,0-.49,0-1.19,0-2.37,0-3.56,0-.39,0-.75,0-1.08.39.35.79.7,1.19,1a7.43,7.43,0,0,0,4.87,1.76c-2,2.51-4,5.1-6.19,7.45,0-1.39.07-2.77.1-4.16A.63.63,0,0,0,213.08,300.12Zm-38.34-23.64c.49-6.82.59-13.65.58-20.48.45.49.88,1,1.31,1.5,1.53,1.85,2.84,3.91,4.55,5.6,4.63,4.59,9.54,8.93,14.21,13.48l.91.91a38.34,38.34,0,0,0-.61,5.91,34.1,34.1,0,0,1-1.72,8.84c-.29.81,1,1.31,1.37.58a19.08,19.08,0,0,0,1.92-8c.16-1.91.4-3.88.54-5.83,3.65,3.76,7.12,7.71,10.81,11.43,1.26,1.27,2.49,2.63,3.8,3.89a4.09,4.09,0,0,0-.21,1.74c-.06,1.19-.12,2.37-.19,3.56l0,.43c-3.45.66-6.78,2.28-10.06,3.47a77.78,77.78,0,0,1-9.51,2.69,57.76,57.76,0,0,0-5-6.18c-2.22-2.26-4.39-4.56-6.59-6.84a17.73,17.73,0,0,1,5-1.69c1.85-.38,4.33-.52,5.83-1.8.37-.33,0-.82-.44-.75-2.32.37-4.72,1.12-7,1.68a12.3,12.3,0,0,0-4.29,1.61c-1.11-1.11-2.28-2.17-3.49-3.18a19,19,0,0,0-2.45-1.93C174.22,283.59,174.48,280,174.74,276.48Zm29.88,27.73c2.44-.85,4.89-1.69,7.28-2.63-.07,1.63-.12,3.26-.16,4.9-.62.6-1.26,1.18-1.93,1.73-1.72,1.41-3.52,2.75-5.31,4.1,0-1.51,0-3,.09-4.54A12.09,12.09,0,0,0,204.62,304.21Zm-1.48,9.14c-1.19.92-2.36,1.87-3.48,2.87-.88-1.24-1.62-2.57-2.52-3.81s-2-2.64-3-3.92c-.27-.34-.53-.68-.79-1a39.59,39.59,0,0,0,8.69-2.34l1.57-.56a18.66,18.66,0,0,0-.34,3.21A27.41,27.41,0,0,0,203.14,313.35Zm-29.45-22.84.4.44c1.14,1.28,2.23,2.6,3.37,3.89,1.61,1.84,3.2,3.71,4.82,5.54.06,2.29-.13,4.6-.26,6.86-.18,3.09-.52,6.6.77,9.5a.43.43,0,0,0,.8-.21,64.11,64.11,0,0,1-.32-10.46c.08-1.53.14-3,.09-4.51.33.37.66.73,1,1.09a38.3,38.3,0,0,0,3.74,3.11,42.24,42.24,0,0,1,3.84,3.6c1.21,1.29,2.39,2.61,3.59,3.9s2.44,2.25,3.63,3.4a32.71,32.71,0,0,0-3.62,3.82c-2.32,1.27-5,1.44-7.65,1.87-2.94-3-6.22-5.57-9.42-8.29a49.75,49.75,0,0,1-4.85-4.56c-.43-.47-.84-1-1.24-1.47Q173,299.27,173.69,290.51Zm21.54,32.3-.43.61a26.31,26.31,0,0,0-2.52,4.07c-1-1.33-2.07-2.63-3.19-3.87a19.87,19.87,0,0,0,5.54-1.56A1,1,0,0,0,195.23,322.81Zm-5,12.1c-1.45.58-2.91,1.13-4.39,1.61-2.42.77-5.1,1.51-7.66,1.1-2-2.41-4.29-5.63-7.17-7.3,0-.33,0-.66,0-1,.26-5.45.6-10.89,1-16.33.9,1,1.85,1.93,2.83,2.83,3.63,3.33,7.6,6.2,11,9.83,2.45,2.64,4.81,5.4,7.26,8.08A28.22,28.22,0,0,0,190.26,334.91Zm12.28,5.4c-1.27-1.33-2.52-2.69-3.69-4.11-1.53-1.86-2.95-3.83-4.38-5.78a51.41,51.41,0,0,0,8.31,1.94c1.75.29,3.51.51,5.28.67,1.06.1,2.36.35,3.58.38A26.34,26.34,0,0,1,202.54,340.31Zm59-57.66a55,55,0,0,0-5.75,5l-1.8,1.83c-2.07-.48-4.12-1-6.22-1.37-1.65-.27-5.41-1.31-6.64.16a.59.59,0,0,0,0,.8c.79.7,1.63.48,2.63.5a34.12,34.12,0,0,1,4.4.42c1.59.24,3.12.49,4.68.65L245,298.61c-2,2.06-4.25,3.87-6.33,5.86a24.72,24.72,0,0,0-4.1,6,19.73,19.73,0,0,1-2.28,3.18c-1.18-.07-2.38,0-3.53,0a33.56,33.56,0,0,0-5.4.06.53.53,0,0,0,0,1,34.76,34.76,0,0,0,5.4.06c.83,0,1.68,0,2.54,0-.65.67-1.33,1.32-2,2-2,1.83-4.41,3.43-6.25,5.48a.68.68,0,0,0-.16.6,48.84,48.84,0,0,0-7.36,6.36c-.93,1-1.84,2.06-2.76,3.08-1.14-.19-2.39-.1-3.5-.19q-3.1-.24-6.18-.72c-3.24-.5-6.38-1.34-9.55-2.13l0,0c.32-.62.57-1.28.89-1.91.56-1.12,1.17-2.22,1.78-3.31s1.62-2.46,2.38-3.75c3.42-3.69,7.78-6.5,11.71-9.59a45.56,45.56,0,0,0,3.55-3.08c0,.6,0,1.2-.06,1.8-.13,1.58-.37,3.16-.64,4.72-.24,1.41-.52,2.82-.8,4.22a9.57,9.57,0,0,0-.38,3.18c0,.36.6.39.76.1a12.6,12.6,0,0,0,.9-3.55c.3-1.51.6-3,.85-4.54a23.85,23.85,0,0,0,.5-7.06c.52-.55,1-1.11,1.51-1.7,1.92-2.29,3.64-4.74,5.61-7,2.21-2.54,5-4.21,7.65-6.22,1.46-1.09,2.89-2.21,4.32-3.33,0,1.2.06,2.4.16,3.64.15,1.94,0,4.1.6,6a.64.64,0,0,0,1.22,0c.56-1.9.15-4,0-6-.14-1.6-.33-3.19-.51-4.78l2.24-1.75a56.5,56.5,0,0,0,7.71-6.95c2.19-2.46,4.24-5,6.42-7.49,3.34-3.76,7.31-6.75,11.14-9.92a87.58,87.58,0,0,0,0,10.5c.28,3.26.53,6.53.75,9.79A25.87,25.87,0,0,0,261.51,282.65Zm7.55,36.2c0-.4,0-.8-.05-1.2a.88.88,0,0,0,0-.16h.14C269.11,317.94,269.08,318.4,269.06,318.85Zm1.42-37.79-.18-.61c.07-.88.15-1.76.23-2.64C270.52,278.89,270.5,280,270.48,281.06Z"/><path class="cls-5" d="M262.07,136s-.76,14.17-.76,20,.6,25.93.76,36.64.9,26.23.9,33.47-.9,21.62-.9,21.62l12.23.06s.14-23.6-.77-34.78-1.37-46.07-1-52.48,0-25.18,0-25.18Z"/><path class="cls-7" d="M216.17,212.14s-5.86,12.54-8.6,18.61S200,247.58,200,247.58s5.15-.28,14.73-.06,15.28.66,15.28.66S219,220.55,218.2,218.11s-2-6-2-6"/><path class="cls-8" d="M216.17,212.14s14.34-.11,21.45-.13,13.69-.51,13.69-.51,5.52,20.34,7.2,25.09,4.22,11,4.22,11-32.12.64-33.16.61S216.17,212.14,216.17,212.14Z"/><path class="cls-9" d="M216.25,212.46s-.2,13.81-.14,17-.54,13.45-.53,15.06-.1,2.5.18,3l-1-.06s.08-2.62,0-4,.42-15.08.75-19.06S216.25,212.46,216.25,212.46Z"/><path class="cls-9" d="M118.08,236.24a9.37,9.37,0,0,0-9.36,9.37h18.73A9.37,9.37,0,0,0,118.08,236.24Z"/><polygon class="cls-9" points="119.5 211.91 128.41 209.76 128.19 208.89 119.5 210.4 119.5 211.91"/><path class="cls-9" d="M125.31,209.84l-1.91-4s-4.49.24-3.9,4.51C120.8,210.77,125.31,209.84,125.31,209.84Z"/><path class="cls-9" d="M125.31,210.4l1.6,8.21s-5.77,2.67-7.41-6.7a4.14,4.14,0,0,1,4.46-3.25Z"/><path class="cls-9" d="M121.63,215.07a9.88,9.88,0,0,0-1.93,4.24c-.18,2,2.68,1.64,2.68,1.64s.36-4.07.83-4.9S121.63,215.07,121.63,215.07Z"/><path class="cls-9" d="M117.46,219.74c.24-.57,4.18-.75,7.08.87-.08,2.67-.71,14.17-.71,14.17l-7.77-.43S114.41,226.66,117.46,219.74Z"/><path class="cls-9" d="M116.06,234.35s1.15,4.56,6.07,2.81,7.17-2.44,7.17-2.44-1.62,8.64-.5,10.63c1.5.14,5.12.17,5.12.17v-.9l-1.53-1.09,1.11-11.28,1.36,13.35h5.24v-1.05l-1.44-.69-.77-13.33s-.08-3.77-5.6-2S116.06,234.35,116.06,234.35Z"/><path class="cls-9" d="M117.75,220.08s3.93,12.27,15.14,8.93c1.06-.86-7,.44-12.82-8C118.77,220.53,117.75,220.08,117.75,220.08Z"/><path class="cls-9" d="M122.18,220.37s6,11.17,13.49,8.28c1.05-.86-5.36.43-11.13-8A5,5,0,0,0,122.18,220.37Z"/><path class="cls-10" d="M185.15,117.67c-.06,2.29.3,4.91-.43,7.11a2.53,2.53,0,0,1-2.11,1.69c0-1.3,0-2.61.06-3.92,0-.73,0-1.46,0-2.19,0-.15.09-2.06-.28-1.36a1,1,0,0,0-.16-1.24l0,0a1.08,1.08,0,0,0-1.79.47c-.63,4.19,0,8.6-.36,12.83-.21,2.19-1.11,3.93-3.37,4.42a23.52,23.52,0,0,1-2.63.4,149,149,0,0,1,1.18-18.34H163.92c-.25,2.87-.43,6-.56,9.21a3.85,3.85,0,0,1-3.94-2.61,13,13,0,0,1-.28-4.13c0-1,.27-2-.3-2.82a.41.41,0,0,0-.63-.08c-1,1.21-1,3.06-1.07,4.56a8.18,8.18,0,0,0,1,4.61,6.54,6.54,0,0,0,5.19,2.76c-.3,9.61-.15,20.17.15,29.15l11.13-12.09c-.08-1.65-.16-3.19-.27-4.59-.08-1.15-.14-2.34-.17-3.53.84,0,1.68-.15,2.44-.24a5.83,5.83,0,0,0,5-3.14c1-1.89,1-4,1-6.11a4.33,4.33,0,0,0,3.68-1.71c1.71-2.37,1.19-6.35,1.09-9.09A1.09,1.09,0,0,0,185.15,117.67Z"/><path class="cls-10" d="M98.87,156.25c0-.57.18-1.07.14-1.64a.38.38,0,0,0-.47-.36c-1.76.44-1.63,3-1.46,4.38.23,1.85.62,4.24-.82,5.72-1.7,1.76-5,2.09-7.31,2.27-1.81.15-3.63.17-5.45.21.15-2.85.26-4.61.26-4.61v-4.54l-10.66.42c-.16,3.87-.34,8.8-.47,13.49-2.29-.38-4.71-.63-6.25-2.5-2.3-2.78-1.16-7.07-1.4-10.33h0a1.17,1.17,0,0,0-2.33,0c-.33,3.75-.69,9.21,2.17,12.15a11.43,11.43,0,0,0,7.74,3c-.15,5.61-.23,10.55-.15,12.49.06,1.59.24,7,.4,13.05l9.87-10.73c.13-7,.43-14.13.69-19.23,4.75-.06,10.18.14,13.91-2.77a6.19,6.19,0,0,0,2.3-4.84,15.59,15.59,0,0,0-.38-3.48A11.61,11.61,0,0,1,98.87,156.25Z"/><path class="cls-10" d="M272.57,160.57c.41-6.42,0-25.18,0-25.18l-10.5.6s-.62,11.69-.74,18.24c-.3-.11-.6-.25-.85-.36a21,21,0,0,1-5.26-3.43c-1.89-1.66-2.56-4.05-3-6.48-.29-1.68-.4-3.4-.68-5.09-.18-1.12-.29-2.8-1.45-3.35a.39.39,0,0,0-.51.13,3,3,0,0,0-.19,2.19c.12,1.06.21,2.12.3,3.18a37.32,37.32,0,0,0,.76,5.67,11.14,11.14,0,0,0,4.35,6.53,18,18,0,0,0,6.49,3.55c0,5.86.47,21.27.68,31.89l10.46-11.36C272.38,169.52,272.41,163,272.57,160.57Z"/><path class="cls-8" d="M169.18,5s-5.69,23-8,37.08-6.48,28.61-8.75,36.45-11.3,39.85-11.76,42.31c5.28-.1,25.64-1,36.19,0a165.86,165.86,0,0,0,20.55.46s-8.49-34-9.55-41.26S179.15,50.51,177,41.16,169.18,5,169.18,5Z"/><path class="cls-8" d="M77.84,42.75S69.27,69.51,68.19,77.8s-10,37.12-12.06,49.45S48.8,158,48,160.32c3.43-.36,21.53,0,29.82-.18s17.79-.52,22.76-.5,9.23.09,9.23.09S100,127,96.38,110.81,81.91,60.31,81.15,57,77.84,42.75,77.84,42.75Z"/><path class="cls-7" d="M268.57,22.71a136.3,136.3,0,0,0-6.5,17.81c-3,10.25-9.37,27.95-14.17,40.66s-7.41,24.22-11,36.34a139.48,139.48,0,0,1-8.2,21.08s4,.57,22.06-.1,24.92.22,40,.33,16.69.28,16.69.28-7.05-25.13-12.72-38.79-12.11-32-16.18-44.87S268.57,22.71,268.57,22.71Z"/></g></svg>