<svg xmlns="http://www.w3.org/2000/svg" viewBox="0 0 350 400"><defs><style>.cls-1{fill:#dadbdc;}.cls-2{fill:#9c6bad;}.cls-15,.cls-3,.cls-7{fill:#393a35;}.cls-11,.cls-3{opacity:0.44;}.cls-4{fill:#fff;}.cls-5{fill:#af97c7;}.cls-15,.cls-6{opacity:0.22;}.cls-8{fill:#58595b;}.cls-9{fill:#7a478b;}.cls-10{fill:#a0a2a5;}.cls-12{fill:#8f4299;}.cls-13{fill:#b5b7b9;}.cls-14{fill:#36ff36;}.cls-16{fill:#d6d7d9;}</style></defs><title>tails_2.4_tools</title><g id="Layer_14" data-name="Layer 14"><path class="cls-1" d="M213.21,12.88c43,13.9,116,40,106,84s-18.9,84.62-12.77,114.69,61.7,82.15,18.49,130.43-199.64,83.41-255,10.94C11.06,275.78,27.15,209.26,39.12,176.29S16.25,69.43,58.5,32.76,179.07,1.82,213.21,12.88Z"/></g><g id="Layer_10" data-name="Layer 10"><path class="cls-2" d="M58.72,285.21s2.79-14.44,30.2-14.44c21.12,0,30.06,9.49,30.06,14.44,0,6.13-8.36,19.18-8.36,19.18l-36.07,1.54Z"/><path class="cls-3" d="M98.37,271.49a60.06,60.06,0,0,0-9.45-.72c-27.41,0-30.2,14.44-30.2,14.44l11.39,14.91Z"/><path class="cls-4" d="M60.45,290.16S65.83,277.32,87.06,277s30.1,12.48,30.1,12.48l-7.57,12-43.88-1.91Z"/><path class="cls-5" d="M58.85,285.68v20.06c9.07,10,41.46,15.78,60.13-.16,0-4.23,0-20.37,0-20.37C110.32,297.72,78.23,305.34,58.85,285.68Z"/><g class="cls-6"><path class="cls-7" d="M119,285.21c-3.19,4.61-9.57,8.56-17.33,10.72a67.75,67.75,0,0,1-11.33,19.55c10.13-.23,20.66-3.07,28.66-9.9C119,301.35,119,285.21,119,285.21Z"/></g><polygon class="cls-7" points="83.67 284.42 98.15 278.02 92.44 288.09 83.67 284.42"/></g><g id="Layer_12" data-name="Layer 12"><path class="cls-2" d="M198.2,76.25s11.29-11,14.92-11.49,26.13,6.89,28,10.13,1.84,65.38-.7,69.6S229,159.41,226,159.56s-26.15-7.21-28.47-10.19S197.27,80.33,198.2,76.25Z"/><path class="cls-5" d="M197.53,149.37c2.32,3,25.47,10.35,28.47,10.19a2.62,2.62,0,0,0,.89-.26c.91-15.84,2.4-69.62-.37-73.68-2.47-3.6-19.27-7.78-28.37-9.07C197.19,82.81,195.25,146.44,197.53,149.37Z"/><path class="cls-8" d="M221.21,90.57l-17.69-6a8.65,8.65,0,0,1-.92.67l-1,21.07.47.79.12.2,19,6.68c.22-.24.46-.47.69-.7V92C221.66,91.54,221.45,91,221.21,90.57Z"/><path class="cls-9" d="M201.82,126a1.71,1.71,0,0,0-.25-.53,1.63,1.63,0,0,0-.11-.17v0c-.27-.58-1-.6-1.07-.14l0,0a.71.71,0,0,0-.12.5,1,1,0,0,0,.36.64h0a.36.36,0,0,0,.12.08.33.33,0,0,0,.1.06.76.76,0,0,0,.18.09l.1,0h0l.07,0a.5.5,0,0,0,.21,0h.13A.48.48,0,0,0,201.82,126Z"/><path class="cls-9" d="M204.86,127a1.78,1.78,0,0,0-.25-.52c0-.06-.07-.12-.11-.17v0c-.28-.57-1-.59-1.08-.14l0,0a.74.74,0,0,0-.12.5,1.07,1.07,0,0,0,.36.64h0l.12.08.1.06a.64.64,0,0,0,.19.08l.09,0h0l.07,0a.42.42,0,0,0,.22,0h.13A.48.48,0,0,0,204.86,127Z"/><path class="cls-9" d="M207.61,127.87a1.71,1.71,0,0,0-.25-.53l-.11-.17v0c-.27-.58-1-.6-1.07-.14l0,0a.67.67,0,0,0-.12.49,1,1,0,0,0,.36.64h0a.36.36,0,0,0,.12.08.33.33,0,0,0,.1.06l.18.09.1,0h0l.07,0a.75.75,0,0,0,.21,0h.13A.48.48,0,0,0,207.61,127.87Z"/><path class="cls-9" d="M210.65,128.86a2,2,0,0,0-.25-.53c0-.06-.07-.12-.11-.17v0c-.28-.57-1-.59-1.08-.13l0,0a.75.75,0,0,0-.12.5,1,1,0,0,0,.36.64h0l.12.08.1.06a.46.46,0,0,0,.19.08l.09,0h0l.07,0a.42.42,0,0,0,.22,0h.13A.47.47,0,0,0,210.65,128.86Z"/><path class="cls-9" d="M213.82,129.88a1.91,1.91,0,0,0-.25-.52l-.12-.17v0c-.27-.57-1-.59-1.07-.14l0,0a.74.74,0,0,0-.12.5,1.07,1.07,0,0,0,.36.64h0l.12.08.1.06a.48.48,0,0,0,.18.08l.1,0h0l.07,0a.42.42,0,0,0,.22,0h.12A.49.49,0,0,0,213.82,129.88Z"/><path class="cls-9" d="M216.85,130.87a1.56,1.56,0,0,0-.25-.52,1.74,1.74,0,0,0-.11-.18v0c-.27-.58-1-.6-1.07-.14l0,.05a.67.67,0,0,0-.12.49,1,1,0,0,0,.36.64h0l.12.09.1.06.18.08a.29.29,0,0,0,.1,0h0l.07,0a.52.52,0,0,0,.21,0h.13A.48.48,0,0,0,216.85,130.87Z"/><path class="cls-9" d="M219.61,131.77a2,2,0,0,0-.25-.53l-.12-.17v0c-.27-.57-1-.59-1.07-.13l0,0a.76.76,0,0,0-.12.5,1,1,0,0,0,.36.64h0l.12.08.1.06.18.09.1,0h0a.11.11,0,0,0,.07,0,.42.42,0,0,0,.22,0h.12A.48.48,0,0,0,219.61,131.77Z"/><path class="cls-9" d="M222.64,132.75a1.56,1.56,0,0,0-.25-.52,1.74,1.74,0,0,0-.11-.18v0c-.27-.57-1-.6-1.07-.14l0,.05a.69.69,0,0,0-.12.5,1,1,0,0,0,.36.64h0a.38.38,0,0,0,.12.09l.1.06a.71.71,0,0,0,.18.08.29.29,0,0,0,.1,0h0l.07,0a.52.52,0,0,0,.21,0h.13A.47.47,0,0,0,222.64,132.75Z"/><path class="cls-9" d="M203.62,129.47a2,2,0,0,0-.25-.53c0-.06-.07-.12-.11-.17v0c-.28-.57-1-.59-1.08-.13l0,0a.76.76,0,0,0-.12.5,1,1,0,0,0,.36.64h0l.12.08.1.06a.66.66,0,0,0,.19.09l.09,0h0a.11.11,0,0,0,.07,0,.42.42,0,0,0,.22,0h.12A.47.47,0,0,0,203.62,129.47Z"/><path class="cls-9" d="M206.37,130.36a1.56,1.56,0,0,0-.25-.52,1.74,1.74,0,0,0-.11-.18v0c-.27-.58-1-.6-1.07-.14l0,.05a.67.67,0,0,0-.12.49,1,1,0,0,0,.35.64h0l.12.09.1.06.18.08.09,0h0l.08,0a.75.75,0,0,0,.21,0h.13A.48.48,0,0,0,206.37,130.36Z"/><path class="cls-9" d="M209.41,131.35a2,2,0,0,0-.25-.53l-.11-.17v0c-.28-.58-1-.6-1.08-.14l0,0a.76.76,0,0,0-.12.5,1,1,0,0,0,.36.64h0l.12.08.1.06a.66.66,0,0,0,.19.09l.09,0h0l.07,0a.55.55,0,0,0,.22,0,.25.25,0,0,0,.12,0A.47.47,0,0,0,209.41,131.35Z"/><path class="cls-9" d="M212.58,132.38a2,2,0,0,0-.25-.53l-.12-.17v0c-.27-.57-1-.59-1.07-.13l0,0a.76.76,0,0,0-.12.5,1,1,0,0,0,.36.64h0l.12.08.1.06.18.09.1,0h0a.11.11,0,0,0,.07,0,.4.4,0,0,0,.21,0h.13A.48.48,0,0,0,212.58,132.38Z"/><path class="cls-9" d="M215.61,133.36a1.56,1.56,0,0,0-.25-.52,1.74,1.74,0,0,0-.11-.18v0c-.27-.57-1-.6-1.07-.14l0,.05a.69.69,0,0,0-.12.5,1,1,0,0,0,.36.64h0a.38.38,0,0,0,.12.09l.1.06a.58.58,0,0,0,.18.08l.09,0v0h0l.07,0a.5.5,0,0,0,.21,0h.13A.47.47,0,0,0,215.61,133.36Z"/><path class="cls-9" d="M218.37,134.26a2,2,0,0,0-.25-.53l-.12-.17v0c-.27-.58-1-.6-1.07-.14l0,0a.76.76,0,0,0-.12.5,1,1,0,0,0,.36.64h0l.12.08.1.06a.76.76,0,0,0,.18.09l.1,0h0l.07,0a.51.51,0,0,0,.21,0,.56.56,0,0,0,.13,0A.49.49,0,0,0,218.37,134.26Z"/><path class="cls-9" d="M221.4,135.24a1.56,1.56,0,0,0-.25-.52,1,1,0,0,0-.11-.17v0c-.27-.57-1-.59-1.07-.14l0,.05a.69.69,0,0,0-.12.5,1,1,0,0,0,.36.64h0l.12.08.1.06a.42.42,0,0,0,.18.08l.09,0h0a.15.15,0,0,0,.07,0,.38.38,0,0,0,.21,0h.13A.47.47,0,0,0,221.4,135.24Z"/><path class="cls-9" d="M201.82,131.78a1.71,1.71,0,0,0-.25-.53,1.63,1.63,0,0,0-.11-.17v0c-.27-.58-1-.6-1.07-.14l0,0a.71.71,0,0,0-.12.5,1,1,0,0,0,.36.64h0a.36.36,0,0,0,.12.08.33.33,0,0,0,.1.06l.18.09.1,0h0l.07,0a.5.5,0,0,0,.21,0h.13A.48.48,0,0,0,201.82,131.78Z"/><path class="cls-9" d="M204.86,132.76a1.78,1.78,0,0,0-.25-.52c0-.06-.07-.12-.11-.17v0c-.28-.57-1-.59-1.08-.14l0,0a.74.74,0,0,0-.12.5,1.07,1.07,0,0,0,.36.64h0l.12.08.1.06a.64.64,0,0,0,.19.08l.09,0h0l.07,0a.42.42,0,0,0,.22,0h.13A.48.48,0,0,0,204.86,132.76Z"/><path class="cls-9" d="M207.61,133.66a1.71,1.71,0,0,0-.25-.53l-.11-.17v0c-.27-.58-1-.6-1.07-.14l0,0a.67.67,0,0,0-.12.49,1,1,0,0,0,.36.64h0a.36.36,0,0,0,.12.08.33.33,0,0,0,.1.06l.18.09.1,0h0l.07,0a.75.75,0,0,0,.21,0h.13A.48.48,0,0,0,207.61,133.66Z"/><path class="cls-9" d="M210.65,134.65a2,2,0,0,0-.25-.53c0-.06-.07-.12-.11-.17v0c-.28-.57-1-.59-1.08-.13l0,0a.75.75,0,0,0-.12.5,1,1,0,0,0,.36.64h0l.12.08.1.06a.46.46,0,0,0,.19.08l.09,0h0l.07,0a.42.42,0,0,0,.22,0h.13A.47.47,0,0,0,210.65,134.65Z"/><path class="cls-9" d="M213.82,135.67a1.91,1.91,0,0,0-.25-.52l-.12-.17v0c-.27-.57-1-.59-1.07-.14l0,.05a.74.74,0,0,0-.12.5,1.07,1.07,0,0,0,.36.64h0l.12.08.1.06a.48.48,0,0,0,.18.08l.1,0h0l.07,0a.42.42,0,0,0,.22,0h.12A.49.49,0,0,0,213.82,135.67Z"/><path class="cls-9" d="M216.85,136.66a1.56,1.56,0,0,0-.25-.52,1.74,1.74,0,0,0-.11-.18v0c-.27-.58-1-.6-1.07-.14l0,0a.67.67,0,0,0-.12.49,1,1,0,0,0,.36.64h0l.12.09.1.06.18.08a.29.29,0,0,0,.1,0h0l.07,0a.52.52,0,0,0,.21,0h.13A.47.47,0,0,0,216.85,136.66Z"/><path class="cls-9" d="M219.61,137.56a2,2,0,0,0-.25-.53l-.12-.17v0c-.27-.57-1-.59-1.07-.13l0,0a.76.76,0,0,0-.12.5,1,1,0,0,0,.36.64h0l.12.08.1.06.18.09.1,0h0a.11.11,0,0,0,.07,0,.42.42,0,0,0,.22,0h.12A.48.48,0,0,0,219.61,137.56Z"/><path class="cls-9" d="M222.64,138.54a1.56,1.56,0,0,0-.25-.52,1.74,1.74,0,0,0-.11-.18v0c-.27-.57-1-.6-1.07-.14l0,0a.69.69,0,0,0-.12.5,1,1,0,0,0,.36.64h0a.38.38,0,0,0,.12.09l.1.06a.71.71,0,0,0,.18.08l.1,0,0,0h0l.07,0a.52.52,0,0,0,.21,0h.13A.47.47,0,0,0,222.64,138.54Z"/><path class="cls-9" d="M203.62,135.26a2,2,0,0,0-.25-.53c0-.06-.07-.12-.11-.17v0c-.28-.57-1-.59-1.08-.13l0,0a.76.76,0,0,0-.12.5,1,1,0,0,0,.36.64h0l.12.08.1.06a.66.66,0,0,0,.19.09l.09,0h0a.11.11,0,0,0,.07,0,.42.42,0,0,0,.22,0h.12A.47.47,0,0,0,203.62,135.26Z"/><path class="cls-9" d="M206.37,136.15a1.56,1.56,0,0,0-.25-.52,1.74,1.74,0,0,0-.11-.18v0c-.27-.58-1-.6-1.07-.14l0,.05a.67.67,0,0,0-.12.49,1,1,0,0,0,.35.64h0l.12.09.1.06.18.08.09,0h0l.08,0a.75.75,0,0,0,.21,0h.13A.48.48,0,0,0,206.37,136.15Z"/><path class="cls-9" d="M209.41,137.14a2,2,0,0,0-.25-.53l-.11-.17v0c-.28-.58-1-.6-1.08-.14l0,0a.76.76,0,0,0-.12.5,1,1,0,0,0,.36.64h0l.12.08.1.06a.66.66,0,0,0,.19.09l.09,0h0l.07,0a.55.55,0,0,0,.22,0h.12A.49.49,0,0,0,209.41,137.14Z"/><path class="cls-9" d="M212.58,138.17a2,2,0,0,0-.25-.53l-.12-.17v0c-.27-.57-1-.59-1.07-.13l0,0a.76.76,0,0,0-.12.5,1,1,0,0,0,.36.64h0l.12.08.1.06a.76.76,0,0,0,.18.09l.1,0h0a.11.11,0,0,0,.07,0,.4.4,0,0,0,.21,0h.13A.48.48,0,0,0,212.58,138.17Z"/><path class="cls-9" d="M215.61,139.15a1.56,1.56,0,0,0-.25-.52,1.74,1.74,0,0,0-.11-.18v0c-.27-.57-1-.6-1.07-.14l0,.05a.69.69,0,0,0-.12.5,1,1,0,0,0,.36.64h0a.38.38,0,0,0,.12.09l.1.06a.58.58,0,0,0,.18.08l.09,0v0s0,0,0,0h0l.07,0a.5.5,0,0,0,.21,0h.13A.47.47,0,0,0,215.61,139.15Z"/><path class="cls-9" d="M218.37,140.05a2,2,0,0,0-.25-.53l-.12-.17v0c-.27-.58-1-.6-1.07-.14l0,0a.76.76,0,0,0-.12.5,1,1,0,0,0,.36.64h0l.12.08.1.06.18.09.1,0h0l.07,0a.51.51,0,0,0,.21,0h.13A.49.49,0,0,0,218.37,140.05Z"/><path class="cls-9" d="M221.4,141a1.56,1.56,0,0,0-.25-.52,1,1,0,0,0-.11-.17v0c-.27-.57-1-.59-1.07-.14l0,.05a.69.69,0,0,0-.12.5,1,1,0,0,0,.36.64h0a.62.62,0,0,0,.12.08l.1.06a.42.42,0,0,0,.18.08l.09,0h0a.15.15,0,0,0,.07,0,.38.38,0,0,0,.21,0h.13A.47.47,0,0,0,221.4,141Z"/><path class="cls-9" d="M203.62,123.68a2,2,0,0,0-.25-.53c0-.06-.07-.12-.11-.17v0c-.28-.57-1-.59-1.08-.13l0,0a.76.76,0,0,0-.12.5,1,1,0,0,0,.36.64h0l.12.08.1.06a.66.66,0,0,0,.19.09l.09,0h0a.11.11,0,0,0,.07,0,.42.42,0,0,0,.22,0h.12A.47.47,0,0,0,203.62,123.68Z"/><path class="cls-9" d="M206.37,124.57a1.56,1.56,0,0,0-.25-.52,1.74,1.74,0,0,0-.11-.18v0c-.27-.58-1-.6-1.07-.14l0,.05a.67.67,0,0,0-.12.49,1,1,0,0,0,.35.64h0l.12.09.1.06.18.08.09,0h0l.08,0a.75.75,0,0,0,.21,0h.13A.48.48,0,0,0,206.37,124.57Z"/><path class="cls-9" d="M209.41,125.56a2,2,0,0,0-.25-.53l-.11-.17v0c-.28-.58-1-.6-1.08-.14l0,0a.76.76,0,0,0-.12.5,1,1,0,0,0,.36.64h0l.12.08.1.06a.66.66,0,0,0,.19.09l.09,0h0l.07,0a.55.55,0,0,0,.22,0,.25.25,0,0,0,.12,0A.47.47,0,0,0,209.41,125.56Z"/><path class="cls-9" d="M212.58,126.59a2,2,0,0,0-.25-.53l-.12-.17v0c-.27-.57-1-.59-1.07-.13l0,0a.76.76,0,0,0-.12.5,1,1,0,0,0,.36.64h0l.12.08.1.06.18.09.1,0h0a.11.11,0,0,0,.07,0,.4.4,0,0,0,.21,0h.13A.48.48,0,0,0,212.58,126.59Z"/><path class="cls-9" d="M215.61,127.57a1.56,1.56,0,0,0-.25-.52,1.74,1.74,0,0,0-.11-.18v0c-.27-.57-1-.6-1.07-.14l0,.05a.69.69,0,0,0-.12.5,1,1,0,0,0,.36.64h0a.38.38,0,0,0,.12.09l.1.06a.58.58,0,0,0,.18.08l.09,0v0h0l.07,0a.5.5,0,0,0,.21,0h.13A.47.47,0,0,0,215.61,127.57Z"/><path class="cls-9" d="M218.37,128.47a2,2,0,0,0-.25-.53l-.12-.17v0c-.27-.58-1-.6-1.07-.14l0,0a.76.76,0,0,0-.12.5,1,1,0,0,0,.36.64h0l.12.08.1.06.18.09.1,0h0l.07,0a.51.51,0,0,0,.21,0,.56.56,0,0,0,.13,0A.49.49,0,0,0,218.37,128.47Z"/><path class="cls-9" d="M221.4,129.45a1.56,1.56,0,0,0-.25-.52,1,1,0,0,0-.11-.17v0c-.27-.57-1-.59-1.07-.14l0,0a.69.69,0,0,0-.12.5,1,1,0,0,0,.36.64h0l.12.08.1.06a.58.58,0,0,0,.18.08l.09,0h0a.15.15,0,0,0,.07,0,.38.38,0,0,0,.21,0h.13A.47.47,0,0,0,221.4,129.45Z"/><path class="cls-9" d="M201.82,137.57a1.71,1.71,0,0,0-.25-.53,1.63,1.63,0,0,0-.11-.17v0c-.27-.58-1-.6-1.07-.14l0,0a.71.71,0,0,0-.12.5,1,1,0,0,0,.36.64h0a.36.36,0,0,0,.12.08.33.33,0,0,0,.1.06.76.76,0,0,0,.18.09l.1,0h0l.07,0a.5.5,0,0,0,.21,0,.57.57,0,0,0,.13,0A.48.48,0,0,0,201.82,137.57Z"/><path class="cls-9" d="M204.86,138.55a1.78,1.78,0,0,0-.25-.52c0-.06-.07-.12-.11-.17v0c-.28-.57-1-.59-1.08-.14l0,.05a.74.74,0,0,0-.12.5,1.07,1.07,0,0,0,.36.64h0l.12.08.1.06a.64.64,0,0,0,.19.08l.09,0h0l.07,0a.42.42,0,0,0,.22,0h.13A.48.48,0,0,0,204.86,138.55Z"/><path class="cls-9" d="M207.61,139.45a1.71,1.71,0,0,0-.25-.53l-.11-.17v0c-.27-.58-1-.6-1.07-.14l0,0a.67.67,0,0,0-.12.49,1,1,0,0,0,.36.64h0a.36.36,0,0,0,.12.08.33.33,0,0,0,.1.06.76.76,0,0,0,.18.09l.1,0h0l.07,0a.75.75,0,0,0,.21,0h.13A.48.48,0,0,0,207.61,139.45Z"/><path class="cls-9" d="M210.65,140.44a2,2,0,0,0-.25-.53c0-.06-.07-.12-.11-.17v0c-.28-.57-1-.59-1.08-.13l0,0a.75.75,0,0,0-.12.5,1,1,0,0,0,.36.64h0l.12.08.1.06a.46.46,0,0,0,.19.08l.09,0h0l.07,0a.42.42,0,0,0,.22,0h.13A.47.47,0,0,0,210.65,140.44Z"/><path class="cls-9" d="M213.82,141.46a1.91,1.91,0,0,0-.25-.52l-.12-.17v0c-.27-.57-1-.59-1.07-.14l0,.05a.74.74,0,0,0-.12.5,1.07,1.07,0,0,0,.36.64h0l.12.08.1.06a.48.48,0,0,0,.18.08l.1,0h0l.07,0a.42.42,0,0,0,.22,0h.12A.49.49,0,0,0,213.82,141.46Z"/><path class="cls-9" d="M216.85,142.45a1.56,1.56,0,0,0-.25-.52,1.74,1.74,0,0,0-.11-.18v0c-.27-.58-1-.6-1.07-.14l0,0a.67.67,0,0,0-.12.49,1,1,0,0,0,.36.64h0l.12.09.1.06.18.08a.29.29,0,0,0,.1,0h0l.07,0a.52.52,0,0,0,.21,0h.13A.47.47,0,0,0,216.85,142.45Z"/><path class="cls-9" d="M219.61,143.35a2,2,0,0,0-.25-.53l-.12-.17v0c-.27-.57-1-.59-1.07-.13l0,0a.76.76,0,0,0-.12.5,1,1,0,0,0,.36.64h0l.12.08.1.06a.76.76,0,0,0,.18.09l.1,0h0a.11.11,0,0,0,.07,0,.42.42,0,0,0,.22,0h.12A.48.48,0,0,0,219.61,143.35Z"/><path class="cls-9" d="M222.64,144.33a1.56,1.56,0,0,0-.25-.52,1.74,1.74,0,0,0-.11-.18v0c-.27-.57-1-.6-1.07-.14l0,.05a.69.69,0,0,0-.12.5,1,1,0,0,0,.36.64h0a.38.38,0,0,0,.12.09l.1.06a.71.71,0,0,0,.18.08l.1,0,0,0h0l.07,0a.52.52,0,0,0,.21,0h.13A.47.47,0,0,0,222.64,144.33Z"/><path class="cls-9" d="M203.62,141.05a2,2,0,0,0-.25-.53c0-.06-.07-.12-.11-.17v0c-.28-.57-1-.59-1.08-.13l0,0a.76.76,0,0,0-.12.5,1,1,0,0,0,.36.64h0l.12.08.1.06a.66.66,0,0,0,.19.09l.09,0h0a.11.11,0,0,0,.07,0,.42.42,0,0,0,.22,0h.12A.47.47,0,0,0,203.62,141.05Z"/><path class="cls-9" d="M206.37,141.94a1.56,1.56,0,0,0-.25-.52,1.74,1.74,0,0,0-.11-.18v0c-.27-.58-1-.6-1.07-.14l0,0a.67.67,0,0,0-.12.49,1,1,0,0,0,.35.64h0l.12.09.1.06.18.08.09,0h0l.08,0a.75.75,0,0,0,.21,0h.13A.48.48,0,0,0,206.37,141.94Z"/><path class="cls-9" d="M209.41,142.93a2,2,0,0,0-.25-.53l-.11-.17v0c-.28-.58-1-.6-1.08-.14l0,0a.76.76,0,0,0-.12.5,1,1,0,0,0,.36.64h0l.12.08.1.06a.66.66,0,0,0,.19.09l.09,0h0l.07,0a.55.55,0,0,0,.22,0h.12A.49.49,0,0,0,209.41,142.93Z"/><path class="cls-9" d="M212.58,144a2,2,0,0,0-.25-.53l-.12-.17v0c-.27-.57-1-.59-1.07-.13l0,0a.76.76,0,0,0-.12.5,1,1,0,0,0,.36.64h0l.12.08.1.06.18.09.1,0h0l.07,0a.51.51,0,0,0,.21,0h.13A.48.48,0,0,0,212.58,144Z"/><path class="cls-9" d="M215.61,144.94a1.56,1.56,0,0,0-.25-.52,1.74,1.74,0,0,0-.11-.18v0c-.27-.57-1-.6-1.07-.14l0,0a.69.69,0,0,0-.12.5,1,1,0,0,0,.36.64h0a.38.38,0,0,0,.12.09l.1.06a.58.58,0,0,0,.18.08l.09,0v0h0l.07,0a.38.38,0,0,0,.21,0h.13A.47.47,0,0,0,215.61,144.94Z"/><path class="cls-9" d="M218.37,145.84a2,2,0,0,0-.25-.53l-.12-.17v0c-.27-.58-1-.6-1.07-.14l0,0a.76.76,0,0,0-.12.5,1,1,0,0,0,.36.64h0l.12.08.1.06.18.09.1,0h0l.07,0a.51.51,0,0,0,.21,0h.13A.49.49,0,0,0,218.37,145.84Z"/><path class="cls-9" d="M221.4,146.82a1.66,1.66,0,0,0-.25-.52,1,1,0,0,0-.11-.17v0c-.27-.57-1-.59-1.07-.14l0,0a.69.69,0,0,0-.12.5,1,1,0,0,0,.36.64h0l.12.08.1.06a.42.42,0,0,0,.18.08l.09,0h0a.15.15,0,0,0,.07,0,.38.38,0,0,0,.21,0h.13A.47.47,0,0,0,221.4,146.82Z"/><path class="cls-9" d="M201.82,142.94a1.56,1.56,0,0,0-.25-.52,1,1,0,0,0-.11-.17v0c-.27-.57-1-.59-1.07-.14l0,0a.69.69,0,0,0-.12.5,1,1,0,0,0,.36.64h0l.12.08.1.06a.71.71,0,0,0,.18.08l.1,0h0a.15.15,0,0,0,.07,0,.38.38,0,0,0,.21,0h.13A.47.47,0,0,0,201.82,142.94Z"/><path class="cls-9" d="M204.86,143.93a1.78,1.78,0,0,0-.25-.52l-.11-.18v0c-.28-.58-1-.6-1.08-.14l0,.05a.72.72,0,0,0-.12.49,1,1,0,0,0,.36.64h0l.12.09.1.06.19.08.09,0h0l.07,0a.86.86,0,0,0,.22,0h.13A.49.49,0,0,0,204.86,143.93Z"/><path class="cls-9" d="M207.61,144.83a1.71,1.71,0,0,0-.25-.53,1,1,0,0,0-.11-.17v0c-.27-.57-1-.59-1.07-.13l0,0a.7.7,0,0,0-.12.5,1,1,0,0,0,.36.64h0a.36.36,0,0,0,.12.08l.1.06a.48.48,0,0,0,.18.08l.1,0h0a.09.09,0,0,0,.07,0,.38.38,0,0,0,.21,0h.13A.47.47,0,0,0,207.61,144.83Z"/><path class="cls-9" d="M210.65,145.81a1.78,1.78,0,0,0-.25-.52l-.11-.18v0c-.28-.58-1-.6-1.08-.14l0,.05a.74.74,0,0,0-.12.5,1,1,0,0,0,.36.63h0l.12.09.1.06a.64.64,0,0,0,.19.08l.09,0h0l.07,0a.57.57,0,0,0,.22,0h.13A.48.48,0,0,0,210.65,145.81Z"/><path class="cls-9" d="M213.82,146.84a1.78,1.78,0,0,0-.25-.52l-.12-.18v0c-.27-.58-1-.6-1.07-.14l0,.05a.72.72,0,0,0-.12.49,1,1,0,0,0,.36.64h0l.12.09.1.06.18.08.1,0h0l.07,0a.86.86,0,0,0,.22,0h.12A.49.49,0,0,0,213.82,146.84Z"/><path class="cls-9" d="M216.85,147.83a1.71,1.71,0,0,0-.25-.53,1.63,1.63,0,0,0-.11-.17v0c-.27-.58-1-.6-1.07-.14l0,0a.71.71,0,0,0-.12.5,1,1,0,0,0,.36.64h0a.36.36,0,0,0,.12.08.33.33,0,0,0,.1.06.76.76,0,0,0,.18.09l.1,0h0l.07,0a.5.5,0,0,0,.21,0h.13A.48.48,0,0,0,216.85,147.83Z"/><path class="cls-9" d="M219.61,148.72a1.78,1.78,0,0,0-.25-.52l-.12-.18v0c-.27-.57-1-.6-1.07-.14l0,0a.74.74,0,0,0-.12.5,1.07,1.07,0,0,0,.36.64h0a.94.94,0,0,0,.12.09l.1.06a.71.71,0,0,0,.18.08l.1,0h0l.07,0a.57.57,0,0,0,.22,0h.12A.49.49,0,0,0,219.61,148.72Z"/><path class="cls-9" d="M222.64,149.71a1.71,1.71,0,0,0-.25-.53l-.11-.17v0c-.27-.58-1-.6-1.07-.14l0,.05a.67.67,0,0,0-.12.49,1,1,0,0,0,.36.64h0a.36.36,0,0,0,.12.08.21.21,0,0,0,.1.06l.18.09.1,0h0l.07,0a.78.78,0,0,0,.21,0h.13A.48.48,0,0,0,222.64,149.71Z"/><path class="cls-9" d="M203.62,146.42a1.78,1.78,0,0,0-.25-.52l-.11-.18v0c-.28-.57-1-.6-1.08-.14l0,.05a.74.74,0,0,0-.12.5,1.07,1.07,0,0,0,.36.64h0l.12.09.1.06a.64.64,0,0,0,.19.08l.09,0,0,0h0l.07,0a.57.57,0,0,0,.22,0h.12A.48.48,0,0,0,203.62,146.42Z"/><path class="cls-9" d="M206.37,147.32a1.71,1.71,0,0,0-.25-.53,1.63,1.63,0,0,0-.11-.17v0c-.27-.58-1-.6-1.07-.14l0,0a.71.71,0,0,0-.12.5,1,1,0,0,0,.35.64h0a.36.36,0,0,0,.12.08.33.33,0,0,0,.1.06.61.61,0,0,0,.18.09l.09,0h0l.08,0a.5.5,0,0,0,.21,0,.29.29,0,0,0,.13,0A.47.47,0,0,0,206.37,147.32Z"/><path class="cls-9" d="M209.41,148.3a1.78,1.78,0,0,0-.25-.52l-.11-.18v0c-.28-.57-1-.59-1.08-.14l0,.05a.74.74,0,0,0-.12.5,1.07,1.07,0,0,0,.36.64h0l.12.09.1.06a.64.64,0,0,0,.19.08l.09,0h0l.07,0a.42.42,0,0,0,.22,0h.12A.48.48,0,0,0,209.41,148.3Z"/><path class="cls-9" d="M212.58,149.33a1.78,1.78,0,0,0-.25-.52l-.12-.18v0c-.27-.57-1-.6-1.07-.14l0,.05a.74.74,0,0,0-.12.5,1.07,1.07,0,0,0,.36.64h0l.12.09.1.06a.71.71,0,0,0,.18.08l.1,0,0,0h0l.07,0a.53.53,0,0,0,.21,0h.13A.49.49,0,0,0,212.58,149.33Z"/><path class="cls-9" d="M215.61,150.32a1.56,1.56,0,0,0-.25-.52,1.74,1.74,0,0,0-.11-.18v0c-.27-.58-1-.6-1.07-.14l0,0a.67.67,0,0,0-.12.49.94.94,0,0,0,.36.64h0a.36.36,0,0,0,.12.08l.1.07.18.08.09,0h0l.07,0a.75.75,0,0,0,.21,0h.13A.48.48,0,0,0,215.61,150.32Z"/><path class="cls-9" d="M218.37,151.21a1.78,1.78,0,0,0-.25-.52l-.12-.17v0c-.27-.57-1-.59-1.07-.14l0,.05a.74.74,0,0,0-.12.5,1.07,1.07,0,0,0,.36.64h0l.12.08.1.06a.71.71,0,0,0,.18.08l.1,0h0l.07,0a.4.4,0,0,0,.21,0h.13A.49.49,0,0,0,218.37,151.21Z"/><path class="cls-9" d="M221.4,152.2a1.56,1.56,0,0,0-.25-.52,1.74,1.74,0,0,0-.11-.18v0c-.27-.58-1-.6-1.07-.14l0,0a.67.67,0,0,0-.12.49,1,1,0,0,0,.36.64h0l.12.09.1.06.18.08.09,0h0l.07,0a.75.75,0,0,0,.21,0h.13A.48.48,0,0,0,221.4,152.2Z"/><polygon class="cls-9" points="205.85 113.18 204.07 112.63 201.6 113.47 201.6 117.45 203.64 119.63 205.85 120.33 205.85 113.18"/><polygon class="cls-9" points="206.54 113.4 206.54 120.55 216.9 123.83 216.9 116.62 206.54 113.4"/><polygon class="cls-9" points="219.11 117.31 217.59 116.83 217.59 124.05 219.45 124.64 221.85 123.24 221.85 119.81 219.11 117.31"/><ellipse class="cls-7" cx="211.96" cy="71.04" rx="4.32" ry="2.65"/><ellipse class="cls-7" cx="211.96" cy="61.42" rx="3.01" ry="1.85"/><polygon class="cls-7" points="208.95 61.42 207.64 71.04 216.28 71.04 214.97 61.42 208.95 61.42"/><ellipse class="cls-7" cx="228.54" cy="75.87" rx="4.32" ry="2.65"/><ellipse class="cls-7" cx="228.54" cy="33.3" rx="3.01" ry="1.85"/><polygon class="cls-7" points="225.53 33.3 224.22 75.87 232.85 75.87 231.55 33.3 225.53 33.3"/><path class="cls-9" d="M232.86,95.85v38.07s-.19,5.79,2.82,4.9a3.18,3.18,0,0,0,2.62-2.94c.94-2.22-.05-41.14-.05-41.14s.1-3.73-1.78-4.22-2.71,1.51-3.11,2.15A11,11,0,0,0,232.86,95.85Z"/><ellipse class="cls-7" cx="282.7" cy="138.88" rx="2.65" ry="4.32" transform="translate(-20.68 223.55) rotate(-41.76)"/><ellipse class="cls-7" cx="289.87" cy="132.48" rx="1.85" ry="3.01" transform="translate(-14.59 226.7) rotate(-41.76)"/><polygon class="cls-7" points="287.86 130.23 279.82 135.66 285.57 142.1 291.87 134.72 287.86 130.23"/><ellipse class="cls-7" cx="301.34" cy="147.21" rx="2.65" ry="4.32" transform="translate(-21.49 238.08) rotate(-41.76)"/><ellipse class="cls-7" cx="333.09" cy="118.86" rx="1.85" ry="3.01" transform="translate(5.46 252.03) rotate(-41.76)"/><polygon class="cls-7" points="331.09 116.62 298.46 143.99 304.21 150.43 335.1 121.11 331.09 116.62"/><path class="cls-2" d="M238.34,165.63s-10.56,5.9-11.19,8.49-2.61,14.42,0,17.72,30.45,12.64,33.42,10.72,45.31-40.49,46.24-43.83.87-19.55.87-19.55L251.23,162.1Z"/><path class="cls-5" d="M275.26,132.66c-2.08.56-48.22,38.84-48.11,41.46.16,3.56,27.43,10.67,34.3,9s47.38-41.61,46.23-44S278.28,131.86,275.26,132.66Z"/><path class="cls-8" d="M297.65,141.59l-20.82-4.08a6.59,6.59,0,0,1-1.06.27L263.19,148a6,6,0,0,1,.2.69l22.66,5.09.82-.28.31-.09,10.63-11C297.75,142.14,297.7,141.85,297.65,141.59Z"/><path class="cls-9" d="M296.3,156.91l-27.39,26.44s-4.3,3.88-1.57,5.42a3.17,3.17,0,0,0,3.94-.14c2.25-.87,29.57-28.61,29.57-28.61s2.75-2.51,1.81-4.21-3-.9-3.72-.75A11.46,11.46,0,0,0,296.3,156.91Z"/><polygon class="cls-9" points="277.14 155.22 278.91 155.72 279.98 157.82 277.04 160.5 274.41 161.38 271.53 160.57 277.14 155.22"/><polygon class="cls-9" points="276.46 155.02 270.77 160.33 259.89 157.72 266.16 152.51 276.46 155.02"/><polygon class="cls-9" points="262.52 151.66 265.09 152.25 259.2 157.52 257.42 156.89 256.99 154.91 260.36 151.94 262.52 151.66"/><path class="cls-9" d="M270.78,167.62l.11.08a.47.47,0,0,0,.2.1l.08,0h0l.1,0,.22,0h.31a1.33,1.33,0,0,0,.77-.25.56.56,0,0,0,.25-.4.07.07,0,0,1,0-.05c.27-.35-.39-.74-1-.49h0l-.22.06a2.07,2.07,0,0,0-.59.23C270.68,167.2,270.61,167.44,270.78,167.62Z"/><path class="cls-9" d="M267.44,166.66l.1.07a1,1,0,0,0,.2.11h.09l.11,0a.78.78,0,0,0,.22,0l.13,0a.86.86,0,0,0,.16,0h0a1.43,1.43,0,0,0,.77-.24.65.65,0,0,0,.25-.41v-.05c.28-.35-.38-.74-1-.49h0l-.22.06a2.27,2.27,0,0,0-.6.23C267.34,166.23,267.27,166.48,267.44,166.66Z"/><path class="cls-9" d="M264.41,165.78l.1.08.2.1.09,0h0l.11,0,.22,0h.31a1.44,1.44,0,0,0,.77-.25.65.65,0,0,0,.25-.41v0c.28-.34-.38-.73-1-.48h0l-.23.06a2.58,2.58,0,0,0-.59.22C264.31,165.35,264.24,165.6,264.41,165.78Z"/><path class="cls-9" d="M261.07,164.81a.39.39,0,0,0,.1.08.54.54,0,0,0,.2.1l.08,0h0l.11,0,.22,0h.31a1.3,1.3,0,0,0,.76-.25.56.56,0,0,0,.25-.4.11.11,0,0,0,0-.05c.28-.35-.38-.74-1-.49h0l-.22.06a2.2,2.2,0,0,0-.59.23C261,164.39,260.89,164.63,261.07,164.81Z"/><path class="cls-9" d="M257.58,163.81l.1.07a.82.82,0,0,0,.21.11H258l.11,0a.78.78,0,0,0,.22,0h.31a1.43,1.43,0,0,0,.77-.24.65.65,0,0,0,.25-.41v0c.28-.35-.38-.74-1-.49h0l-.22.06a2.27,2.27,0,0,0-.6.23C257.48,163.38,257.41,163.63,257.58,163.81Z"/><path class="cls-9" d="M254.24,162.84l.1.08a.93.93,0,0,0,.2.1l.09,0h0l.11,0a.79.79,0,0,0,.22.05h.31a1.44,1.44,0,0,0,.77-.25.65.65,0,0,0,.25-.41v0c.28-.35-.38-.73-1-.48h0a2,2,0,0,0-.23.06,2.58,2.58,0,0,0-.59.22C254.14,162.41,254.07,162.66,254.24,162.84Z"/><path class="cls-9" d="M251.21,162a.39.39,0,0,0,.1.08.63.63,0,0,0,.2.1l.09,0h0l.11,0,.22,0h.31A1.36,1.36,0,0,0,253,162a.63.63,0,0,0,.25-.4v-.05c.28-.35-.38-.74-1-.49h0l-.23.06a2.2,2.2,0,0,0-.59.23C251.11,161.54,251,161.78,251.21,162Z"/><path class="cls-9" d="M247.87,161a.26.26,0,0,0,.1.07.75.75,0,0,0,.2.11h.09l.11,0a.71.71,0,0,0,.21,0h.13a.49.49,0,0,0,.17,0h0a1.41,1.41,0,0,0,.77-.24.58.58,0,0,0,.25-.41.09.09,0,0,0,0,0c.28-.35-.38-.74-1-.49h0l-.22.06a2.07,2.07,0,0,0-.59.23C247.77,160.57,247.69,160.82,247.87,161Z"/><path class="cls-9" d="M266.74,169.05l.1.07a.64.64,0,0,0,.2.11l.09,0h0a.2.2,0,0,0,.11,0,.79.79,0,0,0,.22.05h.31a1.44,1.44,0,0,0,.77-.25.65.65,0,0,0,.25-.41v-.05c.28-.35-.38-.73-1-.48h0a1,1,0,0,0-.23.06,2.58,2.58,0,0,0-.59.22C266.64,168.62,266.57,168.87,266.74,169.05Z"/><path class="cls-9" d="M263.71,168.17l.1.08a.54.54,0,0,0,.2.1l.09,0h0l.11,0,.22,0h.31a1.3,1.3,0,0,0,.76-.25.63.63,0,0,0,.26-.4v0c.28-.35-.38-.74-1-.49h0l-.23.06a2.58,2.58,0,0,0-.59.22C263.61,167.75,263.54,168,263.71,168.17Z"/><path class="cls-9" d="M260.37,167.21a.26.26,0,0,0,.1.07.75.75,0,0,0,.2.11h.09l.11,0a.71.71,0,0,0,.21,0h.31a1.41,1.41,0,0,0,.77-.24.58.58,0,0,0,.25-.41.09.09,0,0,0,0,0c.28-.35-.38-.74-1-.49h0l-.22.06a2.07,2.07,0,0,0-.59.23C260.27,166.78,260.19,167,260.37,167.21Z"/><path class="cls-9" d="M256.88,166.2l.1.07a1,1,0,0,0,.2.11h.09l.11,0a.78.78,0,0,0,.22,0l.13,0h.18a1.35,1.35,0,0,0,.77-.24.65.65,0,0,0,.25-.41v-.05c.28-.35-.38-.73-1-.49h0l-.22.06a2.67,2.67,0,0,0-.6.23C256.78,165.77,256.71,166,256.88,166.2Z"/><path class="cls-9" d="M253.54,165.23l.1.08a.54.54,0,0,0,.2.1l.09,0h0l.11,0,.22,0h.31a1.38,1.38,0,0,0,.76-.25.58.58,0,0,0,.25-.41.07.07,0,0,0,0-.05c.28-.34-.38-.73-1-.48h0l-.23.06a2.58,2.58,0,0,0-.59.22C253.44,164.8,253.37,165.05,253.54,165.23Z"/><path class="cls-9" d="M250.51,164.36a.26.26,0,0,0,.1.07.75.75,0,0,0,.2.11h.09l.11,0a.72.72,0,0,0,.22,0h.3a1.38,1.38,0,0,0,.77-.24.58.58,0,0,0,.25-.41.09.09,0,0,0,0-.05c.28-.35-.38-.74-1-.49h0l-.22.06a2.2,2.2,0,0,0-.59.23C250.41,163.93,250.33,164.18,250.51,164.36Z"/><path class="cls-9" d="M247.16,163.39a.41.41,0,0,0,.11.07.48.48,0,0,0,.2.11l.08,0h0a.19.19,0,0,0,.1,0,.79.79,0,0,0,.22,0h.31a1.41,1.41,0,0,0,.77-.25.58.58,0,0,0,.25-.41.43.43,0,0,0,0-.05c.27-.35-.38-.73-1-.48h0a.9.9,0,0,0-.22.06,2.41,2.41,0,0,0-.59.22C247.06,163,247,163.21,247.16,163.39Z"/><path class="cls-9" d="M266.65,171.62l.1.07a.75.75,0,0,0,.2.11H267l.11,0a.78.78,0,0,0,.22,0l.13,0h.18a1.3,1.3,0,0,0,.76-.24.63.63,0,0,0,.26-.41v0c.28-.35-.38-.73-1-.49h0l-.23.06a2.2,2.2,0,0,0-.59.23C266.55,171.19,266.48,171.44,266.65,171.62Z"/><path class="cls-9" d="M263.31,170.65a.44.44,0,0,0,.1.08.54.54,0,0,0,.2.1l.08,0h0l.11,0,.21,0h.31a1.41,1.41,0,0,0,.77-.25.58.58,0,0,0,.25-.41.07.07,0,0,0,0,0c.28-.34-.38-.73-1-.48h0l-.22.06a2.41,2.41,0,0,0-.59.22C263.21,170.22,263.13,170.47,263.31,170.65Z"/><path class="cls-9" d="M260.27,169.78l.11.07a.75.75,0,0,0,.2.11h.09l.1,0a.85.85,0,0,0,.22,0h.31a1.33,1.33,0,0,0,.77-.25.54.54,0,0,0,.25-.4.11.11,0,0,0,0,0c.27-.35-.38-.74-1-.49h0l-.22.06a2.07,2.07,0,0,0-.59.23C260.17,169.35,260.1,169.6,260.27,169.78Z"/><path class="cls-9" d="M256.93,168.81a.41.41,0,0,0,.11.07.48.48,0,0,0,.2.11h.09a.38.38,0,0,0,.1,0l.22.05h.13a.85.85,0,0,0,.16,0h0a1.33,1.33,0,0,0,.77-.24.58.58,0,0,0,.25-.41.09.09,0,0,1,0,0c.27-.35-.39-.73-1-.49l0,0-.22,0a2.42,2.42,0,0,0-.59.23C256.83,168.38,256.76,168.63,256.93,168.81Z"/><path class="cls-9" d="M253.45,167.8l.1.08a.75.75,0,0,0,.2.1l.08,0h0l.11,0,.22,0h.3a1.38,1.38,0,0,0,.77-.25.58.58,0,0,0,.25-.41.07.07,0,0,0,0-.05c.28-.34-.38-.73-1-.48h0l-.22.06a2.58,2.58,0,0,0-.59.22C253.35,167.37,253.27,167.62,253.45,167.8Z"/><path class="cls-9" d="M250.1,166.83l.11.08a.47.47,0,0,0,.2.1l.08,0h0l.1,0,.22,0h.31a1.33,1.33,0,0,0,.77-.25.56.56,0,0,0,.25-.4.43.43,0,0,1,0,0c.27-.35-.38-.74-1-.49h0l-.22.06a2.07,2.07,0,0,0-.59.23C250,166.41,249.93,166.65,250.1,166.83Z"/><path class="cls-9" d="M247.07,166a.41.41,0,0,0,.11.07.62.62,0,0,0,.2.11h.09l.1,0a.78.78,0,0,0,.22,0l.13,0h.18a1.33,1.33,0,0,0,.77-.24.58.58,0,0,0,.25-.41.09.09,0,0,1,0,0c.27-.35-.38-.73-1-.49h0l-.22.06a2.07,2.07,0,0,0-.59.23C247,165.53,246.9,165.78,247.07,166Z"/><path class="cls-9" d="M243.73,165l.1.08a.59.59,0,0,0,.21.1l.08,0h0l.11,0,.22,0h.31a1.41,1.41,0,0,0,.77-.25.65.65,0,0,0,.25-.41v0c.28-.34-.38-.73-1-.48h0l-.22.06a2.66,2.66,0,0,0-.6.22C243.63,164.56,243.56,164.81,243.73,165Z"/><path class="cls-9" d="M262.6,173l.11.08a.47.47,0,0,0,.2.1l.08,0h0l.1,0,.22,0h.31a1.33,1.33,0,0,0,.77-.25.56.56,0,0,0,.25-.4.07.07,0,0,1,0-.05c.27-.35-.38-.74-1-.49h0l-.22.06a2.07,2.07,0,0,0-.59.23C262.5,172.62,262.43,172.86,262.6,173Z"/><path class="cls-9" d="M259.57,172.17a.41.41,0,0,0,.11.07.62.62,0,0,0,.2.11H260l.1,0a.78.78,0,0,0,.22,0l.13,0h.18a1.33,1.33,0,0,0,.77-.24.58.58,0,0,0,.25-.41.09.09,0,0,1,0-.05c.27-.35-.39-.74-1-.49h0l-.22.06a2.07,2.07,0,0,0-.59.23C259.47,171.74,259.4,172,259.57,172.17Z"/><path class="cls-9" d="M256.23,171.2l.1.08a.82.82,0,0,0,.21.1l.08,0h0l.11,0,.22,0h.31a1.44,1.44,0,0,0,.77-.25.65.65,0,0,0,.25-.41v-.05c.28-.34-.38-.73-1-.48h0l-.22.06a2.66,2.66,0,0,0-.6.22C256.13,170.77,256.06,171,256.23,171.2Z"/><path class="cls-9" d="M252.75,170.19a.44.44,0,0,0,.1.08.54.54,0,0,0,.2.1l.08,0h0l.11,0,.21,0h.31a1.33,1.33,0,0,0,.77-.25.58.58,0,0,0,.25-.4.11.11,0,0,0,0-.05c.27-.35-.38-.74-1-.49h0l-.22.06a2.41,2.41,0,0,0-.59.22C252.65,169.77,252.57,170,252.75,170.19Z"/><path class="cls-9" d="M249.4,169.23a.41.41,0,0,0,.11.07.62.62,0,0,0,.2.11h.09l.1,0a.78.78,0,0,0,.22,0h.31a1.41,1.41,0,0,0,.77-.24.58.58,0,0,0,.25-.41.09.09,0,0,1,0-.05c.27-.35-.39-.74-1-.49h0l-.22.06a2.07,2.07,0,0,0-.59.23C249.3,168.8,249.23,169.05,249.4,169.23Z"/><path class="cls-9" d="M246.37,168.35l.11.08a.62.62,0,0,0,.2.1l.08,0h0l.1,0a.79.79,0,0,0,.22,0h.31a1.41,1.41,0,0,0,.77-.25.58.58,0,0,0,.25-.41.11.11,0,0,1,0-.05c.27-.35-.39-.73-1-.48h0l-.22.06a2.41,2.41,0,0,0-.59.22C246.27,167.92,246.2,168.17,246.37,168.35Z"/><path class="cls-9" d="M243,167.38l.1.08a.63.63,0,0,0,.2.1l.09,0h0l.11,0,.22,0h.31a1.36,1.36,0,0,0,.77-.25.63.63,0,0,0,.25-.4V167c.28-.35-.38-.74-1-.49h0l-.22.06a2.27,2.27,0,0,0-.6.23C242.93,167,242.86,167.2,243,167.38Z"/><path class="cls-9" d="M270.87,165.05l.11.08a.47.47,0,0,0,.2.1l.08,0h0l.1,0a.78.78,0,0,0,.22,0h.31a1.33,1.33,0,0,0,.77-.25.56.56,0,0,0,.25-.4.07.07,0,0,1,0,0c.27-.35-.39-.74-1-.49h0l-.22.06a2.07,2.07,0,0,0-.59.23C270.77,164.63,270.7,164.87,270.87,165.05Z"/><path class="cls-9" d="M267.84,164.18a.41.41,0,0,0,.11.07.62.62,0,0,0,.2.11h.09a.38.38,0,0,0,.1,0,.78.78,0,0,0,.22,0l.13,0h.18a1.33,1.33,0,0,0,.77-.24.58.58,0,0,0,.25-.41.09.09,0,0,1,0,0c.27-.35-.39-.73-1-.49h0l-.22.06a2.42,2.42,0,0,0-.59.23C267.74,163.75,267.67,164,267.84,164.18Z"/><path class="cls-9" d="M264.5,163.21l.1.08a.63.63,0,0,0,.2.1l.09,0h0l.11,0,.22,0h.31a1.44,1.44,0,0,0,.77-.25.65.65,0,0,0,.25-.41v0c.28-.34-.38-.73-1-.48h0l-.22.06a2.66,2.66,0,0,0-.6.22C264.4,162.78,264.33,163,264.5,163.21Z"/><path class="cls-9" d="M261,162.2l.11.08a.47.47,0,0,0,.2.1l.08,0h0l.1,0,.22,0H262a1.33,1.33,0,0,0,.77-.25.56.56,0,0,0,.25-.4.43.43,0,0,1,0,0c.27-.35-.38-.74-1-.49h0l-.22.06a2.07,2.07,0,0,0-.59.23C260.91,161.78,260.84,162,261,162.2Z"/><path class="cls-9" d="M257.67,161.24a.41.41,0,0,0,.11.07.62.62,0,0,0,.2.11h.08l.11,0a.78.78,0,0,0,.22,0l.13,0h.18a1.33,1.33,0,0,0,.77-.24.61.61,0,0,0,.25-.41v0c.28-.35-.38-.73-1-.49h0l-.22.06a2.27,2.27,0,0,0-.6.23C257.57,160.81,257.5,161.06,257.67,161.24Z"/><path class="cls-9" d="M254.64,160.36l.1.08a.82.82,0,0,0,.21.1l.08,0h0l.11,0,.22,0h.31a1.44,1.44,0,0,0,.77-.25.65.65,0,0,0,.25-.41V160c.28-.34-.38-.73-1-.48h0l-.22.06a2.66,2.66,0,0,0-.6.22C254.54,159.93,254.47,160.18,254.64,160.36Z"/><path class="cls-9" d="M251.3,159.39l.1.08a.63.63,0,0,0,.2.1l.09,0h0l.11,0a.78.78,0,0,0,.22,0h.31a1.36,1.36,0,0,0,.77-.25.63.63,0,0,0,.25-.4v0c.28-.35-.38-.74-1-.49h0l-.23.06a2.2,2.2,0,0,0-.59.23C251.2,159,251.13,159.21,251.3,159.39Z"/><path class="cls-9" d="M262.51,175.61l.11.08a.47.47,0,0,0,.2.1l.08,0h0l.1,0,.22,0h.31a1.41,1.41,0,0,0,.77-.25.58.58,0,0,0,.25-.41.06.06,0,0,1,0,0c.27-.35-.39-.74-1-.49h0l-.22.06a2.41,2.41,0,0,0-.59.22C262.41,175.19,262.34,175.43,262.51,175.61Z"/><path class="cls-9" d="M259.17,174.65l.1.07a.82.82,0,0,0,.21.11h.08l.11,0a.78.78,0,0,0,.22,0h.31a1.43,1.43,0,0,0,.77-.24.65.65,0,0,0,.25-.41v0c.28-.35-.38-.74-1-.49h0l-.22.06a2.27,2.27,0,0,0-.6.23C259.07,174.22,259,174.47,259.17,174.65Z"/><path class="cls-9" d="M256.14,173.77l.1.07a.64.64,0,0,0,.2.11l.09,0h0l.11,0a.79.79,0,0,0,.22.05h.31a1.44,1.44,0,0,0,.77-.25.65.65,0,0,0,.25-.41v0c.28-.35-.38-.73-1-.48h0a1.41,1.41,0,0,0-.22.06,2.66,2.66,0,0,0-.6.22C256,173.34,256,173.59,256.14,173.77Z"/><path class="cls-9" d="M252.8,172.8a.39.39,0,0,0,.1.08.54.54,0,0,0,.2.1l.09,0h0l.11,0,.22,0h.31a1.3,1.3,0,0,0,.76-.25.61.61,0,0,0,.26-.4v0c.28-.35-.38-.74-1-.49h0l-.23.06a2.58,2.58,0,0,0-.59.22C252.7,172.38,252.63,172.62,252.8,172.8Z"/><path class="cls-9" d="M249.31,171.8l.11.07a.62.62,0,0,0,.2.11h.09l.1,0a.78.78,0,0,0,.22,0h.31a1.33,1.33,0,0,0,.77-.25.54.54,0,0,0,.25-.4.07.07,0,0,1,0-.05c.27-.35-.39-.74-1-.49h0l-.22.06a2.07,2.07,0,0,0-.59.23C249.21,171.37,249.14,171.62,249.31,171.8Z"/><path class="cls-9" d="M246,170.83l.1.07a.64.64,0,0,0,.2.11h.09l.11,0,.22.05H247a1.35,1.35,0,0,0,.77-.24.65.65,0,0,0,.25-.41v-.05c.28-.35-.38-.73-1-.49l0,0-.22.05a2.67,2.67,0,0,0-.6.23C245.87,170.4,245.8,170.65,246,170.83Z"/><path class="cls-9" d="M242.94,170l.1.08a.63.63,0,0,0,.2.1l.09,0h0l.11,0,.22,0H244a1.44,1.44,0,0,0,.77-.25.65.65,0,0,0,.25-.41v0c.28-.35-.38-.74-1-.49h0l-.23.06a2.58,2.58,0,0,0-.59.22C242.84,169.53,242.77,169.77,242.94,170Z"/><path class="cls-9" d="M239.6,169l.1.07a.75.75,0,0,0,.2.11H240l.11,0a.72.72,0,0,0,.22,0h.31a1.37,1.37,0,0,0,.76-.24.58.58,0,0,0,.25-.41.09.09,0,0,0,0,0c.28-.35-.38-.74-1-.49h0l-.22.06a2.2,2.2,0,0,0-.59.23C239.5,168.56,239.42,168.81,239.6,169Z"/><path class="cls-9" d="M258.47,177l.1.07a1,1,0,0,0,.2.11h.09l.11,0a.78.78,0,0,0,.22,0l.13,0h.18a1.35,1.35,0,0,0,.77-.24.65.65,0,0,0,.25-.41v-.05c.28-.35-.38-.73-1-.49h0l-.23.06a2.2,2.2,0,0,0-.59.23C258.37,176.61,258.3,176.86,258.47,177Z"/><path class="cls-9" d="M255.44,176.16l.1.08a.63.63,0,0,0,.2.1l.09,0h0l.11,0,.22,0h.31a1.44,1.44,0,0,0,.77-.25.65.65,0,0,0,.25-.41v-.05c.28-.34-.38-.73-1-.48h0l-.23.06a2.58,2.58,0,0,0-.59.22C255.34,175.73,255.27,176,255.44,176.16Z"/><path class="cls-9" d="M252.1,175.2l.1.07a.75.75,0,0,0,.2.11h.09l.11,0a.72.72,0,0,0,.22,0h.3a1.33,1.33,0,0,0,.77-.25.54.54,0,0,0,.25-.4.11.11,0,0,0,0-.05c.28-.35-.38-.74-1-.49h0l-.22.06a2.07,2.07,0,0,0-.59.23C252,174.77,251.92,175,252.1,175.2Z"/><path class="cls-9" d="M248.61,174.19l.1.07a.82.82,0,0,0,.21.11H249l.11,0a.78.78,0,0,0,.22,0l.13,0a.86.86,0,0,0,.16,0h0a1.35,1.35,0,0,0,.77-.24.65.65,0,0,0,.25-.41v-.05c.28-.35-.38-.74-1-.49h0l-.22.06a2.27,2.27,0,0,0-.6.23C248.51,173.76,248.44,174,248.61,174.19Z"/><path class="cls-9" d="M245.27,173.22l.1.08.2.1.09,0h0l.11,0,.22,0h.31a1.44,1.44,0,0,0,.77-.25.65.65,0,0,0,.25-.41v-.05c.28-.34-.38-.73-1-.48h0l-.23.06a2.58,2.58,0,0,0-.59.22C245.17,172.79,245.1,173,245.27,173.22Z"/><path class="cls-9" d="M242.24,172.34a.39.39,0,0,0,.1.08.54.54,0,0,0,.2.1l.09,0h0l.11,0,.22,0h.31a1.3,1.3,0,0,0,.76-.25.61.61,0,0,0,.26-.4v-.05c.28-.35-.38-.74-1-.49h0l-.23.06a2.2,2.2,0,0,0-.59.23C242.14,171.92,242.07,172.16,242.24,172.34Z"/><path class="cls-9" d="M238.9,171.38a.26.26,0,0,0,.1.07.75.75,0,0,0,.2.11h.09l.11,0a.71.71,0,0,0,.21,0l.13,0a1,1,0,0,0,.17,0h0a1.33,1.33,0,0,0,.77-.24.58.58,0,0,0,.25-.41.09.09,0,0,0,0-.05c.28-.35-.38-.73-1-.49h0l-.22.06a2.07,2.07,0,0,0-.59.23C238.8,171,238.72,171.2,238.9,171.38Z"/><path class="cls-9" d="M258.67,179.32l.11.08a.47.47,0,0,0,.2.1l.08,0h0l.1,0,.22,0h.31a1.41,1.41,0,0,0,.77-.25.58.58,0,0,0,.25-.41.43.43,0,0,0,0-.05c.27-.34-.38-.73-1-.48h0l-.22.06a2.41,2.41,0,0,0-.59.22C258.57,178.89,258.5,179.14,258.67,179.32Z"/><path class="cls-9" d="M255.33,178.36l.11.07a.47.47,0,0,0,.2.1l.08,0h0l.11,0a.78.78,0,0,0,.22,0h.31a1.33,1.33,0,0,0,.77-.25.59.59,0,0,0,.25-.4V178c.28-.35-.38-.74-1-.49h0l-.22.06a2.27,2.27,0,0,0-.6.23C255.23,177.93,255.16,178.18,255.33,178.36Z"/><path class="cls-9" d="M252.3,177.48l.1.07a.6.6,0,0,0,.21.11h.08l.11,0,.22,0h.31a1.35,1.35,0,0,0,.77-.24.65.65,0,0,0,.25-.41v-.05c.28-.35-.38-.73-1-.49l0,0-.22.05a2.67,2.67,0,0,0-.6.23C252.2,177.05,252.13,177.3,252.3,177.48Z"/><path class="cls-9" d="M249,176.51l.1.08a.63.63,0,0,0,.2.1l.09,0h0l.11,0,.22,0H250a1.44,1.44,0,0,0,.77-.25.65.65,0,0,0,.25-.41v0c.28-.35-.38-.74-1-.49h0l-.23.06a2.58,2.58,0,0,0-.59.22C248.86,176.08,248.79,176.33,249,176.51Z"/><path class="cls-9" d="M245.47,175.5l.11.08a.47.47,0,0,0,.2.1l.08,0h0l.1,0,.22,0h.31a1.33,1.33,0,0,0,.77-.25.56.56,0,0,0,.25-.4.07.07,0,0,1,0-.05c.27-.35-.39-.74-1-.49h0l-.22.06a2.07,2.07,0,0,0-.59.23C245.37,175.08,245.3,175.32,245.47,175.5Z"/><path class="cls-9" d="M242.13,174.54l.1.07a.82.82,0,0,0,.21.11h.08l.11,0a.78.78,0,0,0,.22,0l.13,0h.18a1.35,1.35,0,0,0,.77-.24.65.65,0,0,0,.25-.41v-.05c.28-.35-.38-.73-1-.49h0l-.22.06a2.27,2.27,0,0,0-.6.23C242,174.11,242,174.36,242.13,174.54Z"/><path class="cls-9" d="M239.1,173.66l.1.08a.63.63,0,0,0,.2.1l.09,0h0l.11,0,.22,0h.31a1.44,1.44,0,0,0,.77-.25.65.65,0,0,0,.25-.41v-.05c.28-.34-.38-.73-1-.48h0l-.22.06a2.66,2.66,0,0,0-.6.22C239,173.23,238.93,173.48,239.1,173.66Z"/><path class="cls-9" d="M235.76,172.7l.1.07a.54.54,0,0,0,.2.1l.09,0h0l.11,0a.78.78,0,0,0,.22,0h.31a1.3,1.3,0,0,0,.76-.25.61.61,0,0,0,.26-.4v-.05c.28-.35-.38-.74-1-.49h0l-.23.06a2.2,2.2,0,0,0-.59.23C235.66,172.27,235.59,172.52,235.76,172.7Z"/><path class="cls-9" d="M254.63,180.75l.1.07a1,1,0,0,0,.2.11H255l.11,0a.78.78,0,0,0,.22,0l.13,0a.86.86,0,0,0,.16,0h0a1.43,1.43,0,0,0,.77-.24.65.65,0,0,0,.25-.41v0c.28-.35-.38-.74-1-.49h0l-.22.06a2.27,2.27,0,0,0-.6.23C254.53,180.32,254.46,180.57,254.63,180.75Z"/><path class="cls-9" d="M251.6,179.87l.1.08a.93.93,0,0,0,.2.1l.09,0h0l.11,0,.22,0h.31a1.44,1.44,0,0,0,.77-.25.65.65,0,0,0,.25-.41v0c.28-.34-.38-.73-1-.48h0l-.23.06a2.58,2.58,0,0,0-.59.22C251.5,179.44,251.43,179.69,251.6,179.87Z"/><path class="cls-9" d="M248.26,178.9a.39.39,0,0,0,.1.08.54.54,0,0,0,.2.1l.09,0h0l.11,0,.22,0h.31a1.3,1.3,0,0,0,.76-.25.56.56,0,0,0,.25-.4.11.11,0,0,0,0-.05c.28-.35-.38-.74-1-.49h0l-.23.06a2.2,2.2,0,0,0-.59.23C248.16,178.48,248.08,178.72,248.26,178.9Z"/><path class="cls-9" d="M244.77,177.9l.1.07a.82.82,0,0,0,.21.11h.08l.11,0a.78.78,0,0,0,.22,0h.31a1.41,1.41,0,0,0,.77-.24.65.65,0,0,0,.25-.41v0c.28-.35-.38-.74-1-.49h0l-.22.06a2.27,2.27,0,0,0-.6.23C244.67,177.47,244.6,177.72,244.77,177.9Z"/><path class="cls-9" d="M241.43,176.93l.1.08a.93.93,0,0,0,.2.1l.09,0h0l.11,0a.79.79,0,0,0,.22.05h.31a1.44,1.44,0,0,0,.77-.25.65.65,0,0,0,.25-.41v0c.28-.35-.38-.73-1-.48h0a2,2,0,0,0-.23.06,2.58,2.58,0,0,0-.59.22C241.33,176.5,241.26,176.75,241.43,176.93Z"/><path class="cls-9" d="M238.4,176.05l.1.08a.63.63,0,0,0,.2.1l.09,0h0l.11,0,.22,0h.31a1.36,1.36,0,0,0,.77-.25.63.63,0,0,0,.25-.4v0c.28-.35-.38-.74-1-.49h0l-.23.06a2.2,2.2,0,0,0-.59.23C238.3,175.63,238.23,175.87,238.4,176.05Z"/><path class="cls-9" d="M235.06,175.09a.26.26,0,0,0,.1.07.75.75,0,0,0,.2.11h.09l.11,0a.71.71,0,0,0,.21,0l.13,0h.18a1.41,1.41,0,0,0,.77-.24.58.58,0,0,0,.25-.41.09.09,0,0,0,0,0c.28-.35-.38-.74-1-.49h0l-.22.06a2.07,2.07,0,0,0-.59.23C235,174.66,234.88,174.91,235.06,175.09Z"/></g><g id="Layer_13" data-name="Layer 13"><path class="cls-4" d="M253.07,69.34h13.35c.17-2.27.82-6.61,3.35-9.3a2.29,2.29,0,0,0-3.33-3.13c-2.72,2.9-3.85,6.88-4.32,9.87a87.33,87.33,0,0,0-.22-9.54,2.28,2.28,0,0,0-4.53.58,93.71,93.71,0,0,1,.18,9.78c-.23-3-1-7.27-3.21-10.23a2.28,2.28,0,0,0-3.63,2.77C252.52,62.51,253,66.78,253.07,69.34Z"/><path class="cls-4" d="M83.18,347.08H96.53c.17-2.26.82-6.6,3.35-9.3a2.28,2.28,0,0,0-3.33-3.12c-2.72,2.9-3.85,6.88-4.32,9.86A87.33,87.33,0,0,0,92,335a2.28,2.28,0,0,0-4.53.58,91.59,91.59,0,0,1,.17,9.79c-.22-3-1-7.28-3.2-10.23a2.28,2.28,0,1,0-3.63,2.76C82.63,340.25,83.11,344.52,83.18,347.08Z"/><path class="cls-4" d="M295,103.32a2.28,2.28,0,0,0-3.22.1,17.84,17.84,0,0,0-4.13,8.81c0,.22-.05.44-.07.66-.32-2.85-1.13-6.44-3.08-9a2.28,2.28,0,1,0-3.63,2.76c1.8,2.37,2.29,6.64,2.35,9.2h8.54c.16-2.26.81-6.6,3.34-9.29A2.28,2.28,0,0,0,295,103.32Z"/><path class="cls-4" d="M167.64,110.88a2.29,2.29,0,0,0-3.23.1,18,18,0,0,0-4.13,8.81l-.06.66c-.33-2.85-1.13-6.44-3.09-9a2.28,2.28,0,1,0-3.63,2.76c1.8,2.37,2.29,6.64,2.36,9.21h8.53c.16-2.27.82-6.61,3.35-9.3A2.3,2.3,0,0,0,167.64,110.88Z"/><path class="cls-4" d="M90.11,127.06a2.29,2.29,0,0,0-3.22.1A18,18,0,0,0,82.75,136l-.06.66c-.32-2.85-1.13-6.44-3.08-9A2.28,2.28,0,0,0,76,130.38c1.81,2.38,2.3,6.65,2.36,9.21h8.54c.16-2.27.81-6.61,3.34-9.3A2.29,2.29,0,0,0,90.11,127.06Z"/><path class="cls-10" d="M167.55,48.05a18.26,18.26,0,0,0-29.76-14.17c-.29.24-.57.48-.84.73L133,38l.6.69a18.25,18.25,0,0,0,22.8,26.14l.57.65,3.22-2.63A18.47,18.47,0,0,0,167.55,48.05Z"/><circle class="cls-8" cx="145.7" cy="51.16" r="18.26"/><path class="cls-2" d="M156.92,61.55a15.17,15.17,0,0,0-20.06-22.36h0C135.6,40,123.2,51.59,123.2,51.59L143.26,74s12.79-11.44,13.65-12.47Z"/><path class="cls-10" d="M115.07,48.05A18.26,18.26,0,0,0,85.31,33.88c-.29.24-.57.48-.84.73l-4,3.43.61.69a18.25,18.25,0,0,0,22.8,26.14l.56.65,3.22-2.63A18.47,18.47,0,0,0,115.07,48.05Z"/><circle class="cls-8" cx="93.22" cy="51.16" r="18.26"/><path class="cls-2" d="M104.44,61.55A15.17,15.17,0,0,0,84.38,39.19h0C83.12,40,70.72,51.59,70.72,51.59L90.78,74s12.79-11.44,13.65-12.47Z"/><g class="cls-11"><polygon class="cls-7" points="104.53 36.83 104.05 36.46 107.73 33.42 108.22 33.79 104.53 36.83"/><polygon class="cls-7" points="106.53 38.67 106.13 38.23 109.77 35.19 110.17 35.63 106.53 38.67"/><polygon class="cls-7" points="102.72 35.57 102.16 35.23 106.32 32.46 106.87 32.81 102.72 35.57"/><polygon class="cls-7" points="100.68 34.49 100.05 34.22 103.98 31.25 104.59 31.53 100.68 34.49"/><polygon class="cls-7" points="97.68 33.45 96.93 33.28 100.92 30.26 101.66 30.45 97.68 33.45"/><polygon class="cls-7" points="95.23 33.01 94.38 32.94 98.21 29.85 99.05 29.93 95.23 33.01"/><polygon class="cls-7" points="92.41 32.92 91.37 32.99 95.3 29.84 96.29 29.8 92.41 32.92"/><polygon class="cls-7" points="89.88 33.21 88.8 33.44 91.77 30.5 92.9 30.22 89.88 33.21"/><polygon class="cls-7" points="86.86 34.04 85.17 34.77 88.43 31.83 90.21 31.03 86.86 34.04"/></g><g class="cls-11"><polygon class="cls-7" points="157.01 36.83 156.53 36.46 160.21 33.42 160.69 33.79 157.01 36.83"/><polygon class="cls-7" points="159.01 38.67 158.6 38.24 162.25 35.19 162.66 35.62 159.01 38.67"/><polygon class="cls-7" points="155.2 35.57 154.63 35.23 158.8 32.46 159.35 32.81 155.2 35.57"/><polygon class="cls-7" points="153.16 34.49 152.53 34.22 156.46 31.25 157.07 31.53 153.16 34.49"/><polygon class="cls-7" points="150.16 33.45 149.41 33.28 153.4 30.26 154.14 30.45 150.16 33.45"/><polygon class="cls-7" points="147.71 33.01 146.86 32.94 150.69 29.85 151.53 29.93 147.71 33.01"/><polygon class="cls-7" points="144.89 32.92 143.83 33.01 147.76 29.86 148.77 29.8 144.89 32.92"/><polygon class="cls-7" points="142.36 33.21 141.28 33.44 144.25 30.5 145.38 30.22 142.36 33.21"/><polygon class="cls-7" points="139.34 34.04 137.65 34.77 140.91 31.83 142.69 31.03 139.34 34.04"/><polygon class="cls-7" points="160.63 40.65 160.28 40.17 163.96 37.18 164.31 37.66 160.63 40.65"/><polygon class="cls-7" points="161.95 42.83 161.66 42.29 165.15 38.99 165.44 39.52 161.95 42.83"/><polygon class="cls-7" points="162.79 44.73 162.56 44.16 166.22 41.2 166.45 41.78 162.79 44.73"/><polygon class="cls-7" points="163.47 46.95 163.31 46.32 166.95 43.37 167.1 44.01 163.47 46.95"/><polygon class="cls-7" points="163.91 49.87 163.85 49.16 167.47 46.27 167.52 46.99 163.91 49.87"/><polygon class="cls-7" points="163.94 51.94 163.96 51.2 167.54 48.66 167.5 49.41 163.94 51.94"/><polygon class="cls-7" points="163.68 54.34 163.81 53.49 167.36 50.73 167.22 51.59 163.68 54.34"/><polygon class="cls-7" points="163.11 56.65 163.37 55.76 166.76 53.46 166.46 54.38 163.11 56.65"/><polygon class="cls-7" points="160.48 61.87 161.63 60.07 165.43 56.73 164.46 58.37 160.48 61.87"/><polygon class="cls-7" points="162.19 58.99 162.69 57.85 166.18 55.12 165.66 56.28 162.19 58.99"/></g><polygon class="cls-2" points="92.8 36.64 146.52 36.69 146.52 56.2 124.7 68.47 76.83 59.2 92.8 36.64"/><polygon class="cls-3" points="77.95 53.91 126.84 53.91 127.44 71.98 77.95 68.47 77.95 53.91"/><path class="cls-8" d="M86.75,85.35A21.83,21.83,0,0,0,57.89,53.18h0L37.78,70.94,67.1,103.31Z"/><circle class="cls-10" cx="52.53" cy="87.05" r="21.84"/><circle class="cls-7" cx="52.53" cy="87.05" r="17.63"/><path class="cls-8" d="M53.34,102.13A17.63,17.63,0,0,1,43.33,72a17.63,17.63,0,1,0,21.4,27.74A17.57,17.57,0,0,1,53.34,102.13Z"/><path class="cls-3" d="M91.55,67.37l-17.1,16.8a23,23,0,0,1-7.27,19.14l19.65-18A22.47,22.47,0,0,0,91.55,67.37Z"/><path class="cls-4" d="M111,72.08c-4.14-1.52-13.11-2.51-16.64,5.9s25.09,17.09,25.24,8.15C119.73,78.78,116.92,74.23,111,72.08Z"/><path class="cls-4" d="M58.58,72.08c-4.15-1.52-13.12-2.51-16.65,5.9S67,95.07,67.18,86.13C67.3,78.78,64.5,74.23,58.58,72.08Z"/><path class="cls-3" d="M160.2,49.05,142.64,63l-2.44,4.72v8.74l6.32-5.31,10.62-9.75S161.59,55.69,160.2,49.05Z"/><path class="cls-8" d="M139.23,85.35a21.84,21.84,0,0,0-28.87-32.17h0L90.26,70.94l29.32,32.37Z"/><circle class="cls-10" cx="105.01" cy="87.05" r="21.84"/><circle class="cls-7" cx="105.01" cy="87.05" r="17.63"/><path class="cls-8" d="M105.82,102.13A17.63,17.63,0,0,1,95.81,72a17.63,17.63,0,1,0,21.4,27.74A17.57,17.57,0,0,1,105.82,102.13Z"/><path class="cls-4" d="M111.69,72.08c-4.15-1.52-13.12-2.51-16.64,5.9s25.09,17.09,25.24,8.15C120.41,78.78,117.61,74.23,111.69,72.08Z"/><path class="cls-3" d="M144,67.37l-17.11,16.8a23,23,0,0,1-7.26,19.14l19.65-18A22.47,22.47,0,0,0,144,67.37Z"/><path class="cls-2" d="M128,352.7s-4.27,4.78-1.75,8.09,30.41,11.79,45,16,29.24,8.55,35.26,11.44,8.84,4.39,11.77,2.35S226.42,375,226.42,375l-82.95-25.93Z"/><path class="cls-3" d="M130.21,353.4s-4.05,4.29,0,6.64S167,374,173.44,375.74s37.86,10,40.64,11.74,4.31,1.75,4.31,1.75l17.41-22.88L151.14,339.9Z"/><path class="cls-2" d="M321.59,261.9a145.13,145.13,0,0,1-8.36,16.8c-5.57,9.75-18.36,24.94-26,36s-11.94,16.92-11.94,16.92-16.8,15.19-20.9,19.84-24.78,26.23-29.07,30.63a65.15,65.15,0,0,0-7,8.5s1.46-3-4.26-6.18-20.1-4.14-29.86-7.19-27.23-8.11-32.75-10.45-20.12-7.57-20.12-7.57l68.94-57,37.9-58.93,58.21,14.34S315.68,259.5,321.59,261.9Z"/><path class="cls-3" d="M315.12,260.21S300.06,286.09,294,295.63,276.89,323,276.89,323,263.67,336,252.23,346.29,230.66,368,223.51,374.13c-3.61,3.11-8.68,8-8.68,8s-17.62-6.12-26.44-7.05c-6.72-.7-22.4-6.61-29.87-9.34-3.1-1.12-25.13-8.28-25.13-8.28l61.13-56.52,42.6-57.73s44.6,11.5,52.23,13.26S311.52,259.4,315.12,260.21Z"/><path class="cls-2" d="M228.84,224.92c-6.31,13.86-12.3,27.44-17,35.75s-18.29,30.21-21.68,37.13c-6,6.12-23.58,22.64-34.68,32.21S131.2,349.16,128,352.7c5.25,1.66,30.71,10,42.36,14s41.4,12.63,43.45,13.79c4.51-5.08,21.82-21.39,30.55-29.52s29.47-28.12,30.87-30c1.41-3.21,11.92-19.65,15.69-28.16S300,269.5,303.29,262.5s8.53-17.75,8.53-17.75-29.9-7-33-7.46S239.77,225.16,228.84,224.92Z"/><path class="cls-5" d="M128,352.7c5.25,1.66,30.71,10,42.36,14s41.4,12.63,43.45,13.79c4.51-5.08,21.82-21.39,30.55-29.52,7.8-7.27,26.25-25.18,30.87-30-4.6-1.32-10.48-1.52-13.63-2.47-7.79-2.34-27-7.13-43.18-11.14-9.52-2.36-20-7.21-28.26-9.59-7,7-24.37,23.32-34.68,32.21C144.39,339.57,131.2,349.16,128,352.7Z"/><path class="cls-12" d="M148.59,348.63h-.43c-3.09-.18-5.73-2.18-8-6.12l1.19-.94c2,3.46,4.33,5.4,6.87,5.55,4.74.29,9.76-5.15,13.14-9.75,2.12-2.88,4.6-3.32,7.48-3.82a21.17,21.17,0,0,0,10.49-4.36c8-6.16,10-10.81,6.83-15.54-3.57-5.26-3.44-8.47-3.44-8.63l1.48-1.41h0v.81s-.06,3.57,3.2,8.37c4.78,7-1.31,13.11-7.15,17.6A22.73,22.73,0,0,1,169.14,335c-2.77.48-4.77.84-6.53,3.23C159.1,343,153.86,348.63,148.59,348.63Z"/><path class="cls-12" d="M153.25,335.34a5.8,5.8,0,0,1-3-.95l1.25-1c2.72,1.77,5.56-.83,9.08-3.68,1-.8,2-1.63,3-2.38a10.7,10.7,0,0,1,4.58-1.44c3.14-.51,6.69-1.1,9.23-5.82,1.33-2.47-.48-7.14-1.31-8.78l1.16-1.09c.14.27,3.46,6.91,1.49,10.58-2.9,5.39-7,6.06-10.33,6.61a9.45,9.45,0,0,0-3.94,1.18c-1,.71-2,1.53-3,2.32C158.82,333.06,156,335.34,153.25,335.34Z"/><path class="cls-12" d="M166.19,322.76c-.52,0-1.67-.19-2.24-.25l1.42-1.29c2.84.28,4.09-.24,5-1.43a4.3,4.3,0,0,0,.56-3.72l1.26-1.17c0,.13,1.13,3.62-.64,5.83C170.53,322.08,168.71,322.76,166.19,322.76Z"/><path class="cls-12" d="M174,368c-2.53-11.8.09-14.75,9.53-19.51a37.65,37.65,0,0,1,10.2-3.44,23.21,23.21,0,0,0,9.09-3.5c3.5-2.3,4-4.67,4.63-7.41a16,16,0,0,1,3.91-8.25c5.43-6,9.32-6.1,13.82-6.24l1.25,0c5-.21,9.41-2.46,14-7.07a23.37,23.37,0,0,0,3.07-3.6c1.17-1.64,2-2.82,6.17-5.17a31,31,0,0,1,7.11-2.81c3-.86,5.34-1.54,7.64-4.49s8-6.87,14.37-8.53,12.94,2.32,13.21,2.5l-.59,1.4c-.07,0-6.4-4-12.24-2.43s-11.44,5.28-13.56,8c-2.6,3.34-5.29,4.11-8.41,5A29.13,29.13,0,0,0,250.4,305c-3.85,2.18-4.58,3.2-5.68,4.73a25.05,25.05,0,0,1-3.23,3.79c-4.9,4.9-9.68,7.29-15,7.51l-1.27.05c-4.32.13-7.74.24-12.74,5.74a14.55,14.55,0,0,0-3.55,7.55c-.65,2.95-1.26,5.72-5.28,8.36a24.65,24.65,0,0,1-9.61,3.71,35.86,35.86,0,0,0-9.82,3.31c-8.92,4.5-10.92,7.71-8.56,18.71Z"/><path class="cls-12" d="M192.8,373.85l-.13-1.18c-.56-5.06-1.09-9.84,2.73-14.75,2.75-3.52,5.83-4.76,9.1-6.08a42.53,42.53,0,0,0,5.4-2.51c5-2.88,6.11-6.14,7.31-9.6,1.07-3.09,2.18-6.28,6.08-9,11.8-8.35,18.13-8.09,22.77-7.92a15.72,15.72,0,0,0,4.45-.22,17.25,17.25,0,0,0,8.4-5.12c.11-.21,4.38-7.32,8.64-10.34,6.83-4.86,16.28-1.78,16.68-1.65l-.78,1.35c-.09,0-8.83-2.87-15,1.53-4,2.85-8.24,9.91-8.28,10a18.43,18.43,0,0,1-9.28,5.72,17.14,17.14,0,0,1-4.87.27c-4.66-.19-10.45-.41-21.83,7.64-3.5,2.48-4.49,5.3-5.53,8.29-1.24,3.57-2.52,7.26-8,10.42a40.7,40.7,0,0,1-5.58,2.6c-3.21,1.3-6,2.41-8.47,5.62-3.44,4.42-2.95,8.9-2.42,13.64l.21,1.83Z"/><path class="cls-12" d="M212.16,377.4c-1.72-1.76-2.42-4.7-2.06-8.73.6-6.73,4.34-8.67,7.63-10.38a12.78,12.78,0,0,0,4.84-3.54c3.68-5,4.91-6.73,10.18-16.52,2.93-5.46,10.74-7,17-8.29a42.4,42.4,0,0,0,6.91-1.74c6.08-2.48,7.81,1.26,8.38,2.49a3.94,3.94,0,0,0,.15.4l-1,1a1.86,1.86,0,0,1-.49-.77c-.59-1.28-1.69-3.66-6.43-1.73a44.34,44.34,0,0,1-7.18,1.83c-6.28,1.26-13.39,2.68-16,7.51-5.31,9.89-6.66,11.74-10.27,16.69a14.19,14.19,0,0,1-5.38,4c-3.24,1.68-6.3,3.26-6.82,9.16-.31,3.52.25,6.13,1.63,7.54a5.48,5.48,0,0,0,3.38,1.25L215.28,379A5.06,5.06,0,0,1,212.16,377.4Z"/><path class="cls-12" d="M225.87,368.5a7.86,7.86,0,0,1-.36-5.72,8.75,8.75,0,0,1,5-4.86c4.3-2,6.74-5.86,9.34-14.92a5.68,5.68,0,0,1,3.1-3.75c4.56-2.18,12.31,1.06,12.63,1.19l-1.22,1.16c-.07,0-6.82-2.87-10.76-1a4.2,4.2,0,0,0-2.3,2.79c-2.34,8.2-4.76,13.43-10.16,15.89a7.33,7.33,0,0,0-4.16,4,5.35,5.35,0,0,0,.07,4.12Z"/><path class="cls-12" d="M217.74,296.4a19.1,19.1,0,0,1-3.28-.27,9,9,0,0,1-6.22-3.68,40.94,40.94,0,0,1-3.9-7.59c-1.06-2.6-2-4-4.19-4.46l.78-1.3c3,.67,3.71,2.46,4.82,5.19a38.68,38.68,0,0,0,3.76,7.33,7.5,7.5,0,0,0,5.22,3c7.32,1.31,19.09-2.92,23.67-6.29a42.49,42.49,0,0,0,5.66-5.25c2.94-3.08,6-6.27,11.59-8.89a36.18,36.18,0,0,1,9.75-2.65c5.18-.88,10.06-1.71,14.39-7.07s2.19-8.71,0-12.3c-1.22-2-2.48-4-2.44-6.3.1-6.27,4-8,4.24-8l2,.43a9,9,0,0,0-4.69,7.65c0,1.84,1.07,3.6,2.22,5.47,2.29,3.7,4.88,7.9-.08,14.05-4.69,5.81-9.85,6.69-15.31,7.61a35.48,35.48,0,0,0-9.37,2.53c-5.35,2.5-8.29,5.58-11.13,8.57a44.7,44.7,0,0,1-5.86,5.42C235,292.7,225.33,296.4,217.74,296.4Z"/><path class="cls-12" d="M222.21,284c-4.69,0-7.83-2.74-9.58-8.34-1.21-3.85-5.87-6.19-5.91-6.21l.75-1.25c.19.1,5.2,2.53,6.6,7,1.69,5.38,4.63,7.68,9.26,7.22,3.28-.31,6.86-3.27,11-6.69a71.69,71.69,0,0,1,10.81-7.82c1.94-1.08,4-2.12,6-3.12,7.42-3.79,14.44-7.37,14.76-12,.06-.8.14-1.64.22-2.51.53-5.7,1.14-12.16-4.4-14-7.27-2.41-17.88-4-23.9-.46l-1.41.83c-7,4.09-12.09,6.93-14.52,6.16-.56-.17-.66,0-.89-.56l.73-1.59.33.47a.41.41,0,0,0,.29.24c2,.6,8.51-3.22,13.29-6l1.41-.83c6.47-3.77,17.59-2.18,25.14.34,6.69,2.22,6,9.63,5.44,15.59-.08.84-.16,1.67-.22,2.47-.38,5.45-7.77,9.22-15.59,13.2-2,1-4,2-5.9,3.1a71.19,71.19,0,0,0-10.58,7.67c-4.33,3.58-8.07,6.67-11.82,7Q222.83,284,222.21,284Z"/><path class="cls-12" d="M224,273a2.82,2.82,0,0,1-.71-.09c-1.64-.39-2.42-2-3.41-4l-.6-1.22c-1.79-3.49-1-6.34,0-9.94.29-1.06.61-2.21.88-3.47.91-4.18,4.69-6.61,8.35-8.95a42.87,42.87,0,0,0,3.91-2.72c3.94-3.25,10.9-2.71,16-1.68l.27.11c1.61,1.09,4.32,4.18,3,8.09-.93,2.8-2.45,3.58-4.38,4.57a21.91,21.91,0,0,0-5.3,3.58,54.36,54.36,0,0,0-5.24,5.64,45.42,45.42,0,0,1-7.66,7.6C226.89,272.24,225.29,273,224,273Zm17.17-31.38c-3.43,0-6.07.72-7.79,2.14a45.5,45.5,0,0,1-4.06,2.82c-3.4,2.18-6.91,4.43-7.69,8-.28,1.29-.6,2.46-.9,3.56-.94,3.41-1.62,5.87-.11,8.84.22.43.43.84.62,1.24.82,1.68,1.46,3,2.4,3.22s2.43-.48,4.61-2.15a43.06,43.06,0,0,0,7.42-7.37,55.87,55.87,0,0,1,5.38-5.77,22.93,22.93,0,0,1,5.63-3.82c1.87-1,2.9-1.48,3.63-3.7,1.13-3.42-1.71-5.8-2.32-6.27A36.25,36.25,0,0,0,241.14,241.65Z"/><path class="cls-12" d="M230.06,259.34a1.62,1.62,0,0,1-1-.31c-1-.75-1.08-2.7-.25-5.81.6-2.25,4.18-5.4,6.76-5.4h0a2.49,2.49,0,0,1,2.47,2.1h0c1,4.42-2.84,6.73-5.68,8.42l-.72.43A3.29,3.29,0,0,1,230.06,259.34Zm5.55-10c-1.72,0-4.82,2.5-5.29,4.27-.74,2.76-.52,4-.31,4.2,0,0,.3.05.92-.33l.73-.44c2.71-1.61,5.78-3.43,5-6.77-.19-.81-.62-.93-1-.93Z"/><circle class="cls-4" cx="264.57" cy="281.84" r="4.41"/><circle class="cls-4" cx="196.33" cy="312.66" r="4.41"/><path class="cls-4" d="M208.09,317a41.85,41.85,0,0,1-4.61-.47l.48-3a38.12,38.12,0,0,0,4.27.43Zm4.59,0-.12-3a24,24,0,0,0,4.16-.47l.65,3A27,27,0,0,1,212.68,317Zm9.41-2.91-2.2-2.07a8,8,0,0,0,1.45-3.13l.09-.29,2.89.92-.09.29A10.24,10.24,0,0,1,222.09,314.1Zm3.79-8.24-2.49-1.73a11.33,11.33,0,0,1,3.78-3.41l1.5,2.63A8.27,8.27,0,0,0,225.88,305.86Zm6.58-4-.77-2.93c1.44-.38,2.89-.65,4.49-.93l.53,3C235.18,301.29,233.8,301.54,232.46,301.89Zm8.73-1.77-.73-2.94c.24-.06.48-.12.7-.19a16.47,16.47,0,0,0,3.13-1.24l1.42,2.68A18.75,18.75,0,0,1,242,299.9Zm8.42-4.4-1.92-2.34.63-.52c.89-.73,1.81-1.49,2.94-2.31L253,293c-1.05.76-1.93,1.48-2.78,2.19Zm7.05-5-1.45-2.67.31-.16a10,10,0,0,0,2.78-2.25l2.26,2a12.93,12.93,0,0,1-3.54,2.87Zm6.64-7-2.66-1.45a24,24,0,0,0,1.66-3.84l2.88,1A26.44,26.44,0,0,1,263.3,283.75Zm3-8.93-3-.45a22,22,0,0,0,.24-3.21c0-.32,0-.63,0-1l3-.14c0,.36,0,.72,0,1.09A25.35,25.35,0,0,1,266.28,274.82Zm-3.43-8.66a15.07,15.07,0,0,0-1.62-3.71l2.58-1.58a18,18,0,0,1,1.95,4.45Zm-38.1-.53c-.75,0-1.53-.06-2.33-.15l.37-3a14.16,14.16,0,0,0,4,0l.5,3A15.34,15.34,0,0,1,224.75,265.63Zm-6.92-1.12c-1.53-.43-3.12-1-4.33-1.37l1-2.87c1.18.4,2.72.91,4.18,1.32Zm14.09-.9L230.45,261c.84-.46,1.75-1,2.72-1.59l1.1-.65,1.54,2.61-1.09.65C233.72,262.57,232.79,263.13,231.92,263.61Zm26.74-4.26-.73-.63a13.19,13.19,0,0,0-2.57-1.63l1.3-2.73a16.19,16.19,0,0,1,3.17,2l.87.75Zm-19-.17-1.4-2.69a38.88,38.88,0,0,1,4.21-1.93l1.09,2.82A38.23,38.23,0,0,0,239.64,259.18Zm7.92-3-.55-3a18.34,18.34,0,0,1,3.24-.3c.48,0,1.09,0,1.64.08l-.32,3c-.43,0-.87-.06-1.3-.06h0A14.88,14.88,0,0,0,247.56,256.22Z"/><path class="cls-4" d="M198,315.88l-2.92-.79c.35-1.31.54-2.13.55-2.14l.41-1.77,1.66.72a20.7,20.7,0,0,0,2,.68l-.86,2.9c-.23-.06-.45-.13-.65-.2C198.1,315.47,198.05,315.67,198,315.88Z"/><path class="cls-4" d="M158.5,355.79l-2.85-1c.37-1,.81-2.14,1.3-3.24.14-.32.28-.61.42-.89l2.71,1.36c-.13.24-.25.49-.37.76C159.25,353.8,158.85,354.82,158.5,355.79Zm3.76-6.66-1.91-2.35a14,14,0,0,1,4.23-2.21l1,2.85A11,11,0,0,0,162.26,349.13Zm7.38-3.06-1-2.86c.92-.32,2.33-.81,3.93-1.47l1.15,2.81C172.06,345.23,170.6,345.75,169.64,346.07ZM177.7,343l-1.09-2.83.21-.07c1.39-.54,2.61-1,3.71-1.49l1.21,2.78c-1.13.49-2.39,1-3.84,1.53Zm8.06-3.83L184,336.69a15.36,15.36,0,0,0,2.83-2.68l2.32,1.94A18.37,18.37,0,0,1,185.76,339.15Zm6-6.91-2.61-1.52A37,37,0,0,0,191,327l2.77,1.22A36.72,36.72,0,0,1,191.75,332.24Zm3.64-8.06-2.85-1c.51-1.39,1-2.75,1.35-4l2.89.9C196.38,321.35,195.91,322.75,195.39,324.18Z"/><path class="cls-4" d="M154.19,361.26a7.93,7.93,0,0,1,.24-2l3,.53a12.89,12.89,0,0,0-.18,2.5Z"/><path class="cls-4" d="M261.91,284.68l0-3s.64,0,1.76,0l.09,3C262.56,284.68,261.91,284.68,261.91,284.68Zm5.72-.17,1.15-3.09c1.33-.06,2.24-.14,3.89-.25l.22,3C271.21,284.31,269,284.44,267.63,284.51Zm9.82-.69-.28-3c1-.09,2-.18,3-.29.49-.05.95-.11,1.38-.19l.51,3c-.5.08-1,.15-1.58.21Zm9.36-2-1.33-2.73a15.88,15.88,0,0,0,3.37-2.32l1,1.12.92,1.21A19.09,19.09,0,0,1,286.81,281.85Zm7.39-4.92-1-2.85a13.07,13.07,0,0,1,4.47-.7h1.11l-1.19,3h.08A10.08,10.08,0,0,0,294.2,276.93Z"/></g><g id="Layer_11" data-name="Layer 11"><path class="cls-10" d="M71.66,239.17C87.6,243.83,121.07,254,121.07,254l4.63-15.91L122.42,221,48,205.39l-8.83,2.66A28.22,28.22,0,0,1,41,216.43c0,3.73.43,13,.43,13"/><path class="cls-13" d="M173.2,175.17a79.37,79.37,0,0,0,.1,11.38,43.41,43.41,0,0,1-.53,11.46s-6.71,9.13-23,26.58S121.07,254,121.07,254s.79-16.05.42-21.51a49.4,49.4,0,0,1,.93-11.54l43.51-43Z"/><path class="cls-4" d="M96.65,156.16c12.25,3.3,22.84,4.84,34.31,8.19s35.76,11.15,42.24,10.82c-3.11,3.13-10.3,13-15.52,17.67s-18.13,20.37-22.12,25-11.09,13.92-14.07,14.65c-5.45-.78-19.36-3.91-36.38-9.29s-29.53-10-35.17-11.83-10.75-3.35-10.75-3.35,13.25-11.29,24.37-22.18S90.72,160.29,96.65,156.16Z"/><g class="cls-11"><path class="cls-7" d="M121.84,236.36l-.37-.08c-.25-.05-24.34-5.12-40.09-10.53l-10.67-3.67c-10.71-3.67-18.44-6.32-22.45-7.8A42.59,42.59,0,0,0,40.39,212l-.4-1.53A48.06,48.06,0,0,1,48.75,213c4,1.48,11.72,4.12,22.42,7.79l10.67,3.66c14.59,5,36.42,9.75,39.54,10.41,1.8-1.79,12-12,16-16.33,2.33-2.55,7.31-8.26,12.13-13.78,4.37-5,8.5-9.74,10.82-12.32C165.19,187,173,177,173.1,176.87l0,2c-.08.09-6.78,9-11.69,14.43-2.31,2.57-6.44,7.3-10.8,12.3-4.82,5.53-9.81,11.25-12.15,13.81-4.36,4.77-16.19,16.53-16.31,16.65Z"/><path class="cls-7" d="M121.81,239.58l-.33,0A136.85,136.85,0,0,1,104,235.67c-8.57-2.43-23.29-7.12-33-10.23l-4.82-1.53-25.14-8-.15-1.54,25.72,8.17,4.82,1.53c9.73,3.1,24.43,7.79,33,10.22a139.15,139.15,0,0,0,17,3.77l9.14-8.41c.12-.13,16.2-17.78,26.38-30.2s16.15-18.76,16.2-18.82l0,1.95c0,.06-5,5.36-15.14,17.77s-26.31,30.13-26.47,30.3Z"/><path class="cls-7" d="M121.64,247.49l-.41-.08c-.16,0-16-3.2-25.24-6.29-3.2-1.07-5.94-2-8.79-3.05-5.46-1.93-11.12-3.93-21-7l-25-7.82,0-1.53c-.47-.23,10.28,3.23,25.45,8,10,3.12,15.63,5.13,21.11,7.07,2.83,1,5.57,2,8.76,3,8.31,2.78,22.14,5.64,24.66,6.16,1.12-1.27,5.58-6.26,12.12-12.42,6-5.68,15.44-16.44,23-25.08,2-2.25,3.8-4.34,5.41-6.16L173.41,189l0,2.08L162.7,203.22c-1.61,1.81-3.44,3.91-5.41,6.15-7.58,8.67-17,19.45-23.1,25.18-7.51,7.08-12.24,12.57-12.28,12.63Z"/><path class="cls-7" d="M121.64,243.8l-.49-.41c0,.05-.93-.4-7.71-2.26-2.17-.59-4.93-1.26-8.13-2-8-2-18-4.39-25-7.1-10.14-3.88-21.61-7.64-26.42-8.9l-12.8-3.35v-1.48l13.17,3.46c4.84,1.27,16.38,5,26.57,8.95,7,2.68,16.91,5.1,24.86,7,3.22.79,6,1.47,8.17,2.07,4.86,1.32,6.83,1.94,7.64,2.25,2.55-2.43,19-18.21,24.42-24.61,4-4.71,11.18-13.73,16.45-20.31,2.51-3.14,4.53-5.66,5.42-6.74,2.72-3.31,5.34-5.9,5.43-6l.11,1.93s-1.78,1.72-4.45,5c-.89,1.08-2.89,3.6-5.4,6.73-5.27,6.59-12.49,15.6-16.47,20.34-5.87,7-24.67,24.85-24.86,25Z"/><path class="cls-7" d="M120.86,251.28c-1.38,0-5.22-.88-16.88-4.4l-6-1.81c-13.74-4.13-20-6-34.22-10.9-15.85-5.46-22.34-7.1-22.4-7.12l-.07-1.48c.07,0,7,1.77,22.93,7.25,14.18,4.88,20.44,6.77,34.17,10.89l6,1.81c12.28,3.7,15.45,4.29,16.26,4.36.64-.6,5.64-5.39,19.07-19.45,9.55-10,16.68-18.37,21.88-24.48,2.63-3.08,4.7-5.51,6.17-7.06,4.16-4.38,5.49-5.5,5.57-5.57l-.18,2.09s-.31.19-4.36,4.46c-1.44,1.52-3.5,3.94-6.12,7-5.21,6.12-12.35,14.5-21.94,24.54-12.76,13.36-17.93,18.37-19,19.38l0,.09C121.61,251.08,121.51,251.28,120.86,251.28Z"/></g><path class="cls-14" d="M66.64,198.79a.11.11,0,0,0,0,.21A.11.11,0,0,0,66.64,198.79Z"/><path class="cls-7" d="M74.49,199.27c-1.91-1.51-4.39-.18-6.11,1-2.08,1.38-4.44,3-5.55,5.31-.06.13.13.24.2.11.95-1.89,2.83-3.26,4.52-4.46S71.89,198,74,199.35c3.37,2.06-1,6.79-2.71,8.46a.07.07,0,0,0,.1.1C73.37,206.34,77.46,201.6,74.49,199.27Z"/><path class="cls-7" d="M97.64,200.63a14.85,14.85,0,0,0-1.8,2.45c0,.08.06.17.13.1.66-.75,1.3-1.52,1.92-2.3C98,200.7,97.78,200.45,97.64,200.63Z"/><path class="cls-7" d="M77.39,192.77c-.51,1.14-1.34,2.14-1.77,3.32,0,.1.12.17.17.07a35.12,35.12,0,0,0,1.76-3.32C77.58,192.75,77.43,192.68,77.39,192.77Z"/><path class="cls-7" d="M104.71,213.77a17.21,17.21,0,0,0-3,4.48.05.05,0,1,0,.09.05,33.76,33.76,0,0,1,3-4.39C104.93,213.82,104.79,213.68,104.71,213.77Z"/><path class="cls-7" d="M129.56,212a14,14,0,0,0-1.67,1.77c0,.08.07.16.13.1.59-.54,1.09-1.18,1.65-1.76A.08.08,0,0,0,129.56,212Z"/><path class="cls-7" d="M125.49,207.86c-.4.4-.79.81-1.18,1.22a7,7,0,0,0-1,1.2.12.12,0,0,0,.18.14c.39-.36.71-.81,1.07-1.2s.74-.77,1.12-1.15C125.83,207.94,125.62,207.73,125.49,207.86Z"/><path class="cls-7" d="M110.26,214.72c-.63,1.39-1.84,2.36-2.64,3.63,0,.05,0,.11.08.06a17.93,17.93,0,0,0,2.72-3.6C110.46,214.71,110.31,214.62,110.26,214.72Z"/><path class="cls-7" d="M120.86,207.11c-.51-2.14-2,.09-2.1,1.37a2,2,0,0,0-2,.43c-.72,1,.7,1.83,1.41,2.22.07,0,.15,0,.11-.11-.35-.58-1.31-.73-1.41-1.47-.12-.92,1.06-1,1.92-.77,0,.42.3.63.91.34a.14.14,0,0,0,0-.21,2.62,2.62,0,0,0-.71-.36,3.4,3.4,0,0,1,.34-1.1,2.13,2.13,0,0,1,.6-.82c.45-.29.61.14.72.54A.11.11,0,1,0,120.86,207.11Z"/><path class="cls-7" d="M96.57,194.28c-.73-.91-2.3-.82-3.32-1.11-1.8-.52-2.36-2.17-4.5-1.83a6.21,6.21,0,0,0-4,2.42,2.06,2.06,0,0,0-.31,1.05,4.52,4.52,0,0,0-1.7.29,3,3,0,0,0-1.58,4.17c.07.13.28,0,.21-.12a2.77,2.77,0,0,1,2-4c.35-.08.76,0,1.1-.11a1.09,1.09,0,0,0,1.26.92.11.11,0,0,0,.11-.1,1.08,1.08,0,0,0-.63-.93,1.72,1.72,0,0,0-.2-1.06,3.9,3.9,0,0,1,.78-.84,6,6,0,0,1,3.93-1.53c1.35.11,1.76,1.07,2.82,1.59s3.35.22,4,1.43c1.3,2.39-3.42,3.32-4.68,3.93a.11.11,0,0,0,0,.21c1.57.38.61,1-.38,1.25a7.07,7.07,0,0,1-2,.37.13.13,0,0,0,0,.25,5.46,5.46,0,0,0,3.3-1c.58-.59,0-.45-.2-.93l-.31-.11a2.34,2.34,0,0,1,.56-.25,13.47,13.47,0,0,1,1.39-.49,5.57,5.57,0,0,0,1.63-.87C96.62,196.35,97.26,195.14,96.57,194.28Z"/><path class="cls-7" d="M79.41,200.5a3.88,3.88,0,0,0-3.26.22c-.17.1,0,.37.15.27a3.64,3.64,0,0,1,2.55-.35,1.47,1.47,0,0,1,1,.49c.29.46-.16,1-.43,1.32a.07.07,0,0,0,.1.11C80.27,201.92,80.48,201,79.41,200.5Z"/><path class="cls-7" d="M125.13,213.61c-1.63-.55-3.57,1.23-4.65,2.19-1.72,1.53-3.67,3.52-4.06,5.86,0,.23.31.33.35.1.32-1.95,1.77-3.56,3.14-4.91,1.14-1.12,2.64-2.61,4.28-2.9,3.48-.59-.11,5.72-.73,6.85a.17.17,0,0,0,.26.2C124.87,219.91,127.7,214.47,125.13,213.61Z"/><path class="cls-7" d="M116.75,214.52c-3.17-.88-7.76,1.78-9.09,4.63-.09.19.19.35.28.17,1.22-2.6,4.87-4.65,7.72-4.61,3.74.06,3.21,3.89,2.06,6.24a.13.13,0,0,0,.22.14C119.36,219.07,119.69,215.33,116.75,214.52Z"/><path class="cls-7" d="M93.55,205.3c-1.22,2.38-2.9,4.61-3.74,7.17,0,.13.17.22.23.09,1.1-2.46,2.55-4.71,3.7-7.15C93.8,205.28,93.61,205.17,93.55,205.3Z"/><path class="cls-7" d="M86.53,214.46c-5.39-1.92-10.84-3.29-15.9-6.07-.17-.09-.32.16-.15.25a61.79,61.79,0,0,0,16,6A.1.1,0,0,0,86.53,214.46Z"/><path class="cls-7" d="M88.76,217.34c-1.68-1.06-3.82-1-5.62-1.81-.18-.08-.34.18-.16.27,1.82.8,3.83,1,5.65,1.76A.13.13,0,0,0,88.76,217.34Z"/><path class="cls-7" d="M94.11,204.58c-3.32,3.16-6.65,6.4-9.72,9.8-.06.06,0,.15.1.09,3.4-3.08,6.46-6.54,9.79-9.71C94.4,204.65,94.22,204.47,94.11,204.58Z"/><path class="cls-7" d="M94.08,204.33a30.4,30.4,0,0,0-1.7,6.09c-.55,2.44-1.46,4.81-1.77,7.3,0,.16.25.2.29,0,.58-2.42,1.31-4.81,1.85-7.24a43.89,43.89,0,0,1,1.57-6.09C94.37,204.29,94.14,204.19,94.08,204.33Z"/><path class="cls-7" d="M93.72,204.68a20.51,20.51,0,0,0-6.13-2.14c-2.1-.44-4.3-.72-6.11-2-.14-.1-.27.13-.13.23a13.35,13.35,0,0,0,5.49,2A40,40,0,0,1,93.6,205C93.76,205,93.86,204.76,93.72,204.68Z"/><path class="cls-7" d="M83.69,200.45c-2.08,1.5-4.23,2.88-6.33,4.35-2.36,1.65-4.91,3.79-7.65,4.74-.09,0,0,.18,0,.15,2.73-.74,5.23-2.87,7.52-4.45,2.11-1.45,4.86-2.68,6.56-4.62C83.91,200.54,83.8,200.37,83.69,200.45Z"/><path class="cls-7" d="M115.58,202.89a2.08,2.08,0,0,0-1.3-1.54,1.89,1.89,0,0,0,.2-.27c.53-.9-.07-2.16-.5-3-.6-1.18-2.1-3.3-3.34-2.16-.46-1.21-3.79-2-4.65-1.73s-.9,1.09-.61,1.87c.23.62.61,1.18.89,1.78.17.37.68,1.19.2,1.46-.33.18-1.68-.93-1.89-1.16-.86-.88-1.49-2.67-3-2.71a2,2,0,0,0-1.86,1.5,3.67,3.67,0,0,0,.38,3c-1,.7-1.51,2.31-.25,3a3.64,3.64,0,0,0,1.63.33c.22,0,1.16-.09,1.3.12s-.23.73-.26.86c-.27,1.09,0,1.56,1.18,1.76.29,0,.42-.38.12-.44-1.39-.28-.65-1.46-.52-2.34a.26.26,0,0,0-.17-.31,10.12,10.12,0,0,0-1.65-.15c-2.29-.16-2-1.94-1-2.52a1.29,1.29,0,0,0,1.34,0,.25.25,0,0,0,0-.43,1.43,1.43,0,0,0-1.15-.13c-.87-.82-.75-3.7.94-3.6,1.14.07,1.77,1.68,2.44,2.41a5.15,5.15,0,0,0,2.71,1.43.23.23,0,0,0,.29-.16c.36-1.49-1-2.44-1.26-3.78-.68-3.13,4.73-.14,4.48.43a.19.19,0,0,0,.33.2c1-1.61,2.35.49,2.84,1.3a7.21,7.21,0,0,1,.52,1c.07.2.13.4.2.6.34.78,0,1.3-1.08,1.57a2.51,2.51,0,0,0-1,.11.24.24,0,0,0,0,.43,1.89,1.89,0,0,0,1.7.1l.22.09a2,2,0,0,1,.78.51c.5,1.44.08,2.12-1.25,2-.21-.11-.4.21-.19.33a3.25,3.25,0,0,1,1,1.11c.15.46.36.28-.42.54a15,15,0,0,1-4.12.45.24.24,0,0,0-.14.41,6.73,6.73,0,0,1-3.7-.08c-.21-.06-.3.27-.09.34a6.62,6.62,0,0,0,4.54-.14.12.12,0,0,0,.07-.07,11.94,11.94,0,0,0,4.5-1c.09,0,.16-.16.07-.24a6.91,6.91,0,0,1-.94-1.23A1.87,1.87,0,0,0,115.58,202.89Z"/><path class="cls-7" d="M108.37,203.64a8.93,8.93,0,0,1-1.07,1.67c-.06.08.08.19.15.11a6.27,6.27,0,0,0,1.15-1.65C108.67,203.62,108.44,203.48,108.37,203.64Z"/><path class="cls-7" d="M108.79,200.76a8.42,8.42,0,0,0-1.51,2.89.14.14,0,0,0,.12.17,1.84,1.84,0,0,0,.41,0c.06,0,.06-.11,0-.12l-.23-.06a13,13,0,0,1,1.43-2.71C109.1,200.75,108.88,200.62,108.79,200.76Z"/><path class="cls-7" d="M107.3,201.24c-.32.69-.63,1.37-1,2-.16.34-.61.92-.41,1.3a.15.15,0,0,0,.12.07h0a.14.14,0,0,0,.11-.07l.12-.13c.06,0,.05-.15,0-.14s-.1,0,0-.14c.16-.35.32-.69.49-1a11.65,11.65,0,0,0,.76-1.82C107.56,201.2,107.36,201.11,107.3,201.24Z"/><path class="cls-7" d="M106.43,203.48s-.53.47-.43.53a6.45,6.45,0,0,1,0-.88,4.08,4.08,0,0,1,.43-2.09c.08-.15-.14-.34-.26-.2-.76.95-.45,2.32-.43,3.44a.14.14,0,0,0,.07.12,8.51,8.51,0,0,1-1.77,2c-.11.07,0,.25.1.17a10.26,10.26,0,0,0,2.5-2.9C106.73,203.51,106.53,203.37,106.43,203.48Z"/><path class="cls-7" d="M98.62,219.6c0-.19-.34-.14-.33.05a4,4,0,0,1-.07.78c-.35-.48-.47-1.11-1-1.34-1-.39-2,.21-3.07.37a4.54,4.54,0,0,1,1.1-.34c.2,0,.11-.34-.09-.32a5.22,5.22,0,0,0-1.94.71c-.14.08-.14.35,0,.37,1.11.17,2-.39,3.1-.5.83-.09.93.11,1.19.75a2.17,2.17,0,0,0,.67.86.21.21,0,0,0,.34-.09A2.61,2.61,0,0,0,98.62,219.6Z"/><path class="cls-7" d="M95.27,217.22c-1.14.35-2.34.47-3.49.79a.17.17,0,0,0,0,.3,3.63,3.63,0,0,0,2.21.21c.11,0,.11-.21,0-.22-.54-.08-1.06,0-1.58-.12a29.76,29.76,0,0,0,2.95-.78C95.43,217.36,95.39,217.18,95.27,217.22Z"/><path class="cls-7" d="M75,199.05c-1.78-1.39-4.5,0-6.14.93-1.85,1.09-4.5,2.7-5,5,0,.22.29.31.33.09.43-2.1,2.91-3.59,4.64-4.63,1.37-.83,6.13-3.07,6.49,0,.19,1.6-1.72,3.41-2.63,4.52-.64.79-1.72,1.8-1.78,2.87a.12.12,0,0,0,.23.06c.9-1.85,2.44-3.24,3.58-4.94C75.52,201.74,76.34,200.1,75,199.05Z"/><path class="cls-7" d="M107.42,204.47c-1.79,2.42-3.54,4.88-5.31,7.32s-3.76,4.57-4.91,7.22c-.08.2.2.38.3.17,2.6-5.32,7.31-9.39,10.12-14.59C107.69,204.46,107.51,204.36,107.42,204.47Z"/><path class="cls-7" d="M106.11,204.33A5.86,5.86,0,0,0,104.9,206a36.12,36.12,0,0,1-3.42,3.79c-2.22,2.37-4.25,4.92-6.29,7.43-.13.15.09.37.21.22,2-2.52,4.08-5.07,6.29-7.44,1-1.06,2-2.06,2.94-3.2.59-.74,1-1.58,1.58-2.35A.07.07,0,0,0,106.11,204.33Z"/><path class="cls-7" d="M117.69,196.54a.3.3,0,0,0,0,.6A.3.3,0,0,0,117.69,196.54Z"/><path class="cls-7" d="M117.73,190.34,117,191a23.68,23.68,0,0,1-2.63,2c-.84.18-2.88.55-2.49-.54a.28.28,0,0,0-.26-.35,4.94,4.94,0,0,0-1.15.19c-.53.11-.64.35-.83-.28a1.62,1.62,0,0,1,0-.19,10,10,0,0,0,3.48-3.13.27.27,0,0,0-.36-.36c-1.14.68-3.29,1.75-3.76,3.18a5,5,0,0,1-.65.23c-.23.06-1.1.25-1.23,0s0-.26.15-.33a6,6,0,0,0,.64-.15H108a.23.23,0,0,0-.12-.44c-.42.12-3.45.73-2.42-.4a.19.19,0,0,0-.14-.33,5.71,5.71,0,0,0-2.2.66c-.2.08-.12.4.09.33a14.66,14.66,0,0,1,1.61-.56l-.25.25a.21.21,0,0,0,0,.32,2.54,2.54,0,0,0,1.73.46,0,0,0,0,1,0,0c.56.94,1.52,1,2.56.62,0,1.23,1.46.68,2.4.52-.12,1,.92,1.11,2,1l0,0c-.28.22,0,.68.29.5s.7-.42,1-.64l.29-.12a.26.26,0,0,0,.18-.2l.18-.12a2.14,2.14,0,0,0-.18.52c-.21.94.5,1,1.2.89-.21.54,0,1,.82,1.08.27,0,.28-.36.06-.45-.44-.33-.44-.63,0-.9a.3.3,0,0,0-.29-.5,2.22,2.22,0,0,1-.74.21c-.51-.07-.4-.12-.34-.47s.64-.91.87-1.18a20.32,20.32,0,0,1,1.57-1.65C118.42,190.49,118,190.08,117.73,190.34Zm-7.61.58a9.37,9.37,0,0,1,1.71-1.34A9.33,9.33,0,0,1,110.12,190.92Z"/><path class="cls-7" d="M100.55,189.16a10.73,10.73,0,0,1-2-.25,1.67,1.67,0,0,1-1.09-.65l-.1-.2h.11c.74-.14,1-.57.67-1.27a.29.29,0,0,0-.34-.2,1.4,1.4,0,0,0-1,.93,8.58,8.58,0,0,1-.93-.18,2.62,2.62,0,0,0-2.75.11.22.22,0,0,0,.22.38c1.31-.79,2.25.11,3.45.25a1.82,1.82,0,0,0,.29.62c.76,1.07,2.34.95,3.47.71C100.66,189.37,100.67,189.17,100.55,189.16Z"/><path class="cls-7" d="M91,184.43l-1.09.32a1.89,1.89,0,0,0-.28-.52.24.24,0,0,0-.37,0c.15-.17.1,0-.15-.14a2,2,0,0,0-.35-.11c-.27-.09-.49-.21-.75-.32-.49-.2-.68-.12-1,.33-.12.19.17.42.32.25.43-.49,1.41.49,2,.44a1.23,1.23,0,0,1,.12.26,8.13,8.13,0,0,0-3.14,1.56c-.44.4-1.78,1.93-.81,2.44.77.4,2.13-.49,2.71-.93A3.9,3.9,0,0,0,90,185.33a5,5,0,0,0,1.13-.57C91.28,184.65,91.19,184.37,91,184.43Zm-3.46,3.44c-.37.23-2,1.09-1.77.22.25-1.14,1.76-1.88,2.74-2.24.32-.13.66-.23,1-.35A4,4,0,0,1,87.53,187.87Z"/><path class="cls-7" d="M148.75,197.16a4.18,4.18,0,0,0-1.18-.3.22.22,0,0,0-.17-.27,1.29,1.29,0,0,0-.52,0,1.91,1.91,0,0,1-.58-.31l.29-.14a.25.25,0,0,0-.07-.48,8,8,0,0,1-2.52-.29c-.29-.12-.41.35-.12.46a5.19,5.19,0,0,0,1.78.29.26.26,0,0,0,.08.34c.21.16.4.31.59.43a.29.29,0,0,0,.18.35,13.75,13.75,0,0,1,2,.4C148.82,197.74,149,197.28,148.75,197.16Z"/><path class="cls-7" d="M144.19,193.88a4.26,4.26,0,0,0-2.11-1.13c-.3-.11-.42.36-.13.47.71.27,1.39.58,2.09.86A.14.14,0,0,0,144.19,193.88Z"/><path class="cls-7" d="M143.67,195.73a10.25,10.25,0,0,0-4-2.07l.07,0c.21-.09.11-.46-.12-.44A7.43,7.43,0,0,1,137,193c-.72-.19-1.31-.65-2-.87a2,2,0,0,0-2,.5c-.21.16,0,.52.21.36,1.26-.95,2.22-.05,3.4.35a6.47,6.47,0,0,0,2.21.32.27.27,0,0,0,.17.24c.9.27,2,.7,2.84,1.05.66.27,1,.82,1.66,1.08C143.67,196.15,143.82,195.86,143.67,195.73Z"/><path class="cls-7" d="M131,186.89c-1,.53-3,1.27-3.58,2.44a14.26,14.26,0,0,0-1.4.87c-.2.15,0,.5.21.35a9.49,9.49,0,0,1,1-.63c-.08.84.72,1,1.52.85h0a1.84,1.84,0,0,0,1.62,1.06.23.23,0,0,0,.11-.42c-.24-.13-1.17-.52-1.12-.79a3.48,3.48,0,0,0,.67-.26c.24-.13.15-.57-.14-.53a1.57,1.57,0,0,0-1.07.42,1.16,1.16,0,0,1-.78,0c-.35-.19-.27-.48-.06-.75a10.91,10.91,0,0,0,3.33-2.2A.28.28,0,0,0,131,186.89Z"/><path class="cls-7" d="M120.25,186.87l-.13,0c-.25,0-.31.4-.06.44h.06l.11.64-.25-.05a3.7,3.7,0,0,1-.48,0,6.81,6.81,0,0,0-1.68.24,3.27,3.27,0,0,0-.53.17,35,35,0,0,0,3.76-3.12.18.18,0,0,0-.22-.29c-1,.49-2,1-3,1.49-.22.11,0,.44.19.33.6-.29,1.18-.6,1.77-.91-1.62,1.39-3.43,2.54-5,4-.19.18.1.45.29.28a6.68,6.68,0,0,1,4.62-1.82c.44,0,1.14.32,1.51-.08a.57.57,0,0,0,.18-.63c1.11.26,2.25.7,1.23,1.4-.25.17,0,.58.24.4C125.23,187.75,121.58,187,120.25,186.87Z"/><path class="cls-7" d="M114.3,184.1a4,4,0,0,0-2.07-.69,2.56,2.56,0,0,0-.93-.16.26.26,0,0,0-.19.41c-.37-.11-.49-.29,0-.52.23-.09.13-.47-.11-.37-.45.18-1.07.61-.49,1.07a2.16,2.16,0,0,0,2,.18,7.51,7.51,0,0,1,1,.25c1.08.38.23,1.09-.09,1.75-.08.16.09.39.27.27C114.28,185.86,115,184.75,114.3,184.1Z"/><path class="cls-7" d="M113.2,181.15a7.79,7.79,0,0,0-2.1,0,.25.25,0,0,0,0,.49,13.49,13.49,0,0,0,2.1-.23A.16.16,0,0,0,113.2,181.15Z"/><path class="cls-7" d="M112.65,181.28a12.52,12.52,0,0,1-2.12,1.68c-.91.41-2.7-.07-3.63-.36-.5-.15-.78-.58-1.28-.69h-.05c.24-.1.16-.48-.11-.4s-.77.21-1.16.3l-.78.13c-.83.14-.7-.25.39-1.16.19,0,.28-.26.08-.3a2.21,2.21,0,0,0-2.45,1,.21.21,0,0,0,0,.25,2.58,2.58,0,0,0,2.38.59.22.22,0,0,0,.24.31c1.69-.25,3.36.81,5,1.09,1.48.24,2.79-1,3.64-2.11C113,181.43,112.84,181.14,112.65,181.28Z"/><path class="cls-7" d="M98.79,178.94a.23.23,0,0,0,0-.27c-.9-.75-1.77-.17-2.8-.2-.56,0-.8-.49-1.31-.55a1.59,1.59,0,0,0-.78.24,3.31,3.31,0,0,0,.68-1.15.23.23,0,0,0-.27-.28c-.43.09-1.9.36-1.9,1,0,.19.3.24.34.05s.75-.41,1.24-.53a4.38,4.38,0,0,1-.81,1,.23.23,0,0,0,.1.39c.5.11.53-.06,1-.15.61-.12.73.29,1.19.43a4,4,0,0,0,1.57-.18c.61-.08,1.19.24.63.71a9.32,9.32,0,0,1-1.15.52c-.28.15-.06.52.21.48.51-.07,1-.12,1.51-.15.32,0,.32-.51,0-.5h-.27A2.22,2.22,0,0,0,98.79,178.94Z"/><path class="cls-7" d="M154.26,185.82a17.45,17.45,0,0,0-3.57,2.43,5.53,5.53,0,0,1-1.65.59,1.58,1.58,0,0,1,.15-.12c.22-.15.09-.57-.2-.46-1,.35-1.78-.15-2.68-.37a3.15,3.15,0,0,1-.82-.17c-.3-.23.1-.57.46-.83.2-.15.09-.55-.19-.44a11.66,11.66,0,0,1-2.19.65c.08-.08.16-.17.26-.26a.23.23,0,0,0-.16-.39,3.88,3.88,0,0,1-1.07-.09l0-.29a6.23,6.23,0,0,0,1.1-1c.1-.12.05-.37-.15-.36-.65.06-1.85.42-1.87,1.25a.81.81,0,0,0,.1.39l-.89.65c-.11.09,0,.28.11.2.31-.23.63-.44.94-.64a2.19,2.19,0,0,0,1.22.34,2.57,2.57,0,0,1-.51.31c-.23.1-.09.42.12.43a5.86,5.86,0,0,0,2-.29,1.77,1.77,0,0,0-.2.46.26.26,0,0,0,.18.3c1.15.17,2.4.82,3.58.8l-.07.09a.26.26,0,0,0,.18.43,4.73,4.73,0,0,0,1.68-.32c-.05.1-.11.2-.15.3a.28.28,0,0,0,.24.42,2.5,2.5,0,0,1,2.1,1c.19.23.51,0,.46-.26s-.07-.34-.11-.5l1.31.16c.32,0,.47-.4.14-.49a10.5,10.5,0,0,0-1.85-.3.27.27,0,0,0-.28.32,2.67,2.67,0,0,0-1.33-.45,3.92,3.92,0,0,1,.57-.72c1.17-.68,2.25-1.62,3.38-2.29A.27.27,0,0,0,154.26,185.82Zm-11.74-.35a2.15,2.15,0,0,1,.46-.22,6.09,6.09,0,0,1-.44.44Z"/><path class="cls-7" d="M137.62,185.26a.31.31,0,0,0,0,.61A.31.31,0,0,0,137.62,185.26Z"/><path class="cls-7" d="M135.93,182.86c-.58.1-4,1.44-3.22.06a.22.22,0,0,0-.12-.32,5.19,5.19,0,0,0-2.08.27,10.11,10.11,0,0,0,1.19-1.17.19.19,0,0,0-.14-.32c-.94-.09-1.6.63-2.42,1-.21.1,0,.42.19.32a9.87,9.87,0,0,1,1.77-.91c-.4.42-.86.77-1.28,1.18a.19.19,0,0,0,.13.33,4,4,0,0,0,1.14-.16c.58-.13,1.42-.62.89.23a.21.21,0,0,0,0,.26c1.15.91,2.36.14,3.59-.19a4.78,4.78,0,0,1-1.2,1.26.26.26,0,0,0,0,.31l.08.12a.24.24,0,0,0,.27.11h.16a.21.21,0,0,0,.13-.38h0c.2-.21.45-.37.65-.59a2.13,2.13,0,0,0,.59-1.09A.26.26,0,0,0,135.93,182.86Z"/><path class="cls-7" d="M127.42,177.5a7.23,7.23,0,0,0-3.36,3.35c-.73.22-1.68.35-1-.4.16-.19-.05-.53-.28-.37s-.75.63-1,.64c-.82,0-.64-.44-.32-.86a23.92,23.92,0,0,0,3.1-2.34c.2-.16-.06-.42-.26-.33a8.26,8.26,0,0,0-3.33,2.47,5,5,0,0,1-1.09.42l.56-.28c.19-.09,0-.38-.17-.29a11.46,11.46,0,0,0-1.33.73.17.17,0,0,0,.09.32,4,4,0,0,0,1.7-.34,1.54,1.54,0,0,0-.06.43c0,1,.95.7,1.68.28,0,.44.51.63,1.3.52l.38-.08a1.08,1.08,0,0,0,.75.95c.25.12.48-.24.22-.38a.74.74,0,0,1-.42-.74,5.21,5.21,0,0,0,3.19-3.4A.25.25,0,0,0,127.42,177.5Zm-2.72,3.12a7.35,7.35,0,0,1,2.37-2.4A5.25,5.25,0,0,1,124.7,180.62Z"/><path class="cls-7" d="M119.63,175.13a.27.27,0,0,0-.12-.45c-1.32-.46-3,1-3.79,2.53a4,4,0,0,1-2.22.34h0a.25.25,0,0,0,0-.43c-.55-.34-.76-.27-1.23.14a.24.24,0,0,0-.07.18c-.59,0-1.12-.18-.91-.87a.64.64,0,0,1,.12-.23,8.6,8.6,0,0,0,3.67-2.52.24.24,0,0,0-.29-.37,11.46,11.46,0,0,0-3.72,2.46c-.63.17-1.17.21-1.09-.19a.19.19,0,0,0-.13-.23,4.07,4.07,0,0,0-2.53.56c-.23.09-.13.45.1.36s2.2-.84,2.1-.36a.2.2,0,0,0,.13.24,3.41,3.41,0,0,0,1.12.14.84.84,0,0,0-.06.14c-.38,1.26,1,1.51,2,1.28a3.68,3.68,0,0,0,2.71,0c-.41,1.18-.17,2.25,1.28,2.35a.26.26,0,0,0,.07-.51c-1.09-.2-1.09-1.16-.6-2.14A16,16,0,0,0,119.63,175.13Zm-.89.08a13.91,13.91,0,0,1-2,1.48A4.06,4.06,0,0,1,118.74,175.21Z"/><path class="cls-7" d="M109.89,172.8a2.26,2.26,0,0,0-.91.2.21.21,0,1,0,.16.38A3.49,3.49,0,0,0,110,173,.13.13,0,0,0,109.89,172.8Z"/><path class="cls-7" d="M107.94,176.24a2.09,2.09,0,0,1-.79-.2c-.19-.11-.35-.25-.53-.37a1.32,1.32,0,0,0-.46-.2,2.55,2.55,0,0,1,.85-.35c.17,0,.1-.3-.07-.27a3.29,3.29,0,0,0-1.4.69.15.15,0,0,0,.14.25c.86-.29,1.37,1.05,2.29.69A.12.12,0,0,0,107.94,176.24Z"/><path class="cls-7" d="M102.88,170.57a4.43,4.43,0,0,0-2.85,2.61,2.49,2.49,0,0,1-.6.2c-.19,0-1,0-1-.26s.64-.69.77-.78,0-.55-.23-.4l-1.2.79c-.23.16,0,.54.22.38h0c-.1.42.12.77.94.81a3,3,0,0,0,.94-.13,1.13,1.13,0,0,0,1,1.12c.17,0,.34-.2.19-.33a1.18,1.18,0,0,1-.52-1.06,7.24,7.24,0,0,0,2.56-2.54A.27.27,0,0,0,102.88,170.57Zm-2,2.07.09-.13a4.09,4.09,0,0,1,1.23-1.18A6.82,6.82,0,0,1,100.91,172.64Z"/><path class="cls-7" d="M153.7,180.14c.19-.21,0-.6-.32-.42a2.39,2.39,0,0,0-1,1.24c-.12.32.39.45.51.14a1.83,1.83,0,0,1,.29-.51c1.13.26,4.42.64,4.25,2.23,0,.37.55.38.59,0C158.14,181,155.27,180.45,153.7,180.14Z"/><path class="cls-7" d="M150.61,178.85a7.13,7.13,0,0,0-2.66-.45.29.29,0,0,0-.14.53l.35.44-.25-.18a3.7,3.7,0,0,0-.59-.32,2.64,2.64,0,0,0-1.28,0,1.79,1.79,0,0,0-.11-1.18.27.27,0,0,0-.25-.12.23.23,0,0,0-.2,0,13.5,13.5,0,0,1-1.78.3,5.49,5.49,0,0,1-.81,0c-.68.11-.92-.17-.76-.82a3.5,3.5,0,0,0,.28-.27.23.23,0,0,0-.1-.39c-.61-.16-1.24.06-1.32.57-1.18-.08-2.4-1.69-3.76-.67-.24.17,0,.57.23.39,1.26-.94,2.37.62,3.58.73,0,.05.05.1.07.16.45.86,1.6.93,2.69.79-.22.19.07.52.31.39.76-.41,1.67-.87,1.28.32a7.67,7.67,0,0,0-3.7,2.76.27.27,0,0,0,.23.4,6.15,6.15,0,0,0,3.92-2.79,2.22,2.22,0,0,1,1.42,0c.92.36,1.06,1.44,1.92.36a.27.27,0,0,0,0-.33,5.52,5.52,0,0,0-.42-.5,8.05,8.05,0,0,1,1.66.35C150.8,179.47,150.93,179,150.61,178.85Zm-6.13,1.39a6.26,6.26,0,0,1-1.73,1.24,9,9,0,0,1,2.17-1.66Z"/><path class="cls-7" d="M129.05,170.58a1.75,1.75,0,0,0-1.13,0c-.39.09-.2.73.16.58a4.13,4.13,0,0,1,.5-.15,2.75,2.75,0,0,0,.47-.13A.17.17,0,0,0,129.05,170.58Z"/><path class="cls-7" d="M135.23,174.81a9.49,9.49,0,0,1-2.21.29c.17-.27.43-.62.24-.68a.25.25,0,0,0,.28-.36c-.5-1.08-2-.61-3.06-.25a.2.2,0,0,0-.23,0l-.17.09a.22.22,0,0,0-.17-.06,7.37,7.37,0,0,1-2.33-.24l.12-.09c.21-.16.09-.6-.2-.48a20,20,0,0,1-2.06.58,5.6,5.6,0,0,1,1-1.45c.18-.17,0-.42-.26-.33a7.7,7.7,0,0,1-2.61.93c-.26,0-.26.42,0,.41a5.58,5.58,0,0,0,2-.57c-.23.34-.43.72-.64,1.09l0,.08c-1.26.39-2.42,1-2.48,2.13a.24.24,0,0,0,.24.25c1.33-.06,1.95-1,2.5-2,.53-.14,1.08-.26,1.56-.37a.33.33,0,0,0,.26.22c.87.07,1.69.37,2.55.37l0,.08c-.12.22.14.52.37.36a4.42,4.42,0,0,0,.47-.35c.68-.26,2.14-.88,2.69-.32a2.91,2.91,0,0,0-.58.93l-.3-.05a.29.29,0,0,0-.15.55l.24.1c-.23.83-.06,1.47,1.09.48a.28.28,0,0,0,0-.38l-.05,0a5.6,5.6,0,0,0,2.14-.58C135.57,175.05,135.43,174.77,135.23,174.81Zm-10.83-.29c-.09.13-1.75,1.58-1.27.73a2.53,2.53,0,0,1,1.39-.92Z"/><path class="cls-7" d="M126.39,169.88a1,1,0,0,0-.57.16,2.69,2.69,0,0,0-.55.35.23.23,0,1,0,.28.36l.47-.32a1.62,1.62,0,0,0,.45-.28C126.53,170.07,126.53,169.9,126.39,169.88Z"/><path class="cls-7" d="M124.14,172.94a2,2,0,0,0-1.79-.52,7.39,7.39,0,0,1,.74-.38c.23-.09.45-.17.67-.27h0l0,0c.21-.09.06-.45-.15-.37a7.1,7.1,0,0,0-.69.28c-1,.35-1.89.6-2.8,1a15.39,15.39,0,0,0,2.19-3.32c.08-.16-.09-.38-.26-.26a27.85,27.85,0,0,0-4.11,3.56c-.15.15.08.39.23.23a29,29,0,0,1,3.4-3,17,17,0,0,1-2.77,3.58,24.82,24.82,0,0,0-2.66,2.26c-.17.16,0,.48.25.33a21.66,21.66,0,0,0,2.7-2.29,10.61,10.61,0,0,1,.9-.58,7.3,7.3,0,0,1,1.24-.57c-.07.13,0,.34.16.31a3.12,3.12,0,0,1,2.48.25C124.09,173.32,124.3,173.07,124.14,172.94Z"/><path class="cls-7" d="M117,170.31a11.24,11.24,0,0,0-2.64-.6c-.25-.05-.35.32-.11.38a20.34,20.34,0,0,0,2.67.53A.17.17,0,0,0,117,170.31Z"/><path class="cls-7" d="M112.22,168.06a1,1,0,0,0-1.68-.5.37.37,0,0,0-.05.11h0a1.94,1.94,0,0,0-.85,2c.2.87,1.13.8,1.75.42A2,2,0,0,0,112.22,168.06Zm-1.07,1.57c-.39.29-1.06.47-1.17-.17a1.57,1.57,0,0,1,.66-1.46.17.17,0,0,0,.07-.1c.43,0,.85-.21,1,.38A1.52,1.52,0,0,1,111.15,169.63Z"/><path class="cls-7" d="M109.74,166.09c-.16-.65-1.32-.63-1.8-.63a.18.18,0,0,0,0,.36c.35,0,1.18,0,1.33.35s-.74.67-1,.77a.25.25,0,0,0-.06.45c.3.17.61.33.39.7a1.71,1.71,0,0,1-.58.49,9.75,9.75,0,0,1-1.12.56c-.25.13-.07.5.19.44,1-.23,2.84-1.56,1.78-2.38C109.3,167,109.86,166.59,109.74,166.09Z"/><path class="cls-7" d="M105.6,167.85a1,1,0,0,0,0-.1.18.18,0,0,0-.09-.2.27.27,0,0,0-.11-.05.52.52,0,0,0-.5.13.41.41,0,0,0,0,.59.33.33,0,0,0,.56-.24s0,0,0,0A.93.93,0,0,0,105.6,167.85Z"/><path class="cls-7" d="M106.09,163.9a8.06,8.06,0,0,0-2.21,1.76l-.24.13c-1,.46-.69-.34-.22-.91a15,15,0,0,1,1.19-1.2c.13-.13-.08-.34-.21-.21-.82.77-1.89,1.5-1.9,2.73a.21.21,0,0,0,.2.2,2.51,2.51,0,0,0,.55,0c-.61.73-1.19,1.49-1.78,2.16a.31.31,0,0,0,.22.53,1.34,1.34,0,0,0,.4,0c.21,0,.22-.23.13-.37,1.22-1.18,2.13-2.6,3.42-3.71l.54-.42.2-.15A.29.29,0,0,0,106.09,163.9Z"/><ellipse class="cls-7" cx="74.27" cy="181.96" rx="3.02" ry="1.92"/><ellipse class="cls-7" cx="66.05" cy="189.34" rx="3.02" ry="1.92"/><ellipse class="cls-7" cx="58.4" cy="196.63" rx="3.02" ry="1.92"/><ellipse class="cls-7" cx="49.66" cy="205.32" rx="3.02" ry="1.92"/><ellipse class="cls-7" cx="82.13" cy="174.54" rx="3.02" ry="1.92"/><ellipse class="cls-7" cx="89.99" cy="167.67" rx="3.02" ry="1.92"/><path class="cls-7" d="M44.08,230.29a9.54,9.54,0,0,1-7-.77c-4.39-2.32-7.37-8-7.24-13.77a12.36,12.36,0,0,1,7.14-11.37c5.66-2.67,12,1.78,12.08,1.83l1.27-1.78c-.3-.21-7.46-5.25-14.28-2a14.5,14.5,0,0,0-8.39,13.29c-.15,6.58,3.31,13.06,8.4,15.75a11.52,11.52,0,0,0,5.44,1.36,14.18,14.18,0,0,0,5.92-1.44Z"/><path class="cls-7" d="M45,193.46a14.5,14.5,0,0,0-8.39,13.29A18.91,18.91,0,0,0,41,219.18a29.44,29.44,0,0,0-.08-3.57,16.44,16.44,0,0,1-2.16-8.82,12.35,12.35,0,0,1,7.14-11.36c5.66-2.67,12,1.78,12.08,1.83l.64-.89.63-.89C59,195.26,51.84,190.23,45,193.46Z"/><path class="cls-7" d="M45.7,202.72l.47-.47a16.67,16.67,0,0,1-.17-2.74,12.35,12.35,0,0,1,7.15-11.37c5.65-2.67,12,1.78,12.08,1.83l1.27-1.78c-.31-.22-7.46-5.25-14.29-2a14.51,14.51,0,0,0-8.39,13.29,18.87,18.87,0,0,0,.47,4.57Z"/><path class="cls-7" d="M54.69,194.32a15.76,15.76,0,0,1-.09-2.17,12.32,12.32,0,0,1,7.14-11.37c5.65-2.67,12,1.78,12.08,1.83l1.27-1.78c-.3-.21-7.46-5.25-14.29-2a14.51,14.51,0,0,0-8.39,13.29,18.59,18.59,0,0,0,.38,4.15C53.43,195.61,54.08,195,54.69,194.32Z"/><path class="cls-7" d="M61.12,188.47l.56-.57.36-.34a16.19,16.19,0,0,1-.17-2.7A12.33,12.33,0,0,1,69,173.5c5.65-2.68,12,1.77,12.08,1.82l1.27-1.78c-.31-.21-7.46-5.25-14.29-2a14.5,14.5,0,0,0-8.39,13.29,19,19,0,0,0,.49,4.64C60.49,189.12,60.8,188.79,61.12,188.47Z"/><path class="cls-7" d="M70,179.83a.53.53,0,0,1,.12-.1,16.32,16.32,0,0,1-.11-2.32,12.32,12.32,0,0,1,7.14-11.36c5.65-2.68,12,1.77,12.08,1.82l1.27-1.78c-.3-.21-7.46-5.25-14.28-2a14.52,14.52,0,0,0-8.4,13.29,18.72,18.72,0,0,0,.41,4.3Q69.14,180.73,70,179.83Z"/><path class="cls-7" d="M77.27,172.83c0-.51,0-1,0-1.54a12.35,12.35,0,0,1,7.15-11.37c5.65-2.67,12,1.78,12.08,1.83L97.73,160c-.31-.21-7.46-5.25-14.29-2a14.5,14.5,0,0,0-8.39,13.29,18.49,18.49,0,0,0,.27,3.57C75.93,174.12,76.59,173.47,77.27,172.83Z"/><polygon class="cls-15" points="145.74 206.22 123.47 201.36 111.91 201.36 119.55 211.09 138.39 214.67 138.31 236.81 178.22 243.99 181.69 242.49 146.8 227.77 145.74 206.22"/><path class="cls-10" d="M116.49,189.33c-.1.74,4.31,11.55,4.31,11.55l50.34,39.46s8.53,6.61,11.49,2.51,2.55-8-2.92-12.09-51.38-37.46-51.38-37.46Z"/><polygon class="cls-7" points="123.94 193.08 175.94 232.42 178.22 229.71 128.02 193.08 123.94 193.08"/><polygon class="cls-7" points="122.48 195.75 170.94 233.11 169.55 236.81 120.54 198.36 122.48 195.75"/><path class="cls-4" d="M120.73,200.69a24.56,24.56,0,0,1,2.87-4.44,10.27,10.27,0,0,1,4.07-3.17l-11.18-3.75C116.4,190,120.15,199.28,120.73,200.69Z"/><path class="cls-16" d="M174.24,226.72s-3.4.31-5,3-2.6,4.14-2.23,7.43c1.7,1.33,6.62,4.89,6.62,4.89L181,231.76Z"/><path class="cls-2" d="M182.63,242.85c2.71-3.77,2.59-7.34-1.68-11.09a7.44,7.44,0,0,0-4.58,3.23,19.69,19.69,0,0,0-2.69,7C176.44,243.65,180.71,245.51,182.63,242.85Z"/><polygon class="cls-7" points="116.49 189.33 118.2 194.32 120.54 190.69 116.49 189.33"/></g></svg>