<svg xmlns="http://www.w3.org/2000/svg" viewBox="0 0 440 150"><defs><style>.cls-1{fill:#d6d7d9;}.cls-2{fill:#a0a2a5;}.cls-3{fill:#c2c4c6;}.cls-4{fill:#b5b7b9;}.cls-5{fill:#58595b;opacity:0.44;}.cls-6{fill:none;stroke:#393a35;stroke-linecap:round;stroke-linejoin:round;stroke-width:2px;}.cls-7{fill:#9c6bad;}.cls-8{fill:#af97c7;}.cls-9{fill:#393a35;}.cls-10{fill:#7a478b;}.cls-11{fill:#fff;}</style></defs><title>tails_1.4_gift</title><g id="Layer_3" data-name="Layer 3"><path class="cls-1" d="M70,143.43S.83,146.17,11.83,75s100.73-57.7,122-46c32.91,18.08,93.35,58.57,124.62,60.33s73.32-37.05,116-35.9,59.68,29.16,59.68,52.28c0,15.93-15,40.93-46.46,39.78Z"/><path class="cls-1" d="M263.94,33.83h94.84s-1.15-14.38-12.66-15.75S330.55,25.2,324.18,25s-7.08-4.15-9.95-7.9-7.35-4.74-14.43-4.94S288.34,15.44,286,19.63s-5.85,3.74-9.9,3.1C268.09,21.44,263.94,33.83,263.94,33.83Z"/></g><g id="Layer_5" data-name="Layer 5"><polygon class="cls-2" points="58.88 104.66 42.35 44.49 26.45 104.23 39.2 104.4 38.6 144.01 44.46 143.93 44.98 104.47 58.88 104.66"/><polygon class="cls-3" points="97.47 74.27 77.81 2.65 58.88 73.76 74.05 73.96 73.33 121.11 80.31 121.01 80.94 74.05 97.47 74.27"/><polygon class="cls-4" points="398.04 84.86 379.28 12.15 358.78 84.86 374.99 84.86 374.62 137.61 381.82 136.57 381.82 84.86 398.04 84.86"/><polygon class="cls-3" points="353.44 75.64 335.16 3.71 314.68 75.64 331.58 75.64 331 130.4 338.44 130.73 338.44 75.64 353.44 75.64"/><path class="cls-3" d="M303.54,144.85s-1.66-55.79,25.14-54.25c33.5,1.93,28.61,32.65,28.61,32.65v21.8Z"/><path class="cls-2" d="M348.76,145.14s-6-47.54,33.33-46.1c23.53.87,33.32,14.87,33.32,31.21v15.26l-66.65-.37Z"/><path class="cls-2" d="M121.48,143.76V107.52S123,82.7,98.18,81.67c-19.1-.8-22,13.13-22.62,30S73.47,144,73.47,144Z"/><path class="cls-4" d="M50.07,144.34,93.3,144c-.11-11.7,4.63-47.54-20.73-47.54S50.08,120.2,50,126.52C49.75,142.13,50.07,144.34,50.07,144.34Z"/><polygon class="cls-3" points="166.84 93.68 145.7 16.73 125.37 93.14 141.66 93.35 140.9 144.01 148.39 143.9 149.07 93.44 166.84 93.68"/><polygon class="cls-5" points="381.82 84.86 374.99 84.86 374.99 90.16 381.82 88.26 381.82 84.86"/><polygon class="cls-5" points="149.07 93.44 141.66 93.35 141.58 99 149.02 96.69 149.07 93.44"/><polygon class="cls-5" points="44.98 104.47 44.98 107.92 39.11 109.98 39.2 104.4 44.98 104.47"/></g><g id="Layer_2" data-name="Layer 2"><path class="cls-6" d="M214.77,61.57s17.5,1,29.47-5.43c9.91-5.28,16.4-13.65,29.25-14.47,18.49-1.18,22.58,6.52,22.58,6.52"/><path class="cls-7" d="M173.86,61.53S160.39,91,154.09,105.24s-17.37,38.62-17.37,38.62,12.05.17,34.5.52c22.66.35,34.25.1,34.25.1s-24.91-63.34-26.74-69-4.87-13.94-4.87-13.94"/><path class="cls-8" d="M173.86,61.53s25.27.23,41.91,0S255,62.2,255,62.2s14.4,29,18.45,40.11,17.84,42.54,17.84,42.54-83.43-.32-85.86-.37S173.86,61.53,173.86,61.53Z"/><path class="cls-9" d="M174.06,62.27s-.16,34.37-.2,41.93c-.05,8.09-.81,29.44-.74,33.21s-.24,5.76.41,7h-2.31s.13-6.15,0-9.4.69-35.3,1.39-44.63S174.06,62.27,174.06,62.27Z"/><path class="cls-7" d="M214.77,61.57s-4.62-44.49,8.91-51.12C247.14-1,256.1,23.75,252.17,34.8c-6.18,17.43-37.4,26.77-37.4,26.77s12.62-12,23.26-24.16c10.48-12-6.51-22.16-13.62-11.21C222.4,29.3,214.77,61.57,214.77,61.57Z"/><path class="cls-10" d="M214.77,61.57s7.63-32.27,9.64-35.37c5.21-8,15.72-4.72,16.84,2.35C241,19.2,229.49,11.94,225.43,9.66c-.57.25-1.15.5-1.75.79C210.15,17.08,214.77,61.57,214.77,61.57Z"/><path class="cls-7" d="M236.72,38.89c.29-.31.55-.61.8-.91l-.82.93Z"/><path class="cls-10" d="M215,61.57s4.62-44.49-8.91-51.12C182.6-1,173.64,23.75,177.57,34.8,183.75,52.23,215,61.57,215,61.57s-12.62-12-23.26-24.16c-10.48-12,6.52-22.16,13.62-11.21C207.34,29.3,215,61.57,215,61.57Z"/><path class="cls-7" d="M215,61.57s-7.63-32.27-9.64-35.37c-5.21-8-15.72-4.72-16.84,2.35.27-9.35,11.76-16.61,15.82-18.89.57.25,1.15.5,1.75.79C219.59,17.08,215,61.57,215,61.57Z"/><path class="cls-7" d="M193,38.89c-.29-.31-.55-.61-.8-.91l.82.93Z"/><path class="cls-9" d="M347.53,77.29,314.47,44.24a5.35,5.35,0,0,0-3.93-1.57l-14.6.43a5.33,5.33,0,0,0-5.18,5.18l-.42,14.6a5.31,5.31,0,0,0,1.56,3.93L325,99.86a5.33,5.33,0,0,0,7.55,0l15-15A5.35,5.35,0,0,0,347.53,77.29ZM295.9,52.7a3.31,3.31,0,1,1,4.68,0A3.3,3.3,0,0,1,295.9,52.7Z"/><path class="cls-11" d="M326.8,76.86h0a5.2,5.2,0,1,0-4.6-8.8,5.2,5.2,0,1,0-8.8-4.6h0v0a4.78,4.78,0,0,0-.08.84l-1.27,13.87,14-1.28a3.81,3.81,0,0,0,.59-.05Z"/></g></svg>