<svg xmlns="http://www.w3.org/2000/svg" viewBox="0 0 350 350"><defs><style>.cls-1{fill:#d6d7d9;}.cls-2{fill:#a0a2a5;}.cls-3,.cls-9{fill:#58595b;}.cls-3,.cls-7{opacity:0.44;}.cls-13,.cls-14,.cls-4{fill:none;stroke-linecap:round;}.cls-4{stroke:#58595b;stroke-width:7px;}.cls-13,.cls-4,.cls-6{stroke-miterlimit:10;}.cls-5,.cls-6,.cls-7{fill:#393a35;}.cls-6{stroke:#393a35;}.cls-8{fill:#fff;}.cls-10{fill:#dadbdc;}.cls-11{fill:#af97c7;}.cls-12{fill:#7a478b;}.cls-13,.cls-14{stroke:#a0a2a5;}.cls-14{stroke-linejoin:round;}.cls-15{fill:#9c6bad;}</style></defs><title>tails_5.2_journalist</title><g id="Layer_8" data-name="Layer 8"><path class="cls-1" d="M108.33,349.44l24.31.12c.36-.85,3.23-2.58,2-5.66-.61-1.5,1.15-3,1.23-4.71a15.11,15.11,0,0,0-1.09-6c.66-4-1.72-8.59-6.23-9.2-1.93-.27-3.16.88-4.85,1.13-.94.14-.72.47-1.73.3-.6-.09-1.59-1.07-2.26-1.32a5,5,0,0,0-4.88.37c-1.83-.95-3.88-.88-5.82,1.25-1.71,1.89-1.91,1.42-1.65,3.83C107.76,333.57,116.91,346.87,108.33,349.44Z"/><path class="cls-2" d="M117.32,349.56,92.14,299.15,78.67,310.93s5.27,22.77,9.84,38.63Z"/><polygon class="cls-3" points="81.71 323.63 104.37 323.63 106.47 327.84 85.62 338.26 81.71 323.63"/><path class="cls-2" d="M48.3,260.16c5.81-5.54,18.45-19.65,25.72-18.91s11.25,3.95,12.71,9.1,3.74,17.23,3.74,17.23L51,271.76l-2.73-6.94Z"/><line class="cls-4" x1="64.64" y1="207.36" x2="86.91" y2="262.22"/><path class="cls-2" d="M72.22,246.19c1.82.24,8.86,1,12.75,7.15s1.94,15.79,1.94,15.79L73,270.71l-7.42-7.43Z"/><path class="cls-5" d="M232.82,349.45l-1.61-156.73-72.06,2.58-9.73,64.22-11.14,89.94S223,349.71,232.82,349.45Z"/><path class="cls-1" d="M202.6,349.34c.43,0,29.52.26,44,0-1.11-13.73-4.79-60.36-4.17-72,.73-13.59,14.08-73.57,13-78.57s-10.89-10.89-10.89-10.89L215.85,205.3S205,245,204.68,268.82s-4,54.36-2.32,64.69C203.73,341.85,203.09,346.49,202.6,349.34Z"/><path class="cls-6" d="M234.58,173a8,8,0,0,0-.82-.9,3,3,0,0,0,.18-.73c1.51-1.67,1.51-4.88-1.25-5.26-6.32-.87-14.13.7-20,3.14-3.47,1.44-6.73,3.38-10.4,4.33-4.3,1.12-8.83,1.27-13.25,1.62A93.19,93.19,0,0,0,165,179.94c-5.2,1.83-11,3.67-14.67,8-1.23,1.45-1.48,4.39.69,5.3,3.25,1.38,5.85.51,8.92-1h0a2.71,2.71,0,0,0,2.16.72c.3,0,.59-.08.88-.12a4.32,4.32,0,0,0,2.22,2.1,9.67,9.67,0,0,0,5.39.18l0,0c6.87,4.29,18.05,2.81,25.66,2,9.32-1,18.29-2.91,25.83-8.78,2.8-2.17.14-5.72-2.79-5.57a16.33,16.33,0,0,0,4.34-4.31,3.13,3.13,0,0,0,.53-1.6,24.94,24.94,0,0,0,5.65-1.29,3.15,3.15,0,0,1,1.67.47C233.29,177.27,236,174.75,234.58,173Z"/><polygon class="cls-2" points="157.42 172.29 160.22 187.84 168.7 200.4 214.07 187.03 223.77 179.97 214.07 163.59 157.42 172.29"/><path class="cls-7" d="M160.23,187.84s25.16-2.07,36.09-5.18c11.29-3.2,22.33-11.34,22.33-11.34l-4.58-7.73-56.87,7Z"/><path class="cls-2" d="M134.13,70.87c-11.9,8.06-49.93,36.61-44.64,65.23s27.89,35.38,43.91,35.12c5.06,5.37,17,11.14,32.29,1.43a66.75,66.75,0,0,0,48.38-2.84c22.81-10.56,46.77-26.2,48.14-52.07-2.06-12.84-34.89-57-34.89-57L194,61Z"/><path class="cls-8" d="M156.14,111c3.91,7.78,24.68,20.23,35.88-1.81C187.67,90.56,162,94.21,156.14,111Z"/><path class="cls-8" d="M102.16,114c4.4,10.43,19.82,15.89,33.18-1.41C132.18,93.15,106.32,96.76,102.16,114Z"/><path class="cls-9" d="M138.5,112.61s2.66,22.32-1.34,27.38c-2.54.69-5.22.12-5.71,2.18S129,148,140.8,146.54c-.73,3-1.55,6.79,2.57,6.8s7.12-2.18,6.89-7.4c1.55-.49,7.45-1,6.89-4.74s-9.2-3.37-9.2-3.37a45.19,45.19,0,0,1-.59-24.78C146.66,113.06,138.5,112.61,138.5,112.61Z"/><path d="M157.8,158.56c-7,.7-13.76,1.65-20.73.67a.57.57,0,0,0-.55,1c1.83,2.25,5.42,2.2,8.08,2.22,4.49,0,8.75-.28,13.2-.67C159.82,161.55,159.82,158.35,157.8,158.56Z"/><path class="cls-5" d="M121.73,106.56a4.25,4.25,0,0,0-5.63-.81,4.4,4.4,0,0,0-.84.83,7.82,7.82,0,0,0-1.06,1.15,7.59,7.59,0,0,0-1.26,1.8c-1.48,3-2.11,7.09-.17,10a5,5,0,0,0,8.33.45,13.65,13.65,0,0,0,2.46-8.18A7.38,7.38,0,0,0,121.73,106.56Z"/><path class="cls-5" d="M178.82,113c.52-2.89.2-5.87-1.24-7.55-3.37-3.94-8.67-1.3-10.69,2.62a12.23,12.23,0,0,0-1.32,5.81c0,2.39.79,4,2.78,5a6.73,6.73,0,0,0,1.27,1c4,2.43,7.13-.54,8.57-4.54A10.79,10.79,0,0,0,178.82,113Z"/><path class="cls-5" d="M133.67,93.87c-8.65-.12-21.49-1.31-27.3,6.82-.19.27.08.58.35.6,9,.84,18-.32,26.95-.11C138.37,101.28,138.38,93.94,133.67,93.87Z"/><path class="cls-5" d="M193.51,98.41c-3.6-3.24-10.26-4.35-14.93-5-5.09-.72-12.18-.93-17,.95-2.51,1-2.49,5.58.7,5.17A86.33,86.33,0,0,1,177.83,99c4.92.29,9.67,2,14.56,2.16A1.59,1.59,0,0,0,193.51,98.41Z"/><path class="cls-10" d="M193.25,109.17a.5.5,0,0,1,0-1c.08,0,7.45,0,11.54-2.31a.5.5,0,0,1,.68.19.51.51,0,0,1-.2.68c-4.31,2.4-11.7,2.44-12,2.44Z"/><path class="cls-10" d="M193.25,106.79a.5.5,0,0,1-.49-.4.51.51,0,0,1,.4-.59c.09,0,8.86-1.75,12.35-5.42a.5.5,0,0,1,.71,0,.49.49,0,0,1,0,.7c-3.71,3.92-12.51,5.65-12.88,5.72Z"/><path class="cls-10" d="M205,113.11a.54.54,0,0,1-.22,0c-4-2-11.45-1.59-11.53-1.59a.49.49,0,0,1-.53-.47.51.51,0,0,1,.47-.53c.32,0,7.77-.42,12,1.69a.5.5,0,0,1-.22,1Z"/><path class="cls-10" d="M102.31,109.22h0a6,6,0,0,1-4.71-2.74.5.5,0,1,1,.88-.48,5.06,5.06,0,0,0,3.87,2.22.5.5,0,0,1,0,1Z"/><path class="cls-10" d="M101.5,111.56c-1.39,0-4.46-.16-6-1.51a.5.5,0,0,1,0-.7.5.5,0,0,1,.71,0c1.63,1.46,5.89,1.24,5.94,1.24a.49.49,0,0,1,.52.47.5.5,0,0,1-.47.53Z"/><path class="cls-10" d="M94.48,116.32a.52.52,0,0,1-.35-.14.5.5,0,0,1,0-.71c2.09-2.17,7.16-2.89,7.37-2.92a.51.51,0,0,1,.57.43.5.5,0,0,1-.43.56s-4.94.7-6.79,2.63A.51.51,0,0,1,94.48,116.32Z"/><path class="cls-10" d="M163.94,163.4a.49.49,0,0,1-.46-.32,75.79,75.79,0,0,0-9.74-16.71.49.49,0,0,1,.07-.7.51.51,0,0,1,.71.08,76.69,76.69,0,0,1,9.89,17,.51.51,0,0,1-.28.65A.43.43,0,0,1,163.94,163.4Z"/><path class="cls-10" d="M132.92,162.9h0a.5.5,0,0,1-.44-.55,139.46,139.46,0,0,1,2.42-14.46.5.5,0,1,1,1,.22,139.26,139.26,0,0,0-2.41,14.35A.5.5,0,0,1,132.92,162.9Z"/><path class="cls-10" d="M171.22,128.69a13.6,13.6,0,0,1-3.13-.36,12.38,12.38,0,0,1-8.84-7.94.5.5,0,1,1,.95-.33,11.39,11.39,0,0,0,8.12,7.3c5.61,1.32,12.23-1.34,18.64-7.5a.49.49,0,0,1,.7,0,.5.5,0,0,1,0,.71C182.12,125.89,176.4,128.69,171.22,128.69Z"/><path class="cls-10" d="M110.78,129.9a11,11,0,0,1-3.59-.58,10,10,0,0,1-6.11-6.54.5.5,0,1,1,1-.25,9.23,9.23,0,0,0,5.5,5.85c4.8,1.66,11.79-.81,20.21-7.15a.5.5,0,0,1,.61.8C121.4,127.26,115.51,129.9,110.78,129.9Z"/><path class="cls-5" d="M201.51,62.11s-21.18,9.55-21,24.53c-7.08,1-80.29,5.11-93.4,9.32-.69-11.26,15.42-47.1,66.66-42.63,31.52,2.75,33.44,7,51.23,6.61Z"/><path class="cls-5" d="M201.51,62.11s2.67,25.88,12.56,40.28,23.41,22.13,27.89,10.22,12.61-13.53,19.55-13.93c.86-4.29,12.8-30.48-9.58-42.6S210.86,54.3,201.51,62.11Z"/><path class="cls-5" d="M266.31,112.72s25.62-5.2,34.62,8.91,12.3,37.86,5.86,63.21-7.92,24.14-9,35,.11,25-2.77,34.44A156.11,156.11,0,0,0,290.83,272s-4.15-21-2.61-30.8-8.1-42-15.05-50.8-15.06-19.82-15-35.16S266.31,112.72,266.31,112.72Z"/><path class="cls-8" d="M114.85,134.87c-7.63,0-16.43-.13-17-.14l-.2,0c-.2,0-4.89-1.17-4.8-8.57h0c.08-7.08,2.52-8.46,8-8.87,4.81-.36,24.8-.62,25.65-.63,1.82,0,5.3,1.3,5.72,5.94a21.25,21.25,0,0,1-.17,6.25c-.27,1.86-2.22,5.63-7.56,5.91C122.44,134.83,118.8,134.87,114.85,134.87ZM98,132.73c1.77,0,20.74.29,26.32,0,5-.26,5.68-4.13,5.7-4.29a19.43,19.43,0,0,0,.15-5.69c-.36-4-3.59-4.12-3.73-4.12s-20.76.27-25.5.62c-4.29.33-6,.7-6.1,6.91C94.8,131.42,97.5,132.56,98,132.73Z"/><path class="cls-8" d="M174.65,134.86c-8.85,0-19.14-.13-19.3-.13l-.17,0c-.06,0-5.46-1.16-5.36-8.58.1-7.71,3.59-8.52,8.89-8.87s28.09-.62,29-.63a6.4,6.4,0,0,1,6.35,5.93,19,19,0,0,1-.2,6.27c-.15.67-1.48,5.57-8.45,5.9C183.22,134.83,179.12,134.86,174.65,134.86Zm-19.16-2.13c1.76,0,23.5.3,29.88,0,5.78-.27,6.55-4.15,6.58-4.31a17.28,17.28,0,0,0,.17-5.66,4.43,4.43,0,0,0-4.36-4.13c-.21,0-23.53.27-28.92.62s-6.94,1-7,6.91h0C151.75,131.48,154.94,132.58,155.49,132.73Z"/><path class="cls-8" d="M149.92,124.75c-.92-3.86-4-6.23-8.32-6.34-4.44-.12-8.48,2.23-9.43,5.47l-1.92-.56c1.38-4.7,6.8-7,11.41-6.91,5.17.13,9.08,3.15,10.21,7.88Z"/><polygon class="cls-8" points="193 121.18 192.41 119.27 251.24 101.09 246.93 104.56 193 121.18"/><path class="cls-2" d="M253.89,100s18.82-6.94,19.28,6.27c.44,12.5-8.41,19.55-19.82,18"/><path class="cls-7" d="M230.19,222.18s3.78,38.5,4.32,46.61c.58,8.65,2.64,15.46-1.22,23s-10.87,6.29-10.87,6.29l10,18.29s2.53,22.68,1.86,28.3,14.35,4.57,14.35,4.57l-5.19-118.72Z"/><path class="cls-1" d="M241.58,349.34s22.43-.27,30.41,0c.43-127.24-12.7-140.13-15-147.22s-8.89-11-18.47-6.52-11.52,14.06-7.34,33.16C240.45,261.55,241.58,349.34,241.58,349.34Z"/><path class="cls-1" d="M152.25,208.94c7.83.15,10,16.69,7.78,26.81s-3.86,32.71-22.22,90c-5.45-1.5-26.93-5.44-26.93-5.44s10.55-23.32,16.35-42.88,10.34-48.2,12.38-57.61S145.62,208.82,152.25,208.94Z"/><path class="cls-7" d="M123.54,288.5l14.52,37.26s11.63-43,13.23-53.95-17.66-21-17.66-21S128.93,274.63,123.54,288.5Z"/><path class="cls-1" d="M142,292.47c.94,9.18-2.82,48.11-3.69,57,0,0,12.15,0,11.77-.12,1-5.84,3.4-20.81,4.08-27.55.82-8.22-2-26.27-1.88-38.18s5.67-47.1,7.78-55.79-.88-20.59-.88-20.59,0-5-5.82-5.87-10.25,8.83-10.25,8.83S139,222.89,130,254.27,138.25,291.39,142,292.47Z"/><path class="cls-11" d="M164.27,282.39c1.09-.18,33.15-.57,33.15-.57l-2.74,54.52-36,.23Z"/><path class="cls-12" d="M206.26,191.35s-22.58,59.14-29.89,97c3.23.09,7.26,0,7.26,0s10.2-45.34,16.08-60.9c6.91-18.27,16.27-38.4,16.27-38.4Z"/><path class="cls-12" d="M171.6,199.66s6,69.93,12,88.69c-3.64,0-7.26,0-7.26,0s-7.19-50.36-9.07-71-.67-22.23-.67-22.23Z"/><path class="cls-8" d="M183.63,293.11l-13.32.06-2.49,34.55,6.41.49,1.05-13.68,6.32-.19s8,.11,8.54-9.79S183.63,293.11,183.63,293.11Zm-7.26,14,.93-7.4s6.33-2,5.66,4.55C182.54,308.34,176.37,307.15,176.37,307.15Z"/><path class="cls-9" d="M245.49,179h0c0-.09,0-.16.05-.25a4.87,4.87,0,0,0-3.11-5.42,5.57,5.57,0,0,0-3.52-.07c.91-3.93-2-7.38-6.3-7.46-6-.11-9.54,4-12.4,8.7-2.11,3.49-3.61,6.83-7.06,9.21s-7.37,3.51-11.28,4.42c-9.57,2.23-20.29,4.29-30.12,2.9A61.49,61.49,0,0,1,159,187.52c-2.61-1-5-1.44-7.41-.15a8.7,8.7,0,0,0-1.63.55c-1.77.77-2.2,3.4-1.29,4.92.1.17.25.38.4.59a3.86,3.86,0,0,0-.17,2.35,11,11,0,0,0,.51,1.56c-4-.43-6.92,3.52-5.55,8.14,4.39,14.82,29.94,15.31,40.52,13.38,9.41-1.73,17.87-6.54,27.19-8.67,8.41-1.93,17.08-7,23.58-12.17,4-3.22,12.66-7.51,13.4-13.35A5.2,5.2,0,0,0,245.49,179Z"/><path class="cls-13" d="M137.9,241.54s-2.68,18.4-4.14,22.77c2.43.61,10.76,1.58,13,1.34.45-3.64,4.3-17.36,4.5-23.19C147.84,241.85,137.9,241.54,137.9,241.54Z"/><polyline class="cls-14" points="137.9 241.54 141.4 253.49 151.29 242.46"/><path class="cls-13" d="M211.55,244.31s.16,21.1-1.3,25.47c2.43.6,14.61.37,16.88.13.44-3.65.5-19,.7-24.79C224.38,244.51,211.55,244.31,211.55,244.31Z"/><polyline class="cls-14" points="211.55 244.31 218.74 256.26 227.83 245.12"/><path class="cls-13" d="M244.52,208.94l8.83-2.51s4.61,15.35,6.07,25c-2.91.93-9.65,2.41-9.65,2.41A175,175,0,0,0,244.52,208.94Z"/><path class="cls-1" d="M234.19,343.37a2.48,2.48,0,0,0,.19,1.49c1.92,4.26,5.89,2.85,10.18,4.48,8.89-.18,28.65,0,28.65,0,.13-.69-.1-1.62-1-4l-.09-.19a5.52,5.52,0,0,0,.46-3.83,5.12,5.12,0,0,0,2.19-3.34c1.25-6.3-6.69-7-10.82-8-8.12-1.9-16.16-6.73-24.65-5.93a4,4,0,0,0-3.53,4.42,8.44,8.44,0,0,0,.18,1c-1.65,2-1.73,5.19.62,7.89a6,6,0,0,0-1.07.75A4.52,4.52,0,0,0,234.19,343.37Z"/><polygon class="cls-8" points="39.86 253.28 46.86 250.07 99.74 251.9 119.23 322.69 113.47 325.52 93.83 254.7 39.86 253.28"/><polygon class="cls-15" points="93.83 254.7 113.47 325.52 57.6 322.19 39.86 253.28 93.83 254.7"/><path class="cls-2" d="M260.26,349.34c-4.43-5-9.38-7.76-18.7-11.08C218.7,331.5,103,302.85,103,302.85l-3.28,17.78s39.43,14.26,79.68,28.71C183.94,349.24,240.72,349.2,260.26,349.34Z"/><path class="cls-2" d="M119.09,308.07c-.15-.23-.33-.43-.49-.65a9,9,0,0,0-2.15-3.8,22.56,22.56,0,0,1-1.85-6.86c-.43-5.09,1.41-10.1,3.67-14.57,2.17-4.29-5-6.4-7.8-2.5-1.93,2.67-6.75,12.36-5.39,18.8-2.34-.73-10-1.2-12-1.73C82.59,294,79,291.12,70.49,286.5c-4.66-2.53-14.95-11.81-18.29-3.7-1.38,3.36-1.29,7.86-1.76,11.44-.53,3.92-.93,8,1,11.63,3.51,6.46,13.16,11.67,19.42,14.48,9.25,4.15,22.41,8.59,29.13,7.25,10.15-2,18.27.32,18.47-.19C120.85,321.36,123,314,119.09,308.07Z"/><path class="cls-5" d="M167,202.92a34.57,34.57,0,0,1-6.28-.38c-2.94-.76-11.2-4.58-11.55-4.75a.5.5,0,0,1,.42-.9c.09,0,8.52,4,11.38,4.68s18.71.44,24.21-1.64c3.45-1.31,8.19-1.51,12.77-1.7a59.18,59.18,0,0,0,7.82-.65c5.09-1,11.22-4.76,18.87-10.14,6.9-4.86,13.74-14.39,13.81-14.49a.5.5,0,0,1,.82.58c-.07.1-7,9.77-14.05,14.72-7.76,5.46-14,9.31-19.26,10.31a60.1,60.1,0,0,1-8,.67c-4.5.19-9.16.38-12.46,1.63C181.66,202.34,173.09,202.92,167,202.92Z"/><path class="cls-5" d="M199.13,206.06c-3.22,0-6.93-1-10.79-2a66.34,66.34,0,0,0-8.59-1.91.5.5,0,0,1,.12-1,67,67,0,0,1,8.73,1.93c5,1.33,9.63,2.59,13.19,1.7,4.3-1.07,7.34-1.64,10.28-2.2,1.08-.2,2.13-.4,3.22-.62a4.7,4.7,0,0,0,3.76-2.47,13.78,13.78,0,0,1,2.15-2.6,9,9,0,0,1,3.88-2.57,23.68,23.68,0,0,0,2.53-1.06c.74-.36,1.49-.7,2.24-1,2.87-1.3,5.58-2.52,7.53-4.7,2.51-2.8,7.64-8.79,7.69-8.85a.5.5,0,0,1,.76.65c-.05.06-5.18,6.06-7.71,8.87-2.09,2.33-5,3.66-7.85,4.94-.75.33-1.49.67-2.22,1a25.12,25.12,0,0,1-2.63,1.1,8.15,8.15,0,0,0-3.54,2.36,13.31,13.31,0,0,0-2,2.43,5.63,5.63,0,0,1-4.38,2.89c-1.09.22-2.15.42-3.23.62-2.93.56-6,1.13-10.23,2.19A11.82,11.82,0,0,1,199.13,206.06Z"/><path class="cls-5" d="M179.12,209.82c-1.54,0-3.37-.2-5.52-.43-2.51-.27-5.36-.58-8.78-.72-10.4-.42-14.43-10.4-14.47-10.5a.5.5,0,0,1,.93-.36c0,.09,3.84,9.46,13.58,9.86,3.46.14,6.44.46,8.84.72,4.61.51,7.66.83,9.26-.59,2.73-2.43,8-3.92,8.26-4a.5.5,0,0,1,.26,1s-5.3,1.49-7.85,3.76C182.55,209.51,181.07,209.82,179.12,209.82Z"/><path class="cls-5" d="M205.38,189.06a30.24,30.24,0,0,1-4.41-.28.5.5,0,0,1,.16-1c.13,0,12.76,2,22.34-5.08,6.53-4.82,7.52-5.28,13.34-7.47a.49.49,0,0,1,.64.29.5.5,0,0,1-.29.65c-5.7,2.14-6.68,2.6-13.09,7.33S210.08,189.06,205.38,189.06Z"/><path class="cls-7" d="M254.15,349.24c1.45,0,6.11.1,6.11.1s-.47-1.31-5.9-5.25c-3.35-2.43-11.42-5.32-11.42-5.32A53.51,53.51,0,0,1,254.15,349.24Z"/></g></svg>