<svg id="Layer_4" data-name="Layer 4" xmlns="http://www.w3.org/2000/svg" viewBox="0 0 350 350"><defs><style>.cls-1{fill:#dadbdc;}.cls-2,.cls-6{fill:#393a35;}.cls-2{opacity:0.44;}.cls-3{fill:#b5b7b9;}.cls-4{fill:#a0a2a5;}.cls-11,.cls-5{fill:#fff;}.cls-7{fill:#58595b;}.cls-8{fill:#7a478b;}.cls-9{fill:#af97c7;}.cls-10{fill:#9c6bad;}.cls-11{opacity:0.77;}</style></defs><title>tails_5.3_survivor</title><path class="cls-1" d="M151.1,141.51l7.29,70.23,13.38,34,18.61-9.93,4.78-21.34s-9.85-40.3-8.79-51.79C181.47,153.67,151.1,141.51,151.1,141.51Z"/><path class="cls-2" d="M151.5,148.47l1.78,14s14.34,26.23,19.85,32.18c4.29,4.64,19.64,9.48,19.64,9.48s-7.33-31.6-6.4-38.38C181.59,161.73,151.5,148.47,151.5,148.47Z"/><path class="cls-1" d="M199.85,45.39c10.28,6.66,31.55,30.36,32.46,49.89S231.4,163,231.4,163a94.61,94.61,0,0,0-12.49,27.55c-5.69,2.81-23,2.24-23,2.24s-29.16-25-41.62-33.22S125.66,127.06,124.15,95C133.07,69.92,199.85,45.39,199.85,45.39Z"/><path class="cls-3" d="M195.94,163.36a6.46,6.46,0,0,0,3.39-1.39c1.31-1.22,1.49-2.35,3.63-2.44s3.09,1.41,4.95,1.31,3.62-2.32,5.57-2.42,5.62,4.21,5.62,4.21-1.51,9.66-11.19,10.31-9.84-5.86-10.52-7.24A14.06,14.06,0,0,0,195.94,163.36Z"/><path class="cls-4" d="M206.57,119.1s.3,10,2.39,14.1,7.84,8.55,8.88,14c-3.06,1.12-10.5,3.54-13.67,1.12-.74-5.21-.7-29.18-.7-29.18Z"/><path class="cls-5" d="M162.16,113c-2,7.94,15.58,24.34,32.15,2.75C194.14,100.87,166,97.84,162.16,113Z"/><path class="cls-5" d="M204.51,113c2.62,9.53,19.45,16.07,27.8-3.25C227.44,97.09,211.4,93.28,204.51,113Z"/><path class="cls-6" d="M185.07,124.15a38.9,38.9,0,0,0,3.25-2.22,4.59,4.59,0,0,0,.5-1,13.77,13.77,0,0,0,.71-4.47c.45-4.21-.93-10.55-6.54-8.59s-6,11.7-1.67,15.06A5.47,5.47,0,0,0,185.07,124.15Z"/><path class="cls-6" d="M227.54,117.33a9.19,9.19,0,0,0,1.78-6.4,6,6,0,0,0-2.44-4.86l-.27-.13a4.08,4.08,0,0,0-5.13.3,5.3,5.3,0,0,0-1.32,2.13,10,10,0,0,0-.39,8.1,4.75,4.75,0,0,0,3.09,3.18,3,3,0,0,0,2.66-.47C226.16,118.65,227.51,117.39,227.54,117.33Z"/><path class="cls-6" d="M188.91,90.76c-3.93,0-8.22,2.4-11.92,3.7a73.81,73.81,0,0,1-12,3.07.52.52,0,0,0-.22.86c3.12,2.47,7.62,1.67,11.24.67,4.32-1.19,10.87-2.41,14-5.75A1.51,1.51,0,0,0,188.91,90.76Z"/><path class="cls-6" d="M229.77,91.05c-6.55-2.51-14.2,1-20.9-1.69-.86-.35-1.41.89-.85,1.47,2.23,2.35,5.58,3,8.68,3.36,4.13.47,8.38.74,12.54.81C231.64,95,231.78,91.83,229.77,91.05Z"/><path class="cls-2" d="M218.23,161.55c-3.32.24-6.65,1.63-9.92,2.32a17.85,17.85,0,0,1-8.92-.19,12,12,0,0,0-3.69-.85c-.36,0-.7.46-.45.79,2.55,3.42,7,4.57,11.11,4.18,3.89-.36,10-1,12.75-4.12C219.76,162.94,219.39,161.46,218.23,161.55Z"/><path class="cls-4" d="M169.58,68.79a43.6,43.6,0,0,0,21.83,10c13.32,2,16.78.87,24,3.41a115.49,115.49,0,0,1,12,5.23c2.53,1.26,4.25,2.19,4.25,2.19s-5.62-22.23-12.11-29-18-15.64-18-15.64l-24,11.12L166.7,64.16S177.09,74.79,182,76.32a57.15,57.15,0,0,0,12.36,2.89c5,.58,14.64,1.08,17.86,2"/><path class="cls-4" d="M149.55,72.72l4.19,9.92s2.17,22.22-9.25,37.14a115.68,115.68,0,0,1-12.77,9.12l-13-34,4.82-25.68,27.54-9.28Z"/><path class="cls-7" d="M140.64,114l-.93-.36c5-12.78,4.41-35.94,4.4-36.17l1,0C145.12,77.71,145.68,101.06,140.64,114Z"/><path class="cls-7" d="M134.73,114.75c-.93-12.13.52-24.46,1.15-29.73.13-1.14.25-2.12.24-2.3l1-.26c.08.21.06.41-.21,2.68-.62,5.24-2.07,17.5-1.14,29.53Z"/><path class="cls-7" d="M131.69,119.35c-5.44-9.11-3.72-27.42-3.64-28.2l1,.1c0,.19-1.76,18.76,3.51,27.59Z"/><path class="cls-7" d="M231.3,88.52c-4-3.79-8-6.06-14.68-8.9-5-2.13-8.23-2.65-13.15-3.44-1.95-.31-4.16-.66-6.83-1.18C184,72.57,178.23,65.73,178,65.44l.77-.64c.05.07,5.8,6.86,18.07,9.22,2.65.51,4.86.86,6.8,1.18,5,.8,8.28,1.32,13.39,3.5,6.75,2.89,9.63,4.48,13.78,8Z"/><path class="cls-7" d="M230.4,85.32c-1.69-2-8.39-6.39-11.27-8.55a50.44,50.44,0,0,0-16.93-7.85c-7-1.56-15.77-8.31-16.14-8.59l.61-.79c.09.07,8.93,6.89,15.75,8.4a51.07,51.07,0,0,1,17.31,8c2.75,2.06,8.14,5.61,10.08,7.38Z"/><path class="cls-7" d="M228.69,79.82a53.34,53.34,0,0,0-6.94-6.55c-.91-.78-1.86-1.58-3-2.61A44.08,44.08,0,0,0,206.33,63a50.66,50.66,0,0,1-11.39-7.74l.81-.59a51.62,51.62,0,0,0,11,7.41,45.24,45.24,0,0,1,12.71,7.84c1.11,1,2.06,1.83,3,2.59A33.35,33.35,0,0,1,228,77.79Z"/><path class="cls-7" d="M226.3,73.14a115.38,115.38,0,0,0-8.38-8.83c-3.26-2.85-14.8-11.71-14.92-11.8l.61-.79c.12.09,11.69,9,15,11.83a73.16,73.16,0,0,1,6.68,6.91Z"/><path class="cls-6" d="M124.68,110.46s2.33-8.24,8.22-11.24,27.75-12.06,35.18-16.58,21-10.74,27.86-11.73,21.89-6.82,25.05-8.5c.33-3.41-8.84-20.25-20.59-23-8.69-2-8.21-3.31-8.21-3.31s-1.63-3.18-8.2-6.46-11.14-3.05-15.37-6.06-18.8-19.18-27-18.6-24.54,3.81-29.94,10.3S98.85,30.12,103.5,37.4s7.83,8.33,8.82,14.71-1.82,13.07.41,21.77,1.06,7,1.06,7-2.28,2.68-.94,7.92,2.48,10.25,5.4,14.16S120.71,110.3,124.68,110.46Z"/><path class="cls-1" d="M148,121.29s-4.43-13-12.88-8.82-5.73,41.21,12.88,27.62"/><polygon class="cls-1" points="151.5 219.34 163.85 206.78 188.41 208.96 195.22 214.8 207.52 264.11 184.49 310.02 151.5 301.58 140.18 235.57 140.18 227.87 151.5 219.34"/><path class="cls-1" d="M162,209s-13.23,14.45-21.82,18.91-28.05,15.72-33.57,25.92-14.17,38.09-14.43,59.69-.05,36.69-.05,36.69H117s1.22-12.48,1.78-27.37,1.38-35,2.65-38.34,8.79-13.32,8.79-13.32V273a34.25,34.25,0,0,1,8.58-13.84,28.16,28.16,0,0,1,25.51-8.15C167.52,251.64,162,209,162,209Z"/><path class="cls-1" d="M254.56,300.79c-2.77-18.87-3.07-34.74-9.79-46.94s-32-31.52-52.68-40.47c-1.55-.67-3-1.26-4.44-1.79-.91,4.95-2.54,9.83-3.11,14.79-1,8.73,13.92,34,18.93,36.11,1.61-1.31,4.66,6.19,6.9,6.56a20.52,20.52,0,0,1,6,2.17v-.08s8.85,1.59,11.63,15.31,6.92,27.3,7.34,44.62,1.06,12.67.9,19.1H258S257.33,319.66,254.56,300.79Z"/><path class="cls-8" d="M142.25,226.66s12.56,50.23,22.74,56.86,11.9,6.6,15.44,5.86,17.69-16.09,19.66-23.54,5.62-39.1,6.9-44.74c2.82,1.72,9.38,6,9.38,6s1.43,55.67,2.8,66.53,5.28,51.66,5.28,56.53H131.36s-1.66-34.94-.84-48.84,1-28.29,2.29-46.16S134,231.24,134,231.24Z"/><path class="cls-9" d="M218.94,291.45S141.5,282,141.12,350c.31.38,9.39,0,9.39,0s3.7-48.8,69.23-51.41C219.49,296.39,218.94,291.45,218.94,291.45Z"/><path class="cls-10" d="M219.59,297.22l.89,8.3s-59.08-.73-63.16,44.64a74.52,74.52,0,0,1-10.17,0S148.69,301,219.59,297.22Z"/><path class="cls-11" d="M220.37,304.48l.72,7.48s-56.4.09-58.55,38a44.5,44.5,0,0,1-6.59.17S156.83,307.2,220.37,304.48Z"/><path class="cls-10" d="M220.93,310.72l.81,8s-49.45-4.9-52.85,31.4c-2,.19-6.92,0-6.92,0S163.4,311.4,220.93,310.72Z"/></svg>