<svg id="Layer_14" data-name="Layer 14" xmlns="http://www.w3.org/2000/svg" viewBox="0 0 350 350"><defs><style>.cls-1{fill:#a0a2a5;}.cls-2,.cls-6{fill:#58595b;}.cls-3{fill:#dadbdc;}.cls-4,.cls-5{fill:#393a35;}.cls-5{opacity:0.44;}.cls-6{opacity:0.77;}.cls-7{fill:#7a478b;}.cls-8{fill:#9c6bad;}.cls-9{fill:none;stroke:#a0a2a5;stroke-miterlimit:10;}.cls-10{fill:#fff;}.cls-11{fill:#b5b7b9;}</style></defs><title>tails_5.4_user</title><path class="cls-1" d="M232.85,83.31s2.53,12.08,4.28,18.15c3.15,10.86,23.14,23.6,25.33,37s-9.34,30.92-8.28,42.92,28.17,25.34,29.69,47-9.67,26.5-10.1,34.7A87,87,0,0,0,274.88,280L101.3,276.17a51.54,51.54,0,0,0,1.22-16c-.82-8.16-8.18-8.21-7.81-18.88s28.71-26.15,28.11-42.25,9.25-107.71,8.93-108.63S232.85,83.31,232.85,83.31Z"/><path class="cls-2" d="M126.25,243.36s12.09-13.91,13.4-25.86c4.54-1.13,75.42-2.59,75.42-2.59s2.19,22.27,9,25.58a21,21,0,0,1-13.68,16.74l-75.62-1.08Z"/><polygon class="cls-3" points="139.65 235.98 157.88 227.43 198.89 228.37 212.45 234.85 217.09 257.29 186.59 275.97 128.11 263.99 139.65 235.98"/><path class="cls-4" d="M131.11,249.2s25.77,17.75,85.44,1.22C217.72,271.69,222,350,222,350H119.56Z"/><polygon class="cls-3" points="201.28 194.92 200.25 230.76 181.38 242.61 156.22 241.32 154.54 228.37 153.79 198.83 201.28 194.92"/><path class="cls-5" d="M154.45,224.44s35.58-3.64,46.41-15.82a54.43,54.43,0,0,0-.44-12.79l-46.59,4.69Z"/><path class="cls-3" d="M103.52,113.22s-6.07,39,6.54,67.5,43.21,28.46,53.5,28.27,43.91-.9,53.53-10.91,14.56-29.56,15.08-51.33S230,79.86,230,79.86l-119,10.34Z"/><path class="cls-6" d="M143.49,185.93c2.25,7,19.3,16.41,30.21.1C169.37,185.5,143.49,185.93,143.49,185.93Z"/><path class="cls-6" d="M143.4,183.92l30.39-.16s-2.56-9.08-9.2-9.19-8.25,6.84-8.25,6.84-.86-7-6.83-6.06S143.4,183.92,143.4,183.92Z"/><path d="M94,116.9l137.58-5.3-.09,5.33-18.89,2.93-4.2,18.08s-2.64,6.41-7.12,6.41l-32.92,1s-6.3-2.25-6.73-5S158,122.57,158,122.57s-4.55-3.9-6.59.12-8.33,18.53-8.33,18.53-3.56,4.24-6.52,4.93-30.42-.08-30.42-.08-5.48-3.06-5.84-4.91S94,116.9,94,116.9Z"/><path class="cls-7" d="M154.55,175.82s-1.21-12.67-10.1-12S119.56,182,119.56,182Z"/><path class="cls-8" d="M151.68,123.1s-1.07,10.66-3.45,16.11-14.76,19.81-15,27.32c5.58,0,32,2,32,2l-9.19-45.14Z"/><path class="cls-7" d="M155.05,174.7s-1.66-10.28,11.22-10.52,26.34,15.31,26.34,15.31Z"/><path class="cls-1" d="M177.34,73.28c.27.83,33.09,46.37,54.49,46.64.8-15.71-.28-44.82-5.49-48.43S177.34,73.28,177.34,73.28Z"/><path class="cls-1" d="M185.83,89.36s-28,18.29-82.31,23.86c1.5-11.33,7.42-26.34,7.42-26.34Z"/><path class="cls-2" d="M212.47,234.85l54,26.14s24.9,11.54,26.82,30l6.22,60L199,350S196.85,265.7,212.47,234.85Z"/><path class="cls-2" d="M139.65,236,76.82,270.6s-20.74,8.46-23.51,35.94c-2.82,28-2.82,44.49-2.82,44.49l84.31-1S131.08,280.24,139.65,236Z"/><path class="cls-4" d="M223,240l3.08,4.79,3,4.83,6,9.7,5.85,9.76,5.77,9.81a2,2,0,0,1-.69,2.66,1.91,1.91,0,0,1-1.43.22l-.12,0c-6.11-1.44-12.18-3-18.26-4.56S214.05,274,208,272.38l2.51-4c2.66,3,5.18,6.12,7.63,9.3s4.84,6.39,7.11,9.74c1.14,1.67,2.23,3.39,3.24,5.18a40.87,40.87,0,0,1,2.77,5.67,13.92,13.92,0,0,1,.88,3.45,7.32,7.32,0,0,1-.11,2.13l-.25,1-.33.84a26.58,26.58,0,0,1-3.31,5.5c-4.88,6.53-10.26,12.26-15,18.53a76.61,76.61,0,0,0-6.56,9.75,33.78,33.78,0,0,0-2.47,5.32,22.37,22.37,0,0,0-1.37,5.74,27.22,27.22,0,0,1,2.52-11.7A71.34,71.34,0,0,1,211,328.2c2.19-3.36,4.53-6.61,6.88-9.82s4.8-6.33,6.92-9.55c.52-.8,1-1.61,1.48-2.41a15.93,15.93,0,0,0,1.15-2.36l.2-.55.11-.49a2.31,2.31,0,0,0,0-.83,9.86,9.86,0,0,0-.68-2.28,61.18,61.18,0,0,0-5.8-9.77c-4.43-6.4-9.47-12.52-14.49-18.52l0-.06a2.46,2.46,0,0,1,2.55-3.94c6,1.68,12.11,3.28,18.13,5s12.08,3.42,18.09,5.24l-2.24,2.85L238,270.64l-5.13-10.16-5-10.22-2.47-5.14Z"/><path class="cls-4" d="M126.25,243.36,123,248.05l-3.29,4.64L113,261.92l-6.77,9.15-6.86,9.07L97.3,277c5.28-1.65,10.61-3.16,15.91-4.75s10.63-3.06,16-4.59a2.45,2.45,0,0,1,2.45,4.05l-.05.05c-5.4,5.63-10.8,11.4-15.65,17.47a63.8,63.8,0,0,0-6.45,9.35,12.06,12.06,0,0,0-.94,2.29,3.12,3.12,0,0,0,0,1.84,23.37,23.37,0,0,0,2.23,4.84c1.91,3.31,4.14,6.58,6.33,9.88s4.34,6.67,6.36,10.13a76.06,76.06,0,0,1,5.27,10.81,29.87,29.87,0,0,1,2.21,11.74,24.86,24.86,0,0,0-1.3-5.75,36.49,36.49,0,0,0-2.29-5.39,83.4,83.4,0,0,0-6.11-10c-4.44-6.49-9.5-12.47-14-19.27a24.49,24.49,0,0,1-2.9-5.84l-.22-.93c-.06-.33-.08-.71-.11-1.06a8.09,8.09,0,0,1,.23-2,15.8,15.8,0,0,1,1.17-3.24,58.53,58.53,0,0,1,6.74-10.35,201.83,201.83,0,0,1,16-17.95l2.4,4.1c-5.34,1.45-10.67,2.94-16,4.31s-10.7,2.84-16.08,4.15l-.11,0a2,2,0,0,1-2.4-1.45,2,2,0,0,1,.41-1.75l7.35-8.69,7.43-8.62,7.53-8.54,3.81-4.24Z"/><polygon class="cls-5" points="247.41 301.63 249.35 350.03 242.05 350.49 247.41 301.63"/><polygon class="cls-5" points="95.89 301.63 97.84 350.03 90.54 350.49 95.89 301.63"/><path class="cls-9" d="M198.89,91.41s23.05,22.43,30.51,26.53"/><path class="cls-7" d="M238.65,62.78,242,84.3s-68,14.81-153.85,14.22c15.13-13.3,24.88-18,24.88-18L128,37.6c.88-2.42,4-5.56,8.62-6.15l68.33-9c2.78-.23,5.38,1.71,6.77,5.3,1.62,4.16,14.66,36.38,14.66,36.38Z"/><polygon class="cls-8" points="226.34 64.08 110.38 88.09 117.56 67.45 220.37 49.31 226.34 64.08"/><path class="cls-10" d="M162.85,119l2,13.41s2.47-12,29.91-15.28Z"/><path class="cls-10" d="M99.85,121l2,13.41s-1.52-10.26,29.91-15.28Z"/><path class="cls-3" d="M225.2,119.28s22.62-8.6,23.6,3.41-.91,21.22-5.56,23.82-14.49,1.79-14.49,1.79Z"/><path class="cls-11" d="M228.43,118.21c-13.7-6.38-28.46-26.72-28.62-26.92l1.14-.16c.15.21,15.44,20.4,28.91,26.68Z"/><path class="cls-11" d="M232.41,117.19c-10.61-5-23.5-26.19-24.06-27.09l1.14-.17c.14.22,14.16,22.06,24.5,26.94Z"/><path class="cls-11" d="M236.89,116.45c-.15-.13-15.31-12.59-20.4-27.59l.9-.14c5,14.73,20.8,27.49,21,27.61Z"/><path class="cls-11" d="M241.93,116.42c-12.29-8.87-16.8-28.71-16.85-28.92l.92-.2c.05.2,5.81,20.83,17.8,29.49Z"/><path class="cls-11" d="M104.41,108.19l.23-1.07C146.81,103.05,156,96,156.06,96l2.07-.17C157.73,96.11,147,104.08,104.41,108.19Z"/><path class="cls-11" d="M105.69,102.89l.35-1.08c18.52-1.87,24.43-4.17,24.5-4.19l3.81-.2C134,97.54,124.37,101,105.69,102.89Z"/><path class="cls-11" d="M267,261.23l-.94-.42a53.88,53.88,0,0,1,4.5-10.32c9.08-16.16,5-23.41-1.17-34.39l-.53-.94a99.71,99.71,0,0,0-8.95-12.55c-5.82-7.35-11.85-15-12.31-23.09-.4-7.08,2.47-16,5-23.8,1.91-5.91,3.71-11.49,3.64-15-.16-8-7.13-15.14-7.21-15.21l-.09-1.59c.32.32,8.14,8.42,8.3,16.78.08,3.69-1.67,9.08-3.68,15.33-2.51,7.76-5.35,16.55-5,23.44.44,7.82,6.1,15,12.09,22.53a99.87,99.87,0,0,1,9,12.68l.53.94c6.11,10.87,10.52,18.72,1.18,35.37A56.87,56.87,0,0,0,267,261.23Z"/><path class="cls-11" d="M257.17,256.5l-.91-.45c.67-2.58,2.32-4.73,4.09-7.11,2.95-3.93,6.28-8.4,6.41-15.94.11-5.86-5.42-14.59-11.28-23.82-6.27-9.9-12.75-20.13-13.32-28.32-.64-9.07,3.42-21.85,6.11-30.3.72-2.27,1.34-4.23,1.72-5.64,1.7-6.37-1-13.32-1-13.4l.08-2.84c.13.34,3.68,9.81,1.9,16.5-.39,1.43-1,3.4-1.74,5.69-2.66,8.37-6.69,21-6.06,29.92.55,7.94,7,18.06,13.17,27.85,5.94,9.37,11.54,18.22,11.43,24.38-.14,7.86-3.57,12.46-6.6,16.52C259.37,251.93,257.8,254.1,257.17,256.5Z"/><path class="cls-11" d="M247.74,251.93l-1-.47c.1-.09,10.08-9.2,10.08-19.44,0-5.68-4.68-14.19-9.65-23.2-5.53-10-11.26-20.45-11.1-28.11.3-14.27,6.94-33.92,7-34.13l1.36-1c-.07.2-7.07,21-7.37,35.11-.15,7.39,5.5,17.67,11,27.61,5,9.12,9.77,17.74,9.77,23.68C257.85,242.71,248.16,251.55,247.74,251.93Z"/><path class="cls-11" d="M238.09,247.26l-1-.49a22.57,22.57,0,0,0,7.38-16.57c0-5.11-2.66-10.48-5.77-16.71-3.66-7.3-7.8-15.58-9-26-.95-8.39,6.05-38,6.35-39.22l1.06-.1c-.08.3-7.34,31-6.42,39.21,1.16,10.24,5.26,18.44,8.87,25.67,3.17,6.34,5.91,11.81,5.88,17.15A22.59,22.59,0,0,1,238.09,247.26Z"/><path class="cls-11" d="M229,242.86l-1-.49s3.42-2,4.6-12.83c.67-6.06-2.18-11.66-4.94-17.07-2.32-4.57-4.72-9.29-5.07-14.32-.39-5.62-.12-7.34-.1-7.46l1.17-2.22a58.7,58.7,0,0,0-.07,9.61c.33,4.83,2.69,9.46,5,13.94,2.82,5.54,5.73,11.27,5,17.63C232.32,241.13,229.13,242.78,229,242.86Z"/><path class="cls-11" d="M220.51,236.52l-.45-.89s2.13-.84,2.33-7.59c.14-4.63-2.87-9.69-5.29-13.76a25.74,25.74,0,0,1-2.89-5.7,24.23,24.23,0,0,1-.58-7.82l1.06-.68a27.51,27.51,0,0,0,.49,8.26,25.33,25.33,0,0,0,2.78,5.43c2.48,4.18,5.58,9.38,5.43,14.3C223.17,235.6,220.79,236.44,220.51,236.52Z"/><path class="cls-11" d="M206.41,215.09A25,25,0,0,1,205,204.33l1-.33a28.61,28.61,0,0,0,1.39,11.08Z"/><path class="cls-11" d="M107.06,253.93c-.13-.34-3.4-8.45-3.18-12.8l0-.33c.22-4.38.46-9.35,10.14-17.75s13.46-22,13.5-22.13l.88.53c0,.14-4,13.88-13.73,22.36-9.35,8.12-9.58,12.86-9.79,17l0,.33c-.21,4.14,3.05,12.18,3.08,12.26Z"/><path class="cls-11" d="M115.18,249.46c-1.82-11.56.29-14.76,4.9-20C129.37,219,133.35,204.1,133.39,204l.94.4c0,.15-4.05,15.11-13.5,25.8-4.2,4.74-6.54,7.18-4.71,18.79Z"/><path class="cls-11" d="M124.8,244.16c-.08-.24-1.76-6.14,2.91-12.65,5.63-7.87,12.26-25,12.33-25.17l1,.27c-.07.17-6.78,17.51-12.49,25.48-4.37,6.09-2.84,11.52-2.83,11.58Z"/><path class="cls-11" d="M145.8,217l-1.08.06A54.38,54.38,0,0,0,147.2,208l1,.17A50.31,50.31,0,0,1,145.8,217Z"/></svg>