<?xml version="1.0" encoding="UTF-8" standalone="no"?>
<!-- Created with Inkscape (http://www.inkscape.org/) -->

<svg
   xmlns:dc="http://purl.org/dc/elements/1.1/"
   xmlns:cc="http://creativecommons.org/ns#"
   xmlns:rdf="http://www.w3.org/1999/02/22-rdf-syntax-ns#"
   xmlns:svg="http://www.w3.org/2000/svg"
   xmlns="http://www.w3.org/2000/svg"
   xmlns:xlink="http://www.w3.org/1999/xlink"
   version="1.2"
   width="120.507"
   height="184.79649"
   viewBox="0 0 120.507 184.79649"
   id="图层_1"
   xml:space="preserve"><metadata
   id="metadata2611"><rdf:RDF><cc:Work
       rdf:about=""><dc:format>image/svg+xml</dc:format><dc:type
         rdf:resource="http://purl.org/dc/dcmitype/StillImage" /><dc:title></dc:title></cc:Work></rdf:RDF></metadata><defs
   id="defs2609"><linearGradient
     x1="297.03323"
     y1="247.01682"
     x2="297.03323"
     y2="125.66936"
     id="linearGradient5018"
     xlink:href="#linearGradient4697"
     gradientUnits="userSpaceOnUse"
     gradientTransform="matrix(0.68230177,0,0,0.68230177,78.404988,63.177814)" /><linearGradient
     id="linearGradient4697"><stop
       id="stop4699"
       style="stop-color:#482957;stop-opacity:1"
       offset="0" /><stop
       id="stop4701"
       style="stop-color:#c19ed3;stop-opacity:1"
       offset="1" /></linearGradient><linearGradient
     x1="297.03323"
     y1="247.01682"
     x2="297.03323"
     y2="125.66936"
     id="linearGradient3077"
     xlink:href="#linearGradient4697"
     gradientUnits="userSpaceOnUse"
     gradientTransform="matrix(0.68230177,0,0,0.68230177,78.404988,63.177814)" /><linearGradient
     x1="297.03323"
     y1="247.01682"
     x2="297.03323"
     y2="125.66936"
     id="linearGradient3629"
     xlink:href="#linearGradient4697"
     gradientUnits="userSpaceOnUse"
     gradientTransform="matrix(0.68230177,0,0,0.68230177,78.404988,63.177814)" /></defs>

<g
   transform="matrix(1.4656327,0,0,1.4656327,-310.27211,-156.76668)"
   id="g3060"><path
     d="m 243.45456,141.73907 10.99598,4.56183 c 0,2.79607 -0.22729,11.32418 1.52111,13.83983 18.28765,23.55244 15.21088,70.76376 -3.70457,71.97484 -28.80443,0 -39.78979,-19.56773 -39.78979,-37.55253 0,-16.40049 19.66121,-27.30299 31.40294,-36.99372 2.98166,-2.60912 2.46388,-8.37542 -0.42567,-15.83025 z"
     id="path2534-7"
     style="fill:#fffcdb;fill-rule:evenodd;stroke:none;display:inline" /><path
     d="m 254.45384,146.1368 3.96283,2.02153 c -0.37254,2.60845 0.18627,8.38685 2.79471,9.877 11.55545,7.17508 22.45728,15.00245 26.74418,22.82982 15.28219,27.58273 -10.71624,53.11448 -33.17352,50.69163 12.20706,-9.03914 15.74821,-27.58207 11.18225,-47.80344 -1.86336,-7.92085 -4.75291,-15.09593 -9.87837,-23.20304 -2.22035,-3.9795 -1.44513,-8.91484 -1.63208,-14.4135 z"
     id="path2536-6"
     style="fill:url(#linearGradient3629);fill-opacity:1;fill-rule:evenodd;stroke:none;display:inline" /><g
     transform="matrix(1.1111963,0,0,1.1111963,39.131448,34.108974)"
     id="g4942"
     style="display:inline"><path
       d="m 197.76094,74.040206 -3.01916,11.991285 c 4.27668,-8.46924 11.06902,-14.842201 18.86836,-20.461139 -5.70245,6.62471 -10.90139,13.250035 -14.08818,19.874746 5.36719,-7.54759 12.57891,-11.740149 20.71289,-14.507558 -10.81788,9.64387 -19.40457,19.992194 -25.94578,30.3907 l -5.19894,-2.263909 c 0.92165,-8.302226 4.05826,-16.805406 8.67081,-25.024125 z"
       id="path2554-7"
       style="fill:#abcd03;fill-rule:evenodd;stroke:none" /><path
       d="m 213.625,65.562491 c -3.8783,4.139732 -10.59035,11.403096 -14.1875,17.75 -3.0686,5.414324 -5.17334,10.229691 -6.34375,13.46875 -0.74869,2.071977 -3.78242,2.05123 -2.90625,-1.375 0.009,-0.03382 0.0218,-0.05927 0.0312,-0.09375 1.16794,-2.75933 2.93857,-6.610655 4.71875,-10 l 2.8125,-11.28125 c -1.38689,4.761536 -3.37234,9.099106 -4.59375,14.03125 0.002,0 -2.14655,4.93454 -2.71875,6.1875 -0.19435,0.425577 -0.3569,0.83615 -0.5,1.21875 -0.009,0.02435 -0.0223,0.03842 -0.0312,0.0625 -0.24256,0.541551 -0.40681,1.133389 -0.53125,1.65625 -0.0203,0.08536 -0.0136,0.137377 -0.0312,0.21875 -0.16096,0.741401 -0.25,1.3125 -0.25,1.3125 0.87344,0.754335 5.1875,2.624999 5.1875,2.624999 6.5412,-10.39851 15.15087,-20.76238 25.96875,-30.406249 -8.13398,2.767408 -15.35156,6.95241 -20.71875,14.5 3.18679,-6.62471 8.3913,-13.25029 14.09375,-19.875 z"
       id="path4724"
       style="fill:#437202;fill-opacity:1;fill-rule:evenodd;stroke:none" /><path
       d="m 193.34005,100.63542 0.94121,0.70833 c 6.5412,-10.398512 15.15087,-20.762386 25.96875,-30.406255 -6.20491,5.075957 -14.5371,12.068569 -18.0625,16.687498 -4.45925,5.842443 -1.83462,0.354218 -1.83462,0.354218 0,0 2.36194,-6.109707 6.52082,-9.94312 -2.41648,1.153989 -6.60439,6.363511 -7.34245,7.401405 0,0 -3.14533,6.10431 -4.8986,11.625422 -0.47038,1.481254 -1.29261,3.572502 -1.29261,3.572502 z"
       id="path4720"
       style="fill:#153902;fill-opacity:1;fill-rule:evenodd;stroke:none" /></g><path
     d="m 251.3005,144.98552 0,87.12474 c 0.32686,0.005 0.64073,0 0.9723,0 18.91545,-1.21108 22.00322,-48.43225 3.71556,-71.98469 -1.7484,-2.51565 -1.5279,-11.02443 -1.5279,-13.8205 l -3.15996,-1.31955 z"
     id="path4748"
     style="fill:#f3ecaa;fill-opacity:1;fill-rule:evenodd;stroke:none;display:inline" /><g
     transform="matrix(0.68230175,0,0,0.68230175,78.404988,63.177814)"
     id="layer4-3"
     style="display:inline"><path
       d="m 255.226,120.58877 12.018,1.639 c -3.551,11.745 6.966,19.939 10.38,21.852 7.64801,4.234 15.02301,8.604 20.89601,13.93 11.063,10.106 17.345,24.31 17.345,39.333 0,14.886 -6.829,29.226 -18.301,38.786 -10.789,9.014 -25.67501,12.838 -40.15201,12.838 -9.014,0 -17.072,-0.409 -25.812,-3.278 -19.939,-6.692 -34.826,-23.763 -36.055,-44.25 -1.093,-15.979 2.458,-28.134 14.887,-40.835 6.418,-6.692 19.393,-14.34 28.271,-20.486 4.371,-3.005 9.014,-11.473 0.136,-27.451 l 1.776,-1.366 13.15659,8.81203 -11.10759,-4.57803 c 0.956,1.366 3.551,7.512 4.098,9.287 1.229,5.053 0.683,9.971 -0.41,12.155 -5.599,10.107 -15.159,12.838 -22.124,18.574 -12.292,10.106 -25.676,18.164 -24.174,45.888 0.683,13.657 11.336,30.319 27.314,38.104 9.014,4.371 19.394,6.146 29.91,6.692 9.423,0.41 27.45101,-5.19 37.28401,-13.384 10.516,-8.74 16.389,-21.988 16.389,-35.508 0,-13.658 -5.463,-26.632 -15.706,-35.783 -5.873,-5.326 -15.56901,-11.745 -21.57801,-15.16 -6.009,-3.414 -13.521,-12.974 -11.063,-22.124 z"
       id="path2538-6"
       style="fill:#000000;fill-opacity:1;stroke:none" /><path
       d="m 251.539,140.80177 c -1.229,6.283 -2.595,17.618 -8.058,21.852 -2.322,1.638 -4.644,3.278 -7.102,4.916 -9.833,6.693 -19.667,12.974 -24.173,29.09 -0.956,3.415 -0.136,7.102 0.684,10.516 2.458,9.833 9.423,20.486 14.886,26.769 0,0.273 1.093,0.956 1.093,1.229 4.507,5.327 5.873,6.829 22.944,10.652 l -0.41,1.913 c -10.243,-2.731 -18.71,-5.189 -24.037,-11.336 0,-0.136 -0.956,-1.093 -0.956,-1.093 -5.736,-6.556 -12.702,-17.481 -15.296,-27.724 -0.956,-4.098 -1.775,-7.238 -0.683,-11.473 4.643,-16.661 14.75,-23.217 24.993,-30.182 2.322,-1.502 5.053,-2.869 7.238,-4.644 4.233,-3.14 6.554,-12.701 8.877,-20.485 z"
       id="path2540-5"
       style="fill:#000000;fill-opacity:1;stroke:none" /><path
       d="m 255.90625,166.74951 c 0.137,7.102 -0.55625,10.66475 1.21875,15.71875 1.092,3.004 4.782,7.1015 5.875,11.0625 1.502,5.327 3.138,11.19901 3,14.75001 0,4.09799 -0.25625,11.74249 -2.03125,19.93749 -1.35362,6.77108 -4.47323,12.58153 -9.71875,15.875 -5.37327,-1.10644 -11.68224,-2.99521 -15.40625,-6.1875 -7.238,-6.282 -13.64875,-16.7865 -14.46875,-25.9375 -0.682,-7.51099 6.27275,-18.5885 15.96875,-24.1875 8.194,-4.78 10.1,-10.22775 11.875,-18.96875 -2.458,7.648 -4.7665,14.05925 -12.6875,18.15625 -11.472,6.009 -17.3585,16.09626 -16.8125,25.65625 0.819,12.291 5.7415,20.6195 15.4375,27.3125 4.097,2.868 11.75125,5.89875 16.53125,6.71875 l 0,-0.625 c 3.62493,-0.67888 8.31818,-6.63267 10.65625,-14.6875 2.049,-7.238 2.85675,-16.502 2.71875,-22.37499 -0.137,-3.414 -1.643,-10.80801 -4.375,-17.50001 -1.502,-3.687 -3.8095,-7.37375 -5.3125,-9.96875 -1.637,-2.597 -1.64875,-8.195 -2.46875,-14.75 z"
       id="path2542-6"
       style="fill:#000000;fill-opacity:1;stroke:none" /><path
       d="m 255.09375,193.53076 c 0.136,4.78 2.056,10.90451 2.875,17.18751 0.684,4.64399 0.387,9.30824 0.25,13.40624 -0.13495,4.74323 -1.7152,13.24218 -3.875,17.375 -2.03673,-0.93403 -2.83294,-1.99922 -4.15625,-3.71875 -1.638,-2.322 -2.75075,-4.644 -3.84375,-7.375 -0.819,-2.049 -1.7765,-4.394 -2.1875,-7.125 -0.546,-4.097 -0.393,-10.5065 4.25,-17.06249 3.551,-5.19001 4.36475,-5.58476 5.59375,-11.59376 -1.64,5.326 -2.8625,5.869 -6.6875,10.37501 -4.233,4.917 -4.9375,12.15924 -4.9375,18.03124 0,2.459 0.9805,5.18725 1.9375,7.78125 1.092,2.732 2.02925,5.452 3.53125,7.5 2.25796,3.32082 5.14798,5.20922 6.5625,5.5625 0.009,0.002 0.022,-0.002 0.0312,0 0.0303,0.007 0.0649,0.0255 0.0937,0.0312 l 0,-0.15625 c 2.64982,-2.95437 4.24444,-5.88934 4.78125,-8.84375 0.683,-3.551 0.84,-7.10975 1.25,-11.34375 0.409,-3.551 0.11225,-8.334 -0.84375,-13.24999 -1.365,-6.146 -3.669,-12.41226 -4.625,-16.78126 z"
       id="path2544-3"
       style="fill:#000000;fill-opacity:1;stroke:none" /><path
       d="m 255.499,135.06577 c 0.137,7.101 0.683,20.35 2.595,25.539 0.546,1.775 5.599,9.56 9.149,18.983 2.459,6.556 3.005,12.565 3.415,14.34 1.639,7.785 -0.41,20.896 -3.142,33.324 -1.365,6.692 -6.009,15.023 -11.335,18.301 l -1.092,1.912 c 3.005,-0.137 10.379,-7.375 12.974,-16.389 4.371,-15.296 6.146,-22.398 4.098,-39.333 -0.273,-1.64 -0.956,-7.238 -3.551,-13.248 -3.824,-9.151 -9.287,-17.891 -9.969,-19.667 -1.23,-2.867 -2.869,-15.295 -3.142,-23.762 z"
       id="path2550-9"
       style="fill:#000000;fill-opacity:1;stroke:none" /><path
       d="m 258.06151,125.35303 c -0.40515,7.29812 -0.51351,9.98574 0.85149,15.31174 1.502,5.873 9.151,14.34 12.292,24.037 6.009,18.574 4.507,42.884 0.136,61.867 -1.638,6.691 -9.424,16.389 -17.208,19.529 l 5.736,1.366 c 3.141,-0.137 11.198,-7.648 14.34,-16.252 5.052,-13.521 6.009,-29.636 3.96,-46.571 -0.137,-1.639 -2.869,-16.252 -5.463,-22.398 -3.688,-9.15 -10.244,-17.345 -10.926,-19.119 -1.228,-3.005 -3.92651,-9.24362 -3.71849,-17.77074 z"
       id="path2552-4"
       style="fill:#000000;fill-opacity:1;stroke:none" /><path
       d="m 253.71959,120.21687 c 0.0596,-0.006 0.11897,3.26521 0.16759,9.56217 0.0486,6.29696 0.0862,15.61453 0.10736,27.25144 0.0212,11.6369 0.0259,25.58407 0.0163,40.79811 -0.01,15.21403 -0.0332,31.68333 -0.063,48.17895 0.0313,0 0.0626,0 0.094,0 0,-15.52743 0.005,-31.04508 0.0154,-45.52599 0.0101,-14.48092 0.0252,-27.91654 0.0441,-39.41367 0.0189,-11.49713 0.0417,-21.04872 0.0668,-28.0132 0.0251,-6.96448 0.0526,-11.33724 0.0806,-12.81648 -0.34673,0.007 -0.53049,-0.007 -0.52906,-0.0213 -0.001,-0.0142 0.18228,-0.0285 0.57174,-0.0213 0.028,1.42429 0.0554,5.74972 0.0806,12.6966 0.0251,6.94688 0.0479,16.51125 0.0668,28.05675 0.0189,11.5455 0.034,25.06498 0.0441,39.64964 0.0101,14.58467 0.0154,30.22517 0.0154,45.86549 -0.33562,0 -0.67125,0 -1.00687,0 -0.0298,-16.55575 -0.0534,-33.09645 -0.063,-48.37561 -0.01,-15.27917 -0.005,-29.28466 0.0163,-40.96371 0.0212,-11.67905 0.0587,-21.02256 0.10736,-27.33241 0.0486,-6.30986 0.10801,-9.58139 0.16759,-9.5754 z"
       id="rect2556-8"
       style="fill:#000000;fill-opacity:1;stroke:none" /></g></g><text
   x="185.75636"
   y="63.585114"
   id="text3631"
   xml:space="preserve"
   style="font-size:24px;font-style:normal;font-variant:normal;font-weight:bold;font-stretch:normal;text-align:start;line-height:125%;letter-spacing:0px;word-spacing:0px;writing-mode:lr-tb;text-anchor:start;fill:#000000;fill-opacity:1;stroke:none;font-family:DIN-Bold;-inkscape-font-specification:DIN-Bold Bold"><tspan
     x="185.75636"
     y="63.585114"
     id="tspan3633" /></text>


<flowRoot
   transform="translate(-227.16108,-102.96534)"
   id="flowRoot3635"
   xml:space="preserve"
   style="font-size:144px;font-style:normal;font-variant:normal;font-weight:bold;font-stretch:normal;text-align:start;line-height:125%;letter-spacing:0px;word-spacing:0px;writing-mode:lr-tb;text-anchor:start;fill:#000000;fill-opacity:1;stroke:none;font-family:Arial Black;-inkscape-font-specification:'Arial Black, Bold'"><flowRegion
     id="flowRegion3637"><rect
       width="101.10091"
       height="128.23853"
       x="211.24771"
       y="79.816513"
       id="rect3639"
       style="font-size:144px;font-style:normal;font-variant:normal;font-weight:bold;font-stretch:normal;text-align:start;line-height:125%;writing-mode:lr-tb;text-anchor:start;font-family:Arial Black;-inkscape-font-specification:'Arial Black, Bold'" /></flowRegion><flowPara
     id="flowPara3641">?</flowPara></flowRoot></svg>