<?xml version="1.0" encoding="UTF-8" standalone="no"?>
<svg
   xmlns:dc="http://purl.org/dc/elements/1.1/"
   xmlns:cc="http://creativecommons.org/ns#"
   xmlns:rdf="http://www.w3.org/1999/02/22-rdf-syntax-ns#"
   xmlns:svg="http://www.w3.org/2000/svg"
   xmlns="http://www.w3.org/2000/svg"
   xmlns:sodipodi="http://sodipodi.sourceforge.net/DTD/sodipodi-0.dtd"
   xmlns:inkscape="http://www.inkscape.org/namespaces/inkscape"
   viewBox="0 0 601.85455 515.20203"
   version="1.1"
   id="svg3951"
   sodipodi:docname="godzilla.svg"
   width="601.85455"
   height="515.20203"
   inkscape:version="0.92.4 (5da689c313, 2019-01-14)">
  <metadata
     id="metadata3955">
    <rdf:RDF>
      <cc:Work
         rdf:about="">
        <dc:format>image/svg+xml</dc:format>
        <dc:type
           rdf:resource="http://purl.org/dc/dcmitype/StillImage" />
        <dc:title>banner godzilla</dc:title>
      </cc:Work>
    </rdf:RDF>
  </metadata>
  <sodipodi:namedview
     pagecolor="#ffffff"
     bordercolor="#666666"
     borderopacity="1"
     objecttolerance="10"
     gridtolerance="10"
     guidetolerance="10"
     inkscape:pageopacity="0"
     inkscape:pageshadow="2"
     inkscape:window-width="1680"
     inkscape:window-height="953"
     id="namedview3953"
     showgrid="false"
     fit-margin-top="0"
     fit-margin-left="0"
     fit-margin-right="0"
     fit-margin-bottom="0"
     inkscape:zoom="5.6568544"
     inkscape:cx="292.30908"
     inkscape:cy="298.82715"
     inkscape:window-x="0"
     inkscape:window-y="27"
     inkscape:window-maximized="1"
     inkscape:current-layer="Layer_10" />
  <defs
     id="defs3871">
    <style
       id="style3869">.cls-1{fill:#ffd500;}.cls-2{fill:#58595b;}.cls-3{fill:#393a35;}.cls-4,.cls-5{opacity:0.44;}.cls-5,.cls-6{fill:#fff;}</style>
  </defs>
  <title
     id="title3873">banner godzilla</title>
  <g
     id="Layer_10"
     data-name="Layer 10"
     transform="translate(-195.44012,-159.96797)">
    <path
       class="cls-2"
       d="m 327.88,607.07 c -4.85,4.82 -7.1,5.24 -8.63,4.87 -1.71,-0.41 -3.46,-2 -3.29,-3.27 0.17,-1.27 2.76,-2 2.66,-2.27 -0.1,-0.27 -3.53,0.62 -7.63,1.11 -3,0.35 -6.83,0.51 -7,-0.2 -0.17,-0.71 4.29,-1.82 4.18,-3.16 -0.11,-1.34 -4.9,-2.07 -6.37,-2.29 -5.33,-0.8 -7.84,0.12 -8.43,-1 -0.59,-1.12 1.23,-4.44 4,-5.51 4.15,-1.57 6.87,2.79 12.1,1.54 1.88,-0.45 5,-1.85 5.4,-4.07 0.64,-3.65 -6.74,-6 -6.31,-10.55 a 4.6,4.6 0 0 1 3.05,-3.93 c 2.29,-0.57 4.69,2.1 5.77,3.3 3.25,3.61 2.5,6.22 5.3,7.76 a 6,6 0 0 0 5.41,0.29 c 1.87,-1 1.64,-2.86 3.13,-3.46 2,-0.78 5.51,1.1 6.65,3.74 2.2,5.03 -4.77,11.92 -9.99,17.1 z"
       id="path3878"
       inkscape:connector-curvature="0"
       style="fill:#58595b" />
    <path
       class="cls-2"
       d="m 263.35867,615.68422 c -0.11,-0.7 0.81,-1.56 1.72,-2 2.41,-1.09 4.55,1.12 6,0 a 2.86,2.86 0 0 0 0.83,-2.49 c -0.2,-1.54 -1.69,-2.21 -1.47,-2.61 0.22,-0.4 2.35,-0.22 4.07,1 1.72,1.22 1.42,2.07 2.92,2.94 0.94,0.54 2.78,1.19 3.75,0.45 1.76,-1.34 -0.43,-6.43 0.39,-6.74 0.57,-0.22 2.41,1.88 3.55,3.75 0.4,0.66 0.66,1.21 1.08,1.22 1,0 1.23,-2.78 2.23,-2.88 1,-0.1 2.95,2.81 2.2,4.85 -0.75,2.04 -3.11,1.53 -4.17,3.73 -0.87,1.78 -0.27,4.09 0.44,4.25 0.92,0.22 1.59,-3.33 4.16,-3.86 0.85,-0.17 2.15,-0.07 2.62,0.68 1,1.62 -2.85,4.8 -1.84,6.41 0.52,0.85 2.15,0.9 3.19,0.64 2.13,-0.54 2.45,-2.58 3.68,-2.54 1.23,0.04 2.83,2.6 2.76,4.81 -0.08,3.05 -3.54,5 -6.95,6.91 a 20.71,20.71 0 0 1 -8.36,3 c -3.27,0.39 -8.35,0.12 -8.84,-1.67 -0.28,-1 1,-2.43 3.49,-5.24 1.49,-1.67 2.31,-2.28 2.1,-2.72 -0.31,-0.66 -2.73,-0.47 -4.68,0.47 -1.64,0.78 -1.57,1.43 -2.87,1.91 -2.17,0.8 -5.29,0.07 -6,-1.73 a 3.25,3.25 0 0 1 0.26,-2.44 c 0.77,-1.45 2.27,-1.45 2.28,-2.16 0.01,-0.71 -1.89,-1.94 -3.7,-1.75 -1.81,0.19 -2.07,1.39 -3.34,1.23 -1.27,-0.16 -2.75,-1.82 -2.5,-3 0.33,-1.49 3.31,-1.73 3.25,-2.65 -0.06,-0.92 -2.1,-0.79 -2.25,-1.77 z"
       id="path3880"
       inkscape:connector-curvature="0"
       style="fill:#58595b" />
    <path
       class="cls-2"
       d="m 480.15,512.33 c -34.1,0.94 -79.11,79.68 -79.69,162.84 34.18049,0.0176 150.14,0 150.14,0 0,0 15.59,-31.76 -30,-31.18 C 537.32,614 564.46,510 480.15,512.33 Z"
       id="path3882"
       inkscape:connector-curvature="0"
       style="fill:#58595b"
       sodipodi:nodetypes="ccccc" />
    <path
       class="cls-3"
       d="m 546.7,342.43 c -0.2,-1.45 -1.19,-3.43 -2.77,-3.74 -1.18,-0.23 -2.47,0.52 -3.72,1.71 2.47,-3.79 3.71,-6.11 2.92,-7.19 -0.79,-1.08 -3,-0.81 -4.66,-0.11 a 8.12,8.12 0 0 0 -3.06,2.37 c 0.94,-3.14 1.12,-5 0.12,-6.16 a 3.62,3.62 0 0 0 -1.95,-1 8.5,8.5 0 0 0 -0.29,-1.92 c -0.31,-1.27 -0.8,-2.78 -2,-3.42 a 0.42,0.42 0 0 0 -0.62,0.25 c -0.21,1.16 0.31,2.13 0.47,3.26 a 10.49,10.49 0 0 1 0,2 2.75,2.75 0 0 0 -0.71,0.41 c -1.66,1.37 -0.24,4 -0.88,8.23 -0.75,5 -4,9.9 -6.13,9.64 -2.71,-0.33 -2.61,-9 -5.59,-9.38 -1.52,-0.17 -3.09,1.91 -3.75,3.51 -2.07,4.94 1.5,12.34 7.12,15.62 5.15,3 12.68,2.91 15.16,-0.48 1.05,-1.42 0.23,-2.1 1.17,-4.39 2.27,-5.64 9.62,-5.8 9.17,-9.21 z"
       id="path3884"
       inkscape:connector-curvature="0"
       style="fill:#393a35" />
    <path
       class="cls-3"
       d="m 528.52,350.67 c -2.62,-0.73 -3.1,-0.78 -4.52,3.47 -2.28,6.84 1.08,18.66 -1.58,22.75 -2,3.13 -7.32,4.62 -10.51,4.12 -8,-1.26 -9.18,-8.26 -15.78,-8.67 -4.81,-0.3 -10.3,3 -11.21,7 -1.37,6 7.87,13.27 15.68,15.95 9.88,3.41 27.06,-0.53 33.65,-10.35 4.44,-6.63 3.81,-20.8 2.42,-30 -0.6,-3.94 -5.67,-3.59 -8.15,-4.27 z"
       id="path3886"
       inkscape:connector-curvature="0"
       style="fill:#393a35" />
    <path
       class="cls-3"
       d="m 544.05,330 c 0.06,-1.4 -0.45,-2.85 -2,-2.9 a 0.44,0.44 0 0 0 -0.4,0.23 0.36,0.36 0 0 0 0,0.09 c -0.11,0.31 0.17,0.63 0.27,0.9 a 2.06,2.06 0 0 1 0,1.63 v 0 a 4.11,4.11 0 0 0 -0.42,0.5 c -0.18,0.27 -0.33,0.57 -0.5,0.84 a 4.11,4.11 0 0 0 -0.86,2.05 1.56,1.56 0 0 0 2.31,1.34 c 1.44,-1.04 1.55,-3 1.6,-4.68 z"
       id="path3888"
       inkscape:connector-curvature="0"
       style="fill:#393a35" />
    <path
       class="cls-3"
       d="m 548.83,337.1 a 0.68,0.68 0 0 0 -1.33,0.18 3.13,3.13 0 0 1 -2.14,2.46 c -0.47,0.19 -1,0.23 -1.46,0.38 a 4.48,4.48 0 0 0 -1.63,1 c -1,0.79 -0.23,2.76 1.06,2.58 a 7.89,7.89 0 0 0 4.36,-2.55 3.58,3.58 0 0 0 1.14,-4.05 z"
       id="path3890"
       inkscape:connector-curvature="0"
       style="fill:#393a35" />
    <path
       class="cls-3"
       d="m 517.89,340.69 c -0.14,-1.18 -0.87,-2.84 -0.37,-4 0.35,-0.85 2.56,-1.53 1.48,-2.78 -1.53,-1.75 -3.93,0.6 -4.47,2.11 a 6.06,6.06 0 0 0 1,5.66 1.4,1.4 0 0 0 2.36,-0.99 z"
       id="path3892"
       inkscape:connector-curvature="0"
       style="fill:#393a35" />
    <path
       class="cls-2"
       d="m 457.57,297.07 c -2.19,-1.63 -4.4,-0.87 -5.07,-2.25 -0.67,-1.38 1.4,-2.55 1.74,-5.67 0.3,-2.69 -0.79,-5.91 -2.48,-6.26 a 2.58,2.58 0 0 0 -2.49,1.16 c -0.64,1.05 0.14,2 -0.53,2.91 a 2.23,2.23 0 0 1 -2.54,0.73 c -1.21,-0.62 -1,-3 -0.88,-3.83 0.25,-2.52 1.37,-2.95 1.43,-4.54 0.11,-2.95 -3.54,-6.47 -5.93,-5.87 -1.94,0.5 -2.73,3.65 -3.11,5.18 -1.09,4.35 0.57,6.43 -1,8.2 -1.31,1.48 -4,1.8 -5.15,0.83 -0.81,-0.71 -0.25,-1.61 -1.15,-4.24 a 12.09,12.09 0 0 0 -1.7,-3.3 c -0.93,-1.27 -1.67,-2.29 -2.67,-2.31 -1.24,0 -2.58,1.46 -2.94,3 -0.91,3.92 5,7.61 4.11,8.92 -0.89,1.31 -8.09,-2.73 -9.91,-0.59 -0.8,0.95 -0.25,2.76 0.22,3.7 2,4 8.26,3.74 8.28,5.37 0,1.09 -2.82,2.2 -5,2.54 -3.07,0.5 -4.77,-0.54 -5.23,0.18 -0.59,0.92 1.29,4.2 4.37,5.61 4.47,2 8.75,-1.06 10.39,1 1.28,1.59 -0.48,4.55 0.61,5.17 1.09,0.62 2.66,-2 5.24,-1.92 1.84,0 3.17,1.38 4,2.16 3.48,3.43 2.18,7.08 4,8.06 4,2.14 18.22,-11 16.12,-19.16 a 8,8 0 0 0 -2.73,-4.78 z"
       id="path3894"
       inkscape:connector-curvature="0"
       style="fill:#58595b" />
    <path
       class="cls-2"
       d="m 416.56,320.75 c -0.93,-0.33 2.77,-10.33 0.65,-11.57 -2.12,-1.24 -7,6.91 -11.6,5.6 -3.13,-0.88 -3.66,-5.41 -6.11,-5.28 -2.45,0.13 -3.16,4.47 -5.25,4.36 -2.09,-0.11 -3,-5.1 -4.58,-5 -1.58,0.1 -2.4,4.88 -2.57,5.8 -0.8,4.47 0.35,6 -0.67,7.08 -2.56,2.72 -12.8,-3.61 -13.54,-2.42 -0.74,1.19 8.31,7 7.33,9.15 -0.89,1.92 -9.37,-0.11 -9.46,0.35 -0.09,0.46 14.64,2.43 15.34,7.21 0.49,3.32 -6.1,6.07 -5.27,8.37 1,2.76 11.12,0.35 12.42,3.55 0.94,2.33 -3.86,5.11 -2.84,7.83 1.02,2.72 7.23,2.81 8.08,2.81 a 18.61,18.61 0 0 0 3.36,-0.41 26.3,26.3 0 0 0 7.26,-2.84 c 7.92,-4.66 21,-33 17.41,-35 -1,-0.55 -2.64,1.15 -4,0.22 -1.71,-1.2 -0.51,-5.06 -1.37,-5.35 -1.1,-0.37 -3.84,5.79 -4.59,5.54 z"
       id="path3896"
       inkscape:connector-curvature="0"
       style="fill:#58595b" />
    <path
       class="cls-2"
       d="m 342,546.93 c -1.07,-0.37 -1.36,-2.39 -3.18,-2.69 -1.26,-0.21 -4.13,3 -4.4,1.47 -0.66,-3.65 -0.29,-3.21 -1.28,-5.36 -0.78,-1.68 -3.55,-2.37 -4.44,-1.49 -1.15,1.14 1,4.67 0.11,5.33 -0.64,0.47 -2.61,-0.63 -3.51,-2.35 -0.9,-1.72 -0.16,-3.28 -1.17,-4.09 a 2.06,2.06 0 0 0 -2.68,0.12 c -1,1.3 1.68,4.07 0.63,5.79 a 2.64,2.64 0 0 1 -2.86,0.91 c -1,-0.3 -1.61,-1.23 -3.27,-5.58 -1.66,-4.35 -1.83,-5.64 -2.69,-5.83 -1.3,-0.29 -3.09,2 -3.74,4.09 -1,3.39 0.71,6.7 1.17,7.56 1.68,3.18 4.22,4.68 3.86,5.33 -0.36,0.65 -2.07,-0.58 -4.33,0.25 -0.26,0.1 -2,0.73 -2,1.61 0,1.28 3.56,1.6 3.74,3.22 0.18,1.62 -2.62,2.57 -2.33,3.6 0.29,1.03 4,0.72 4.09,1.49 0.09,0.77 -3.55,1.13 -4.33,3.47 a 4.65,4.65 0 0 0 8.77,2.85 c 0.73,-2 -0.85,-3.61 0,-4.59 0.85,-0.98 2.67,-0.32 2.93,-0.25 1.44,0.42 1.75,1.28 2.33,1.12 1.37,-0.38 0.9,-5.42 1.76,-5.58 0.86,-0.16 1.14,4.23 3.62,5.21 2,0.78 4.91,-0.74 5.38,-2.61 0.4,-1.58 -1.08,-3 -0.58,-3.59 0.5,-0.59 2.54,1.49 4,0.87 2.15,-0.94 5.82,-9.79 4.4,-10.28 z"
       id="path3898"
       inkscape:connector-curvature="0"
       style="fill:#58595b" />
    <path
       class="cls-2"
       d="m 344.28,504.34 c -1.33,0 -2,4.57 -3.28,4.44 -1.28,-0.13 -1.87,-4 -2.32,-6.57 -0.53,-3 -0.56,-5 -1,-5 -0.63,-0.05 -0.71,4.7 -2.32,5 -1.45,0.3 -4.24,-3 -4.27,-6.34 0,-2.62 1.63,-3.65 1,-5.84 -0.45,-1.54 -1.87,-3 -3.09,-2.9 -1.42,0.17 -2.41,2.57 -2.51,4.45 -0.13,2.41 1.24,3.41 0.58,4.64 a 3.3,3.3 0 0 1 -4.06,1.16 c -1.85,-1.2 0.45,-5 -1.74,-9.28 -1,-2 -2.88,-3.84 -3.87,-3.48 -1.62,0.59 -0.06,6.94 -1.74,7.54 -1.3,0.46 -2.93,-3.15 -4.44,-2.71 -1.51,0.44 -2.47,4.61 -1,7.54 1,1.87 2.51,2.39 2.32,3.67 a 3,3 0 0 1 -2.71,2.13 c -1.85,0.1 -2.68,-1.9 -3.67,-1.55 -0.99,0.35 -1.35,3.22 -0.58,5.41 0.11,0.31 1.29,3.54 3.67,3.87 2.38,0.33 4.43,-2.49 4.84,-2.13 0.41,0.36 -3.16,3.54 -3.1,7.74 a 7.26,7.26 0 0 0 2.52,5.41 c 1,0.82 3.27,2 4.44,1.16 1.77,-1.25 -1.06,-5.49 1.16,-8.7 1.28,-1.84 3.86,-2.85 4.84,-2.13 1.5,1.12 -1.87,5.62 0.16,8.61 a 5.3,5.3 0 0 0 5.83,1.83 c 2.81,-1.11 2.84,-5.45 4.06,-5.41 1.63,0.05 1.89,7.39 2.12,7.35 a 18.34,18.34 0 0 0 1.74,-8.12 4.25,4.25 0 0 1 3.21,-1.27 5,5 0 0 1 2.4,1.07 c 2.54,1.68 3,2.85 3.48,2.71 1.57,-0.46 -0.36,-14.27 -2.67,-14.3 z"
       id="path3900"
       inkscape:connector-curvature="0"
       style="fill:#58595b" />
    <path
       class="cls-2"
       d="m 449.62,313.85 c 0.16,1.36 0.13,2.42 0.89,2.95 0.95,0.66 2.8,0.27 4.92,-0.8 q -2.87,-1.17 -5.81,-2.15 z"
       id="path3902"
       inkscape:connector-curvature="0"
       style="fill:#58595b" />
    <path
       class="cls-2"
       d="m 389,370.53 c -0.45,-3.82 -1.65,-8 -2.87,-8 -1.48,0 -2.61,6.06 -3.42,5.91 -0.81,-0.15 0.46,-6.31 -1.74,-7.42 -1.6,-0.81 -3.83,1.66 -4.73,0.85 -0.9,-0.81 0,-3.43 1.28,-5.31 1.28,-1.88 2.25,-2.17 2.1,-3 -0.2,-1.16 -2.47,-2.23 -3.74,-1.56 -1.27,0.67 -0.57,2.63 -2,5.65 -1,2 -2.64,3.89 -3.21,3.64 -1.18,-0.53 3.14,-9.78 0.54,-11.7 -1.62,-1.19 -4.49,1.49 -6.29,0.12 -2,-1.51 -0.2,-6 -1.37,-6.47 -1,-0.37 -3.09,2.31 -4.41,4.86 -1.93,3.73 -1.61,6.19 -2.52,6.36 -2,0.37 -5.6,-11.31 -6.67,-11 -0.8,0.22 1.11,6.87 -0.82,7.88 -1.73,0.91 -5.56,-3.3 -5.83,-3 -0.42,0.43 9.18,9.73 8,11.39 -0.92,1.25 -7.1,-3.08 -9.33,-1 -1.13,1.07 -1.07,3.65 0.1,5.07 1.77,2.14 4.87,0.16 9,2.25 2.19,1.12 4.8,3.48 4.41,5.31 -0.63,3 -9.06,3.26 -9,4.46 0,0.54 1.76,0.76 6.55,2.49 1.79,0.64 2.46,0.94 2.49,1.38 0.08,1.31 -5.61,2.13 -5.52,3.23 0.06,0.88 3.72,1.52 7.3,2.15 2.85,0.5 3.66,0.47 4.3,1.26 1.57,1.91 -0.67,5.22 0.48,6 0.69,0.48 2.62,-0.54 6.45,-2.59 1.86,-1 2.42,-1.37 2.85,-1.13 0.94,0.54 -1.91,3.83 -0.89,7.49 a 4.71,4.71 0 0 0 1.95,2.91 c 2.57,1.4 6.62,-1.6 7.71,-2.41 7.85,-5.95 9.85,-17.71 8.85,-26.07 z"
       id="path3904"
       inkscape:connector-curvature="0"
       style="fill:#58595b" />
    <path
       class="cls-2"
       d="m 366.88,418.25 c 2.53,-8.37 1.65,-11.16 0.31,-12.67 -1.49,-1.68 -4.36,-2.69 -5.66,-1.74 -1.46,1.05 -0.56,4.29 -1,4.36 -0.44,0.07 -1.42,-4.36 -3.34,-9.29 -1.38,-3.56 -3.52,-8 -4.42,-7.76 -0.9,0.24 0.52,5.94 -1.05,6.62 -1.57,0.68 -5.3,-4.3 -6.43,-5.82 -4.1,-5.54 -4.56,-8.93 -6.22,-8.9 -1.66,0.03 -4.28,4.06 -3.79,7.88 0.72,5.63 7.28,6.07 9,12.73 0.62,2.39 0.93,6.77 -1.35,8.54 -3.74,2.92 -10.81,-4 -15.71,-0.78 a 5.9,5.9 0 0 0 -2.61,5.8 c 0.75,2.93 5.2,4 7.2,4.53 6,1.5 8.52,-0.91 11.94,1.33 a 7.66,7.66 0 0 1 3.59,5.93 c 0,2.71 -2.24,3.57 -2,5.62 0.28,2.67 4.54,5.56 8.21,5.25 6.99,-0.58 10.62,-12.62 13.33,-21.63 z"
       id="path3906"
       inkscape:connector-curvature="0"
       style="fill:#58595b" />
    <path
       class="cls-2"
       d="m 319.48,436.07 c -1,0.13 -1.78,1.72 -2,3.11 -0.49,3.69 3.35,5.67 2.43,8.08 a 4,4 0 0 1 -3,2.11 c -2.16,0.36 -3.65,-1.38 -4.11,-0.92 -0.46,0.46 0.66,3.25 3,5.07 2.15,1.69 3.36,1.07 5.13,2.75 1.11,1.05 2.72,3.26 2.12,4.86 -1.09,2.92 -8.83,2 -8.92,3.24 -0.06,0.85 3.5,2.48 6.48,3.26 1.05,0.28 1.89,0.41 2.07,1 0.42,1.3 -3.25,2.76 -3,4.15 0.25,1.39 5,2.85 7.41,1 2.28,-1.71 0.8,-4.8 3.33,-7.11 2.06,-1.89 5.4,-2 5.91,-1.13 0.66,1.16 -3.85,3.49 -3.53,7.16 0.11,1.21 0.77,2.92 2,3.25 2.61,0.74 5.31,-5.76 7.89,-5.06 1.35,0.37 2.08,2.53 2.14,4 0.13,3.08 -2.49,4.34 -1.94,6 0.61,1.81 4.64,2.76 7.59,1.78 4.07,-1.34 5.24,-6.76 6.51,-12.13 a 29.52,29.52 0 0 0 0.69,-12.48 c -0.8,-4.55 -3.2,-11.27 -5.81,-11.21 -1.49,0 -2.88,2.29 -5.65,6.81 -1.65,2.68 -2.15,4 -2.82,3.92 -1,-0.16 -1.73,-3.49 -1.25,-6.5 0.4,-2.52 1.3,-2.68 1.42,-4.63 0.2,-3.24 -2,-7.15 -4.73,-7.35 a 4.58,4.58 0 0 0 -3.19,1.33 c -1.64,1.63 -1,3.64 -2,3.94 -1,0.3 -3.37,-1.76 -3.84,-4.27 -0.47,-2.51 1,-3.35 0.32,-5 -0.79,-1.8 -3.56,-3 -5,-2.16 -1.89,1 -1,5.14 -2.27,5.44 -1.04,0.25 -2,-2.5 -3.38,-2.31 z"
       id="path3908"
       inkscape:connector-curvature="0"
       style="fill:#58595b" />
    <path
       class="cls-3"
       d="m 502,487.24 c -16.31,-21.76 -5.2,-52 -5.2,-52 0,0 17.33,-22.52 15.16,-53.27 -1.3,-18.41 -16.1,-29.27 -20.52,-39.05 -5.06088,-5.62458 -10.55796,-10.84079 -16.44,-15.6 -9.69,-7.74 -20.62,-12.49 -32.36,-15.53 -24.23,13.69 -75.48,41.29 -96.55,182.53 -3.65,24.43 -6.16,53 -7.88,79.74 -1.54,6.4 -3,12 -4.34,15.75 -2.41005,6.48927 -5.87312,12.53698 -10.25,17.9 v 0.14 c -7,5.75 -15.54,9.5 -23.53,13.8 -12.26,6.6 -24,13.93 -36.89,19.32 -12.59,5.27 -25.65,9.48 -38.67,13.54 -7.13,2.22 -14.57,4.43 -21,8.27 -4.58,2.72 -8.76,7.5 -8,12.39 h 143.74 c 0.05,-0.15 0.08,0.16 0.12,0 L 476.6,675 c 0,0 89.51,-102.14 25.4,-187.76 z"
       id="path3910"
       inkscape:connector-curvature="0"
       style="fill:#393a35"
       sodipodi:nodetypes="cccccccccccccccccccc" />
    <path
       class="cls-2"
       d="m 420.15,512.33 c -34.1,0.94 -79.11,79.68 -79.69,162.84 34.0921,-0.005 150.14,0 150.14,0 0,0 15.59,-31.76 -30,-31.18 C 477.32,614 504.46,510 420.15,512.33 Z"
       id="path3912"
       inkscape:connector-curvature="0"
       style="fill:#58595b"
       sodipodi:nodetypes="ccccc" />
    <path
       class="cls-3"
       d="m 429.49,389.85 c 27.95,-4.57 80.19,-9.92 82.2,-10.06 C 508,351.25 473,345.15 505.57,321.7 c 10.51,-7.56 -20.67,-55.51 -20.67,-55.51 0,0 -20.55,11 -38.44,40.42 C 438.91,319 401.33,329 375,392.26 c 17.48,4.27 37.31,0.4 54.49,-2.41 z"
       id="path3914"
       inkscape:connector-curvature="0"
       style="fill:#393a35" />
    <path
       class="cls-4"
       d="m 496.87,285.79 c 0,0 -19.7,0.06 -20.27,23.79 -0.23,9.44 2.8,23.78 15.39,32.33 -1.86,-7.61 6.69,-14.58 6.69,-14.58 z"
       id="path3916"
       inkscape:connector-curvature="0"
       style="opacity:0.43999999" />
    <path
       class="cls-5"
       d="m 527.47,298.07 c 1.24,1.23 6.3,-4.12 18,-7.38 7.61,-2.13 10,-1.12 17.18,-3.86 6.62,-2.52 6.69,-4.15 11.63,-6.2 12.44,-5.17 18.92,2.26 30,-1.53 10.26,-3.5 7.52,-10.8 18.25,-15.85 13.31,-6.27 21.37,3.18 34.5,-3 10.21,-4.82 7.82,-11.71 18.83,-16.62 7.64,-3.42 15.14,-2.93 27.74,-2.12 16,1 18.58,4.09 24.39,1.54 9.78,-4.29 6.65,-14.84 15.28,-20 14.21,-8.5 35,12.68 47.33,5 10.17,-6.32 6,-27 5,-32.24 -0.49,-2.42 -6.83,-32.22 -26,-35.6 -7.37,-1.3 -9.83,2.52 -35.33,14.3 -8.6,4 -5.81,2.37 -41.21,18.08 -11.36,5 -19.84,8.9 -27.85,17.29 -5.86,6.14 -4.18,7.08 -8.49,11.34 -15.83,15.68 -38.56,3.08 -54.46,17.51 -8.45,7.67 -7,15.76 -17.76,20.47 -6.3,2.77 -9.73,1.27 -15.46,5.23 -7.33,5.05 -5.18,9.87 -12,14.34 -6.82,4.47 -11,0.95 -19.06,5.55 -7.62,4.43 -11.85,12.41 -10.51,13.75 z"
       id="path3918"
       inkscape:connector-curvature="0"
       style="opacity:0.43999999;fill:#ffffff" />
    <path
       class="cls-5"
       d="m 524.42,297.36 c 1,-0.41 -1.1,2.41 14.31,-1.64 16.77,-4.41 27.14,-7.91 37,-11.25 14.89,-5 16.56,-10.27 32.56,-15.46 7.8,-2.54 9.51,-2 17.54,-3.93 27.17,-6.62 27.62,-17.94 55.24,-27.09 12.9,-4.27 20.17,-4.24 33.29,-11.56 8.42,-4.69 7.31,-5.75 14,-9 12.23,-5.91 18.49,-3.65 39.78,-8.05 13.45,-2.78 20.23,-4.25 22.94,-8.3 6.45,-9.63 -2.87,-29.82 -15.94,-32.74 -6.88,-1.54 -9.81,2.82 -33.8,14.69 -19.9,9.84 -22,8.88 -36.62,17.23 -14.29,8.17 -12.33,9.12 -24.2,15.27 -15.44,8 -19.23,6.62 -33.8,14.68 -13.07,7.24 -10.45,8.57 -22.15,14.55 -17.94,9.18 -22.76,5.34 -33.21,13.91 -6.85,5.61 -8.49,10.31 -17.14,13.95 -5.56,2.35 -6.32,1 -13.59,3.53 -5.89,2 -14.57,2.65 -27.64,10.52 -11.65,7.04 -14.68,13.17 -8.57,10.69 z"
       id="path3920"
       inkscape:connector-curvature="0"
       style="opacity:0.43999999;fill:#ffffff" />
    <path
       class="cls-2"
       d="m 550.18,294 c -0.48,0 -0.92,3.39 -1.68,3.37 -0.76,-0.02 -0.9,-2.7 -1.53,-2.7 -0.63,0 -0.9,3.58 -2,3.73 -1.1,0.15 -1.92,-2.82 -2.68,-2.65 -0.76,0.17 -0.48,3.78 -1.07,3.87 -0.59,0.09 -1.16,-3 -2,-3 -0.84,0 -1.34,3.91 -2.05,3.88 -0.71,-0.03 -0.77,-3.19 -1.49,-3.24 -0.72,-0.05 -1.52,3.59 -2.07,3.5 -0.55,-0.09 -0.19,-2.87 -0.8,-3 -0.76,-0.17 -2.17,4 -2.76,3.87 -0.59,-0.13 0.14,-3.66 -0.35,-3.78 -0.49,-0.12 -1.58,3.45 -2.32,3.31 -0.74,-0.14 -0.43,-2.72 -1,-2.81 -0.57,-0.09 -1.52,2.85 -2,2.74 -0.48,-0.11 0.09,-2.72 -0.59,-3 -0.68,-0.28 -2.78,3 -3.1,2.86 -0.32,-0.14 1.35,-3 1,-3.27 -0.35,-0.27 -3.66,1.91 -3.45,3.75 0.42,3.52 13.68,6.48 24.26,2.66 2,-0.72 7.33,-2.64 8.17,-6.56 0.33,-1.66 -0.14,-3.53 -0.49,-3.53 z"
       id="path3922"
       inkscape:connector-curvature="0"
       style="fill:#58595b" />
    <path
       class="cls-2"
       d="m 548.26,278.21 c -0.33,0.4 -3.34,-1.82 -3.89,-1.22 -0.55,0.6 1.43,2.73 1,3.23 -0.43,0.5 -3.47,-2 -4.4,-1.24 -0.93,0.76 0.77,3.62 0.07,4.08 -0.7,0.46 -3.32,-2.45 -3.83,-2.06 -0.51,0.39 1.52,3.18 0.86,3.82 -0.66,0.64 -4,-1.88 -4.57,-1.3 -0.57,0.58 1.92,3 1.42,3.59 -0.5,0.59 -3.93,-1.5 -4.28,-1 -0.35,0.5 2.1,2.3 1.75,2.87 -0.43,0.73 -4.77,-1.31 -5.08,-0.73 -0.31,0.58 3,2.63 2.69,3.1 -0.31,0.47 -3.88,-1.34 -4.32,-0.66 -0.44,0.68 1.79,2.37 1.42,2.91 -0.37,0.54 -3.37,-0.94 -3.64,-0.49 -0.27,0.45 2.2,2 1.9,2.7 -0.3,0.7 -4.46,-0.1 -4.55,0.28 -0.09,0.38 3.35,1.18 3.28,1.7 -0.07,0.52 -4.24,1.44 -5.51,-0.1 -2.45,-3 5.15,-15.55 16.05,-21 2,-1 7.55,-3.75 11.24,-1.48 1.47,0.96 2.63,2.7 2.39,3 z"
       id="path3924"
       inkscape:connector-curvature="0"
       style="fill:#58595b" />
    <path
       class="cls-3"
       d="m 476.21,271.69 c 16.15,-14.41 33.07,-17.89 41.74,-9.28 8.67,8.61 22.64,4.3 22.64,4.3 l 7.57,8.77 c 0,0 -23.66,12.08 -27.39,22.88 9.23,4.26 21.21,0.7 30.46,-3.58 l 1.29,8.79 c 0,0 -51.64,39.39 -66,23.16 -3.05,-3.44 -10.81,-19 -15.16,-32.25 -3.29,-9.95 -3.29,-15.48 4.85,-22.79 z"
       id="path3926"
       inkscape:connector-curvature="0"
       style="fill:#393a35" />
    <path
       class="cls-6"
       d="m 491.53,287.11 c 1.91,2.77 6.64,2.28 9.44,0.9 3.19,-1.59 6.07,-5.45 5,-8.26 -1.22,-3.29 -4.26,-0.7 -9.1,0.53 -3.4,0.86 -7.25,4.07 -5.34,6.83 z"
       id="path3928"
       inkscape:connector-curvature="0"
       style="fill:#ffffff" />
    <path
       class="cls-3"
       d="m 494.77,278.27 c -1,0.79 0.38,4.67 2,6.68 1.43,1.73 4.61,4.15 5.57,3.43 0.96,-0.72 0,-4.73 -1.71,-6.8 -1.45,-1.77 -4.92,-4.06 -5.86,-3.31 z"
       id="path3930"
       inkscape:connector-curvature="0"
       style="fill:#393a35" />
    <path
       class="cls-2"
       d="m 471.58,287.22 c -3.36,-0.58 -7.27,5 -6,7.63 1.27,2.63 7.76,3.11 9.53,0.09 1.49,-2.57 -0.76,-7.25 -3.53,-7.72 z"
       id="path3932"
       inkscape:connector-curvature="0"
       style="fill:#58595b" />
    <path
       class="cls-2"
       d="m 442.16,374.84 c -10.27,3.27 -11.51,26.05 0,40.68 11.51,14.63 28.43,20.59 39.65,12.68 11.22,-7.91 16.29,-22.39 14.8,-30.71 -1.49,-8.32 -13.21,-8.84 -13.85,-1.91 -0.64,6.93 -3.44,18.13 -12.63,17 -9.19,-1.13 5.81,-48.5 -27.97,-37.74 z"
       id="path3934"
       inkscape:connector-curvature="0"
       style="fill:#58595b" />
    <path
       class="cls-2"
       d="m 479.2,400.34 c -6.46,-3.93 -10.44,-12.61 -7.94,-18.31 0.82,-1.85 2.69,-4.23 4.44,-4 3.46,0.45 3.15,10.59 6.29,11 2.46,0.34 6.37,-5.32 7.35,-11.08 0.84,-4.9 -0.76,-8 1.2,-9.55 a 4.82,4.82 0 0 1 6,0.62 c 1.72,2 0.3,5.94 -2.62,13.75 a 64.17,64.17 0 0 1 -2.47,6.32 c -0.28,-0.09 1.35,-12.78 8.43,-15.6 1.94,-0.78 4.61,-0.93 5.42,0.23 1.12,1.6 -1.46,5.34 -6,11.9 -0.42,0.59 -4.37,6.24 -4.42,6.2 -0.05,-0.04 6.52,-12.73 11.27,-11.71 1.83,0.39 2.94,2.72 3.13,4.41 0.45,4 -8.1,4 -10.92,10.5 -1.14,2.63 -0.2,3.44 -1.45,5.07 -3.04,3.91 -11.78,3.91 -17.71,0.25 z"
       id="path3936"
       inkscape:connector-curvature="0"
       style="fill:#58595b" />
    <path
       class="cls-2"
       d="m 494,369.49 a 6.75,6.75 0 0 0 -1.42,-4.72 c -0.79,-1 -2.34,-2 -3.67,-1.64 a 0.33,0.33 0 0 0 -0.13,0.55 5.74,5.74 0 0 1 1.41,2.61 8.72,8.72 0 0 1 0.24,2.83 1.8,1.8 0 1 0 3.57,0.37 z"
       id="path3938"
       inkscape:connector-curvature="0"
       style="fill:#58595b" />
    <path
       class="cls-2"
       d="m 505.02178,371.41 a 5.67,5.67 0 0 0 -1.72,-4.45 0.29,0.29 0 0 0 -0.49,0.21 15.18,15.18 0 0 1 -0.07,4.71 c -0.38,1.47 -1.19,2.81 -0.93,4.34 a 1.24,1.24 0 0 0 2.07,0.5 c 1.05,-1.38 1.16,-3.6 1.14,-5.31 z"
       id="path3940"
       inkscape:connector-curvature="0"
       style="fill:#58595b" />
    <path
       class="cls-2"
       d="m 510.62691,377.24099 a 0.92,0.92 0 0 0 -1.43,-0.16 c -1.08,1.31 -1.14,3 -2.51,4.16 -1.37,1.16 -2.74,2 -4,3.18 -1.26,1.18 0.73,3.2 2,1.94 1.45,-1.41 3.34,-2.36 4.68,-3.88 1.23,-1.35 2.23,-3.54 1.26,-5.24 z"
       id="path3942"
       inkscape:connector-curvature="0"
       style="fill:#58595b" />
    <path
       class="cls-2"
       d="m 475,376.92 a 4.23,4.23 0 0 1 0.55,-2.15 c 0.24,-0.38 0.59,-0.63 0.84,-1 0.25,-0.37 0.37,-1 0.72,-1.31 a 0.17,0.17 0 0 0 -0.13,-0.28 c -0.6,0 -1.11,-0.37 -1.71,-0.25 a 4.25,4.25 0 0 0 -1.57,1 6.38,6.38 0 0 0 -2,3 c -0.69,2.23 -0.15,5.88 2.42,6.61 a 1.21,1.21 0 0 0 1.44,-0.88 c 0.29,-1.66 -0.66,-3.14 -0.56,-4.74 z"
       id="path3944"
       inkscape:connector-curvature="0"
       style="fill:#58595b" />
    <path
       class="cls-2"
       d="m 557,664.77 c -3.4,-2.5 -8.06,-5 -12.28,-3 -2.25,1 -2.27,4.95 0,6 2.63,1.17 5.67,0.86 8.48,1.06 a 6.44,6.44 0 0 1 3.27,1 c 0.95,0.7 1.08,1.62 1.51,2.65 a 0.84,0.84 0 0 0 1.22,0.5 c 3.37,-2.38 0.01,-6.56 -2.2,-8.21 z"
       id="path3946"
       inkscape:connector-curvature="0"
       style="fill:#58595b" />
    <path
       class="cls-2"
       d="m 563.6,661.94 c -4.12,-3.52 -14.35,-5.85 -18.93,-2.33 -1.76,1.36 -2.25,4.14 0,5.4 3.81,2.14 8.61,0.12 12.82,1.17 a 11.16,11.16 0 0 1 4.82,2.29 c 1.27,1.22 1.39,3 2.38,4.35 a 0.32,0.32 0 0 0 0.49,0.06 c 2.63,-3.17 1.33,-8.45 -1.58,-10.94 z"
       id="path3948"
       inkscape:connector-curvature="0"
       style="fill:#58595b" />
  </g>
</svg>
