<?xml version="1.0" encoding="UTF-8" standalone="no"?>
<svg
   xmlns:dc="http://purl.org/dc/elements/1.1/"
   xmlns:cc="http://creativecommons.org/ns#"
   xmlns:rdf="http://www.w3.org/1999/02/22-rdf-syntax-ns#"
   xmlns:svg="http://www.w3.org/2000/svg"
   xmlns="http://www.w3.org/2000/svg"
   xmlns:sodipodi="http://sodipodi.sourceforge.net/DTD/sodipodi-0.dtd"
   xmlns:inkscape="http://www.inkscape.org/namespaces/inkscape"
   viewBox="0 0 408.591 351.60346"
   version="1.1"
   id="svg1322"
   sodipodi:docname="godzilla.svg"
   width="408.591"
   height="351.60345"
   inkscape:version="0.92.4 (5da689c313, 2019-01-14)">
  <metadata
     id="metadata1326">
    <rdf:RDF>
      <cc:Work
         rdf:about="">
        <dc:format>image/svg+xml</dc:format>
        <dc:type
           rdf:resource="http://purl.org/dc/dcmitype/StillImage" />
        <dc:title>banner godzilla</dc:title>
      </cc:Work>
    </rdf:RDF>
  </metadata>
  <sodipodi:namedview
     pagecolor="#ffffff"
     bordercolor="#666666"
     borderopacity="1"
     objecttolerance="10"
     gridtolerance="10"
     guidetolerance="10"
     inkscape:pageopacity="0"
     inkscape:pageshadow="2"
     inkscape:window-width="1366"
     inkscape:window-height="671"
     id="namedview1324"
     showgrid="false"
     fit-margin-top="0"
     fit-margin-left="0"
     fit-margin-right="0"
     fit-margin-bottom="0"
     inkscape:zoom="5.6568542"
     inkscape:cx="219.68989"
     inkscape:cy="197.19446"
     inkscape:window-x="0"
     inkscape:window-y="27"
     inkscape:window-maximized="1"
     inkscape:current-layer="g5688">
    <inkscape:grid
       type="xygrid"
       id="grid1871"
       originx="67.657875"
       originy="-3.3586713e-06" />
  </sodipodi:namedview>
  <defs
     id="defs1242">
    <style
       id="style1240">.cls-1{fill:#ffd500;}.cls-2{fill:#58595b;}.cls-3{fill:#393a35;}.cls-4,.cls-5{opacity:0.44;}.cls-5,.cls-6{fill:#fff;}</style>
  </defs>
  <title
     id="title1244">banner godzilla</title>
  <g
     id="Layer_10"
     data-name="Layer 10"
     transform="translate(-127.78224,-323.1437)">
    <g
       id="g5650"
       transform="matrix(1.6466436,0,0,1.6466436,-178.32303,-653.79559)">
      <g
         id="g5688"
         transform="translate(-9.4553481,132.07149)">
        <path
           class="cls-2"
           d="m 248.50959,647.60148 c -1.94538,1.93334 -2.84785,2.1018 -3.46155,1.95339 -0.68589,-0.16445 -1.38782,-0.80221 -1.31964,-1.31162 0.0683,-0.50939 1.10706,-0.80221 1.06695,-0.91051 -0.0401,-0.10834 -1.41591,0.24869 -3.06043,0.44524 -1.20332,0.14037 -2.73956,0.20456 -2.80774,-0.0802 -0.0681,-0.28478 1.72074,-0.73002 1.67662,-1.2675 -0.0442,-0.53748 -1.96542,-0.83028 -2.55505,-0.91852 -2.13789,-0.32089 -3.14466,0.0481 -3.38131,-0.4011 -0.23666,-0.44924 0.49336,-1.78092 1.60441,-2.21009 1.6646,-0.62974 2.75561,1.11908 4.85338,0.6177 0.75408,-0.1805 2.00552,-0.74204 2.16597,-1.6325 0.25671,-1.46403 -2.70345,-2.40664 -2.53097,-4.23166 a 1.845084,1.845084 0 0 1 1.22337,-1.57634 c 0.91853,-0.22864 1.88118,0.84231 2.31438,1.32365 1.30359,1.44798 1.00275,2.49486 2.12586,3.11256 a 2.4066314,2.4066314 0 0 0 2.16998,0.11629 c 0.75006,-0.40111 0.6578,-1.14717 1.25545,-1.38782 0.80221,-0.31286 2.21009,0.44121 2.66735,1.50013 0.88243,2.01756 -1.91327,4.78118 -4.00703,6.8589 z"
           id="path1249"
           inkscape:connector-curvature="0"
           style="fill:#58595b;stroke-width:0.40110523" />
        <path
           class="cls-2"
           d="m 309.58588,609.60078 c -13.67769,0.37704 -31.73941,31.79045 -31.97206,65.14636 14.43979,-0.0154 60.16579,0 60.16579,0 0,0 6.31735,-12.56948 -11.96903,-12.33684 6.70648,-12.02915 17.59248,-53.7441 -16.2247,-52.80952 z"
           id="path1253"
           inkscape:connector-curvature="0"
           style="fill:#58595b;stroke-width:0.40110523"
           sodipodi:nodetypes="ccccc" />
        <g
           id="g8038"
           transform="translate(-1.2145919,0.21471154)">
          <path
             style="fill:#393a35;stroke-width:0.40110523"
             inkscape:connector-curvature="0"
             id="path1255"
             d="m 337.49401,542.12256 c -0.0802,-0.5816 -0.47731,-1.37579 -1.11106,-1.50013 -0.47329,-0.0922 -0.99073,0.20858 -1.49211,0.68589 0.99073,-1.52019 1.4881,-2.45076 1.17123,-2.88395 -0.31687,-0.4332 -1.20331,-0.32489 -1.86916,-0.0441 a 3.2569744,3.2569744 0 0 0 -1.22737,0.95062 c 0.37703,-1.25947 0.44924,-2.00552 0.0482,-2.4708 a 1.4520009,1.4520009 0 0 0 -0.78214,-0.40111 3.4093945,3.4093945 0 0 0 -0.11629,-0.77012 c -0.12436,-0.50941 -0.32089,-1.11508 -0.80221,-1.37178 a 0.1684642,0.1684642 0 0 0 -0.24869,0.10028 c -0.0843,0.46529 0.12436,0.85436 0.18852,1.30761 a 4.2075939,4.2075939 0 0 1 0,0.8022 1.1030394,1.1030394 0 0 0 -0.28479,0.16446 c -0.66583,0.54952 -0.0963,1.60442 -0.35297,3.3011 -0.30082,2.00552 -1.60441,3.97094 -2.45877,3.86665 -1.08699,-0.13236 -1.04688,-3.60994 -2.24218,-3.76237 -0.60968,-0.0681 -1.23941,0.76611 -1.50414,1.40788 -0.83029,1.98146 0.60165,4.94965 2.85586,6.26526 2.0657,1.20333 5.08602,1.16723 6.08077,-0.19252 0.42115,-0.56957 0.0922,-0.84233 0.46928,-1.76085 0.91051,-2.26224 3.85864,-2.32642 3.67814,-3.69418 z"
             class="cls-3" />
          <path
             style="fill:#393a35;stroke-width:0.40110523"
             inkscape:connector-curvature="0"
             id="path1257"
             d="m 330.20192,545.42767 c -1.05089,-0.29281 -1.24343,-0.31286 -1.81299,1.39183 -0.91453,2.74356 0.4332,7.48463 -0.63375,9.12515 -0.80221,1.25546 -2.93609,1.85311 -4.21561,1.65255 -3.20884,-0.5054 -3.68215,-3.31312 -6.32944,-3.47758 -1.92933,-0.12038 -4.13139,1.20332 -4.4964,2.80773 -0.5495,2.40664 3.1567,5.32267 6.28934,6.39763 3.96291,1.36777 10.85391,-0.21258 13.49719,-4.15144 1.78091,-2.65933 1.5282,-8.34299 0.97068,-12.03315 -0.24067,-1.58036 -2.27428,-1.43997 -3.26902,-1.71272 z"
             class="cls-3" />
          <path
             style="fill:#393a35;stroke-width:0.40110523"
             inkscape:connector-curvature="0"
             id="path1259"
             d="m 336.43109,537.13682 c 0.0241,-0.56154 -0.1805,-1.14314 -0.80221,-1.1632 a 0.1764863,0.1764863 0 0 0 -0.16045,0.0922 0.14439788,0.14439788 0 0 0 0,0.0361 c -0.0441,0.12435 0.0681,0.25269 0.10835,0.36099 a 0.82627677,0.82627677 0 0 1 0,0.6538 v 0 a 1.6485425,1.6485425 0 0 0 -0.16846,0.20056 c -0.0722,0.10834 -0.13236,0.22863 -0.20055,0.33692 a 1.6485425,1.6485425 0 0 0 -0.34495,0.82227 0.62572416,0.62572416 0 0 0 0.92655,0.53748 c 0.5776,-0.41714 0.62172,-1.20331 0.64177,-1.87717 z"
             class="cls-3" />
          <path
             style="fill:#393a35;stroke-width:0.40110523"
             inkscape:connector-curvature="0"
             id="path1261"
             d="m 338.34838,539.98467 a 0.27275156,0.27275156 0 0 0 -0.53348,0.0722 1.2554594,1.2554594 0 0 1 -0.85837,0.98673 c -0.18851,0.0762 -0.4011,0.0922 -0.58561,0.15241 a 1.7969514,1.7969514 0 0 0 -0.6538,0.40111 c -0.4011,0.31687 -0.0922,1.10705 0.42517,1.03485 a 3.1647203,3.1647203 0 0 0 1.74882,-1.02282 1.4359568,1.4359568 0 0 0 0.45727,-1.62447 z"
             class="cls-3" />
          <path
             style="fill:#393a35;stroke-width:0.40110523"
             inkscape:connector-curvature="0"
             id="path1263"
             d="m 325.93817,541.42463 c -0.0561,-0.47329 -0.34896,-1.13914 -0.1484,-1.60441 0.14039,-0.34095 1.02683,-0.6137 0.59364,-1.11507 -0.6137,-0.70194 -1.57636,0.24065 -1.79295,0.84633 a 2.4306977,2.4306977 0 0 0 0.4011,2.27026 0.56154732,0.56154732 0 0 0 0.94661,-0.39711 z"
             class="cls-3" />
        </g>
        <path
           class="cls-2"
           d="m 300.52891,523.25886 c -0.87841,-0.6538 -1.76486,-0.34896 -2.0336,-0.90249 -0.26874,-0.55351 0.56155,-1.02281 0.69793,-2.27426 0.12038,-1.07897 -0.31688,-2.37053 -0.99474,-2.51092 a 1.0348515,1.0348515 0 0 0 -0.99876,0.46528 c -0.2567,0.42117 0.0562,0.80221 -0.21258,1.16722 a 0.89446466,0.89446466 0 0 1 -1.01881,0.29281 c -0.48534,-0.24869 -0.40111,-1.20331 -0.35297,-1.53623 0.10028,-1.01079 0.54951,-1.18327 0.57357,-1.82102 0.0442,-1.18327 -1.4199,-2.59515 -2.37855,-2.35449 -0.77814,0.20055 -1.09502,1.46403 -1.24743,2.07772 -0.43721,1.74482 0.22863,2.57911 -0.4011,3.28906 -0.52546,0.59364 -1.60443,0.72199 -2.0657,0.33292 -0.32489,-0.28478 -0.10027,-0.64578 -0.46128,-1.70068 a 4.8493622,4.8493622 0 0 0 -0.68187,-1.32365 c -0.37303,-0.50941 -0.66984,-0.91852 -1.07094,-0.92655 -0.49739,0 -1.03487,0.58562 -1.17927,1.20331 -0.36499,1.57234 2.00554,3.05241 1.64855,3.57787 -0.35698,0.52544 -3.24494,-1.09502 -3.97495,-0.23666 -0.32089,0.38106 -0.10028,1.10705 0.0882,1.48409 0.80221,1.60443 3.31313,1.50013 3.32116,2.15393 0,0.43721 -1.13112,0.88244 -2.00553,1.01881 -1.2314,0.20055 -1.91328,-0.21659 -2.09779,0.0722 -0.23664,0.36902 0.51743,1.68463 1.75284,2.2502 1.79294,0.80221 3.50967,-0.42518 4.16748,0.4011 0.51342,0.63776 -0.19254,1.82502 0.24468,2.07372 0.4372,0.24869 1.06693,-0.80221 2.10178,-0.77013 0.73804,0 1.27151,0.55353 1.60443,0.86639 1.39584,1.3758 0.8744,2.83983 1.60442,3.23291 1.60442,0.85836 7.30813,-4.41216 6.46581,-7.68517 a 3.2088418,3.2088418 0 0 0 -1.09502,-1.91729 z"
           id="path1265"
           inkscape:connector-curvature="0"
           style="fill:#58595b;stroke-width:0.40110523" />
        <path
           class="cls-2"
           d="m 284.0796,532.75704 c -0.37303,-0.13237 1.11105,-4.14342 0.26071,-4.64079 -0.85034,-0.49737 -2.80774,2.77163 -4.65282,2.24619 -1.25546,-0.35297 -1.46805,-2.16998 -2.45076,-2.11784 -0.9827,0.0521 -1.26749,1.79294 -2.10579,1.74882 -0.83832,-0.044 -1.20333,-2.04563 -1.83706,-2.00552 -0.63375,0.0401 -0.96266,1.9574 -1.03085,2.3264 -0.32089,1.79294 0.14039,2.40664 -0.26874,2.83983 -1.02683,1.09101 -5.13415,-1.44799 -5.43096,-0.97067 -0.29682,0.47731 3.33318,2.80774 2.94009,3.6701 -0.35698,0.77014 -3.75835,-0.044 -3.79444,0.14039 -0.0361,0.18451 5.87217,0.97469 6.15294,2.89197 0.19655,1.33168 -2.44674,2.43471 -2.11382,3.35726 0.40111,1.10704 4.46029,0.14038 4.98173,1.42391 0.37703,0.93459 -1.54827,2.04966 -1.13914,3.14066 0.40913,1.09101 2.89999,1.12711 3.24093,1.12711 a 7.4645683,7.4645683 0 0 0 1.34771,-0.16445 10.549068,10.549068 0 0 0 2.91203,-1.13914 c 3.17676,-1.86916 8.42321,-13.23648 6.98324,-14.03868 -0.40111,-0.22061 -1.05891,0.46127 -1.60442,0.0882 -0.68589,-0.48132 -0.20457,-2.02959 -0.54951,-2.14592 -0.44122,-0.1484 -1.54025,2.3224 -1.84107,2.22213 z"
           id="path1267"
           inkscape:connector-curvature="0"
           style="fill:#58595b;stroke-width:0.40110523" />
        <path
           class="cls-2"
           d="m 254.17319,623.47902 c -0.42918,-0.14841 -0.54551,-0.95864 -1.27552,-1.07897 -0.5054,-0.0843 -1.65656,1.20331 -1.76487,0.58961 -0.26472,-1.46403 -0.11628,-1.28754 -0.5134,-2.14992 -0.31286,-0.67385 -1.42393,-0.95062 -1.78092,-0.59765 -0.46127,0.45727 0.40111,1.87317 0.0442,2.1379 -0.25671,0.18852 -1.04689,-0.25269 -1.40789,-0.9426 -0.36099,-0.6899 -0.0642,-1.31562 -0.46928,-1.64052 a 0.82627677,0.82627677 0 0 0 -1.07496,0.0482 c -0.40112,0.52143 0.67385,1.6325 0.25269,2.3224 a 1.0589178,1.0589178 0 0 1 -1.14715,0.365 c -0.40112,-0.12038 -0.64579,-0.49336 -1.31162,-2.23816 -0.66584,-1.74482 -0.73402,-2.26224 -1.07898,-2.33844 -0.52143,-0.11629 -1.23941,0.80221 -1.50013,1.64051 -0.4011,1.35975 0.28478,2.68741 0.46929,3.03236 0.67386,1.27552 1.69267,1.87718 1.54827,2.13789 -0.1444,0.26072 -0.83029,-0.23264 -1.73679,0.10027 -0.10424,0.0401 -0.80221,0.29281 -0.80221,0.64578 0,0.51342 1.42794,0.64177 1.50014,1.29157 0.0722,0.64978 -1.0509,1.03084 -0.93458,1.44398 0.11628,0.41314 1.60442,0.28879 1.64052,0.59764 0.0361,0.30886 -1.42392,0.45325 -1.73678,1.39184 a 1.8651393,1.8651393 0 0 0 3.51769,1.14314 c 0.2928,-0.80221 -0.34095,-1.44799 0,-1.84107 0.34093,-0.39308 1.07095,-0.12835 1.17524,-0.10028 0.57759,0.16848 0.70193,0.51342 0.93457,0.44924 0.54952,-0.15241 0.36099,-2.17399 0.70594,-2.23816 0.34496,-0.0642 0.45726,1.69667 1.452,2.08976 0.80222,0.31286 1.96944,-0.29682 2.15796,-1.04689 0.16044,-0.63374 -0.4332,-1.20332 -0.23264,-1.43996 0.20054,-0.23666 1.0188,0.59765 1.60441,0.34895 0.86238,-0.37704 2.33443,-3.92682 1.76487,-4.12336 z"
           id="path1269"
           inkscape:connector-curvature="0"
           style="fill:#58595b;stroke-width:0.40110523" />
        <path
           class="cls-2"
           d="m 255.08771,606.39594 c -0.53347,0 -0.80221,1.83305 -1.31563,1.78092 -0.51342,-0.0521 -0.75006,-1.60443 -0.93057,-2.63527 -0.21258,-1.20331 -0.22462,-2.00553 -0.4011,-2.00553 -0.25269,-0.0201 -0.28478,1.8852 -0.93056,2.00553 -0.5816,0.12038 -1.70069,-1.20331 -1.71272,-2.54301 0,-1.05089 0.65379,-1.46403 0.4011,-2.34245 -0.18049,-0.6177 -0.75006,-1.20331 -1.23942,-1.16321 -0.56956,0.0681 -0.96665,1.03084 -1.00676,1.78492 -0.0521,0.96667 0.49737,1.36777 0.23264,1.86113 a 1.3236472,1.3236472 0 0 1 -1.62849,0.46528 c -0.74205,-0.48132 0.1805,-2.00553 -0.69793,-3.72226 -0.4011,-0.80221 -1.15518,-1.54023 -1.55228,-1.39584 -0.64978,0.23665 -0.0241,2.78366 -0.69792,3.02433 -0.52144,0.18451 -1.17523,-1.26348 -1.78091,-1.087 -0.60566,0.17649 -0.99073,1.8491 -0.4011,3.02434 0.4011,0.75007 1.00678,0.95864 0.93057,1.47206 a 1.2033157,1.2033157 0 0 1 -1.087,0.85435 c -0.74205,0.0401 -1.07496,-0.7621 -1.47206,-0.62171 -0.39709,0.14038 -0.54149,1.29156 -0.23263,2.16997 0.044,0.12436 0.51742,1.41992 1.47205,1.55228 0.95463,0.13237 1.7769,-0.99875 1.94135,-0.85435 0.16445,0.1444 -1.26749,1.41992 -1.24342,3.10455 a 2.9120239,2.9120239 0 0 0 1.01078,2.16998 c 0.4011,0.32891 1.31161,0.80221 1.78091,0.46529 0.70995,-0.50138 -0.42518,-2.20207 0.46527,-3.48962 0.51342,-0.73803 1.54827,-1.14314 1.94135,-0.85435 0.60166,0.44923 -0.75006,2.25421 0.0642,3.45352 a 2.1258578,2.1258578 0 0 0 2.33845,0.73401 c 1.1271,-0.44522 1.13914,-2.18602 1.62848,-2.16998 0.6538,0.0201 0.75809,2.96418 0.85034,2.94813 a 7.3562699,7.3562699 0 0 0 0.69792,-3.25698 1.7046972,1.7046972 0 0 1 1.28756,-0.50939 2.0055261,2.0055261 0 0 1 0.96265,0.42917 c 1.0188,0.67386 1.20331,1.14316 1.39585,1.087 0.62973,-0.18451 -0.1444,-5.72377 -1.07095,-5.73581 z"
           id="path1271"
           inkscape:connector-curvature="0"
           style="fill:#58595b;stroke-width:0.40110523" />
        <path
           class="cls-2"
           d="m 297.34013,529.98941 c 0.0642,0.5455 0.0521,0.97068 0.35698,1.18326 0.38106,0.26473 1.1231,0.10835 1.97344,-0.32089 q -1.15117,-0.46928 -2.33042,-0.86237 z"
           id="path1273"
           inkscape:connector-curvature="0"
           style="fill:#58595b;stroke-width:0.40110523" />
        <path
           class="cls-2"
           d="m 273.02514,552.72406 c -0.18051,-1.53223 -0.66183,-3.20885 -1.15118,-3.20885 -0.59364,0 -1.04689,2.4307 -1.37178,2.37053 -0.32489,-0.0602 0.18451,-2.53096 -0.69792,-2.9762 -0.64177,-0.3249 -1.53623,0.66584 -1.89723,0.34095 -0.36099,-0.3249 0,-1.3758 0.51341,-2.12987 0.51342,-0.75408 0.9025,-0.87041 0.84233,-1.20332 -0.0802,-0.46528 -0.99073,-0.89447 -1.50014,-0.62573 -0.50941,0.26875 -0.22863,1.05491 -0.80221,2.26625 -0.4011,0.8022 -1.05892,1.5603 -1.28755,1.46002 -0.4733,-0.21258 1.25947,-3.9228 0.21659,-4.69293 -0.64978,-0.47732 -1.80096,0.59765 -2.52295,0.0481 -0.8022,-0.60568 -0.0802,-2.40664 -0.5495,-2.59515 -0.40112,-0.14841 -1.23942,0.92655 -1.76888,1.94936 -0.77413,1.49613 -0.64578,2.48284 -1.01079,2.55104 -0.8022,0.14841 -2.24618,-4.53651 -2.67537,-4.41216 -0.32089,0.0882 0.44522,2.7556 -0.3289,3.16071 -0.69392,0.36501 -2.23015,-1.32365 -2.33845,-1.20332 -0.16846,0.17247 3.68215,3.90276 3.20884,4.56859 -0.36902,0.50138 -2.84785,-1.23541 -3.74231,-0.4011 -0.45325,0.42917 -0.42918,1.46402 0.0401,2.0336 0.70995,0.85837 1.95337,0.0642 3.60995,0.90249 0.87841,0.44923 1.9253,1.39584 1.76887,2.12987 -0.2527,1.20331 -3.63402,1.3076 -3.60994,1.78892 0,0.2166 0.70594,0.30484 2.62724,0.99876 0.71796,0.2567 0.9867,0.37704 0.99874,0.55352 0.0322,0.52545 -2.2502,0.85436 -2.2141,1.29557 0.0241,0.35297 1.49211,0.60969 2.92808,0.86238 1.14314,0.20056 1.46804,0.18852 1.72474,0.50539 0.62973,0.76611 -0.26874,2.09378 0.19253,2.40664 0.27677,0.19252 1.0509,-0.21661 2.58713,-1.03888 0.74606,-0.4011 0.97067,-0.5495 1.14315,-0.45325 0.37704,0.21661 -0.76611,1.53625 -0.35699,3.00429 a 1.8892057,1.8892057 0 0 0 0.78216,1.16721 c 1.03084,0.56155 2.65532,-0.64177 3.09253,-0.96665 3.14867,-2.38659 3.95088,-7.10358 3.54978,-10.45682 z"
           id="path1275"
           inkscape:connector-curvature="0"
           style="fill:#58595b;stroke-width:0.40110523" />
        <path
           class="cls-2"
           d="m 264.15268,571.8648 c 1.01481,-3.35726 0.66182,-4.47634 0.12435,-5.082 -0.59763,-0.67387 -1.74881,-1.07898 -2.27024,-0.69793 -0.58562,0.42115 -0.22462,1.72074 -0.40111,1.74882 -0.17648,0.0281 -0.56957,-1.74882 -1.3397,-3.72627 -0.55351,-1.42794 -1.41188,-3.20884 -1.77287,-3.11257 -0.361,0.0963 0.20857,2.38256 -0.42117,2.65531 -0.62973,0.27275 -2.12586,-1.72475 -2.57911,-2.33444 -1.64452,-2.22211 -1.82903,-3.58186 -2.49487,-3.56982 -0.66583,0.0115 -1.71673,1.62847 -1.52019,3.16071 0.2888,2.25822 2.92004,2.4347 3.60995,5.10607 0.24869,0.95863 0.37303,2.71547 -0.54149,3.42543 -1.50014,1.17123 -4.33595,-1.60442 -6.30136,-0.31286 a 2.3665208,2.3665208 0 0 0 -1.04689,2.32641 c 0.30083,1.17524 2.08575,1.60441 2.88796,1.81701 2.40662,0.60166 3.41741,-0.36501 4.7892,0.53346 a 3.0724661,3.0724661 0 0 1 1.43996,2.37856 c 0,1.08699 -0.89847,1.43195 -0.80222,2.25421 0.11232,1.07095 1.82103,2.23015 3.29309,2.1058 2.80371,-0.23264 4.25973,-5.06194 5.34672,-8.6759 z"
           id="path1277"
           inkscape:connector-curvature="0"
           style="fill:#58595b;stroke-width:0.40110523" />
        <path
           class="cls-2"
           d="m 245.1403,579.0125 c -0.40111,0.0521 -0.71397,0.68989 -0.80221,1.24743 -0.19655,1.48008 1.3437,2.27427 0.97468,3.24093 a 1.6044209,1.6044209 0 0 1 -1.20331,0.84634 c -0.86639,0.14439 -1.46404,-0.55353 -1.64855,-0.36902 -0.18451,0.18451 0.26474,1.30359 1.20332,2.0336 0.86238,0.67787 1.34771,0.42918 2.05767,1.10304 0.44522,0.42116 1.091,1.3076 0.85034,1.94937 -0.4372,1.17123 -3.54176,0.80221 -3.57785,1.29958 -0.0241,0.34094 1.40387,0.99474 2.59915,1.3076 0.42117,0.11232 0.75809,0.16446 0.8303,0.4011 0.16846,0.52145 -1.30359,1.10706 -1.20333,1.66459 0.10028,0.55754 2.00553,1.14315 2.97219,0.4011 0.91452,-0.68588 0.32089,-1.9253 1.33569,-2.85185 0.82628,-0.75808 2.16597,-0.8022 2.37053,-0.45325 0.26472,0.46528 -1.54425,1.39986 -1.4159,2.87191 0.044,0.48534 0.30885,1.17123 0.80221,1.30359 1.04689,0.29683 2.12987,-2.31035 3.16472,-2.02959 0.54149,0.14841 0.83429,1.0148 0.85837,1.60443 0.0521,1.2354 -0.99876,1.74079 -0.77815,2.40662 0.24468,0.726 1.86113,1.10706 3.04439,0.71398 1.63249,-0.53748 2.10179,-2.71147 2.61119,-4.86541 a 11.840626,11.840626 0 0 0 0.27677,-5.0058 c -0.32089,-1.82502 -1.28354,-4.52045 -2.33043,-4.49638 -0.59765,0 -1.15518,0.91852 -2.26625,2.73152 -0.66182,1.07497 -0.86236,1.60443 -1.1311,1.57233 -0.40112,-0.0642 -0.69392,-1.39986 -0.50138,-2.60718 0.16043,-1.01078 0.52143,-1.07496 0.56956,-1.85712 0.0802,-1.29958 -0.80221,-2.8679 -1.89723,-2.94812 a 1.8370619,1.8370619 0 0 0 -1.27953,0.53347 c -0.6578,0.6538 -0.4011,1.46003 -0.8022,1.58036 -0.40111,0.12038 -1.35173,-0.70596 -1.54025,-1.71272 -0.18852,-1.00678 0.4011,-1.3437 0.12835,-2.00553 -0.31687,-0.72199 -1.42793,-1.20331 -2.00552,-0.86639 -0.75808,0.4011 -0.4011,2.06169 -0.91051,2.18201 -0.41715,0.10028 -0.80221,-1.00276 -1.35573,-0.92654 z"
           id="path1279"
           inkscape:connector-curvature="0"
           style="fill:#58595b;stroke-width:0.40110523" />
        <path
           class="cls-3"
           d="m 318.35003,599.53705 c -6.54204,-8.72806 -2.08575,-20.85748 -2.08575,-20.85748 0,0 6.95115,-9.03289 6.08075,-21.36687 -0.52143,-7.38435 -6.45779,-11.74035 -8.23068,-15.66316 -2.02994,-2.25605 -4.23485,-4.34829 -6.59416,-6.25724 -3.88671,-3.10455 -8.27079,-5.0098 -12.97977,-6.22916 -9.71879,5.49112 -30.27542,16.56163 -38.72671,73.21373 -1.46404,9.799 -2.47082,21.25858 -3.16071,31.98413 -0.61771,2.56708 -1.20332,4.81326 -1.7408,6.31741 -0.96669,2.60288 -2.35574,5.02865 -4.11133,7.17979 v 0.0561 c -2.80774,2.30636 -6.23318,3.81051 -9.43801,5.53526 -4.91755,2.64729 -9.62653,5.58739 -14.79677,7.74935 -5.04991,2.11382 -10.28834,3.80248 -15.51073,5.43097 -2.85989,0.89045 -5.84411,1.7769 -8.42322,3.31713 -1.83706,1.09101 -3.54973,2.83868 -3.24489,4.80009 l 57.69092,-0.02 c 0.0201,-0.0602 0.032,0.0652 0.0482,0.001 l 55.03565,-0.0748 c 0,0 35.90293,-40.7739 10.18807,-75.11652 z"
           id="path1281"
           inkscape:connector-curvature="0"
           style="fill:#393a35;stroke-width:0.40110523"
           sodipodi:nodetypes="cccccccccccccccccccc" />
        <path
           class="cls-2"
           d="m 285.51956,609.60078 c -13.67769,0.37704 -31.73941,31.79045 -31.97205,65.14636 16.03624,0 60.16578,0 60.16578,0 0,0 6.31736,-12.56951 -11.96903,-12.33687 6.70649,-12.02912 17.59248,-53.74407 -16.2247,-52.80949 z"
           id="path1283"
           inkscape:connector-curvature="0"
           style="fill:#58595b;stroke-width:0.40110523"
           sodipodi:nodetypes="ccccc" />
        <path
           class="cls-3"
           d="m 289.26588,560.47341 c 11.21089,-1.83305 32.16463,-3.97897 32.97086,-4.03513 -1.48009,-11.44754 -15.51877,-13.89428 -2.45477,-23.30019 4.21561,-3.03236 -8.29084,-22.26535 -8.29084,-22.26535 0,0 -8.24272,4.41215 -15.41849,16.21267 -3.02835,4.9697 -18.10188,8.98075 -28.66298,34.35466 7.01131,1.71272 14.96523,0.16044 21.85622,-0.96666 z"
           id="path1285"
           inkscape:connector-curvature="0"
           style="fill:#393a35;stroke-width:0.40110523" />
        <path
           class="cls-4"
           d="m 316.29235,518.7344 c 0,0 -7.90177,0.0241 -8.1304,9.54229 -0.0922,3.78643 1.12309,9.53828 6.173,12.96773 -0.74605,-3.0524 2.6834,-5.84811 2.6834,-5.84811 z"
           id="path1287"
           inkscape:connector-curvature="0"
           style="opacity:0.43999999;stroke-width:0.40110523" />
        <path
           class="cls-5"
           d="m 328.56617,523.65996 c 0.49737,0.49337 2.52696,-1.65255 7.21989,-2.96015 3.05242,-0.85435 4.01105,-0.44924 6.891,-1.54827 2.65531,-1.01078 2.68339,-1.66458 4.66484,-2.48684 4.98976,-2.07371 7.58892,0.90649 12.03317,-0.6137 4.11534,-1.40387 3.01631,-4.33193 7.32017,-6.35751 5.3387,-2.51493 8.57162,1.27551 13.83812,-1.20333 4.09528,-1.93332 3.13665,-4.69693 7.55282,-6.66636 3.06444,-1.37177 6.07274,-1.17524 11.12666,-0.85034 6.41768,0.4011 7.45254,1.64052 9.78295,0.6177 3.92281,-1.72075 2.66735,-5.9524 6.12889,-8.0221 5.69971,-3.40939 14.03868,5.08602 18.98432,2.00553 4.07923,-2.53499 8.98655,-9.78444 9.36675,-18.55992 0.36636,-8.45595 -7.85953,-22.11824 -20.26678,-12.49653 -5.33268,4.13544 -1.61806,3.63129 -11.3696,9.61614 -10.47652,6.4298 -7.42773,3.03759 -16.85418,7.21711 -4.55656,2.00552 -7.95792,3.56984 -11.17078,6.93511 -2.35048,2.46278 -1.67662,2.83982 -3.40539,4.54853 -6.34949,6.28933 -15.46661,1.23541 -21.84419,7.02336 -3.38934,3.07648 -2.80773,6.32142 -7.12362,8.21062 -2.52698,1.11106 -3.90276,0.50941 -6.20109,2.09779 -2.94011,2.02558 -2.07773,3.9589 -4.81326,5.75184 -2.73555,1.79294 -4.41217,0.38105 -7.64507,2.22614 -3.05642,1.7769 -4.7531,4.9777 -4.21562,5.51518 z"
           id="path1289"
           inkscape:connector-curvature="0"
           style="opacity:0.43999999;fill:#ffffff;stroke-width:0.40110523"
           sodipodi:nodetypes="ccccccccccccsssccccccccc" />
        <path
           class="cls-5"
           d="m 327.3428,523.37519 c 0.4011,-0.16445 -0.44122,0.96665 5.73981,-0.65781 6.72654,-1.76888 10.886,-3.17275 14.84091,-4.51245 5.97245,-2.00552 6.64229,-4.11934 13.05997,-6.20108 3.12863,-1.01881 3.81452,-0.8022 7.03539,-1.57634 10.89803,-2.65531 11.07853,-7.19583 22.15706,-10.86595 5.17425,-1.71271 8.09028,-1.70068 13.35279,-4.63677 3.3773,-1.88118 2.93208,-2.30635 5.61548,-3.60995 4.90551,-2.37052 7.41642,-1.46402 15.95596,-3.2289 5.39487,-1.11507 8.64573,-1.40104 10.71959,-4.7715 3.72581,-8.87283 -0.79876,-12.63872 -7.5323,-12.06941 -2.81783,0.23824 -4.3144,1.51067 -13.93691,6.2718 -7.982,3.94687 -8.82431,3.56181 -14.68847,6.91103 -5.73179,3.27704 -4.94563,3.65808 -9.70675,6.12489 -6.19306,3.20884 -7.71326,2.65531 -13.55736,5.88821 -5.24244,2.90401 -4.19155,3.43748 -8.88448,5.83609 -7.19583,3.68215 -9.12915,2.1419 -13.3207,5.57938 -2.74757,2.2502 -3.40539,4.13539 -6.87495,5.59541 -2.23015,0.9426 -2.53498,0.40111 -5.45101,1.4159 -2.36252,0.80222 -5.84411,1.06293 -11.08656,4.21963 -4.67287,2.82378 -5.88822,5.28256 -3.43747,4.28782 z"
           id="path1291"
           inkscape:connector-curvature="0"
           style="opacity:0.43999999;fill:#ffffff;stroke-width:0.40110523"
           sodipodi:nodetypes="ccccccccccscccccccccc" />
        <path
           class="cls-2"
           d="m 337.67528,522.02747 c -0.19254,0 -0.36902,1.35975 -0.67387,1.35173 -0.30484,-0.008 -0.36098,-1.08299 -0.61369,-1.08299 -0.25269,0 -0.36099,1.43596 -0.8022,1.49613 -0.44122,0.0602 -0.77013,-1.13112 -1.07496,-1.06294 -0.30485,0.0683 -0.19254,1.51619 -0.42919,1.55228 -0.23666,0.0361 -0.46529,-1.20332 -0.80221,-1.20332 -0.33693,0 -0.53748,1.56833 -0.82227,1.5563 -0.28479,-0.0115 -0.30885,-1.27953 -0.59765,-1.29958 -0.28879,-0.0201 -0.60967,1.43996 -0.83028,1.40387 -0.22062,-0.0361 -0.0762,-1.15118 -0.32088,-1.20333 -0.30484,-0.0681 -0.87041,1.60443 -1.10706,1.55228 -0.23664,-0.0521 0.0561,-1.46805 -0.14039,-1.51618 -0.19653,-0.0482 -0.63373,1.38382 -0.93056,1.32766 -0.29681,-0.0561 -0.17247,-1.091 -0.4011,-1.1271 -0.22863,-0.0361 -0.60969,1.14315 -0.80221,1.09903 -0.19253,-0.0441 0.0361,-1.09101 -0.23665,-1.20332 -0.27276,-0.11231 -1.11507,1.20332 -1.24344,1.14716 -0.12835,-0.0561 0.54151,-1.20331 0.40112,-1.31161 -0.14039,-0.10835 -1.46805,0.76611 -1.38382,1.50415 0.16847,1.41188 5.48712,2.59915 9.73082,1.06693 0.8022,-0.2888 2.9401,-1.05891 3.27702,-2.63125 0.13237,-0.66583 -0.0562,-1.4159 -0.19653,-1.4159 z"
           id="path1293"
           inkscape:connector-curvature="0"
           style="fill:#58595b;stroke-width:0.40110523" />
        <path
           class="cls-2"
           d="m 336.90514,515.69402 c -0.13236,0.16045 -1.33968,-0.73001 -1.56029,-0.48935 -0.22061,0.24067 0.57359,1.09502 0.4011,1.29557 -0.17247,0.20056 -1.39183,-0.80221 -1.76486,-0.49737 -0.37302,0.30485 0.30886,1.452 0.0281,1.63651 -0.28077,0.18451 -1.33166,-0.9827 -1.53623,-0.82628 -0.20456,0.15644 0.60968,1.27552 0.34496,1.53222 -0.26474,0.25672 -1.60443,-0.75407 -1.83306,-0.52143 -0.22863,0.23264 0.77012,1.20331 0.56958,1.43997 -0.20056,0.23665 -1.57636,-0.60166 -1.71675,-0.40111 -0.14037,0.20055 0.84233,0.92254 0.70194,1.15117 -0.17247,0.29281 -1.91327,-0.52544 -2.03761,-0.2928 -0.12435,0.23264 1.20331,1.0549 1.07897,1.24342 -0.12435,0.18852 -1.55628,-0.53748 -1.73277,-0.26473 -0.17648,0.27275 0.71798,0.95062 0.56957,1.16722 -0.14841,0.21659 -1.35173,-0.37704 -1.46003,-0.19654 -0.10834,0.1805 0.88244,0.80221 0.7621,1.08299 -0.12038,0.28076 -1.78893,-0.0401 -1.82502,0.11231 -0.0361,0.15242 1.3437,0.47331 1.31562,0.68188 -0.0281,0.20858 -1.70069,0.5776 -2.21009,-0.0401 -0.98271,-1.20331 2.06569,-6.23719 6.43774,-8.42322 0.80221,-0.4011 3.02834,-1.50413 4.50842,-0.59362 0.58963,0.38505 1.05491,1.08297 0.95864,1.20331 z"
           id="path1295"
           inkscape:connector-curvature="0"
           style="fill:#58595b;stroke-width:0.40110523" />
        <path
           class="cls-3"
           d="m 308.00552,513.07881 c 6.47785,-5.77992 13.26455,-7.17577 16.74213,-3.72226 3.47758,3.45352 9.08103,1.72476 9.08103,1.72476 l 3.03637,3.51769 c 0,0 -9.49016,4.84535 -10.98628,9.17729 3.7022,1.70871 8.50744,0.28078 12.21766,-1.43595 l 0.51743,3.52571 c 0,0 -20.71307,15.79954 -26.47295,9.2896 -1.22337,-1.3798 -4.33595,-7.621 -6.08075,-12.93564 -1.31964,-3.991 -1.31964,-6.20912 1.94536,-9.1412 z"
           id="path1297"
           inkscape:connector-curvature="0"
           style="fill:#393a35;stroke-width:0.40110523" />
        <path
           class="cls-6"
           d="m 314.15044,519.26386 c 0.76613,1.11105 2.66334,0.91452 3.78645,0.36099 1.27952,-0.63776 2.4347,-2.18603 2.00552,-3.31313 -0.48935,-1.31963 -1.70871,-0.28078 -3.65006,0.21259 -1.36376,0.34495 -2.90802,1.63249 -2.14191,2.73955 z"
           id="path1299"
           inkscape:connector-curvature="0"
           style="fill:#ffffff;stroke-width:0.40110523" />
        <path
           class="cls-3"
           d="m 315.45003,515.71808 c -0.4011,0.31687 0.15242,1.87317 0.80221,2.67939 0.57358,0.69391 1.8491,1.66458 2.23415,1.37579 0.38507,-0.2888 0,-1.89722 -0.68588,-2.72752 -0.5816,-0.70995 -1.97343,-1.62848 -2.35048,-1.32766 z"
           id="path1301"
           inkscape:connector-curvature="0"
           style="fill:#393a35;stroke-width:0.40110523" />
        <path
           class="cls-2"
           d="m 306.1484,519.30798 c -1.34771,-0.23264 -2.91604,2.00553 -2.40663,3.06043 0.50941,1.05491 3.11257,1.24743 3.82253,0.0361 0.59765,-1.03084 -0.30484,-2.90802 -1.4159,-3.09654 z"
           id="path1303"
           inkscape:connector-curvature="0"
           style="fill:#58595b;stroke-width:0.40110523" />
        <g
           id="g8046">
          <path
             style="fill:#58595b;stroke-width:0.40110523"
             inkscape:connector-curvature="0"
             id="path1305"
             d="m 291.56299,550.41647 c -4.11935,1.31163 -4.61672,10.4488 0,16.31697 4.61673,5.86817 11.40343,8.25875 15.90383,5.08602 4.5004,-3.17275 6.534,-8.98076 5.93635,-12.31795 -0.59764,-3.3372 -5.29859,-3.54577 -5.55531,-0.76611 -0.2567,2.77966 -1.37979,7.27204 -5.06595,6.81879 -3.68616,-0.45325 2.33042,-19.45361 -11.21892,-15.13772 z"
             class="cls-2" />
          <path
             style="fill:#58595b;stroke-width:0.40110523"
             inkscape:connector-curvature="0"
             id="path1307"
             d="m 306.41993,560.64466 c -2.59113,-1.57634 -4.18753,-5.05794 -3.18477,-7.34423 0.3289,-0.74205 1.07897,-1.69668 1.7809,-1.60443 1.38782,0.1805 1.26348,4.24771 2.52295,4.41217 0.98672,0.13636 2.55505,-2.13389 2.94813,-4.44425 0.33692,-1.96541 -0.30484,-3.20885 0.48132,-3.83056 a 1.9333272,1.9333272 0 0 1 2.40664,0.24868 c 0.6899,0.80221 0.12039,2.38258 -1.0509,5.5152 a 25.738922,25.738922 0 0 1 -0.99073,2.53499 c -0.11231,-0.0361 0.54149,-5.12612 3.38133,-6.25724 0.77813,-0.31287 1.84908,-0.37303 2.17398,0.0922 0.44923,0.64176 -0.58562,2.14189 -2.40664,4.77314 -0.16846,0.23665 -1.75283,2.5029 -1.77287,2.48686 -0.0201,-0.016 2.6152,-5.10607 4.52045,-4.69694 0.73402,0.15642 1.17924,1.09099 1.25546,1.76886 0.1805,1.60443 -3.24895,1.60443 -4.38007,4.21161 -0.45726,1.05491 -0.0802,1.37981 -0.5816,2.0336 -1.21936,1.56832 -4.72503,1.56832 -7.10358,0.10028 z"
             class="cls-2" />
          <path
             style="fill:#58595b;stroke-width:0.40110523"
             inkscape:connector-curvature="0"
             id="path1309"
             d="m 312.35629,548.27056 a 2.7074603,2.7074603 0 0 0 -0.56957,-1.89321 c -0.31687,-0.40111 -0.93859,-0.80221 -1.47205,-0.65781 a 0.13236472,0.13236472 0 0 0 -0.0521,0.22061 2.3023441,2.3023441 0 0 1 0.56555,1.04687 3.4976376,3.4976376 0 0 1 0.0963,1.13513 0.72198941,0.72198941 0 1 0 1.43194,0.14841 z"
             class="cls-2" />
          <path
             style="fill:#58595b;stroke-width:0.40110523"
             inkscape:connector-curvature="0"
             id="path1311"
             d="m 316.55587,549.14097 a 2.2742667,2.2742667 0 0 0 -0.68991,-1.78493 0.11632052,0.11632052 0 0 0 -0.19654,0.0843 6.0887774,6.0887774 0 0 1 -0.028,1.88922 c -0.15242,0.58961 -0.47732,1.12709 -0.37303,1.74079 a 0.49737048,0.49737048 0 0 0 0.83028,0.20056 c 0.42117,-0.55353 0.46529,-1.44398 0.45728,-2.12987 z"
             class="cls-2" />
          <path
             style="fill:#58595b;stroke-width:0.40110523"
             inkscape:connector-curvature="0"
             id="path1313"
             d="m 319.79679,550.84165 a 0.36901681,0.36901681 0 0 0 -0.57357,-0.0642 c -0.4332,0.52544 -0.45726,1.20331 -1.00678,1.66859 -0.54952,0.46529 -1.09903,0.80221 -1.60443,1.27552 -0.50538,0.4733 0.29282,1.28353 0.80222,0.77814 0.5816,-0.56556 1.33969,-0.94661 1.87717,-1.55628 0.49336,-0.5415 0.89446,-1.41992 0.50539,-2.1018 z"
             class="cls-2" />
          <path
             style="fill:#58595b;stroke-width:0.40110523"
             inkscape:connector-curvature="0"
             id="path1315"
             d="m 304.7353,551.25078 a 1.6966751,1.6966751 0 0 1 0.22059,-0.86238 c 0.0963,-0.15241 0.23666,-0.25269 0.33694,-0.4011 0.10028,-0.14842 0.14841,-0.40111 0.2888,-0.52545 a 0.06818789,0.06818789 0 0 0 -0.0521,-0.11232 c -0.24066,0 -0.44522,-0.14842 -0.68588,-0.10028 a 1.7046972,1.7046972 0 0 0 -0.62975,0.4011 2.5590514,2.5590514 0 0 0 -0.8022,1.20331 c -0.27677,0.89448 -0.0602,2.35851 0.97068,2.65132 a 0.48533732,0.48533732 0 0 0 0.57759,-0.35297 c 0.11629,-0.66585 -0.26473,-1.25947 -0.22462,-1.90124 z"
             class="cls-2" />
        </g>
        <path
           class="cls-2"
           d="m 340.41081,670.74526 c -1.36376,-1.00277 -3.2329,-2.00553 -4.92557,-1.20331 -0.90249,0.4011 -0.91051,1.98547 0,2.40662 1.05491,0.4693 2.27427,0.34496 3.40137,0.42518 a 2.5831177,2.5831177 0 0 1 1.31162,0.4011 c 0.38104,0.28078 0.43319,0.6498 0.60566,1.06293 a 0.33692839,0.33692839 0 0 0 0.48935,0.20055 c 1.35172,-0.95463 0.004,-2.63125 -0.88243,-3.29307 z"
           id="path1317"
           inkscape:connector-curvature="0"
           style="fill:#58595b;stroke-width:0.40110523" />
        <path
           class="cls-2"
           d="m 343.0581,669.61013 c -1.65255,-1.41189 -5.75585,-2.34647 -7.59291,-0.93457 -0.70595,0.5455 -0.9025,1.66057 0,2.16597 1.52821,0.85836 3.45351,0.0481 5.14217,0.46928 a 4.4763343,4.4763343 0 0 1 1.93332,0.91854 c 0.50941,0.48934 0.55753,1.20331 0.95463,1.7448 a 0.12835367,0.12835367 0 0 0 0.19654,0.0241 c 1.05491,-1.2715 0.53348,-3.38934 -0.63375,-4.38809 z"
           id="path1319"
           inkscape:connector-curvature="0"
           style="fill:#58595b;stroke-width:0.40110523" />
      </g>
    </g>
  </g>
</svg>
