<svg id="Layer_7" data-name="Layer 7" xmlns="http://www.w3.org/2000/svg" viewBox="0 0 350 350"><defs><style>.cls-1{fill:#a0a2a5;}.cls-2,.cls-3{fill:#393a35;}.cls-2{opacity:0.44;}.cls-4{fill:#d6d7d9;}.cls-5{fill:#dadbdc;}.cls-6{fill:#fff;}.cls-7{fill:#58595b;}.cls-8{fill:#af97c7;}.cls-9{fill:#7a478b;}</style></defs><title>tails_5.1_activist</title><path class="cls-1" d="M83.7,210.81s-47.11-5.69-59.95,45.41A595.39,595.39,0,0,0,8,350.2H111l-7.68-139.39Z"/><path class="cls-2" d="M104.43,220.79C84,224.19,48.88,234,43,286.37s-6.37,63.83-6.37,63.83H111Z"/><polygon class="cls-3" points="106.9 154.31 128.01 244.94 180.34 238.03 187.71 162.71 106.9 154.31"/><polygon class="cls-4" points="127.69 172.07 124.99 207.19 99.63 224.42 195.98 224.26 169.69 204.34 171.42 174.43 127.69 172.07"/><polygon class="cls-2" points="127.69 172.07 126.4 188.88 137.11 200.16 169.75 203.27 171.42 174.43 127.69 172.07"/><path class="cls-5" d="M131.09,48.08c14.76-2.58,58.83-8.25,62.92,49.2,3.6,50.6-3.2,89.38-3.2,89.38s-14.44,1.67-24.17,2.13-26.29.87-26.29.87S107.48,165,95.59,114.57s-7.83-44.43-7.83-44.43S102.3,53.12,131.09,48.08Z"/><polygon class="cls-1" points="159.77 101.36 171.99 139.72 150.47 141.2 159.77 101.36"/><path class="cls-3" d="M170.89,151.37c-2.91-1.41-6.12-1.16-9.29-1.17-3.63,0-7.37,0-11,.25-1,.07-2.11.86-2,2a3,3,0,0,0,.27,1,1.91,1.91,0,0,0,1.72,1c3.16-.25,6.4-.24,9.58-.38,1.57-.06,3.15,0,4.72-.21s3.49-1,5.19-.6C171.18,153.49,172,151.91,170.89,151.37Z"/><path class="cls-6" d="M111.16,102.76s17.06-4.21,26.94-3,11.11,8,11.11,8a20.21,20.21,0,0,0-6-.54c-3.22.21-17.2,3.69-22.38,3.34S111.16,102.76,111.16,102.76Z"/><path class="cls-3" d="M137.26,103.06a6.17,6.17,0,0,0-2-3.43,42.89,42.89,0,0,0-8.4.36c-2.22,2.47-2.67,7.49-.37,10.08,0,.05.09.08.12.12,3-.43,6.51-1.1,9.54-1.69A7.64,7.64,0,0,0,137.26,103.06Z"/><path class="cls-6" d="M193.53,89.81c-3.88.81-8.33,2.67-12.15,3.71-9.95,2.72-11.13,11.26-11.13,11.26a8.89,8.89,0,0,1,5.25-2.2c3.1-.26,13.69-2.47,19.41-3.57A84.16,84.16,0,0,0,193.53,89.81Z"/><path class="cls-3" d="M179.28,94.24a7.89,7.89,0,0,0-.33,5.67,5.67,5.67,0,0,0,1.05,2c2.66-.33,6.22-1.17,9.28-1.63a4.62,4.62,0,0,0,1-3.26c0-.23,0-.45-.07-.68a7,7,0,0,0-1.34-3.7,13.59,13.59,0,0,0-1.15-1.13c-2.29.52-4.17,1.44-6.3,2A20.61,20.61,0,0,0,179.28,94.24Z"/><path class="cls-3" d="M139.73,88.58c-4.19-.45-8.81.81-13.07,1-3.8.14-8.06-.59-11.42,1.56a1.59,1.59,0,0,0,1.06,3c4.62-.49,9.29.23,13.94.14,3.5-.06,8,.51,10.83-1.82C142.63,91.13,141.51,88.77,139.73,88.58Z"/><path class="cls-3" d="M190.24,81.11c-4.23-.83-8.45,1.1-12.57,1.87-2.86.53-7.22.7-8.48,3.77a2.16,2.16,0,0,0,2.09,3.06c1.37,0,2.44-.67,3.72-1.1,1.71-.57,3.49-.84,5.22-1.33a53.31,53.31,0,0,0,10.45-4.26C191.55,82.65,191.11,81.28,190.24,81.11Z"/><path class="cls-3" d="M140.25,41.3c-8.1-4.7-18.55.33-24.74,6.3a31.09,31.09,0,0,0-7.92,13.6c-.94,3.08-1.24,6.38-2.3,9.41-1.18,3.35-3.53,6-4.4,9.51a1.73,1.73,0,0,0,2.87,1.68C111.49,75,110.2,64.56,115,56.24A24.62,24.62,0,0,1,124.8,47c3.86-2.13,10.11-5,14.62-3.73A1.09,1.09,0,0,0,140.25,41.3Z"/><path class="cls-3" d="M128.77,41.68c-10.12-3.32-23,5.84-28.84,13.38a36.38,36.38,0,0,0-7,17c-.71,4.7-2.06,12.49,2.83,15.28a1.3,1.3,0,0,0,1.89-.76c.77-4.39-.49-9,.15-13.52a31.66,31.66,0,0,1,6-15,37.11,37.11,0,0,1,11.53-9.61c3-1.62,9.17-5.09,12.71-4.24A1.32,1.32,0,0,0,128.77,41.68Z"/><path class="cls-3" d="M126.54,41.27c-14.72-1-28.66,4.78-36.75,17.56-3.7,5.85-5.3,12.55-5.71,19.41-.3,5.21-.88,13.32,4.27,16.4,1.29.77,2.48-.5,2.3-1.78-.79-5.47-1.92-10.32-1.46-15.94a33.74,33.74,0,0,1,5.31-16.2c7-10.53,19.81-15.63,32-17A1.21,1.21,0,0,0,126.54,41.27Z"/><path class="cls-3" d="M107.92,218.79a176,176,0,0,0-48.45,35.65C36.91,278.23,15.52,350.2,15.52,350.2H44.68s12.63-37.86,33.11-63.52c-6.28,28.38-15,63.52-15,63.52H181.25L196,224.26Z"/><path class="cls-6" d="M99.18,223.42s-1.12,48.25-26.2,84.4c4.19-21.71,11.73-75.11,11.73-75.11Z"/><path class="cls-7" d="M140.78,51.61c.2.68,1.56,20.24,3.78,24.12-5.8,2-43,12.3-43,12.3l5.81-22.76Z"/><path class="cls-7" d="M142.46,51.61l6.68,22.88,41-4.67L179,53.83a18.87,18.87,0,0,0-13.21-7.23C157,45.8,142.46,51.61,142.46,51.61Z"/><path class="cls-3" d="M101.63,114.33c3.74,25.25,16,63.11,40.08,90.88,9.52,9.91,17.21,28.75,17.21,28.75s13.06-18.48,16.33-29.25,3.46-16.81,3.46-16.81l8-.92,2.44,33.59L157.68,272l-58.5-48.53a74.8,74.8,0,0,0-2.2-43c-8.25-23.11-25.72-52.73-34.46-69.59-8.29-16-17.15-37.05,13.87-59,27.54-19.49,51.62-23.39,80-19.52S185.22,63,185.22,63s-9.13-13.49-35.44-11.13S96.25,78,101.63,114.33Z"/><path class="cls-3" d="M190,215.51l77.07-56.87,2.39,26.86s-53.95,55.58-68.79,68.55a56.79,56.79,0,0,0-14,18.37Z"/><path class="cls-8" d="M241.37,25.88s37.66-3.09,62.31-8.3S342,11.78,342,11.78a543.85,543.85,0,0,1-8.37,76.78c-7.57,41.21-1.41,117.36-1.41,117.36s-25,4.77-43.11,3.52-44.49,1.79-60.46,7.29c-4.23-20.4,5.89-70.53,7.6-102.48S241.37,25.88,241.37,25.88Z"/><path class="cls-6" d="M195.55,211.41s-1.69,47-8.31,87.59c-12.53-47.88,1.89-83.91,1.89-83.91Z"/><polygon class="cls-9" points="270.66 51.8 309.11 46.23 292.88 142.48 270.66 144.94 270.66 51.8"/><path class="cls-9" d="M276,160.16c12.39.3,17.64,5.29,17.29,13.05s-9.18,12.7-15.53,12-13.4-5.34-12.34-12.54S269.69,160,276,160.16Z"/><polygon class="cls-2" points="287.68 20.57 285.06 31.2 283.99 21.16 287.68 20.57"/><path class="cls-5" d="M287.68,20.56s-4.2,12.19-2,12.31,20.82-1.29,23.4-2.47,4.71-12.82,4.47-15.88-1.88-3.64-4.47-3.52-16.81,1.41-19.22,2.94-6.28,7.28-6.28,7.28Z"/><path class="cls-7" d="M291.52,32.59,295,19.75a1.07,1.07,0,1,0-2.06-.55l-3.67,13.54Z"/><path class="cls-7" d="M298.61,32,302,18a1.07,1.07,0,0,0-.79-1.29,1.08,1.08,0,0,0-1.29.79L296.36,32.2Z"/><path class="cls-7" d="M305.36,31.2,309.08,17a1.07,1.07,0,0,0-2.07-.54l-3.94,15.1C303.68,31.44,305.36,31.2,305.36,31.2Z"/><path class="cls-1" d="M155.42,285.5a1,1,0,0,1-1-.8c-2-9.93,1.21-22.26,4.65-33,2.49-7.77-3.49-20.14-3.55-20.26a1,1,0,1,1,1.79-.88c.27.54,6.4,13.21,3.66,21.75-3.36,10.5-6.53,22.52-4.59,32a1,1,0,0,1-.78,1.17Z"/><path class="cls-1" d="M173.8,276.56a1,1,0,0,1-.66-.25,26.45,26.45,0,0,1-7.73-23.72,32.72,32.72,0,0,0-3.58-21.07,1,1,0,0,1,.33-1.38,1,1,0,0,1,1.37.32A34.19,34.19,0,0,1,167.38,253c-2.4,13.35,7,21.77,7.08,21.86a1,1,0,0,1-.66,1.75Z"/></svg>