<svg id="Layer_7" data-name="Layer 7" xmlns="http://www.w3.org/2000/svg" viewBox="0 0 350 350"><defs><style>.cls-1{fill:#a0a2a5;}.cls-2,.cls-3{fill:#393a35;}.cls-2{opacity:0.44;}.cls-4{fill:#d6d7d9;}.cls-5{fill:#dadbdc;}.cls-6{fill:#fff;}.cls-7{fill:#58595b;}.cls-8{fill:#af97c7;}.cls-9{fill:#7a478b;}</style></defs><title>tails_5.1_activist_a</title><path class="cls-1" d="M88.85,210.81s-47.11-5.69-59.94,45.41a595.39,595.39,0,0,0-15.74,94h103l-7.69-139.39Z"/><path class="cls-2" d="M109.59,220.79C89.14,224.19,54,234,48.11,286.37s-6.37,63.83-6.37,63.83h74.38Z"/><polygon class="cls-3" points="112.06 154.31 133.17 244.94 185.5 238.03 192.87 162.71 112.06 154.31"/><polygon class="cls-4" points="132.85 172.07 130.15 207.19 104.79 224.42 201.14 224.26 174.85 204.34 176.57 174.43 132.85 172.07"/><polygon class="cls-2" points="132.85 172.07 131.56 188.88 142.27 200.16 174.91 203.27 176.57 174.43 132.85 172.07"/><path class="cls-5" d="M136.25,48.08c14.75-2.58,58.83-8.25,62.92,49.2,3.6,50.6-3.2,89.38-3.2,89.38s-14.44,1.67-24.17,2.13-26.29.87-26.29.87-32.88-24.7-44.76-75.09-7.84-44.43-7.84-44.43S107.46,53.12,136.25,48.08Z"/><polygon class="cls-1" points="164.93 101.36 177.15 139.72 155.62 141.2 164.93 101.36"/><path class="cls-3" d="M176.05,151.37c-2.91-1.41-6.12-1.16-9.29-1.17-3.64,0-7.37,0-11,.25-1,.07-2.12.86-2,2a3.22,3.22,0,0,0,.27,1,1.93,1.93,0,0,0,1.73,1c3.16-.25,6.4-.24,9.57-.38,1.58-.06,3.16,0,4.72-.21s3.5-1,5.2-.6C176.33,153.49,177.15,151.91,176.05,151.37Z"/><path class="cls-6" d="M116.32,102.76s17.06-4.21,26.94-3,11.1,8,11.1,8a20.17,20.17,0,0,0-6-.54c-3.22.21-17.2,3.69-22.39,3.34S116.32,102.76,116.32,102.76Z"/><path class="cls-3" d="M142.42,103.06a6.19,6.19,0,0,0-2-3.43,42.79,42.79,0,0,0-8.39.36c-2.23,2.47-2.68,7.49-.37,10.08a1.36,1.36,0,0,0,.12.12c3-.43,6.51-1.1,9.54-1.69A7.69,7.69,0,0,0,142.42,103.06Z"/><path class="cls-6" d="M198.69,89.81c-3.88.81-8.33,2.67-12.15,3.71-10,2.72-11.14,11.26-11.14,11.26a8.93,8.93,0,0,1,5.25-2.2c3.11-.26,13.7-2.47,19.42-3.57A84.16,84.16,0,0,0,198.69,89.81Z"/><path class="cls-3" d="M184.44,94.24a7.89,7.89,0,0,0-.34,5.67,5.69,5.69,0,0,0,1.06,2c2.66-.33,6.22-1.17,9.27-1.63a4.58,4.58,0,0,0,1-3.26c0-.23,0-.45-.08-.68a6.88,6.88,0,0,0-1.34-3.7,11.15,11.15,0,0,0-1.15-1.13c-2.28.52-4.16,1.44-6.29,2A19.8,19.8,0,0,0,184.44,94.24Z"/><path class="cls-3" d="M144.89,88.58c-4.19-.45-8.81.81-13.07,1-3.8.14-8.06-.59-11.43,1.56a1.59,1.59,0,0,0,1.06,3c4.62-.49,9.3.23,14,.14,3.5-.06,8,.51,10.83-1.82C147.78,91.13,146.67,88.77,144.89,88.58Z"/><path class="cls-3" d="M195.4,81.11c-4.23-.83-8.45,1.1-12.57,1.87-2.86.53-7.22.7-8.48,3.77a2.16,2.16,0,0,0,2.08,3.06c1.38,0,2.44-.67,3.73-1.1,1.7-.57,3.49-.84,5.21-1.33a53.31,53.31,0,0,0,10.45-4.26C196.71,82.65,196.27,81.28,195.4,81.11Z"/><path class="cls-3" d="M145.41,41.3c-8.1-4.7-18.56.33-24.74,6.3a31.11,31.11,0,0,0-7.93,13.6c-.93,3.08-1.23,6.38-2.3,9.41-1.17,3.35-3.52,6-4.4,9.51a1.74,1.74,0,0,0,2.88,1.68c7.73-6.78,6.43-17.24,11.26-25.56A24.72,24.72,0,0,1,130,47c3.86-2.13,10.1-5,14.62-3.73A1.09,1.09,0,0,0,145.41,41.3Z"/><path class="cls-3" d="M133.92,41.68c-10.12-3.32-23,5.84-28.84,13.38a36.48,36.48,0,0,0-7,17c-.7,4.7-2,12.49,2.84,15.28a1.3,1.3,0,0,0,1.89-.76c.76-4.39-.49-9,.15-13.52a31.56,31.56,0,0,1,6-15,37.07,37.07,0,0,1,11.52-9.61c3-1.62,9.17-5.09,12.71-4.24A1.32,1.32,0,0,0,133.92,41.68Z"/><path class="cls-3" d="M131.69,41.27C117,40.27,103,46.05,95,58.83c-3.7,5.85-5.3,12.55-5.71,19.41-.31,5.21-.88,13.32,4.26,16.4a1.6,1.6,0,0,0,2.31-1.78c-.79-5.47-1.92-10.32-1.46-15.94a33.74,33.74,0,0,1,5.31-16.2c7-10.53,19.8-15.63,32-17A1.21,1.21,0,0,0,131.69,41.27Z"/><path class="cls-3" d="M113.07,218.79a176.09,176.09,0,0,0-48.44,35.65C42.06,278.23,20.68,350.2,20.68,350.2H49.84s12.63-37.86,33.1-63.52c-6.27,28.38-15,63.52-15,63.52H186.4l14.74-125.94Z"/><path class="cls-6" d="M104.34,223.42s-1.12,48.25-26.21,84.4c4.2-21.71,11.74-75.11,11.74-75.11Z"/><path class="cls-7" d="M145.93,51.61c.21.68,1.57,20.24,3.79,24.12-5.8,2-43,12.3-43,12.3l5.8-22.76Z"/><path class="cls-7" d="M147.61,51.61l6.68,22.88,41-4.67-11.07-16A18.87,18.87,0,0,0,171,46.6C162.19,45.8,147.61,51.61,147.61,51.61Z"/><path class="cls-3" d="M106.79,114.33c3.74,25.25,16,63.11,40.08,90.88,9.52,9.91,17.21,28.75,17.21,28.75s13-18.48,16.32-29.25,3.46-16.81,3.46-16.81l8-.92,2.44,33.59L162.84,272l-58.5-48.53a74.75,74.75,0,0,0-2.21-43c-8.25-23.11-25.71-52.73-34.45-69.59-8.3-16-17.15-37.05,13.86-59,27.54-19.49,51.63-23.39,80-19.52S190.38,63,190.38,63s-9.13-13.49-35.44-11.13S101.41,78,106.79,114.33Z"/><path class="cls-3" d="M195.15,215.51l77.06-56.87,2.39,26.86s-54,55.58-68.78,68.55a56.61,56.61,0,0,0-14,18.37Z"/><path class="cls-8" d="M246.53,25.88s37.66-3.09,62.3-8.3,38.31-5.8,38.31-5.8a542.88,542.88,0,0,1-8.36,76.78c-7.57,41.21-1.42,117.36-1.42,117.36s-25,4.77-43.1,3.52-44.49,1.79-60.47,7.29c-4.23-20.4,5.89-70.53,7.61-102.48S246.53,25.88,246.53,25.88Z"/><path class="cls-6" d="M200.71,211.41s-1.69,47-8.32,87.59c-12.52-47.88,1.9-83.91,1.9-83.91Z"/><polygon class="cls-9" points="275.81 51.8 314.27 46.23 298.04 142.48 275.81 144.94 275.81 51.8"/><path class="cls-9" d="M281.11,160.16c12.39.3,17.64,5.29,17.28,13.05s-9.17,12.7-15.52,12-13.41-5.34-12.35-12.54S274.85,160,281.11,160.16Z"/><polygon class="cls-2" points="292.83 20.57 290.22 31.2 289.14 21.16 292.83 20.57"/><path class="cls-5" d="M292.83,20.56s-4.2,12.19-2,12.31,20.81-1.29,23.4-2.47,4.7-12.82,4.47-15.88-1.88-3.64-4.47-3.52S297.45,12.41,295,13.94s-6.27,7.28-6.27,7.28Z"/><path class="cls-7" d="M296.67,32.59l3.48-12.84a1.07,1.07,0,1,0-2.06-.55l-3.68,13.54Z"/><path class="cls-7" d="M303.76,32l3.39-14a1.07,1.07,0,0,0-2.08-.5L301.52,32.2Z"/><path class="cls-7" d="M310.52,31.2,314.23,17a1.06,1.06,0,1,0-2.06-.54l-3.94,15.1C308.83,31.44,310.52,31.2,310.52,31.2Z"/><path class="cls-1" d="M160.57,285.5a1,1,0,0,1-1-.8c-2-9.93,1.21-22.26,4.65-33,2.48-7.77-3.49-20.14-3.55-20.26a1,1,0,1,1,1.79-.88c.26.54,6.39,13.21,3.66,21.75-3.36,10.5-6.53,22.52-4.6,32a1,1,0,0,1-.78,1.17A.64.64,0,0,1,160.57,285.5Z"/><path class="cls-1" d="M179,276.56a1,1,0,0,1-.66-.25,26.42,26.42,0,0,1-7.73-23.72A32.72,32.72,0,0,0,167,231.52a1,1,0,0,1,1.7-1.06A34.19,34.19,0,0,1,172.54,253c-2.4,13.35,7,21.77,7.08,21.86a1,1,0,0,1,.09,1.41A1,1,0,0,1,179,276.56Z"/></svg>