<svg xmlns="http://www.w3.org/2000/svg" viewBox="0 0 440 300"><defs><style>.cls-1{opacity:0.26;}.cls-2{fill:#dadbdc;}.cls-3{fill:#fff;}.cls-4{fill:#58595b;}.cls-10,.cls-5{fill:#393a35;}.cls-5{opacity:0.44;}.cls-6{fill:#a0a2a5;}.cls-7{fill:#c2c4c6;}.cls-8{fill:#b5b7b9;}.cls-9{fill:#d6d7d9;}.cls-11{fill:#9c6bad;}.cls-12,.cls-14{fill:#af97c7;}.cls-13{fill:#7a478b;}.cls-14{opacity:0.66;}.cls-15{fill:#8f4299;}.cls-16{fill:none;}.cls-17,.cls-18{fill:#44bb8b;}.cls-18,.cls-19{opacity:0.22;}</style></defs><title>tails_1.2_camping</title><g id="Layer_6" data-name="Layer 6"><g class="cls-1"><rect class="cls-2" x="130.42" y="171.75" width="15.3" height="105.12"/><polygon class="cls-2" points="95.38 172.14 181.26 171.75 138.32 15.43 95.38 172.14"/></g><g class="cls-1"><rect class="cls-2" x="373.75" y="160.92" width="13.5" height="104.54"/><polygon class="cls-2" points="342.82 161.26 418.61 160.92 380.72 22.94 342.82 161.26"/></g><g class="cls-1"><rect class="cls-2" x="51.06" y="156.23" width="10.54" height="81.56"/><polygon class="cls-2" points="26.93 156.5 86.07 156.23 56.5 48.58 26.93 156.5"/></g><g class="cls-1"><rect class="cls-2" x="323.87" y="182.05" width="8.36" height="64.7"/><polygon class="cls-2" points="304.73 182.27 351.64 182.06 328.18 96.66 304.73 182.27"/></g><g class="cls-1"><rect class="cls-2" x="15.55" y="236.69" width="49.87" height="49.87"/><circle class="cls-2" cx="40.49" cy="238.44" r="24.94"/></g><g class="cls-1"><rect class="cls-2" x="1.42" y="257.07" width="29.74" height="29.74"/><circle class="cls-2" cx="16.29" cy="258.11" r="14.87"/></g></g><g id="Layer_4" data-name="Layer 4"><path class="cls-2" d="M19.33,279.15S-6.4,5,256.89,5c182.6,0,167,269.6,167,269.6Z"/><path class="cls-3" d="M11.08,284.61l420.23-6.38s9-160-57.08-163.62-49.57,32.62-101.92,32S223.12,68.2,168.92,69.47s-42.23,66.72-89.47,78C35.34,157.94,10.09,204.56,11.08,284.61Z"/><path class="cls-4" d="M262.51,83s-.94,30-2.06,47.24.73,101.84,1,123.34-.75,41.79-.75,41.79l26.7-.65s-1-58.86.66-74.85,0-136.87,0-136.87Z"/><path class="cls-4" d="M310.67,87.41a1.91,1.91,0,0,0-2.95-1.14,1,1,0,0,0-1.05.74c-1.25,6.67-1.28,13.6-4.19,19.87-3.21,7-9.24,11-16.28,13.5a1.94,1.94,0,0,0-.85.62c-.26.06-.53.14-.8.23a2,2,0,0,0-1.34,2.38l-.11,0c-.39-.07-.78-.14-1.17-.23-.23,0-1-.4-.4,0-2.2-1.35-4.21,2.1-2,3.44a10.12,10.12,0,0,0,3.61.87,17,17,0,0,0,5.55,0,27.35,27.35,0,0,0,10.63-3.89,21,21,0,0,0,7.19-8c2-4,2.74-8.48,3.42-12.84C310.72,97.8,311.56,92.58,310.67,87.41Z"/><path class="cls-4" d="M268.31,108.54a6.33,6.33,0,0,0-2.38-.31,1.7,1.7,0,0,0-1.58-2.27c-2.26-.11-4.33,0-6.3-1.31a13.1,13.1,0,0,1-4.57-4.87,27.08,27.08,0,0,1-2-6.8,21.17,21.17,0,0,0-2.24-6.11.8.8,0,0,0-1.21-.22,1.91,1.91,0,0,0-3.41.46c-1.68,5.85,1.71,13,5,17.74a19.78,19.78,0,0,0,7.42,6.8,9,9,0,0,0,5,.8c1.72-.2,3.6-.8,5.29-.2C269.62,113.09,270.65,109.35,268.31,108.54Z"/><path class="cls-4" d="M265.47,166.09a4.29,4.29,0,0,0-.36-1,1.83,1.83,0,0,0-2.06-.84c-6,2-13.4-.7-17.87-4.84a33.71,33.71,0,0,1-6.4-8.15c-.71-1.26-1.52-2.63-2.22-4.06q-.27-.85-.51-1.71c-1.54,0-3.08-.07-4.61-.12a31.18,31.18,0,0,0,11.25,19.16,25.71,25.71,0,0,0,11.84,5.7,39.89,39.89,0,0,0,5.47.37,14.46,14.46,0,0,0,5.55-.69C267.47,169.14,267,166.34,265.47,166.09Z"/><path class="cls-4" d="M232.92,145.44l-5.45-.17c-1.85.12-3.7.34-5.53.55a76.62,76.62,0,0,1-8.71.42c-2.23,0-4.47,0-6.7-.08l-1.33-.06c.06,1.53.09,3.05.07,4.58,4.45,0,8.89.15,13.33.14,5.27,0,10.75,0,15.94-1a1.81,1.81,0,0,0,1.27-2.23A3.74,3.74,0,0,0,232.92,145.44Z"/><path class="cls-5" d="M310.67,87.41a1.91,1.91,0,0,0-2.95-1.14,1,1,0,0,0-1.05.74c-1.25,6.67-1.28,13.6-4.19,19.87s-8,10.06-14,12.61c-.19-20.79-.4-36.45-.4-36.45H262.51s-.33,10.57-.83,22.77a8,8,0,0,1-3.63-1.16,13.1,13.1,0,0,1-4.57-4.87,27.08,27.08,0,0,1-2-6.8,21.17,21.17,0,0,0-2.24-6.11.8.8,0,0,0-1.21-.22,1.91,1.91,0,0,0-3.41.46c-1.68,5.85,1.71,13,5,17.74a19.78,19.78,0,0,0,7.42,6.8,8.87,8.87,0,0,0,4.4.85c-.28,6.3-.6,12.61-.94,17.78-.21,3.31-.31,7.27-.33,14.61,5.15,1,22.47,1.15,28.56.71,0-6.13-.09-12.19-.14-18l.13,0a27.35,27.35,0,0,0,10.63-3.89,21,21,0,0,0,7.19-8c2-4,2.74-8.48,3.42-12.84C310.72,97.8,311.56,92.58,310.67,87.41Z"/><path class="cls-6" d="M235.24,92.49c14.46.61,53-.5,75.13-1.16s36.08.21,36.08.21-11.6-38.15-16.94-53.46c-1.73-5-3.4-11.12-5-17.71C305.68,10.67,283.37,5,256.89,5q-15.21,0-29.15,1.19C225.67,14,223.29,23,221.58,29.3c-3.71,13.73-7.19,27.15-14.07,44.41s-7.19,20-7.19,20S220.78,91.88,235.24,92.49Z"/><polygon class="cls-7" points="418.61 160.92 381.2 24.69 345.19 159.96 374.05 160.33 372.69 250.03 385.95 249.84 387.15 160.51 418.61 160.92"/><polygon class="cls-8" points="178.86 163.02 140.18 13.06 97.88 163.02 131.32 163.02 130.55 271.83 145.41 269.67 145.41 163.02 178.86 163.02"/><polygon class="cls-7" points="84.76 158.01 56.54 46.99 24.94 158.01 51.01 158.01 50.12 242.53 61.6 243.04 61.6 158.01 84.76 158.01"/><path class="cls-7" d="M18.94,284.61s-2.4-82.2,35.91-80c47.9,2.76,40.9,46.69,40.9,46.69v32.05Z"/><path class="cls-9" d="M83.56,282.59s-8.54-68,47.65-65.9c33.64,1.23,47.64,21.26,47.64,44.62v20.36l-95.3.92Z"/><path class="cls-6" d="M434.7,285.81l0-50.93s2.13-35.48-33.29-36.95C374.07,196.79,370,216.71,369,240.85s-3,46.21-3,46.21Z"/><path class="cls-8" d="M332.46,290.86l61.81-.47s11.18-71.16-29.5-71.3c-36.11-.13-32.9,33.94-32.29,43C334,284.17,332.46,290.86,332.46,290.86Z"/><polygon class="cls-5" points="387.15 160.51 374.05 160.33 373.88 171.35 387.07 166.89 387.15 160.51"/><path class="cls-3" d="M181.91,28.12c10.09-1.4,11,5.93,11.24,10.6s-1.48,11.08-10,10.63S173,43,173.43,37.87,175.76,29,181.91,28.12Z"/><polygon class="cls-5" points="145.41 163.02 131.32 163.02 131.24 174.33 145.38 169.37 145.41 163.02"/><polygon class="cls-5" points="61.6 158.01 51.01 158.01 50.9 168.69 61.6 163.35 61.6 158.01"/></g><g id="Layer_5" data-name="Layer 5"><path class="cls-4" d="M205.1,101.07l-.48,26.12s1,17.1,14.9,17S234.62,127,234.62,127V101.23l-4.32,5.44H210Z"/><path class="cls-10" d="M217.63,115.14h-.16c-.17,1.41.14,2.91-.74,4.12a5.33,5.33,0,0,1-3.95,2c-3.25.19-4.07-2.89-4.65-5.42h-.56a6.28,6.28,0,0,0,1.05,4.39,4.51,4.51,0,0,0,3.83,2.18,6.58,6.58,0,0,0,4.53-1.69,4.77,4.77,0,0,0,1.38-2.12,27.87,27.87,0,0,0,.31-3.55Z"/><path class="cls-10" d="M231.09,114.52c-.45,1.51-.3,3.09-1.41,4.36a6,6,0,0,1-4.13,1.92,2.86,2.86,0,0,1-3-2.12,22.8,22.8,0,0,1-1.06-3.41h-.41v0c.31,1.72,0,3.36.83,5a4,4,0,0,0,4,2c3.88-.27,7.23-3.82,6.36-7.83Z"/><path class="cls-10" d="M215.17,129.39a.18.18,0,0,0-.35,0c-.34,1.2-.45,2.44-.78,3.63a17.37,17.37,0,0,1-1.24,3c-.55,1.15-1.24,3.56-2.52,4.1a.65.65,0,0,0-.38.4l.25.29c.2.16.41.32.62.46,1.64-.59,2.4-2.8,3-4.26C214.79,134.61,215.86,132.07,215.17,129.39Z"/><path class="cls-10" d="M227.78,140.14a9.31,9.31,0,0,1-3.09-4.9c-.51-1.82-.29-3.81-1.36-5.44a.35.35,0,0,0-.63.27c.33,2.18.23,4.43,1,6.54a11.88,11.88,0,0,0,3,4.64C227.41,142,228.56,140.75,227.78,140.14Z"/><path class="cls-10" d="M221.11,121.2a3.91,3.91,0,0,0-.68-.14,2.71,2.71,0,0,0-.71-.14,7,7,0,0,0-1.12,0,.91.91,0,0,0-.41.14h0a.35.35,0,0,0-.33.33v0c.45.78.88,1.58,1.3,2.37.19.35.4.7.6,1.06l.12-.09a.4.4,0,0,1,0-.28c.41-1,.73-2,1.12-3a.44.44,0,0,1,.18-.22v0A.24.24,0,0,0,221.11,121.2Z"/></g><g id="Layer_3" data-name="Layer 3"><polygon class="cls-10" points="138.17 271.59 138.47 279.15 140.19 279.15 139.86 272.95 141.14 272.64 141.01 271.66 138.17 271.59"/><path class="cls-10" d="M133.64,244.43a3.3,3.3,0,0,0-2.27.47,14,14,0,0,0-2.2,1.17,2.51,2.51,0,0,0-.24.19.82.82,0,0,1,.25.27c.36.6.89,1.18,1.28,1.81h0c.63-.28,1.23-.64,1.83-1s1.29-.55,1.64-1.18A1.34,1.34,0,0,0,134,246l0,0A1,1,0,0,0,133.64,244.43Z"/><path class="cls-10" d="M153.22,240.75c-.47-.92-.94-1.85-1.5-2.72-1-1.54-1.91-3.1-2.78-4.71a.54.54,0,0,0-.34-.13,1.53,1.53,0,0,0-.53-.35,12.64,12.64,0,0,1-1.4-.43h0a8.78,8.78,0,0,1-2.45-1.37l-.07-.06-.33-.3-.08-.07a6.59,6.59,0,0,1-.72-.85l-.13.09A19.71,19.71,0,0,1,141,231a.54.54,0,0,0-.15.38.2.2,0,0,0-.1.24,29.2,29.2,0,0,0,2.62,5.5,16.2,16.2,0,0,0-1.66.85,5,5,0,0,0-1.58,1.17,1.17,1.17,0,0,0,.82,2,4.72,4.72,0,0,0,2.37-.86,7.7,7.7,0,0,0,1.41-.78l0,0h0l0,0c.44.71.85,1.44,1.23,2.18a4.57,4.57,0,0,0,1.61,2.28.76.76,0,0,0,.44.42l.84-.59.54-.36.54-.33.55-.34c.71-.42,1.44-.83,2.15-1.22l.13-.2.35-.28a1,1,0,0,0,.14-.16Z"/><path class="cls-11" d="M143,284.45a7.85,7.85,0,0,0-.74-1.74,1,1,0,0,0,.14-1.39,11.46,11.46,0,0,0-1.79-1.76A12.1,12.1,0,0,1,138.7,277a6.47,6.47,0,0,0-1.57-1.77c-.72-2.17-2.33-3.94-3.4-5.95-1.48-2.82-3.55-5.3-4.92-8.18a76.46,76.46,0,0,0-5.19-8.83c-1.72-2.67-2.79-5.72-4.35-8.48-3.54-6.24-6.79-12.65-10.38-18.87a104.27,104.27,0,0,0-6.66-9.89c-1.26-1.71-2.53-3.42-3.63-5.23-.52-.86-1-1.74-1.51-2.62-.19-.33-.46-.7-.72-1.09a11.42,11.42,0,0,0-.65-1.13.87.87,0,0,0-.51-1v0a1.13,1.13,0,0,0-.44-.24,4,4,0,0,0-4-1.26c-2.82.69-4.35,3.57-5.15,6.13a13.41,13.41,0,0,0-.19,8.58c.66,1.76,1.45,3.43,2.08,5.21A27.56,27.56,0,0,0,90.35,228a122.91,122.91,0,0,0,7.55,10.47c5.46,7,11,13.84,17,20.41,1.49,1.65,2.65,3.55,4,5.32s2.85,3.55,4.19,5.4a46.68,46.68,0,0,0,4.09,5l.66.68a8.25,8.25,0,0,0,1.67,1.72l.14.11a20.64,20.64,0,0,1,2,2.31,1,1,0,0,0,.13.16c.58,1.07,1.16,2.14,1.77,3.19a12.38,12.38,0,0,0,2.95,3.61c.47.37,1.16.62,1.57,1s.54.88,1,1.21C141.67,290.42,143.62,286.65,143,284.45Z"/><path class="cls-5" d="M142.27,282.75a.71.71,0,0,1-.77,0c-1.44-.59-1.68-.2-3.86-.57a3.08,3.08,0,0,1-2.45-1.72c.77,2,1.8,1.92,4.8,2.77a8.84,8.84,0,0,0,2.77.34C142.6,283.32,142.44,283,142.27,282.75Z"/><path class="cls-5" d="M137.21,286.9l.12.09a3.59,3.59,0,0,1,.82.58l-.31-2.11s-.36-1.45,1.26-1.11c-.93-.31-1.42-1.7-1.42-1.7a6.45,6.45,0,0,0-.48,4.25Z"/><path class="cls-5" d="M112.89,256.47c.77.93,1.48,1.9,2.18,2.89a19.8,19.8,0,0,1,2.08,2.57c-.08-.85-.19-1.71-.31-2.57-.56-4-.1-8.92-2.39-12.44-.33-.52-1.33-.53-1.45.19a37.88,37.88,0,0,0-.15,6.48C112.86,254.55,112.87,255.51,112.89,256.47Z"/><path class="cls-5" d="M109.21,240.32C99,230.34,99.76,213.86,99,212.68c-.37-.56-2.6,7.46-2.63,8.15,0,.4,0,.81-.07,1.21a1.43,1.43,0,0,0-1.34,1.23c-.72,3.68-1.21,7.52-.26,11.21a10.36,10.36,0,0,0,1.43,3.07c.19.67.41,1.34.66,2a.69.69,0,0,0,0,.13l.12.34h0l.18.45a1.77,1.77,0,0,0,2.7.5,5.17,5.17,0,0,0,.64.28,1.65,1.65,0,0,0,1.34-.13l.25,0c.17,0,.34.11.53.15a1.58,1.58,0,0,0,1.75-.68C105.5,240.36,110.27,241.36,109.21,240.32Z"/><path class="cls-11" d="M113.33,236.56c-1.93-3.4-6.1-4.92-9.76-5.4a13.26,13.26,0,0,0-6.93.53,31.36,31.36,0,0,0-6.07,3.8,1.46,1.46,0,0,0,1,2.66l.19.12c.64.33.66,2.61,1,3.33s.68,1.19.93,1.83a10.57,10.57,0,0,1,.35,2.32c0,.25.07.49.1.74,0,.41,0,.83,0,1.25a135,135,0,0,0,1.44,14.19c.64,4.59,1.42,9.16,2.2,13.72l.27,1.58a8.38,8.38,0,0,0,.25,1.43,53.45,53.45,0,0,0,1.28,5.77,5.7,5.7,0,0,1,.52,1.69,11.82,11.82,0,0,0,.61,1.48,1.22,1.22,0,0,0,1,.69,1.35,1.35,0,0,0,1.33.24,4.18,4.18,0,0,0,.72.53,6,6,0,0,0,8.25-4.55,22.18,22.18,0,0,0,.23-3.56,19.51,19.51,0,0,0,.41-6.28c.77-4.25.53-8.62.94-12.92.47-4.79.76-9.53,1-14.34C114.65,243.87,115.16,239.79,113.33,236.56Z"/><path class="cls-3" d="M113.62,260.57c-.69.08-1.42.08-2,.14-1,.11-2,.23-3.08.38-2,.31-4,.78-6,1.11s-3.73.79-5.61,1.13c-.37.06-.76.12-1.14.2.6,4.05,1.28,8.08,2,12.12l.27,1.58a8.38,8.38,0,0,0,.25,1.43,53.45,53.45,0,0,0,1.28,5.77,5.7,5.7,0,0,1,.52,1.69l.06.18a5,5,0,0,0,1,.93,5.11,5.11,0,0,0,5.79-.11,4.63,4.63,0,0,0,.42-.32l.12,0h0a2.59,2.59,0,0,0,.37.5,1.88,1.88,0,0,0,2.44.59,6.17,6.17,0,0,0,1.71-3.42,22.18,22.18,0,0,0,.23-3.56,19.51,19.51,0,0,0,.41-6.28c.77-4.25.53-8.62.94-12.92C113.55,261.36,113.58,261,113.62,260.57Z"/><path class="cls-12" d="M132.45,238.75c-1.54-1.85-4.42-2.25-6.66-2.58a42.41,42.41,0,0,0-9.15-.28c-3.25.23-6.51.68-9.75,1.13a43.22,43.22,0,0,0-10.17,2.43,2.1,2.1,0,0,0-1.06,3,2,2,0,0,0,.08,2.11l-.6.36a2,2,0,0,0-.36,2.94,7,7,0,0,0-.92.89,1.82,1.82,0,0,0-.35.55l-.11.09a2.07,2.07,0,0,0-.25,3.07,6.38,6.38,0,0,1-2.62-.15.76.76,0,0,0-.37-.38,5.86,5.86,0,0,0-.8-.38l-1.31-.62c-.55-.26-1.26.47-.71.91l.07.06a1,1,0,0,0,0,1.17,4.18,4.18,0,0,0,1.3,1.28,1.15,1.15,0,0,0,.5.17c2.14.92,4.45.65,6.71.16,3-.66,6-1.28,9.06-1.86a117.69,117.69,0,0,0,18.51-5.27C126.31,246.51,136.29,243.38,132.45,238.75Z"/><path class="cls-12" d="M99.74,206.77l0-.05h0c.27-.33.52-.66.75-1,.64-.95,1.26-1.91,1.88-2.88l.12-.24.1-.11c.45-.72.9-1.44,1.34-2.16a3.89,3.89,0,0,0,.12-.49c.4-2.33-1.34-4.61-3-6s-4.42-2.67-6.75-2.19a6.29,6.29,0,0,0-3,1.66,1.61,1.61,0,0,0-.45.3c-.29.31-.58.62-.86.94l-.29.3c-.13.12-.24.25-.36.38a1.5,1.5,0,0,0-.28.46c-.41.44-.81.89-1.2,1.36-.58.69-1.11,1.43-1.69,2.13-.27.28-.55.57-.81.87-.57.6-1.12,1.2-1.63,1.85a1.56,1.56,0,0,0,.3,2.3.86.86,0,0,0,.57.23,1.44,1.44,0,0,0,1.23-.43c.43-.4.84-.83,1.23-1.27a1.81,1.81,0,0,0,1.56.08,4.35,4.35,0,0,0,.8-.48,1.75,1.75,0,0,0,.77.19,1.68,1.68,0,0,0,1.12.15,1.76,1.76,0,0,0,1,.68l0,.06c-.33.46-.64.93-.94,1.41a1.52,1.52,0,0,0,.77,2.33,1.66,1.66,0,0,0,2.29.69,1.73,1.73,0,0,0,1.41,2.68A2.85,2.85,0,0,0,98,209.24,14.66,14.66,0,0,1,99.74,206.77Z"/><path class="cls-12" d="M95,287.85c-1.26-3-3.56-5.14-6-7.26a16.46,16.46,0,0,0-3.49-2.75,20.41,20.41,0,0,0-4.65-1.45c-1.59-.34-3.19-.62-4.8-.82a1,1,0,0,0-1.16-1.18,15.8,15.8,0,0,1-4.29,0c-1.64-.12-3.29,0-4.94,0-3.35,0-6.69-.21-10-.43-6.87-.46-13.78-1.08-20.67-.94-2.74.06-6,0-8.51,1.18A7.26,7.26,0,0,0,22.73,279a8.64,8.64,0,0,0,1.07,7.4c1.47,2,4,2.45,6.25,2.85,6.34,1.09,12.65,2.16,18.91,3.62a145.22,145.22,0,0,0,20.56,2.94q5.13.43,10.28.65a78.69,78.69,0,0,0,9.08.2c2-.15,4.27-.61,5.71-2.15C96.31,292.71,95.87,290,95,287.85Z"/><path class="cls-3" d="M35,273.05c-2.74.06-6,0-8.51,1.18A7.26,7.26,0,0,0,22.73,279a8.64,8.64,0,0,0,1.07,7.4c1.47,2,4,2.45,6.25,2.85,5.56,1,11.1,1.9,16.61,3.1.12-1,.2-2,.33-2.94.3-2.15.56-4.3.82-6.45.37-3.17.84-6.32,1.33-9.46C44.43,273.22,39.7,273,35,273.05Z"/><path class="cls-2" d="M93.38,289.73a3.23,3.23,0,0,0-.83-1.4,1.09,1.09,0,0,0-.8-.33c-.46-.42-.89-.86-1.32-1.33l-.32-.35a1.78,1.78,0,0,0-.84-.5,9.48,9.48,0,0,0-3.87-3.7,25,25,0,0,0-2.16-2.67c-.95-1.06-1.72-2.36-2.75-3.34a1.6,1.6,0,0,0-1.16-.43,14.09,14.09,0,0,1-2.15-3.49c.36-.6-.08-1.66-.88-1.57l-.42.05a1.11,1.11,0,0,0-1,1.37,12.21,12.21,0,0,0,2.83,5.55c0,.05,0,.09,0,.14a18.9,18.9,0,0,0,3.2,5.31,1.32,1.32,0,0,0,.07.32,14.69,14.69,0,0,0,3.91,5.24c1.17,1.09,2.94,2.49,4.64,2.3a4.73,4.73,0,0,0,1.74.94A1.73,1.73,0,0,0,93.38,289.73Z"/><path class="cls-5" d="M91.27,291.84c.57,5.66-6.31-4.75-9.89-9.17a80.93,80.93,0,0,0-7.68-8.13,24.25,24.25,0,0,1-3.07-.12c-1.62-.12-3.24,0-4.87,0,1.14,1.89,3.5,3.59,4.64,4.8,5.68,6,13,10.44,19.32,15.8l.92,0c1.12-.09,1.33-1.62,2.42-2C93,292.9,90.86,287.68,91.27,291.84Z"/><path class="cls-13" d="M27.65,273.3c-.38-.05-.75-.11-1.12-.18-3.41-.53-6.78-1.33-10.17-2h0l-1.14-.1c-.31,2.08-1.1,4.16-1.56,6.15-.65,2.8-1.22,5.6-1.78,8.41s-1.09,5.36-1.46,8.08c-.07.46-.12,1-.18,1.47.87.19,1.76.57,2.47.68l.23,0h0a7.22,7.22,0,0,0,3.37-.44,7.3,7.3,0,0,0,1.38-.87c1.73-1.38,2.22-4,4-5.27h0a3.56,3.56,0,0,1,2.64-1l.35.06a19.91,19.91,0,0,1-.71-4.47,14.31,14.31,0,0,1,1.5-7.31A34.45,34.45,0,0,1,27.65,273.3Z"/><path class="cls-14" d="M16.33,273.51c.2-.76.38-1.52.56-2.28l-.53-.11h0l-1.14-.1c-.31,2.08-1.1,4.16-1.56,6.15-.65,2.8-1.22,5.6-1.78,8.41s-1.09,5.36-1.46,8.08c-.07.46-.12,1-.18,1.47.64.14,1.28.38,1.86.54.19-1,.35-2,.5-3,.52-3.37,1.32-6.67,2-10C15.22,279.64,15.56,276.53,16.33,273.51Z"/><path class="cls-15" d="M39.75,283.48a31.08,31.08,0,0,1,.63-7.27c.19-.94.57-2,.77-3.1l-.8,0c-.36,1.35-.73,2.7-1,4.07a49.93,49.93,0,0,0-.76,6.33c-.19,2.28-.25,4.57-.43,6.85l0,.37,1.74.32c0-.24,0-.47,0-.69A62.65,62.65,0,0,0,39.75,283.48Z"/><path class="cls-15" d="M37.18,283.72a86.54,86.54,0,0,1,.7-10.68h-1c-.14.83-.14,1.72-.22,2.46-.29,2.59-.26,5.17-.64,7.77-.34,2.24-.43,4.52-.63,6.77a1.23,1.23,0,0,1,0,.19l1.57.28,0-.47C37.19,287.9,37.11,285.84,37.18,283.72Z"/><path class="cls-12" d="M99.24,286.55a11.31,11.31,0,0,0-1-3.19h.16c-.6-1.85-1.36-3.65-1.94-5.21-2.46-6.62-5.35-13.06-7.77-19.7-1.27-3.48-2.28-7.07-3.84-10.43-.78-1.69-1.76-3.27-2.6-4.94-.4-.79-.81-1.55-1.26-2.29-.72-.4-1.43-.81-2.14-1.23-1.17-.53-2.33-1.09-3.49-1.66-.51-.21-1-.44-1.52-.67l-1.17-.56c-2.58-1.09-5.19-2.1-7.78-3.11s-5.37-2.14-8.12-3l-.81-.26c-1,1.48-1.27,3.83-1.51,5.47a22.42,22.42,0,0,0,.12,6.84A26,26,0,0,0,57,249.85a37.24,37.24,0,0,0,3.55,6.64c1.62,2.56,3.08,5.23,4.69,7.81,3.33,5.32,7,10.44,10.23,15.81,2.64,4.34,5.24,9.07,9.22,12.33a9,9,0,0,0,4.72,3.31,9.21,9.21,0,0,0,7.14-1.51,7,7,0,0,0,1.63-1.62c0-.33,0-.66.08-1C99.64,290.62,99.51,288,99.24,286.55Zm-20.7-45.07h.15l.12.31Zm8.31,47.93-1.47-2A13.28,13.28,0,0,0,87,288.86,1.18,1.18,0,0,0,86.85,289.41Z"/><path class="cls-16" d="M85.38,287.4l1.47,2a1.18,1.18,0,0,1,.17-.55A13.28,13.28,0,0,1,85.38,287.4Z"/><path class="cls-17" d="M78.69,241.49h-.15l.27.32Z"/><path class="cls-10" d="M84.85,248c-.78-1.69-1.76-3.27-2.6-4.94-.4-.79-.81-1.55-1.26-2.29-.72-.4-1.43-.81-2.14-1.23-1.17-.53-2.33-1.09-3.49-1.66-.51-.21-1-.44-1.52-.67l-1.17-.56c-2.58-1.09-5.19-2.1-7.78-3.11s-5.37-2.14-8.12-3l-.81-.26c-1,1.48-1.27,3.83-1.51,5.47a22.42,22.42,0,0,0,.12,6.84A26,26,0,0,0,57,249.85a37.24,37.24,0,0,0,3.55,6.64c1.62,2.56,3.08,5.23,4.69,7.81.18.28.36.56.53.84,3.41-2.12,6.83-4.11,10.44-5.91,2.23-1.11,4.55-2,6.83-3,1.41-.62,2.89-1.16,4.33-1.75A63,63,0,0,0,84.85,248Zm-6.31-6.54h.15l.12.31Z"/><path class="cls-15" d="M99.67,211.28a17.28,17.28,0,0,1-5.14-1.18A17.68,17.68,0,0,1,89.87,207a26.76,26.76,0,0,1-4.06-4.51c-.35-.51-.72-1-1-1.55l-.49.12a18,18,0,0,0-6.44,2.5,66.17,66.17,0,0,0-11.68,9.83,52,52,0,0,0-8.36,11.52,29,29,0,0,0-2.64,6.58l0,.13,1,.5a20.15,20.15,0,0,1,2,1,1.62,1.62,0,0,1,0-.19c1.13.49,2.25,1.06,3.41,1.5l5.58,2.1c2.4.9,4.68,2.23,7.06,3.24a17.3,17.3,0,0,1,2.21.73c1.38.48,2.74,1,4.09,1.55,6.83-3.9,13.16-8.74,16.35-16.2a36.5,36.5,0,0,0,2.83-13.24C99.69,212.13,99.69,211.71,99.67,211.28Z"/><path class="cls-12" d="M96.3,202.15c-1.84-1.63-5.55-2.28-8.46-1.67a6.18,6.18,0,0,0-3.08.42c.33.53.7,1,1,1.55A26.76,26.76,0,0,0,89.87,207a17.68,17.68,0,0,0,4.66,3.14,17.28,17.28,0,0,0,5.14,1.18C99.55,208,98.74,204.32,96.3,202.15Z"/><path class="cls-5" d="M100.19,206.17l.3-.38.05-.07q1.68-2.5,3.25-5.09c-2-1.66-4-3.21-6.06-4.83-1.11-.88-2.17-1.83-3.25-2.74h0a1.21,1.21,0,0,0-1.67-.17l-.07,0a1.35,1.35,0,0,0-1.44.38l-1.39,1.47L90,195c1.16,1.55,2.19,3.18,3.46,4.64a50,50,0,0,0,4,3.85C98.35,204.29,99.23,205.32,100.19,206.17Z"/><path class="cls-11" d="M121.09,195.13a25.38,25.38,0,0,1,.14-7.33c0-.31-.39-.36-.54-.15a17,17,0,0,0-2.21,3.68c0,.14-.09.28-.13.43a1.5,1.5,0,0,0-1.62,1.31,12.36,12.36,0,0,0,.31,6.33c.65,1.79,2.76,2.85,4.17,1.11C122.44,199,121.42,196.79,121.09,195.13Z"/><path class="cls-12" d="M123.27,184.34a1.54,1.54,0,0,0-.39-.67c-.41-.41-.84-.81-1.29-1.18a16,16,0,0,0-3.75-3.19,67.94,67.94,0,0,0-7.79-4.2,25.14,25.14,0,0,0-4.06-1.69,7.22,7.22,0,0,0-1.84-.49,1.36,1.36,0,0,0-.85.15c-3.29,0-5.71,3.93-7.48,6.59a49.93,49.93,0,0,0-4,6.66c-.88,1.92-2.18,4.69-1.4,6.81a3.27,3.27,0,0,0,.52.93,5,5,0,0,0,1,1.39,14,14,0,0,0,4.61,3c1.58.95,3.26,1.77,4.86,2.66a33.45,33.45,0,0,0,7.43,3.19,6.28,6.28,0,0,0,6.38-1.32,11.36,11.36,0,0,0,2.28-3.51c2-2.21,3.3-5.3,4.43-7.88C122.85,189.63,124.32,186.44,123.27,184.34Z"/><path class="cls-10" d="M96.41,178.77c1,.4,2.15.69,3.16,1a40.39,40.39,0,0,0,7.94,1.54c4,.34,9,1.22,13.14.19a19.35,19.35,0,0,0-2.81-2.18,67.94,67.94,0,0,0-7.79-4.2,25.14,25.14,0,0,0-4.06-1.69,7.22,7.22,0,0,0-1.84-.49,1.36,1.36,0,0,0-.85.15C100.36,173.07,98.12,176.2,96.41,178.77Z"/><path class="cls-10" d="M98.28,175.8a2.64,2.64,0,0,0-3.17-2.35,3.83,3.83,0,0,0-2.5,1.68,2.78,2.78,0,0,0-.67,2,2.51,2.51,0,0,0,2.43,2.42A3.7,3.7,0,0,0,96.2,179a2.55,2.55,0,0,0,1-.77A3.25,3.25,0,0,0,98.28,175.8Z"/><path class="cls-10" d="M93.35,176.68a3.12,3.12,0,0,0-.53-.3c-4.16-3.09-10.48-1.86-15.24-1.29a56.23,56.23,0,0,0-9.08,1.85c-2.5.73-5.46,1.67-7.48,3.36a.31.31,0,0,0-.09.11.88.88,0,0,0-.23.07.44.44,0,0,0-.2.73c1.85,1.68,5.09,2.08,7.44,2.56a37.68,37.68,0,0,0,9.65.8c3-.16,6.48-.27,9.36-1.34a17.3,17.3,0,0,0,5.63-3.46,4.28,4.28,0,0,0,.77-.39A1.59,1.59,0,0,0,93.35,176.68Z"/><path class="cls-10" d="M103.91,186.19a7.84,7.84,0,0,1-.74,1.29,3.15,3.15,0,0,0-.64,1.08.29.29,0,0,0,.47.28,4.32,4.32,0,0,0,.78-1.29,3.63,3.63,0,0,0,.41-1.32C104.21,186.05,104,186.05,103.91,186.19Z"/><path class="cls-10" d="M105.25,188.17a8.17,8.17,0,0,1-.79,1.41c-.15.22-.51.73-.1.91s.73-.5.89-.78a2.45,2.45,0,0,0,.39-1.44C105.63,188.09,105.34,188,105.25,188.17Z"/><path class="cls-10" d="M107.47,190a.21.21,0,0,0-.42,0,3.24,3.24,0,0,1-.45,1.05c-.15.28-.35.52-.27.85a.28.28,0,0,0,.35.19c.38-.12.5-.54.64-.88A2.75,2.75,0,0,0,107.47,190Z"/><path class="cls-10" d="M109.59,191.45a.14.14,0,0,0-.28,0,3.53,3.53,0,0,1,0,.65,5.29,5.29,0,0,1-.21.6c0,.17.17.37.32.25a.79.79,0,0,0,.32-.69A3,3,0,0,0,109.59,191.45Z"/><path class="cls-10" d="M112.26,192.4a5.82,5.82,0,0,0-.32-1.08.08.08,0,0,0-.16,0,3,3,0,0,0-.14.84c0,.32-.2.56-.21.86a.29.29,0,0,0,.36.27C112.19,193.19,112.28,192.77,112.26,192.4Z"/><path class="cls-10" d="M114.45,191.79a1.7,1.7,0,0,0-.3-.77.2.2,0,0,0-.37.1,5.24,5.24,0,0,1-.12.67c0,.25-.14.44,0,.68a.35.35,0,0,0,.49.13A.77.77,0,0,0,114.45,191.79Z"/><path class="cls-10" d="M116.28,201.8l.19-.29c.12-.2.26-.39.39-.59a.39.39,0,0,0-.11-.06c-1.11-.46-2.29-.06-3.24-1a4.55,4.55,0,0,1-.91-1.62c-.13-.35-.13-.56-.43-.77a.12.12,0,0,0-.16,0c-.29.44-.06,1.07,0,1.55a3.29,3.29,0,0,0,1,1.72A4.29,4.29,0,0,0,116.28,201.8Z"/><path class="cls-10" d="M114.44,181.54c-2.42-1-5.28-2.3-7.94-1.59a.38.38,0,0,0,0,.72c2.25.73,4.56,1.07,6.8,1.88a16.72,16.72,0,0,1,2.44,1,17.32,17.32,0,0,0,1.58,1.1.34.34,0,0,0,.39-.16C118.37,183,115.38,181.94,114.44,181.54Z"/><path class="cls-3" d="M109.56,189.22a2.71,2.71,0,0,1,.66-1.68,5,5,0,0,1,.4-.51,3.33,3.33,0,0,1,1.54-.87,4.36,4.36,0,0,1,2.78-.47,3.47,3.47,0,0,0-.7-.83,7.68,7.68,0,0,0-3-2c-2.28-.82-5.77-1-7.61.89a.32.32,0,0,0-.06.38c-.16,3.33,1.55,5.48,4.57,6.82a10,10,0,0,0,1.36.49A4.43,4.43,0,0,1,109.56,189.22Z"/><path class="cls-10" d="M112.45,191.8a5.48,5.48,0,0,0,3.15-1.25.86.86,0,0,0,.36-.6,6.22,6.22,0,0,0-.86-4l-.16-.29a4.36,4.36,0,0,0-2.78.47,3.33,3.33,0,0,0-1.54.87,5,5,0,0,0-.4.51,2.71,2.71,0,0,0-.66,1.68,4.43,4.43,0,0,0-.11,2.26A7.64,7.64,0,0,0,112.45,191.8Z"/><path class="cls-18" d="M94,244.91c.77-2,1.4-.94,3.34-2.93.59-.61,4.33-3.29,4.45-4.06a33.11,33.11,0,0,0-5,1.53,2.1,2.1,0,0,0-1.06,3"/><g class="cls-19"><path class="cls-10" d="M83.35,242.26c0-.08-.44-.83-.47-.9-.12-.26-.2-.52-.3-.79-.33-1-.69-1.93-1.07-2.88-1.11-2.76-2.16-5.52-3.05-8.36-.79-2.5-1.91-5-2.49-7.57-.61-2.71-.91-5.47-1.53-8.17-.14-.6-1.18-.48-1.1.15.17,1.48-.1,3,0,4.49s.3,3.26.53,4.87a85,85,0,0,0,2,9.19c.77,3,1.8,5.88,2.8,8.8.57,1.63,1.66,4.87,4,3.41A1.75,1.75,0,0,0,83.35,242.26Z"/><path class="cls-10" d="M83.31,242.14s0,.08,0,.12S83.36,242.25,83.31,242.14Z"/></g><path class="cls-2" d="M81.87,242.77c-.51-1.23-1-2.46-1.52-3.7C80.85,240.31,81.36,241.54,81.87,242.77Z"/><path class="cls-2" d="M80.26,238.85c-.49-1.22-1-2.43-1.48-3.65C79.28,236.42,79.77,237.63,80.26,238.85Z"/><path class="cls-2" d="M94.45,223.88c1.25,3.61,2.53,7.27,3.43,11C97,231.15,95.71,227.49,94.45,223.88Z"/><path class="cls-12" d="M98.88,240.14a45.53,45.53,0,0,0-1-5.26A16.44,16.44,0,0,1,94.51,237c-1.74.91-3.44,1.9-5.21,2.76a49.17,49.17,0,0,1-7.42,3c.48,1.16,1,2.32,1.48,3.47,1.13,2.58,2.14,5.74,4.37,7.61a2,2,0,0,0,2.8-.33,3.66,3.66,0,0,0,2.75-.1c2.13-.92,3.24-3.23,4.14-5.22A14.81,14.81,0,0,0,98.88,240.14Z"/><polygon class="cls-15" points="81.88 242.77 81.88 242.77 81.87 242.77 81.88 242.77"/><path class="cls-15" d="M80.35,239.07l-.09-.22Z"/><polygon class="cls-15" points="97.88 234.88 97.88 234.88 97.88 234.88 97.88 234.88"/><path class="cls-15" d="M94,222.45c.16.48.33,1,.49,1.43C94.29,223.4,94.12,222.93,94,222.45Z"/><path class="cls-15" d="M94.51,237a16.44,16.44,0,0,0,3.37-2.14h0c-.9-3.73-2.18-7.39-3.43-11-.16-.48-.33-.95-.49-1.43-.89-2.55-1.92-5.06-2.83-7.61a19.8,19.8,0,0,0-3.36-6.21,4.19,4.19,0,0,0-1.63-1.43,2.19,2.19,0,0,0-.81-.24,5.83,5.83,0,0,0-3.88-.66c-3,.44-7.88,2.67-8.1,6.14-1,3.66-.14,7.89.92,11.48,1.14,3.89,3,7.53,4.51,11.28.5,1.22,1,2.43,1.48,3.65l.09.22c.5,1.24,1,2.47,1.52,3.7h0a49.17,49.17,0,0,0,7.42-3C91.07,238.92,92.77,237.93,94.51,237Z"/><path class="cls-5" d="M130.3,244.43c-.18-.58-.33-1.17-.47-1.77-.22-.94-.59-1.8-.88-2.72a.5.5,0,0,0-.95,0c-.54,1.73-1.12,4.18-.57,6.11a22.21,22.21,0,0,0,2.92-1.48A1.21,1.21,0,0,0,130.3,244.43Z"/><path class="cls-12" d="M136,237.5a30.39,30.39,0,0,0-10.45-.69.53.53,0,0,0-.45.61,1.84,1.84,0,0,0,.1,2.15c2.12,2.49,3.35,5.62,6.69,6.76a6.24,6.24,0,0,0,2.11.31,4.55,4.55,0,0,0,2,.11,7.58,7.58,0,0,0,5-3C143.19,240.48,139.07,238.13,136,237.5Z"/><path class="cls-15" d="M111.05,266.08c-2,.39-3.89.74-5.84,1.11s-3.71.54-5.52,1a26.19,26.19,0,0,0-3.08.84c0,.22.07.43.1.65,2.78-1,5.84-1.22,8.7-1.74l7.83-1.47,0-.87C112.52,265.73,111.78,265.94,111.05,266.08Z"/><path class="cls-15" d="M111.4,268.19c-1.8.37-3.58.81-5.37,1.25l-5.17,1.21c-1.27.31-2.57.52-3.84.85,0,.11,0,.22,0,.33,5.32-1.07,10.8-1.6,16.07-2.91,0-.39,0-.79,0-1.18C112.59,267.9,112,268.07,111.4,268.19Z"/><path class="cls-13" d="M109.89,294.14c1.79-.15,3.62-.21,5.46-.3l.2,0c2.4-.28,4.8-.69,7.19-1,0,0,0-.06,0-.09-.34-2-1-4.11-3-4.94l-.26-.08a4.53,4.53,0,0,0-.46-.3,16.25,16.25,0,0,0-2.55-.95l-.47-.17a4.59,4.59,0,0,1-1-.43l-.1,0h0a6,6,0,0,1-2.52-3l0,0a18.66,18.66,0,0,1-5,1.52,29,29,0,0,1-5.19,0,21.15,21.15,0,0,0-2.68-.12,5.32,5.32,0,0,1,.64,2.37,1.19,1.19,0,0,1,0,.22h0a8.68,8.68,0,0,0-.34,1.7c0,1,0,2-.11,3,0,.19,0,.37,0,.55,0,.76,0,1.53-.07,2.3l0,.76c1-.12,2.07-.11,3-.19C105,294.68,107.42,294.34,109.89,294.14Z"/><path class="cls-12" d="M102.18,298l.51,0a.48.48,0,0,0,0-.12l.61.1c.45,0,.91,0,1.37,0l.11,0c.65-.07,1.29-.2,1.92-.29,2.19-.34,4.43-.49,6.63-.69.93-.09,1.84-.13,2.76-.16,1.06-.18,2.13-.39,3.18-.62h0l.16,0,1.7-.4h0c.6-.15,1.19-.3,1.78-.47a17.17,17.17,0,0,0-.17-2.49c-2.39.32-4.79.73-7.19,1l-.2,0c-1.84.09-3.67.15-5.46.3-2.47.2-4.92.54-7.38.78-.93.08-2,.07-3,.19,0,.95.07,1.89.12,2.83Q100.91,297.93,102.18,298Z"/><path class="cls-3" d="M115.54,284.85a4.83,4.83,0,0,0-2.12,1.79c-.52.65-1.42,1.49-1.54,2.33a.2.2,0,0,0,.24.25c.82-.16,1.32-1.14,1.78-1.76.31-.41.6-.84.94-1.24s.69-.65,1-1C115.93,285,115.72,284.8,115.54,284.85Z"/><path class="cls-3" d="M117.12,285.33a10.35,10.35,0,0,0-2.39,2.59c-.46.64-1.18,1.33-1.21,2.17,0,.39.5.39.63.08a9.74,9.74,0,0,1,1.54-2c.61-.79,1.38-1.53,1.92-2.37A.36.36,0,0,0,117.12,285.33Z"/><path class="cls-3" d="M118.4,286a10.08,10.08,0,0,0-1.65,2.3c-.34.61-1,1.46-.81,2.18a.24.24,0,0,0,.35.15c.66-.29.9-1.29,1.22-1.88a23,23,0,0,1,1.44-2.32C119.18,286.05,118.67,285.67,118.4,286Z"/><path class="cls-3" d="M21,292.78a1.79,1.79,0,0,0-.79-.67,9,9,0,0,1-1.26-.95,23.48,23.48,0,0,1-2-2,.24.24,0,0,0-.37.29,12,12,0,0,0,2,2.44c.58.54,1.4,1.41,2.24,1.3C21,293.14,21,292.91,21,292.78Z"/><path class="cls-3" d="M21.21,290.88a4.26,4.26,0,0,0-.85-.72,10.22,10.22,0,0,1-.84-.77,16.86,16.86,0,0,0-1.72-1.66c-.19-.16-.56,0-.38.29.5.66,1,1.31,1.53,1.93s1.11,1.37,1.83,1.49C21.07,291.49,21.43,291.18,21.21,290.88Z"/><path class="cls-3" d="M23.43,290.37c-.48-.7-1.24-1.27-1.78-1.94s-1.4-1.47-2-2.29c-.16-.22-.56-.09-.46.2A10.22,10.22,0,0,0,20.87,289c.49.7,1.18,1.82,2.09,2C23.28,291,23.65,290.7,23.43,290.37Z"/><path class="cls-10" d="M139,284.33s.3,4.38.26,4.36l.43,5.36h.9l-.17-9.57A12.91,12.91,0,0,1,139,284.33Z"/><path class="cls-11" d="M195.58,177.48s-19,41.64-27.92,61.76-24.54,55.87-24.54,55.87,17-1.06,48.73-.58c32,.5,50.56,1.77,50.56,1.77s-37.36-91.11-39.94-99.13-6.89-19.69-6.89-19.69"/><path class="cls-12" d="M195.58,177.48s47.44-.76,70.95-1,45.24-2.09,45.24-2.09,18.83,67.14,24.54,82.81,14.26,36.18,14.26,36.18-106.22,3-109.66,2.95S195.58,177.48,195.58,177.48Z"/><path class="cls-10" d="M195.87,178.53s-.27,45.67,0,56.35-1.43,44.49-1.33,49.81-.26,8.29.66,10l-3.35-.15s.18-8.67,0-13.27,1-49.88,2-63.06S195.87,178.53,195.87,178.53Z"/></g></svg>