<svg xmlns="http://www.w3.org/2000/svg" viewBox="0 0 350 350"><defs><style>.cls-1{fill:#d6d7d9;}.cls-2{fill:#a0a2a5;}.cls-3,.cls-9{fill:#58595b;}.cls-3,.cls-7{opacity:0.44;}.cls-14,.cls-15,.cls-4{fill:none;stroke-linecap:round;}.cls-4{stroke:#58595b;stroke-width:7px;}.cls-14,.cls-4,.cls-6{stroke-miterlimit:10;}.cls-5,.cls-6,.cls-7{fill:#393a35;}.cls-6{stroke:#393a35;}.cls-8{fill:#fff;}.cls-10{fill:#010101;}.cls-11{fill:#dadbdc;}.cls-12{fill:#af97c7;}.cls-13{fill:#7a478b;}.cls-14,.cls-15{stroke:#a0a2a5;}.cls-15{stroke-linejoin:round;}.cls-16{fill:#9c6bad;}</style></defs><title>tails_5.2_journalist_a</title><g id="Layer_8" data-name="Layer 8"><path class="cls-1" d="M107.59,349.44l24.31.12c.36-.85,3.23-2.58,2-5.66-.61-1.5,1.15-3,1.23-4.71a15.11,15.11,0,0,0-1.09-6c.66-4-1.72-8.59-6.23-9.2-1.93-.27-3.16.88-4.85,1.13-.94.14-.72.47-1.73.3-.6-.09-1.59-1.07-2.25-1.32a5,5,0,0,0-4.89.37c-1.82-.95-3.88-.88-5.82,1.25-1.71,1.89-1.9,1.42-1.65,3.83C107,333.57,116.17,346.87,107.59,349.44Z"/><path class="cls-2" d="M116.58,349.56,91.4,299.15,77.93,310.93s5.27,22.77,9.85,38.63Z"/><polygon class="cls-3" points="80.97 323.63 103.63 323.63 105.73 327.84 84.88 338.26 80.97 323.63"/><path class="cls-2" d="M47.56,260.16c5.81-5.54,18.45-19.65,25.72-18.91s11.25,3.95,12.71,9.1,3.74,17.23,3.74,17.23l-39.44,4.18-2.73-6.94Z"/><line class="cls-4" x1="63.9" y1="207.36" x2="86.17" y2="262.22"/><path class="cls-2" d="M71.48,246.19c1.82.24,8.86,1,12.75,7.15s1.94,15.79,1.94,15.79l-13.92,1.58-7.43-7.43Z"/><path class="cls-5" d="M232.08,349.45l-1.61-156.73-72.06,2.58-9.73,64.22-11.14,89.94S222.27,349.71,232.08,349.45Z"/><path class="cls-1" d="M201.86,349.34c.44,0,29.52.26,44,0-1.11-13.73-4.79-60.36-4.17-72,.73-13.59,14.08-73.57,13-78.57s-10.88-10.89-10.88-10.89L215.11,205.3s-10.83,39.7-11.17,63.52-4,54.36-2.32,64.69C203,341.85,202.35,346.49,201.86,349.34Z"/><path class="cls-6" d="M233.84,173a8,8,0,0,0-.82-.9,3,3,0,0,0,.18-.73c1.51-1.67,1.51-4.88-1.25-5.26-6.32-.87-14.13.7-20,3.14-3.47,1.44-6.73,3.38-10.4,4.33-4.3,1.12-8.83,1.27-13.25,1.62a93.19,93.19,0,0,0-24.07,4.77c-5.2,1.83-11,3.67-14.67,8-1.23,1.45-1.48,4.39.69,5.3,3.25,1.38,5.85.51,8.92-1h0a2.71,2.71,0,0,0,2.16.72c.3,0,.59-.08.88-.12a4.3,4.3,0,0,0,2.23,2.1,9.64,9.64,0,0,0,5.38.18l0,0c6.87,4.29,18.05,2.81,25.66,2,9.33-1,18.29-2.91,25.83-8.78,2.8-2.17.14-5.72-2.79-5.57a16.33,16.33,0,0,0,4.34-4.31,3.13,3.13,0,0,0,.53-1.6,24.94,24.94,0,0,0,5.65-1.29,3.15,3.15,0,0,1,1.67.47C232.55,177.27,235.21,174.75,233.84,173Z"/><polygon class="cls-2" points="156.68 172.29 159.49 187.84 167.96 200.4 213.33 187.03 223.03 179.97 213.33 163.59 156.68 172.29"/><path class="cls-7" d="M159.49,187.84s25.16-2.07,36.09-5.18c11.29-3.2,22.33-11.34,22.33-11.34l-4.58-7.73-56.87,7Z"/><path class="cls-2" d="M133.39,70.87c-11.9,8.06-49.93,36.61-44.64,65.23s27.89,35.38,43.91,35.12c5.06,5.37,17,11.14,32.29,1.43a66.75,66.75,0,0,0,48.38-2.84c22.82-10.56,46.77-26.2,48.14-52.07-2.06-12.84-34.89-57-34.89-57L193.23,61Z"/><path class="cls-8" d="M155.4,111c3.91,7.78,24.68,20.23,35.89-1.81C186.93,90.56,161.21,94.21,155.4,111Z"/><path class="cls-8" d="M101.42,114c4.41,10.43,19.82,15.89,33.18-1.41C131.44,93.15,105.58,96.76,101.42,114Z"/><path class="cls-9" d="M137.76,112.61s2.66,22.32-1.34,27.38c-2.54.69-5.22.12-5.71,2.18s-2.42,5.87,9.35,4.37c-.73,3-1.54,6.79,2.57,6.8s7.12-2.18,6.89-7.4c1.55-.49,7.45-1,6.89-4.74s-9.2-3.37-9.2-3.37a45.19,45.19,0,0,1-.59-24.78C145.92,113.06,137.76,112.61,137.76,112.61Z"/><path class="cls-10" d="M157.06,158.56c-7,.7-13.76,1.65-20.73.67a.57.57,0,0,0-.55,1c1.83,2.25,5.42,2.2,8.08,2.22,4.5,0,8.75-.28,13.2-.67C159.08,161.55,159.08,158.35,157.06,158.56Z"/><path class="cls-5" d="M121,106.56a4.25,4.25,0,0,0-5.63-.81,4.4,4.4,0,0,0-.84.83,7.82,7.82,0,0,0-1.06,1.15,7.27,7.27,0,0,0-1.25,1.8c-1.49,3-2.12,7.09-.18,10a5,5,0,0,0,8.33.45,13.65,13.65,0,0,0,2.46-8.18A7.38,7.38,0,0,0,121,106.56Z"/><path class="cls-5" d="M178.08,113c.53-2.89.2-5.87-1.24-7.55-3.37-3.94-8.67-1.3-10.69,2.62a12.23,12.23,0,0,0-1.32,5.81c0,2.39.79,4,2.78,5a6.73,6.73,0,0,0,1.27,1c4,2.43,7.13-.54,8.57-4.54A10.79,10.79,0,0,0,178.08,113Z"/><path class="cls-5" d="M132.93,93.87c-8.65-.12-21.49-1.31-27.3,6.82-.19.27.08.58.35.6,9,.84,18-.32,27-.11C137.63,101.28,137.64,93.94,132.93,93.87Z"/><path class="cls-5" d="M192.77,98.41c-3.6-3.24-10.26-4.35-14.93-5-5.09-.72-12.18-.93-17,.95-2.51,1-2.49,5.58.7,5.17A86.33,86.33,0,0,1,177.09,99c4.92.29,9.67,2,14.56,2.16A1.59,1.59,0,0,0,192.77,98.41Z"/><path class="cls-11" d="M192.51,109.17a.5.5,0,0,1,0-1c.08,0,7.45,0,11.54-2.31a.5.5,0,0,1,.68.19.51.51,0,0,1-.2.68c-4.31,2.4-11.7,2.44-12,2.44Z"/><path class="cls-11" d="M192.51,106.79a.5.5,0,0,1-.49-.4.51.51,0,0,1,.4-.59c.09,0,8.86-1.75,12.35-5.42a.5.5,0,0,1,.71,0,.48.48,0,0,1,0,.7c-3.71,3.92-12.51,5.65-12.88,5.72Z"/><path class="cls-11" d="M204.29,113.11a.54.54,0,0,1-.22,0c-4-2-11.45-1.59-11.53-1.59A.49.49,0,0,1,192,111a.51.51,0,0,1,.47-.53c.32,0,7.77-.42,12,1.69a.5.5,0,0,1-.22,1Z"/><path class="cls-11" d="M101.57,109.22h0a6,6,0,0,1-4.71-2.74.5.5,0,1,1,.88-.48c1.14,2.06,3.85,2.22,3.87,2.22a.5.5,0,0,1,0,1Z"/><path class="cls-11" d="M100.76,111.56c-1.39,0-4.46-.16-6-1.51a.5.5,0,1,1,.66-.74c1.63,1.46,5.89,1.24,5.94,1.24a.49.49,0,0,1,.52.47.5.5,0,0,1-.47.53Z"/><path class="cls-11" d="M93.74,116.32a.54.54,0,0,1-.35-.14.5.5,0,0,1,0-.71c2.09-2.17,7.16-2.89,7.37-2.92a.51.51,0,0,1,.57.43.5.5,0,0,1-.43.56s-4.94.7-6.79,2.63A.51.51,0,0,1,93.74,116.32Z"/><path class="cls-11" d="M163.2,163.4a.49.49,0,0,1-.46-.32A75.79,75.79,0,0,0,153,146.37a.49.49,0,0,1,.07-.7.51.51,0,0,1,.71.08,76.69,76.69,0,0,1,9.89,17,.51.51,0,0,1-.28.65A.43.43,0,0,1,163.2,163.4Z"/><path class="cls-11" d="M132.19,162.9h-.06a.5.5,0,0,1-.44-.55,142.58,142.58,0,0,1,2.42-14.46.5.5,0,0,1,1,.22,139.26,139.26,0,0,0-2.41,14.35A.5.5,0,0,1,132.19,162.9Z"/><path class="cls-11" d="M170.48,128.69a13.6,13.6,0,0,1-3.13-.36,12.38,12.38,0,0,1-8.84-7.94.5.5,0,1,1,1-.33,11.39,11.39,0,0,0,8.12,7.3c5.61,1.32,12.23-1.34,18.64-7.5a.5.5,0,0,1,.69.73C181.38,125.89,175.67,128.69,170.48,128.69Z"/><path class="cls-11" d="M110,129.9a11,11,0,0,1-3.59-.58,10,10,0,0,1-6.11-6.54.5.5,0,1,1,1-.25,9.23,9.23,0,0,0,5.5,5.85c4.8,1.66,11.79-.81,20.21-7.15a.5.5,0,0,1,.61.8C120.66,127.26,114.77,129.9,110,129.9Z"/><path class="cls-5" d="M200.77,62.11s-21.18,9.55-21,24.53c-7.08,1-80.29,5.11-93.4,9.32-.69-11.26,15.43-47.1,66.66-42.63,31.52,2.75,33.44,7,51.23,6.61Z"/><path class="cls-5" d="M200.77,62.11s2.67,25.88,12.56,40.28,23.41,22.13,27.89,10.22,12.61-13.53,19.55-13.93c.86-4.29,12.8-30.48-9.58-42.6S210.12,54.3,200.77,62.11Z"/><path class="cls-5" d="M265.57,112.72s25.62-5.2,34.62,8.91,12.3,37.86,5.86,63.21-7.92,24.14-8.95,35,.11,25-2.77,34.44A156.11,156.11,0,0,0,290.09,272s-4.15-21-2.6-30.8-8.1-42-15.06-50.8-15.06-19.82-15-35.16S265.57,112.72,265.57,112.72Z"/><path class="cls-8" d="M114.11,134.87c-7.63,0-16.43-.13-17-.14l-.2,0c-.2,0-4.89-1.17-4.8-8.57h0c.08-7.08,2.52-8.46,7.95-8.87,4.81-.36,24.8-.62,25.65-.63,1.82,0,5.31,1.3,5.72,5.94a21.25,21.25,0,0,1-.17,6.25c-.27,1.86-2.22,5.63-7.56,5.91C121.7,134.83,118.06,134.87,114.11,134.87Zm-16.83-2.14c1.77,0,20.74.29,26.32,0,5-.26,5.68-4.13,5.71-4.29a19.7,19.7,0,0,0,.14-5.69c-.36-4-3.59-4.12-3.73-4.12s-20.76.27-25.5.62c-4.28.33-6,.7-6.1,6.91C94.06,131.42,96.76,132.56,97.28,132.73Z"/><path class="cls-8" d="M173.91,134.86c-8.85,0-19.14-.13-19.3-.13l-.17,0c-.06,0-5.46-1.16-5.36-8.58.1-7.71,3.59-8.52,8.89-8.87s28.09-.62,29.05-.63a6.4,6.4,0,0,1,6.35,5.93,19,19,0,0,1-.2,6.27c-.15.67-1.48,5.57-8.44,5.9C182.48,134.83,178.38,134.86,173.91,134.86Zm-19.16-2.13c1.76,0,23.51.3,29.88,0,5.78-.27,6.55-4.15,6.58-4.31a17.28,17.28,0,0,0,.17-5.66,4.43,4.43,0,0,0-4.36-4.13c-.21,0-23.53.27-28.92.62-5.24.35-6.94,1-7,6.91h0C151,131.48,154.2,132.58,154.75,132.73Z"/><path class="cls-8" d="M149.18,124.75c-.92-3.86-4-6.23-8.32-6.34-4.44-.12-8.48,2.23-9.43,5.47l-1.92-.56c1.38-4.7,6.8-7,11.41-6.91,5.17.13,9.08,3.15,10.21,7.88Z"/><polygon class="cls-8" points="192.26 121.18 191.67 119.27 250.5 101.09 246.19 104.56 192.26 121.18"/><path class="cls-2" d="M253.15,100S272,93,272.43,106.24c.44,12.5-8.41,19.55-19.82,18"/><path class="cls-7" d="M229.45,222.18s3.78,38.5,4.32,46.61c.58,8.65,2.64,15.46-1.22,23s-10.87,6.29-10.87,6.29l10,18.29s2.54,22.68,1.86,28.3,14.35,4.57,14.35,4.57l-5.19-118.72Z"/><path class="cls-1" d="M240.84,349.34s22.43-.27,30.41,0c.43-127.24-12.7-140.13-15-147.22s-8.89-11-18.47-6.52-11.52,14.06-7.34,33.16C239.71,261.55,240.84,349.34,240.84,349.34Z"/><path class="cls-1" d="M151.51,208.94c7.83.15,10,16.69,7.78,26.81s-3.86,32.71-22.22,90c-5.45-1.5-26.93-5.44-26.93-5.44s10.55-23.32,16.35-42.88,10.34-48.2,12.38-57.61S144.88,208.82,151.51,208.94Z"/><path class="cls-7" d="M122.8,288.5l14.52,37.26s11.63-43,13.23-53.95-17.66-21-17.66-21S128.2,274.63,122.8,288.5Z"/><path class="cls-1" d="M141.23,292.47c.94,9.18-2.82,48.11-3.69,57,0,0,12.15,0,11.77-.12,1-5.84,3.4-20.81,4.08-27.55.82-8.22-2-26.27-1.88-38.18s5.67-47.1,7.78-55.79-.88-20.59-.88-20.59,0-5-5.82-5.87-10.25,8.83-10.25,8.83-4.1,12.7-13.07,44.08S137.51,291.39,141.23,292.47Z"/><path class="cls-12" d="M163.53,282.39c1.09-.18,33.15-.57,33.15-.57l-2.74,54.52-36,.23Z"/><path class="cls-13" d="M205.52,191.35s-22.58,59.14-29.89,97c3.23.09,7.26,0,7.26,0S193.09,243,199,227.45c6.91-18.27,16.27-38.4,16.27-38.4Z"/><path class="cls-13" d="M170.86,199.66s6,69.93,12,88.69c-3.64,0-7.26,0-7.26,0s-7.19-50.36-9.07-71-.67-22.23-.67-22.23Z"/><path class="cls-8" d="M182.89,293.11l-13.31.06-2.5,34.55,6.41.49,1-13.68,6.32-.19s8,.11,8.54-9.79S182.89,293.11,182.89,293.11Zm-7.26,14,.93-7.4s6.33-2,5.66,4.55C181.8,308.34,175.63,307.15,175.63,307.15Z"/><path class="cls-9" d="M244.75,179h0c0-.09,0-.16,0-.25a4.87,4.87,0,0,0-3.11-5.42,5.57,5.57,0,0,0-3.52-.07c.91-3.93-2-7.38-6.3-7.46-6-.11-9.54,4-12.4,8.7-2.11,3.49-3.6,6.83-7.06,9.21s-7.37,3.51-11.28,4.42c-9.57,2.23-20.29,4.29-30.12,2.9a61.49,61.49,0,0,1-12.73-3.49c-2.61-1-5-1.44-7.41-.15a8.7,8.7,0,0,0-1.63.55c-1.77.77-2.2,3.4-1.29,4.92.1.17.25.38.4.59a3.86,3.86,0,0,0-.17,2.35,11,11,0,0,0,.51,1.56c-4-.43-6.92,3.52-5.55,8.14,4.39,14.82,29.94,15.31,40.52,13.38,9.41-1.73,17.87-6.54,27.19-8.67,8.41-1.93,17.08-7,23.59-12.17,4-3.22,12.65-7.51,13.39-13.35A5.19,5.19,0,0,0,244.75,179Z"/><path class="cls-14" d="M137.16,241.54s-2.68,18.4-4.14,22.77c2.43.61,10.76,1.58,13,1.34.45-3.64,4.3-17.36,4.5-23.19C147.1,241.85,137.16,241.54,137.16,241.54Z"/><polyline class="cls-15" points="137.16 241.54 140.66 253.49 150.55 242.46"/><path class="cls-14" d="M210.81,244.31s.16,21.1-1.3,25.47c2.43.6,14.61.37,16.88.13.44-3.65.5-19,.7-24.79C223.64,244.51,210.81,244.31,210.81,244.31Z"/><polyline class="cls-15" points="210.81 244.31 218 256.26 227.09 245.12"/><path class="cls-14" d="M243.79,208.94l8.82-2.51s4.61,15.35,6.07,25c-2.91.93-9.65,2.41-9.65,2.41A175.86,175.86,0,0,0,243.79,208.94Z"/><path class="cls-1" d="M233.45,343.37a2.48,2.48,0,0,0,.19,1.49c1.92,4.26,5.89,2.85,10.18,4.48,8.89-.18,28.65,0,28.65,0,.13-.69-.1-1.62-1-4l-.09-.19a5.52,5.52,0,0,0,.46-3.83A5.08,5.08,0,0,0,274,338c1.25-6.3-6.69-7-10.82-8-8.12-1.9-16.16-6.73-24.65-5.93a4,4,0,0,0-3.53,4.42,8.44,8.44,0,0,0,.18,1c-1.65,2-1.73,5.19.62,7.89a6,6,0,0,0-1.07.75A4.52,4.52,0,0,0,233.45,343.37Z"/><polygon class="cls-8" points="39.12 253.28 46.12 250.07 99 251.9 118.49 322.69 112.73 325.52 93.09 254.7 39.12 253.28"/><polygon class="cls-16" points="93.09 254.7 112.73 325.52 56.87 322.19 39.12 253.28 93.09 254.7"/><path class="cls-2" d="M259.52,349.34c-4.43-5-9.38-7.76-18.7-11.08C218,331.5,102.23,302.85,102.23,302.85L99,320.63s39.43,14.26,79.68,28.71C183.2,349.24,240,349.2,259.52,349.34Z"/><path class="cls-2" d="M118.35,308.07c-.15-.23-.33-.43-.49-.65a9,9,0,0,0-2.15-3.8,22.56,22.56,0,0,1-1.85-6.86c-.42-5.09,1.41-10.1,3.67-14.57,2.17-4.29-5-6.4-7.8-2.5-1.93,2.67-6.75,12.36-5.39,18.8-2.34-.73-10-1.2-12-1.73-10.45-2.74-14-5.64-22.55-10.26-4.66-2.53-15-11.81-18.29-3.7-1.38,3.36-1.29,7.86-1.76,11.44-.53,3.92-.93,8,1,11.63,3.51,6.46,13.16,11.67,19.42,14.48,9.25,4.15,22.41,8.59,29.14,7.25,10.14-2,18.26.32,18.46-.19C120.11,321.36,122.22,314,118.35,308.07Z"/><path class="cls-5" d="M166.27,202.92a34.57,34.57,0,0,1-6.28-.38c-2.94-.76-11.2-4.58-11.55-4.75a.5.5,0,0,1,.42-.9c.09,0,8.52,4,11.38,4.68s18.71.44,24.21-1.64c3.45-1.31,8.19-1.51,12.77-1.7a59.18,59.18,0,0,0,7.82-.65c5.09-1,11.22-4.76,18.87-10.14,6.9-4.86,13.74-14.39,13.81-14.49a.5.5,0,0,1,.82.58c-.07.1-7,9.77-14,14.72-7.76,5.46-14,9.31-19.26,10.31a60.1,60.1,0,0,1-8,.67c-4.5.19-9.16.38-12.46,1.63C180.92,202.34,172.35,202.92,166.27,202.92Z"/><path class="cls-5" d="M198.4,206.06c-3.23,0-6.94-1-10.8-2a66.34,66.34,0,0,0-8.59-1.91.5.5,0,1,1,.13-1,67.18,67.18,0,0,1,8.72,1.93c4.95,1.33,9.64,2.59,13.19,1.7,4.3-1.07,7.34-1.64,10.28-2.2,1.08-.2,2.13-.4,3.22-.62a4.7,4.7,0,0,0,3.76-2.47,13.78,13.78,0,0,1,2.15-2.6,9,9,0,0,1,3.88-2.57,23.68,23.68,0,0,0,2.53-1.06c.74-.36,1.49-.7,2.25-1,2.86-1.3,5.57-2.52,7.52-4.7,2.51-2.8,7.64-8.79,7.69-8.85a.5.5,0,0,1,.76.65c-.05.06-5.18,6.06-7.71,8.87-2.09,2.33-5,3.66-7.85,4.94-.74.33-1.49.67-2.22,1a25.12,25.12,0,0,1-2.63,1.1,8.15,8.15,0,0,0-3.54,2.36,13.31,13.31,0,0,0-2,2.43,5.62,5.62,0,0,1-4.38,2.89c-1.09.22-2.15.42-3.23.62-2.93.56-6,1.13-10.23,2.19A11.8,11.8,0,0,1,198.4,206.06Z"/><path class="cls-5" d="M178.38,209.82c-1.54,0-3.37-.2-5.52-.43-2.51-.27-5.36-.58-8.78-.72-10.4-.42-14.43-10.4-14.47-10.5a.5.5,0,0,1,.93-.36c0,.09,3.84,9.46,13.58,9.86,3.46.14,6.45.46,8.84.72,4.61.51,7.66.83,9.26-.59,2.73-2.43,8-3.92,8.26-4a.5.5,0,0,1,.61.35.48.48,0,0,1-.35.61c-.05,0-5.3,1.49-7.85,3.76C181.81,209.51,180.33,209.82,178.38,209.82Z"/><path class="cls-5" d="M204.64,189.06a30.24,30.24,0,0,1-4.41-.28.5.5,0,0,1,.16-1c.13,0,12.76,2,22.34-5.08,6.53-4.82,7.52-5.28,13.34-7.47a.49.49,0,0,1,.64.29.5.5,0,0,1-.29.65c-5.7,2.14-6.68,2.6-13.09,7.33S209.34,189.06,204.64,189.06Z"/><path class="cls-7" d="M253.41,349.24c1.45,0,6.11.1,6.11.1s-.47-1.31-5.9-5.25c-3.35-2.43-11.41-5.32-11.41-5.32A53.59,53.59,0,0,1,253.41,349.24Z"/></g></svg>