<svg id="Layer_4" data-name="Layer 4" xmlns="http://www.w3.org/2000/svg" viewBox="0 0 350 350"><defs><style>.cls-1{fill:#dadbdc;}.cls-2,.cls-6{fill:#393a35;}.cls-2{opacity:0.44;}.cls-3{fill:#b5b7b9;}.cls-4{fill:#a0a2a5;}.cls-11,.cls-5{fill:#fff;}.cls-7{fill:#58595b;}.cls-8{fill:#7a478b;}.cls-9{fill:#af97c7;}.cls-10{fill:#9c6bad;}.cls-11{opacity:0.77;}</style></defs><title>tails_5.3_survivor_a</title><path class="cls-1" d="M148.15,141.51l7.29,70.23,13.38,34,18.61-9.93,4.79-21.34s-9.86-40.3-8.8-51.79C178.52,153.67,148.15,141.51,148.15,141.51Z"/><path class="cls-2" d="M148.55,148.47l1.78,14s14.34,26.23,19.85,32.18c4.3,4.64,19.64,9.48,19.64,9.48s-7.33-31.6-6.4-38.38C178.64,161.73,148.55,148.47,148.55,148.47Z"/><path class="cls-1" d="M196.9,45.39c10.28,6.66,31.55,30.36,32.46,49.89s-.91,67.68-.91,67.68A94.61,94.61,0,0,0,216,190.51c-5.69,2.81-23,2.24-23,2.24s-29.15-25-41.62-33.22S122.71,127.06,121.21,95C130.13,69.92,196.9,45.39,196.9,45.39Z"/><path class="cls-3" d="M193,163.36a6.51,6.51,0,0,0,3.4-1.39c1.3-1.22,1.49-2.35,3.63-2.44s3.08,1.41,4.94,1.31,3.62-2.32,5.57-2.42,5.62,4.21,5.62,4.21-1.51,9.66-11.19,10.31-9.84-5.86-10.52-7.24A14.06,14.06,0,0,0,193,163.36Z"/><path class="cls-4" d="M203.62,119.1s.3,10,2.4,14.1,7.83,8.55,8.87,14c-3.06,1.12-10.5,3.54-13.66,1.12-.75-5.21-.71-29.18-.71-29.18Z"/><path class="cls-5" d="M159.21,113c-2,7.94,15.58,24.34,32.15,2.75C191.2,100.87,163.07,97.84,159.21,113Z"/><path class="cls-5" d="M201.56,113c2.62,9.53,19.46,16.07,27.8-3.25C224.49,97.09,208.45,93.28,201.56,113Z"/><path class="cls-6" d="M182.12,124.15a38.9,38.9,0,0,0,3.25-2.22,4.59,4.59,0,0,0,.5-1,13.77,13.77,0,0,0,.71-4.47c.46-4.21-.92-10.55-6.54-8.59s-6,11.7-1.67,15.06A5.47,5.47,0,0,0,182.12,124.15Z"/><path class="cls-6" d="M224.6,117.33a9.29,9.29,0,0,0,1.78-6.4,6.06,6.06,0,0,0-2.45-4.86l-.27-.13a4.08,4.08,0,0,0-5.13.3,5.39,5.39,0,0,0-1.31,2.13,9.92,9.92,0,0,0-.39,8.1,4.74,4.74,0,0,0,3.08,3.18,3.06,3.06,0,0,0,2.67-.47C223.22,118.65,224.56,117.39,224.6,117.33Z"/><path class="cls-6" d="M186,90.76c-3.93,0-8.22,2.4-11.92,3.7a73.55,73.55,0,0,1-12,3.07.52.52,0,0,0-.22.86c3.12,2.47,7.62,1.67,11.24.67,4.32-1.19,10.87-2.41,14-5.75A1.51,1.51,0,0,0,186,90.76Z"/><path class="cls-6" d="M226.82,91.05c-6.55-2.51-14.2,1-20.89-1.69-.87-.35-1.42.89-.86,1.47,2.23,2.35,5.58,3,8.69,3.36,4.12.47,8.37.74,12.53.81C228.69,95,228.84,91.83,226.82,91.05Z"/><path class="cls-2" d="M215.28,161.55c-3.32.24-6.65,1.63-9.92,2.32a17.82,17.82,0,0,1-8.91-.19,12.06,12.06,0,0,0-3.69-.85c-.37,0-.71.46-.46.79,2.55,3.42,7,4.57,11.11,4.18,3.89-.36,10-1,12.75-4.12C216.81,162.94,216.44,161.46,215.28,161.55Z"/><path class="cls-4" d="M166.63,68.79a43.6,43.6,0,0,0,21.83,10c13.32,2,16.78.87,24,3.41a115.29,115.29,0,0,1,11.94,5.23c2.54,1.26,4.25,2.19,4.25,2.19s-5.62-22.23-12.11-29S198.5,45,198.5,45l-24,11.12-10.78,8.07S174.14,74.79,179,76.32a56.93,56.93,0,0,0,12.35,2.89c5,.58,14.64,1.08,17.86,2"/><path class="cls-4" d="M146.6,72.72l4.19,9.92s2.17,22.22-9.25,37.14a115.68,115.68,0,0,1-12.77,9.12l-13-34,4.82-25.68,27.54-9.28Z"/><path class="cls-7" d="M137.7,114l-.94-.36c5-12.78,4.41-35.94,4.41-36.17l1,0C142.17,77.71,142.73,101.06,137.7,114Z"/><path class="cls-7" d="M131.78,114.75c-.93-12.13.53-24.46,1.15-29.73.13-1.14.25-2.12.24-2.3l1-.26c.08.21.06.41-.21,2.68-.62,5.24-2.07,17.5-1.14,29.53Z"/><path class="cls-7" d="M128.74,119.35c-5.44-9.11-3.72-27.42-3.64-28.2l1,.1c0,.19-1.77,18.76,3.5,27.59Z"/><path class="cls-7" d="M228.35,88.52c-4-3.79-8-6.06-14.67-8.9-5-2.13-8.24-2.65-13.15-3.44-2-.31-4.17-.66-6.84-1.18C181,72.57,175.28,65.73,175,65.44l.77-.64c.06.07,5.8,6.86,18.07,9.22,2.66.51,4.86.86,6.8,1.18,5,.8,8.28,1.32,13.39,3.5,6.75,2.89,9.63,4.48,13.78,8Z"/><path class="cls-7" d="M227.45,85.32c-1.68-2-8.38-6.39-11.26-8.55a50.53,50.53,0,0,0-16.93-7.85c-7-1.56-15.78-8.31-16.15-8.59l.62-.79c.08.07,8.92,6.89,15.74,8.4a51.07,51.07,0,0,1,17.31,8c2.75,2.06,8.14,5.61,10.08,7.38Z"/><path class="cls-7" d="M225.75,79.82a54,54,0,0,0-6.95-6.55c-.91-.78-1.86-1.58-3-2.61A44.08,44.08,0,0,0,203.38,63,50.29,50.29,0,0,1,192,55.26l.81-.59a51.48,51.48,0,0,0,11,7.41,45.24,45.24,0,0,1,12.71,7.84c1.12,1,2.07,1.83,3,2.59a33.35,33.35,0,0,1,5.61,5.28Z"/><path class="cls-7" d="M223.36,73.14A116.24,116.24,0,0,0,215,64.31c-3.25-2.85-14.8-11.71-14.92-11.8l.61-.79c.12.09,11.69,9,15,11.83a72.46,72.46,0,0,1,6.67,6.91Z"/><path class="cls-6" d="M121.73,110.46s2.33-8.24,8.22-11.24,27.75-12.06,35.18-16.58,21-10.74,27.86-11.73,21.9-6.82,25.06-8.5c.32-3.41-8.84-20.25-20.6-23-8.68-2-8.21-3.31-8.21-3.31s-1.63-3.18-8.2-6.46-11.13-3.05-15.37-6.06S146.88,4.39,138.7,5s-24.54,3.81-29.94,10.3S95.9,30.12,100.55,37.4s7.83,8.33,8.82,14.71-1.81,13.07.41,21.77,1.06,7,1.06,7-2.28,2.68-.94,7.92,2.49,10.25,5.4,14.16S117.76,110.3,121.73,110.46Z"/><path class="cls-1" d="M145,121.29s-4.44-13-12.88-8.82S126.4,153.68,145,140.09"/><polygon class="cls-1" points="148.55 219.34 160.9 206.78 185.47 208.96 192.27 214.8 204.57 264.11 181.54 310.02 148.55 301.58 137.23 235.57 137.23 227.87 148.55 219.34"/><path class="cls-1" d="M159.05,209s-13.23,14.45-21.82,18.91-28,15.72-33.56,25.92S89.5,291.88,89.23,313.48s0,36.69,0,36.69H114s1.22-12.48,1.78-27.37,1.38-35,2.65-38.34,8.79-13.32,8.79-13.32V273a34.16,34.16,0,0,1,8.59-13.84,28.15,28.15,0,0,1,25.51-8.15C164.57,251.64,159.05,209,159.05,209Z"/><path class="cls-1" d="M251.61,300.79c-2.77-18.87-3.07-34.74-9.79-46.94s-32-31.52-52.68-40.47c-1.55-.67-3-1.26-4.44-1.79-.91,4.95-2.54,9.83-3.11,14.79-1,8.73,13.92,34,18.93,36.11,1.61-1.31,4.66,6.19,6.9,6.56a20.52,20.52,0,0,1,6,2.17v-.08s8.85,1.59,11.63,15.31,6.92,27.3,7.34,44.62,1.06,12.67.9,19.1H255S254.38,319.66,251.61,300.79Z"/><path class="cls-8" d="M139.3,226.66s12.56,50.23,22.74,56.86,11.9,6.6,15.44,5.86,17.69-16.09,19.66-23.54,5.62-39.1,6.9-44.74c2.83,1.72,9.38,6,9.38,6s1.43,55.67,2.8,66.53,5.28,51.66,5.28,56.53H128.42s-1.67-34.94-.85-48.84,1-28.29,2.29-46.16,1.22-23.93,1.22-23.93Z"/><path class="cls-9" d="M216,291.45S138.55,282,138.18,350c.3.38,9.38,0,9.38,0s3.71-48.8,69.23-51.41C216.55,296.39,216,291.45,216,291.45Z"/><path class="cls-10" d="M216.64,297.22l.89,8.3s-59.08-.73-63.16,44.64a74.52,74.52,0,0,1-10.17,0S145.74,301,216.64,297.22Z"/><path class="cls-11" d="M217.42,304.48l.72,7.48s-56.4.09-58.55,38a44.37,44.37,0,0,1-6.58.17S153.88,307.2,217.42,304.48Z"/><path class="cls-10" d="M218,310.72l.81,8s-49.44-4.9-52.85,31.4c-2,.19-6.92,0-6.92,0S160.46,311.4,218,310.72Z"/></svg>