<svg xmlns="http://www.w3.org/2000/svg" viewBox="0 0 440 150"><defs><style>.cls-1{isolation:isolate;}.cls-2{fill:#dadbdc;}.cls-3{fill:#fff;}.cls-10,.cls-4{fill:#393a35;}.cls-11,.cls-4{opacity:0.44;}.cls-5{fill:#9c6bad;}.cls-11,.cls-6,.cls-9{fill:#363436;}.cls-11,.cls-6{mix-blend-mode:hard-light;}.cls-7{fill:#af97c7;}.cls-8{mix-blend-mode:soft-light;}.cls-12,.cls-13,.cls-14,.cls-15,.cls-16,.cls-20,.cls-22{fill:none;stroke-miterlimit:10;}.cls-12{stroke:#8f4299;}.cls-13,.cls-14,.cls-15,.cls-16{stroke:#fff;stroke-width:2px;}.cls-14{stroke-dasharray:2.95 2.95;}.cls-15{stroke-dasharray:2.83 2.83;}.cls-16{stroke-dasharray:3;}.cls-17{fill:#58595b;}.cls-18{fill:#7a478b;}.cls-19{fill:#a0a2a5;}.cls-20,.cls-22{stroke:#393a35;}.cls-20{stroke-width:0.5px;}.cls-21{fill:#b5b7b9;}.cls-23{fill:#d6d7d9;}</style></defs><title>tails_1.3_toolbox</title><g class="cls-1"><g id="Layer_3" data-name="Layer 3"><path class="cls-2" d="M417.9,133.61c-27.43,39.42-108.67-22.88-145.27-9.09-62.59,23.59-94.93-4.16-113.48-7.9-26.1-5.26-83.07,30.6-108.53,22-35.46-12-76.73-59.82-14.9-109.16,65.8-52.51,122.82-6.21,153.22-5.07,107.38,4,154-32.69,197.67-11.52C425.89,31.89,449.14,88.73,417.9,133.61Z"/><path class="cls-3" d="M239.46,120.93H251c.15-2,.71-5.73,2.91-8.06a2,2,0,0,0-2.89-2.71,16.18,16.18,0,0,0-3.74,8.55,74.82,74.82,0,0,0-.2-8.27,2,2,0,0,0-3.92.5,81.7,81.7,0,0,1,.14,8.49c-.19-2.59-.82-6.31-2.77-8.88a2,2,0,0,0-3.15,2.4C239,115,239.41,118.71,239.46,120.93Z"/><path class="cls-3" d="M18,100.06H29.55c.14-2,.71-5.73,2.9-8.06a2,2,0,1,0-2.88-2.71,16.27,16.27,0,0,0-3.75,8.55,75.1,75.1,0,0,0-.19-8.27,2,2,0,0,0-3.93.5,78.61,78.61,0,0,1,.15,8.49c-.19-2.59-.82-6.31-2.77-8.88a2,2,0,0,0-3.15,2.4C17.49,94.14,17.91,97.84,18,100.06Z"/><path class="cls-3" d="M337.19,16.27a2,2,0,0,0-2.8.09A15.58,15.58,0,0,0,330.8,24c0,.19,0,.38-.05.57a16.32,16.32,0,0,0-2.68-7.82,2,2,0,0,0-3.15,2.4c1.57,2.06,2,5.76,2.05,8h7.4c.14-2,.71-5.74,2.9-8.07A2,2,0,0,0,337.19,16.27Z"/><path class="cls-3" d="M132.06,49.31a2,2,0,0,0-2.8.08A15.61,15.61,0,0,0,125.67,57c0,.19,0,.38,0,.57a16.25,16.25,0,0,0-2.68-7.82,2,2,0,1,0-3.15,2.4c1.57,2.06,2,5.76,2,8h7.4c.14-2,.71-5.73,2.9-8.06A2,2,0,0,0,132.06,49.31Z"/><path class="cls-3" d="M84.09,43.9a2,2,0,0,0-2.8.09,15.58,15.58,0,0,0-3.59,7.64c0,.19,0,.38,0,.58A16.25,16.25,0,0,0,75,44.39a2,2,0,1,0-3.15,2.39c1.57,2.06,2,5.77,2.05,8h7.4c.14-2,.71-5.73,2.9-8.07A2,2,0,0,0,84.09,43.9Z"/><path class="cls-3" d="M198,99.29a2,2,0,0,0-2.8.09,15.52,15.52,0,0,0-3.58,7.64l-.06.57a16.38,16.38,0,0,0-2.67-7.82,2,2,0,0,0-3.15,2.4c1.56,2.06,2,5.76,2,8h7.4c.15-2,.71-5.73,2.91-8.06A2,2,0,0,0,198,99.29Z"/><path class="cls-4" d="M104.5,46.05,91.8,57.19A16.52,16.52,0,0,1,86.42,70.9l14.41-13.16S105.31,52.63,104.5,46.05Z"/></g><g id="Layer_2" data-name="Layer 2"><path class="cls-5" d="M377,111.26s1.83-9.5,19.86-9.5c13.89,0,19.77,6.24,19.77,9.5,0,4-5.5,12.61-5.5,12.61l-23.72,1Z"/><path class="cls-6" d="M403,102.23a39.09,39.09,0,0,0-6.22-.47c-18,0-19.86,9.5-19.86,9.5l7.49,9.8Z"/><path class="cls-3" d="M378.08,114.51s3.55-8.44,17.51-8.65,19.79,8.2,19.79,8.2l-5,7.91-28.85-1.26Z"/><path class="cls-7" d="M377,111.56v13.2c6,6.58,27.27,10.38,39.55-.11,0-2.78,0-13.39,0-13.39C410.89,119.48,389.78,124.5,377,111.56Z"/><g class="cls-8"><path class="cls-9" d="M416.58,111.26c-2.1,3-6.29,5.62-11.39,7a44.89,44.89,0,0,1-7.46,12.86c6.67-.15,13.59-2,18.85-6.52C416.6,121.87,416.58,111.26,416.58,111.26Z"/></g><polygon class="cls-10" points="393.36 110.74 402.88 106.52 399.13 113.15 393.36 110.74"/><path class="cls-5" d="M285.56,100.76s-2.82,3.15-1.16,5.34,20.07,7.78,29.67,10.54,19.3,5.65,23.27,7.56,5.83,2.9,7.77,1.55,5.39-10.28,5.39-10.28L295.76,98.36Z"/><path class="cls-11" d="M287,101.22s-2.67,2.83,0,4.38,24.28,9.2,28.54,10.37,25,6.58,26.82,7.74a6.14,6.14,0,0,0,2.84,1.16l11.49-15.1L300.82,92.31Z"/><path class="cls-5" d="M413.32,40.83a95.39,95.39,0,0,1-5.52,11.09c-3.68,6.43-12.12,16.45-17.18,23.74s-7.88,11.17-7.88,11.17-11.1,10-13.8,13.09-16.36,17.32-19.19,20.22a42.26,42.26,0,0,0-4.64,5.61s1-2-2.81-4.08-13.27-2.73-19.71-4.75-18-5.35-21.62-6.89-13.28-5-13.28-5L333.2,67.38l25-38.9L396.64,38S409.42,39.24,413.32,40.83Z"/><path class="cls-11" d="M409.05,39.71s-9.94,17.09-13.91,23.38-11.32,18-11.32,18-8.73,8.62-16.28,15.39-14.24,14.31-19,18.38c-2.38,2-5.73,5.27-5.73,5.27s-11.63-4-17.45-4.64c-4.44-.47-14.79-4.37-19.71-6.17-2.05-.74-16.59-5.47-16.59-5.47l40.35-37.3,28.12-38.11S387,36.07,392,37.23,406.67,39.18,409.05,39.71Z"/><path class="cls-5" d="M352.1,16.42C347.94,25.57,344,34.53,340.9,40S328.82,60,326.58,64.52c-3.93,4-15.56,15-22.89,21.26s-16,12.64-18.13,15c3.46,1.09,20.27,6.57,27.95,9.27s27.33,8.33,28.69,9.1c3-3.36,14.4-14.12,20.16-19.49s19.45-18.56,20.38-19.81c.92-2.12,7.86-13,10.35-18.58s6-15.41,8.15-20,5.63-11.71,5.63-11.71-19.73-4.6-21.76-4.93S359.32,16.57,352.1,16.42Z"/><path class="cls-7" d="M285.56,100.76c3.46,1.09,20.27,6.57,27.95,9.27s27.33,8.33,28.69,9.1c3-3.36,14.4-14.12,20.16-19.49,5.15-4.79,16.62-15.83,19.67-19-3-.87-6.21-1.79-8.3-2.42-5.13-1.54-17.81-4.7-28.49-7.35-6.29-1.56-14.18-3.79-19.62-5.36C321,70.1,310.49,79.92,303.69,85.78,296.36,92.09,287.65,98.42,285.56,100.76Z"/><path class="cls-12" d="M322.16,68.87s-.09,2.45,2.2,5.82c2.74,4-.28,7.61-4.61,10.94-5.67,4.36-9.15,1.74-11.77,5.3-3.84,5.23-9.66,10.42-14,2.79"/><path class="cls-12" d="M317.72,73.07s2.11,4.14.91,6.36c-2.7,5-7.09,3.41-9.26,5-3.13,2.24-6,5.66-8.7,3.93"/><path class="cls-12" d="M314.33,76.23s1.6,4.82-4.61,4.21"/><path class="cls-12" d="M393.59,60.1s-4.28-2.71-8.4-1.63-7.8,3.63-9.22,5.45c-2.7,3.46-5.54,2.49-9.88,5s-3,2.81-6,5.7c-3.25,3.25-6.32,4.68-9.6,4.81s-5.83-.16-9.59,4-1.14,7.41-5.74,10.43-6.92,1.65-12.77,4.6c-6.08,3.06-7.57,5.16-6,12.62"/><path class="cls-12" d="M388.4,70s-6.11-2-10.46,1c-2.76,2-5.61,6.74-5.61,6.74a11.74,11.74,0,0,1-5.81,3.54c-3.65.91-7.34-2.09-17.79,5.3-5.24,3.7-2.42,8.59-8.88,12.33-3.72,2.14-6.78,2.15-9.42,5.54s-2,6.76-1.6,10.37"/><path class="cls-12" d="M375.82,86.77c-.34.34-.51-3.61-5.16-1.72-4,1.61-12.93,1.52-15.54,6.39a71.3,71.3,0,0,1-6.75,11c-2.41,3.29-7.56,2.38-8.14,8.93s3.37,6.29,3.37,6.29"/><path class="cls-12" d="M369.31,93.05s-8.1-3.44-9.5,1.44c-1.62,5.67-3.24,8.72-6.43,10.17-3.95,1.79-3.44,5-2.88,6.18"/><path class="cls-12" d="M387.64,25.11a5.64,5.64,0,0,0-3,5.16c-.06,3.87,6.23,6.74,1.52,12.58S375.82,46.69,370,49.4s-7.35,6.38-11.3,9.28-16.45,7.12-19.79,2-2.45-7.4-5.36-8.06"/><path class="cls-12" d="M338.09,45.59a7.81,7.81,0,0,1,3.79,4.16c.87,2.78,2.56,5.51,6.63,5.11s8.42-6.22,14.59-9.64S376.73,39,377,34.86s1.51-9.88-3.1-11.41-11.95-2.74-16.19-.26-9.8,5.91-10.6,4.14"/><path class="cls-12" d="M364.92,27.48c-2.32-.46-7.44-1.24-10.16,1s-7.14,3.85-7.93,7.43-2,5.73-.62,8.51,1.77,4.76,5.78,1.7,5.05-5.57,8.48-8.7,5.3-2.27,6.26-5.17S364.92,27.48,364.92,27.48Z"/><path class="cls-12" d="M357.74,33c-.6-2.53-4.65.33-5.15,2.19s-.74,4.26,1.15,3.11S358.4,35.82,357.74,33Z"/><circle class="cls-3" cx="375.68" cy="53.98" r="2.91"/><circle class="cls-3" cx="330.64" cy="74.33" r="2.91"/><path class="cls-13" d="M338.09,39.26l1.42.47"/><path class="cls-14" d="M342.3,40.7c3.5,1.19,6.38,2,9.13,1.36,3.79-.88,13-10.17,20.5-4.11s3.19,18.36-1.69,20.91-5.41,4.84-9.73,6.09-10.56.72-12.17,6.47c-1,2.91-.84,4.93-9.13,4.81a26.77,26.77,0,0,1-5.23-.62"/><path class="cls-13" d="M332.56,75.24a13.16,13.16,0,0,1-1.41-.49s-.13.55-.38,1.44"/><path class="cls-15" d="M330,78.91a35.7,35.7,0,0,1-3.81,8.76c-2.95,4.28-5.05,4.41-10.8,6.77s-7.95,1.77-9.82,6a25.38,25.38,0,0,0-1.27,3.47"/><path class="cls-13" d="M304,105.25a7.31,7.31,0,0,0-.14,1.49"/><path class="cls-16" d="M397.85,49.41c-5.91-.17-4.82,4-11.75,4.69s-12.17.76-12.17.76"/><path class="cls-5" d="M193.09,36.52s7.53-7.32,9.95-7.66,17.44,4.6,18.69,6.76,1.23,43.62-.47,46.44-7.63,10-9.62,10.06-17.45-4.81-19-6.8S192.47,39.25,193.09,36.52Z"/><path class="cls-7" d="M192.64,85.32c1.55,2,17,6.9,19,6.8a1.77,1.77,0,0,0,.59-.18c.61-10.57,1.61-46.45-.25-49.16-1.64-2.41-12.85-5.19-18.93-6.06C192.41,40.9,191.12,83.36,192.64,85.32Z"/><path class="cls-17" d="M208.44,46.08l-11.8-4a5.41,5.41,0,0,1-.61.46l-.65,14.05.31.53.09.13,12.69,4.46.46-.46V47A10.46,10.46,0,0,1,208.44,46.08Z"/><path class="cls-18" d="M195.51,69.71a1.41,1.41,0,0,0-.17-.35l-.08-.11v0c-.19-.38-.68-.4-.72-.09l0,0a.47.47,0,0,0-.08.33.72.72,0,0,0,.24.43h0a.24.24,0,0,0,.08.06l.06,0a.52.52,0,0,0,.13.06l.06,0h0l0,0h.23A.32.32,0,0,0,195.51,69.71Z"/><path class="cls-18" d="M197.53,70.37a1.13,1.13,0,0,0-.17-.35.41.41,0,0,0-.07-.11v0c-.18-.38-.67-.4-.71-.09,0,0,0,0,0,0a.46.46,0,0,0-.08.33.63.63,0,0,0,.24.43h0l.08.06.07,0,.12.06.07,0h0l0,0a.36.36,0,0,0,.14,0h.09C197.5,70.75,197.58,70.58,197.53,70.37Z"/><path class="cls-18" d="M199.37,71a1,1,0,0,0-.17-.35l-.07-.12h0c-.18-.39-.68-.4-.72-.09l0,0a.49.49,0,0,0-.08.33.67.67,0,0,0,.24.42h0l.08.06.07,0,.12,0,.06,0h0l.05,0a.23.23,0,0,0,.14,0h.09A.33.33,0,0,0,199.37,71Z"/><path class="cls-18" d="M201.4,71.63a1.42,1.42,0,0,0-.17-.35l-.08-.12h0c-.19-.39-.68-.4-.72-.1l0,0a.48.48,0,0,0-.08.34.73.73,0,0,0,.24.42h0l.08.05.06,0a.31.31,0,0,0,.13.06l.06,0h0l0,0a.26.26,0,0,0,.15,0h.08A.33.33,0,0,0,201.4,71.63Z"/><path class="cls-18" d="M203.51,72.31a1.41,1.41,0,0,0-.17-.35l-.07-.11v0c-.18-.38-.68-.4-.72-.09,0,0,0,0,0,0a.53.53,0,0,0-.08.33.72.72,0,0,0,.24.43h0a.24.24,0,0,0,.08.06l.07,0a.67.67,0,0,0,.12.06l.06,0h0l.05,0h.23A.32.32,0,0,0,203.51,72.31Z"/><path class="cls-18" d="M205.54,73a1.87,1.87,0,0,0-.17-.35,1,1,0,0,0-.08-.11v0c-.19-.38-.68-.4-.72-.09l0,0a.46.46,0,0,0-.08.33.72.72,0,0,0,.24.43h0l.08.06.06,0,.13.06.06,0h0l0,0h.23C205.5,73.35,205.58,73.18,205.54,73Z"/><path class="cls-18" d="M207.37,73.57a1.23,1.23,0,0,0-.16-.35l-.08-.12h0c-.18-.39-.67-.4-.71-.09,0,0,0,0,0,0a.44.44,0,0,0-.08.33.63.63,0,0,0,.24.42h0l.08.06.07,0,.12,0,.07,0h0l.05,0a.23.23,0,0,0,.14,0,.27.27,0,0,0,.09,0A.32.32,0,0,0,207.37,73.57Z"/><path class="cls-18" d="M209.4,74.23a1.14,1.14,0,0,0-.17-.35l-.07-.12h0c-.18-.39-.68-.4-.72-.1l0,0a.49.49,0,0,0-.08.33.7.7,0,0,0,.24.42h0l.08,0,.07,0,.12,0,.06,0h0l.05,0a.23.23,0,0,0,.14,0h.09A.33.33,0,0,0,209.4,74.23Z"/><path class="cls-18" d="M196.7,72a1.36,1.36,0,0,0-.16-.35,1,1,0,0,1-.08-.11v0c-.18-.38-.67-.4-.71-.09l0,0a.47.47,0,0,0-.08.33.67.67,0,0,0,.24.43h0l.08,0,.06,0a.34.34,0,0,0,.12.06l.07,0h0l.05,0h.23C196.67,72.41,196.75,72.24,196.7,72Z"/><path class="cls-18" d="M198.54,72.63a1.13,1.13,0,0,0-.17-.35.41.41,0,0,0-.07-.11v0c-.18-.38-.67-.4-.71-.09,0,0,0,0,0,0a.44.44,0,0,0-.08.33.63.63,0,0,0,.24.43h0l.08.06.07,0L198,73l.07,0h0l.05,0a.36.36,0,0,0,.14,0h.09C198.51,73,198.59,72.84,198.54,72.63Z"/><path class="cls-18" d="M200.57,73.29a1.26,1.26,0,0,0-.17-.35l-.07-.12h0c-.18-.39-.68-.4-.72-.09,0,0,0,0,0,0a.49.49,0,0,0-.08.33.72.72,0,0,0,.24.43h0l.08.06.07,0,.12,0,.06,0h0l0,0a.34.34,0,0,0,.14,0h.08A.32.32,0,0,0,200.57,73.29Z"/><path class="cls-18" d="M202.68,74a1,1,0,0,0-.17-.35l-.07-.12h0c-.18-.39-.67-.4-.71-.1l0,0a.48.48,0,0,0-.07.34.66.66,0,0,0,.23.42h0l.08,0,.07,0a.34.34,0,0,0,.12.06l.06,0h0l.05,0a.23.23,0,0,0,.14,0h.09A.33.33,0,0,0,202.68,74Z"/><path class="cls-18" d="M204.71,74.64a1.14,1.14,0,0,0-.17-.35.83.83,0,0,0-.08-.12v0c-.18-.38-.68-.39-.72-.09l0,0a.53.53,0,0,0-.08.33.72.72,0,0,0,.24.43h0l.08,0,.07,0a.27.27,0,0,0,.12.06l.06,0h0l0,0h.23A.31.31,0,0,0,204.71,74.64Z"/><path class="cls-18" d="M206.54,75.23a1.36,1.36,0,0,0-.16-.35,1,1,0,0,0-.08-.11v0c-.19-.38-.68-.4-.72-.09l0,0a.46.46,0,0,0-.08.33.67.67,0,0,0,.24.43h0l.08.06.06,0,.12.06.07,0h0l0,0a.39.39,0,0,0,.15,0h.08C206.51,75.61,206.59,75.44,206.54,75.23Z"/><path class="cls-18" d="M208.57,75.89a1,1,0,0,0-.17-.35l-.07-.12h0c-.18-.39-.67-.4-.71-.09l0,0a.44.44,0,0,0-.07.33.66.66,0,0,0,.23.43h0l.08.06.07,0,.12.05.06,0h0l0,0a.36.36,0,0,0,.14,0h.09A.33.33,0,0,0,208.57,75.89Z"/><path class="cls-18" d="M195.51,73.58a1.14,1.14,0,0,0-.17-.35l-.08-.12h0c-.19-.39-.68-.4-.72-.1l0,0a.48.48,0,0,0-.08.34.73.73,0,0,0,.24.42h0l.08,0,.06,0A.31.31,0,0,0,195,74l.06,0h0l0,0a.26.26,0,0,0,.15,0h.08A.33.33,0,0,0,195.51,73.58Z"/><path class="cls-18" d="M197.53,74.24a1,1,0,0,0-.17-.35.75.75,0,0,0-.07-.12v0c-.18-.38-.67-.39-.71-.09l0,0a.47.47,0,0,0-.08.33.63.63,0,0,0,.24.43h0l.08.05.07,0a.34.34,0,0,0,.12.06l.07,0h0l0,0a.34.34,0,0,0,.14,0h.09A.31.31,0,0,0,197.53,74.24Z"/><path class="cls-18" d="M199.37,74.83a1.13,1.13,0,0,0-.17-.35l-.07-.11v0c-.18-.38-.68-.4-.72-.09l0,0a.53.53,0,0,0-.08.33.72.72,0,0,0,.24.43h0l.08.06.07,0,.12.06.06,0h0l.05,0h.23A.32.32,0,0,0,199.37,74.83Z"/><path class="cls-18" d="M201.4,75.49a1.62,1.62,0,0,0-.17-.35l-.08-.12h0c-.19-.38-.68-.4-.72-.09l0,0a.44.44,0,0,0-.08.33.72.72,0,0,0,.24.43h0l.08.06.06,0,.13,0,.06,0h0l0,0a.41.41,0,0,0,.15,0h.08A.32.32,0,0,0,201.4,75.49Z"/><path class="cls-18" d="M203.51,76.18a1.14,1.14,0,0,0-.17-.35l-.07-.12h0c-.18-.39-.68-.4-.72-.1,0,0,0,0,0,0a.54.54,0,0,0-.08.34.7.7,0,0,0,.24.42h0l.08,0,.07,0,.12,0,.06,0h0l.05,0a.23.23,0,0,0,.14,0h.09A.33.33,0,0,0,203.51,76.18Z"/><path class="cls-18" d="M205.54,76.84a1.42,1.42,0,0,0-.17-.35l-.08-.12v0c-.19-.38-.68-.39-.72-.09l0,0a.47.47,0,0,0-.08.33.72.72,0,0,0,.24.43h0l.08,0,.06,0a.31.31,0,0,0,.13.06l.06,0h0l0,0a.38.38,0,0,0,.15,0h.08A.32.32,0,0,0,205.54,76.84Z"/><path class="cls-18" d="M207.37,77.43a1.36,1.36,0,0,0-.16-.35,1,1,0,0,0-.08-.11v0c-.18-.38-.67-.4-.71-.09,0,0,0,0,0,0a.47.47,0,0,0-.08.33.67.67,0,0,0,.24.43h0l.08.06.07,0,.12.06.07,0h0l.05,0h.23C207.34,77.81,207.42,77.64,207.37,77.43Z"/><path class="cls-18" d="M209.4,78.09a1.26,1.26,0,0,0-.17-.35l-.07-.12h0c-.18-.38-.68-.4-.72-.09,0,0,0,0,0,0a.49.49,0,0,0-.08.33.72.72,0,0,0,.24.43h0l.08.06.07,0,.12,0,.06,0h0l.05,0a.36.36,0,0,0,.14,0h.09A.32.32,0,0,0,209.4,78.09Z"/><path class="cls-18" d="M196.7,75.9a1.23,1.23,0,0,0-.16-.35l-.08-.12h0c-.18-.39-.67-.4-.71-.1,0,0,0,0,0,0a.44.44,0,0,0-.08.33.63.63,0,0,0,.24.42h0l.08.06.06,0,.12,0,.07,0h0l.05,0a.26.26,0,0,0,.15,0h.08A.32.32,0,0,0,196.7,75.9Z"/><path class="cls-18" d="M198.54,76.5a1,1,0,0,0-.17-.35.75.75,0,0,0-.07-.12v0c-.18-.38-.67-.39-.71-.09,0,0,0,0,0,0a.47.47,0,0,0-.08.33.63.63,0,0,0,.24.43h0l.08,0,.07,0a.34.34,0,0,0,.12.06l.07,0h0l.05,0h.23A.31.31,0,0,0,198.54,76.5Z"/><path class="cls-18" d="M200.57,77.15a1.41,1.41,0,0,0-.17-.35l-.07-.11v0c-.18-.38-.68-.4-.72-.09,0,0,0,0,0,0a.53.53,0,0,0-.08.33.72.72,0,0,0,.24.43h0a.24.24,0,0,0,.08.06l.07,0a.45.45,0,0,0,.12.06l.06,0h0l0,0h.22A.32.32,0,0,0,200.57,77.15Z"/><path class="cls-18" d="M202.68,77.84a1,1,0,0,0-.17-.35l-.07-.12h0c-.18-.39-.67-.4-.71-.09l0,0a.44.44,0,0,0-.07.33.66.66,0,0,0,.23.43h0l.08.06.07,0,.12,0,.06,0h0l.05,0a.36.36,0,0,0,.14,0h.09A.33.33,0,0,0,202.68,77.84Z"/><path class="cls-18" d="M204.71,78.5a1.26,1.26,0,0,0-.17-.35.83.83,0,0,0-.08-.12h0c-.18-.39-.68-.4-.72-.09l0,0a.49.49,0,0,0-.08.33.67.67,0,0,0,.24.42h0l.08.06.07,0,.12.05.06,0h0l0,0a.26.26,0,0,0,.15,0h.08A.32.32,0,0,0,204.71,78.5Z"/><path class="cls-18" d="M206.54,79.1a1.11,1.11,0,0,0-.16-.35l-.08-.12v0c-.19-.38-.68-.39-.72-.09l0,0a.47.47,0,0,0-.08.33.67.67,0,0,0,.24.43h0l.08.05.06,0a.34.34,0,0,0,.12.06l.07,0h0l0,0a.38.38,0,0,0,.15,0h.08A.31.31,0,0,0,206.54,79.1Z"/><path class="cls-18" d="M208.57,79.75a1.13,1.13,0,0,0-.17-.35l-.07-.11v0c-.18-.38-.67-.4-.71-.09l0,0a.46.46,0,0,0-.07.33.66.66,0,0,0,.23.43h0l.08,0,.07,0a.67.67,0,0,0,.12.06l.06,0h0l0,0h.23A.32.32,0,0,0,208.57,79.75Z"/><path class="cls-18" d="M196.7,68.17a1.23,1.23,0,0,0-.16-.35l-.08-.12h0c-.18-.38-.67-.4-.71-.09l0,0a.44.44,0,0,0-.08.33.67.67,0,0,0,.24.43h0l.08.06.06,0,.12.05.07,0h0l.05,0a.39.39,0,0,0,.15,0h.08C196.67,68.55,196.75,68.38,196.7,68.17Z"/><path class="cls-18" d="M198.54,68.77a1,1,0,0,0-.17-.35.75.75,0,0,0-.07-.12h0c-.18-.39-.67-.4-.71-.1a.05.05,0,0,0,0,0,.44.44,0,0,0-.08.33.61.61,0,0,0,.24.42h0l.08.06.07,0,.12,0,.07,0h0l.05,0a.23.23,0,0,0,.14,0h.09A.32.32,0,0,0,198.54,68.77Z"/><path class="cls-18" d="M200.57,69.43a1.14,1.14,0,0,0-.17-.35l-.07-.12v0c-.18-.38-.68-.39-.72-.09,0,0,0,0,0,0a.54.54,0,0,0-.08.34.73.73,0,0,0,.24.42h0l.08,0,.07,0a.27.27,0,0,0,.12.06l.06,0h0l0,0a.33.33,0,0,0,.14,0h.08A.33.33,0,0,0,200.57,69.43Z"/><path class="cls-18" d="M202.68,70.11a1.13,1.13,0,0,0-.17-.35l-.07-.11v0c-.18-.38-.67-.4-.71-.09l0,0a.46.46,0,0,0-.07.33.66.66,0,0,0,.23.43h0l.08.06.07,0,.12.06.06,0h0l.05,0h.23A.32.32,0,0,0,202.68,70.11Z"/><path class="cls-18" d="M204.71,70.77a1.41,1.41,0,0,0-.17-.35.44.44,0,0,0-.08-.11v0c-.18-.38-.68-.4-.72-.09l0,0a.49.49,0,0,0-.08.33.72.72,0,0,0,.24.43h0l.08.06.07,0,.12,0,.06,0h0l0,0a.41.41,0,0,0,.15,0h.08A.32.32,0,0,0,204.71,70.77Z"/><path class="cls-18" d="M206.54,71.37a1.23,1.23,0,0,0-.16-.35l-.08-.12h0c-.19-.39-.68-.4-.72-.1l0,0a.44.44,0,0,0-.08.33.63.63,0,0,0,.24.42h0l.08.06.06,0,.12,0,.07,0h0l0,0a.26.26,0,0,0,.15,0h.08A.32.32,0,0,0,206.54,71.37Z"/><path class="cls-18" d="M208.57,72a1,1,0,0,0-.17-.35l-.07-.12h0c-.18-.39-.67-.4-.71-.1l0,0a.48.48,0,0,0-.07.34.66.66,0,0,0,.23.42h0l.08,0,.07,0a.34.34,0,0,0,.12.06l.06,0h0l0,0a.23.23,0,0,0,.14,0h.09A.33.33,0,0,0,208.57,72Z"/><path class="cls-18" d="M195.51,77.44a1.26,1.26,0,0,0-.17-.35l-.08-.12h0c-.19-.38-.68-.4-.72-.09l0,0a.44.44,0,0,0-.08.33.72.72,0,0,0,.24.43h0l.08.06.06,0,.13,0,.06,0h0l0,0a.41.41,0,0,0,.15,0h.08A.32.32,0,0,0,195.51,77.44Z"/><path class="cls-18" d="M197.53,78.1a1,1,0,0,0-.17-.35.75.75,0,0,0-.07-.12h0c-.18-.39-.67-.4-.71-.09,0,0,0,0,0,0a.44.44,0,0,0-.08.33.59.59,0,0,0,.24.42h0l.08.06.07,0,.12,0,.07,0h0l0,0a.23.23,0,0,0,.14,0h.09A.32.32,0,0,0,197.53,78.1Z"/><path class="cls-18" d="M199.37,78.7a1,1,0,0,0-.17-.35l-.07-.12v0c-.18-.38-.68-.39-.72-.09l0,0a.53.53,0,0,0-.08.33.72.72,0,0,0,.24.43h0l.08,0,.07,0a.34.34,0,0,0,.12.06l.06,0h0l.05,0a.34.34,0,0,0,.14,0h.09A.32.32,0,0,0,199.37,78.7Z"/><path class="cls-18" d="M201.4,79.35a1.87,1.87,0,0,0-.17-.35,1,1,0,0,1-.08-.11v0c-.19-.38-.68-.4-.72-.09l0,0a.47.47,0,0,0-.08.33.72.72,0,0,0,.24.43h0l.08,0,.06,0a.31.31,0,0,0,.13.06l.06,0h0l0,0h.23A.32.32,0,0,0,201.4,79.35Z"/><path class="cls-18" d="M203.51,80a1.26,1.26,0,0,0-.17-.35l-.07-.12h0c-.18-.38-.68-.4-.72-.09,0,0,0,0,0,0a.49.49,0,0,0-.08.33.72.72,0,0,0,.24.43h0l.08.06.07,0,.12,0,.06,0h0l.05,0a.36.36,0,0,0,.14,0h.09A.32.32,0,0,0,203.51,80Z"/><path class="cls-18" d="M205.54,80.7a1.62,1.62,0,0,0-.17-.35l-.08-.12h0c-.19-.39-.68-.4-.72-.09l0,0a.44.44,0,0,0-.08.33.72.72,0,0,0,.24.43h0l.08.06.06,0,.13,0,.06,0h0l0,0a.26.26,0,0,0,.15,0h.08A.33.33,0,0,0,205.54,80.7Z"/><path class="cls-18" d="M207.37,81.3a1.11,1.11,0,0,0-.16-.35l-.08-.12v0c-.18-.38-.67-.39-.71-.09,0,0,0,0,0,0a.48.48,0,0,0-.08.34.68.68,0,0,0,.24.42h0l.08,0,.07,0,.12.06.07,0h0l.05,0a.34.34,0,0,0,.14,0h.09A.32.32,0,0,0,207.37,81.3Z"/><path class="cls-18" d="M209.4,82a1.14,1.14,0,0,0-.17-.35l-.07-.12v0c-.18-.38-.68-.39-.72-.09,0,0,0,0,0,0a.53.53,0,0,0-.08.33.72.72,0,0,0,.24.43h0l.08,0,.07,0,.12.06.06,0h0l.05,0h.23A.32.32,0,0,0,209.4,82Z"/><path class="cls-18" d="M196.7,79.76a1.36,1.36,0,0,0-.16-.35,1,1,0,0,0-.08-.11v0c-.18-.38-.67-.4-.71-.09,0,0,0,0,0,0a.46.46,0,0,0-.08.33.67.67,0,0,0,.24.43h0L196,80l.06,0,.12.06.07,0h0l.05,0a.39.39,0,0,0,.15,0h.08C196.67,80.14,196.75,80,196.7,79.76Z"/><path class="cls-18" d="M198.54,80.36a1,1,0,0,0-.17-.35.75.75,0,0,0-.07-.12h0c-.18-.39-.67-.4-.71-.09l0,0a.44.44,0,0,0-.08.33.59.59,0,0,0,.24.42h0l.08.06.07,0,.12,0,.07,0h0l.05,0a.23.23,0,0,0,.14,0h.09A.32.32,0,0,0,198.54,80.36Z"/><path class="cls-18" d="M200.57,81a1.14,1.14,0,0,0-.17-.35l-.07-.12h0c-.18-.39-.68-.4-.72-.1,0,0,0,0,0,0a.54.54,0,0,0-.08.34.73.73,0,0,0,.24.42h0l.08.05.07,0a.27.27,0,0,0,.12.06l.06,0h0l0,0a.23.23,0,0,0,.14,0h.08A.33.33,0,0,0,200.57,81Z"/><path class="cls-18" d="M202.68,81.7a1.13,1.13,0,0,0-.17-.35l-.07-.11v0c-.18-.38-.67-.4-.71-.09l0,0a.46.46,0,0,0-.07.33.66.66,0,0,0,.23.43h0l.08.06.07,0,.12.06.06,0h0l.05,0h.23A.32.32,0,0,0,202.68,81.7Z"/><path class="cls-18" d="M204.71,82.36a1.41,1.41,0,0,0-.17-.35.44.44,0,0,0-.08-.11v0c-.18-.38-.68-.4-.72-.09l0,0a.53.53,0,0,0-.08.33.72.72,0,0,0,.24.43h0l.08.06.07,0a.45.45,0,0,0,.12.06l.06,0h0l0,0h.23A.32.32,0,0,0,204.71,82.36Z"/><path class="cls-18" d="M206.54,83a1.23,1.23,0,0,0-.16-.35l-.08-.12h0c-.19-.39-.68-.4-.72-.09l0,0a.44.44,0,0,0-.08.33.63.63,0,0,0,.24.42h0l.08.06.06,0,.12,0,.07,0h0l0,0a.26.26,0,0,0,.15,0,.21.21,0,0,0,.08,0A.32.32,0,0,0,206.54,83Z"/><path class="cls-18" d="M208.57,83.62a1,1,0,0,0-.17-.35l-.07-.12h0c-.18-.39-.67-.4-.71-.1l0,0a.44.44,0,0,0-.07.33.64.64,0,0,0,.23.42h0l.08,0,.07,0,.12,0,.06,0h0l0,0a.23.23,0,0,0,.14,0h.09A.33.33,0,0,0,208.57,83.62Z"/><path class="cls-18" d="M195.51,81a1.26,1.26,0,0,0-.17-.35l-.08-.12h0c-.19-.39-.68-.4-.72-.1,0,0,0,0,0,0a.44.44,0,0,0-.08.33.67.67,0,0,0,.24.42h0l.08.06.06,0,.13.05.06,0h0l0,0a.26.26,0,0,0,.15,0h.08A.33.33,0,0,0,195.51,81Z"/><path class="cls-18" d="M197.53,81.69a1,1,0,0,0-.17-.35.75.75,0,0,0-.07-.12h0c-.18-.39-.67-.4-.71-.1,0,0,0,0,0,0a.48.48,0,0,0-.08.34.63.63,0,0,0,.24.42h0l.08,0,.07,0a.34.34,0,0,0,.12.06l.07,0h0l0,0a.23.23,0,0,0,.14,0h.09A.32.32,0,0,0,197.53,81.69Z"/><path class="cls-18" d="M199.37,82.28a1.13,1.13,0,0,0-.17-.35l-.07-.11v0c-.18-.38-.68-.4-.72-.09,0,0,0,0,0,0a.53.53,0,0,0-.08.33.72.72,0,0,0,.24.43h0a.24.24,0,0,0,.08.06l.07,0,.12.06.06,0h0l.05,0h.23A.32.32,0,0,0,199.37,82.28Z"/><path class="cls-18" d="M201.4,82.94a1.87,1.87,0,0,0-.17-.35,1,1,0,0,0-.08-.11v0c-.19-.38-.68-.4-.72-.09l0,0a.46.46,0,0,0-.08.33.72.72,0,0,0,.24.43h0l.08.06.06,0,.13.06.06,0h0l0,0a.41.41,0,0,0,.15,0h.08A.32.32,0,0,0,201.4,82.94Z"/><path class="cls-18" d="M203.51,83.63a1.26,1.26,0,0,0-.17-.35l-.07-.12h0c-.18-.39-.68-.4-.72-.09l0,0a.49.49,0,0,0-.08.33.67.67,0,0,0,.24.42h0l.08.06.07,0,.12,0,.06,0h0l.05,0a.23.23,0,0,0,.14,0h.09A.33.33,0,0,0,203.51,83.63Z"/><path class="cls-18" d="M205.54,84.29a1.42,1.42,0,0,0-.17-.35l-.08-.12h0c-.19-.39-.68-.4-.72-.1l0,0a.48.48,0,0,0-.08.34.73.73,0,0,0,.24.42h0l.08,0,.06,0a.31.31,0,0,0,.13.06l.06,0h0l0,0a.26.26,0,0,0,.15,0h.08A.34.34,0,0,0,205.54,84.29Z"/><path class="cls-18" d="M207.37,84.88a1.36,1.36,0,0,0-.16-.35,1,1,0,0,1-.08-.11v0c-.18-.38-.67-.4-.71-.09,0,0,0,0,0,0a.47.47,0,0,0-.08.33.67.67,0,0,0,.24.43h0l.08,0,.07,0,.12.06.07,0h0l.05,0h.23C207.34,85.26,207.42,85.09,207.37,84.88Z"/><path class="cls-18" d="M209.4,85.54a1.41,1.41,0,0,0-.17-.35l-.07-.11v0c-.18-.38-.68-.4-.72-.09,0,0,0,0,0,0a.53.53,0,0,0-.08.33.72.72,0,0,0,.24.43h0l.08.06.07,0,.12.06.06,0h0l.05,0h.23A.32.32,0,0,0,209.4,85.54Z"/><path class="cls-18" d="M196.7,83.35a1.23,1.23,0,0,0-.16-.35l-.08-.12h0c-.18-.39-.67-.4-.71-.09,0,0,0,0,0,0a.44.44,0,0,0-.08.33.67.67,0,0,0,.24.43h0l.08.06.06,0,.12,0,.07,0h0l.05,0a.26.26,0,0,0,.15,0,.21.21,0,0,0,.08,0A.32.32,0,0,0,196.7,83.35Z"/><path class="cls-18" d="M198.54,84a1,1,0,0,0-.17-.35.75.75,0,0,0-.07-.12v0c-.18-.38-.67-.39-.71-.09,0,0,0,0,0,0a.48.48,0,0,0-.08.34.63.63,0,0,0,.24.42h0l.08,0,.07,0a.34.34,0,0,0,.12.06l.07,0h0l.05,0a.34.34,0,0,0,.14,0h.09A.32.32,0,0,0,198.54,84Z"/><path class="cls-18" d="M200.57,84.61a1.14,1.14,0,0,0-.17-.35l-.07-.12v0c-.18-.38-.68-.39-.72-.09,0,0,0,0,0,0a.53.53,0,0,0-.08.33.72.72,0,0,0,.24.43h0l.08,0,.07,0A.27.27,0,0,0,200,85l.06,0h0l0,0h.22A.31.31,0,0,0,200.57,84.61Z"/><path class="cls-18" d="M202.68,85.29a1.13,1.13,0,0,0-.17-.35l-.07-.11v0c-.18-.38-.67-.4-.71-.09l0,0a.44.44,0,0,0-.07.33.66.66,0,0,0,.23.43h0l.08.06.07,0,.12,0,.06,0h0l.05,0a.36.36,0,0,0,.14,0h.09A.32.32,0,0,0,202.68,85.29Z"/><path class="cls-18" d="M204.71,86a1.26,1.26,0,0,0-.17-.35.83.83,0,0,0-.08-.12h0c-.18-.39-.68-.4-.72-.09,0,0,0,0,0,0a.49.49,0,0,0-.08.33.72.72,0,0,0,.24.43h0l.08.06.07,0,.12,0,.06,0h0l0,0a.41.41,0,0,0,.15,0h.08A.32.32,0,0,0,204.71,86Z"/><path class="cls-18" d="M206.54,86.55a1.11,1.11,0,0,0-.16-.35l-.08-.12h0c-.19-.39-.68-.4-.72-.1l0,0a.48.48,0,0,0-.08.34.68.68,0,0,0,.24.42h0l.08,0,.06,0a.34.34,0,0,0,.12.06l.07,0h0l0,0a.26.26,0,0,0,.15,0h.08A.32.32,0,0,0,206.54,86.55Z"/><path class="cls-18" d="M208.57,87.21a1,1,0,0,0-.17-.35l-.07-.12v0c-.18-.38-.67-.39-.71-.09l0,0a.46.46,0,0,0-.07.33.66.66,0,0,0,.23.43h0l.08,0,.07,0a.34.34,0,0,0,.12.06l.06,0h0l0,0a.34.34,0,0,0,.14,0h.09A.32.32,0,0,0,208.57,87.21Z"/><polygon class="cls-18" points="198.19 61.17 197 60.8 195.36 61.36 195.36 64.02 196.72 65.47 198.19 65.94 198.19 61.17"/><polygon class="cls-18" points="198.65 61.31 198.65 66.09 205.57 68.28 205.57 63.46 198.65 61.31"/><polygon class="cls-18" points="207.04 63.92 206.03 63.6 206.03 68.42 207.27 68.81 208.87 67.88 208.87 65.59 207.04 63.92"/><ellipse class="cls-10" cx="202.27" cy="33.05" rx="2.88" ry="1.77"/><ellipse class="cls-10" cx="202.27" cy="26.63" rx="2.01" ry="1.23"/><polygon class="cls-10" points="200.26 26.63 199.39 33.05 205.15 33.05 204.28 26.63 200.26 26.63"/><ellipse class="cls-10" cx="213.33" cy="36.27" rx="2.88" ry="1.77"/><ellipse class="cls-10" cx="213.33" cy="7.86" rx="2.01" ry="1.23"/><polygon class="cls-10" points="211.32 7.86 210.45 36.27 216.21 36.27 215.34 7.86 211.32 7.86"/><path class="cls-18" d="M216.21,49.61V75s-.13,3.86,1.87,3.26a2.12,2.12,0,0,0,1.76-2c.62-1.49,0-27.46,0-27.46s.07-2.49-1.18-2.81-1.82,1-2.08,1.43A7.58,7.58,0,0,0,216.21,49.61Z"/><ellipse class="cls-10" cx="274.24" cy="49.95" rx="1.77" ry="2.88" transform="translate(36.4 195.33) rotate(-41.76)"/><ellipse class="cls-10" cx="279.03" cy="45.68" rx="1.23" ry="2.01" transform="translate(40.46 197.43) rotate(-41.76)"/><polygon class="cls-10" points="277.69 44.18 272.32 47.8 276.16 52.1 280.37 47.18 277.69 44.18"/><ellipse class="cls-10" cx="286.68" cy="55.51" rx="1.77" ry="2.88" transform="translate(35.86 205.03) rotate(-41.76)"/><ellipse class="cls-10" cx="307.87" cy="36.6" rx="1.23" ry="2.01" transform="translate(53.84 214.33) rotate(-41.76)"/><polygon class="cls-10" points="306.53 35.1 284.76 53.37 288.6 57.66 309.21 38.1 306.53 35.1"/><path class="cls-5" d="M244.65,67.8s-7.05,3.94-7.47,5.67-1.74,9.62,0,11.82,20.32,8.44,22.3,7.16,30.23-27,30.85-29.25.59-13.05.59-13.05l-37.67,15.3Z"/><path class="cls-7" d="M269.28,45.8c-1.39.38-32.18,25.92-32.1,27.67.1,2.37,18.3,7.12,22.89,6s31.61-27.77,30.85-29.34S271.3,45.27,269.28,45.8Z"/><path class="cls-17" d="M284.22,51.76,270.33,49a4.62,4.62,0,0,1-.71.18l-8.39,6.83c0,.16.09.31.13.47l15.12,3.39c.18-.06.36-.13.55-.18l.21-.07,7.09-7.34C284.29,52.13,284.25,51.94,284.22,51.76Z"/><path class="cls-18" d="M283.32,62,265,79.63s-2.87,2.59-1,3.62a2.11,2.11,0,0,0,2.62-.1c1.51-.58,19.74-19.09,19.74-19.09s1.83-1.68,1.2-2.81-2-.6-2.48-.5A7.55,7.55,0,0,0,283.32,62Z"/><polygon class="cls-18" points="270.54 60.86 271.72 61.2 272.43 62.59 270.47 64.38 268.71 64.97 266.79 64.43 270.54 60.86"/><polygon class="cls-18" points="270.08 60.73 266.29 64.27 259.02 62.52 263.21 59.05 270.08 60.73"/><polygon class="cls-18" points="260.78 58.48 262.5 58.88 258.56 62.4 257.37 61.97 257.09 60.65 259.33 58.67 260.78 58.48"/><path class="cls-18" d="M266.29,69.13l.07.05a.31.31,0,0,0,.14.07l.05,0h0l.08,0,.14,0H267a.91.91,0,0,0,.51-.16.45.45,0,0,0,.17-.27v0c.19-.23-.25-.49-.68-.32h0l-.15,0a1.59,1.59,0,0,0-.4.16C266.23,68.85,266.18,69,266.29,69.13Z"/><path class="cls-18" d="M264.06,68.49l.07.05a.46.46,0,0,0,.14.07h.05l.08,0,.14,0h.21a.91.91,0,0,0,.51-.17.41.41,0,0,0,.17-.27v0c.19-.23-.25-.49-.68-.33h0l-.15,0a1.58,1.58,0,0,0-.4.15C264,68.2,264,68.37,264.06,68.49Z"/><path class="cls-18" d="M262,67.9a.18.18,0,0,0,.07,0,.27.27,0,0,0,.13.07l.06,0h0l.07,0,.15,0h.21a.91.91,0,0,0,.51-.16.45.45,0,0,0,.17-.27v0c.18-.23-.25-.49-.69-.32h0l-.15,0a1.59,1.59,0,0,0-.4.16C262,67.62,261.93,67.78,262,67.9Z"/><path class="cls-18" d="M259.81,67.26l.07,0a.4.4,0,0,0,.13.07h.06l.07,0,.15,0h.21a.91.91,0,0,0,.51-.17.41.41,0,0,0,.17-.27v0c.18-.23-.26-.49-.69-.33h0l-.15,0a1.58,1.58,0,0,0-.4.15C259.74,67,259.69,67.14,259.81,67.26Z"/><path class="cls-18" d="M257.48,66.59l.07,0a.91.91,0,0,0,.14.07h.06l.07,0a.32.32,0,0,0,.14,0h.09a.41.41,0,0,0,.11,0h0a.84.84,0,0,0,.51-.16.41.41,0,0,0,.17-.27v0c.19-.24-.25-.5-.68-.33h0L258,66a1.38,1.38,0,0,0-.39.15C257.42,66.3,257.37,66.47,257.48,66.59Z"/><path class="cls-18" d="M255.25,65.94l.07,0a.46.46,0,0,0,.14.07h.06l.07,0,.14,0h.21a1,1,0,0,0,.51-.16.45.45,0,0,0,.17-.28v0c.19-.23-.25-.49-.68-.32h0l-.15,0a1.38,1.38,0,0,0-.39.15C255.19,65.66,255.14,65.82,255.25,65.94Z"/><path class="cls-18" d="M253.23,65.36l.07,0,.13.07h.06l.07,0a.4.4,0,0,0,.15,0h.09a.4.4,0,0,0,.11,0h0a.84.84,0,0,0,.51-.16.41.41,0,0,0,.17-.27v0c.19-.24-.25-.49-.69-.33h0l-.15,0a1.58,1.58,0,0,0-.4.15C253.16,65.07,253.12,65.24,253.23,65.36Z"/><path class="cls-18" d="M251,64.71l.07.05a.33.33,0,0,0,.13.07h.06l.07,0,.15,0h.21a1,1,0,0,0,.51-.16.45.45,0,0,0,.17-.28v0c.19-.23-.25-.49-.69-.32h0l-.15,0a1.58,1.58,0,0,0-.4.15C250.93,64.43,250.89,64.59,251,64.71Z"/><path class="cls-18" d="M263.59,70.09l.07,0a.91.91,0,0,0,.14.07h.06l.07,0a.32.32,0,0,0,.14,0h.21a.91.91,0,0,0,.51-.16.43.43,0,0,0,.17-.27v0c.19-.23-.25-.49-.68-.32h0l-.15,0a1.38,1.38,0,0,0-.39.15C263.53,69.8,263.48,70,263.59,70.09Z"/><path class="cls-18" d="M261.57,69.5l.07,0,.13.07h.06l.08,0,.14,0h.21a.91.91,0,0,0,.51-.17.41.41,0,0,0,.17-.27v0c.19-.23-.25-.49-.69-.33h0l-.15,0a1.58,1.58,0,0,0-.4.15C261.51,69.22,261.46,69.38,261.57,69.5Z"/><path class="cls-18" d="M259.34,68.86l.07,0,.13.07h.06l.08,0a.32.32,0,0,0,.14,0H260a.91.91,0,0,0,.51-.16.43.43,0,0,0,.17-.27v0c.19-.23-.25-.49-.69-.32h0l-.15,0a1.58,1.58,0,0,0-.4.15C259.27,68.57,259.23,68.74,259.34,68.86Z"/><path class="cls-18" d="M257,68.18a.15.15,0,0,0,.06,0,.31.31,0,0,0,.14.07h.06l.07,0,.15,0h.2a.88.88,0,0,0,.51-.16.38.38,0,0,0,.17-.28,0,0,0,0,1,0,0c.18-.23-.26-.49-.69-.32h0l-.15,0a1.51,1.51,0,0,0-.39.15C257,67.9,256.9,68.06,257,68.18Z"/><path class="cls-18" d="M254.79,67.54s0,0,.06,0a.46.46,0,0,0,.14.07h.06l.07,0,.14,0h.21a.89.89,0,0,0,.51-.17.34.34,0,0,0,.17-.27,0,0,0,0,1,0,0c.18-.24-.26-.49-.69-.33h0l-.15,0a1.51,1.51,0,0,0-.39.15C254.72,67.25,254.67,67.42,254.79,67.54Z"/><path class="cls-18" d="M252.76,67l.07,0a.31.31,0,0,0,.14.07H253l.07,0,.14,0h.21A.91.91,0,0,0,254,67a.45.45,0,0,0,.17-.28v0c.19-.23-.25-.49-.68-.32h0l-.15,0a1.38,1.38,0,0,0-.39.15C252.7,66.67,252.65,66.83,252.76,67Z"/><path class="cls-18" d="M250.53,66.31l.07,0a.46.46,0,0,0,.14.07h0l.08,0,.14,0h.21a.91.91,0,0,0,.51-.17.41.41,0,0,0,.17-.27v0c.19-.24-.25-.49-.68-.33h0l-.15,0a1.58,1.58,0,0,0-.4.15C250.47,66,250.42,66.19,250.53,66.31Z"/><path class="cls-18" d="M263.53,71.8l.07,0a.46.46,0,0,0,.14.07h.06l.07,0,.14,0h.21a.91.91,0,0,0,.51-.17.41.41,0,0,0,.17-.27v0c.19-.23-.25-.49-.68-.33h0l-.15,0a1.38,1.38,0,0,0-.39.15C263.47,71.51,263.42,71.68,263.53,71.8Z"/><path class="cls-18" d="M261.3,71.15l.07,0a.31.31,0,0,0,.14.07l.05,0h0l.07,0a.32.32,0,0,0,.14,0H262a.91.91,0,0,0,.51-.16.45.45,0,0,0,.17-.27v0c.19-.23-.25-.49-.68-.32h0l-.15,0a1.38,1.38,0,0,0-.39.16C261.24,70.87,261.19,71,261.3,71.15Z"/><path class="cls-18" d="M259.28,70.57l.07.05.13.07h.06l.07,0,.15,0H260a.91.91,0,0,0,.51-.17.41.41,0,0,0,.17-.27v0c.19-.23-.25-.49-.69-.33h0l-.15,0a1.58,1.58,0,0,0-.4.15C259.21,70.28,259.17,70.45,259.28,70.57Z"/><path class="cls-18" d="M257.05,69.93l.07,0,.13.07h.06l.07,0,.15,0h.21a.91.91,0,0,0,.51-.16.45.45,0,0,0,.17-.27v0c.19-.23-.25-.49-.69-.32h0l-.15,0a1.58,1.58,0,0,0-.4.15C257,69.64,256.94,69.8,257.05,69.93Z"/><path class="cls-18" d="M254.72,69.25l.07,0a.31.31,0,0,0,.14.07H255l.07,0,.14,0h.21a1,1,0,0,0,.51-.16.41.41,0,0,0,.17-.28v0c.19-.23-.25-.49-.68-.32h0l-.15,0a1.51,1.51,0,0,0-.39.15C254.66,69,254.61,69.13,254.72,69.25Z"/><path class="cls-18" d="M252.49,68.61l.07,0a.46.46,0,0,0,.14.07h.06l.07,0a.32.32,0,0,0,.14,0h.09a.41.41,0,0,0,.11,0h0a.91.91,0,0,0,.51-.17.41.41,0,0,0,.17-.27v0c.19-.24-.25-.49-.68-.33h0l-.15,0a1.51,1.51,0,0,0-.39.15C252.43,68.32,252.38,68.49,252.49,68.61Z"/><path class="cls-18" d="M250.47,68l.07,0a.31.31,0,0,0,.14.07h0l.08,0,.14,0h.21a1,1,0,0,0,.51-.16.45.45,0,0,0,.17-.28v0c.19-.23-.25-.49-.68-.32h0l-.15,0a1.58,1.58,0,0,0-.4.15C250.41,67.74,250.36,67.9,250.47,68Z"/><path class="cls-18" d="M248.24,67.38l.07.05a.46.46,0,0,0,.14.07h.13a.32.32,0,0,0,.14,0h.09a.4.4,0,0,0,.11,0h0a.91.91,0,0,0,.51-.17.41.41,0,0,0,.17-.27v0c.19-.24-.25-.49-.69-.33h0l-.15,0a1.58,1.58,0,0,0-.4.15C248.18,67.09,248.13,67.26,248.24,67.38Z"/><path class="cls-18" d="M260.84,72.75a.15.15,0,0,0,.06,0l.14.07h.06l.07,0,.14,0h.21a.89.89,0,0,0,.51-.17.34.34,0,0,0,.17-.27,0,0,0,0,1,0,0c.18-.23-.26-.49-.69-.33h0l-.15,0a1.51,1.51,0,0,0-.39.15C260.77,72.47,260.72,72.63,260.84,72.75Z"/><path class="cls-18" d="M258.81,72.17l.07,0,.14.07h.06l.07,0a.32.32,0,0,0,.14,0h.09a.41.41,0,0,0,.11,0h0a.91.91,0,0,0,.51-.16.43.43,0,0,0,.17-.27v0c.19-.23-.25-.49-.68-.32h0l-.15,0a1.38,1.38,0,0,0-.39.15C258.75,71.88,258.7,72.05,258.81,72.17Z"/><path class="cls-18" d="M256.58,71.52l.07,0a.46.46,0,0,0,.14.07h0l.08,0,.14,0h.21a.91.91,0,0,0,.51-.17.41.41,0,0,0,.17-.27v0c.19-.23-.25-.49-.68-.33h0l-.15,0a1.58,1.58,0,0,0-.4.15C256.52,71.24,256.47,71.4,256.58,71.52Z"/><path class="cls-18" d="M254.26,70.85l.07.05a.32.32,0,0,0,.13.07h.06l.07,0,.15,0h.2a1,1,0,0,0,.52-.17.36.36,0,0,0,.16-.27s0,0,0,0c.18-.24-.26-.49-.69-.33h0l-.15,0a1.66,1.66,0,0,0-.39.15C254.19,70.56,254.14,70.73,254.26,70.85Z"/><path class="cls-18" d="M252,70.2a.18.18,0,0,0,.07,0,.23.23,0,0,0,.13.07h.06l.07,0,.15,0h.2a.94.94,0,0,0,.52-.16.39.39,0,0,0,.16-.27s0,0,0,0c.18-.23-.26-.49-.69-.32h0l-.15,0a1.66,1.66,0,0,0-.39.15C252,69.92,251.91,70.08,252,70.2Z"/><path class="cls-18" d="M250,69.62l.07,0a.46.46,0,0,0,.14.07h.06l.07,0,.14,0h.21a.91.91,0,0,0,.51-.17.41.41,0,0,0,.17-.27v0c.19-.24-.25-.49-.68-.33h0l-.15,0a1.38,1.38,0,0,0-.39.15C249.94,69.33,249.89,69.5,250,69.62Z"/><path class="cls-18" d="M247.77,69l.07,0a.31.31,0,0,0,.14.07H248l.07,0,.14,0h.21A.91.91,0,0,0,249,69a.45.45,0,0,0,.17-.27v0c.19-.23-.25-.49-.68-.32h0l-.15,0a1.38,1.38,0,0,0-.39.15C247.71,68.69,247.66,68.85,247.77,69Z"/><path class="cls-18" d="M266.35,67.42l.07,0a.46.46,0,0,0,.14.07h.06l.07,0,.14,0H267a.91.91,0,0,0,.51-.17.41.41,0,0,0,.17-.27v0c.19-.23-.25-.49-.68-.33h0l-.15,0a1.38,1.38,0,0,0-.39.15C266.29,67.13,266.24,67.3,266.35,67.42Z"/><path class="cls-18" d="M264.33,66.84l.07,0,.13.07h.06l.07,0a.4.4,0,0,0,.15,0H265a.91.91,0,0,0,.51-.16.43.43,0,0,0,.17-.27v0c.19-.23-.25-.49-.69-.32h0l-.15,0a1.58,1.58,0,0,0-.4.15C264.26,66.55,264.22,66.72,264.33,66.84Z"/><path class="cls-18" d="M262.1,66.19a.18.18,0,0,0,.07,0l.13.07h.06l.07,0,.15,0h.21a.91.91,0,0,0,.51-.17.41.41,0,0,0,.17-.27v0c.19-.23-.25-.49-.69-.33h0l-.15,0a1.58,1.58,0,0,0-.4.15C262,65.91,262,66.07,262.1,66.19Z"/><path class="cls-18" d="M259.77,65.52l.07,0a.46.46,0,0,0,.14.07h.13a.32.32,0,0,0,.14,0h.09a.41.41,0,0,0,.11,0h0a.91.91,0,0,0,.51-.17.41.41,0,0,0,.17-.27v0c.19-.24-.25-.49-.68-.33h0l-.15,0a1.51,1.51,0,0,0-.39.15C259.71,65.23,259.66,65.4,259.77,65.52Z"/><path class="cls-18" d="M257.54,64.87l.07,0a.31.31,0,0,0,.14.07h.06l.07,0,.14,0h.21a1,1,0,0,0,.51-.16.45.45,0,0,0,.17-.28v0c.19-.23-.25-.49-.68-.32h0l-.15,0a1.38,1.38,0,0,0-.39.15C257.48,64.59,257.43,64.75,257.54,64.87Z"/><path class="cls-18" d="M255.52,64.29l.07,0a.46.46,0,0,0,.14.07h.13a.32.32,0,0,0,.14,0h.21a.91.91,0,0,0,.51-.17.41.41,0,0,0,.17-.27v0c.19-.24-.25-.49-.69-.33h0l-.15,0a1.58,1.58,0,0,0-.4.15C255.46,64,255.41,64.17,255.52,64.29Z"/><path class="cls-18" d="M253.29,63.64l.07,0a.33.33,0,0,0,.13.07h.06l.08,0,.14,0H254a.91.91,0,0,0,.51-.16.45.45,0,0,0,.17-.28v0c.19-.23-.25-.49-.69-.32h0l-.15,0a1.58,1.58,0,0,0-.4.15C253.22,63.36,253.18,63.52,253.29,63.64Z"/><path class="cls-18" d="M260.77,74.47l.07,0,.14.07H261l.07,0a.32.32,0,0,0,.14,0h.21a.91.91,0,0,0,.51-.16.45.45,0,0,0,.17-.27v0c.19-.23-.25-.49-.68-.32h0l-.15,0a1.51,1.51,0,0,0-.39.15C260.71,74.18,260.66,74.34,260.77,74.47Z"/><path class="cls-18" d="M258.54,73.82l.07.05a.46.46,0,0,0,.14.07h.06l.07,0,.14,0h.21a.91.91,0,0,0,.51-.17.41.41,0,0,0,.17-.27v0c.19-.23-.25-.49-.68-.33h0l-.15,0a1.51,1.51,0,0,0-.39.15C258.48,73.53,258.43,73.7,258.54,73.82Z"/><path class="cls-18" d="M256.52,73.24l.07.05.14.07h0l.08,0a.32.32,0,0,0,.14,0h.21a.91.91,0,0,0,.51-.16.43.43,0,0,0,.17-.27v0c.19-.23-.25-.49-.68-.32h0l-.15,0a1.58,1.58,0,0,0-.4.15C256.46,73,256.41,73.12,256.52,73.24Z"/><path class="cls-18" d="M254.29,72.59l.07,0a.46.46,0,0,0,.14.07h.05l.08,0,.14,0H255a.91.91,0,0,0,.51-.17.41.41,0,0,0,.17-.27v0c.19-.23-.25-.49-.69-.33h0l-.15,0a1.58,1.58,0,0,0-.4.15C254.23,72.31,254.18,72.47,254.29,72.59Z"/><path class="cls-18" d="M252,71.92s0,0,.07,0a.32.32,0,0,0,.13.07h.13a.33.33,0,0,0,.15,0h.08a.4.4,0,0,0,.11,0h0a1,1,0,0,0,.52-.17.36.36,0,0,0,.16-.27,0,0,0,0,1,0,0c.18-.24-.26-.49-.69-.33h0l-.15,0a1.66,1.66,0,0,0-.39.15C251.9,71.63,251.85,71.8,252,71.92Z"/><path class="cls-18" d="M249.74,71.27a.15.15,0,0,0,.06,0,.31.31,0,0,0,.14.07H250l.07,0,.15,0h.2a1,1,0,0,0,.51-.16.38.38,0,0,0,.17-.28,0,0,0,0,1,0,0c.18-.23-.26-.49-.69-.32h0l-.15,0a1.51,1.51,0,0,0-.39.15C249.67,71,249.62,71.15,249.74,71.27Z"/><path class="cls-18" d="M247.71,70.69l.07,0a.46.46,0,0,0,.14.07h.13a.32.32,0,0,0,.14,0h.21a.91.91,0,0,0,.51-.17.41.41,0,0,0,.17-.27v0c.19-.24-.25-.49-.68-.33h0l-.15,0a1.38,1.38,0,0,0-.39.15C247.65,70.4,247.6,70.57,247.71,70.69Z"/><path class="cls-18" d="M245.48,70l.07,0a.31.31,0,0,0,.14.07h.06l.07,0,.14,0h.21a.91.91,0,0,0,.51-.16.45.45,0,0,0,.17-.28v0c.19-.23-.25-.49-.68-.32h0l-.15,0a1.38,1.38,0,0,0-.39.15C245.42,69.76,245.37,69.92,245.48,70Z"/><path class="cls-18" d="M258.08,75.42l.07,0a.5.5,0,0,0,.13.07h.06l.07,0a.37.37,0,0,0,.15,0h.08a.4.4,0,0,0,.11,0h0a.94.94,0,0,0,.52-.16.37.37,0,0,0,.16-.27.08.08,0,0,1,0,0c.18-.23-.26-.49-.69-.32h0l-.15,0a1.66,1.66,0,0,0-.39.15C258,75.13,258,75.3,258.08,75.42Z"/><path class="cls-18" d="M256.05,74.83l.07,0a.46.46,0,0,0,.14.07h.06l.07,0,.14,0h.21a.91.91,0,0,0,.51-.17.41.41,0,0,0,.17-.27v0c.19-.23-.25-.49-.68-.32h0l-.15,0a1.38,1.38,0,0,0-.39.15C256,74.55,255.94,74.71,256.05,74.83Z"/><path class="cls-18" d="M253.82,74.19l.07,0a.91.91,0,0,0,.14.07h.06l.07,0a.32.32,0,0,0,.14,0h.09a.41.41,0,0,0,.11,0h0a.84.84,0,0,0,.51-.16.43.43,0,0,0,.17-.27v0c.19-.24-.25-.5-.68-.33h0l-.15,0a1.38,1.38,0,0,0-.39.15C253.76,73.9,253.71,74.07,253.82,74.19Z"/><path class="cls-18" d="M251.5,73.51a.18.18,0,0,0,.07,0,.23.23,0,0,0,.13.07h.06l.07,0,.15,0h.2a.94.94,0,0,0,.52-.16.39.39,0,0,0,.16-.27.08.08,0,0,0,0,0c.18-.23-.26-.49-.69-.32h0L252,73a1.58,1.58,0,0,0-.4.15C251.43,73.23,251.38,73.39,251.5,73.51Z"/><path class="cls-18" d="M249.27,72.87l.07,0a.32.32,0,0,0,.13.07h.06l.07,0,.15,0h.2a1,1,0,0,0,.52-.17.36.36,0,0,0,.16-.27,0,0,0,0,0,0,0c.18-.23-.26-.49-.69-.33h0l-.15,0a1.66,1.66,0,0,0-.39.15C249.2,72.58,249.15,72.75,249.27,72.87Z"/><path class="cls-18" d="M247.25,72.28a.15.15,0,0,0,.06,0,.31.31,0,0,0,.14.07l.05,0h0l.07,0a.58.58,0,0,0,.14,0h.21a.88.88,0,0,0,.51-.16.38.38,0,0,0,.17-.27s0,0,0,0c.18-.23-.26-.49-.69-.32h0l-.15,0a1.52,1.52,0,0,0-.39.16C247.18,72,247.13,72.16,247.25,72.28Z"/><path class="cls-18" d="M245,71.64l.07,0a.46.46,0,0,0,.14.07h.06l.07,0,.14,0h.21a.91.91,0,0,0,.51-.17.37.37,0,0,0,.17-.27v0c.19-.23-.25-.49-.68-.33h0l-.15,0a1.51,1.51,0,0,0-.39.15C245,71.35,244.9,71.52,245,71.64Z"/><path class="cls-18" d="M258.21,76.94l.07,0a.46.46,0,0,0,.14.07h.06l.07,0,.14,0h.21a.91.91,0,0,0,.51-.17.41.41,0,0,0,.17-.27v0c.19-.23-.25-.49-.68-.33h0l-.15,0a1.38,1.38,0,0,0-.39.15C258.15,76.65,258.1,76.82,258.21,76.94Z"/><path class="cls-18" d="M256,76.3l.07,0a.91.91,0,0,0,.14.07h.05l.08,0a.32.32,0,0,0,.14,0h.21a.91.91,0,0,0,.51-.16.45.45,0,0,0,.17-.27v0c.19-.23-.25-.49-.68-.32h0l-.15,0a1.58,1.58,0,0,0-.4.15C255.92,76,255.87,76.18,256,76.3Z"/><path class="cls-18" d="M254,75.71a.18.18,0,0,0,.07.05l.13.07h.06l.07,0,.15,0h.21a.91.91,0,0,0,.51-.17.41.41,0,0,0,.17-.27v0c.19-.23-.25-.49-.69-.33h0l-.15,0a1.58,1.58,0,0,0-.4.15C253.89,75.43,253.85,75.59,254,75.71Z"/><path class="cls-18" d="M251.73,75.07l.07.05.13.07H252l.07,0a.4.4,0,0,0,.15,0h.21a.91.91,0,0,0,.51-.16.43.43,0,0,0,.17-.27v0c.18-.23-.25-.49-.69-.32h0l-.15,0a1.58,1.58,0,0,0-.4.15C251.66,74.78,251.62,75,251.73,75.07Z"/><path class="cls-18" d="M249.4,74.39l.07,0a.31.31,0,0,0,.14.07h.06l.07,0,.14,0h.21a1,1,0,0,0,.51-.16.45.45,0,0,0,.17-.28v0c.19-.23-.25-.49-.68-.32h0l-.15,0a1.38,1.38,0,0,0-.39.15C249.34,74.11,249.29,74.27,249.4,74.39Z"/><path class="cls-18" d="M247.17,73.75l.07,0a.46.46,0,0,0,.14.07h.13a.32.32,0,0,0,.14,0h.21a.91.91,0,0,0,.51-.17.41.41,0,0,0,.17-.27v0c.19-.24-.25-.49-.68-.33h0l-.15,0a1.38,1.38,0,0,0-.39.15C247.11,73.46,247.06,73.63,247.17,73.75Z"/><path class="cls-18" d="M245.15,73.16l.07,0a.33.33,0,0,0,.13.07h.06l.08,0,.14,0h.21a.91.91,0,0,0,.51-.16.45.45,0,0,0,.17-.28v0c.19-.23-.25-.49-.69-.32h0l-.15,0a1.58,1.58,0,0,0-.4.15C245.08,72.88,245,73,245.15,73.16Z"/><path class="cls-18" d="M242.92,72.52l.07,0,.13.07h.06l.07,0,.15,0h.21a.91.91,0,0,0,.51-.17.41.41,0,0,0,.17-.27v0c.19-.24-.25-.49-.69-.33h0l-.15,0a1.58,1.58,0,0,0-.4.15C242.85,72.23,242.81,72.4,242.92,72.52Z"/><path class="cls-18" d="M255.51,77.89l.07,0a.46.46,0,0,0,.14.07h.06l.07,0,.14,0h.21a.91.91,0,0,0,.51-.17.41.41,0,0,0,.17-.27v0c.19-.23-.25-.49-.68-.32h0l-.15,0a1.51,1.51,0,0,0-.39.15C255.45,77.61,255.4,77.77,255.51,77.89Z"/><path class="cls-18" d="M253.49,77.31l.07,0,.14.07h.05l.08,0a.32.32,0,0,0,.14,0h.09a.41.41,0,0,0,.11,0h0a.84.84,0,0,0,.51-.16.43.43,0,0,0,.17-.27v0c.19-.23-.25-.49-.69-.32h0l-.15,0a1.58,1.58,0,0,0-.4.15C253.43,77,253.38,77.19,253.49,77.31Z"/><path class="cls-18" d="M251.26,76.66l.07,0a.46.46,0,0,0,.14.07h.05l.08,0,.14,0H252a.91.91,0,0,0,.51-.17.41.41,0,0,0,.17-.27v0c.19-.23-.25-.49-.69-.32h0l-.15,0a1.58,1.58,0,0,0-.4.15C251.2,76.38,251.15,76.54,251.26,76.66Z"/><path class="cls-18" d="M248.94,76s0,0,.07.05a.32.32,0,0,0,.13.07h.06l.07,0,.15,0h.2a1,1,0,0,0,.52-.17.36.36,0,0,0,.16-.27,0,0,0,0,1,0,0c.18-.24-.26-.49-.69-.33h0l-.15,0a1.66,1.66,0,0,0-.39.15C248.87,75.7,248.82,75.87,248.94,76Z"/><path class="cls-18" d="M246.71,75.34a.15.15,0,0,0,.06,0,.31.31,0,0,0,.14.07l.05,0h0l.07,0,.15,0h.2a.88.88,0,0,0,.51-.16.38.38,0,0,0,.17-.27s0,0,0,0c.18-.23-.26-.49-.69-.32h0l-.15,0a1.52,1.52,0,0,0-.39.16C246.64,75.06,246.59,75.22,246.71,75.34Z"/><path class="cls-18" d="M244.68,74.76l.07,0a.46.46,0,0,0,.14.07H245l.07,0,.14,0h.21a.91.91,0,0,0,.51-.17.41.41,0,0,0,.17-.27v0c.19-.23-.25-.49-.68-.33h0l-.15,0a1.38,1.38,0,0,0-.39.15C244.62,74.47,244.57,74.64,244.68,74.76Z"/><path class="cls-18" d="M242.45,74.11l.07,0a.31.31,0,0,0,.14.07l.05,0h0l.07,0a.58.58,0,0,0,.14,0h.21a.91.91,0,0,0,.51-.16.45.45,0,0,0,.17-.27v0c.19-.23-.25-.49-.68-.32h0l-.15,0a1.38,1.38,0,0,0-.39.16C242.39,73.83,242.34,74,242.45,74.11Z"/><path class="cls-19" d="M121.6,30.38A13.39,13.39,0,0,0,99.77,20c-.21.17-.41.35-.61.54L96.26,23l.44.51a13.39,13.39,0,0,0,16.72,19.17l.42.47,2.36-1.93A13.53,13.53,0,0,0,121.6,30.38Z"/><circle class="cls-17" cx="105.57" cy="32.66" r="13.39"/><path class="cls-5" d="M113.8,40.28A11.13,11.13,0,0,0,99.09,23.89h0c-.92.61-10,9.09-10,9.09l14.71,16.45s9.37-8.38,10-9.14h0Z"/><line class="cls-20" x1="113.69" y1="22.02" x2="116.4" y2="19.79"/><line class="cls-20" x1="115.19" y1="23.35" x2="117.86" y2="21.11"/><line class="cls-20" x1="112.34" y1="21.11" x2="115.38" y2="19.08"/><line class="cls-20" x1="110.82" y1="20.34" x2="113.69" y2="18.17"/><line class="cls-20" x1="108.57" y1="19.61" x2="111.5" y2="17.4"/><line class="cls-20" x1="106.83" y1="19.25" x2="109.55" y2="17.06"/><line class="cls-20" x1="104.9" y1="19.08" x2="107.46" y2="17.02"/><line class="cls-20" x1="102.74" y1="19.58" x2="104.93" y2="17.4"/><line class="cls-20" x1="100.33" y1="20.34" x2="102.76" y2="18.16"/><path class="cls-19" d="M83.12,30.38A13.39,13.39,0,0,0,61.29,20c-.21.17-.42.35-.62.54L57.78,23l.44.51A13.39,13.39,0,0,0,74.94,42.72l.41.47,2.37-1.93A13.56,13.56,0,0,0,83.12,30.38Z"/><circle class="cls-17" cx="67.09" cy="32.66" r="13.39"/><path class="cls-5" d="M75.32,40.28A11.13,11.13,0,0,0,60.61,23.89h0c-.92.61-10,9.09-10,9.09L65.3,49.43s9.38-8.38,10-9.14h0Z"/><line class="cls-20" x1="75.21" y1="22.02" x2="77.91" y2="19.79"/><line class="cls-20" x1="76.7" y1="23.35" x2="79.38" y2="21.11"/><line class="cls-20" x1="73.85" y1="21.11" x2="76.9" y2="19.08"/><line class="cls-20" x1="72.33" y1="20.34" x2="75.21" y2="18.17"/><line class="cls-20" x1="70.09" y1="19.61" x2="73.01" y2="17.4"/><line class="cls-20" x1="68.35" y1="19.25" x2="71.06" y2="17.06"/><line class="cls-20" x1="66.41" y1="19.08" x2="68.98" y2="17.02"/><line class="cls-20" x1="64.25" y1="19.58" x2="66.45" y2="17.4"/><line class="cls-20" x1="61.85" y1="20.34" x2="64.27" y2="18.16"/><line class="cls-20" x1="116.4" y1="24.78" x2="118.96" y2="22.69"/><line class="cls-20" x1="117.38" y1="26.35" x2="119.94" y2="23.93"/><line class="cls-20" x1="118.03" y1="27.74" x2="120.71" y2="25.57"/><line class="cls-20" x1="118.55" y1="29.34" x2="121.21" y2="27.19"/><line class="cls-20" x1="118.91" y1="31.45" x2="121.56" y2="29.34"/><line class="cls-20" x1="118.96" y1="32.96" x2="121.56" y2="31.12"/><line class="cls-20" x1="118.81" y1="34.68" x2="121.41" y2="32.66"/><line class="cls-20" x1="118.44" y1="36.36" x2="120.91" y2="34.68"/><line class="cls-20" x1="116.9" y1="39.81" x2="119.73" y2="37.31"/><line class="cls-20" x1="117.86" y1="37.98" x2="120.41" y2="35.98"/><polygon class="cls-5" points="66.78 22.02 106.18 22.05 106.18 36.36 90.18 45.35 55.07 38.56 66.78 22.02"/><polygon class="cls-18" points="55.89 34.68 91.75 34.68 92.19 47.93 55.89 45.35 55.89 34.68"/><path class="cls-17" d="M62.35,57.74A16,16,0,0,0,41.18,34.15h0l-14.74,13L47.94,70.9Z"/><circle class="cls-19" cx="37.25" cy="58.98" r="16.01"/><circle class="cls-10" cx="37.25" cy="58.98" r="12.93"/><path class="cls-17" d="M37.85,70A12.94,12.94,0,0,1,30.5,47.93,12.93,12.93,0,1,0,46.2,68.27,12.85,12.85,0,0,1,37.85,70Z"/><path class="cls-4" d="M66.07,46.05,53.37,57.19A16.49,16.49,0,0,1,48,70.9L62.41,57.74S66.88,52.63,66.07,46.05Z"/><path class="cls-3" d="M80.13,48c-3-1.11-9.62-1.84-12.2,4.33s18.4,12.53,18.51,6C86.53,52.92,84.47,49.58,80.13,48Z"/><path class="cls-3" d="M41.68,48c-3-1.11-9.61-1.84-12.2,4.33s18.4,12.53,18.51,6C48.08,52.92,46,49.58,41.68,48Z"/><path class="cls-11" d="M116.21,31.12,103.33,41.31l-1.79,3.46v6.41l4.64-3.89L114,40.14S117.23,36,116.21,31.12Z"/><path class="cls-17" d="M100.83,57.74A16,16,0,0,0,79.66,34.15h0l-14.74,13L86.42,70.9Z"/><circle class="cls-19" cx="75.73" cy="58.98" r="16.01"/><circle class="cls-10" cx="75.73" cy="58.98" r="12.93"/><path class="cls-17" d="M76.33,70A12.93,12.93,0,0,1,69,47.93,12.93,12.93,0,1,0,84.68,68.27,12.85,12.85,0,0,1,76.33,70Z"/><path class="cls-3" d="M80.64,48c-3-1.11-9.62-1.84-12.21,4.33s18.4,12.53,18.51,6C87,52.92,85,49.58,80.64,48Z"/><path class="cls-4" d="M104.5,46.05,91.8,57.19A16.52,16.52,0,0,1,86.42,70.9l14.41-13.16S105.31,52.63,104.5,46.05Z"/><path class="cls-9" d="M108.58,82.23c-.08-.08-.21-.17-.33-.12a.23.23,0,0,0-.16.21.3.3,0,0,0,.17.25.18.18,0,0,0,.22,0A.2.2,0,0,0,108.58,82.23Z"/><ellipse class="cls-10" cx="101.69" cy="78.73" rx="2.13" ry="1.35"/><path class="cls-10" d="M102.23,99.2c-1.35-1.07-3.09-.13-4.3.68-1.47,1-3.13,2.11-3.91,3.74,0,.09.09.17.13.08a9.52,9.52,0,0,1,3.19-3.15c1.22-.86,3.06-2.23,4.58-1.3,2.37,1.46-.72,4.79-1.91,6-.05,0,0,.11.07.07C101.44,104.18,104.32,100.85,102.23,99.2Z"/><path class="cls-19" d="M100.24,127.32c11.23,3.28,34.81,10.47,34.81,10.47l3.27-11.21L136,114.5l-52.43-11-6.23,1.88a19.79,19.79,0,0,1,1.28,5.9c0,2.63.31,9.19.31,9.19"/><path class="cls-21" d="M171.79,82.22a56.88,56.88,0,0,0,.07,8,30.59,30.59,0,0,1-.37,8.07s-4.72,6.44-16.2,18.74-20.24,20.74-20.24,20.74.56-11.31.3-15.16a34.89,34.89,0,0,1,.66-8.13l30.66-30.32Z"/><path class="cls-3" d="M117.85,68.82c8.63,2.32,16.1,3.41,24.18,5.77s25.2,7.86,29.76,7.63c-2.19,2.2-7.25,9.15-10.93,12.45S148.08,109,145.27,112.31s-7.82,9.81-9.92,10.32a195.46,195.46,0,0,1-25.64-6.54c-12-3.79-20.81-7.08-24.78-8.34s-7.58-2.36-7.58-2.36,9.35-8,17.18-15.63S113.67,71.73,117.85,68.82Z"/><path class="cls-22" d="M171.7,84.18s-5.13,6.63-8.62,10.5-13.07,15-16.17,18.4-11.47,11.71-11.47,11.71-17-3.56-28.19-7.4-19.63-6.71-23.33-8.08a30.28,30.28,0,0,0-5.85-1.65"/><path class="cls-22" d="M171.7,86.79s-3.77,4-11,12.87S142,121,142,121l-6.62,6.09a94.21,94.21,0,0,1-12.25-2.71c-7.21-2.05-20.9-6.46-26.66-8.28l-17.87-5.68"/><path class="cls-22" d="M171.86,92.79s-2.35,2.67-7.84,8.86-14.68,17-20.06,22-8.69,8.94-8.69,8.94-11.19-2.23-17.73-4.42-10.34-3.76-21-7.12-17.77-5.6-17.77-5.6"/><path class="cls-22" d="M78.66,113.1l9.15,2.4c3.6.94,11.72,3.63,18.67,6.29s18,5,23.33,6.43a43.12,43.12,0,0,1,5.63,1.69s13.31-12.66,17.48-17.6,13.49-16.73,15.41-19.07a48.73,48.73,0,0,1,3.48-3.84"/><path class="cls-22" d="M171.86,95.71s-.54.42-3.53,3.57-9.51,11.47-19.77,22.22-13.51,13.78-13.51,13.78,1.12.92-11.89-3-17-5.05-28.35-9-16-5.06-16-5.06"/><path class="cls-9" d="M118.55,100.16a9.74,9.74,0,0,0-1.27,1.73s0,.12.09.07c.46-.53.91-1.08,1.35-1.63C118.82,100.21,118.64,100,118.55,100.16Z"/><path class="cls-9" d="M104.27,94.62c-.36.81-.94,1.51-1.24,2.34,0,.07.08.12.12.05a26.16,26.16,0,0,0,1.24-2.34C104.41,94.6,104.3,94.56,104.27,94.62Z"/><path class="cls-9" d="M123.53,109.42a12.25,12.25,0,0,0-2.09,3.15c0,.05,0,.08.06,0a23.16,23.16,0,0,1,2.12-3.09C123.68,109.45,123.59,109.35,123.53,109.42Z"/><path class="cls-9" d="M141,108.19a9.18,9.18,0,0,0-1.17,1.25c0,.06,0,.11.09.07.41-.38.77-.83,1.16-1.24C141.17,108.22,141.09,108.15,141,108.19Z"/><path class="cls-9" d="M138.17,105.26c-.28.28-.56.56-.83.85a5,5,0,0,0-.69.85c-.05.08.06.16.13.1.27-.26.49-.57.75-.85l.79-.81A.1.1,0,0,0,138.17,105.26Z"/><path class="cls-9" d="M127.44,110.09a22,22,0,0,1-1.86,2.56s0,.07,0,0a12.12,12.12,0,0,0,1.92-2.54C127.58,110.08,127.48,110,127.44,110.09Z"/><path class="cls-9" d="M134.91,104.73c-.36-1.51-1.39.06-1.48,1a1.4,1.4,0,0,0-1.44.3c-.51.68.5,1.3,1,1.57a.06.06,0,0,0,.07-.08c-.24-.41-.92-.52-1-1-.08-.66.74-.7,1.35-.55,0,.3.21.44.64.24a.09.09,0,0,0,0-.15,1.56,1.56,0,0,0-.5-.25,2.67,2.67,0,0,1,.24-.78,1.51,1.51,0,0,1,.43-.57c.31-.2.43.1.5.38C134.78,104.87,134.94,104.83,134.91,104.73Z"/><path class="cls-9" d="M117.79,95.68c-.52-.64-1.62-.58-2.33-.78-1.28-.36-1.67-1.53-3.18-1.29a4.37,4.37,0,0,0-2.81,1.71,1.44,1.44,0,0,0-.22.73,3.33,3.33,0,0,0-1.19.21,2.11,2.11,0,0,0-1.12,2.94c0,.09.19,0,.15-.09a2,2,0,0,1,1.4-2.78c.25-.06.54,0,.78-.08a.77.77,0,0,0,.88.65.08.08,0,0,0,.08-.08.74.74,0,0,0-.44-.65,1.28,1.28,0,0,0-.14-.75,2.75,2.75,0,0,1,.54-.59A4.16,4.16,0,0,1,113,93.76c1,.07,1.25.75,2,1.11s2.36.16,2.82,1c.91,1.69-2.41,2.34-3.3,2.77-.06,0,0,.13,0,.15,1.11.26.43.67-.26.88a5.17,5.17,0,0,1-1.41.26.09.09,0,0,0,0,.17,3.79,3.79,0,0,0,2.33-.67c.41-.41,0-.31-.14-.65l-.22-.08a1.44,1.44,0,0,1,.4-.18c.3-.15.66-.22,1-.34a4,4,0,0,0,1.15-.62C117.83,97.14,118.28,96.29,117.79,95.68Z"/><path class="cls-9" d="M96.7,98.86a.08.08,0,0,0,0,.15A.08.08,0,0,0,96.7,98.86Z"/><path class="cls-9" d="M105.7,100.07a2.76,2.76,0,0,0-2.3.15c-.12.08,0,.27.11.19a2.58,2.58,0,0,1,1.79-.24,1,1,0,0,1,.67.34c.21.32-.11.69-.3.93,0,0,0,.12.07.08C106.3,101.07,106.45,100.38,105.7,100.07Z"/><path class="cls-9" d="M137.92,109.3c-1.15-.38-2.51.87-3.28,1.55-1.21,1.08-2.59,2.48-2.86,4.13,0,.16.22.23.24.07a6.81,6.81,0,0,1,2.22-3.46,6.56,6.56,0,0,1,3-2c2.46-.42-.07,4-.51,4.82a.12.12,0,0,0,.18.14C137.73,113.74,139.73,109.91,137.92,109.3Z"/><path class="cls-9" d="M132,109.94c-2.24-.61-5.47,1.26-6.41,3.27-.06.13.13.25.19.12a6.55,6.55,0,0,1,5.44-3.25c2.64,0,2.26,2.74,1.45,4.4a.09.09,0,0,0,.16.1C133.85,113.15,134.08,110.52,132,109.94Z"/><path class="cls-9" d="M115.66,103.45a37.83,37.83,0,0,0-2.63,5c0,.09.12.16.16.07.77-1.74,1.8-3.33,2.61-5C115.84,103.44,115.71,103.36,115.66,103.45Z"/><path class="cls-9" d="M110.71,109.91c-3.79-1.36-7.63-2.32-11.2-4.28-.11-.07-.22.11-.1.18a43.88,43.88,0,0,0,11.26,4.24A.07.07,0,1,0,110.71,109.91Z"/><path class="cls-9" d="M112.29,111.93c-1.18-.74-2.69-.72-4-1.27-.13-.06-.24.13-.11.19,1.28.57,2.69.67,4,1.24A.09.09,0,0,0,112.29,111.93Z"/><path class="cls-9" d="M116.06,102.94c-2.34,2.23-4.69,4.51-6.85,6.91a0,0,0,1,0,.07.06c2.39-2.17,4.55-4.61,6.9-6.84C116.26,103,116.14,102.86,116.06,102.94Z"/><path class="cls-9" d="M116,102.76a20.64,20.64,0,0,0-1.2,4.3c-.39,1.72-1,3.39-1.25,5.14a.1.1,0,0,0,.2,0c.42-1.71.93-3.39,1.31-5.1a30,30,0,0,1,1.11-4.29C116.24,102.74,116.08,102.67,116,102.76Z"/><path class="cls-9" d="M115.78,103a14.31,14.31,0,0,0-4.32-1.5,11.52,11.52,0,0,1-4.3-1.4c-.1-.07-.19.1-.1.17a9.33,9.33,0,0,0,3.88,1.39,28.39,28.39,0,0,1,4.76,1.53C115.81,103.25,115.88,103.07,115.78,103Z"/><path class="cls-9" d="M108.72,100c-1.47,1.06-3,2-4.47,3.07-1.66,1.16-3.46,2.67-5.39,3.34-.06,0,0,.12,0,.1,1.93-.52,3.69-2,5.3-3.13s3.42-1.89,4.62-3.25C108.87,100.09,108.79,100,108.72,100Z"/><path class="cls-9" d="M131.19,101.75a1.43,1.43,0,0,0-.92-1.08,1.33,1.33,0,0,0,.14-.19c.38-.64,0-1.52-.35-2.12-.42-.83-1.48-2.32-2.35-1.52-.33-.85-2.67-1.39-3.28-1.22s-.64.77-.43,1.32.43.83.63,1.25c.12.26.48.84.14,1s-1.18-.66-1.34-.81c-.6-.63-1.05-1.89-2.07-1.91a1.36,1.36,0,0,0-1.31,1,2.6,2.6,0,0,0,.26,2.09c-.7.49-1.06,1.62-.17,2.14a2.65,2.65,0,0,0,1.15.22c.15,0,.82-.06.91.09s-.16.52-.18.61c-.19.77,0,1.1.83,1.23.2,0,.29-.27.09-.31-1-.19-.46-1-.37-1.64a.19.19,0,0,0-.12-.22,7.59,7.59,0,0,0-1.16-.11c-1.62-.11-1.38-1.37-.73-1.78a.88.88,0,0,0,1,0,.17.17,0,0,0,0-.3,1,1,0,0,0-.82-.09c-.61-.58-.53-2.61.67-2.54.8,0,1.24,1.18,1.71,1.7a3.73,3.73,0,0,0,1.92,1,.17.17,0,0,0,.2-.12c.25-1-.68-1.72-.89-2.66-.48-2.21,3.34-.1,3.16.3-.07.16.14.29.23.14.72-1.13,1.66.35,2,.92a5.56,5.56,0,0,1,.37.73c.05.14.1.28.14.42.24.56,0,.92-.76,1.11a1.82,1.82,0,0,0-.67.08.16.16,0,0,0,0,.3,1.29,1.29,0,0,0,1.19.07l.16.07a1.32,1.32,0,0,1,.55.36c.35,1,.06,1.49-.88,1.44-.15-.08-.28.15-.13.23a2.46,2.46,0,0,1,.67.78c.1.33.25.21-.3.38a10.5,10.5,0,0,1-2.9.32.17.17,0,0,0-.1.29,4.81,4.81,0,0,1-2.61,0c-.15,0-.21.19-.06.23a4.63,4.63,0,0,0,3.2-.09.12.12,0,0,0,0-.05,8.54,8.54,0,0,0,3.17-.67c.06,0,.11-.12,0-.17a5.11,5.11,0,0,1-.66-.87A1.31,1.31,0,0,0,131.19,101.75Z"/><path class="cls-9" d="M126.11,102.28a6.84,6.84,0,0,1-.75,1.17.07.07,0,0,0,.1.09,4.53,4.53,0,0,0,.81-1.17C126.32,102.26,126.16,102.17,126.11,102.28Z"/><path class="cls-9" d="M126.4,100.25a5.85,5.85,0,0,0-1.06,2,.09.09,0,0,0,.09.11,1,1,0,0,0,.29,0,0,0,0,0,0,0-.08l-.17,0a9.19,9.19,0,0,1,1-1.91C126.62,100.24,126.47,100.15,126.4,100.25Z"/><path class="cls-9" d="M125.35,100.59c-.22.48-.44,1-.68,1.45-.11.23-.43.64-.29.91a.11.11,0,0,0,.09,0h0a.09.09,0,0,0,.08,0l.09-.09s0-.11,0-.1-.07,0,0-.1.23-.49.34-.73a8.05,8.05,0,0,0,.54-1.28C125.54,100.56,125.39,100.49,125.35,100.59Z"/><path class="cls-9" d="M124.74,102.17s-.37.33-.3.37a4.27,4.27,0,0,1,0-.62,2.78,2.78,0,0,1,.3-1.47c.06-.11-.1-.24-.18-.14-.54.67-.32,1.63-.31,2.42a.09.09,0,0,0,.06.08,5.76,5.76,0,0,1-1.26,1.39c-.07.06,0,.18.08.13a7.39,7.39,0,0,0,1.76-2C125,102.19,124.81,102.09,124.74,102.17Z"/><path class="cls-9" d="M119.23,113.53c0-.13-.23-.1-.23,0a2,2,0,0,1,0,.55c-.24-.33-.33-.78-.74-.94-.69-.28-1.44.14-2.16.26a3,3,0,0,1,.78-.24c.14,0,.08-.24-.07-.22a3.76,3.76,0,0,0-1.37.49.15.15,0,0,0,0,.27,8.57,8.57,0,0,0,2.18-.36c.59-.06.66.08.84.53a1.57,1.57,0,0,0,.48.61.15.15,0,0,0,.24-.07A1.76,1.76,0,0,0,119.23,113.53Z"/><path class="cls-9" d="M116.87,111.85c-.8.25-1.64.33-2.45.56a.12.12,0,0,0,0,.21,2.6,2.6,0,0,0,1.56.15c.07,0,.07-.15,0-.16-.38,0-.75,0-1.12-.08.7-.19,1.41-.3,2.08-.55C117,112,117,111.82,116.87,111.85Z"/><path class="cls-9" d="M102.59,99.05c-1.25-1-3.17,0-4.33.65s-3.17,1.9-3.49,3.49c0,.15.2.22.23.06.31-1.48,2-2.53,3.27-3.26,1-.59,4.32-2.16,4.57,0,.14,1.13-1.21,2.41-1.85,3.19-.45.56-1.21,1.27-1.26,2,0,.09.13.13.17,0a29.61,29.61,0,0,1,2.52-3.48C103,100.94,103.54,99.79,102.59,99.05Z"/><path class="cls-9" d="M125.44,102.87c-1.27,1.7-2.5,3.44-3.75,5.15a28,28,0,0,0-3.45,5.09c-.06.14.14.27.21.12,1.83-3.75,5.15-6.61,7.13-10.28A.08.08,0,0,0,125.44,102.87Z"/><path class="cls-9" d="M124.52,102.77c-.4.26-.59.78-.86,1.16a25.37,25.37,0,0,1-2.41,2.67c-1.56,1.67-3,3.46-4.43,5.24-.09.1.06.26.15.15,1.44-1.78,2.87-3.57,4.43-5.24.7-.75,1.43-1.46,2.07-2.26.42-.52.73-1.11,1.12-1.65C124.61,102.8,124.56,102.74,124.52,102.77Z"/><path class="cls-9" d="M132.68,97.27a.22.22,0,0,0,0,.43A.22.22,0,0,0,132.68,97.27Z"/><path class="cls-9" d="M132.7,92.91c-.14.14-.32.29-.5.46a17.28,17.28,0,0,1-1.85,1.44c-.59.12-2,.39-1.75-.38a.2.2,0,0,0-.19-.25,3.8,3.8,0,0,0-.81.13c-.37.09-.45.26-.58-.19a.35.35,0,0,1,0-.13,7.2,7.2,0,0,0,2.45-2.21.19.19,0,0,0-.26-.26c-.79.48-2.31,1.24-2.64,2.25a4.19,4.19,0,0,1-.46.16c-.16,0-.77.17-.87,0s0-.18.11-.22l.45-.11h0a.16.16,0,0,0-.09-.31c-.29.09-2.43.51-1.7-.28a.14.14,0,0,0-.1-.23,3.82,3.82,0,0,0-1.55.47c-.14.05-.08.27.06.22a11.79,11.79,0,0,1,1.14-.39l-.18.18a.14.14,0,0,0,0,.22,1.8,1.8,0,0,0,1.23.33h0a1.35,1.35,0,0,0,1.8.45c0,.86,1,.47,1.7.36-.09.69.65.78,1.37.73h0c-.21.15,0,.48.2.35s.49-.29.73-.45l.21-.08a.19.19,0,0,0,.12-.14l.13-.09a2.05,2.05,0,0,0-.13.37c-.15.66.35.71.85.63-.15.38,0,.73.57.76.19,0,.2-.26.05-.32-.31-.23-.31-.45,0-.63a.22.22,0,0,0-.21-.36,1.41,1.41,0,0,1-.52.15c-.36,0-.28-.08-.24-.33s.45-.64.61-.83A13.48,13.48,0,0,1,133,93.2C133.19,93,132.9,92.72,132.7,92.91Zm-5.36.41a6.52,6.52,0,0,1,1.2-.95A6.68,6.68,0,0,1,127.34,93.32Z"/><path class="cls-9" d="M120.6,92.07a7,7,0,0,1-1.38-.17,1.21,1.21,0,0,1-.78-.46l-.06-.14h.07c.52-.09.68-.4.48-.89a.21.21,0,0,0-.25-.14,1,1,0,0,0-.72.65,6.32,6.32,0,0,1-.66-.12,1.86,1.86,0,0,0-1.94.07.16.16,0,0,0,.16.27c.92-.56,1.58.08,2.43.18a1.27,1.27,0,0,0,.2.43c.54.76,1.65.67,2.45.5C120.68,92.23,120.68,92.09,120.6,92.07Z"/><path class="cls-9" d="M113.86,88.74l-.77.23a1.12,1.12,0,0,0-.2-.37.17.17,0,0,0-.26,0c.11-.12.07,0-.1-.1a1.82,1.82,0,0,0-.25-.07c-.19-.07-.35-.15-.53-.23-.34-.14-.48-.08-.69.24-.09.13.11.29.22.17.31-.35,1,.35,1.4.31a.76.76,0,0,1,.09.18,5.62,5.62,0,0,0-2.21,1.11c-.31.28-1.26,1.35-.58,1.71s1.5-.34,1.91-.65a2.77,2.77,0,0,0,1.27-1.87A3.63,3.63,0,0,0,114,89C114.07,88.9,114,88.7,113.86,88.74Zm-2.44,2.43c-.26.16-1.38.76-1.25.15.18-.8,1.25-1.32,1.93-1.58.23-.09.47-.16.71-.24C112.73,90.18,112,90.83,111.42,91.17Z"/><path class="cls-9" d="M154.56,97.71a2.72,2.72,0,0,0-.83-.2.14.14,0,0,0-.12-.19.94.94,0,0,0-.37,0,1.31,1.31,0,0,1-.4-.22A1.21,1.21,0,0,1,153,97a.17.17,0,0,0,0-.34,5.58,5.58,0,0,1-1.77-.21c-.21-.08-.29.25-.09.33a3.61,3.61,0,0,0,1.26.2.18.18,0,0,0,.05.24,4.77,4.77,0,0,0,.42.3.2.2,0,0,0,.13.25,10,10,0,0,1,1.43.28C154.61,98.12,154.75,97.8,154.56,97.71Z"/><path class="cls-9" d="M151.35,95.4a2.92,2.92,0,0,0-1.49-.79c-.21-.08-.3.25-.09.33.5.19,1,.41,1.48.6C151.32,95.57,151.4,95.47,151.35,95.4Z"/><path class="cls-9" d="M151,96.7a7.39,7.39,0,0,0-2.81-1.45l0,0c.14-.07.07-.33-.09-.31a5.35,5.35,0,0,1-1.87-.11c-.51-.13-.92-.46-1.42-.61a1.37,1.37,0,0,0-1.4.35c-.15.11,0,.37.15.25.88-.66,1.56,0,2.39.25a4.65,4.65,0,0,0,1.56.23.19.19,0,0,0,.12.16c.64.2,1.38.5,2,.75s.72.57,1.17.76C151,97,151.09,96.8,151,96.7Z"/><path class="cls-9" d="M142,90.48c-.72.37-2.11.89-2.53,1.72a8.39,8.39,0,0,0-1,.61c-.14.11,0,.35.15.25a7.68,7.68,0,0,1,.71-.45c-.06.6.51.68,1.07.6h0a1.27,1.27,0,0,0,1.14.74.16.16,0,0,0,.08-.29c-.17-.09-.83-.37-.79-.56a2.21,2.21,0,0,0,.47-.18c.17-.09.1-.4-.1-.38a1.13,1.13,0,0,0-.75.3.74.74,0,0,1-.55,0c-.25-.13-.19-.33,0-.52a7.57,7.57,0,0,0,2.35-1.55A.19.19,0,0,0,142,90.48Z"/><path class="cls-9" d="M134.48,90.46h-.09c-.18,0-.22.28,0,.31h0l.08.44-.18,0a1.87,1.87,0,0,1-.34,0,5.16,5.16,0,0,0-1.18.16l-.38.12a22.25,22.25,0,0,0,2.65-2.2.13.13,0,0,0-.15-.2c-.7.35-1.38.72-2.09,1.06-.15.07,0,.3.14.23.42-.21.83-.43,1.24-.65-1.14,1-2.42,1.8-3.52,2.83-.13.12.07.32.2.2a4.73,4.73,0,0,1,3.26-1.29c.31,0,.8.23,1.06-.05a.4.4,0,0,0,.13-.44c.78.18,1.59.49.87,1-.18.12,0,.41.16.29C138,91.08,135.42,90.58,134.48,90.46Z"/><path class="cls-9" d="M130.29,88.51a3,3,0,0,0-1.46-.49,2,2,0,0,0-.66-.11.18.18,0,0,0-.13.29c-.26-.08-.35-.21,0-.36.15-.07.09-.33-.08-.27s-.75.43-.35.76a1.57,1.57,0,0,0,1.4.13,4,4,0,0,1,.68.17c.75.26.16.76-.07,1.23-.06.11.07.28.19.19C130.27,89.75,130.79,89,130.29,88.51Z"/><path class="cls-9" d="M129.51,86.43a5.26,5.26,0,0,0-1.48,0c-.22,0-.22.35,0,.34a9.18,9.18,0,0,0,1.48-.16A.11.11,0,0,0,129.51,86.43Z"/><path class="cls-9" d="M129.12,86.52a8,8,0,0,1-1.49,1.19,4.64,4.64,0,0,1-2.56-.26c-.35-.1-.55-.4-.9-.48h0c.18-.07.11-.34-.07-.29s-.55.16-.82.22l-.55.09c-.59.1-.49-.17.27-.82.14,0,.2-.18.06-.21a1.57,1.57,0,0,0-1.73.69.15.15,0,0,0,0,.18,1.83,1.83,0,0,0,1.67.42.15.15,0,0,0,.17.21c1.19-.17,2.37.57,3.56.77s2-.73,2.57-1.49C129.37,86.63,129.26,86.42,129.12,86.52Z"/><path class="cls-9" d="M119.35,84.87a.14.14,0,0,0,0-.19c-.63-.53-1.25-.11-2-.14-.39,0-.56-.35-.92-.38a1,1,0,0,0-.55.16,2.26,2.26,0,0,0,.48-.81.16.16,0,0,0-.19-.19c-.31.06-1.34.25-1.34.7,0,.13.22.17.24,0s.53-.29.88-.37a3.23,3.23,0,0,1-.58.71.16.16,0,0,0,.07.27c.36.09.38,0,.7-.1s.51.2.83.3a2.79,2.79,0,0,0,1.11-.12c.43-.06.84.17.44.49a4.89,4.89,0,0,1-.8.37c-.21.11,0,.37.14.34.36,0,.71-.08,1.07-.1s.23-.36,0-.36h-.19A1.55,1.55,0,0,0,119.35,84.87Z"/><path class="cls-9" d="M158.45,89.72a12.57,12.57,0,0,0-2.52,1.71,3.76,3.76,0,0,1-1.16.42l.1-.09c.16-.1.07-.39-.13-.32-.68.25-1.26-.1-1.89-.26a2.59,2.59,0,0,1-.58-.12c-.22-.16.06-.4.32-.58s.06-.39-.13-.32a7.41,7.41,0,0,1-1.55.46,1.53,1.53,0,0,0,.18-.18.16.16,0,0,0-.11-.27,2.86,2.86,0,0,1-.75-.07l0-.2a4.36,4.36,0,0,0,.77-.72c.08-.09,0-.26-.1-.25-.46,0-1.31.29-1.32.87a.58.58,0,0,0,.07.28l-.63.46c-.08.06,0,.2.08.14s.44-.31.66-.45a1.61,1.61,0,0,0,.87.24,1.9,1.9,0,0,1-.37.22c-.16.07-.06.3.09.3a4,4,0,0,0,1.38-.21,1.1,1.1,0,0,0-.14.33.17.17,0,0,0,.12.21,17.4,17.4,0,0,0,2.53.57l-.05.06a.18.18,0,0,0,.12.3,3.35,3.35,0,0,0,1.19-.22,2.12,2.12,0,0,0-.11.21.19.19,0,0,0,.17.29,1.75,1.75,0,0,1,1.48.71c.14.16.36,0,.33-.19s0-.23-.08-.35c.31,0,.62.07.92.12s.33-.29.1-.35a7.19,7.19,0,0,0-1.3-.21.19.19,0,0,0-.2.22,2,2,0,0,0-.93-.31,2.46,2.46,0,0,1,.39-.51c.83-.48,1.59-1.14,2.39-1.61C158.84,89.92,158.66,89.6,158.45,89.72Zm-8.28-.25a2,2,0,0,1,.33-.15c-.1.11-.21.21-.31.31Z"/><path class="cls-9" d="M146.72,89.33a.22.22,0,0,0,0,.43A.22.22,0,0,0,146.72,89.33Z"/><path class="cls-9" d="M145.53,87.64c-.41.06-2.83,1-2.27,0a.15.15,0,0,0-.09-.22,3.58,3.58,0,0,0-1.46.18,7.22,7.22,0,0,0,.84-.82.14.14,0,0,0-.1-.23c-.66-.06-1.13.45-1.7.71-.16.07,0,.29.13.23a6.45,6.45,0,0,1,1.25-.65c-.29.29-.61.55-.91.83a.14.14,0,0,0,.1.24,2.77,2.77,0,0,0,.8-.12c.4-.09,1-.43.62.17a.15.15,0,0,0,0,.18c.81.64,1.66.1,2.53-.13a3.55,3.55,0,0,1-.85.88.18.18,0,0,0,0,.22l.06.08a.16.16,0,0,0,.19.08h.11a.14.14,0,0,0,.09-.26h0c.13-.15.31-.26.45-.42a1.5,1.5,0,0,0,.42-.77A.18.18,0,0,0,145.53,87.64Z"/><path class="cls-9" d="M139.53,83.86a5.13,5.13,0,0,0-2.37,2.36c-.51.15-1.18.25-.72-.28.12-.14,0-.37-.2-.26s-.52.44-.72.45c-.58,0-.45-.31-.22-.61a16.37,16.37,0,0,0,2.18-1.65c.14-.11,0-.3-.18-.23A5.88,5.88,0,0,0,135,85.38a3.75,3.75,0,0,1-.76.3l.39-.2c.13-.06,0-.27-.12-.2a7.14,7.14,0,0,0-.94.51.12.12,0,0,0,.06.22,2.79,2.79,0,0,0,1.2-.23,1,1,0,0,0,0,.3c0,.74.67.49,1.18.2,0,.3.36.44.92.36l.27,0a.77.77,0,0,0,.52.67c.18.08.34-.17.16-.27a.53.53,0,0,1-.29-.53,3.65,3.65,0,0,0,2.24-2.39C139.77,84,139.66,83.81,139.53,83.86Zm-1.91,2.2a5.16,5.16,0,0,1,1.66-1.69A3.72,3.72,0,0,1,137.62,86.06Z"/><path class="cls-9" d="M134,82.19a.19.19,0,0,0-.08-.32c-.93-.32-2.12.7-2.67,1.79a3,3,0,0,1-1.56.24h0a.17.17,0,0,0,0-.3c-.39-.24-.54-.2-.87.09a.17.17,0,0,0-.05.13c-.41,0-.79-.13-.64-.62a.48.48,0,0,1,.08-.16,6.05,6.05,0,0,0,2.59-1.77.17.17,0,0,0-.2-.26A8.21,8.21,0,0,0,128,82.73c-.44.12-.82.15-.77-.13a.12.12,0,0,0-.09-.16,2.83,2.83,0,0,0-1.78.39c-.16.06-.09.32.07.26s1.55-.6,1.48-.26a.13.13,0,0,0,.1.17,2.39,2.39,0,0,0,.78.1,1,1,0,0,0,0,.1c-.27.89.68,1.06,1.42.9a2.6,2.6,0,0,0,1.9,0c-.28.83-.12,1.58.91,1.66.2,0,.25-.32.05-.36-.77-.15-.77-.82-.42-1.52A10.94,10.94,0,0,0,134,82.19Zm-.62.06a10.7,10.7,0,0,1-1.41,1A2.86,2.86,0,0,1,133.42,82.25Z"/><path class="cls-9" d="M127.18,80.55a1.42,1.42,0,0,0-.64.14.14.14,0,1,0,.11.26,2.24,2.24,0,0,0,.57-.25A.09.09,0,0,0,127.18,80.55Z"/><path class="cls-9" d="M125.8,83a1.49,1.49,0,0,1-.55-.14l-.38-.26a.83.83,0,0,0-.32-.14,1.78,1.78,0,0,1,.6-.25c.12,0,.07-.21-.05-.19a2.31,2.31,0,0,0-1,.49.11.11,0,0,0,.1.18c.61-.21,1,.73,1.61.48A.09.09,0,0,0,125.8,83Z"/><path class="cls-9" d="M122.24,79a3.12,3.12,0,0,0-2,1.84,2.3,2.3,0,0,1-.42.14c-.14,0-.67,0-.7-.19s.46-.48.55-.54,0-.4-.16-.29l-.85.56c-.16.11,0,.38.16.27h0c-.07.29.08.54.66.57a2.17,2.17,0,0,0,.67-.09c0,.35.18.64.68.79.12,0,.24-.15.13-.23a.82.82,0,0,1-.36-.75,5.14,5.14,0,0,0,1.8-1.79A.19.19,0,0,0,122.24,79Zm-1.39,1.45.06-.09a3,3,0,0,1,.87-.83A4.77,4.77,0,0,1,120.85,80.43Z"/><path class="cls-9" d="M158.05,85.72c.14-.15,0-.42-.22-.3a1.62,1.62,0,0,0-.73.88c-.09.22.26.31.35.1a1.07,1.07,0,0,1,.21-.36c.79.18,3.11.45,3,1.57,0,.26.39.26.42,0C161.18,86.3,159.16,85.94,158.05,85.72Z"/><path class="cls-9" d="M155.87,84.81a5.18,5.18,0,0,0-1.87-.32.21.21,0,0,0-.1.38l.25.31-.18-.13a2.4,2.4,0,0,0-.42-.23,1.79,1.79,0,0,0-.89,0,1.26,1.26,0,0,0-.09-.83.19.19,0,0,0-.17-.09.21.21,0,0,0-.14,0,10.91,10.91,0,0,1-1.25.22l-.58,0c-.47.07-.65-.12-.53-.58l.2-.19a.17.17,0,0,0-.07-.28c-.43-.11-.88,0-.94.41-.83-.06-1.69-1.19-2.65-.48-.16.13,0,.41.17.28.89-.67,1.66.43,2.52.51a1.17,1.17,0,0,0,.05.11c.32.61,1.13.66,1.9.56-.16.14,0,.37.21.28.54-.29,1.18-.62.91.22a5.41,5.41,0,0,0-2.61,2,.19.19,0,0,0,.16.28,4.3,4.3,0,0,0,2.76-2,1.55,1.55,0,0,1,1,0c.65.25.75,1,1.36.26a.21.21,0,0,0,0-.24c-.1-.13-.2-.24-.3-.35a6.08,6.08,0,0,1,1.17.24C156,85.25,156.1,84.89,155.87,84.81Zm-4.31,1a4.55,4.55,0,0,1-1.23.87,6.67,6.67,0,0,1,1.53-1.17Z"/><path class="cls-9" d="M140.68,79a1.22,1.22,0,0,0-.8,0c-.27.06-.13.51.12.41a1.42,1.42,0,0,1,.35-.11,1.78,1.78,0,0,0,.33-.09A.13.13,0,0,0,140.68,79Z"/><path class="cls-9" d="M145,82a7.33,7.33,0,0,1-1.56.21c.12-.19.3-.44.17-.48a.18.18,0,0,0,.19-.26c-.35-.76-1.43-.43-2.15-.17a.14.14,0,0,0-.16,0l-.13.06a.15.15,0,0,0-.11,0,5.16,5.16,0,0,1-1.65-.17l.09-.06c.15-.11.06-.42-.14-.34a14.53,14.53,0,0,1-1.45.41,3.91,3.91,0,0,1,.72-1c.13-.13,0-.3-.18-.24a5.28,5.28,0,0,1-1.84.66c-.18,0-.18.3,0,.29a3.81,3.81,0,0,0,1.38-.41c-.17.25-.31.51-.46.77l0,.07c-.89.27-1.71.67-1.75,1.5a.16.16,0,0,0,.17.17c.93,0,1.37-.68,1.76-1.39.38-.1.76-.18,1.1-.26a.21.21,0,0,0,.18.15c.61.06,1.19.26,1.8.26l0,.06c-.09.16.09.37.25.26a3.15,3.15,0,0,0,.33-.25c.48-.19,1.52-.62,1.9-.23a2.07,2.07,0,0,0-.41.66l-.21,0a.2.2,0,0,0-.11.39l.17.07c-.16.59,0,1,.77.34a.2.2,0,0,0,0-.27l0,0a4.36,4.36,0,0,0,1.51-.41C145.28,82.14,145.17,81.93,145,82Zm-7.64-.2c-.06.09-1.23,1.11-.89.51a1.78,1.78,0,0,1,1-.65Z"/><path class="cls-9" d="M138.81,78.49a.71.71,0,0,0-.4.11,1.62,1.62,0,0,0-.39.25.16.16,0,1,0,.2.25,3.62,3.62,0,0,1,.32-.22,1.16,1.16,0,0,0,.32-.2A.12.12,0,0,0,138.81,78.49Z"/><path class="cls-9" d="M137.22,80.64a1.47,1.47,0,0,0-1.26-.36,5.12,5.12,0,0,1,.52-.27l.48-.19h0l0,0c.15-.06,0-.32-.11-.26s-.33.12-.48.19c-.67.25-1.34.43-2,.74A11.31,11.31,0,0,0,136,78.13c.05-.11-.07-.27-.19-.19a20.41,20.41,0,0,0-2.9,2.51c-.1.11.07.28.17.17a19.94,19.94,0,0,1,2.4-2.1,11.94,11.94,0,0,1-2,2.52,19,19,0,0,0-1.87,1.6c-.12.12,0,.34.18.24a17,17,0,0,0,1.89-1.62,6.29,6.29,0,0,1,.64-.41,4.87,4.87,0,0,1,.87-.4c0,.09,0,.24.12.22a2.19,2.19,0,0,1,1.75.17C137.19,80.91,137.33,80.73,137.22,80.64Z"/><path class="cls-9" d="M132.15,78.79a7.73,7.73,0,0,0-1.86-.42c-.17,0-.25.23-.07.27a13.29,13.29,0,0,0,1.88.37A.12.12,0,0,0,132.15,78.79Z"/><path class="cls-9" d="M128.82,77.2a.68.68,0,0,0-1.18-.35l0,.08h0a1.38,1.38,0,0,0-.61,1.38c.15.61.8.57,1.24.29A1.4,1.4,0,0,0,128.82,77.2Zm-.76,1.11c-.27.21-.74.33-.82-.11a1.12,1.12,0,0,1,.47-1s0,0,0-.06c.31,0,.61-.16.67.26A1,1,0,0,1,128.06,78.31Z"/><path class="cls-9" d="M127.07,75.82c-.11-.46-.93-.44-1.27-.45a.13.13,0,0,0,0,.26c.25,0,.83,0,.94.24s-.52.47-.74.54a.18.18,0,0,0,0,.33c.21.11.43.23.28.49a1.43,1.43,0,0,1-.42.35A8.1,8.1,0,0,1,125,78c-.18.09-.05.35.13.31.71-.16,2-1.1,1.26-1.68C126.76,76.43,127.16,76.17,127.07,75.82Z"/><path class="cls-9" d="M124.15,77.06a.09.09,0,0,0,0-.07.15.15,0,0,0-.06-.15l-.08,0a.38.38,0,0,0-.35.09.3.3,0,0,0,0,.42c.15.17.39,0,.4-.17,0,0,0,0,0,0S124.15,77.08,124.15,77.06Z"/><path class="cls-9" d="M124.5,74.27A5.58,5.58,0,0,0,123,75.51a1.51,1.51,0,0,1-.18.09c-.69.33-.48-.24-.15-.64s.56-.56.83-.84c.1-.09,0-.24-.14-.15-.58.55-1.33,1.06-1.34,1.93a.13.13,0,0,0,.14.13,1.28,1.28,0,0,0,.39,0c-.43.51-.84,1-1.26,1.52a.22.22,0,0,0,.16.37.66.66,0,0,0,.28,0c.15,0,.16-.16.09-.26.86-.83,1.5-1.83,2.41-2.61l.38-.3.15-.1A.21.21,0,0,0,124.5,74.27Z"/><ellipse class="cls-10" cx="102.08" cy="87" rx="2.13" ry="1.35"/><ellipse class="cls-10" cx="96.29" cy="92.2" rx="2.13" ry="1.35"/><ellipse class="cls-10" cx="90.89" cy="97.34" rx="2.13" ry="1.35"/><ellipse class="cls-10" cx="84.73" cy="103.46" rx="2.13" ry="1.35"/><ellipse class="cls-10" cx="107.62" cy="81.77" rx="2.13" ry="1.35"/><ellipse class="cls-10" cx="113.16" cy="76.93" rx="2.13" ry="1.35"/><path class="cls-10" d="M80.8,121.06a6.71,6.71,0,0,1-5-.54c-3.09-1.64-5.19-5.63-5.1-9.71a8.7,8.7,0,0,1,5-8c4-1.88,8.47,1.26,8.52,1.29l.89-1.25c-.21-.15-5.26-3.7-10.06-1.43a10.24,10.24,0,0,0-5.92,9.37c-.1,4.64,2.33,9.2,5.92,11.1a8.12,8.12,0,0,0,3.83,1,9.71,9.71,0,0,0,4.1-1A16.79,16.79,0,0,1,80.8,121.06Z"/><path class="cls-10" d="M81.46,95.1a10.24,10.24,0,0,0-5.92,9.37,13.26,13.26,0,0,0,3.07,8.76c0-.82.07-1.65.12-2.44a12,12,0,0,1-1.65-6.29,8.69,8.69,0,0,1,5-8c4-1.89,8.46,1.25,8.51,1.28l.44-.63.45-.62C91.31,96.38,86.27,92.83,81.46,95.1Z"/><path class="cls-10" d="M82,101.63l.33-.33a11.25,11.25,0,0,1-.12-1.93,8.69,8.69,0,0,1,5-8c4-1.88,8.47,1.25,8.51,1.28l.9-1.25c-.21-.15-5.26-3.7-10.07-1.42a10.21,10.21,0,0,0-5.91,9.36,13.42,13.42,0,0,0,.33,3.23Z"/><path class="cls-10" d="M88.28,95.71a11.2,11.2,0,0,1-.07-1.53,8.72,8.72,0,0,1,5-8c4-1.88,8.47,1.26,8.52,1.29l.89-1.25c-.21-.16-5.25-3.7-10.06-1.43a10.23,10.23,0,0,0-5.92,9.37,13,13,0,0,0,.27,2.92C87.39,96.62,87.85,96.18,88.28,95.71Z"/><path class="cls-10" d="M92.81,91.59c.13-.14.26-.27.4-.4l.25-.24A12.17,12.17,0,0,1,93.34,89a8.7,8.7,0,0,1,5-8c4-1.89,8.47,1.25,8.52,1.28l.89-1.25c-.21-.15-5.25-3.7-10.06-1.42A10.22,10.22,0,0,0,91.8,89a13.71,13.71,0,0,0,.34,3.27Z"/><path class="cls-10" d="M99.1,85.5a.27.27,0,0,1,.08-.07,12.78,12.78,0,0,1-.08-1.64,8.7,8.7,0,0,1,5-8c4-1.89,8.47,1.25,8.52,1.28l.89-1.25c-.21-.15-5.25-3.7-10.06-1.42a10.22,10.22,0,0,0-5.92,9.36,13.37,13.37,0,0,0,.29,3C98.26,86.35,98.67,85.92,99.1,85.5Z"/><path class="cls-10" d="M104.19,80.57c0-.36,0-.72,0-1.09a8.68,8.68,0,0,1,5-8c4-1.88,8.47,1.26,8.51,1.29l.9-1.25c-.22-.16-5.26-3.7-10.07-1.43a10.22,10.22,0,0,0-5.91,9.37,12.53,12.53,0,0,0,.19,2.52A18.1,18.1,0,0,1,104.19,80.57Z"/><path class="cls-19" d="M131.83,92.19c-.07.53,3,8.14,3,8.14l35.47,27.81s6,4.66,8.1,1.77,1.8-5.62-2.06-8.52S140.17,95,140.17,95Z"/><polygon class="cls-10" points="137.08 94.83 173.72 122.56 175.33 120.65 139.96 94.83 137.08 94.83"/><polygon class="cls-10" points="136.05 96.72 170.2 123.05 169.22 125.65 134.69 98.56 136.05 96.72"/><path class="cls-3" d="M134.82,100.2a17.58,17.58,0,0,1,2-3.13,7.18,7.18,0,0,1,2.87-2.23l-7.88-2.65C131.77,92.68,134.41,99.21,134.82,100.2Z"/><path class="cls-23" d="M172.53,118.55a4.84,4.84,0,0,0-3.49,2.1c-1.09,1.89-1.83,2.92-1.57,5.24,1.19.94,4.66,3.44,4.66,3.44l5.12-7.23Z"/><path class="cls-5" d="M178.44,129.91c1.91-2.65,1.82-5.17-1.19-7.81a5.2,5.2,0,0,0-3.22,2.27,14,14,0,0,0-1.9,5C174.07,130.48,177.08,131.79,178.44,129.91Z"/><polygon class="cls-10" points="131.83 92.19 133.03 95.72 134.69 93.15 131.83 92.19"/></g></g></svg>