<?xml version="1.0" encoding="UTF-8" standalone="no"?>
<!-- Created with Inkscape (http://www.inkscape.org/) -->

<svg
   xmlns:dc="http://purl.org/dc/elements/1.1/"
   xmlns:cc="http://creativecommons.org/ns#"
   xmlns:rdf="http://www.w3.org/1999/02/22-rdf-syntax-ns#"
   xmlns:svg="http://www.w3.org/2000/svg"
   xmlns="http://www.w3.org/2000/svg"
   version="1.1"
   width="143.17612"
   height="101.3577"
   viewBox="0 0 143.17612 101.35771"
   id="Calque_1"
   xml:space="preserve"><metadata
     id="metadata3185"><rdf:RDF><cc:Work
         rdf:about=""><dc:format>image/svg+xml</dc:format><dc:type
           rdf:resource="http://purl.org/dc/dcmitype/StillImage" /><dc:title></dc:title></cc:Work></rdf:RDF></metadata><defs
     id="defs3183" /><g
     transform="translate(56.328393,-6.5207322)"
     id="g3173"><path
       d="M 79.706669,25.853456 C 76.28062,16.477341 69.954707,10.169803 65.576514,11.768403 c -0.349119,0.126953 -0.674853,0.30903 -0.982212,0.526185 v -0.0033 l -44.28807,32.428028 h 0.0033 c -0.992234,0.706591 -1.431557,2.007855 -0.998916,3.203882 0.437652,1.196026 1.611964,1.904288 2.821354,1.809074 l 0.02005,0.05679 54.471002,-3.810247 c 0.46939,-0.01002 0.930428,-0.08519 1.359729,-0.243883 4.379863,-1.60027 5.153271,-10.500313 1.723882,-19.881439 z m -3.238961,17.160311 c -3.098645,1.134221 -7.91449,-4.259592 -10.75923,-12.043789 -2.841399,-7.780856 -2.635936,-15.01047 0.462709,-16.14302 3.098645,-1.134221 7.917831,4.257922 10.76257,12.040448 2.841399,7.784197 2.635937,15.01214 -0.466049,16.146361 z"
       id="path3175" /><path
       d="m 42.563021,54.304193 c 0,-1.354717 -1.351376,-2.450518 -3.021805,-2.450518 -1.503385,0 -2.747855,0.89869 -2.971692,2.069661 l -2.76623,11.796566 -16.420311,-6.785281 -30.082747,1.996162 -37.960487,37.881977 0.0017,0.005 c -0.417607,0.42095 -0.669842,0.95549 -0.669842,1.53512 0,1.35305 1.351377,2.45052 3.018464,2.45052 0.823521,0 1.571873,-0.27061 2.116433,-0.70826 l 0.005,0.003 33.49042,-25.859902 c 1.758708,8.850584 3.449387,17.801722 5.268253,26.640202 7.36162706,-0.0253 15.0904867,-0.0157 25.075637,-0.0251 1.624527,-9.87589 3.395111,-19.7273 5.115966,-29.586771 l 14.708123,4.790789 c 0,0 2.443837,1.099142 3.865371,-1.652054 1.36307,-2.644288 1.239458,-20.58636 1.226095,-22.031281 -0.005,-0.02673 0.0017,-0.04844 0.0017,-0.07016 z"
       id="path3177" /><path
       d="M 2.4276367,56.677872 C 8.660005,56.699592 13.736437,51.661576 13.754812,45.427537 13.778202,39.193498 8.740186,34.120406 2.5061467,34.098691 -3.727893,34.078651 -8.799314,39.116658 -8.819359,45.350697 c -0.02339,6.232368 5.014627,11.303789 11.2469957,11.327175 z m 5.10984,-8.126634 c 1.3847853,-0.89702 2.9332733,-0.967178 3.4594583,-0.152009 0.524514,0.815169 -0.170384,2.198284 -1.550158,3.096974 -1.383115,0.89702 -2.9316023,0.967178 -3.4577873,0.15368 -0.529526,-0.811829 0.165372,-2.199955 1.548487,-3.098645 z"
       id="path3179" /></g></svg>