<svg xmlns="http://www.w3.org/2000/svg" xmlns:xlink="http://www.w3.org/1999/xlink" version="1.1" x="0px" y="0px" width="100px" height="100px" viewBox="0 0 100 100" enable-background="new 0 0 100 100" xml:space="preserve">
<g id="Captions">
</g>
<g id="Your_Icon">
	<path fill="#000000" d="M51.394,59.032c0,0,1.999,5.376,1.479,5.376s-3.656,4.668-3.656,4.668l4.176,6.565l6.955-2.763l3.306,2.763   l0.523,6.05l8.171,1.212l2.44-5.356l3.648-0.874l5.565,3.117l6.089-4.148l-1.739-5.707l1.739-3.448l6.608-1.389l1.389-8.289   l-6.084-2.763l-0.523-3.979l3.302-4.833l-4.864-7.006l-6.085,2.338l-3.479-2.338l-0.874-5.439l-7.997-1.031l-2.783,5.356   l-3.825,1.114l-4.869-3.369l-6.438,3.369l1.893,5.793l-2.381,4.003l-5.943,0.988l-0.87,8.312L51.394,59.032z M72.179,46.146   c6.475,0,11.741,5.002,11.741,11.178c0,6.18-5.267,11.178-11.741,11.178c-6.49,0-11.741-4.998-11.741-11.178   C60.438,51.148,65.688,46.146,72.179,46.146z M39.664,82.305l4.691-5.432l-2.877-4.797l2.153-3.113l5.007-2.964l-1.461-6.412   l-5.223-1.361l-1.479-3.286l2.086-5.086l-5.451-4.88l-4.306,2.613l-3.681-1.004l-1.976-5.562l-7.746,0.787l-1.416,5.129   l-3.078,1.995l-5.526-2.558l-4.951,5.868L7.375,57.6l-1.378,3.235l-4.999,2.181l0.709,6.632l5.459,1.987l1.555,3.022L6.43,79.499   l5.676,4.903l4.522-3.223l3.877,0.638l2.188,6.419l7.041-1.012c0,0,1.394-4.912,1.09-5.273c-0.311-0.358,3.968-1.917,3.968-1.917   L39.664,82.305z M31.285,72.567c-4.302,3.648-10.895,2.999-14.729-1.456c-3.833-4.463-3.451-11.032,0.847-14.681   c4.298-3.656,10.895-2.999,14.728,1.456C35.961,62.342,35.583,68.919,31.285,72.567z M59.557,20.5l-2.369-5.612l-4.767,0.354   l-1.562-2.803l-0.366-4.908l-5.463-1.322l-3.016,3.428l-3.081-0.133L35.839,6l-5.802,2.268l0.37,4.243l-2.169,2.393l-5.002-0.622   l-2.338,6.156l3.393,3.015l0.354,3.074l-4.038,3.207l2.598,5.959l5.219-0.188l1.952,2.267l-0.229,4.598l5.341,1.976l3.59-3.361   l2.9-0.027l2.834,3.562l5.904-2.433l-0.748-4.624l1.952-2.688l5.738,0.775l1.894-5.688c0,0-3.224-2.92-3.613-2.826   c-0.397,0.099,0.035-3.727,0.035-3.727L59.557,20.5z M48.93,23.129c1.165,4.629-1.834,9.359-6.695,10.564   c-4.86,1.204-9.745-1.574-10.906-6.207c-1.165-4.633,1.838-9.352,6.699-10.563C42.888,15.718,47.772,18.497,48.93,23.129z"/>
</g>
</svg>