<?xml version="1.0" encoding="UTF-8" standalone="no"?>
<!-- Created with Inkscape (http://www.inkscape.org/) -->

<svg
   xmlns:dc="http://purl.org/dc/elements/1.1/"
   xmlns:cc="http://creativecommons.org/ns#"
   xmlns:rdf="http://www.w3.org/1999/02/22-rdf-syntax-ns#"
   xmlns:svg="http://www.w3.org/2000/svg"
   xmlns="http://www.w3.org/2000/svg"
   version="1.0"
   width="110"
   height="100"
   viewBox="0 0 110 100"
   id="Layer_1"
   xml:space="preserve"><metadata
     id="metadata3055"><rdf:RDF><cc:Work
         rdf:about=""><dc:format>image/svg+xml</dc:format><dc:type
           rdf:resource="http://purl.org/dc/dcmitype/StillImage" /><dc:title></dc:title></cc:Work></rdf:RDF></metadata><defs
     id="defs3053" /><path
     d="m 103.574,80.556002 c -2.116,-10.919 -31.236,-9.758 -38.254,-18.31 -1.48,-1.805 -1.48,-1.805 -0.488,-8.507 1.694,-7.502 3.229,-2.846 5.651,-17.809 2.034,-12.566 -2.306,-23.364 -15.483,-23.364 -13.177,0 -17.517,10.798 -15.483,23.364 2.422,14.963 3.956,10.307 5.651,17.809 0.992,6.702 0.992,6.702 -0.488,8.507 -7.018,8.552 -36.138,7.391 -38.254,18.31 C 6.175,81.848002 5,89 5,89 h 100 c 0,0 -1.175,-7.151998 -1.426,-8.443998 z"
     id="path3049" /></svg>