<svg xmlns="http://www.w3.org/2000/svg" viewBox="0 0 300 600"><defs><style>.cls-1{fill:#dadbdc;}.cls-2,.cls-3,.cls-4{fill:none;stroke-miterlimit:10;}.cls-2{stroke:#fff;stroke-width:24px;}.cls-3,.cls-4{stroke:#af97c7;stroke-width:3px;}.cls-4{stroke-dasharray:8.32 8.32;}.cls-5,.cls-6,.cls-7{fill:#363436;}.cls-5{opacity:0.22;}.cls-7{opacity:0.44;}.cls-8{fill:#58595b;}.cls-9{fill:#9c6bad;}.cls-10{fill:#af97c7;}.cls-11{fill:#7a478b;}.cls-12{fill:#a0a2a5;}.cls-13{fill:#8f4299;}.cls-14{fill:#fff;}</style></defs><title>problems D</title><g id="Layer_11" data-name="Layer 11"><polygon class="cls-1" points="285.82 202.64 44.05 202.64 15.12 12.96 256.88 12.96 285.82 202.64"/><polygon class="cls-1" points="257.06 391.72 15.29 391.72 44.23 202.05 286 202.05 257.06 391.72"/><polygon class="cls-1" points="286 581.62 44.23 581.62 15.29 391.94 257.06 391.94 286 581.62"/></g><g id="Layer_5" data-name="Layer 5"><path class="cls-2" d="M134.42,13c-.13,12.28.6,21.91,6.6,32.91,7,13,21,17,34,22,8,4,16,10,19,19,1,2,2,5,3,7,6,18,1,41,20,51,2,1,5,2,7,3,17,7,35.65,5,53.79,2.21"/><path class="cls-2" d="M138.62,545.5c-22.77,5-57.59-1.48-63.18-6.69-18.85-17.59-10.82-43.59,4.4-58.25,14.67-14.14,50.49-23,48.88-54.06-1.44-27.77-47.38-35.21-43.9-74,6.24-69.52,97.43-48.18,97.4-108.32,0-64.58-102.38-67.91-104.37-139.7-1.21-44.06,61.44-37.28,59.87-66.37"/><path class="cls-3" d="M134.42,13c.05,1.33.11,2.66.18,4"/><path class="cls-4" d="M135.21,25.26c1.17,11,4.08,21.61,12.81,29.61,7.72,6.18,17.66,9.05,26.4,12.72"/><path class="cls-3" d="M178.22,69.29q1.83.87,3.54,1.86"/></g><g id="Layer_3" data-name="Layer 3"><polygon class="cls-5" points="257.06 391.72 15.29 391.72 44.23 202.05 286 202.05 257.06 391.72"/></g><g id="Layer_7" data-name="Layer 7"><path class="cls-6" d="M219.59,431.85a1,1,0,0,0-1.58-.61.52.52,0,0,0-.56.39c-.67,3.57-.68,7.28-2.24,10.64a13.61,13.61,0,0,1-7.5,6.75c0-.88,0-1.73,0-2.57,0-.3,0-.59,0-.89s0-.66,0-1,0-.92,0-1.37v-.34c0-.42,0-.84,0-1.26v-.55c0-.23,0-.46,0-.69,0-.48,0-.95,0-1.41,0-.22,0-.43,0-.64s0-.39,0-.58c0-.43,0-.85,0-1.25v-.11c0-.37,0-.73,0-1.08,0-.13,0-.26,0-.39,0-.7,0-1.35,0-1.93,0-.18,0-.36,0-.52,0-.49,0-.92,0-1.29,0-.12,0-.23,0-.33v-1.32H193.81V430a1.55,1.55,0,0,1,0,.21c0,.21,0,.46,0,.75v.23c0,.15,0,.3,0,.47v.08c0,.18,0,.37,0,.57v.32c0,.13,0,.27,0,.41a1.93,1.93,0,0,0,0,.24c0,.2,0,.42,0,.64v.22c0,.59,0,1.21-.07,1.87v0c0,.33,0,.67,0,1v.11c0,.31,0,.62,0,.94v.22l0,.88v.23c0,.3,0,.59,0,.89a2.53,2.53,0,0,1,0,.28c0,.38,0,.76,0,1.15a4.19,4.19,0,0,1-2-.63,6.93,6.93,0,0,1-2.44-2.6,14.42,14.42,0,0,1-1.09-3.64,11.65,11.65,0,0,0-1.2-3.28.44.44,0,0,0-.65-.11,1,1,0,0,0-1.82.24c-.9,3.13.92,7,2.67,9.5a10.52,10.52,0,0,0,4,3.64,4.81,4.81,0,0,0,2.35.46v.21c0,.27,0,.55,0,.82s0,.24,0,.36c0,.32,0,.63-.05.94a2.09,2.09,0,0,1,0,.25c0,.33,0,.66-.05,1,0,.14,0,.28,0,.42,0,.3,0,.6,0,.9,0,.12,0,.24,0,.36s0,.5,0,.74,0,.28,0,.41,0,.47,0,.7l0,.39c0,.24,0,.47,0,.71s0,.21,0,.32l-.06,1c-.11,1.78-.16,3.89-.18,7.83h0c-.09,16.27.6,48.71.72,58.2.15,11.51-.4,22.38-.4,22.38l14.29-.35s-.51-31.51.36-40.07c.47-4.68.42-26.16.29-44.67h0c0-1.59,0-3.17,0-4.71v0h.07a14.64,14.64,0,0,0,5.69-2.08,11.27,11.27,0,0,0,3.85-4.26,23,23,0,0,0,1.83-6.88A25.39,25.39,0,0,0,219.59,431.85Z"/><path class="cls-7" d="M219.59,431.85a1,1,0,0,0-1.58-.61.52.52,0,0,0-.56.39c-.67,3.57-.68,7.28-2.24,10.64a13.61,13.61,0,0,1-7.5,6.75c-.1-11.13-.21-19.51-.21-19.51H193.81s-.17,5.65-.44,12.19a4.19,4.19,0,0,1-2-.63,6.93,6.93,0,0,1-2.44-2.6,14.42,14.42,0,0,1-1.09-3.64,11.65,11.65,0,0,0-1.2-3.28.44.44,0,0,0-.65-.11,1,1,0,0,0-1.82.24c-.9,3.13.92,7,2.67,9.5a10.52,10.52,0,0,0,4,3.64,4.81,4.81,0,0,0,2.35.46c-.15,3.37-.32,6.75-.5,9.51-.11,1.78-.16,3.9-.18,7.83,2.76.55,12,.61,15.29.37,0-3.28,0-6.52-.07-9.62h.07a14.64,14.64,0,0,0,5.69-2.08,11.27,11.27,0,0,0,3.85-4.26,23,23,0,0,0,1.83-6.88A25.39,25.39,0,0,0,219.59,431.85Z"/><path class="cls-8" d="M179.21,434.56c7.75.33,28.35-.27,40.23-.61s19.31.1,19.31.1-6.21-20.42-9.07-28.61c-.93-2.66-11.64-41.61-12.51-45.15-2.94-12-17-66.19-17-66.19s-13.72,47.76-16.47,58.4c-3.11,12.08-10.37,37.7-11.29,41.08-1.77,6.53-4.25,16.1-8,27.7-2.81,8.67-3.91,13.93-3.91,13.93A179.12,179.12,0,0,1,179.21,434.56Z"/><path class="cls-9" d="M143,496.33s-10.2,22.23-15,33-13.7,30.48-13.7,30.48l53.79,0s-20-48.64-21.41-52.92-3.7-10.51-3.7-10.51"/><path class="cls-10" d="M143,496.33s25.44-.41,38-.55,31.26-.53,31.26-.53,14.2,32.18,17.26,40.55S240.39,560,240.39,560s-71.27-.16-73.12-.2S143,496.33,143,496.33Z"/><path class="cls-11" d="M143.12,497.07s-.15,24.38,0,30.08-.77,23.75-.72,26.59-.12,5.13.38,6h-1.84s.12-5.42,0-7.87.53-26.63,1.06-33.67S143.12,497.07,143.12,497.07Z"/><path class="cls-5" d="M221.61,123.65c8.79.28,20.09,4.72,3.15,4.42L153.17,128l43.45-4.35Z"/><path class="cls-6" d="M256,82.78c-1,.06-10.54,2.29-14.32,2.33.1,5.82.18,10.79.22,13.6.15,11.51-.4,22.38-.4,22.38a11.46,11.46,0,0,0,7,2.89,9.92,9.92,0,0,0,7.33-3.25S255.51,94.32,256,82.78Z"/><path class="cls-6" d="M241.68,117.21a26,26,0,0,1-5.17,6.77c-1,.86,5.53,0,5.53,0a17.22,17.22,0,0,1-3.83,4c3.52.5,7-2.64,7-2.64L245,129c0,1.16,5.23-3.74,5.23-3.74s7.38,2.15,9.25,1.6a27.58,27.58,0,0,1-4.46-3.5s7.26,1.17,6,.58c-3.47-1.65-5.27-6.78-5.27-6.78Z"/><path class="cls-8" d="M241.74,85.43c.35,1.61,3.56,2.28,5.78,2.21,4.19-.13,8.77-3,8.49-5-.26-1.78-4.51-3-8-2.22C244.76,81.12,241.33,83.61,241.74,85.43Z"/><path class="cls-12" d="M242.86,85c.23,1.18,3,1.67,4.69,1.67,3.61,0,7.46-2.19,7.26-3.68-.16-1.28-3.35-2.13-5.88-1.87C245.77,81.41,242.6,83.59,242.86,85Z"/><path class="cls-8" d="M244.47,84.41c.11.87,2.33,1.43,4.05,1.36,2.56-.1,5.23-1.63,5.08-2.62s-2.69-1.41-4.67-1.18C246.77,82.23,244.36,83.46,244.47,84.41Z"/><path class="cls-12" d="M245.88,84.22c0,.54,1.53.92,2.66.93,2,0,4.1-1.09,4-1.73s-2-.86-3.5-.68S245.83,83.62,245.88,84.22Z"/><path class="cls-8" d="M247.55,84.16c.08.27,1.13.23,1.22.23.57,0,1.88-.37,1.88-.64s-1.17-.41-1.82-.29S247.48,83.93,247.55,84.16Z"/><path class="cls-6" d="M239.77,79.4c-4.56-4.52-8.35-2.82-8.35-2.82-7.07,3.8-18.23,10.47-31.61,18.38h0l-4.05,2.4,0,0,0,0a19.33,19.33,0,0,0-1.38-1.48q-2.25,1.13-4.45,2.36A17.64,17.64,0,0,1,192,99.6l-2.21,1.31-.76.45-.86.51-1.17.7-.29.17-1.08.65-.48.28-.59.35-1.21.73-.56.33-.49.29-1.08.64-.09.06-.93.55-.33.2-1.66,1-.45.27-1.1.66-.29.17-.37.22-.22.14-.32.19-.22.13,6.87,11.83.07,0,.26-.14.08,0,.18-.1.66-.35.2-.11.42-.22.06,0,.51-.27.28-.15.36-.19.21-.12c.19-.09.37-.2.57-.3l.2-.11,1.65-.88h0l.89-.48.1,0,.83-.44.19-.1.78-.42.21-.11.79-.41.25-.14,1-.53a4.27,4.27,0,0,1,.44,2,7.92,7.92,0,0,1-.16,1.19c.52-.27,1-.56,1.56-.82.74-.38,1.45-.76,2.15-1.14,0-.21,0-.41,0-.62A4.72,4.72,0,0,0,196,114l.19-.11.73-.37.32-.17.83-.43.23-.12.87-.45.38-.2.8-.41.32-.17.66-.33.37-.19.62-.32.35-.17.63-.33.29-.14.89-.45c1.59-.79,3.45-1.81,6.85-3.77h0c8.2-4.7,21-12.37,31.84-18.93C243.21,87,244.46,84.05,239.77,79.4Z"/><path class="cls-6" d="M229,91.9a.49.49,0,0,0-1-.13c-1.25,3.2-1.49,6.79-2.38,10.1-.71,2.65-2.65,5-3.11,7.63a.47.47,0,0,0,.58.57c2.55-.59,3.46-4,4.14-6.25A35,35,0,0,0,229,91.9Z"/><path class="cls-6" d="M228.27,81.39c-.39-.72-1.18-1-1.84-1.48a30.13,30.13,0,0,0-2.61-1.72c-.81-.45-1.68-.77-2.53-1.15l-1.33,1c-.11.15-.24.29-.36.43,1.05.58,2.22,1,3.15,1.54,1.37.75,3.62,3.32,5.25,2.4A.77.77,0,0,0,228.27,81.39Z"/><path class="cls-8" d="M226.23,106.8c-2.64-5-10.56-17.77-15.13-25.12s-7-12.21-7-12.21-10,12-14.71,16.2c-2.45,2.14-18.83,15.1-24.15,18.73-7.46,5.09-46,22.89-46,22.89-1.15,2.77,39.45,1.58,49.65,1.36,5.84-.12,24.44.14,29.88-1.49,4.72-1.41,15.84-4.29,24.53-6.17,6.49-1.41,10.21-2.65,10.21-2.65A129.37,129.37,0,0,1,226.23,106.8Z"/><path class="cls-13" d="M204.27,29.52a22.51,22.51,0,1,0-41.84,11.54h0c.25.4.5.8.77,1.19l18.56,28.89L200.51,42h0A22.37,22.37,0,0,0,204.27,29.52Zm-22.51,11.1A11.66,11.66,0,1,1,193.42,29,11.66,11.66,0,0,1,181.76,40.62Z"/><path class="cls-14" d="M57.46,241.22s-1.4-65.64,21-63.87c28,2.2,23.88,37.27,23.88,37.27v25.59Z"/><path class="cls-8" d="M93.18,258.6S88.2,204.34,121,206c19.64,1,27.81,17,27.81,35.62v16.26l-55.62.73Z"/><path class="cls-6" d="M57.12,372l-.06,24.28c-.06,10.09.06,34.64.26,46,3.83.33,7.88-.83,11.71-.51.06-3-.14-33.29,0-34.88.38-3.84.28-36.92.28-37v-.73S57.13,368.8,57.12,372Z"/><path class="cls-7" d="M66.93,388.12c.8-.16,1.6-.28,2.4-.4,0-9,0-17.77,0-17.82v-.73s-12.19-.37-12.2,2.85l0,16.26C60.36,388.2,63.64,388.17,66.93,388.12Z"/><path class="cls-8" d="M46.72,375c6.2.22,22.69-.18,32.19-.42s15.46.07,15.46.07-5-13.89-7.26-19.46c-.74-1.81-9.32-28.3-10-30.71-2.36-8.18-13.58-45-13.58-45s-11,32.48-13.18,39.72c-2.5,8.22-8.31,25.65-9,27.95-1.42,4.43-3.4,10.95-6.42,18.84a90.47,90.47,0,0,0-3.12,9.47S40.52,374.76,46.72,375Z"/><path class="cls-6" d="M69,441.81A33.9,33.9,0,0,0,74,448.56c.85.86-4.91,0-4.91,0a16.51,16.51,0,0,0,3.4,4c-3.13.5-6.19-2.64-6.19-2.64s.12,2.55.17,3.74-4.64-3.74-4.64-3.74-6.55,2.15-8.21,1.6a25.51,25.51,0,0,0,4-3.5s-6.45,1.17-5.35.58c3.08-1.65,5.12-6.24,5.12-6.24Z"/><path class="cls-14" d="M217.58,564.9s-4.11-44.73,22.92-43.37c16.19.81,22.92,14,22.93,29.36v13.4l-45.85.61Z"/><path class="cls-8" d="M201,214.17s-3.09-33.64,17.24-32.62c12.17.61,17.24,10.52,17.24,22.09v10.08l-34.48.45Z"/><path class="cls-14" d="M228.72,265.46s-3.09-33.64,17.24-32.62c12.17.61,17.24,10.52,17.24,22.08V265l-34.48.46Z"/><path class="cls-12" d="M96,41.74V28.92s.62-8.94-9.6-9.31c-7.88-.29-9.06,4.73-9.33,10.81s-.87,11.64-.87,11.64Z"/><path class="cls-8" d="M69.94,55.13V34.55s1-14.34-16-14.93C40.8,19.16,38.84,27.2,38.39,37S37,55.63,37,55.63Z"/><path class="cls-8" d="M88.86,506.58S85.51,470,107.61,471.12c13.23.67,18.74,11.44,18.74,24v11l-37.49.49Z"/></g></svg>