<?xml version="1.0" encoding="utf-8"?>
<!-- Generator: Adobe Illustrator 17.0.0, SVG Export Plug-In . SVG Version: 6.00 Build 0)  -->
<!DOCTYPE svg PUBLIC "-//W3C//DTD SVG 1.1//EN" "http://www.w3.org/Graphics/SVG/1.1/DTD/svg11.dtd">
<svg version="1.1" id="Layer_1" xmlns="http://www.w3.org/2000/svg" xmlns:xlink="http://www.w3.org/1999/xlink" x="0px" y="0px"
	 width="16px" height="16px" viewBox="0 0 16 16" enable-background="new 0 0 16 16" xml:space="preserve">
<path id="Desktop_Camouflage" fill="#2E3436" d="M8,0C3.582,0,0,3.582,0,8s3.582,8,8,8s8-3.582,8-8S12.418,0,8,0z M3.886,3.644
	c0.543-0.513,1.18-0.927,1.885-1.21C5.712,2.671,5.667,2.871,5.646,2.968C5.504,3.647,4.677,3.89,3.886,3.644z M10.044,13.632
	C9.405,13.865,8.719,14,8,14c-1.133,0-2.19-0.322-3.095-0.87c1.157-0.579,2.348-0.548,3.608,0.049
	c0.463,0.219,0.987,0.402,1.503,0.454C10.027,13.634,10.033,13.631,10.044,13.632z M2.542,10.478C2.197,9.721,2,8.884,2,8
	c0-0.459,0.056-0.903,0.154-1.333C2.377,6.872,2.614,7.007,2.845,7c0.631-0.018,1.031-0.304,1.187-0.926
	c0.069-0.276,0.125-0.565,0.235-0.823c0.12-0.281,0.351-0.475,0.694-0.333c0.266,0.11,0.182,0.867,0.221,1.016
	c0.178,0.668,0.68,1.041,1.235,0.924C7.125,6.71,7.535,6.166,7.453,5.481C7.408,5.103,7.315,4.723,7.328,4.347
	c0.018-0.52,0.36-0.736,0.855-0.583c0.273,0.084,0.526,0.237,0.801,0.312c0.281,0.076,0.582,0.089,0.777-0.199
	c0.176-0.259,0.095-0.725-0.198-0.949C9.365,2.778,9.169,2.494,8.41,2.541C8.112,2.56,8.069,2.291,8.09,2.052
	c0.002-0.018,0.01-0.03,0.013-0.047c1.648,0.028,3.136,0.725,4.205,1.829c-0.724,0.56-0.766,1.224-0.375,2.123
	c0.122,0.28,0.237,0.574,0.268,0.872c0.017,0.161-0.121,0.423-0.26,0.492c-0.147,0.073-0.423,0.029-0.57-0.071
	c-0.189-0.129-0.306-0.365-0.458-0.551C10.6,6.318,10.173,6.186,9.718,6.324c-0.391,0.119-0.633,0.46-0.67,0.946
	C8.993,7.99,9.28,8.503,10.005,8.822C10.41,9,10.854,9.096,11.287,9.203c1.233,0.307,1.673,0.832,1.716,2.096
	c0,0.002,0,0.003,0,0.005c-0.519,0.783-1.218,1.433-2.035,1.901c0.048-0.132,0.076-0.287,0.073-0.48
	c-0.009-0.512-0.23-0.924-0.699-1.232c-0.871-0.572-1.805-0.757-2.832-0.372c-0.429,0.161-0.849,0.342-1.286,0.488
	c-0.451,0.151-0.91,0.166-1.353-0.05c-0.607-0.296-0.747-0.836-0.271-1.265c0.27-0.243,0.648-0.39,0.971-0.589
	c0.293-0.18,0.606-0.346,0.856-0.566c0.287-0.253,0.291-0.562,0.059-0.874c-0.208-0.28-0.495-0.215-0.771-0.152
	C4.594,8.37,3.676,8.874,3.083,9.797C2.929,10.037,2.74,10.262,2.542,10.478z"/>
</svg>
