<?xml version="1.0" encoding="utf-8"?>
<!-- Generator: Adobe Illustrator 17.0.0, SVG Export Plug-In . SVG Version: 6.00 Build 0)  -->
<!DOCTYPE svg PUBLIC "-//W3C//DTD SVG 1.1//EN" "http://www.w3.org/Graphics/SVG/1.1/DTD/svg11.dtd">
<svg version="1.1" id="Layer_1" xmlns="http://www.w3.org/2000/svg" xmlns:xlink="http://www.w3.org/1999/xlink" x="0px" y="0px"
	 width="16px" height="16px" viewBox="0 0 16 16" enable-background="new 0 0 16 16" xml:space="preserve">
<path id="MAC_Spoofing" fill="#2E3436" d="M15,12H1V0h14V12z M3,10h10V2H3V10z M0,16h16v-3H0V16z M5.979,5h1.164
	c0-0.222,0.065-0.507,0.194-0.713c0.13-0.208,0.35-0.311,0.661-0.311c0.315,0,0.534,0.085,0.653,0.253
	c0.119,0.168,0.18,0.354,0.18,0.558c0,0.178-0.055,0.339-0.162,0.487C8.61,5.36,8.533,5.439,8.436,5.512l-0.293,0.23
	C7.854,5.969,7.676,6.166,7.605,6.34C7.535,6.514,7.492,6.827,7.476,7.282h1.091C8.571,7.068,8.588,6.91,8.62,6.807
	c0.05-0.16,0.153-0.301,0.309-0.422l0.285-0.222C9.503,5.938,9.697,5.752,9.8,5.607c0.174-0.241,0.261-0.534,0.261-0.883
	c0-0.57-0.2-1-0.602-1.289C9.057,3.146,8.553,3,7.945,3C7.484,3,7.094,3.103,6.777,3.307C6.276,3.627,6.009,4.236,5.979,5z M7.448,9
	h1.204V7.836H7.448V9z"/>
</svg>
