<?xml version="1.0" encoding="utf-8"?>
<!-- Generator: Adobe Illustrator 17.0.0, SVG Export Plug-In . SVG Version: 6.00 Build 0)  -->
<!DOCTYPE svg PUBLIC "-//W3C//DTD SVG 1.1//EN" "http://www.w3.org/Graphics/SVG/1.1/DTD/svg11.dtd">
<svg version="1.1" id="Layer_1" xmlns="http://www.w3.org/2000/svg" xmlns:xlink="http://www.w3.org/1999/xlink" x="0px" y="0px"
	 width="16px" height="16px" viewBox="0 0 16 16" enable-background="new 0 0 16 16" xml:space="preserve">
<path id="Time_Zone" fill="#2E3436" d="M8,2c1.6,0,3.106,0.625,4.241,1.76C13.376,4.895,14.001,6.4,14,8c0,3.308-2.692,6-6,6
	s-6-2.692-6-6S4.692,2,8,2 M8,0C3.59,0,0,3.588,0,8s3.588,8,8,8c4.412,0,8-3.588,8-8C16.001,3.588,12.412,0,8,0L8,0z M10.811,4.757
	L7.982,7.586L5.861,5.464L5.154,6.172L7.982,9l3.536-3.536L10.811,4.757z"/>
</svg>
