<?xml version="1.0" encoding="utf-8"?>
<!-- Generator: Adobe Illustrator 17.0.0, SVG Export Plug-In . SVG Version: 6.00 Build 0)  -->
<!DOCTYPE svg PUBLIC "-//W3C//DTD SVG 1.1//EN" "http://www.w3.org/Graphics/SVG/1.1/DTD/svg11.dtd">
<svg version="1.1" id="Layer_1" xmlns="http://www.w3.org/2000/svg" xmlns:xlink="http://www.w3.org/1999/xlink" x="0px" y="0px"
	 width="16px" height="16px" viewBox="0 0 16 16" enable-background="new 0 0 16 16" xml:space="preserve">
<path id="Text_Language" fill="#2E3436" d="M16,5c0,2.761-2.239,5-5,5c-0.343,0-0.677-0.035-1-0.101V7.571
	c0.45-0.236,0.839-0.506,1.167-0.781c1.036,1.039,2.574,1.337,2.574,1.337l0.266-0.941c0,0-1.289-0.295-2.161-1.111
	c0.954-1.122,1.305-2.345,1.425-2.93h1.13V2.168h-2.715v-0.91H10.71v0.91H7.994v0.977h4.275c-0.137,0.541-0.446,1.41-1.123,2.234
	c-0.655-0.764-1.005-1.631-1.005-1.631L9.228,4.095c0,0,0.366,1.061,1.22,1.986c0,0-0.206,0.162-0.448,0.333V6H6.101
	C6.035,5.677,6,5.343,6,5c0-2.761,2.239-5,5-5S16,2.239,16,5z M9,7v9H0V7H9z M7.158,14.581L5.055,8.419h-1.11l-2.103,6.162h1.086
	l0.61-1.848h1.88l0.629,1.848H7.158z M3.85,11.813h1.264c0,0-0.597-1.747-0.638-1.889C4.435,10.066,3.85,11.813,3.85,11.813z"/>
</svg>
