<?xml version="1.0" encoding="UTF-8" standalone="no"?>
<svg
   xmlns:dc="http://purl.org/dc/elements/1.1/"
   xmlns:cc="http://creativecommons.org/ns#"
   xmlns:rdf="http://www.w3.org/1999/02/22-rdf-syntax-ns#"
   xmlns:svg="http://www.w3.org/2000/svg"
   xmlns="http://www.w3.org/2000/svg"
   version="1.1"
   id="svg12743"
   viewBox="0 0 11.000001 11"
   height="3.1044445mm"
   width="3.1044445mm">
  <defs
     id="defs12745" />
  <metadata
     id="metadata12748">
    <rdf:RDF>
      <cc:Work
         rdf:about="">
        <dc:format>image/svg+xml</dc:format>
        <dc:type
           rdf:resource="http://purl.org/dc/dcmitype/StillImage" />
        <dc:title></dc:title>
      </cc:Work>
    </rdf:RDF>
  </metadata>
  <g
     transform="translate(574.78571,-526.8622)"
     id="layer1">
    <g
       id="g7699"
       transform="translate(-748.78571,213.8622)">
      <path
         id="path7701"
         d="m 179.5,324 c -3.033,0 -5.5,-2.467 -5.5,-5.5 0,-3.033 2.467,-5.5 5.5,-5.5 3.033,0 5.5,2.467 5.5,5.5 0,3.033 -2.467,5.5 -5.5,5.5 z m 0,-10.01 c -2.487,0 -4.51,2.023 -4.51,4.509 0,2.487 2.023,4.51 4.51,4.51 2.486,0 4.509,-2.023 4.509,-4.51 0.001,-2.486 -2.022,-4.509 -4.509,-4.509 z"
         style="fill:#4a90d9" />
      <g
         id="g7703">
        <g
           id="g7705">
          <path
             id="path7707"
             d="m 179.948,317.201 c 0,-0.38 -0.25,-0.584 -0.621,-0.584 -0.342,0 -0.593,0.176 -0.842,0.426 l -0.75,-0.685 c 0.417,-0.5 1,-0.843 1.686,-0.843 1.046,0 1.834,0.491 1.834,1.584 0,1.149 -1.389,1.491 -1.278,2.594 l -1.195,0 c -0.187,-1.27 1.166,-1.798 1.166,-2.492 z m -0.574,3.028 c 0.473,0 0.824,0.37 0.824,0.862 0,0.482 -0.351,0.852 -0.824,0.852 -0.472,0 -0.815,-0.37 -0.815,-0.852 -0.001,-0.491 0.343,-0.862 0.815,-0.862 z"
             style="fill:#4a90d9" />
        </g>
      </g>
    </g>
  </g>
</svg>
