<?xml version="1.0" encoding="utf-8"?>
<!-- Generator: Adobe Illustrator 17.0.0, SVG Export Plug-In . SVG Version: 6.00 Build 0)  -->
<!DOCTYPE svg PUBLIC "-//W3C//DTD SVG 1.1//EN" "http://www.w3.org/Graphics/SVG/1.1/DTD/svg11.dtd">
<svg version="1.1" id="Layer_1" xmlns="http://www.w3.org/2000/svg" xmlns:xlink="http://www.w3.org/1999/xlink" x="0px" y="0px"
	 width="16px" height="16px" viewBox="0 0 16 16" enable-background="new 0 0 16 16" xml:space="preserve">
<path id="Keyboard_Layout" fill="#2E3436" d="M0,2v12h15V2H0z M8,4h2v2H8V4z M8,7h2v2H8V7z M5,4h2v2H5V4z M5,7h2v2H5V7z M2,4h2v2H2
	V4z M2,7h2v2H2V7z M13,12H2v-2h11V12z M13,9h-2V7h2V9z M13,6h-2V4h2V6z"/>
</svg>
