<?xml version="1.0" encoding="UTF-8" standalone="no"?>
<svg
   xmlns:dc="http://purl.org/dc/elements/1.1/"
   xmlns:cc="http://creativecommons.org/ns#"
   xmlns:rdf="http://www.w3.org/1999/02/22-rdf-syntax-ns#"
   xmlns:svg="http://www.w3.org/2000/svg"
   xmlns="http://www.w3.org/2000/svg"
   xmlns:sodipodi="http://sodipodi.sourceforge.net/DTD/sodipodi-0.dtd"
   xmlns:inkscape="http://www.inkscape.org/namespaces/inkscape"
   version="1.1"
   x="0px"
   y="0px"
   viewBox="0 0 99.574775 71.754097"
   enable-background="new 0 0 100 100"
   xml:space="preserve"
   id="svg4453"
   sodipodi:docname="give-love.svg"
   width="99.574776"
   height="71.754097"
   inkscape:version="0.92.1 r15371"><metadata
     id="metadata4459"><rdf:RDF><cc:Work
         rdf:about=""><dc:format>image/svg+xml</dc:format><dc:type
           rdf:resource="http://purl.org/dc/dcmitype/StillImage" /><dc:title></dc:title></cc:Work></rdf:RDF></metadata><defs
     id="defs4457" /><sodipodi:namedview
     pagecolor="#ffffff"
     bordercolor="#666666"
     borderopacity="1"
     objecttolerance="10"
     gridtolerance="10"
     guidetolerance="10"
     inkscape:pageopacity="0"
     inkscape:pageshadow="2"
     inkscape:window-width="1280"
     inkscape:window-height="703"
     id="namedview4455"
     showgrid="false"
     fit-margin-top="0"
     fit-margin-left="0"
     fit-margin-right="0"
     fit-margin-bottom="0"
     inkscape:zoom="3.3092597"
     inkscape:cx="67.948889"
     inkscape:cy="13.337075"
     inkscape:window-x="0"
     inkscape:window-y="27"
     inkscape:window-maximized="1"
     inkscape:current-layer="svg4453" /><g
     id="g4449"
     transform="translate(-0.171,-3.9499057)"><path
       style="clip-rule:evenodd;fill:#000000;fill-rule:evenodd"
       inkscape:connector-curvature="0"
       id="path4447"
       d="m 98.541,48.067 c -1.058,-1.159 -4.059,-1.526 -6.473,-1.17 -1.197,0.176 -18.73,5.17 -18.73,5.17 0.499,1.508 1.32,4.267 -1.65,7.088 -2.026,1.712 -5.147,2.222 -9.201,2.145 -4.049,-0.077 -8.438,-0.687 -11.818,-1.093 -1.098,-0.132 -4.144,-0.522 -4.144,-0.522 0,0 2.144,-0.956 5.053,-1.052 3.63,-0.115 6.486,-0.091 8.133,0 1.802,0.101 4.392,0.317 5.475,0.356 4.95,0.178 6.127,-2.893 6.151,-4.113 0.062,-3.446 -1.955,-4.591 -8.21,-5.095 C 59.106,49.457 54.786,49.198 51.776,48.832 45.973,48.12 41.805,46.542 39.679,46.348 38.216,46.211 34.426,45.525 30.825,48.406 19.902,57.139 0.171,62.608 0.171,62.619 3.15,72.14 19.586,75.704 19.586,75.704 c 6.987,-6.101 14.73,-6.854 21.353,-7.088 1.141,-0.042 12.243,-0.043 22.497,1.148 2.062,0.142 3.828,-0.929 3.828,-0.929 15.382,-9.506 28.501,-14.711 28.501,-14.711 3.112,-1.131 4.027,-2.481 3.979,-3.516 -0.091,-1.881 -1.191,-2.527 -1.203,-2.541 z"
       sodipodi:nodetypes="ccccccccccccccccccccccc" /></g><path
     d="M 66.516057,36.995151 C 54.980439,28.221582 46.20687,19.610486 46.20687,10.836917 c 0,-11.53561661 17.384664,-14.4601397 20.309187,-2.9245212 2.924523,-11.5356184 20.309188,-8.77356891 20.309188,2.9245212 0,8.773569 -8.773569,17.384665 -20.309188,26.158234 z"
     id="path5132"
     inkscape:connector-curvature="0"
     sodipodi:nodetypes="cscsc"
     style="stroke-width:1.624735" /></svg>