<?xml version="1.0" encoding="UTF-8" standalone="no"?>
<!-- Created with Inkscape (http://www.inkscape.org/) -->

<svg
   xmlns:dc="http://purl.org/dc/elements/1.1/"
   xmlns:cc="http://creativecommons.org/ns#"
   xmlns:rdf="http://www.w3.org/1999/02/22-rdf-syntax-ns#"
   xmlns:svg="http://www.w3.org/2000/svg"
   xmlns="http://www.w3.org/2000/svg"
   version="1.1"
   width="834.77142"
   height="469.0625"
   id="svg3023"
   xml:space="preserve"><metadata
     id="metadata3029"><rdf:RDF><cc:Work
         rdf:about=""><dc:format>image/svg+xml</dc:format><dc:type
           rdf:resource="http://purl.org/dc/dcmitype/StillImage" /><dc:title></dc:title></cc:Work></rdf:RDF></metadata><defs
     id="defs3027"><clipPath
       id="clipPath3037"><path
         d="m 0,0.1 595.2,0 0,841.8 L 0,841.9 0,0.1 z"
         id="path3039" /></clipPath><clipPath
       id="clipPath3045"><path
         d="m 56.7,771.2 481.8,0 0,14 -481.8,0 0,-14 z"
         id="path3047" /></clipPath><clipPath
       id="clipPath3063"><path
         d="m 56.7,56.8 481.8,0 0,14 -481.8,0 0,-14 z"
         id="path3065" /></clipPath><clipPath
       id="clipPath3291"><path
         d="m 56.6,112 64,0 0,652 -64,0 0,-652 z"
         id="path3293" /></clipPath><clipPath
       id="clipPath3581"><path
         d="m 248.6,112 83.1,0 0,652 -83.1,0 0,-652 z"
         id="path3583" /></clipPath><clipPath
       id="clipPath3709"><path
         d="m 56.6,111.2 438.1,0 0,652.7 -438.1,0 0,-652.7 z"
         id="path3711" /></clipPath></defs><g
     transform="matrix(1.25,0,0,-1.25,-19.389438,1026.8485)"
     id="g3031"><g
       transform="matrix(1.3014354,0,0,1.3014354,-148.64775,285.64198)"
       id="g3033"><g
         clip-path="url(#clipPath3037)"
         id="g3035" /></g><path
       d="m 354.35703,741.79509 c -12.88421,0 -25.63828,-2.0823 -37.87177,-5.9866 -12.23349,-4.03445 -23.68613,-9.89091 -34.09761,-17.43924 -10.41148,-7.54832 -19.52153,-16.65837 -27.06986,-27.06985 -7.54832,-10.41149 -13.40478,-21.86412 -17.43923,-34.09761 -3.90431,-12.23349 -5.85646,-24.98756 -5.85646,-37.87177 0,-4.42488 0.13014,-8.84976 0.65072,-13.27464 l 121.68421,13.27464 0,0 0,0 0,0 0,0 0,0 0,0 0,122.46507 z"
       id="path3715"
       style="fill:#e30029;fill-opacity:1;fill-rule:evenodd;stroke:none" /><path
       d="m 232.67282,606.05538 c 0.911,-8.32919 2.73301,-16.52823 5.20574,-24.46699 4.03445,-12.23349 9.89091,-23.81627 17.43923,-34.22775 7.54833,-10.28134 16.65838,-19.52153 27.06986,-27.06986 10.02105,-7.15789 21.08325,-12.88421 32.79617,-16.91866 l 39.17321,115.9579 0,0 0,0 0,0 0,0 -121.68421,-13.27464 z"
       id="path3717"
       style="fill:#ff420e;fill-opacity:1;fill-rule:evenodd;stroke:none" /><path
       d="m 315.18382,503.37212 c 0.52058,-0.13014 0.91101,-0.26028 1.30144,-0.39043 12.23349,-4.03445 24.98756,-5.9866 37.87177,-5.9866 12.75407,0 25.50813,1.95215 37.74163,5.9866 12.23349,3.90431 23.81626,9.89091 34.22775,17.30909 0.78086,0.65072 1.56172,1.30144 2.47272,1.95216 l -74.4421,97.08708 0,0 0,0 0,0 0,0 0,0 -39.17321,-115.9579 z"
       id="path3719"
       style="fill:#ffd300;fill-opacity:1;fill-rule:evenodd;stroke:none" /><path
       d="m 428.79913,522.24294 c 9.37034,7.15789 17.56938,15.61722 24.59713,25.1177 7.54833,10.41148 13.40479,21.99426 17.30909,34.22775 4.03445,12.23349 6.11675,24.98756 6.11675,37.74163 0,3.77416 -0.26029,7.41818 -0.52057,11.0622 l -121.9445,-11.0622 0,0 0,0 0,0 0,0 74.4421,-97.08708 z"
       id="path3721"
       style="fill:#ffff2a;fill-opacity:1;fill-rule:evenodd;stroke:none" /><path
       d="m 476.30153,630.39222 c -0.91101,9.11005 -2.73302,18.08995 -5.59618,26.80957 -3.9043,12.23349 -9.76076,23.68612 -17.30909,34.09761 -0.39043,0.52057 -0.65072,0.911 -1.04115,1.30143 l -97.99808,-73.27081 0,0 0,0 0,0 121.9445,11.0622 z"
       id="path3723"
       style="fill:#ccff00;fill-opacity:1;fill-rule:evenodd;stroke:none" /><path
       d="m 452.35511,692.60083 c -5.46602,7.41818 -11.84306,14.18565 -18.87081,20.04211 l -79.12727,-93.31292 0,0 97.99808,73.27081 z"
       id="path3725"
       style="fill:#5fd38d;fill-opacity:1;fill-rule:evenodd;stroke:none" /><path
       d="m 433.4843,712.64294 c -2.34258,2.08229 -4.68517,3.9043 -7.15789,5.72631 -10.41149,7.54833 -21.99426,13.40479 -34.22775,17.43924 -8.84977,2.86316 -18.08996,4.68516 -27.33015,5.46603 l -10.41148,-121.9445 0,0 0,0 0,0 79.12727,93.31292 z"
       id="path3727"
       style="fill:#058dff;fill-opacity:1;fill-rule:evenodd;stroke:none" /><path
       d="m 364.76851,741.27452 c -3.51387,0.39043 -7.02775,0.52057 -10.41148,0.52057 l 0,-122.46507 0,0 10.41148,121.9445 z"
       id="path3729"
       style="fill:#a200aa;fill-opacity:1;fill-rule:evenodd;stroke:none" /><text
       x="266.76526"
       y="-803.75378"
       transform="scale(1,-1)"
       id="text4685"
       xml:space="preserve"
       style="font-size:12.80000019px;font-style:normal;font-variant:normal;font-weight:normal;font-stretch:normal;text-align:start;line-height:125%;letter-spacing:0px;word-spacing:0px;writing-mode:lr-tb;text-anchor:start;fill:#000000;fill-opacity:1;stroke:none;font-family:Sans;-inkscape-font-specification:Sans"><tspan
         x="266.76526"
         y="-803.75378"
         id="tspan4687"
         style="text-align:center;text-anchor:middle">Infrastructure</tspan><tspan
         x="266.76526"
         y="-787.75378"
         id="tspan5014"
         style="text-align:center;text-anchor:middle">28%</tspan></text>
<text
       x="257.40002"
       y="-738.89758"
       transform="scale(1,-1)"
       id="text4685-3"
       xml:space="preserve"
       style="font-size:12.80000019px;font-style:normal;font-variant:normal;font-weight:normal;font-stretch:normal;text-align:center;line-height:125%;letter-spacing:0px;word-spacing:0px;writing-mode:lr-tb;text-anchor:middle;fill:#000000;fill-opacity:1;stroke:none;font-family:Sans;-inkscape-font-specification:Sans"><tspan
         x="257.40002"
         y="-738.89758"
         id="tspan4687-6">work</tspan><tspan
         x="257.40002"
         y="-722.89758"
         id="tspan5020">27%</tspan></text>
<text
       x="359.86664"
       y="-771.43732"
       transform="scale(1,-1)"
       id="text4685-3-7"
       xml:space="preserve"
       style="font-size:12.80000019px;font-style:normal;font-variant:normal;font-weight:normal;font-stretch:normal;text-align:start;line-height:125%;letter-spacing:0px;word-spacing:0px;writing-mode:lr-tb;text-anchor:start;fill:#000000;fill-opacity:1;stroke:none;font-family:Sans;-inkscape-font-specification:Sans"><tspan
         x="359.86664"
         y="-771.43732"
         id="tspan4687-6-5"
         style="text-align:center;text-anchor:middle">others</tspan><tspan
         x="359.86664"
         y="-755.43732"
         id="tspan5022"
         style="text-align:center;text-anchor:middle">1%</tspan></text>
<text
       x="420.39462"
       y="-762.88947"
       transform="scale(1,-1)"
       id="text4685-3-7-3"
       xml:space="preserve"
       style="font-size:12.80000019px;font-style:normal;font-variant:normal;font-weight:normal;font-stretch:normal;text-align:start;line-height:125%;letter-spacing:0px;word-spacing:0px;writing-mode:lr-tb;text-anchor:start;fill:#000000;fill-opacity:1;stroke:none;font-family:Sans;-inkscape-font-specification:Sans"><tspan
         x="420.39462"
         y="-762.88947"
         id="tspan4687-6-5-5"
         style="text-align:center;text-anchor:middle">Meetings</tspan><tspan
         x="420.39462"
         y="-746.88947"
         id="tspan5034"
         style="text-align:center;text-anchor:middle">10%</tspan></text>
<text
       x="565.57867"
       y="-725.92969"
       transform="scale(1,-1)"
       id="text4685-3-7-3-6"
       xml:space="preserve"
       style="font-size:12.80000019px;font-style:normal;font-variant:normal;font-weight:normal;font-stretch:normal;text-align:start;line-height:125%;letter-spacing:0px;word-spacing:0px;writing-mode:lr-tb;text-anchor:start;fill:#000000;fill-opacity:1;stroke:none;font-family:Sans;-inkscape-font-specification:Sans"><tspan
         x="565.57867"
         y="-725.92969"
         id="tspan4687-6-5-5-2"
         style="text-align:center;text-anchor:middle">Administration</tspan><tspan
         x="565.57867"
         y="-709.92969"
         id="tspan5036"
         style="text-align:center;text-anchor:middle">12%</tspan></text>
<text
       x="472.17786"
       y="-722.20587"
       transform="scale(1,-1)"
       id="text4685-3-7-3-6-9"
       xml:space="preserve"
       style="font-size:12.80000019px;font-style:normal;font-variant:normal;font-weight:normal;font-stretch:normal;text-align:start;line-height:125%;letter-spacing:0px;word-spacing:0px;writing-mode:lr-tb;text-anchor:start;fill:#000000;fill-opacity:1;stroke:none;font-family:Sans;-inkscape-font-specification:Sans"><tspan
         x="472.17786"
         y="-722.20587"
         id="tspan4687-6-5-5-2-1"
         style="text-align:center;text-anchor:middle">others</tspan><tspan
         x="472.17786"
         y="-706.20587"
         id="tspan5024"
         style="text-align:center;text-anchor:middle">4%</tspan></text>
<text
       x="502.70477"
       y="-665.41925"
       transform="scale(1,-1)"
       id="text4685-3-7-3-6-9-2"
       xml:space="preserve"
       style="font-size:12.80000019px;font-style:normal;font-variant:normal;font-weight:normal;font-stretch:normal;text-align:start;line-height:125%;letter-spacing:0px;word-spacing:0px;writing-mode:lr-tb;text-anchor:start;fill:#000000;fill-opacity:1;stroke:none;font-family:Sans;-inkscape-font-specification:Sans"><tspan
         x="502.70477"
         y="-665.41925"
         id="tspan4687-6-5-5-2-1-7"
         style="text-align:center;text-anchor:middle">work</tspan><tspan
         x="502.70477"
         y="-649.41925"
         id="tspan5028"
         style="text-align:center;text-anchor:middle">9%</tspan><tspan
         x="502.70477"
         y="-633.41925"
         id="tspan5026"
         style="text-align:center;text-anchor:middle" /></text>
<text
       x="210.6053"
       y="-533.50055"
       transform="scale(1,-1)"
       id="text4685-3-7-3-6-0"
       xml:space="preserve"
       style="font-size:12.80000019px;font-style:normal;font-variant:normal;font-weight:normal;font-stretch:normal;text-align:start;line-height:125%;letter-spacing:0px;word-spacing:0px;writing-mode:lr-tb;text-anchor:start;fill:#000000;fill-opacity:1;stroke:none;font-family:Sans;-inkscape-font-specification:Sans"><tspan
         x="210.6053"
         y="-533.50055"
         id="tspan4857"
         style="text-align:center;text-anchor:middle">Releases</tspan><tspan
         x="210.6053"
         y="-517.50055"
         id="tspan5032"
         style="text-align:center;text-anchor:middle">18%</tspan></text>
<text
       x="376.74512"
       y="-470.41003"
       transform="scale(1,-1)"
       id="text4685-3-7-3-6-0-3"
       xml:space="preserve"
       style="font-size:12.80000019px;font-style:normal;font-variant:normal;font-weight:normal;font-stretch:normal;text-align:start;line-height:125%;letter-spacing:0px;word-spacing:0px;writing-mode:lr-tb;text-anchor:start;fill:#000000;fill-opacity:1;stroke:none;font-family:Sans;-inkscape-font-specification:Sans"><tspan
         x="376.74512"
         y="-470.41003"
         id="tspan4687-6-5-5-2-9-6"
         style="text-align:center;text-anchor:middle">New features</tspan><tspan
         x="376.74512"
         y="-454.41003"
         id="tspan5038"
         style="text-align:center;text-anchor:middle">16%</tspan></text>
<text
       x="515.77966"
       y="-562.23395"
       transform="scale(1,-1)"
       id="text4685-3-7-3-6-0-3-0"
       xml:space="preserve"
       style="font-size:12.80000019px;font-style:normal;font-variant:normal;font-weight:normal;font-stretch:normal;text-align:start;line-height:125%;letter-spacing:0px;word-spacing:0px;writing-mode:lr-tb;text-anchor:start;fill:#000000;fill-opacity:1;stroke:none;font-family:Sans;-inkscape-font-specification:Sans"><tspan
         x="515.77966"
         y="-562.23395"
         id="tspan4687-6-5-5-2-9-6-6"
         style="text-align:center;text-anchor:middle">Help desk</tspan><tspan
         x="515.77966"
         y="-546.23395"
         id="tspan5030"
         style="text-align:center;text-anchor:middle">16%</tspan></text>
<path
       d="m 257.97751,756.3706 7.52608,24.08344 66.22946,-3.76304"
       id="path5016"
       style="fill:none;stroke:#000000;stroke-width:0.80000001px;stroke-linecap:butt;stroke-linejoin:miter;stroke-opacity:1" /><path
       d="m 491.28585,714.22458 48.91949,0.7526 -34.61994,-31.6095"
       id="path5018"
       style="fill:none;stroke:#000000;stroke-width:0.80000001px;stroke-linecap:butt;stroke-linejoin:miter;stroke-opacity:1" /></g></svg>