<?xml version="1.0" encoding="UTF-8" standalone="no"?>
<!-- Created with Inkscape (http://www.inkscape.org/) -->

<svg
   xmlns:dc="http://purl.org/dc/elements/1.1/"
   xmlns:cc="http://creativecommons.org/ns#"
   xmlns:rdf="http://www.w3.org/1999/02/22-rdf-syntax-ns#"
   xmlns:svg="http://www.w3.org/2000/svg"
   xmlns="http://www.w3.org/2000/svg"
   version="1.1"
   width="626.61969"
   height="449.16254"
   id="svg3879"
   xml:space="preserve"><metadata
     id="metadata3885"><rdf:RDF><cc:Work
         rdf:about=""><dc:format>image/svg+xml</dc:format><dc:type
           rdf:resource="http://purl.org/dc/dcmitype/StillImage" /><dc:title></dc:title></cc:Work></rdf:RDF></metadata><defs
     id="defs3883"><clipPath
       id="clipPath3893"><path
         d="m 0,0.1 595.2,0 0,841.8 L 0,841.9 0,0.1 z"
         id="path3895" /></clipPath><clipPath
       id="clipPath3901"><path
         d="m 56.7,771.2 481.8,0 0,14 -481.8,0 0,-14 z"
         id="path3903" /></clipPath><clipPath
       id="clipPath3919"><path
         d="m 56.7,56.8 481.8,0 0,14 -481.8,0 0,-14 z"
         id="path3921" /></clipPath><clipPath
       id="clipPath4501"><path
         d="m 56.6,85.6 470.5,0 0,678.3 -470.5,0 0,-678.3 z"
         id="path4503" /></clipPath></defs><g
     transform="matrix(1.25,0,0,-1.25,-71.995203,1030.5759)"
     id="g3887"><g
       transform="translate(-78.491525,442.40678)"
       id="g3889"><g
         clip-path="url(#clipPath3893)"
         id="g3891" /></g><text
       x="89.086838"
       y="171.88052"
       transform="matrix(0.8,0,0,-0.8,0,842)"
       id="text4526"
       xml:space="preserve"
       style="font-size:14px;font-style:normal;font-variant:normal;font-weight:normal;font-stretch:normal;text-align:start;line-height:125%;letter-spacing:0px;word-spacing:0px;writing-mode:lr-tb;text-anchor:start;fill:#000000;fill-opacity:1;stroke:none;font-family:Sans;-inkscape-font-specification:Sans"><tspan
         x="89.086838"
         y="171.88052"
         id="tspan4528" /></text>
<text
       x="76.621162"
       y="-729.18262"
       transform="scale(1,-1)"
       id="text4530"
       xml:space="preserve"
       style="font-size:12.80000019px;font-style:normal;font-variant:normal;font-weight:normal;font-stretch:normal;text-align:start;line-height:125%;letter-spacing:0px;word-spacing:0px;writing-mode:lr-tb;text-anchor:start;fill:#000000;fill-opacity:1;stroke:none;font-family:Sans;-inkscape-font-specification:Sans"><tspan
         x="76.621162"
         y="-729.18262"
         id="tspan4532">Related to</tspan><tspan
         x="76.621162"
         y="-713.18262"
         id="tspan4534">US government</tspan><tspan
         x="76.621162"
         y="-697.18262"
         id="tspan4616">34%</tspan></text>
<text
       x="365.42331"
       y="-794.73572"
       transform="scale(1,-1)"
       id="text4530-7"
       xml:space="preserve"
       style="font-size:12.80000019px;font-style:normal;font-variant:normal;font-weight:normal;font-stretch:normal;text-align:start;line-height:125%;letter-spacing:0px;word-spacing:0px;writing-mode:lr-tb;text-anchor:start;fill:#000000;fill-opacity:1;stroke:none;font-family:Sans;-inkscape-font-specification:Sans"><tspan
         x="365.42331"
         y="-794.73572"
         id="tspan4610">Companies</tspan><tspan
         x="365.42331"
         y="-778.73572"
         id="tspan4626">15%</tspan></text>
<text
       x="465.29523"
       y="-664.53864"
       transform="scale(1,-1)"
       id="text4530-7-5"
       xml:space="preserve"
       style="font-size:12.80000019px;font-style:normal;font-variant:normal;font-weight:normal;font-stretch:normal;text-align:start;line-height:125%;letter-spacing:0px;word-spacing:0px;writing-mode:lr-tb;text-anchor:start;fill:#000000;fill-opacity:1;stroke:none;font-family:Sans;-inkscape-font-specification:Sans"><tspan
         x="465.29523"
         y="-664.53864"
         id="tspan4534-3-6">Individuals</tspan><tspan
         x="465.29523"
         y="-648.53864"
         id="tspan4628">17%</tspan></text>
<text
       x="267.77264"
       y="-508.82175"
       transform="scale(1,-1)"
       id="text4530-7-5-2"
       xml:space="preserve"
       style="font-size:12.80000019px;font-style:normal;font-variant:normal;font-weight:normal;font-stretch:normal;text-align:start;line-height:125%;letter-spacing:0px;word-spacing:0px;writing-mode:lr-tb;text-anchor:start;fill:#000000;fill-opacity:1;stroke:none;font-family:Sans;-inkscape-font-specification:Sans"><tspan
         x="267.77264"
         y="-508.82175"
         id="tspan4604">Foundations &amp;</tspan><tspan
         x="267.77264"
         y="-492.82175"
         id="tspan4620">NGOs</tspan><tspan
         x="267.77264"
         y="-476.82175"
         id="tspan4624">34%</tspan></text>
<path
       d="m 305.60802,775.73197 c -12.9,0 -25.6,-2 -37.9,-5.9 -12.2,-4 -23.7,-9.9 -34.1,-17.4 -10.4,-7.6 -19.5,-16.7 -27.1,-27.1 -7.5,-10.4 -13.4,-21.9 -17.4,-34.1 -3.9,-12.3 -6,-25 -6,-37.9 0,-12.8 2.1,-25.6 6,-37.8 3.5,-10.7 8.4,-20.8 14.6,-30.1 l 101.9,67.9 0,0 0,0 0,0 0,0 0,0 0,0 0,0 0,122.4 z"
       id="path5903"
       style="fill:#004586;fill-opacity:1;fill-rule:evenodd;stroke:none" /><path
       d="m 203.70802,585.43197 c 0.9,-1.4 1.9,-2.7 2.8,-4 7.6,-10.4 16.7,-19.6 27.1,-27.1 10.4,-7.6 21.9,-13.4 34.1,-17.4 12.3,-4 25,-6 37.9,-6 12.8,0 25.6,2 37.8,6 12.2,4 23.7,9.8 34.1,17.4 10.4,7.5 19.6,16.7 27.1,27.1 4.7,6.4 8.7,13.3 12.1,20.5 l -111.1,51.4 0,0 0,0 0,0 0,0 0,0 0,0 0,0 0,0 -101.9,-67.9 z"
       id="path5905"
       style="fill:#ff420e;fill-opacity:1;fill-rule:evenodd;stroke:none" /><path
       d="m 431.10802,603.13928 c 2,4.4 3.8,9 5.3,13.6 4,12.2 6,25 6,37.8 0,12.9 -2,25.6 -6,37.9 -3.9,11.8 -9.5,23.1 -16.8,33.2 l -99.6,-71.1 0,0 0,0 0,0 0,0 111.1,-51.4 z"
       id="path5907"
       style="fill:#ffd320;fill-opacity:1;fill-rule:evenodd;stroke:none" /><path
       d="m 405.20802,724.43197 c -0.2,0.3 -0.4,0.6 -0.6,0.9 -7.5,10.4 -16.7,19.5 -27.1,27.1 -10.4,7.5 -21.9,13.4 -34.1,17.4 -12.2,3.9 -25,5.9 -37.8,5.9 l 0,-122.4 0,0 0,0 0,0 0,0 99.6,71.1 z"
       id="path5909"
       style="fill:#579d1c;fill-opacity:1;fill-rule:evenodd;stroke:none" /></g></svg>